<svg width="118" height="29" viewBox="0 0 118 29" fill="none" xmlns="http://www.w3.org/2000/svg">
<path d="M28.504 28H18.712V26.416L21.664 25.228L19.108 18.856H9.748L7.192 25.228L10.072 26.416V28H0.64V26.416L3.592 25.228L12.448 2.584H16.156L25.372 25.228L28.504 26.416V28ZM18.172 16.408L14.356 6.292L10.684 16.408H18.172ZM38.7682 28H29.3002V26.452L32.3242 25.264V12.412H29.3002V10.252C30.2362 9.796 31.2922 9.568 32.4682 9.568C33.6442 9.568 34.4602 9.82 34.9162 10.324C35.3722 10.828 35.6242 11.572 35.6722 12.556C35.9122 11.836 36.4042 11.188 37.1482 10.612C38.0362 9.916 39.2122 9.568 40.6762 9.568C41.3242 9.568 41.9362 9.652 42.5122 9.82C43.1122 9.988 43.5442 10.156 43.8082 10.324L44.2402 10.576V14.824H42.0802L41.6122 12.664C41.4682 12.52 41.0722 12.448 40.4242 12.448C39.7762 12.448 39.1522 12.544 38.5522 12.736C37.9522 12.904 37.4842 13.12 37.1482 13.384C36.4762 13.96 35.9962 14.548 35.7082 15.148V25.264L38.7682 26.452V28ZM51.7125 20.116C51.7125 22.18 52.0245 23.584 52.6485 24.328C53.2725 25.072 54.2205 25.444 55.4925 25.444C56.7645 25.444 57.8085 25.252 58.6245 24.868L59.3445 26.668C59.2485 26.788 59.1045 26.944 58.9125 27.136C58.7445 27.328 58.3005 27.592 57.5805 27.928C56.8605 28.24 56.0685 28.396 55.2045 28.396C53.0205 28.396 51.3285 27.784 50.1285 26.56C48.9285 25.312 48.3285 23.5 48.3285 21.124V12.844H46.4205V10.72L49.8765 7.264H51.7125V10H57.7605V12.844H51.7125V20.116Z" fill="#FA504D"/>
<path d="M76.6678 28H61.3678V25.552L72.3838 12.916H64.4278L63.7438 15.004H61.6918V10.072H76.1638V12.916L65.6878 25.048H74.1118L74.7958 22.888H76.6678V28ZM89.3949 28H79.9269V26.452L82.9509 25.264V12.412H79.9269V10.252C80.8629 9.796 81.9429 9.568 83.1669 9.568C84.4149 9.568 85.2549 9.868 85.6869 10.468C86.1189 11.044 86.3349 11.932 86.3349 13.132V25.264L89.3949 26.452V28ZM86.4789 5.428C85.9269 5.98 85.2549 6.256 84.4629 6.256C83.6709 6.256 82.9989 5.98 82.4469 5.428C81.8949 4.876 81.6189 4.204 81.6189 3.412C81.6189 2.62 81.8949 1.948 82.4469 1.396C82.9989 0.843999 83.6709 0.567999 84.4629 0.567999C85.2549 0.567999 85.9269 0.843999 86.4789 1.396C87.0309 1.948 87.3069 2.62 87.3069 3.412C87.3069 4.204 87.0309 4.876 86.4789 5.428ZM101.168 28.36C98.456 28.36 96.248 27.592 94.544 26.056C92.864 24.496 92.024 22.228 92.024 19.252C92.024 16.276 92.888 13.924 94.616 12.196C96.344 10.444 98.36 9.568 100.664 9.568C106.136 9.568 108.872 12.808 108.872 19.288H95.516V19.468C95.516 21.172 96.116 22.612 97.316 23.788C98.516 24.964 100.148 25.552 102.212 25.552C103.1 25.552 103.94 25.456 104.732 25.264C105.524 25.048 106.1 24.832 106.46 24.616L106.964 24.328L108.008 26.2C107.936 26.248 107.828 26.332 107.684 26.452C107.564 26.548 107.288 26.716 106.856 26.956C106.424 27.196 105.956 27.412 105.452 27.604C104.18 28.108 102.752 28.36 101.168 28.36ZM105.524 16.984C105.404 15.496 104.912 14.368 104.048 13.6C103.208 12.808 102.104 12.412 100.736 12.412C99.392 12.412 98.276 12.796 97.388 13.564C96.5 14.308 95.924 15.448 95.66 16.984H105.524ZM116.493 27.784C116.085 28.192 115.581 28.396 114.981 28.396C114.381 28.396 113.877 28.192 113.469 27.784C113.061 27.376 112.857 26.872 112.857 26.272C112.857 25.672 113.061 25.168 113.469 24.76C113.877 24.352 114.381 24.148 114.981 24.148C115.581 24.148 116.085 24.352 116.493 24.76C116.901 25.168 117.105 25.672 117.105 26.272C117.105 26.872 116.901 27.376 116.493 27.784Z" fill="#2E2F38"/>
</svg>
