<svg width="89" height="30" viewBox="0 0 89 30" fill="none" xmlns="http://www.w3.org/2000/svg">
<path d="M5.524 25.004H13.804V29H0.484V3.872H5.524V25.004ZM19.5634 6.68C18.6754 6.68 17.9314 6.404 17.3314 5.852C16.7554 5.276 16.4674 4.568 16.4674 3.728C16.4674 2.888 16.7554 2.192 17.3314 1.64C17.9314 1.064 18.6754 0.775999 19.5634 0.775999C20.4514 0.775999 21.1834 1.064 21.7594 1.64C22.3594 2.192 22.6594 2.888 22.6594 3.728C22.6594 4.568 22.3594 5.276 21.7594 5.852C21.1834 6.404 20.4514 6.68 19.5634 6.68ZM22.0474 9.056V29H17.0074V9.056H22.0474ZM35.343 24.356L40.383 9.056H45.747L38.367 29H32.247L24.903 9.056H30.303L35.343 24.356ZM85.2277 29.252C84.3157 29.252 83.5597 28.976 82.9597 28.424C82.3837 27.848 82.0957 27.14 82.0957 26.3C82.0957 25.46 82.3837 24.764 82.9597 24.212C83.5597 23.636 84.3157 23.348 85.2277 23.348C86.1157 23.348 86.8477 23.636 87.4237 24.212C87.9997 24.764 88.2877 25.46 88.2877 26.3C88.2877 27.14 87.9997 27.848 87.4237 28.424C86.8477 28.976 86.1157 29.252 85.2277 29.252Z" fill="#FBFBFB"/>
<path d="M51.1338 6.68C50.2458 6.68 49.5018 6.404 48.9018 5.852C48.3258 5.276 48.0378 4.568 48.0378 3.728C48.0378 2.888 48.3258 2.192 48.9018 1.64C49.5018 1.064 50.2458 0.775999 51.1338 0.775999C52.0218 0.775999 52.7538 1.064 53.3298 1.64C53.9298 2.192 54.2298 2.888 54.2298 3.728C54.2298 4.568 53.9298 5.276 53.3298 5.852C52.7538 6.404 52.0218 6.68 51.1338 6.68ZM53.6178 9.056V29H48.5778V9.056H53.6178ZM57.3013 18.956C57.3013 16.94 57.6973 15.152 58.4893 13.592C59.3053 12.032 60.3973 10.832 61.7653 9.992C63.1573 9.152 64.7053 8.732 66.4093 8.732C67.8973 8.732 69.1933 9.032 70.2973 9.632C71.4253 10.232 72.3253 10.988 72.9973 11.9V9.056H78.0733V29H72.9973V26.084C72.3493 27.02 71.4493 27.8 70.2973 28.424C69.1693 29.024 67.8613 29.324 66.3733 29.324C64.6933 29.324 63.1573 28.892 61.7653 28.028C60.3973 27.164 59.3053 25.952 58.4893 24.392C57.6973 22.808 57.3013 20.996 57.3013 18.956ZM72.9973 19.028C72.9973 17.804 72.7573 16.76 72.2773 15.896C71.7973 15.008 71.1493 14.336 70.3333 13.88C69.5173 13.4 68.6413 13.16 67.7053 13.16C66.7693 13.16 65.9053 13.388 65.1133 13.844C64.3213 14.3 63.6733 14.972 63.1693 15.86C62.6893 16.724 62.4493 17.756 62.4493 18.956C62.4493 20.156 62.6893 21.212 63.1693 22.124C63.6733 23.012 64.3213 23.696 65.1133 24.176C65.9293 24.656 66.7933 24.896 67.7053 24.896C68.6413 24.896 69.5173 24.668 70.3333 24.212C71.1493 23.732 71.7973 23.06 72.2773 22.196C72.7573 21.308 72.9973 20.252 72.9973 19.028Z" fill="#1BCFF6"/>
</svg>
