<svg width="64" height="64" viewBox="0 0 64 64" fill="none" xmlns="http://www.w3.org/2000/svg">
<path d="M56 26C54.7621 26.0035 53.5556 26.3898 52.5459 27.1059C51.5362 27.822 50.7726 28.8329 50.36 30H47.86C47.4136 26.48 45.8098 23.2082 43.3008 20.6992C40.7919 18.1902 37.5201 16.5864 34 16.14V13.64C35.3344 13.1682 36.4591 12.2399 37.1753 11.019C37.8914 9.79823 38.1529 8.36353 37.9136 6.96854C37.6743 5.57355 36.9495 4.30808 35.8673 3.3958C34.7852 2.48351 33.4154 1.98315 32 1.98315C30.5846 1.98315 29.2148 2.48351 28.1327 3.3958C27.0506 4.30808 26.3258 5.57355 26.0864 6.96854C25.8471 8.36353 26.1086 9.79823 26.8247 11.019C27.5409 12.2399 28.6656 13.1682 30 13.64V16.14C26.48 16.5864 23.2082 18.1902 20.6992 20.6992C18.1902 23.2082 16.5864 26.48 16.14 30H13.64C13.1682 28.6656 12.2399 27.5409 11.019 26.8247C9.79823 26.1086 8.36353 25.8471 6.96854 26.0864C5.57355 26.3258 4.30808 27.0506 3.3958 28.1327C2.48351 29.2148 1.98315 30.5846 1.98315 32C1.98315 33.4154 2.48351 34.7852 3.3958 35.8673C4.30808 36.9495 5.57355 37.6743 6.96854 37.9136C8.36353 38.1529 9.79823 37.8914 11.019 37.1753C12.2399 36.4591 13.1682 35.3344 13.64 34H16.14C16.4403 36.3622 17.264 38.6276 18.5512 40.6309C19.8383 42.6343 21.5563 44.3251 23.58 45.58L18.56 50.62C17.4421 50.1102 16.1973 49.9464 14.9856 50.1495C13.7738 50.3526 12.6505 50.9135 11.76 51.76C10.9781 52.535 10.4245 53.5102 10.1598 54.5788C9.89505 55.6475 9.92946 56.7683 10.2592 57.8187C10.589 58.8691 11.2014 59.8085 12.0294 60.534C12.8574 61.2596 13.869 61.7434 14.9536 61.9324C16.0382 62.1214 17.1539 62.0084 18.1785 61.6057C19.2031 61.2029 20.0972 60.5261 20.7628 59.6492C21.4285 58.7723 21.84 57.7291 21.9524 56.634C22.0648 55.5388 21.8737 54.4338 21.4 53.44L27.4 47.44C28.8984 47.847 30.4477 48.0356 32 48C33.5583 47.9986 35.108 47.7695 36.6 47.32L42.72 53.44C42.2463 54.4338 42.0552 55.5388 42.1676 56.634C42.28 57.7291 42.6916 58.7723 43.3572 59.6492C44.0228 60.5261 44.9169 61.2029 45.9415 61.6057C46.9661 62.0084 48.0818 62.1214 49.1664 61.9324C50.251 61.7434 51.2626 61.2596 52.0906 60.534C52.9186 59.8085 53.531 58.8691 53.8608 57.8187C54.1906 56.7683 54.225 55.6475 53.9603 54.5788C53.6956 53.5102 53.1419 52.535 52.36 51.76C51.482 50.8863 50.3551 50.3058 49.134 50.0981C47.9129 49.8905 46.6575 50.0658 45.54 50.6L40.48 45.54C42.4877 44.2827 44.1912 42.5954 45.4674 40.5997C46.7437 38.6041 47.5609 36.3499 47.86 34H50.36C50.7269 35.0378 51.3722 35.9546 52.2253 36.6502C53.0784 37.3457 54.1064 37.7932 55.1967 37.9437C56.2871 38.0941 57.3979 37.9417 58.4074 37.5032C59.417 37.0646 60.2865 36.3568 60.9207 35.4572C61.5549 34.5576 61.9295 33.5008 62.0033 32.4026C62.0772 31.3044 61.8475 30.207 61.3395 29.2306C60.8314 28.2541 60.0646 27.4362 59.1228 26.8665C58.1811 26.2967 57.1007 25.9969 56 26ZM17.42 57.42C17.2341 57.6075 17.0129 57.7563 16.7692 57.8578C16.5254 57.9593 16.264 58.0116 16 58.0116C15.736 58.0116 15.4746 57.9593 15.2309 57.8578C14.9871 57.7563 14.7659 57.6075 14.58 57.42C14.3926 57.2341 14.2438 57.0129 14.1422 56.7692C14.0407 56.5254 13.9884 56.264 13.9884 56C13.9884 55.736 14.0407 55.4746 14.1422 55.2309C14.2438 54.9871 14.3926 54.7659 14.58 54.58C14.7659 54.3926 14.9871 54.2438 15.2309 54.1422C15.4746 54.0407 15.736 53.9884 16 53.9884C16.264 53.9884 16.5254 54.0407 16.7692 54.1422C17.0129 54.2438 17.2341 54.3926 17.42 54.58C17.6075 54.7659 17.7563 54.9871 17.8578 55.2309C17.9593 55.4746 18.0116 55.736 18.0116 56C18.0116 56.264 17.9593 56.5254 17.8578 56.7692C17.7563 57.0129 17.6075 57.2341 17.42 57.42ZM48.12 54C48.5826 54.0027 49.0299 54.1656 49.3858 54.461C49.7417 54.7565 49.9843 55.1662 50.0721 55.6203C50.1599 56.0745 50.0876 56.545 49.8674 56.9518C49.6473 57.3586 49.2929 57.6766 48.8647 57.8515C48.4365 58.0264 47.9609 58.0475 47.5189 57.9111C47.0768 57.7747 46.6958 57.4894 46.4405 57.1036C46.1853 56.7179 46.0716 56.2555 46.1189 55.7954C46.1662 55.3353 46.3716 54.9058 46.7 54.58C46.8869 54.3946 47.1085 54.248 47.3522 54.1485C47.5959 54.0489 47.8568 53.9985 48.12 54ZM32 6.00001C32.3956 6.00001 32.7823 6.11731 33.1111 6.33707C33.44 6.55683 33.6964 6.86919 33.8478 7.23464C33.9991 7.60009 34.0387 8.00223 33.9616 8.39019C33.8844 8.77815 33.6939 9.13452 33.4142 9.41422C33.1345 9.69393 32.7782 9.88441 32.3902 9.96158C32.0022 10.0387 31.6001 9.99914 31.2346 9.84777C30.8692 9.69639 30.5568 9.44005 30.3371 9.11115C30.1173 8.78225 30 8.39557 30 8.00001C30 7.46958 30.2107 6.96087 30.5858 6.58579C30.9609 6.21072 31.4696 6.00001 32 6.00001ZM32 20C35.1826 20 38.2349 21.2643 40.4853 23.5147C42.7357 25.7652 44 28.8174 44 32C44.0002 33.0199 43.8657 34.0353 43.6 35.02C42.1628 33.5083 40.4439 32.2921 38.54 31.44C38.9445 30.3801 39.0853 29.2377 38.9503 28.1113C38.8152 26.9849 38.4085 25.9081 37.765 24.9738C37.1215 24.0395 36.2605 23.2755 35.2563 22.7478C34.252 22.2201 33.1345 21.9443 32 21.9443C30.8655 21.9443 29.748 22.2201 28.7438 22.7478C27.7395 23.2755 26.8785 24.0395 26.235 24.9738C25.5915 25.9081 25.1848 26.9849 25.0498 28.1113C24.9147 29.2377 25.0555 30.3801 25.46 31.44C23.5561 32.2921 21.8372 33.5083 20.4 35.02C20.1343 34.0353 19.9998 33.0199 20 32C20 28.8174 21.2643 25.7652 23.5147 23.5147C25.7652 21.2643 28.8174 20 32 20ZM35 29C35 29.5934 34.8241 30.1734 34.4944 30.6667C34.1648 31.1601 33.6962 31.5446 33.1481 31.7716C32.5999 31.9987 31.9967 32.0581 31.4147 31.9424C30.8328 31.8266 30.2982 31.5409 29.8787 31.1213C29.4591 30.7018 29.1734 30.1672 29.0577 29.5853C28.9419 29.0033 29.0013 28.4001 29.2284 27.852C29.4554 27.3038 29.84 26.8352 30.3333 26.5056C30.8266 26.176 31.4067 26 32 26C32.7957 26 33.5587 26.3161 34.1213 26.8787C34.6839 27.4413 35 28.2044 35 29ZM8.00001 34C7.60445 34 7.21777 33.8827 6.88887 33.6629C6.55997 33.4432 6.30362 33.1308 6.15225 32.7654C6.00087 32.3999 5.96127 31.9978 6.03844 31.6098C6.11561 31.2219 6.30609 30.8655 6.58579 30.5858C6.8655 30.3061 7.22187 30.1156 7.60983 30.0384C7.99779 29.9613 8.39992 30.0009 8.76538 30.1522C9.13083 30.3036 9.44318 30.56 9.66295 30.8889C9.88271 31.2178 10 31.6044 10 32C10 32.5304 9.78929 33.0392 9.41422 33.4142C9.03915 33.7893 8.53044 34 8.00001 34ZM28 43.32C27.7581 43.1636 27.4852 43.0612 27.2 43.02C25.1987 42.1694 23.4692 40.7858 22.2 39.02C23.6461 37.0252 25.6711 35.5239 28 34.72C29.1716 35.5428 30.5684 35.9843 32 35.9843C33.4316 35.9843 34.8284 35.5428 36 34.72C38.2897 35.5364 40.2774 37.0289 41.7 39C40.4045 40.773 38.6474 42.1566 36.62 43C36.4539 43.0422 36.2929 43.1026 36.14 43.18C34.8193 43.6958 33.4176 43.9734 32 44C30.6371 44.0097 29.2831 43.7795 28 43.32ZM56 34C55.6044 34 55.2178 33.8827 54.8889 33.6629C54.56 33.4432 54.3036 33.1308 54.1522 32.7654C54.0009 32.3999 53.9613 31.9978 54.0384 31.6098C54.1156 31.2219 54.3061 30.8655 54.5858 30.5858C54.8655 30.3061 55.2219 30.1156 55.6098 30.0384C55.9978 29.9613 56.3999 30.0009 56.7654 30.1522C57.1308 30.3036 57.4432 30.56 57.6629 30.8889C57.8827 31.2178 58 31.6044 58 32C58 32.5304 57.7893 33.0392 57.4142 33.4142C57.0392 33.7893 56.5304 34 56 34Z" fill="#1BCFF6"/>
</svg>
