<svg width="64" height="64" viewBox="0 0 64 64" fill="none" xmlns="http://www.w3.org/2000/svg">
<path fill-rule="evenodd" clip-rule="evenodd" d="M58 12C58 8.688 55.312 6 52 6H12C8.688 6 6 8.688 6 12V52C6 55.312 8.688 58 12 58H52C55.312 58 58 55.312 58 52V12ZM54 12V52C54 53.104 53.104 54 52 54H12C10.896 54 10 53.104 10 52V12C10 10.896 10.896 10 12 10H52C53.104 10 54 10.896 54 12Z" fill="#515DEF"/>
<path fill-rule="evenodd" clip-rule="evenodd" d="M30 31C30 28.24 27.76 26 25 26H19C16.24 26 14 28.24 14 31V45C14 47.76 16.24 50 19 50H25C27.76 50 30 47.76 30 45V31ZM26 31V45C26 45.552 25.552 46 25 46H19C18.448 46 18 45.552 18 45V31C18 30.448 18.448 30 19 30H25C25.552 30 26 30.448 26 31ZM36 32H48C49.104 32 50 31.104 50 30C50 28.896 49.104 28 48 28H36C34.896 28 34 28.896 34 30C34 31.104 34.896 32 36 32ZM36 40H48C49.104 40 50 39.104 50 38C50 36.896 49.104 36 48 36H36C34.896 36 34 36.896 34 38C34 39.104 34.896 40 36 40ZM36 48H48C49.104 48 50 47.104 50 46C50 44.896 49.104 44 48 44H36C34.896 44 34 44.896 34 46C34 47.104 34.896 48 36 48ZM8 22H56C57.104 22 58 21.104 58 20C58 18.896 57.104 18 56 18H8C6.896 18 6 18.896 6 20C6 21.104 6.896 22 8 22Z" fill="#515DEF"/>
<path d="M16 16C17.1046 16 18 15.1046 18 14C18 12.8954 17.1046 12 16 12C14.8954 12 14 12.8954 14 14C14 15.1046 14.8954 16 16 16Z" fill="#515DEF"/>
<path d="M22 16C23.1046 16 24 15.1046 24 14C24 12.8954 23.1046 12 22 12C20.8954 12 20 12.8954 20 14C20 15.1046 20.8954 16 22 16Z" fill="#515DEF"/>
<path d="M28 16C29.1046 16 30 15.1046 30 14C30 12.8954 29.1046 12 28 12C26.8954 12 26 12.8954 26 14C26 15.1046 26.8954 16 28 16Z" fill="#515DEF"/>
</svg>
