<?xml version="1.0" standalone="no"?>
<!DOCTYPE svg PUBLIC "-//W3C//DTD SVG 1.1//EN" "http://www.w3.org/Graphics/SVG/1.1/DTD/svg11.dtd" >
<svg xmlns="http://www.w3.org/2000/svg" xmlns:xlink="http://www.w3.org/1999/xlink" version="1.1">
<metadata>
Created by FontForge 20170731 at Fri Aug 11 21:39:57 2023
 By Aleksey,,,
Copyright (c) Niskala Huruf
</metadata>
<defs>
<font id="LoftyGoals-Regular" horiz-adv-x="1331" >
  <font-face 
    font-family="Lofty Goals"
    font-weight="400"
    font-style="italic"
    font-stretch="normal"
    units-per-em="2048"
    panose-1="0 0 0 0 0 0 0 0 0 0"
    ascent="1638"
    descent="-410"
    x-height="977"
    cap-height="1805"
    bbox="-375 -510 2798 2398"
    underline-thickness="102"
    underline-position="-358"
    slope="-11"
    unicode-range="U+000D-FB02"
  />
<missing-glyph horiz-adv-x="532" 
 />
    <glyph glyph-name="fi" unicode="fi" horiz-adv-x="1044" 
d="M844 287q-41 0 -70 28.5t-42.5 74.5t-19 86t-5.5 79q0 31 2 47q-89 -80 -211.5 -146t-196.5 -67q97 -151 156 -283.5t59 -199.5q0 -66 -52.5 -115t-123.5 -49q-128 0 -200 180.5t-72 499.5q0 209 31.5 421t88 390t127.5 318t156.5 219t169.5 79q174 0 174 -207
q0 -131 -73 -277.5t-248 -369.5q-53 -68 -126 -154.5t-100 -123.5l-22 -246q47 1 118 33.5t126.5 68.5t132 89t102.5 69q22 112 64 188t94 76q40 0 60 -14t20 -51q0 -28 -15.5 -70.5t-34 -84.5t-34 -117t-15.5 -160q0 -68 33 -68q16 0 45 34t62 82t67 96t67 82t54 34
q25 0 25 -31q0 -37 -41 -111.5t-98 -147t-123.5 -127t-110.5 -54.5zM283 901q158 186 274.5 402t116.5 325q0 58 -41 58q-59 0 -125.5 -104t-126.5 -284t-98 -397zM924 1106q-33 0 -55.5 30.5t-22.5 65.5q0 54 29.5 95.5t87.5 41.5q35 0 50 -28.5t15 -65.5q0 -51 -28 -95
t-76 -44zM373 -72q0 31 -18.5 88t-36 97.5t-51 113t-36.5 80.5l-2 -49q0 -139 35.5 -266t73.5 -127q14 0 24.5 18.5t10.5 44.5z" />
    <glyph glyph-name="fl" unicode="fl" 
d="M340 -258q-128 0 -200 180.5t-72 499.5q0 209 31.5 421t88 390t127.5 318t156.5 219t169.5 79q174 0 174 -207q0 -131 -73 -277.5t-248 -369.5q-53 -68 -126 -154.5t-100 -123.5l-22 -246q35 1 81 17t100.5 48t94.5 57.5t99 67t79 54.5q26 193 84 386.5t134 351
t173 256.5t193 99q69 0 111.5 -65.5t42.5 -173.5q0 -146 -71.5 -310t-195 -303t-266.5 -211q-21 -52 -33 -175.5t-12 -233.5q0 -68 20 -109t54 -41q44 0 108.5 59t129 143t125.5 168t111 143t73 59q21 0 37 -41q-5 -43 -75.5 -155.5t-165.5 -233t-207 -213t-189 -92.5
q-97 0 -148 110.5t-51 319.5q0 86 4 131q-91 -76 -203.5 -135t-181.5 -60q97 -151 156 -283.5t59 -199.5q0 -66 -52.5 -115t-123.5 -49zM283 901q158 186 274.5 402t116.5 325q0 58 -41 58q-59 0 -125.5 -104t-126.5 -284t-98 -397zM940 909q141 111 247.5 315.5
t106.5 358.5q0 82 -26 82q-35 0 -110.5 -143t-141 -325.5t-76.5 -287.5zM373 -72q0 31 -18.5 88t-36 97.5t-51 113t-36.5 80.5l-2 -49q0 -139 35.5 -266t73.5 -127q14 0 24.5 18.5t10.5 44.5z" />
    <glyph glyph-name=".notdef" horiz-adv-x="532" 
 />
    <glyph glyph-name="uni0000" horiz-adv-x="0" 
 />
    <glyph glyph-name="uni0000" horiz-adv-x="0" 
 />
    <glyph glyph-name="uni000D" unicode="&#xd;" horiz-adv-x="532" 
 />
    <glyph glyph-name="space" unicode=" " horiz-adv-x="583" 
 />
    <glyph glyph-name="exclam" unicode="!" horiz-adv-x="643" 
d="M266 309q-4 15 -5 37t1.5 56t4.5 54t7.5 64.5t6.5 54.5q8 67 36.5 218t68 330.5t86 312.5t81.5 133q47 -1 71.5 -30.5t18.5 -76.5q-20 -156 -132.5 -633t-162.5 -524q-22 -18 -47 -18q-29 0 -35 22zM190 86q6 48 25.5 63t67.5 15q33 0 53 -20.5t20 -43.5q0 -40 -31 -66.5
t-75 -25.5q-29 0 -47 24t-13 54z" />
    <glyph glyph-name="quotedbl" unicode="&#x22;" horiz-adv-x="538" 
d="M201 1155q-1 13 0 27t3 31.5t3 27.5q2 27 7.5 67t21 86t34.5 46q41 0 66.5 -26.5t21.5 -67.5q-2 -38 -42.5 -127t-77.5 -89q-13 0 -24.5 7t-12.5 18zM381 1155q-7 16 18 129t35 127q8 10 49 10q70 0 64 -71q-3 -31 -16 -64t-34.5 -70.5t-25.5 -46.5q-4 -10 -21.5 -17
t-29.5 -7q-34 0 -39 10z" />
    <glyph glyph-name="numbersign" unicode="#" horiz-adv-x="1404" 
d="M797 190q-6 72 43 273l-135 -2q-15 -1 -47 -2t-48 -2q-3 0 -24 -6l-13 -27q-1 -3 -16.5 -55.5t-29.5 -96.5t-32.5 -97t-35 -85t-27.5 -33q-33 -3 -56 13t-26 47q-2 39 68 332q-195 4 -195 69q-1 40 26 60t68 20q20 1 58 -2t57 -2h27q8 22 19.5 62.5t17.5 58.5q8 32 24 84
h-14l-31 -2h-16q-121 -5 -162 16q-28 15 -29 43q-1 20 7.5 36t23 26t34.5 17.5t42.5 10.5t46 5.5t45.5 2t41 0t33 0.5h28q119 381 164 383q31 4 45.5 -22.5t16.5 -61.5q7 -71 -52 -299q37 0 115 -1t123 -1q3 8 42.5 139.5t71 211t52.5 79.5q29 0 50 -15t24 -40
q8 -86 -74 -369q186 0 186 -67q2 -56 -225 -68q-8 -16 -8 -24q-13 -37 -53 -191q194 0 196 -55q0 -24 -46 -43t-93 -27t-94 -12q-99 -368 -166 -373q-39 -4 -47 92zM633 594q75 0 112 4l115 4q10 0 14 2q18 74 62 211q-98 -10 -238 -10q-9 -29 -31.5 -102.5t-33.5 -108.5z
" />
    <glyph glyph-name="dollar" unicode="$" horiz-adv-x="876" 
d="M346 -184q-67 0 -67 106l6 105q-8 2 -35.5 6.5t-45.5 9.5t-40 13.5t-33.5 24t-11.5 36.5q0 14 7 26.5t21 12.5q51 -21 125 -21h23l78 402q-85 66 -131.5 134t-46.5 158q0 132 103 223.5t239 102.5q4 15 12 52.5t16 63t21.5 54.5t35.5 44t52 15q53 0 53 -36
q0 -25 -21.5 -97.5t-35.5 -105.5q50 -10 121 -54t71 -85q0 -30 -26.5 -78.5t-53.5 -48.5q-10 0 -24 18.5t-27.5 41.5t-38 41.5t-53.5 18.5h-4l-6 -2h-4q-41 -101 -107 -360q11 -14 78.5 -86t100 -126t32.5 -108q0 -64 -29.5 -113.5t-73.5 -77.5t-88 -47t-82 -32.5t-46 -23.5
q-17 -19 -25 -72t-15.5 -94t-23.5 -41zM412 705q12 37 37.5 141t46.5 158q-53 -1 -97.5 -67t-44.5 -122q0 -27 17.5 -59.5t40.5 -50.5zM414 143q38 15 53 21.5t40.5 23.5t35.5 39.5t10 53.5q0 35 -26 88t-54 71q-51 -218 -59 -297z" />
    <glyph glyph-name="percent" unicode="%" horiz-adv-x="1265" 
d="M346 705q-70 0 -110.5 47.5t-40.5 121.5q0 80 39 161.5t103.5 134.5t131.5 53q64 0 111 -53.5t47 -118.5q0 -52 -23.5 -113t-61.5 -112.5t-90.5 -86t-105.5 -34.5zM135 -18q4 17 28.5 56t68 101t47.5 68q56 82 159 224.5t237 320t248 303t152 125.5q25 0 40 -26t15 -54
q0 -23 -66 -115.5t-177.5 -230.5t-204.5 -249.5t-203 -241.5t-117 -138q-11 -13 -40.5 -51.5t-51.5 -64t-47 -46.5q-30 -26 -53 -26q-14 0 -27 11.5t-8 33.5zM369 821q40 0 71.5 41.5t45.5 91t14 90.5q0 20 -11.5 45t-29.5 25q-61 0 -102.5 -67t-41.5 -150q0 -76 54 -76z
M811 -94q-70 0 -106.5 49.5t-36.5 126.5q0 65 33.5 140.5t98 132.5t138.5 57q64 0 111 -53.5t47 -118.5q0 -70 -40 -148t-107.5 -132t-137.5 -54zM829 16q57 0 104.5 75t47.5 136q0 31 -11 49.5t-30 18.5q-56 0 -106 -73.5t-50 -133.5q0 -26 11 -49t34 -23z" />
    <glyph glyph-name="ampersand" unicode="&#x26;" horiz-adv-x="1056" 
d="M715 -150q-37 0 -77.5 30.5t-73.5 76.5t-58 90t-39 80q-7 -2 -97 -31.5t-134 -29.5q-69 0 -116 26.5t-50 89.5q-4 132 268 371q-37 162 -33 373q1 58 14 123.5t36 132t58.5 127.5t77.5 108t96.5 75t112.5 28q165 0 174 -234q0 -120 -23.5 -222.5t-73 -193.5t-108.5 -167
t-147 -168q3 -24 9 -52.5t11 -48t15 -54t14 -48.5h4q18 0 146.5 77t204.5 128q14 10 31.5 -5t19.5 -34q1 -28 -28 -65t-77.5 -75.5t-93 -70t-93 -63t-58.5 -38.5q13 -49 69.5 -148.5t59.5 -148.5q0 -10 -16 -24.5t-25 -14.5zM494 694q88 83 155 273t62 305q0 25 -8.5 62.5
t-24.5 37.5q-47 0 -86 -53t-62 -132.5t-36 -158.5t-15 -143q-2 -42 2 -102t13 -89zM426 256q-5 12 -18.5 45.5t-22 58t-14.5 54.5q-41 -38 -95 -104t-53 -85q0 -30 35 -30q18 0 49 11t69 28t50 22z" />
    <glyph glyph-name="quotesingle" unicode="'" horiz-adv-x="411" 
d="M268 1151q-60 0 -51 88l2 35q9 69 31 145q9 33 65 33q91 0 82 -90q-4 -46 -47 -128.5t-82 -82.5z" />
    <glyph glyph-name="parenleft" unicode="(" horiz-adv-x="755" 
d="M182 514q0 331 120 679.5t316 592.5q2 2 15.5 18.5t21 25t20.5 20.5t25 18t23 6q88 0 88 -74q0 -25 -11 -52t-21 -42.5t-34 -45t-30 -38.5q-168 -223 -279.5 -552.5t-111.5 -604.5q0 -157 39 -280.5t106 -178.5q32 -26 81 -37.5t87 -12t66 -13t28 -41.5
q0 -42 -55.5 -69.5t-102.5 -27.5q-89 0 -159.5 45.5t-113 117t-70 168.5t-38 189t-10.5 189z" />
    <glyph glyph-name="parenright" unicode=")" horiz-adv-x="743" 
d="M797 1186q0 -720 -494 -1292q-3 -4 -15.5 -19t-20.5 -24.5t-20.5 -21.5t-24.5 -18t-23 -6q-88 0 -88 74q0 25 11.5 52.5t19 39t35.5 44.5t30 36q204 264 318 567t114 613q0 142 -27.5 250t-70.5 170q-66 98 -66 155q0 52 49 52q55 0 113 -64q160 -178 160 -608z" />
    <glyph glyph-name="asterisk" unicode="*" horiz-adv-x="1064" 
d="M629 1292q-6 -7 -40.5 -50t-60 -73t-58.5 -58t-52 -28t-19 25q0 70 133 215q-11 4 -35.5 4t-55 -2t-40.5 -2q-86 0 -86 47q0 15 5 25.5t16 16.5t22 9.5t28.5 4.5t30 1t32 -1t30.5 -1q57 0 90 9q-6 13 -24 48t-26.5 53.5t-16.5 48t-8 54.5q0 48 36 48q32 0 54.5 -23.5
t32.5 -53t25 -64.5t30 -50q4 4 18.5 23t26.5 34t30 36.5t34 38t32.5 31.5t30.5 23.5t24 8.5q17 0 35.5 -19.5t18.5 -36.5q0 -27 -68.5 -99t-77.5 -89q51 0 144 3t133 3q20 0 30 -4v-23q0 -28 -137 -60t-188 -32q-1 -19 53.5 -121.5t54.5 -121.5q0 -16 -18.5 -28.5
t-34.5 -12.5q-31 0 -66 43.5t-75 119.5t-43 80z" />
    <glyph glyph-name="plus" unicode="+" horiz-adv-x="952" 
d="M451 274q-26 2 -38 38.5t-11 88.5t4 89.5t8 64.5l-78 6q-2 0 -25.5 0.5t-38.5 2.5t-35.5 5.5t-31 12t-10.5 20.5q0 25 13.5 41.5t32 24t47 10.5t50.5 2t50.5 -2.5t39.5 -1.5h10q1 8 8.5 57t14.5 80t21 71.5t36.5 60.5t52.5 18q51 -4 63.5 -35.5t6.5 -89.5
q-2 -28 -6.5 -55t-13 -65t-11.5 -54l150 -9q22 0 57 -8.5t35 -23.5q0 -24 -19 -40t-54 -22.5t-64 -8.5t-71.5 -2t-53.5 -1q-3 -11 -9.5 -55.5t-14 -76.5t-21.5 -69.5t-38 -57t-56 -16.5z" />
    <glyph glyph-name="comma" unicode="," horiz-adv-x="403" 
d="M82 -125q-30 0 -25 51q1 11 6.5 32t6.5 24q4 14 23.5 47t21.5 55q2 24 7.5 50t16 55.5t30 48t44.5 18.5q44 0 68.5 -35.5t21.5 -81.5q-3 -32 -41 -95t-91 -116t-89 -53z" />
    <glyph glyph-name="hyphen" unicode="-" horiz-adv-x="899" 
d="M332 580q-22 0 -42 4t-37 18t-15 37q2 19 17 33t41 22t53.5 13t63.5 6t60 1.5t55 -0.5t37 -1q49 0 137.5 -6.5t98.5 -16.5t10 -26q0 -41 -149.5 -62.5t-329.5 -21.5z" />
    <glyph glyph-name="period" unicode="." horiz-adv-x="518" 
d="M246 63q-37 0 -59 26t-19 67q4 54 44 93.5t89 39.5q43 0 73 -29.5t25 -66.5q-6 -46 -54.5 -88t-98.5 -42z" />
    <glyph glyph-name="slash" unicode="/" horiz-adv-x="860" 
d="M956 1724q27 0 41.5 -17.5t14.5 -37.5q0 -18 -7.5 -46.5t-22.5 -65t-26 -61.5t-28.5 -62.5t-18.5 -40.5q-171 -393 -452 -1090q-199 -500 -236 -500q-29 0 -43 12.5t-14 43.5q0 58 262.5 733t378.5 952q74 180 151 180z" />
    <glyph glyph-name="zero" unicode="0" horiz-adv-x="714" 
d="M330 14q-65 0 -112 35.5t-71 92.5t-34.5 115t-10.5 118q0 117 31 272q10 48 27 108.5t47.5 142.5t66 147t84.5 111t99 46q67 0 116 -31.5t74.5 -84.5t37 -110t11.5 -120q0 -54 -9 -132t-26.5 -174.5t-48 -189.5t-69 -171.5t-94.5 -126.5t-119 -48zM530 1053
q-41 0 -85 -57t-76.5 -139t-53.5 -149.5t-30 -109.5q-25 -125 -25 -213q0 -27 1.5 -55t7.5 -70t16.5 -73.5t30 -54.5t46.5 -23q52 0 99 102.5t75 240t44 258t16 175.5q0 44 -17.5 106t-48.5 62z" />
    <glyph glyph-name="one" unicode="1" horiz-adv-x="610" 
d="M102 76q2 35 28 46.5t65.5 12t52.5 6.5q22 126 66 437t69 452q-20 -33 -47 -71t-68 -78.5t-67 -38.5q-13 0 -22 13t-9 26q1 38 98 160t140 155q18 16 53 16q29 -1 49 -18.5t27 -42t10.5 -52t-0.5 -50.5q-13 -153 -79.5 -456.5t-84.5 -442.5l133 -13q1 0 12 -1t18.5 -2.5
t17 -4t14.5 -7.5t4 -11q-2 -36 -98 -58t-183 -27t-137 -3q-31 2 -47 13t-15 40z" />
    <glyph glyph-name="two" unicode="2" horiz-adv-x="679" 
d="M84 70q0 25 23 81.5t48 104.5t61 114.5t42 78.5q4 8 57.5 110t81.5 159.5t58 139.5t30 125t-14.5 86t-46.5 43q-45 0 -87.5 -27t-67.5 -59t-47.5 -59t-33.5 -27q-28 0 -43.5 25.5t-15.5 54.5q0 63 55 118.5t127 84t133 28.5q197 0 197 -227q0 -85 -26.5 -181t-76 -195.5
t-96 -180t-110 -184.5t-94.5 -160q14 0 55 1t78 1t75.5 -2t62 -10.5t23.5 -22.5q0 -32 -77 -54.5t-147.5 -29t-112.5 -6.5q-26 0 -41 1.5t-33.5 7.5t-27.5 21.5t-9 39.5z" />
    <glyph glyph-name="three" unicode="3" horiz-adv-x="649" 
d="M268 23q-40 0 -91 23.5t-88.5 66.5t-33.5 88q3 22 27 22q11 0 27.5 -14t33.5 -31t49.5 -31t71.5 -14q68 0 115 33.5t65.5 79t18.5 96.5q0 97 -48.5 149t-121.5 66q-29 5 -42 23.5t-11 35.5q3 38 39 90.5t77.5 98t77.5 107t39 116.5q2 29 -9 47.5t-36 18.5
q-24 0 -55.5 -16t-50.5 -30.5t-57.5 -47.5t-43.5 -37q-12 -10 -28.5 1t-27.5 34t-9 46q3 32 54 73.5t120.5 70.5t120.5 29q77 0 127.5 -38t50.5 -100q0 -69 -28.5 -143.5t-72 -133.5t-84.5 -102.5t-75 -68.5q96 -3 166.5 -70t70.5 -184q0 -153 -87.5 -253.5t-250.5 -100.5z
" />
    <glyph glyph-name="four" unicode="4" horiz-adv-x="614" 
d="M399 571q-33 -12 -128 -22t-140 -8q-53 2 -65 9q-20 12 -19 52q2 35 160 290.5t196 283.5q11 8 29 8q25 -2 46 -24.5t20 -47.5q-1 -43 -43 -114.5t-92 -134t-97 -125t-55 -85.5q131 -4 197 19q5 13 22.5 109t44.5 162.5t68 64.5q37 -2 54.5 -17t16.5 -51
q-1 -27 -82.5 -463t-87.5 -454q-4 -9 -12 -17t-16 -8q-45 1 -58.5 110t-1.5 238q3 39 21 115t22 110z" />
    <glyph glyph-name="five" unicode="5" horiz-adv-x="702" 
d="M90 203q0 61 33 61q16 0 33 -24t32 -52.5t45.5 -52.5t69.5 -24q67 0 110 37t58.5 89t15.5 119q0 207 -155 207q-14 0 -41 -4t-41 -4q-94 0 -94 137q0 39 14.5 114t38.5 156.5t63.5 141t81.5 59.5q48 0 136 -9t139 -11q53 0 53 -23q0 -112 -184 -112q-28 0 -121 6
q-22 -60 -50 -152.5t-28 -128.5q0 -35 32.5 -52t80.5 -17q109 0 174 -87t65 -198q0 -179 -83.5 -277t-256.5 -98q-68 0 -144.5 63.5t-76.5 135.5z" />
    <glyph glyph-name="six" unicode="6" horiz-adv-x="567" 
d="M506 1100q-9 -21 -39.5 -60.5t-40.5 -54.5q-92 -138 -174 -393q42 20 104 20q78 0 131.5 -84.5t53.5 -208.5q0 -144 -74 -233.5t-193 -89.5q-98 0 -151 78.5t-53 210.5q0 108 25 234.5t67.5 240.5t92.5 209.5t105 152t101 56.5q23 0 36 -13.5t13 -36.5q0 -8 -2 -16.5
t-2 -11.5zM209 442q-21 -100 -21 -147q0 -87 35 -145t76 -58q38 0 72.5 66t34.5 141q0 80 -26.5 136.5t-76.5 56.5q-44 0 -94 -50z" />
    <glyph glyph-name="seven" unicode="7" horiz-adv-x="591" 
d="M127 -2q10 111 74 344q3 11 17.5 59t27 90t12.5 48q-8 4 -48.5 3.5t-70 8t-26.5 33.5q2 22 25.5 36.5t59 20t57 7t42.5 1.5q14 47 43.5 133.5t51 158t34.5 138.5q-12 -2 -48 -8.5t-59 -10.5t-53 -7.5t-51 -3.5q-57 0 -55 24q4 60 37 80q35 21 119.5 36t136.5 15
q70 0 102.5 -30.5t26.5 -98.5q-7 -71 -73 -221.5t-69 -187.5q-1 -11 6 -15t21 -6q13 -3 21 -5.5t15.5 -10t6.5 -19.5q-1 -14 -8 -24t-22.5 -16.5t-24.5 -9.5t-30 -6.5t-24 -4.5q-16 -24 -95.5 -242t-110.5 -309q-16 -16 -35 -16q-13 0 -33 16z" />
    <glyph glyph-name="eight" unicode="8" horiz-adv-x="540" 
d="M207 -33q-76 0 -130 81t-46 185q11 150 192 412q-26 57 -39 90t-25.5 89t-8.5 104q7 96 69 167.5t137 71.5q69 0 119.5 -60t50.5 -134q0 -60 -42 -154t-111 -186q71 -171 71 -322q0 -129 -74 -236.5t-163 -107.5zM403 938q3 37 -10.5 65.5t-34.5 28.5q-22 0 -42 -29.5
t-25 -66.5q-3 -3 -1 -21.5t1 -23t3 -24.5t4.5 -25.5t5.5 -26t6.5 -26.5t6.5 -27t7 -27q31 36 52.5 95t26.5 108zM223 84q32 0 64 74t32 149q0 33 -5 65.5t-16 82.5t-17 84q-114 -145 -123 -267q-4 -67 16.5 -127.5t48.5 -60.5z" />
    <glyph glyph-name="nine" unicode="9" horiz-adv-x="600" 
d="M74 45q0 8 16 24.5t41 41t39 45.5q140 207 217 456q-46 -34 -121 -34q-79 0 -130.5 76.5t-51.5 199.5q0 145 73.5 234.5t192.5 89.5q98 0 151.5 -78.5t53.5 -210.5q0 -133 -45.5 -295t-111 -291.5t-141.5 -218t-134 -88.5q-49 0 -49 49zM426 768q10 51 10 111
q0 87 -34.5 144.5t-75.5 57.5q-38 0 -72.5 -66t-34.5 -141q0 -81 25 -136.5t75 -55.5q28 0 56.5 25.5t50.5 60.5z" />
    <glyph glyph-name="colon" unicode=":" horiz-adv-x="548" 
d="M322 733q-37 0 -59 25.5t-19 66.5q4 54 44 93.5t89 39.5q43 0 73 -29.5t25 -66.5q-6 -46 -54.5 -87.5t-98.5 -41.5zM205 172q-37 0 -59 25.5t-19 66.5q5 54 44 93.5t89 39.5q43 0 73 -29.5t25 -66.5q-6 -46 -54.5 -87.5t-98.5 -41.5z" />
    <glyph glyph-name="semicolon" unicode=";" horiz-adv-x="577" 
d="M352 733q-37 0 -59 25.5t-19 66.5q4 54 44 93.5t90 39.5q43 0 73 -29.5t25 -66.5q-6 -46 -55 -87.5t-99 -41.5zM123 -43q-30 0 -25 51q1 11 6.5 31t6.5 24q4 14 23.5 47.5t21.5 55.5q2 24 7.5 50t16 55.5t30 48t44.5 18.5q44 0 68.5 -35.5t21.5 -81.5q-3 -32 -41 -95
t-91 -116t-89 -53z" />
    <glyph glyph-name="less" unicode="&#x3c;" horiz-adv-x="964" 
d="M739 287q0 -17 -11 -29t-28 -12q-25 0 -65 20q-26 14 -132 97.5t-207 174.5t-101 113q0 45 73 105q50 41 281 185t258 144q39 0 58.5 -17t19.5 -56q0 -64 -92 -117q-46 -27 -131 -73.5t-154 -86.5t-127 -80q3 -3 35 -32t59 -54t67.5 -63t72 -69.5t61.5 -63.5t46.5 -54
t16.5 -32z" />
    <glyph glyph-name="equal" unicode="=" 
d="M985 743q-61 0 -179 -11t-179 -11q-148 0 -181 35q-20 2 -20 53q0 30 31 70h280q11 0 45 1.5t67 2.5t76 0.5t78.5 -5t66.5 -12.5t49 -23.5t18 -37.5q0 -20 -18 -33.5t-46 -19t-48.5 -7.5t-39.5 -2zM444 430q-22 0 -31.5 1.5t-17.5 10.5t-8 29q0 52 15.5 72t62.5 26
q78 9 212 8.5t216 2.5q46 3 82 -2q34 -5 53.5 -20.5t15.5 -47.5q-2 -22 -9.5 -32t-28.5 -13q-246 -35 -562 -35z" />
    <glyph glyph-name="greater" unicode="&#x3e;" horiz-adv-x="1122" 
d="M229 274q2 18 119.5 93t248.5 153.5t148 93.5q-119 93 -313 211q-30 19 -52.5 54.5t-19.5 68.5q3 37 37.5 59.5t73.5 22.5q40 0 88.5 -35t109.5 -93.5t95 -82.5q111 -84 147 -125q42 -42 39 -80q-2 -45 -61 -96q-46 -43 -311 -164t-314 -121q-38 0 -35 41z" />
    <glyph glyph-name="question" unicode="?" horiz-adv-x="1112" 
d="M889 1286q0 112 -62 172t-170 60q-106 0 -188 -64.5t-82 -175.5q0 -45 12.5 -79t30 -54t34.5 -34.5t29.5 -28.5t12.5 -29q0 -22 -27.5 -35.5t-72.5 -13.5q-95 0 -147 64.5t-52 182.5q0 191 131 319t334 128q187 0 297 -114t110 -292q0 -78 -24.5 -148.5t-65 -127.5
t-90.5 -111.5t-104 -110.5t-102 -113.5t-88.5 -131.5t-59.5 -154q-16 -63 -47.5 -92t-63.5 -29q-16 0 -27.5 12t-16 30.5t-6 31t-1.5 23.5q0 22 2 32q15 92 50.5 173.5t81 142.5t97 117t100 107t88 102t63.5 112.5t24 128.5zM449 164q28 0 50.5 -18.5t22.5 -45.5
q0 -42 -31 -67t-75 -25q-26 0 -43 20.5t-17 47.5q0 49 22 68.5t71 19.5z" />
    <glyph glyph-name="at" unicode="@" horiz-adv-x="1679" 
d="M1061 1368q247 0 387.5 -133t140.5 -381q0 -83 -25 -172t-71.5 -169.5t-124 -132.5t-170.5 -52q-48 0 -83.5 20t-54 53t-29.5 75t-9 85t6 84q-21 -38 -50 -78t-67.5 -81t-84.5 -67t-89 -26q-78 0 -115.5 44.5t-37.5 111.5q0 92 52 186.5t149.5 161t211.5 66.5
q101 0 148.5 -50.5t25.5 -138.5q-29 -128 -12.5 -229t60.5 -101q56 0 104.5 63.5t74 148t25.5 157.5q0 198 -92 315t-280 117q-142 0 -271.5 -65.5t-218.5 -170.5t-141.5 -236.5t-52.5 -262.5q0 -387 352 -387q33 0 97 13.5t97 13.5h3q14 0 22 -1t17.5 -7t9.5 -19
q0 -32 -42.5 -57.5t-102 -39t-111 -20t-82.5 -6.5q-94 0 -175.5 46t-134.5 119t-83.5 163t-30.5 180q0 172 65 329.5t177.5 274.5t273 186.5t342.5 69.5zM991 756q4 63 -35 63q-70 0 -141 -91t-74 -155q-2 -28 7 -53.5t26 -25.5q44 0 128 104t89 158z" />
    <glyph glyph-name="A" unicode="A" horiz-adv-x="1740" 
d="M1688 774q23 0 33 -6.5t10 -28.5q0 -119 -248 -149l-6 -2q22 -580 194 -672q6 -3 18.5 -9t18.5 -9v-4l2 -13q0 -45 -84 -45q-298 0 -336 737q-82 -3 -152 2t-159.5 16t-134.5 15q-335 -573 -606 -573q-80 0 -126 64.5t-46 146.5q0 74 36.5 150t94.5 137t127 109t137 75
q88 35 213 35q53 0 80 -2q45 85 105 206.5t105 213t99 196.5t99 179.5t92 139t90.5 97t82.5 32.5q67 0 66 -177v-7q0 -27 -13.5 -354t-9.5 -545q9 2 91.5 23.5t126.5 21.5zM913 731q192 -24 289 -24q53 0 82 2q-5 209 10 513t15 320q-20 -38 -156.5 -330t-239.5 -481z
M682 616h-47q-126 0 -231.5 -58t-172.5 -167q-47 -76 -47 -125q0 -35 19.5 -62.5t54.5 -27.5q97 0 202 116t222 324z" />
    <glyph glyph-name="B" unicode="B" horiz-adv-x="1249" 
d="M827 737q-19 14 -49 32.5t-49.5 31t-39.5 28.5t-30 34.5t-10 39.5q0 31 38 81t91.5 110.5t107.5 129t92 155.5t38 171q0 31 -10 63t-35 32q-68 0 -152.5 -98.5t-159.5 -245t-142.5 -309.5t-111 -297.5t-55.5 -202.5q-2 -12 -7 -48.5t-8.5 -59t-13 -51t-22.5 -44.5
q-16 -20 -30 -27.5t-38 -7.5q-26 0 -42.5 16t-22.5 47.5t-7 51t-1 53.5v12q0 66 16 219.5t46.5 345.5t68 368t86.5 295.5t96 119.5q74 0 74 -70q0 -11 -2.5 -24.5t-6 -29t-4.5 -24.5q-14 -80 -59.5 -288t-62.5 -324q12 65 53.5 160t104.5 195.5t135.5 188t155 143.5
t153.5 56q87 0 137.5 -68.5t50.5 -158.5q0 -109 -61.5 -235.5t-152.5 -228t-187 -163.5q68 -20 135 -67q111 102 245 213.5t154 111.5q9 0 14 -9t5 -19q0 -28 -15.5 -58t-50 -65.5t-48.5 -48.5t-52 -45q-49 -41 -162 -154q127 -131 127 -287q0 -93 -65.5 -217t-163 -232.5
t-221 -184.5t-228.5 -76q-79 0 -125.5 41t-46.5 112q0 236 526 811zM508 -82q64 0 143.5 61.5t144 150.5t108.5 196t44 192q0 76 -39 135q-197 -208 -337 -393.5t-140 -273.5q0 -32 20.5 -50t55.5 -18z" />
    <glyph glyph-name="C" unicode="C" horiz-adv-x="1146" 
d="M918 1782q119 0 178 -72t59 -194q0 -95 -37.5 -185t-114.5 -152.5t-174 -62.5q-34 0 -67 18t-33 50q0 24 15.5 41.5t41 29t56 22.5t60.5 27t55.5 37.5t41 59t15.5 86.5q0 56 -25 103.5t-78 47.5q-64 0 -128 -51t-116 -135.5t-98 -181.5t-82 -202t-59 -182.5t-37 -137.5
q-51 -216 -51 -381q0 -32 1.5 -62t6.5 -70t13.5 -74t23.5 -68.5t35 -58.5t50 -39t67 -15q61 0 130 43t131.5 111.5t125.5 151.5t118.5 166t102.5 151.5t86.5 111.5t62.5 43q10 0 19 -7t8 -16q-2 -15 -9 -35.5t-20.5 -46t-25 -46.5t-31 -51t-29 -44.5t-28.5 -42.5t-21 -31
q-132 -202 -200 -287q-248 -315 -472 -315q-69 0 -125.5 28t-93.5 76.5t-63.5 107t-40 127.5t-19.5 129t-6 120q0 255 72 506q19 67 46 140.5t66 157.5t85 161.5t104 150t120 125.5t137 85t151 32z" />
    <glyph glyph-name="D" unicode="D" horiz-adv-x="1333" 
d="M408 903q21 69 53 153t80 194t107 210t124 186t141 137.5t150 51.5q62 0 108.5 -35.5t71.5 -86.5t40.5 -120.5t19.5 -124t4 -110.5q0 -136 -35 -322q73 43 114 43q18 0 31 -10.5t13 -28.5q0 -12 -20.5 -27t-72 -46t-88.5 -56q-11 -45 -20 -92q-13 -69 -40 -153.5
t-66.5 -177.5t-88 -184t-108 -173.5t-122.5 -145.5t-136 -100t-144 -37q-83 0 -131.5 50t-48.5 135q0 96 66.5 217.5t179 245t221.5 224.5t233 202q30 122 46 283t16 304q0 22 -2.5 51t-9.5 66.5t-22.5 62.5t-37.5 25q-52 0 -135.5 -100.5t-167 -248t-148 -276
t-104.5 -221.5q-103 -244 -135 -389q-1 -5 -6 -33.5t-10 -45.5t-14 -40.5t-23 -35t-33 -11.5q-72 0 -72 168q0 165 37 426q7 58 33.5 191t65.5 302t90 293t94 124h8l14 2q31 0 41.5 -16.5t10.5 -49.5q0 -8 -11 -88q-19 -107 -80.5 -363.5t-80.5 -398.5zM561 -8q62 0 123 55
t108.5 137.5t92 194.5t74.5 209t55 198q-543 -439 -543 -690q0 -104 90 -104z" />
    <glyph glyph-name="E" unicode="E" horiz-adv-x="1310" 
d="M627 803q-291 208 -291 481q0 109 39 202.5t101.5 157.5t141.5 110t159 67.5t155 21.5q151 0 253.5 -100.5t102.5 -253.5q0 -135 -81.5 -232.5t-194.5 -97.5q-60 0 -99 29.5t-39 73.5q0 35 26 54t73 19q72 0 118 41.5t46 106.5q0 87 -62.5 154t-150.5 67
q-59 0 -123.5 -27t-121.5 -75t-93.5 -125t-36.5 -166q0 -72 25 -142t62 -121.5t81 -100t81 -81t62 -60t25 -42.5q0 -27 -14.5 -45.5t-40 -27.5t-47.5 -13.5t-51.5 -7.5t-35.5 -4q-174 -29 -299 -162t-125 -314q0 -119 76.5 -210t175.5 -91q69 0 147 34t150 90t146.5 129
t137.5 148.5t121 150.5t99.5 133.5t70.5 99.5t36 47q16 16 34 16q13 0 21 -11t8 -30q0 -9 -16 -40t-38.5 -68.5t-25.5 -44.5q-45 -77 -88 -143.5t-103 -148.5t-119 -147.5t-133.5 -130.5t-149 -108.5t-162.5 -70.5t-177 -27q-174 0 -299 127.5t-125 302.5q0 114 45.5 215.5
t124 177.5t180 130.5t218.5 82.5z" />
    <glyph glyph-name="F" unicode="F" horiz-adv-x="1003" 
d="M240 244q12 211 59 444q-34 0 -96 -4q-30 -2 -46.5 14.5t-15.5 46.5q1 18 9.5 30t24.5 17.5t29.5 7.5t35.5 3q55 0 84 2q103 435 276 870l-90 6q-107 8 -167.5 -1.5t-82.5 -31t-24 -61.5q-1 -24 12.5 -44t30.5 -31.5t31.5 -26.5t13.5 -29q-1 -24 -33 -39.5t-58 -13.5
q-68 3 -99 49t-28 117q4 64 37.5 113t86.5 74.5t111.5 37t119.5 8.5q88 -7 229 -22l154 -17q159 -16 229 -20q61 -3 101 10.5t58 34.5t32 42.5t35 35.5t55 12q54 -4 49 -80q-10 -217 -348 -199q-71 3 -254 41q-167 -374 -275 -833h76q210 5 309 -2q33 -1 46.5 -14t11.5 -41
q-2 -56 -211 -56q-80 -2 -258 -2q-72 -350 -72 -583q5 -186 4 -203q-3 -34 -40.5 -55t-72.5 -19q-19 1 -33.5 12.5t-23.5 33.5t-15.5 46t-9 57t-4 60.5t-0.5 63t2 56t3 49.5t2 34z" />
    <glyph glyph-name="G" unicode="G" horiz-adv-x="1286" 
d="M389 150q-62 0 -100.5 -47t-38.5 -121q0 -79 57.5 -120.5t149.5 -41.5q65 0 124.5 29t105 74.5t89.5 116.5t75 138t64.5 158t54.5 158t48 155.5t43 134.5q-103 -158 -245.5 -269.5t-268.5 -111.5q-83 0 -144.5 33.5t-96.5 91.5t-51.5 126.5t-16.5 146.5q0 77 19.5 168.5
t56 186.5t86.5 187.5t114.5 174t135.5 144t154.5 98.5t166.5 36q86 0 168 -33.5t139 -102.5t57 -157q0 -89 -59 -172.5t-148.5 -133.5t-177.5 -50q-63 0 -118.5 34.5t-55.5 94.5q0 19 15.5 32t35.5 13q27 0 54 -10l32 -13q27 -10 54 -10q88 0 159.5 72t71.5 160
q0 72 -54.5 115.5t-127.5 43.5q-79 0 -164 -67.5t-154.5 -172t-126.5 -223.5t-88.5 -230t-31.5 -183q0 -242 176 -242q71 0 138.5 39t121 101t104 136.5t94.5 149.5t84.5 137t82 101t79.5 39q16 0 31.5 -12.5t15.5 -28.5q0 -7 -25 -63.5t-53 -121.5t-34 -84
q-19 -66 -44.5 -175t-46 -202t-53.5 -208t-67.5 -206.5t-87 -182.5t-112.5 -152t-144 -99t-183 -38q-183 0 -284 76t-101 223q0 133 80.5 217t216.5 84q114 0 194.5 -47t80.5 -113q0 -34 -21 -56t-53 -22q-23 0 -54.5 15t-59 33.5t-66 33.5t-72.5 15z" />
    <glyph glyph-name="H" unicode="H" horiz-adv-x="1304" 
d="M545 1841q66 3 92 -24t33 -86q14 -118 -9.5 -353.5t-76.5 -498.5q84 0 366 -5q67 313 160 560q47 127 120.5 245t129.5 113q35 -3 61 -28t23 -64q-2 -24 -18 -71t-32 -84.5t-38.5 -87t-24.5 -54.5q-113 -269 -176 -533h86q25 0 32 -10t7 -35q0 -21 -6 -33.5t-12.5 -18
t-30.5 -21.5q-9 -6 -105 -9q-41 -201 -49 -340q-14 -205 10.5 -343t102.5 -214q10 -10 10 -20q-2 -42 -72 -37q-65 5 -117.5 62t-82.5 144.5t-43 191t-6 204.5q13 185 45 350q-131 0 -369 4q-11 -48 -19.5 -84.5t-27 -108t-36 -128.5t-44 -132.5t-53 -133t-61 -117
t-69.5 -98t-77 -63t-86 -23.5q-33 0 -62 13.5t-28 33.5q1 27 14 42t38 26.5t34 19.5q58 46 96 153q96 264 166 603q-36 0 -79 1t-48 1q-25 0 -37 19t-12 44q0 31 12.5 43.5t44.5 17.5q50 5 154 5q107 537 88 811q-5 70 12 109t70 42z" />
    <glyph glyph-name="I" unicode="I" horiz-adv-x="815" 
d="M41 -98q0 23 18.5 38t53 22t61.5 10t66 4t45 1q55 842 329 1700l-223 -4q-69 0 -69 66q0 9 2.5 16t8 12.5t11 9.5t14.5 7l15 5t17 3.5t16.5 2.5t16 2t13.5 1q27 4 68.5 5.5t73 1.5t93.5 -0.5t89 -0.5h227q3 0 19.5 0.5t20 0t15.5 -2t15.5 -5l9.5 -9.5t8 -15t2 -22
q0 -17 -7.5 -30t-22.5 -20t-31 -11t-38.5 -5t-39 -1t-39 1t-31.5 1q-27 0 -47 -5q-119 -333 -230.5 -865.5t-111.5 -844.5h27l53 4h27q1 0 16.5 0.5t26 0t29 -1t32 -3t26.5 -6.5t20 -10.5t7 -15.5v-15q-2 -17 -9.5 -29.5t-20.5 -20t-24.5 -12t-31 -6t-30.5 -2t-32.5 0
t-27.5 0.5q-71 0 -213 -8.5t-213 -8.5q-100 0 -100 64z" />
    <glyph glyph-name="J" unicode="J" horiz-adv-x="1019" 
d="M741 838q38 157 88 411q6 33 36.5 181.5t41.5 228.5q-26 -19 -162.5 -109t-236.5 -166t-115 -114t-34.5 -60t-53.5 -22q-24 0 -41.5 10t-17.5 31q0 43 44.5 101.5t107.5 113t154 120t161 110t154 97t108 68.5q35 21 59 21q27 0 45.5 -24.5t24.5 -54t6 -61.5
q0 -39 -17 -111.5t-20 -92.5q-28 -179 -84 -441q-4 -24 -14 -71t-14 -68q79 48 143 68q16 4 33 -1t26.5 -15.5t5 -25.5t-27.5 -28q-52 -31 -211 -135q-25 -108 -50.5 -201.5t-63 -203t-78.5 -198t-96 -173.5t-116 -142t-138.5 -92t-162.5 -35q-115 0 -178 59t-63 167
q0 88 46 184t111.5 173.5t160.5 162.5t167.5 139t159.5 116.5t112 82.5zM713 709q-67 -48 -125.5 -92.5t-153 -128t-160.5 -157.5t-115.5 -164t-49.5 -165q0 -60 29 -92.5t83 -32.5q265 0 492 832z" />
    <glyph glyph-name="K" unicode="K" horiz-adv-x="1081" 
d="M43 -78q5 22 28 119.5t31 144.5q33 175 85 514.5t97.5 579t96.5 389.5q14 40 33.5 61t56.5 21q57 0 91 -17t34 -67q0 -27 -7 -63.5t-12.5 -56t-21.5 -69t-18 -55.5q-64 -202 -138 -657q0 -3 1 -7.5t1 -6.5q75 64 163 154.5t187 208t181 254t119 257.5q2 6 6.5 22.5t7 24
l7.5 22.5t8.5 23t9 19.5t10.5 17.5t11 12.5t13 9.5t15 3q51 0 71.5 -24t20.5 -75q0 -109 -73 -264.5t-179.5 -299.5t-229.5 -266t-221 -173q57 -3 124.5 -38.5t109.5 -92.5q52 -69 96 -164.5t71 -180t59.5 -171t63.5 -148t80.5 -100.5t112.5 -39q23 0 75 12.5t71 12.5
q41 0 41 -41q0 -66 -35.5 -100t-120.5 -34q-78 0 -144.5 25t-113 67t-87 100t-69 120t-57.5 131.5t-52.5 130.5t-54.5 120.5t-63 98.5q-84 101 -138.5 149t-97.5 48q-14 0 -26 -18t-20 -47.5t-13.5 -57t-10 -56t-5.5 -34.5q-70 -337 -105 -432q-34 -98 -78.5 -139.5
t-81.5 -41.5q-10 0 -17 3.5t-11 10t-6.5 14t-2 19t1.5 21.5t3.5 24.5t4.5 24t5.5 24.5t5.5 23z" />
    <glyph glyph-name="L" unicode="L" horiz-adv-x="1130" 
d="M436 -59l-10 -17q-45 -64 -130 -116t-157 -52q-67 0 -120.5 51.5t-53.5 116.5q0 54 36.5 96.5t92 65.5t111.5 34t106 11q55 180 92 436q-87 -24 -170 -39q-27 -6 -52 5.5t-25 41.5q0 6 2 11.5t4.5 9t8 7.5t9 6t11 5t10 3.5t10 3t8.5 2.5q111 32 203 71q9 61 14 125
q34 288 58 410q11 56 27 114t41 130t59 133.5t75.5 114.5t97 83.5t117.5 30.5q71 0 127 -38.5t88 -99t48 -127.5t16 -132q0 -144 -44 -269t-124 -222t-180 -170.5t-224 -129.5q-55 -385 -114 -561q40 -17 111 -55.5t124.5 -59t104.5 -20.5q64 0 129 25t103 52t86.5 67
t60.5 48q23 17 37 17q20 0 20 -29q0 -28 -17.5 -62t-33 -52.5t-43.5 -49.5q-148 -168 -367 -168q-79 0 -143 22t-136.5 64.5t-103.5 55.5zM639 797q397 227 397 598q0 29 -7.5 75t-21 97.5t-39.5 88t-57 36.5q-114 0 -204 -437q-8 -39 -17.5 -97t-15.5 -102.5t-17.5 -130.5
t-17.5 -128zM92 -88q0 -18 16 -27.5t29 -9.5q59 0 113 96q-158 -11 -158 -59z" />
    <glyph glyph-name="M" unicode="M" horiz-adv-x="1802" 
d="M1444 1208q0 18 -0.5 24.5t-3.5 19t-11 17.5t-22 5q-55 0 -156.5 -100.5t-205 -258t-160.5 -305.5l-15 -39t-15 -37.5t-14 -29t-19.5 -29t-24.5 -22.5q-40 -29 -76 -29q-23 0 -35.5 15t-13.5 29l-2 15q0 123 45 313.5t90 371t45 278.5q0 41 -19 41q-38 0 -149.5 -172.5
t-221.5 -387t-153 -337.5q-14 -39 -32.5 -124t-40.5 -143t-60 -94q-44 -41 -108 -41q-32 0 -48 13t-16 51q0 26 2 53t7.5 66t10 68t15.5 93t18 107q69 427 133 676q42 175 92.5 271.5t98.5 96.5q34 0 59 -40.5t25 -94.5q0 -60 -33.5 -208t-93 -371t-62.5 -234q12 27 44 98.5
t61 138t72.5 156.5t84 165.5t90.5 153.5t95.5 131.5t95.5 87.5t94 34q67 0 108.5 -65t41.5 -171q0 -44 -7 -99t-21.5 -122t-24.5 -111t-29 -117t-23 -89q38 82 96.5 167.5t127.5 160.5t148.5 123t148.5 48q165 0 165 -260q0 -112 -21.5 -227t-52 -211t-61 -189.5t-52 -196
t-21.5 -196.5q0 -78 27.5 -111.5t58.5 -33.5q116 0 396 677q12 27 17 40q8 22 15 28.5t28 6.5q27 0 36.5 -9t2.5 -32q-255 -852 -549 -852q-93 0 -164 79t-71 222q0 117 33.5 264.5t73 265t73 261.5t33.5 257z" />
    <glyph glyph-name="N" unicode="N" horiz-adv-x="1433" 
d="M1155 1374q0 113 -34.5 185.5t-88.5 72.5q-58 0 -127.5 -100.5t-133 -253t-132 -348t-122.5 -370.5t-107.5 -337t-83.5 -231q-14 -33 -38 -43t-69 -10q-20 0 -34 6.5t-20.5 14t-10 24.5t-4 27t-0.5 32q0 52 4.5 109t12.5 129.5t11 107.5q43 436 201 1071q9 35 26.5 93
t46 123.5t46.5 64.5q91 -5 84 -121q0 -22 -7 -47q-45 -159 -76 -333.5t-64 -429.5t-46 -339q5 18 18 66q22 82 36 133.5t46.5 160t58.5 184.5t67 184.5t78 184.5t85.5 159t95 134.5t101.5 85t110 33.5q114 0 190.5 -137.5t76.5 -341.5q0 -118 -24.5 -241t-79 -305.5
t-66.5 -227.5q-11 -41 -37 -130t-39.5 -141t-26 -128.5t-12.5 -141.5q0 -52 13 -69q8 -10 20 -15q48 45 162 257t161 321q2 5 17.5 45.5t28.5 71.5t31 69t35 60t30 22q17 0 25.5 -14.5t8.5 -32.5q0 -56 -106 -296t-238.5 -463.5t-191.5 -223.5q-174 0 -174 270q0 64 5.5 128
t20 142t23.5 120.5t32 140.5t29 124q17 74 61.5 232t69.5 274.5t25 208.5z" />
    <glyph glyph-name="O" unicode="O" 
d="M764 1798q137 -3 231 -61l47 18q71 23 107 23q33 0 54.5 -15.5t21.5 -40.5q0 -43 -84 -67q-18 -5 -41 -15q129 -175 123 -555q-3 -240 -49 -446q73 23 305 119q18 -18 18 -31q0 -23 -70 -76q-135 -102 -290 -153q-94 -315 -265.5 -506.5t-373.5 -188.5q-177 3 -283.5 151
t-101.5 384q3 231 112 504q-76 146 -73 325q2 180 82.5 325.5t220 227t309.5 78.5zM311 1028q107 203 250 371.5t299 267.5q-31 8 -76 8q-88 1 -177 -38t-158 -105.5t-112.5 -161.5t-43.5 -199q0 -67 18 -143zM408 817q159 -217 489 -225q66 0 121 8q86 302 86 588v37
q0 243 -103 358q-195 -139 -347 -337.5t-246 -428.5zM354 670q-54 -176 -57 -365q-2 -163 61.5 -270.5t163.5 -110.5q119 -3 240.5 147.5t210.5 393.5q-16 -2 -49 -2q-171 1 -318.5 55t-251.5 152z" />
    <glyph glyph-name="P" unicode="P" horiz-adv-x="1218" 
d="M367 535q-96 -464 -123 -564q-35 -134 -58 -155q-31 -27 -59 -27q-68 0 -68 68q0 49 6.5 104t16.5 121t14 104q7 65 61 372t104 581l50 274q8 39 21 89t35 121t49 118t51 47q30 0 69 -16.5t35 -42.5q-50 -267 -104 -457q25 57 43.5 97t51 100.5t61.5 103t71 90t84 77
t96 49t111 19.5q132 0 197.5 -83t79.5 -244q26 7 104 22q49 6 49 -30q0 -19 -33 -41.5t-116 -63.5v-8q0 -138 -30 -274.5t-88.5 -255.5t-138 -210.5t-185 -144.5t-222.5 -53q-76 0 -137 30t-98 83zM483 1030q202 212 607 387q-14 283 -150 283q-52 0 -110 -45.5t-105.5 -112
t-92 -147.5t-73 -146.5t-45.5 -115.5q-29 -97 -31 -103zM645 545q97 0 181 67.5t140 176t89 241.5t37 268q-122 -59 -229.5 -121t-213.5 -138.5t-168.5 -158t-62.5 -155.5q0 -82 68 -131t159 -49z" />
    <glyph glyph-name="Q" unicode="Q" horiz-adv-x="1351" 
d="M844 -106q-161 -119 -342 -119q-199 0 -322 111.5t-123 308.5q0 242 162 495q-49 140 -49 279q0 154 57 297t154.5 250t237 171t296.5 64q231 0 353 -199q95 45 127 45t58 -18.5t26 -50.5q0 -29 -139 -108l-3 -1.5l-3 -1.5t-3 -2q47 -142 47 -315q0 -120 -28 -266
t-79.5 -296t-133 -295.5t-179.5 -248.5q238 -159 459 -227q2 0 23 -6.5t36.5 -12t35.5 -13t31 -15.5t11 -15q0 -59 -63 -59q-153 0 -319.5 65.5t-327.5 182.5zM332 891q0 -31 2 -45q150 183 354 343t408 275q3 2 15.5 9.5t21.5 11.5q-89 121 -230 121q-123 0 -233 -68.5
t-182 -175t-114 -231t-42 -240.5zM834 86q162 191 281.5 496.5t119.5 552.5q0 101 -29 200q-90 -59 -130 -85t-126 -85t-133.5 -96t-120 -97t-119.5 -109.5t-98.5 -112t-89.5 -125.5q117 -281 445 -539zM729 -16q-263 224 -414 495q-59 -145 -59 -313q0 -114 67.5 -195.5
t180.5 -81.5q108 0 225 95z" />
    <glyph glyph-name="R" unicode="R" horiz-adv-x="1198" 
d="M362 645q-33 -150 -49 -244q-5 -26 -12.5 -78t-14.5 -93t-16 -78q-23 -90 -36 -114q-28 -47 -97 -44q-32 2 -52 15.5t-19 37.5q4 119 60 499.5t129.5 756t115.5 436.5q1 1 20 14q8 2 23 2q113 -3 110 -110q0 -13 -7.5 -36t-8.5 -28l-100 -428q31 75 67 147t91.5 155
t114.5 143.5t136 101.5t156 41q62 0 112.5 -22.5t84 -60.5t57 -88.5t33.5 -104.5t10 -111q0 -128 -57 -252.5t-149.5 -218.5t-215 -157.5t-248.5 -76.5q59 -43 121.5 -120.5t93.5 -143.5q7 -16 28 -65.5t39 -89t44.5 -95t53.5 -97.5t58 -80.5t64.5 -59.5t66.5 -21q17 0 49 4
t48 4q14 0 19 -5.5t5 -18.5q0 -35 -37.5 -59t-77.5 -32t-73 -8q-56 0 -108.5 22.5t-93.5 57.5t-81 89t-68.5 106t-59 119t-50 118t-44 113.5t-38.5 95.5q-32 74 -77.5 111t-119.5 51zM938 1608q-64 0 -139.5 -65t-138.5 -159t-110.5 -182.5t-70.5 -152.5q-47 -132 -84 -267
q62 -8 92 -8q125 -4 234.5 42.5t184.5 128.5t118 193.5t43 235.5q0 37 -4.5 72t-17 74.5t-40 63.5t-67.5 24z" />
    <glyph glyph-name="S" unicode="S" horiz-adv-x="1150" 
d="M555 735q-64 50 -102 82.5t-89.5 85.5t-80 98t-49.5 105t-21 123q0 120 54.5 223t144 171t203.5 106t233 38q136 0 229.5 -72.5t93.5 -205.5q0 -87 -34.5 -154t-90.5 -105.5t-120.5 -57.5t-132.5 -19q-40 0 -58 11.5t-18 49.5q0 26 33 44.5t79.5 33t93.5 34t80 58
t33 93.5q0 68 -46 112.5t-146 44.5q-94 0 -193.5 -55.5t-166 -147t-66.5 -186.5q0 -36 10 -71.5t22.5 -62.5t40.5 -60t46.5 -52.5t60 -53t60.5 -47.5t67 -50q178 110 340.5 186t202.5 76q26 0 26 -20q0 -16 -21.5 -39t-72 -58.5t-94.5 -63.5t-130.5 -81t-137.5 -86
q109 -89 169 -181.5t60 -213.5q0 -155 -98 -301.5t-254 -236t-318 -89.5t-265 90t-103 229q0 85 42.5 176.5t118.5 178.5t165.5 165t199.5 156zM860 338q0 84 -50.5 157t-143.5 152q-482 -339 -482 -610q0 -78 40.5 -115t129.5 -37q128 0 246.5 66.5t189 171.5t70.5 215z
" />
    <glyph glyph-name="T" unicode="T" horiz-adv-x="860" 
d="M813 1870q36 -2 62.5 -15.5t25.5 -44.5q0 -1 -27 -77h89q5 0 35.5 -0.5t48.5 0t50.5 1.5t53.5 5t42.5 10t32.5 16.5t11 24.5q0 16 -10 27.5t-21.5 17t-21.5 16.5t-10 27q0 28 21.5 43.5t49.5 15.5q48 0 74.5 -39t26.5 -88q0 -28 -5 -52t-15 -42t-23.5 -32.5t-30 -24.5
t-36 -17.5t-40.5 -11.5t-43 -7t-45 -3.5t-46 -1.5t-45 0h-22q-72 0 -157 10q-27 -75 -73.5 -202.5t-77 -210.5t-36.5 -101q-97 -301 -174 -639q-3 -17 -32.5 -173.5t-56 -285t-34.5 -139.5q-9 -12 -28 -12q-71 4 -60 274q11 306 113 717.5t233 745.5q9 17 19 47
q-225 26 -312 26q-45 0 -99 -34t-54 -76q0 -17 11 -45t11 -45q0 -31 -38 -31q-55 0 -82 23t-27 77q0 68 28 118.5t76 77.5t103.5 39.5t120.5 12.5q36 0 79.5 -4.5t72.5 -9t80 -13.5t73 -12q29 70 37 78q42 42 102 39z" />
    <glyph glyph-name="U" unicode="U" horiz-adv-x="1306" 
d="M1049 -205q-42 0 -73.5 38t-47 95.5t-22.5 109.5t-7 95q0 348 59 563q-20 -62 -42 -124.5t-56 -143.5t-69.5 -152.5t-80.5 -142.5t-91 -121.5t-100 -82t-107 -31.5q-265 0 -265 417q0 101 16.5 235t36 242.5t57.5 271.5t58 240t60 230q13 55 47 145.5t59 87.5
q55 -5 84 -31.5t19 -78.5q-15 -83 -114.5 -517.5t-115.5 -627.5q-6 -70 -6 -139q0 -291 141 -291q41 0 93 64t102.5 167.5t99.5 220.5t91 237.5t69 203t41 131.5q5 18 25 102.5t41.5 166t49.5 169.5t60.5 142.5t63.5 54.5q52 0 82 -19t30 -69q0 -34 -11.5 -72.5t-29 -84
t-24.5 -69.5q-77 -262 -133 -638t-56 -633q0 -31 4 -86.5t6.5 -98t1.5 -85.5t-12.5 -67t-33.5 -24z" />
    <glyph glyph-name="V" unicode="V" horiz-adv-x="1105" 
d="M350 1827q54 -3 62 -70q2 -28 1.5 -79t0.5 -79q1 -30 4 -81t5 -93t3 -79q7 -214 12.5 -346.5t18 -321.5t33 -348t49.5 -297q30 133 115 382.5t190.5 516t223.5 501t200 316.5q48 48 102 45q18 0 31 -6t12 -23q-1 -26 -27 -76t-66.5 -114t-47.5 -76q-250 -462 -570 -1405
q-71 -208 -90 -221q-53 -40 -133 -37q-30 0 -53 23q-59 59 -104 302t-65.5 534.5t-29 540.5t-4.5 368q1 39 5.5 71.5t16.5 71t39 60t66 20.5z" />
    <glyph glyph-name="W" unicode="W" horiz-adv-x="1648" 
d="M881 1004q-18 -54 -49 -141.5t-88.5 -226.5t-113.5 -253t-120.5 -197.5t-112.5 -83.5q-73 0 -123 56t-72.5 149t-32.5 198t-5 218.5t12.5 194t16.5 141.5q6 38 11.5 72t17.5 101t25.5 124t32 127t40.5 124.5t47 102t55.5 73t62.5 25.5q41 0 63.5 -18t26 -46.5t-1.5 -57.5
t-18 -58q-93 -214 -131 -446q-17 -101 -32.5 -237.5t-24.5 -288.5t6 -255.5t57 -103.5q9 0 20.5 16.5t24.5 42t14 27.5q49 82 115 249t120 320t115 298.5t103 197.5q35 47 84 47q42 0 61 -51q7 -22 7.5 -71.5t-3 -97.5t-7.5 -104.5t-5 -78.5q-24 -363 -27 -517
q-14 -575 83 -575q36 0 99.5 151.5t126 365t113 463t60.5 425.5q8 164 8 324q0 39 24.5 60t45.5 21t36.5 -23.5t20.5 -53.5q6 -31 8 -70.5t2 -67t-1 -62.5t-1 -44q0 -136 -22 -312t-59.5 -358.5t-92 -359t-116 -313.5t-134 -221.5t-143.5 -84.5q-60 0 -105 54.5t-71 140
t-42 200t-20.5 225.5t-3.5 225t4.5 190t8.5 129z" />
    <glyph glyph-name="X" unicode="X" horiz-adv-x="1169" 
d="M506 1800q58 0 94 -37.5t23 -89.5q-35 -125 -35 -321q0 -232 110 -539q187 243 363 528q37 59 100 172t76 136q10 18 17 28.5t22 22.5t31 12q15 0 35 -18t20 -33q0 -20 -7 -44t-13.5 -38.5t-22 -44t-19.5 -37.5q-74 -150 -223.5 -384.5t-318.5 -448.5q88 -209 198 -393
t211 -291q26 -28 69 -63t65 -57.5t22 -39.5q0 -26 -22 -38.5t-54 -12.5q-46 0 -73 20q-150 119 -288.5 309t-246.5 420q-388 -450 -631 -450q-26 0 -41.5 17.5t-15.5 43.5q0 14 5.5 23t16.5 12.5t20 4.5t23 1q148 0 562 489q-92 222 -143.5 442.5t-51.5 405.5q0 40 4 80.5
t15 93.5t38 86t66 33z" />
    <glyph glyph-name="Y" unicode="Y" horiz-adv-x="1415" 
d="M238 -25q3 106 81 230t200.5 236.5t262.5 210t281 169.5q22 103 31 160q3 17 13.5 78t14.5 84.5t11.5 76t10.5 84.5t6 75.5t3 82.5v33q-28 -42 -79 -132.5t-94.5 -168t-106.5 -169.5t-122 -156.5t-132.5 -108t-145.5 -43.5q-48 0 -83.5 19t-55 47.5t-31.5 71t-15 79.5
t-3 82q0 92 54.5 266.5t136 320.5t145.5 146q47 0 81 -28t15 -72q-19 -45 -57.5 -128.5t-62 -137.5t-49.5 -125t-39 -137.5t-13 -129.5q0 -51 9.5 -72.5t31.5 -21.5q29 0 71 35t92 99t97.5 132t101.5 157t90 149t77.5 133t49.5 86q21 35 47.5 48t69.5 13q24 0 44.5 -6
t35 -15t26 -26t18.5 -30.5t12 -37.5t7.5 -39t4 -42t1.5 -40v-40q0 -229 -61 -547q52 14 96 14q53 0 53 -39q0 -46 -51 -59q-49 -14 -125 -41q-67 -305 -155 -482q-37 -72 -82 -146t-111 -159t-133.5 -149t-149.5 -107t-159 -43q-117 0 -193 72.5t-73 187.5zM1028 674
q-79 -47 -157 -99.5t-167 -125t-155.5 -143t-111.5 -151t-46 -151.5q0 -28 5.5 -62t24 -67t46.5 -33q33 0 79 24.5t83 53.5q92 74 172 202.5t132.5 262t94.5 289.5z" />
    <glyph glyph-name="Z" unicode="Z" horiz-adv-x="1357" 
d="M1219 1569q-25 0 -167 10t-233 10q-350 0 -350 -125q0 -29 30 -43t70 -14q43 0 43 -35q0 -32 -32.5 -54t-79.5 -22q-69 0 -115.5 40t-46.5 116q0 46 14 83t37 63.5t59.5 47t73 32.5t87.5 20.5t93.5 11.5t99.5 4.5t97 0.5t95 -2t85 -1h246q27 0 47.5 -3t41.5 -11.5
t32.5 -27t11.5 -46.5q0 -97 -140.5 -342.5t-328 -506t-374.5 -491t-281 -313.5q51 -28 213 -28q151 0 315 26.5t250 71.5q29 15 61.5 40t54 40.5t32.5 15.5q20 0 20 -55q0 -69 -40 -122t-104.5 -85.5t-154.5 -53t-180 -28.5t-191 -8q-262 0 -440 39q-78 19 -78 110l38 46
q39 47 104.5 126.5t150 184.5t177.5 225.5t186.5 245.5t178 248.5t150 229.5t104 193t38.5 136z" />
    <glyph glyph-name="bracketleft" unicode="[" horiz-adv-x="798" 
d="M578 1925q129 0 220 -31.5t91 -78.5q0 -44 -20.5 -59t-69.5 -15q-11 0 -49 0.5t-71.5 0.5t-55.5 -1q-80 -130 -149 -456t-103.5 -657.5t-34.5 -564.5q0 -35 13.5 -59.5t33.5 -38t56.5 -21t68.5 -9t82 -1.5h13h18t18.5 -0.5t19.5 -2.5t15 -5t12 -8t4 -12q0 -32 -22 -56
t-53 -37t-72 -21t-72.5 -10.5t-60.5 -2.5q-149 0 -204.5 77.5t-55.5 260.5q0 93 21 299t61 463.5t91 492t119 394t136 159.5z" />
    <glyph glyph-name="backslash" unicode="\" horiz-adv-x="862" 
d="M231 1843q5 8 8.5 13.5t7.5 10.5t6.5 7.5t7 4.5t7 3t9 1.5t10 0.5h13h15.5q10 0 37 -67q16 -49 32 -110t26.5 -105.5t27.5 -117t25 -108.5q34 -144 143 -678t139 -657q5 -21 8 -45.5t2.5 -55t-11.5 -50t-33 -19.5q-24 0 -42 11t-28.5 34.5t-16 40t-12 50t-8.5 42.5
q-39 147 -196 887t-166 819z" />
    <glyph glyph-name="bracketright" unicode="]" horiz-adv-x="839" 
d="M70 -127q1 26 22.5 40.5t40.5 14.5q13 0 48.5 -4t54.5 -4q30 0 51 8q24 10 43.5 22t35 31.5t26 33t20 42t14.5 41t11.5 49t8 46.5t7.5 51q48 284 84 528q21 143 57 450t61 466l-30 2q-3 0 -32.5 1.5t-43 3t-41 4.5t-42.5 9t-32 14.5t-23 21.5t-3 30l2 12q6 35 27 46.5
t65 8.5q9 -1 52.5 -2t76.5 -3t74 -7.5t69.5 -17.5t38.5 -29q13 -21 2 -166q-8 -138 -27.5 -314t-31.5 -266.5t-43 -314.5q-8 -57 -39 -226.5t-39 -222.5q-16 -100 -42.5 -185.5t-68 -163.5t-104 -121t-139.5 -38q-21 1 -83 15l-61 14q-24 3 -46.5 29.5t-20.5 50.5z" />
    <glyph glyph-name="asciicircum" unicode="^" horiz-adv-x="759" 
d="M270 1032q-57 0 -57 72q0 43 77 161.5t172 221t138 102.5q10 0 18.5 -5t15 -15.5t12 -21.5t9.5 -28.5t7 -30t5.5 -33t3.5 -30t3 -29t2 -22.5q2 -27 18.5 -134.5t16.5 -158.5q0 -14 -1 -23.5t-4.5 -20.5t-12.5 -17t-23 -6q-13 0 -35 28q-36 47 -53 125.5t-23.5 144
t-17.5 81.5q-15 -18 -72.5 -114.5t-112.5 -171.5t-86 -75z" />
    <glyph glyph-name="underscore" unicode="_" horiz-adv-x="839" 
d="M123 -133q-22 0 -41.5 4t-36 18t-14.5 37q3 38 53 58q47 16 274 16q12 0 69.5 0.5t107.5 0.5t108 -0.5t98 -3t50 -7.5q23 -9 18 -35q-2 -14 -45 -31q-97 -29 -292.5 -43t-348.5 -14z" />
    <glyph glyph-name="grave" unicode="`" horiz-adv-x="575" 
d="M428 1417q4 45 35 45q39 0 112.5 -108t86.5 -160q-3 -10 -16.5 -22.5t-22.5 -12.5q-24 0 -85 58.5t-87 93.5q-12 19 -19 51.5t-4 54.5z" />
    <glyph glyph-name="a" unicode="a" horiz-adv-x="839" 
d="M195 307q-65 0 -105.5 68.5t-40.5 177.5q0 155 81.5 252.5t211.5 97.5q60 0 102.5 -22t57.5 -62q8 14 19.5 37.5t18.5 35t20.5 25.5t33 19.5t47.5 5.5q45 0 70.5 -14.5t25.5 -40.5q0 -28 -38.5 -129t-77.5 -218.5t-39 -187.5q0 -45 20 -45q27 0 85.5 70t115.5 154.5
t114 154.5t82 70q9 0 18 -7t9 -14q0 -31 -136 -235t-202 -273q-60 -63 -135 -63q-66 0 -101.5 41.5t-35.5 116.5q0 25 4.5 60t8.5 58.5t14.5 74t13.5 67.5q-13 -19 -38 -60t-46.5 -74t-49.5 -67.5t-61 -54t-67 -19.5zM190 510q0 -100 21 -100q32 0 120 103t142 204
q-9 37 -36.5 60.5t-59.5 23.5q-66 0 -126.5 -94t-60.5 -197z" />
    <glyph glyph-name="b" unicode="b" horiz-adv-x="901" 
d="M1092 743q-3 -13 -16.5 -28t-39.5 -32.5t-52 -32.5t-68.5 -35.5t-73.5 -35t-82 -38.5q-6 -120 -38.5 -212.5t-84.5 -147.5t-115 -83t-135 -28q-74 0 -123 45t-49 112q0 38 17 74.5t52 70t69 60t89.5 56.5t90 47.5t92.5 44.5q-2 97 -28.5 161t-66.5 64q-54 0 -142 -106.5
t-126 -217.5q-9 -25 -16 -41t-20.5 -41t-32 -38t-39.5 -13q-76 0 -76 260q0 282 112.5 626.5t251.5 514.5q89 109 224 109q161 0 161 -160q0 -119 -81.5 -277t-212 -303.5t-271.5 -236.5q-19 -133 -22 -246q77 134 180.5 223.5t181.5 89.5q69 0 110.5 -77t47.5 -226
q75 39 179.5 76t137.5 37q18 0 15 -15zM283 1006q62 41 163 178.5t177.5 280.5t76.5 198q0 22 -12 36.5t-29 14.5q-40 0 -108 -86.5t-133.5 -216t-98.5 -246.5q-21 -73 -36 -159zM616 475q-143 -68 -221 -120t-78 -97q0 -25 27.5 -45t65.5 -20q73 0 130 79.5t76 202.5z" />
    <glyph glyph-name="c" unicode="c" horiz-adv-x="614" 
d="M250 184q-91 0 -144 82.5t-53 220.5q0 86 22 180.5t63.5 182t114 144.5t161.5 57q74 0 124 -49.5t50 -122.5q0 -60 -28.5 -118.5t-74.5 -58.5q-21 0 -30.5 10t-9 29t4 38.5t8.5 45t5 41.5q0 28 -11 45t-28 17q-49 0 -101 -100t-82 -218.5t-30 -187.5q0 -58 23.5 -96.5
t58.5 -38.5q46 0 112.5 62t122.5 138.5t118.5 160t94.5 110.5q18 0 28.5 -11.5t10.5 -29.5q0 -14 -84 -176q-33 -59 -78.5 -117.5t-103 -114.5t-127.5 -90.5t-137 -34.5z" />
    <glyph glyph-name="d" unicode="d" horiz-adv-x="1024" 
d="M238 389q-66 0 -114 72.5t-48 173.5q0 100 53.5 207t132 176t146.5 69q83 0 153 -65q18 160 78.5 330t138 299t164 212t154.5 83q66 0 112.5 -59t46.5 -142q0 -110 -83.5 -281.5t-211 -332t-247.5 -238.5q-15 -147 -15 -279q0 -144 27 -193q20 -33 51 -34q32 0 73.5 38
t80.5 92.5t78 109.5t77 93t66 38q14 0 18 -2q2 -6 2 -13q0 -79 -84 -204t-194 -219.5t-178 -94.5q-189 0 -189 361q0 104 6 157q-6 -11 -28 -53t-35.5 -66t-37.5 -65t-44.5 -66t-46 -51.5t-51.5 -39.5t-51 -13zM723 1004q187 178 298.5 372t111.5 334q0 72 -29 72
q-39 0 -116 -129.5t-153 -314.5t-112 -334zM262 635q0 -36 10 -65t23 -29q32 20 122.5 170t90.5 182q0 17 -26 44.5t-48 27.5q-36 0 -77 -55.5t-68 -133.5t-27 -141z" />
    <glyph glyph-name="e" unicode="e" horiz-adv-x="532" 
d="M260 313q-88 0 -148.5 80t-60.5 164q0 72 22 151.5t62.5 151t106.5 118t145 46.5q61 0 93 -32.5t32 -92.5q0 -106 -87.5 -213t-191.5 -113v-10q0 -47 24 -90t67 -43q32 0 73.5 26.5t78 64t75.5 86.5t63.5 84.5t44.5 66.5q21 0 39 -21q2 -6 2 -16q0 -60 -40.5 -132
t-102.5 -133t-143 -102t-154 -41zM410 877q0 45 -23 45q-46 0 -93.5 -104.5t-51.5 -162.5q45 3 106.5 89.5t61.5 132.5z" />
    <glyph glyph-name="f" unicode="f" horiz-adv-x="634" 
d="M340 -258q-128 0 -200 180.5t-72 499.5q0 209 31.5 421t88 390t127.5 318t156.5 219t169.5 79q174 0 174 -207q0 -131 -73 -277.5t-248 -369.5q-53 -68 -126 -154.5t-100 -123.5l-22 -246q56 1 145 46t164 98.5t142.5 98t86.5 44.5q17 0 17 -23q0 -50 -92 -133
t-213 -147.5t-195 -65.5q97 -151 156 -283.5t59 -199.5q0 -66 -52.5 -115t-123.5 -49zM283 901q158 186 274.5 402t116.5 325q0 58 -41 58q-59 0 -125.5 -104t-126.5 -284t-98 -397zM373 -72q0 31 -18.5 88t-36 97.5t-51 113t-36.5 80.5l-2 -49q0 -139 35.5 -266t73.5 -127
q14 0 24.5 18.5t10.5 44.5z" />
    <glyph glyph-name="g" unicode="g" horiz-adv-x="983" 
d="M223 451q-52 0 -91 36.5t-56 85.5t-17 99q0 94 47.5 194t133.5 170t184 70q45 0 73 -25.5t50 -76.5q1 23 10.5 39.5t20.5 24.5t30.5 12t30 4.5t29.5 0.5q38 0 66 -27t43 -73.5t23.5 -96t10 -109t1 -95.5t-2.5 -72q11 6 52.5 29.5t72 39.5t70.5 36t72.5 30.5t53.5 10.5
q11 0 17 -12t6 -23q0 -14 -15.5 -32.5t-44.5 -39t-59 -39t-70 -40t-66 -35t-59 -30t-38 -18.5q-5 -66 -20.5 -142t-41 -161.5t-65 -163t-88.5 -141.5t-116.5 -101.5t-143.5 -37.5q-49 0 -85.5 19t-58 52t-31.5 73t-10 87q0 55 15.5 106.5t38 91.5t62.5 82t73.5 70.5t88.5 65
t90 57t94 53.5q20 11 30 17q2 49 2 146q0 198 -25 219q-13 -27 -34.5 -67.5t-64.5 -107.5t-87 -121t-99 -94t-102 -40zM473 963q-50 0 -110.5 -53.5t-100 -123.5t-39.5 -120q0 -72 33 -72q31 0 93 67t111.5 147.5t49.5 115.5q0 39 -37 39zM264 -18q0 -117 72 -117
q53 0 107.5 65t92.5 155t63 176t30 138q-149 -82 -201 -120q-138 -101 -159 -237q-5 -29 -5 -60z" />
    <glyph glyph-name="h" unicode="h" horiz-adv-x="880" 
d="M621 41q-113 0 -113 184q0 61 27.5 203t27.5 203q0 104 -31 104q-26 0 -71 -69.5t-105 -176t-98 -155.5q-17 -21 -51.5 -34t-59.5 -13q-90 0 -90 176q0 69 17.5 191t49 272.5t81.5 304t108 281t135 208t158 80.5q63 0 96 -48t33 -114q0 -109 -44 -226.5t-113.5 -215.5
t-144 -176t-146.5 -131q-47 -217 -47 -318q0 -39 6 -55q99 196 168 284q94 120 174 120q40 0 70.5 -34.5t43.5 -75.5t13 -75q0 -80 -34 -249.5t-34 -249.5q0 -31 15 -31q28 0 82 86.5t104.5 190t102.5 190t77 86.5q19 0 19 -27q0 -62 -79 -229t-183.5 -314t-163.5 -147z
M328 1061q93 83 186.5 250t93.5 282q0 23 -18 23q-34 0 -70.5 -47t-70.5 -128.5t-64 -176t-57 -203.5z" />
    <glyph glyph-name="i" unicode="i" horiz-adv-x="409" 
d="M289 1106q-33 0 -55.5 30.5t-22.5 65.5q0 54 29.5 95.5t87.5 41.5q35 0 50 -28.5t15 -65.5q0 -51 -28 -95t-76 -44zM209 287q-41 0 -70 28.5t-42.5 74.5t-19 86t-5.5 79q0 91 21 191t63 174.5t92 74.5q40 0 60 -14t20 -51q0 -28 -15.5 -70.5t-34 -84.5t-34 -117
t-15.5 -160q0 -68 33 -68q16 0 45 34t62 82t67 96t67 82t54 34q25 0 25 -31q0 -37 -41 -111.5t-98 -147t-123.5 -127t-110.5 -54.5z" />
    <glyph glyph-name="j" unicode="j" horiz-adv-x="450" 
d="M193 1073q-38 0 -58 31t-20 72q0 38 27.5 79t66.5 41t60.5 -15.5t21.5 -55.5q0 -26 -4 -50t-14 -48.5t-30.5 -39t-49.5 -14.5zM88 319q4 47 9 251.5t18 269.5q7 35 27 48t59 13q75 0 75 -239q0 -91 -10 -201q297 297 332 297q23 0 23 -21q0 -15 -9.5 -36t-28.5 -46.5
t-40.5 -51.5t-51 -57t-54 -55.5t-57 -55t-51.5 -48.5t-46 -42t-33 -30q-23 -216 -26 -240q-45 -303 -171 -408q-76 -62 -184 -62q-70 0 -111 36t-41 105q0 48 13 97.5t32 91t52.5 89t60.5 81t71.5 78.5t70.5 69.5t71 66.5zM-154 -203q0 -37 18 -63.5t52 -26.5
q35 0 61.5 27.5t41 67.5t25 97t14.5 102.5t8 98.5t6 72q-69 -64 -147.5 -184.5t-78.5 -190.5z" />
    <glyph glyph-name="k" unicode="k" horiz-adv-x="819" 
d="M514 152q-57 0 -98 50t-60.5 122.5t-31.5 145t-21.5 126.5t-19.5 59q-9 -8 -17.5 -25.5t-13 -30t-13 -40.5t-10.5 -33q-3 -10 -7.5 -44.5t-10 -58.5t-25 -45.5t-51.5 -21.5q-80 0 -65 205q7 72 25 183.5t48.5 263t76 298t99.5 273.5t126 205t149 78q91 0 123 -45.5
t24 -139.5q-13 -163 -135.5 -345t-279.5 -292q-50 -172 -74 -262q175 295 358 295q64 0 96 -56.5t27 -127.5q-10 -115 -99.5 -184.5t-209.5 -69.5q19 -20 37.5 -111.5t36 -170.5t34.5 -79q26 0 89 75.5t125 166.5t121.5 166.5t78.5 75.5q25 0 32.5 -8t6.5 -33
q-4 -46 -58 -140.5t-125.5 -188.5t-153 -165t-134.5 -71zM373 1190q91 76 161.5 203.5t79.5 242.5q8 62 -14 62q-69 0 -227 -508zM350 717q3 -6 15 -6q56 0 157 69.5t105 120.5q2 20 -8.5 34.5t-28.5 14.5q-44 0 -114.5 -76.5t-125.5 -156.5z" />
    <glyph glyph-name="l" unicode="l" horiz-adv-x="696" 
d="M246 23q-97 0 -148 110.5t-51 319.5q0 162 32 349.5t90.5 363.5t132 321t165.5 233t182 88q69 0 111.5 -65.5t42.5 -173.5q0 -146 -71.5 -310t-195 -303t-266.5 -211q-21 -52 -33 -175.5t-12 -233.5q0 -68 20 -109t54 -41q44 0 108.5 59t129 143t125.5 168t111 143t73 59
q21 0 37 -41q-5 -43 -75.5 -155.5t-165.5 -233t-207 -213t-189 -92.5zM305 909q141 111 247.5 315.5t106.5 358.5q0 82 -26 82q-35 0 -110.5 -143t-141 -325.5t-76.5 -287.5z" />
    <glyph glyph-name="m" unicode="m" horiz-adv-x="1310" 
d="M283 1143q16 0 26.5 -6t16 -12t8 -21t2.5 -21.5v-25.5q0 -75 -34.5 -209.5t-39.5 -192.5q5 13 28 71t40 98.5t46 104t56.5 107.5t60 87.5t68 66t70.5 22.5q123 0 123 -241q0 -46 -8 -131t-9 -123q19 40 30 62.5t37.5 70.5t46.5 79t51 71.5t58.5 64t62 40.5t67.5 17
q61 0 94 -58t33 -124q0 -118 -50 -340q-3 -14 -13 -53t-15.5 -67.5t-5.5 -53.5q0 -11 8 -16q24 3 92 90.5t130.5 172.5t74.5 85q25 0 39 -21q-6 -46 -84.5 -170t-172.5 -233t-135 -109q-102 0 -102 199q0 77 21.5 227.5t21.5 227.5q0 47 -12 79q-25 -4 -62 -64t-76.5 -143
t-79.5 -165.5t-79.5 -139.5t-67.5 -57q-16 0 -28 6.5t-19 20t-11.5 26t-6 32t-2 30t-0.5 27.5v6q0 65 6 193t6 192q0 96 -19 127q-63 -7 -218 -511q-2 -4 -2.5 -6.5t-1.5 -5.5t-1.5 -5.5t-1.5 -4.5q-66 -203 -207 -203q-73 0 -73 144q0 61 11 163.5t33.5 225.5t67 210
t101.5 87z" />
    <glyph glyph-name="n" unicode="n" horiz-adv-x="860" 
d="M592 123q-25 0 -41.5 16t-24 42t-10 48t-2.5 45q0 91 32 212.5t63.5 230.5t31.5 170q0 88 -39 88q-33 0 -76.5 -74t-87 -179.5t-88 -210.5t-93 -179t-89.5 -74q-30 0 -51 32.5t-29.5 81.5t-12 85.5t-3.5 66.5q0 43 8 123t24 180t49 171t76 71q70 0 70 -141
q0 -62 -16.5 -179.5t-18.5 -142.5q89 217 146 318q122 215 225 215q54 0 94.5 -50t57 -109.5t16.5 -111.5q0 -63 -20.5 -138.5t-45 -133.5t-45 -123t-20.5 -108q0 -2 -0.5 -9t-0.5 -12.5t1 -11.5t4 -9.5t8 -3.5q9 0 79 109.5t146 219.5t99 110q10 0 18 -4v-13
q0 -75 -74 -223t-179.5 -271.5t-180.5 -123.5z" />
    <glyph glyph-name="o" unicode="o" horiz-adv-x="757" 
d="M256 164q-97 0 -160 93.5t-63 238.5q0 114 41 210.5t116 157.5v15q0 80 69 153.5t144 73.5q92 0 162 -116.5t70 -268.5q0 -53 -4 -80q51 13 122.5 52t120.5 79q10 -3 17.5 -15t7.5 -26q0 -58 -101.5 -132t-195.5 -85q-46 -151 -140 -250.5t-206 -99.5zM510 664q2 16 2 47
q0 97 -34.5 171t-78.5 74q-27 0 -51 -25.5t-24 -53.5q0 -44 58.5 -109.5t127.5 -103.5zM487 530q-125 50 -217 166q-27 -35 -47 -99.5t-20 -121.5q0 -73 32.5 -130.5t73.5 -57.5q56 0 103 69t75 174z" />
    <glyph glyph-name="p" unicode="p" horiz-adv-x="970" 
d="M266 979q19 0 28.5 -16.5t8.5 -45.5t-4 -54t-9 -56.5t-7 -38.5q-3 -22 -34 -168t-32 -211q17 53 36.5 106.5t51.5 131.5t69 143.5t80 125t94.5 94t102.5 34.5q178 0 178 -256q0 -43 -8 -133q24 11 107.5 43t126.5 59q37 23 55 23q27 0 27 -43q0 -29 -27.5 -56.5
t-73.5 -50t-89.5 -40t-91.5 -34t-64 -24.5q-197 -328 -357 -328q-44 0 -94 24t-82 58q-22 -54 -73.5 -258.5t-61.5 -279.5q-4 -35 -28.5 -53.5t-63.5 -18.5q-21 0 -39 18q-25 25 7.5 273t81 526t50.5 305q3 31 10.5 62t22 64t41 54t61.5 21zM340 430q145 119 334 164
q33 74 33 141q0 23 -4 46t-13 46.5t-28 38.5t-44 15q-37 0 -153 -197.5t-125 -253.5zM629 469q-44 -4 -144 -62t-100 -94q0 -22 27 -22q29 0 80 31.5t92.5 74.5t44.5 72z" />
    <glyph glyph-name="q" unicode="q" horiz-adv-x="778" 
d="M418 -313q-80 0 -134.5 88t-54.5 217q0 93 24 189.5t78.5 245.5t67.5 191q-8 -13 -28 -47t-34 -57t-40 -55t-50.5 -51.5t-60.5 -33.5t-75 -14q-25 0 -43.5 15t-27.5 39t-13 46.5t-4 45.5q0 67 28 157t75.5 176t121.5 145.5t155 59.5q109 0 167.5 -48.5t58.5 -123.5
q0 -63 -27 -144t-58 -159t-36 -120q35 18 123.5 92.5t173 141t121.5 75.5q11 3 14.5 -5.5t3.5 -21.5q0 -31 -90.5 -122.5t-190.5 -174t-137 -100.5q44 -83 65 -152t21 -153q0 -146 -55.5 -244t-138.5 -98zM168 489q65 58 160.5 188.5t95.5 190.5q0 33 -18 33
q-42 0 -86 -50.5t-75.5 -120.5t-52.5 -136.5t-24 -104.5zM420 -170q20 0 37.5 53.5t17.5 112.5q0 61 -9.5 136t-29.5 97q-21 -30 -31 -110t-10 -158q0 -39 8 -80.5t17 -50.5z" />
    <glyph glyph-name="r" unicode="r" horiz-adv-x="634" 
d="M272 61q-32 0 -52 12t-28 32t-11 46t1 54q8 97 74 272q4 10 23 53t31.5 76t13.5 49q-18 6 -49.5 15t-49.5 14.5t-45 15t-42.5 19t-35 23t-30.5 30.5t-20.5 39t-12.5 50t0 61q4 48 17 92t36.5 85t63.5 65t92 24q61 0 96.5 -64t30.5 -129q-4 -47 -34 -104.5t-67 -91.5
q18 -6 50 -15.5t48.5 -14.5t39 -17t33 -26t17 -37t3.5 -54q-5 -61 -56.5 -178t-56.5 -174q0 -31 13 -31q22 0 81 67.5t129.5 167.5t115 165t71.5 106q33 0 38 -11q2 -4 1 -10q-5 -69 -105.5 -232.5t-228 -303.5t-195.5 -140zM250 983q2 23 -5 50.5t-26 27.5q-7 0 -13 -3.5
t-10.5 -11t-8.5 -15.5t-7.5 -19.5t-5.5 -20t-4.5 -21.5t-3.5 -19.5t-2.5 -17t-1.5 -11.5q-5 -83 33 -103q21 19 36 71.5t19 92.5z" />
    <glyph glyph-name="s" unicode="s" horiz-adv-x="737" 
d="M295 455q-47 26 -78 47.5t-64.5 55.5t-50 79t-16.5 102q0 156 100 265.5t254 109.5q106 0 161.5 -55.5t55.5 -161.5q0 -53 -32.5 -104.5t-83.5 -51.5q-20 0 -31.5 13t-11.5 34q0 24 12 69t12 69q0 42 -22 64t-58 22q-68 0 -127 -88t-59 -160q0 -25 9.5 -47t33 -43.5
t41 -34.5t57 -38.5t56.5 -37.5q115 72 227 125.5t172 67.5q15 3 24.5 -10t6.5 -29q-24 -21 -66 -49.5t-78 -50.5t-101 -61t-99 -60q106 -99 106 -246q0 -81 -57.5 -161t-147.5 -130.5t-180 -50.5t-150.5 59.5t-60.5 149.5q0 150 246 338zM195 147q0 -41 29.5 -70.5
t74.5 -29.5q68 0 135.5 67t67.5 126q0 52 -28 88.5t-81 70.5q-198 -144 -198 -252z" />
    <glyph glyph-name="t" unicode="t" horiz-adv-x="559" 
d="M420 1520q24 0 41.5 -16t17.5 -40q0 -13 -8 -32.5t-23.5 -49t-21.5 -43.5q-44 -99 -74 -192l113 2h115q24 0 36.5 -14.5t12.5 -38.5q0 -43 -164 -43h-94l-49 -2q-105 -353 -105 -611q0 -149 34 -194q18 -22 44 -23q34 0 81 55t92 133.5t88 157.5t78.5 134t51.5 55
q18 0 30 -12t9 -29q-8 -53 -58.5 -156.5t-117.5 -207t-145.5 -180.5t-133.5 -77q-68 0 -116 39.5t-70.5 103.5t-31.5 123t-9 121q0 240 100 566h-55q-25 0 -44 14t-19 37q0 45 92 45h57q53 143 76 196q21 50 33.5 75.5t32.5 53.5t45 39t59 11z" />
    <glyph glyph-name="u" unicode="u" horiz-adv-x="901" 
d="M219 330q-162 0 -162 243q0 60 13 132.5t37.5 144.5t69 120t99.5 48q30 0 42.5 -26.5t5.5 -51.5q-12 -38 -35 -106.5t-35 -106.5t-22.5 -89.5t-10.5 -94.5q0 -40 8.5 -55t30.5 -15q43 0 89 50t85 121t75.5 142.5t70.5 121.5t59 50q52 0 81.5 -28t29.5 -72q0 -87 -38 -264
t-38 -270q0 -37 20 -37q22 0 61 48.5t82.5 117.5t86.5 138.5t82.5 118t62.5 48.5t23 -29q0 -56 -100 -229t-156 -240q-101 -117 -197 -117q-74 0 -108.5 54.5t-34.5 134.5q0 40 8 95t24.5 139.5t18.5 95.5q-19 -58 -49 -113t-70.5 -106t-95.5 -82t-113 -31z" />
    <glyph glyph-name="v" unicode="v" horiz-adv-x="942" 
d="M70 631q0 40 4 96.5t14 135t34 131.5t58 53q19 0 32.5 -6.5t21.5 -19.5t13 -25.5t6.5 -33.5t1.5 -33.5t-0.5 -35t-0.5 -29.5v-61l-6 -121v-61v-20v-33.5v-41t1 -46.5t2.5 -47t5 -44.5t7.5 -35.5t10.5 -25t14.5 -9q44 0 136.5 202.5t104.5 275.5q7 40 7 65v47l2 90
q0 33 1 53.5t7 54.5t16.5 54t33 35.5t54.5 15.5q92 0 92 -131q0 -45 -22.5 -136.5t-22.5 -135.5q0 -57 51.5 -105.5t114.5 -48.5q46 0 108.5 29.5t88.5 63.5q7 10 22 10q10 0 17.5 -7t7.5 -20q0 -39 -52.5 -87t-119 -80t-107.5 -32q-60 0 -125 32.5t-94 78.5
q-15 -45 -39 -99.5t-59 -116.5t-72 -112t-80.5 -83t-83.5 -33q-206 0 -206 432z" />
    <glyph glyph-name="w" unicode="w" horiz-adv-x="1372" 
d="M684 72q-43 0 -78 39.5t-54.5 99t-32.5 129.5t-11.5 130.5t8.5 102.5q-8 -11 -31.5 -46t-41 -59.5t-46.5 -59t-54 -56t-56 -37.5t-60 -16q-42 0 -72.5 22t-46.5 57.5t-23 72.5t-7 75q0 148 76 392q15 48 37 75t65 27q50 0 71 -24.5t21 -75.5q0 -66 -39 -227.5t-39 -229.5
q0 -21 9 -21q23 0 57 47.5t69 115t70.5 134.5t70.5 114.5t60 47.5q19 0 34 -5.5t23.5 -18.5t13.5 -24t7 -32.5t2.5 -32.5t0 -36t-0.5 -31q0 -41 -7 -132t-7 -132q0 -39 19.5 -130.5t39.5 -99.5q73 66 138 243.5t65 287.5q0 45 -13.5 136.5t-13.5 137.5q0 146 111 146
q31 0 53 -14.5t33.5 -39t16.5 -51.5t5 -57v-49l-6 -99v-49q0 -65 50.5 -109t119.5 -44q37 0 85 23t83 46t41 23q20 0 40 -11t20 -30q-57 -63 -152 -118.5t-166 -55.5q-47 0 -105.5 24.5t-93.5 59.5q-12 -56 -33 -123.5t-55 -145t-73.5 -140.5t-91.5 -104.5t-105 -41.5z" />
    <glyph glyph-name="x" unicode="x" horiz-adv-x="860" 
d="M500 322q46 0 109.5 45t122.5 109t112.5 128t92.5 109t50 45q18 0 28.5 -11.5t10.5 -29.5q0 -40 -104 -180q-37 -50 -66.5 -86.5t-80.5 -90.5t-97 -88.5t-106 -60t-117 -25.5q-92 0 -183 144q-247 -264 -278 -264q-24 0 -35.5 21t-11.5 50q0 51 262 322q-29 81 -68 225.5
t-39 192.5q0 43 37 71.5t88 28.5q33 0 55.5 -75t37 -188.5t16.5 -121.5q10 11 39.5 45t51.5 59t55.5 62t59.5 63t53.5 51.5t48 38.5t32.5 13q25 0 37 -13t12 -43q0 -29 -122.5 -172t-219.5 -245q55 -129 117 -129z" />
    <glyph glyph-name="y" unicode="y" horiz-adv-x="901" 
d="M238 -385q-76 0 -122 51.5t-46 128.5q0 330 501 656q13 212 13 297q0 20 -2 30q-27 -52 -70.5 -115.5t-100 -132.5t-120 -115t-115.5 -46q-48 0 -78 30.5t-39.5 69t-9.5 86.5q0 72 50.5 277t86.5 233q36 29 80 29q32 0 62 -19t30 -51q0 -23 -32 -107t-64.5 -186
t-32.5 -168q0 -31 23 -31q28 0 81.5 74t103 162t103 162t81.5 74q139 0 139 -248q0 -33 -15 -203q267 205 304 205q17 0 28 -12t10 -29q-45 -59 -109.5 -118.5t-114.5 -96t-132 -92.5q-5 -74 -28.5 -173t-68 -208.5t-100.5 -201.5t-134 -152t-162 -60zM248 -262
q46 0 93 46.5t83.5 116t67 149t47.5 147.5t20 110q-133 -106 -237.5 -248t-104.5 -243q0 -78 31 -78z" />
    <glyph glyph-name="z" unicode="z" horiz-adv-x="819" 
d="M125 737q0 82 73 167.5t173 138.5t180 53q57 0 94 -37t37 -94q0 -54 -17.5 -99.5t-46 -78t-58 -60t-58.5 -58t-43 -59.5q28 4 45 4q44 0 75 -25t64 -71q19 15 94 77.5t130.5 103t99.5 59.5q39 5 39 -21q0 -34 -134.5 -165.5t-189.5 -168.5q4 -32 4 -47
q0 -74 -16.5 -157.5t-52.5 -168t-85 -152.5t-120.5 -111t-153.5 -43q-70 0 -108.5 45.5t-38.5 117.5q0 51 14.5 101t34.5 90t58 84.5t67 73.5t79.5 69.5t78.5 61t81 57.5q-2 3 -8 17.5t-8.5 20t-9 17.5t-12 17.5t-13.5 12.5t-18 10t-21 3q-28 0 -64 -20.5t-38 -20.5
q-24 0 -43 22t-19 46q0 31 34.5 86t76 105.5t78 103.5t39.5 80l-2 8q-15 6 -33 6q-49 0 -95.5 -25t-79 -60.5t-58.5 -71t-43 -60.5t-23 -25q-17 0 -28 12t-11 29zM555 307q-12 -9 -50 -38.5t-53.5 -42t-48.5 -41t-48.5 -46.5t-38 -48t-33 -56t-19 -59t-8.5 -68q0 -62 35 -62
q64 0 117.5 51.5t84 126.5t47 150t15.5 133z" />
    <glyph glyph-name="braceleft" unicode="{" horiz-adv-x="868" 
d="M575 -213q-69 16 -111.5 35.5t-78.5 60.5q-104 123 -104 328q0 48 10 181.5t10 180.5q0 49 -37 132t-37 129q0 34 9 57t28 38t36 23t47 18.5t46 18.5q17 8 37 53q35 74 47 209.5t19.5 280t29.5 217.5q15 54 57 86.5t99 32.5q56 0 104 -34t48 -87q0 -20 -1.5 -31.5
t-6.5 -24t-17 -18.5t-31 -6q-14 0 -45.5 14.5t-40.5 14.5t-12 -13q-16 -90 -25 -307.5t-22 -298.5q-14 -90 -63 -155t-130 -97q-45 -18 -57 -26q78 -118 78 -242q0 -49 -12.5 -185t-12.5 -184q0 -58 17.5 -110t42 -87.5t49 -65.5t42 -56t17.5 -47q0 -13 -8 -23.5t-21 -11.5z
" />
    <glyph glyph-name="bar" unicode="|" horiz-adv-x="860" 
d="M305 29q-4 132 3.5 273t33 326.5t39 276t55 325.5t47.5 271q42 264 78 377q22 55 33 55q34 2 57.5 -22.5t32.5 -55.5t10 -65q1 -26 0 -54.5t-4 -63t-5.5 -61.5t-9 -69t-9.5 -64t-11 -68.5t-10.5 -61.5t-11.5 -63.5t-10 -55.5q-11 -63 -58 -312t-73.5 -409t-45.5 -315
q-24 -217 -30 -330q0 -1 -1 -13t-2 -18t-4 -15t-9 -13.5t-15 -4.5q-23 -1 -39.5 27t-24.5 73t-11.5 74t-4.5 56z" />
    <glyph glyph-name="braceright" unicode="}" horiz-adv-x="1003" 
d="M188 -119q-20 11 -20 37q1 15 33.5 43.5t72 57.5t80.5 67t56 68q28 55 43 131.5t22 146t21 141t51 139.5t100 119q-20 23 -47 43q-143 122 -135 271q6 105 42 279.5t75 295.5q-49 -20 -64 -18q-39 2 -56 18.5t-16 55.5q3 62 41 97t101 32q76 -4 120.5 -55t39.5 -128
q-5 -86 -49 -283t-48 -288q-2 -34 2 -78t19 -59q16 -16 44.5 -25.5t50 -14.5t37 -27t13.5 -62q-3 -53 -21 -91t-39.5 -57.5t-47.5 -50t-39 -65.5q-17 -43 -35 -158q-10 -71 -27 -143t-44.5 -153.5t-70.5 -148.5t-94 -100q-33 -20 -69 -29.5t-69 -9.5t-73 2z" />
    <glyph glyph-name="asciitilde" unicode="~" horiz-adv-x="1187" 
d="M326 676q6 62 57.5 100.5t114.5 38.5q51 0 141 -39t141 -39q40 0 78.5 23.5t68 56.5t56.5 66t54 56.5t50 23.5q14 0 21.5 -15.5t5.5 -29.5q-4 -46 -62.5 -119t-135 -129t-125.5 -56q-48 0 -94.5 20.5t-83 41t-60.5 20.5q-35 0 -55 -12.5t-26.5 -31t-10.5 -36.5
t-13.5 -30.5t-29.5 -12.5q-42 0 -68.5 30.5t-23.5 72.5z" />
    <glyph glyph-name="exclamdown" unicode="&#xa1;" horiz-adv-x="550" 
d="M522 1196q-6 -48 -25 -63t-67 -15q-33 0 -53.5 20.5t-20.5 43.5q0 40 31.5 67t75.5 25q29 0 46.5 -24t12.5 -54zM446 973q3 -11 4.5 -25.5t0.5 -34.5t-1.5 -37.5t-3.5 -43.5t-4.5 -42t-5 -44t-4.5 -39q-8 -67 -36.5 -218t-68 -330.5t-86 -312.5t-81.5 -133
q-47 1 -71.5 30.5t-18.5 76.5q20 156 132.5 633t162.5 524q18 18 47 18q28 0 34 -22z" />
    <glyph glyph-name="cent" unicode="&#xa2;" horiz-adv-x="798" 
d="M336 266q-234 78 -234 252q0 89 34 171.5t90.5 143.5t128.5 102.5t147 53.5q7 32 17 75t28 108t38 108t36 43q21 0 33.5 -17.5t16 -36.5t3.5 -40q0 -40 -7 -79.5t-24 -102t-20 -76.5q34 -14 54.5 -42t20.5 -65q0 -15 -2 -26.5t-7.5 -18.5t-9.5 -11t-14 -5.5t-15 -2
t-18.5 0t-17.5 0.5q-30 0 -51 -13q-3 -11 -27.5 -97.5t-43.5 -160.5t-15 -84q38 4 119 56.5t117 52.5q25 0 42 -13.5t17 -37.5q0 -41 -136.5 -128.5t-193.5 -103.5q-1 -6 -6 -44.5t-10.5 -72.5t-13.5 -83t-17 -88t-20 -75.5t-23.5 -56.5t-25.5 -20q-28 0 -40 28.5t-12 61.5
q0 27 3.5 58.5t6.5 53.5t11.5 63t11.5 54t15.5 61.5t13.5 53.5zM438 774q-38 -1 -80 -46t-67 -100t-25 -91t27.5 -69t62.5 -44q8 10 43.5 164t38.5 186z" />
    <glyph glyph-name="sterling" unicode="&#xa3;" horiz-adv-x="1034" 
d="M135 16q-33 0 -52.5 30t-16.5 65q2 31 16.5 51t39.5 29.5t48 12.5t53 3q11 12 30 82.5t31.5 136t8.5 66.5q-111 -21 -174 -21q-26 0 -21 49q3 27 45.5 40.5t103 18.5t72.5 9q12 30 24.5 108t27 154.5t39.5 152.5t72.5 123.5t113.5 47.5q74 0 127 -32.5t78.5 -85.5
t34.5 -108.5t4 -113.5q-1 -26 -34 -45t-61 -19q-23 0 -34.5 27t-14.5 66t-8 78t-23.5 66t-52.5 27q-38 0 -68 -89t-42 -179t-15 -158q12 -4 19 -4q24 0 72 9.5t73 9.5q31 0 47 -10t13 -38q-1 -24 -101.5 -43.5t-144.5 -19.5q-21 -37 -48.5 -160t-31.5 -168q-3 -26 49 -44.5
t102.5 -24.5t79.5 -6q57 0 101.5 16t68.5 38t40 44.5t27 38.5t19 16q49 0 46 -49q-6 -84 -108.5 -156.5t-242.5 -72.5q-108 0 -276 86q-101 -54 -156 -54z" />
    <glyph glyph-name="currency" unicode="&#xa4;" horiz-adv-x="854" 
d="M285 838q-8 17 -21 53t-12 47q3 29 22.5 48.5t47.5 19.5q12 0 28 -35.5t19 -50.5q54 26 100 26q68 0 111 -31q12 21 18.5 31t20.5 28.5t28.5 27t30.5 8.5q21 0 33 -14t10 -35q-1 -16 -8.5 -31.5t-23.5 -38t-19 -27.5q66 -85 55 -241q-16 -154 -119 -279q3 -14 27 -61
t22 -70q-2 -22 -15.5 -35.5t-35.5 -13.5q-29 0 -50.5 36.5t-29.5 73.5q-62 -30 -112 -30q-49 0 -95 18q-45 -68 -67 -94q-3 -6 -14 -6q-18 0 -25.5 19t-5.5 38q2 22 41 92q-72 90 -58 248q14 171 97 279zM422 356q51 0 97 47t71 106.5t28 108.5q7 86 -29.5 152t-113.5 66
q-37 0 -69.5 -27.5t-52.5 -68.5t-32.5 -80t-15.5 -70q-11 -92 21 -163t96 -71z" />
    <glyph glyph-name="yen" unicode="&#xa5;" horiz-adv-x="819" 
d="M311 61q-14 0 -14 52q3 142 49 348q-42 0 -109 -8.5t-106 -8.5q-27 0 -41.5 10t-9.5 35q8 35 51.5 49t90.5 12.5t89 9t49 40.5q10 31 2 49.5t-40 18.5q-22 0 -67.5 -7.5t-66.5 -7.5q-28 0 -20 39q7 26 22.5 43t43.5 24.5t43 10t51 2.5h37q-2 4 -24 42.5t-37 68.5t-33 71
t-25.5 75.5t-1.5 57.5q20 84 82 84q21 0 37.5 -8t27 -20.5t19 -30.5t13.5 -34t10 -36l3 -12q5 -19 13.5 -38t21.5 -43t18 -34q56 73 150 169t135 96q18 0 31.5 -15t9.5 -32q-5 -21 -68.5 -88.5t-122.5 -139.5t-59 -110q8 -2 30 -3.5t45.5 -3.5t46.5 -5.5t36.5 -10
t11.5 -16.5q-6 -27 -31.5 -40.5t-54.5 -15t-64.5 -5.5t-54.5 -13l-12 -92h82q10 0 49 -2t51 -2q19 0 9 -35q-8 -35 -52 -46t-97.5 -14.5t-72.5 -17.5q-7 -6 -14.5 -21.5t-14.5 -38t-11.5 -40.5t-10 -41t-6.5 -27q-8 -34 -18.5 -96.5t-14.5 -85.5q-9 -32 -20 -41
q-3 -11 -18 -20t-27 -9q-16 0 -21 8z" />
    <glyph glyph-name="brokenbar" unicode="&#xa6;" horiz-adv-x="813" 
d="M520 905q-38 0 -78 19.5t-36 52.5q41 282 126 653q15 69 56 217q28 84 39 84q50 0 77 -50.5t27 -104.5q0 -68 -68.5 -426t-89.5 -420q-5 -17 -17 -21t-36 -4zM371 758q2 13 13.5 19t20.5 6.5t29 0.5q36 0 66 -15.5t30 -47.5t-7 -70.5t-19.5 -86t-16.5 -70.5
q-35 -182 -69 -416q-22 -146 -25 -207q-6 -64 -33 -64q-61 0 -61 232q0 333 72 719z" />
    <glyph glyph-name="section" unicode="&#xa7;" horiz-adv-x="757" 
d="M438 289q5 51 -24.5 120.5t-66.5 127.5t-66.5 132t-24.5 134q14 147 70 198q5 5 20 13.5t24.5 17.5t10.5 21q-77 72 -62 225q2 34 12 70t27 72.5t47.5 59.5t67.5 23q111 0 207 -84.5t86 -193.5q-2 -40 -26 -91t-58 -51q-14 0 -24 25t-17.5 61t-19 72t-35 61t-58.5 25
q-20 0 -37 -14.5t-18 -34.5q-4 -42 21 -89.5t62.5 -92.5t74.5 -93t61 -107t19 -118q-5 -55 -32.5 -104t-72.5 -74q-16 -9 -29.5 -12.5t-32 -4.5t-28.5 -3l-8 -9q6 -28 21.5 -54.5t30 -45.5t23.5 -55.5t5 -85.5q-21 -264 -338 -264q-22 0 -38.5 1t-40.5 5t-39.5 12
t-26.5 23.5t-9 37.5q3 32 38 45.5t83.5 15.5t97.5 5t84.5 21.5t38.5 56.5zM514 930q1 1 0 2h-2q-31 0 -77.5 -48.5t-49.5 -80.5q-3 -44 22.5 -62t71.5 -18h45q60 0 62 33q3 33 -22.5 89.5t-49.5 84.5z" />
    <glyph glyph-name="dieresis" unicode="&#xa8;" horiz-adv-x="681" 
d="M674 1399q31 0 63 -36t29 -67q-3 -36 -30.5 -63t-63.5 -27q-37 0 -56 29.5t-16 67.5q8 96 74 96zM338 1317q4 43 21 53t63 10q25 0 36.5 -19t8.5 -44q-2 -23 -27 -56.5t-47 -33.5q-29 0 -43 28.5t-12 61.5z" />
    <glyph glyph-name="copyright" unicode="&#xa9;" horiz-adv-x="1339" 
d="M739 1278q139 0 252 -84t172.5 -210t59.5 -261q0 -114 -57 -224.5t-149 -192.5t-213 -132.5t-243 -50.5q-186 0 -301 123.5t-115 314.5q0 126 53.5 257.5t137.5 231.5t192 164t211 64zM1061 760q0 108 -28 190t-93 133.5t-162 51.5q-77 0 -165 -54.5t-158 -137
t-116 -185.5t-46 -193q0 -134 98 -228.5t227 -94.5q110 0 213 73.5t166.5 194t63.5 250.5zM778 924q61 -9 47 -82q-2 -12 -6 -20.5t-7 -14.5t-10.5 -10t-10.5 -6.5t-13 -3.5t-13 -1h-15.5h-14.5q-53 0 -91.5 -41t-49.5 -96q-7 -34 6.5 -52t50.5 -26q52 -10 117.5 6t117 35
t68.5 15q18 -3 15 -27q-12 -54 -117.5 -94.5t-216.5 -40.5q-30 0 -80 8q-71 13 -100 57t-15 113q15 76 71.5 147t130.5 109t136 25z" />
    <glyph glyph-name="ordfeminine" unicode="&#xaa;" horiz-adv-x="849" 
d="M467 1161q-7 -10 -21 -33.5t-25 -39t-26.5 -33t-34 -26.5t-38.5 -9q-34 0 -56.5 28.5t-29.5 60.5t-7 65q0 49 16 101.5t53.5 94t86.5 41.5q35 0 68.5 -17.5t50.5 -47.5q11 22 14.5 28.5t13 18t21.5 15t31 3.5q67 0 67 -41q0 -9 -12.5 -44t-29 -76.5t-19.5 -49.5
q-25 -80 -31 -158l4 -10q15 1 49.5 42.5t68.5 91t69.5 91t52.5 41.5q11 0 16.5 -8.5t3.5 -19.5q-22 -51 -96.5 -158.5t-114.5 -144.5q-33 -33 -82 -33q-34 0 -57.5 22.5t-23.5 57.5q0 41 18 147zM481 1270q-7 23 -25 45t-38 22q-35 0 -63.5 -71t-28.5 -115q0 -57 14 -57
q90 90 141 176z" />
    <glyph glyph-name="guillemotleft" unicode="&#xab;" horiz-adv-x="862" 
d="M543 377q-18 -33 -45 -33q-38 0 -105 48.5t-118.5 111.5t-47.5 100q4 45 75 102.5t154.5 95.5t127.5 38q13 0 20 -6t6 -19q-4 -43 -44.5 -77.5t-88.5 -53t-98.5 -40.5t-67.5 -40q13 -22 54.5 -49.5t81 -49t69.5 -56t27 -72.5zM760 391q-1 -11 -15 -20t-26 -9
q-32 0 -90.5 42.5t-103.5 98t-42 87.5q4 39 66 89.5t134.5 84t111.5 33.5q11 0 18 -6t6 -17q-3 -38 -38.5 -68t-77.5 -45.5t-86.5 -35t-59.5 -35.5q10 -17 45.5 -40.5t71 -43.5t62.5 -51t24 -64z" />
    <glyph glyph-name="logicalnot" unicode="&#xac;" horiz-adv-x="1200" 
d="M365 643q-23 0 -43 4t-37 18t-15 37q2 38 56 58q12 5 50 8t90.5 3.5t99 0t95 -1t58.5 -0.5q7 0 38.5 1t59.5 1t60 -1t53 -5t26 -12q18 -29 19.5 -82t-4.5 -88q-6 -66 -22 -86q-15 -19 -42 -19q-31 0 -39 21q-6 22 -6.5 78t2.5 81q-47 -6 -94 -9.5t-110.5 -5t-91 -2
t-110.5 0t-93 0.5z" />
    <glyph glyph-name="registered" unicode="&#xae;" horiz-adv-x="1120" 
d="M926 1094q0 -134 -52.5 -249t-145 -183t-202.5 -68q-121 0 -202.5 80t-81.5 196q0 144 53 264t145 188.5t203 68.5q131 0 207 -84t76 -213zM539 686q127 0 215 111.5t88 277.5q0 97 -52.5 167.5t-146.5 70.5q-121 0 -208 -119.5t-87 -294.5q0 -81 53.5 -147t137.5 -66z
M696 784q-17 12 -52 44t-61 48.5t-51 16.5q-10 0 -15.5 -18.5t-9 -40t-18 -40t-40.5 -18.5q-12 0 -18 1t-12.5 6.5t-6.5 17.5q0 49 22 172t39 184q5 18 8.5 26t13 15.5t25.5 7.5q7 0 23 -3t24 -3q11 0 42.5 14.5t52.5 14.5q43 0 67.5 -21.5t24.5 -64.5q0 -42 -14.5 -73
t-48.5 -69t-46 -57v-4q0 -13 16 -30t36 -41.5t28 -53.5q3 -12 -8.5 -24.5t-20.5 -6.5zM651 1102q0 6 -4 18h-10q-36 0 -66 -35t-30 -71q0 -15 14 -15q33 0 64.5 35t31.5 68z" />
    <glyph glyph-name="macron" unicode="&#xaf;" horiz-adv-x="780" 
d="M422 1257q-32 4 -27 72q1 13 11 23.5t22 13.5q36 10 164 10q181 0 270 -14q9 -2 18 -10t9 -17q-3 -31 -65.5 -51t-145 -25.5t-153.5 -5.5t-103 4z" />
    <glyph glyph-name="degree" unicode="&#xb0;" horiz-adv-x="608" 
d="M436 1491q60 0 102 -50t42 -112q0 -83 -64 -162.5t-129 -79.5q-75 0 -107 45t-32 107q0 55 21 111.5t65.5 98.5t101.5 42zM487 1329q0 29 -17 50.5t-42 21.5q-32 0 -62 -53.5t-30 -87.5q0 -89 45 -89q36 0 71 52.5t35 105.5z" />
    <glyph glyph-name="plusminus" unicode="&#xb1;" horiz-adv-x="1060" 
d="M520 346q-26 2 -38 38.5t-11 88.5t4 89.5t8 64.5l-77 6q-2 0 -25.5 0.5t-39 2.5t-35.5 5.5t-31 12t-11 20.5q0 25 13.5 41.5t32 24t47 10.5t50.5 2t51 -2.5t40 -1.5h10q2 11 7.5 47t10 63t14.5 63t22.5 59.5t33 39.5t45.5 14q51 -4 63.5 -35.5t6.5 -89.5q-2 -28 -6.5 -55
t-13 -65t-11.5 -54l149 -8q21 0 57 -9t36 -24q0 -24 -19 -40t-54 -22t-64.5 -8t-71.5 -2t-54 -1q-3 -11 -9.5 -55.5t-14 -76.5t-21.5 -69.5t-38 -57t-56 -16.5zM197 217q6 53 55 74q14 6 66.5 9.5t129.5 4.5t138.5 1t133.5 -0.5t75 -0.5q92 0 90 -22q-3 -45 -58 -66
q-50 -21 -225 -30t-307 -9q-100 0 -98 39z" />
    <glyph glyph-name="twosuperior" unicode="&#xb2;" horiz-adv-x="520" 
d="M373 1425q0 16 -9 38t-22 22q-27 0 -45 -15.5t-34.5 -40t-31.5 -34.5q-5 -11 -20 -11q-23 0 -37 19t-14 43q0 62 69.5 106.5t135.5 44.5q133 0 133 -147q0 -62 -28 -130t-63 -119t-81.5 -119.5t-69.5 -114.5q3 0 33.5 -2t55 -4t50 -5.5t31.5 -7.5q10 -7 10 -18
q0 -26 -54 -43.5t-104 -23t-81 -5.5q-21 0 -32.5 1.5t-24.5 6.5t-19 17t-6 32q0 26 40.5 91t88.5 132t88.5 149t40.5 138z" />
    <glyph glyph-name="threesuperior" unicode="&#xb3;" horiz-adv-x="485" 
d="M90 979q12 0 50 -20.5t71 -20.5q50 0 83.5 41.5t33.5 93.5q0 35 -24.5 60t-53.5 37t-53.5 31.5t-24.5 45.5q0 16 61.5 104t65.5 126q-29 0 -69.5 -23.5t-55.5 -23.5q-16 0 -25.5 11t-9.5 27q0 46 70 90t119 44q39 0 67.5 -27t28.5 -66q0 -46 -46 -123.5t-87 -113.5
q70 -15 109.5 -61.5t39.5 -120.5q0 -89 -72.5 -168.5t-160.5 -79.5q-44 0 -98 29t-54 69q0 39 35 39z" />
    <glyph glyph-name="acute" unicode="&#xb4;" horiz-adv-x="382" 
d="M334 1202q5 43 87 145.5t122 102.5q16 0 33 -10.5t16 -26.5q-2 -28 -108.5 -138t-133.5 -110l-10 6q-6 15 -6 31z" />
    <glyph glyph-name="paragraph" unicode="&#xb6;" horiz-adv-x="880" 
d="M332 262q7 67 28 236q5 30 27 142.5t27 172.5q-47 -1 -85.5 3.5t-77 17.5t-63.5 34.5t-39 59.5t-10 88q8 93 54 182.5t115 157t160 108.5t185 41q38 0 87.5 -6.5t106.5 -21.5t93 -45.5t33 -71.5q-3 -39 -18 -103.5t-29 -116t-36.5 -128t-29.5 -101.5q-79 -269 -145 -667
q-29 -221 -62 -221q-23 0 -30 18q-27 40 4 326q12 139 50.5 302t87.5 342.5t71 299.5q-11 8 -31 8q-61 0 -121 -31q-14 -85 -47 -184q-26 -75 -78 -307q-44 -164 -61 -281q-53 -285 -64 -401q-4 -53 -28 -74q-3 -23 -25 -23q-30 0 -49 23q-5 6 -7 26.5t-1 50.5t2 55.5
t3.5 54.5t2.5 34z" />
    <glyph glyph-name="periodcentered" unicode="&#xb7;" horiz-adv-x="581" 
d="M297 594q-37 0 -59 25.5t-19 66.5q5 54 44 93.5t89 39.5q43 0 73.5 -29.5t25.5 -66.5q-6 -46 -55 -87.5t-99 -41.5z" />
    <glyph glyph-name="cedilla" unicode="&#xb8;" horiz-adv-x="460" 
d="M166 -176q10 0 27.5 -7t27.5 -7l15 -11q6 0 28 11q15 30 15 59q0 16 -7 37q-37 0 -90 17t-53 44q0 37 40 120t71 83q43 0 43 -31q0 -20 -21.5 -66t-23.5 -69q16 -9 39.5 -16t38.5 -12.5t30.5 -15t23 -28t7.5 -47.5q0 -65 -37.5 -119.5t-99.5 -54.5q-33 0 -64 24t-31 56
q0 33 21 33z" />
    <glyph glyph-name="onesuperior" unicode="&#xb9;" horiz-adv-x="501" 
d="M246 934q5 64 34.5 215t36.5 233q-10 -20 -30.5 -36.5t-40.5 -16.5q-13 0 -25 12.5t-12 26.5q0 36 74.5 127.5t109.5 91.5q40 0 61 -34t21 -76q0 -77 -14.5 -165.5t-32 -155t-49.5 -177.5q-8 -27 -12 -41l45 -2q31 -3 59 -14q10 -3 10 -19q-6 -62 -277 -61h-11
q-54 0 -54 47q0 45 107 45z" />
    <glyph glyph-name="ordmasculine" unicode="&#xba;" horiz-adv-x="565" 
d="M401 1497q40 0 71 -31t45.5 -77t20.5 -91.5t3 -80.5q37 5 83 38t58 39q11 0 17 -11t6 -23q0 -42 -69.5 -82.5t-117.5 -44.5q-16 -42 -31.5 -72.5t-40 -65t-58.5 -53t-75 -18.5q-69 0 -102 60t-33 136q0 49 6.5 78.5t14.5 42.5t28.5 40t36.5 54q7 11 17 42.5t20 55.5
t36 44t64 20zM393 1397q-35 0 -35 -39q0 -27 33 -78t58 -51l8 4v16q0 41 -16.5 94.5t-47.5 53.5zM436 1135q-65 19 -121 90q-12 -39 -12 -119q0 -96 31 -96q32 0 64.5 44.5t37.5 80.5z" />
    <glyph glyph-name="guillemotright" unicode="&#xbb;" horiz-adv-x="866" 
d="M485 807q18 33 47 33q38 0 104.5 -48.5t118 -111.5t48.5 -100q-4 -45 -75 -102.5t-154.5 -95.5t-127.5 -38q-13 0 -20 6t-6 19q3 43 43.5 77.5t88 53t98.5 40.5t69 40q-13 22 -54.5 49.5t-81.5 49t-70.5 56t-27.5 72.5zM270 793q1 11 14 19.5t25 8.5q32 0 90.5 -42
t103.5 -97.5t42 -87.5q-3 -39 -64.5 -89.5t-133.5 -84t-111 -33.5q-27 0 -27 23q3 38 38.5 68t77.5 45.5t86.5 35t59.5 35.5q-8 16 -43.5 39.5t-70.5 44.5t-62.5 52.5t-24.5 62.5z" />
    <glyph glyph-name="onequarter" unicode="&#xbc;" horiz-adv-x="1253" 
d="M281 725q-30 3 -41.5 29.5t-1.5 52.5q14 34 81.5 262t106.5 293q12 22 45 22q35 -4 61 -19t19 -42q-15 -68 -94 -253t-105 -273q-7 -29 -26.5 -51t-44.5 -21zM219 29q-4 20 12 67q40 108 154 314q250 466 426 764q90 154 143 161q32 5 61.5 -16.5t20.5 -48.5
q-14 -50 -191.5 -360.5t-369 -608.5t-229.5 -303q-11 -2 -17 3.5t-7.5 11t-2.5 16.5zM866 -82q0 47 33.5 169.5t40.5 156.5q-5 2 -34 1t-74 -6t-70 -12q-40 -8 -63 2.5t-31 49.5q-13 53 4 102q13 44 139 229t152 191q24 5 38 -9.5t25 -43.5l2 -11q-12 -31 -28 -65.5
t-28.5 -58.5t-37 -64.5t-34 -56t-39.5 -63t-36 -56.5q14 -3 28.5 -4t24.5 -1t25.5 3t23 5t27 7.5t27.5 7.5q2 10 10.5 58.5t17 84t22 79.5t32 70.5t41.5 31.5q27 6 41 6q16 0 45 -29q2 -1 6.5 -3.5t6 -5.5t3.5 -9q3 -15 -11 -72t-40 -139.5t-49.5 -154.5t-50 -151.5
t-31.5 -95.5q-50 -175 -119 -192q-16 -4 -27.5 13t-11.5 36z" />
    <glyph glyph-name="onehalf" unicode="&#xbd;" 
d="M291 797q13 75 59.5 266t65.5 223q16 27 24.5 39t28 24t43.5 9q39 -3 57.5 -18t14.5 -52q-6 -51 -29 -102q-3 -8 -21 -53t-38 -96t-41.5 -103.5t-37.5 -88.5t-20 -38q-27 -38 -73 -35q-30 4 -33 25zM182 4q0 47 159 295t300.5 449t220.5 309q13 18 55 80.5t74 102
t68 71.5q55 47 102 47q31 0 47.5 -20t16.5 -52t-33 -88q-42 -68 -134 -183.5t-128 -168.5q-49 -70 -146.5 -203.5t-220.5 -295.5t-225.5 -279t-130.5 -117q-25 0 -25 53zM1118 539q0 24 -28 24q-40 0 -78.5 -14.5t-62.5 -32.5t-47 -32.5t-36 -14.5q-19 0 -31 20.5t-12 40.5
q0 38 53.5 84t118 75.5t101.5 29.5q71 0 128.5 -37t57.5 -104q0 -61 -52.5 -157t-115.5 -176.5t-115.5 -150t-52.5 -84.5q0 -14 49.5 -25.5t103.5 -25t62 -31.5q9 -23 -25.5 -40t-64.5 -17q-15 0 -47.5 -1.5t-57 -2t-57.5 0.5t-57 7.5t-45.5 18t-33 32t-11.5 49.5
q0 33 55.5 115.5t122.5 165t122.5 165.5t55.5 118z" />
    <glyph glyph-name="threequarters" unicode="&#xbe;" horiz-adv-x="1572" 
d="M240 451q-18 0 -30.5 11.5t-12.5 29.5q0 27 29.5 53t71.5 48t84 46t71.5 58.5t29.5 74.5q0 19 -16 34.5t-35 25t-35 28.5t-16 45q0 39 31 81t67.5 71t67.5 57.5t31 44.5q0 37 -31 37q-22 0 -64.5 -28.5t-54.5 -28.5q-30 0 -54 28t-24 58q0 64 62 100.5t131 36.5
q90 0 142 -37t52 -94q0 -75 -55.5 -152.5t-126.5 -138.5q29 -31 55.5 -72.5t26.5 -70.5q0 -59 -26 -110.5t-71 -89.5t-92.5 -65.5t-103.5 -48.5q-6 -2 -30.5 -11t-44 -15t-29.5 -6zM297 -113q-18 0 -25.5 7.5t-7.5 25.5q0 25 49 105q20 31 63 100t68.5 108.5t65 94.5
t76.5 98q185 218 383 475q16 21 65 85t83.5 106.5t70.5 81.5q50 54 78 67q17 8 32 8q43 0 67 -21t24 -63t-147.5 -230t-326 -391.5t-349 -397.5t-197.5 -232q-19 -27 -72 -27zM1196 -186q-22 -1 -31.5 15.5t-11.5 41.5q-8 130 16 213q1 3 12.5 29.5t10.5 38.5
q-1 9 -9.5 14.5t-26 6.5t-34.5 0.5t-44 -2t-44 -1.5q-51 0 -80 12t-30 47q-3 43 14 84q21 46 134.5 152.5t156.5 109.5q19 1 30 -9t13 -29q1 -24 -33.5 -64t-77 -74.5t-78 -68.5t-34.5 -49q1 -19 56.5 -23.5t70.5 0.5q40 2 65 41q11 17 41.5 93t62.5 136t60 62
q27 2 45.5 -13t19.5 -42q1 -17 -8 -52t-18.5 -61.5t-26 -70.5t-18.5 -48q-20 -53 -50 -146t-59 -170t-65 -141q-15 -30 -29 -32z" />
    <glyph glyph-name="questiondown" unicode="&#xbf;" horiz-adv-x="974" 
d="M674 1133q-28 0 -51 18t-23 45q0 42 31.5 67t75.5 25q26 0 42.5 -20t16.5 -47q0 -50 -21.5 -69t-70.5 -19zM233 10q0 -112 62 -171.5t170 -59.5q106 0 188 64t82 175q0 45 -12.5 79.5t-29.5 54t-34.5 34.5t-30 29t-12.5 29q0 22 27.5 35.5t73.5 13.5q95 0 146.5 -64.5
t51.5 -183.5q0 -191 -130.5 -318.5t-333.5 -127.5q-187 0 -297.5 113.5t-110.5 291.5q0 78 24.5 148.5t65 127.5t90.5 111.5t104.5 110.5t102.5 113.5t88.5 131.5t59.5 154q16 63 47.5 92t62.5 29q16 0 27.5 -12t16 -30t6 -30.5t1.5 -23.5q0 -23 -2 -33
q-15 -92 -50.5 -173.5t-81 -142.5t-97 -117t-100 -107t-88 -102t-63.5 -112.5t-24 -128.5z" />
    <glyph glyph-name="Agrave" unicode="&#xc0;" horiz-adv-x="1740" 
d="M1184 2318q4 45 35 45q39 0 112 -108t86 -160q-3 -10 -16.5 -22.5t-22.5 -12.5q-24 0 -85 58.5t-87 93.5q-12 18 -18.5 51t-3.5 55zM1688 774q23 0 33 -6.5t10 -28.5q0 -119 -248 -149l-6 -2q22 -580 194 -672q6 -3 18.5 -9t18.5 -9v-4l2 -13q0 -45 -84 -45
q-298 0 -336 737q-82 -3 -152 2t-159.5 16t-134.5 15q-335 -573 -606 -573q-80 0 -126 64.5t-46 146.5q0 74 36.5 150t94.5 137t127 109t137 75q88 35 213 35q53 0 80 -2q45 85 105 206.5t105 213t99 196.5t99 179.5t92 139t90.5 97t82.5 32.5q67 0 66 -177v-7
q0 -27 -13.5 -354t-9.5 -545q9 2 91.5 23.5t126.5 21.5zM913 731q192 -24 289 -24q53 0 82 2q-5 209 10 513t15 320q-20 -38 -156.5 -330t-239.5 -481zM682 616h-47q-126 0 -231.5 -58t-172.5 -167q-47 -76 -47 -125q0 -35 19.5 -62.5t54.5 -27.5q97 0 202 116t222 324z" />
    <glyph glyph-name="Aacute" unicode="&#xc1;" horiz-adv-x="1740" 
d="M1171 2103q5 43 87 145.5t122 102.5q16 0 33.5 -10.5t16.5 -26.5q-2 -28 -108.5 -138t-133.5 -110l-10 7q-7 17 -7 30zM1688 774q23 0 33 -6.5t10 -28.5q0 -119 -248 -149l-6 -2q22 -580 194 -672q6 -3 18.5 -9t18.5 -9v-4l2 -13q0 -45 -84 -45q-298 0 -336 737
q-82 -3 -152 2t-159.5 16t-134.5 15q-335 -573 -606 -573q-80 0 -126 64.5t-46 146.5q0 74 36.5 150t94.5 137t127 109t137 75q88 35 213 35q53 0 80 -2q45 85 105 206.5t105 213t99 196.5t99 179.5t92 139t90.5 97t82.5 32.5q67 0 66 -177v-7q0 -27 -13.5 -354t-9.5 -545
q9 2 91.5 23.5t126.5 21.5zM913 731q192 -24 289 -24q53 0 82 2q-5 209 10 513t15 320q-20 -38 -156.5 -330t-239.5 -481zM682 616h-47q-126 0 -231.5 -58t-172.5 -167q-47 -76 -47 -125q0 -35 19.5 -62.5t54.5 -27.5q97 0 202 116t222 324z" />
    <glyph glyph-name="Acircumflex" unicode="&#xc2;" horiz-adv-x="1740" 
d="M1135 2068q-17 17 -17 41q15 41 98 158t109 117q9 0 21 -8q30 0 47 -17q11 -12 53 -136.5t41 -141.5v-2l-4 -8q-10 -13 -25 -13q-30 0 -57 39t-50.5 91t-35.5 65q-19 -13 -52.5 -60.5t-67 -86t-60.5 -38.5zM1688 774q23 0 33 -6.5t10 -28.5q0 -119 -248 -149l-6 -2
q22 -580 194 -672q6 -3 18.5 -9t18.5 -9v-4l2 -13q0 -45 -84 -45q-298 0 -336 737q-82 -3 -152 2t-159.5 16t-134.5 15q-335 -573 -606 -573q-80 0 -126 64.5t-46 146.5q0 74 36.5 150t94.5 137t127 109t137 75q88 35 213 35q53 0 80 -2q45 85 105 206.5t105 213t99 196.5
t99 179.5t92 139t90.5 97t82.5 32.5q67 0 66 -177v-7q0 -27 -13.5 -354t-9.5 -545q9 2 91.5 23.5t126.5 21.5zM913 731q192 -24 289 -24q53 0 82 2q-5 209 10 513t15 320q-20 -38 -156.5 -330t-239.5 -481zM682 616h-47q-126 0 -231.5 -58t-172.5 -167q-47 -76 -47 -125
q0 -35 19.5 -62.5t54.5 -27.5q97 0 202 116t222 324z" />
    <glyph glyph-name="Atilde" unicode="&#xc3;" horiz-adv-x="1740" 
d="M1016 2128q0 68 50 121t118 53q43 0 117 -45t112 -45q28 0 59 20.5t55.5 41t37.5 20.5q8 0 13 -9.5t5 -19.5q0 -66 -68.5 -112t-132.5 -46q-44 0 -106.5 37t-89.5 37q-32 0 -67.5 -19t-60.5 -38t-30 -19q-12 0 -12 23zM1688 774q23 0 33 -6.5t10 -28.5q0 -119 -248 -149
l-6 -2q22 -580 194 -672q6 -3 18.5 -9t18.5 -9v-4l2 -13q0 -45 -84 -45q-298 0 -336 737q-82 -3 -152 2t-159.5 16t-134.5 15q-335 -573 -606 -573q-80 0 -126 64.5t-46 146.5q0 74 36.5 150t94.5 137t127 109t137 75q88 35 213 35q53 0 80 -2q45 85 105 206.5t105 213
t99 196.5t99 179.5t92 139t90.5 97t82.5 32.5q67 0 66 -177v-7q0 -27 -13.5 -354t-9.5 -545q9 2 91.5 23.5t126.5 21.5zM913 731q192 -24 289 -24q53 0 82 2q-5 209 10 513t15 320q-20 -38 -156.5 -330t-239.5 -481zM682 616h-47q-126 0 -231.5 -58t-172.5 -167
q-47 -76 -47 -125q0 -35 19.5 -62.5t54.5 -27.5q97 0 202 116t222 324z" />
    <glyph glyph-name="Adieresis" unicode="&#xc4;" horiz-adv-x="1740" 
d="M1421 2300q31 0 63 -35.5t29 -66.5q-3 -36 -30.5 -63.5t-63.5 -27.5q-37 0 -55.5 29t-15.5 68q4 44 19 70t54 26zM1085 2218q4 43 21 53t63 10q25 0 36.5 -19t8.5 -44q-2 -23 -26.5 -56.5t-46.5 -33.5q-29 0 -43.5 28.5t-12.5 61.5zM1688 774q23 0 33 -6.5t10 -28.5
q0 -119 -248 -149l-6 -2q22 -580 194 -672q6 -3 18.5 -9t18.5 -9v-4l2 -13q0 -45 -84 -45q-298 0 -336 737q-82 -3 -152 2t-159.5 16t-134.5 15q-335 -573 -606 -573q-80 0 -126 64.5t-46 146.5q0 74 36.5 150t94.5 137t127 109t137 75q88 35 213 35q53 0 80 -2
q45 85 105 206.5t105 213t99 196.5t99 179.5t92 139t90.5 97t82.5 32.5q67 0 66 -177v-7q0 -27 -13.5 -354t-9.5 -545q9 2 91.5 23.5t126.5 21.5zM913 731q192 -24 289 -24q53 0 82 2q-5 209 10 513t15 320q-20 -38 -156.5 -330t-239.5 -481zM682 616h-47q-126 0 -231.5 -58
t-172.5 -167q-47 -76 -47 -125q0 -35 19.5 -62.5t54.5 -27.5q97 0 202 116t222 324z" />
    <glyph glyph-name="Aring" unicode="&#xc5;" horiz-adv-x="1740" 
d="M1163 2171q7 72 54.5 135.5t115.5 63.5q51 0 81.5 -37.5t25.5 -89.5q-6 -68 -65 -123.5t-126 -55.5q-45 0 -67 30t-19 77zM1360 2263q4 25 -10 33q-22 0 -61.5 -50t-41.5 -73q-4 -23 17 -23q36 0 64.5 37.5t31.5 75.5zM1688 774q23 0 33 -6.5t10 -28.5q0 -119 -248 -149
l-6 -2q22 -580 194 -672q6 -3 18.5 -9t18.5 -9v-4l2 -13q0 -45 -84 -45q-298 0 -336 737q-82 -3 -152 2t-159.5 16t-134.5 15q-335 -573 -606 -573q-80 0 -126 64.5t-46 146.5q0 74 36.5 150t94.5 137t127 109t137 75q88 35 213 35q53 0 80 -2q45 85 105 206.5t105 213
t99 196.5t99 179.5t92 139t90.5 97t82.5 32.5q67 0 66 -177v-7q0 -27 -13.5 -354t-9.5 -545q9 2 91.5 23.5t126.5 21.5zM913 731q192 -24 289 -24q53 0 82 2q-5 209 10 513t15 320q-20 -38 -156.5 -330t-239.5 -481zM682 616h-47q-126 0 -231.5 -58t-172.5 -167
q-47 -76 -47 -125q0 -35 19.5 -62.5t54.5 -27.5q97 0 202 116t222 324z" />
    <glyph glyph-name="AE" unicode="&#xc6;" horiz-adv-x="2613" 
d="M1688 774q26 0 34.5 -8.5t8.5 -34.5q96 49 198 72q-291 208 -291 481q0 109 39 202.5t101.5 157.5t141.5 110t159 67.5t155 21.5q151 0 254 -101t103 -253q0 -135 -82 -232.5t-195 -97.5q-60 0 -98.5 29.5t-38.5 73.5q0 73 98 73q72 0 118 41.5t46 106.5q0 87 -62.5 154
t-150.5 67q-59 0 -123.5 -27t-121.5 -75t-93.5 -125t-36.5 -166q0 -72 25 -142t62 -121.5t81 -100t81 -81t62 -60t25 -42.5q0 -22 -11 -39t-27 -26.5t-39.5 -16t-41.5 -8.5t-40 -4.5t-29 -3.5q-174 -29 -299 -162t-125 -314q0 -119 76.5 -210t175.5 -91q78 0 167.5 43.5
t172 115t163.5 156.5t149.5 173.5t122 161t89.5 124.5t43 58q16 16 35 16q13 0 21 -11t8 -30q0 -9 -16 -40t-38.5 -68.5t-25.5 -44.5q-45 -77 -88 -143.5t-103 -148.5t-119 -147.5t-133.5 -130.5t-149 -108.5t-162.5 -70.5t-177 -27q-153 0 -270 100q-197 122 -226 706
q-82 -3 -152 2t-159.5 16t-134.5 15q-335 -573 -606 -573q-80 0 -126 64.5t-46 146.5q0 74 36.5 150t94.5 137t127 109t137 75q88 35 213 35q53 0 80 -2q45 85 105 206.5t105 213t99 196.5t99 179.5t92 139t90.5 97t82.5 32.5q67 0 66 -177v-7q0 -27 -13.5 -354t-9.5 -545
q9 2 91.5 23.5t126.5 21.5zM913 731q192 -24 289 -24q53 0 82 2q-5 209 10 513t15 320q-20 -38 -156.5 -330t-239.5 -481zM682 616h-47q-126 0 -231.5 -58t-172.5 -167q-47 -76 -47 -125q0 -35 19.5 -62.5t54.5 -27.5q97 0 202 116t222 324zM1479 530q29 40 61 68
q-19 -4 -57 -8l-6 -2h-2q0 -22 4 -58z" />
    <glyph glyph-name="Ccedilla" unicode="&#xc7;" horiz-adv-x="1146" 
d="M918 1782q119 0 178 -72t59 -194q0 -95 -37.5 -185t-114.5 -152.5t-174 -62.5q-34 0 -67 18t-33 50q0 24 15.5 41.5t41 29t56 22.5t60.5 27t55.5 37.5t41 59t15.5 86.5q0 56 -25 103.5t-78 47.5q-64 0 -128 -51t-116 -135.5t-98 -181.5t-82 -202t-59 -182.5t-37 -137.5
q-51 -216 -51 -381q0 -32 1.5 -62t6.5 -70t13.5 -74t23.5 -68.5t35 -58.5t50 -39t67 -15q61 0 130 43t131.5 111.5t125.5 151.5t118.5 166t102.5 151.5t86.5 111.5t62.5 43q10 0 19 -7t8 -16q-2 -15 -9 -35.5t-20.5 -46t-25 -46.5t-31 -51t-29 -44.5t-28.5 -42.5t-21 -31
q-135 -208 -211 -301q-197 -246 -379 -291q-17 -34 -20 -63q16 -9 39.5 -16t38.5 -12.5t30.5 -15t23 -28t7.5 -47.5q0 -65 -37.5 -119.5t-99.5 -54.5q-33 0 -63.5 24t-30.5 56q0 33 20 33q10 0 27.5 -7.5t27.5 -7.5l15 -10q8 0 28 10q15 30 15 60q0 19 -6 37q-37 0 -90.5 17
t-53.5 44q0 28 27 90q-77 5 -137.5 47.5t-95 104t-57 142.5t-30.5 152t-8 142q0 255 72 506q19 67 46 140.5t66 157.5t85 161.5t104 150t120 125.5t137 85t151 32z" />
    <glyph glyph-name="Egrave" unicode="&#xc8;" horiz-adv-x="1310" 
d="M969 2318q4 45 35 45q39 0 112 -108t86 -160q-3 -10 -16.5 -22.5t-22.5 -12.5q-24 0 -85 58.5t-87 93.5q-12 18 -18.5 51t-3.5 55zM627 803q-291 208 -291 481q0 109 39 202.5t101.5 157.5t141.5 110t159 67.5t155 21.5q151 0 253.5 -100.5t102.5 -253.5
q0 -135 -81.5 -232.5t-194.5 -97.5q-60 0 -99 29.5t-39 73.5q0 35 26 54t73 19q72 0 118 41.5t46 106.5q0 87 -62.5 154t-150.5 67q-59 0 -123.5 -27t-121.5 -75t-93.5 -125t-36.5 -166q0 -72 25 -142t62 -121.5t81 -100t81 -81t62 -60t25 -42.5q0 -27 -14.5 -45.5
t-40 -27.5t-47.5 -13.5t-51.5 -7.5t-35.5 -4q-174 -29 -299 -162t-125 -314q0 -119 76.5 -210t175.5 -91q69 0 147 34t150 90t146.5 129t137.5 148.5t121 150.5t99.5 133.5t70.5 99.5t36 47q16 16 34 16q13 0 21 -11t8 -30q0 -9 -16 -40t-38.5 -68.5t-25.5 -44.5
q-45 -77 -88 -143.5t-103 -148.5t-119 -147.5t-133.5 -130.5t-149 -108.5t-162.5 -70.5t-177 -27q-174 0 -299 127.5t-125 302.5q0 114 45.5 215.5t124 177.5t180 130.5t218.5 82.5z" />
    <glyph glyph-name="Eacute" unicode="&#xc9;" horiz-adv-x="1310" 
d="M956 2103q5 43 87 145.5t122 102.5q16 0 33 -10.5t16 -26.5q-2 -28 -108 -138t-133 -110l-10 7q-7 17 -7 30zM627 803q-291 208 -291 481q0 109 39 202.5t101.5 157.5t141.5 110t159 67.5t155 21.5q151 0 253.5 -100.5t102.5 -253.5q0 -135 -81.5 -232.5t-194.5 -97.5
q-60 0 -99 29.5t-39 73.5q0 35 26 54t73 19q72 0 118 41.5t46 106.5q0 87 -62.5 154t-150.5 67q-59 0 -123.5 -27t-121.5 -75t-93.5 -125t-36.5 -166q0 -72 25 -142t62 -121.5t81 -100t81 -81t62 -60t25 -42.5q0 -27 -14.5 -45.5t-40 -27.5t-47.5 -13.5t-51.5 -7.5t-35.5 -4
q-174 -29 -299 -162t-125 -314q0 -119 76.5 -210t175.5 -91q69 0 147 34t150 90t146.5 129t137.5 148.5t121 150.5t99.5 133.5t70.5 99.5t36 47q16 16 34 16q13 0 21 -11t8 -30q0 -9 -16 -40t-38.5 -68.5t-25.5 -44.5q-45 -77 -88 -143.5t-103 -148.5t-119 -147.5
t-133.5 -130.5t-149 -108.5t-162.5 -70.5t-177 -27q-174 0 -299 127.5t-125 302.5q0 114 45.5 215.5t124 177.5t180 130.5t218.5 82.5z" />
    <glyph glyph-name="Ecircumflex" unicode="&#xca;" horiz-adv-x="1310" 
d="M920 2068q-17 17 -17 41q15 41 98 158t109 117q8 0 20 -8q31 0 48 -17q11 -12 53 -136.5t41 -141.5v-2l-4 -8q-10 -13 -25 -13q-30 0 -57 39t-50.5 91t-35.5 65q-19 -13 -52.5 -60.5t-67 -86t-60.5 -38.5zM627 803q-291 208 -291 481q0 109 39 202.5t101.5 157.5
t141.5 110t159 67.5t155 21.5q151 0 253.5 -100.5t102.5 -253.5q0 -135 -81.5 -232.5t-194.5 -97.5q-60 0 -99 29.5t-39 73.5q0 35 26 54t73 19q72 0 118 41.5t46 106.5q0 87 -62.5 154t-150.5 67q-59 0 -123.5 -27t-121.5 -75t-93.5 -125t-36.5 -166q0 -72 25 -142
t62 -121.5t81 -100t81 -81t62 -60t25 -42.5q0 -27 -14.5 -45.5t-40 -27.5t-47.5 -13.5t-51.5 -7.5t-35.5 -4q-174 -29 -299 -162t-125 -314q0 -119 76.5 -210t175.5 -91q69 0 147 34t150 90t146.5 129t137.5 148.5t121 150.5t99.5 133.5t70.5 99.5t36 47q16 16 34 16
q13 0 21 -11t8 -30q0 -9 -16 -40t-38.5 -68.5t-25.5 -44.5q-45 -77 -88 -143.5t-103 -148.5t-119 -147.5t-133.5 -130.5t-149 -108.5t-162.5 -70.5t-177 -27q-174 0 -299 127.5t-125 302.5q0 114 45.5 215.5t124 177.5t180 130.5t218.5 82.5z" />
    <glyph glyph-name="Edieresis" unicode="&#xcb;" horiz-adv-x="1310" 
d="M1206 2300q31 0 63 -35.5t29 -66.5q-3 -36 -30.5 -63.5t-63.5 -27.5q-37 0 -55.5 29t-15.5 68q4 44 19 70t54 26zM870 2218q4 43 21 53t63 10q25 0 36.5 -19t8.5 -44q-2 -23 -26.5 -56.5t-46.5 -33.5q-29 0 -43.5 28.5t-12.5 61.5zM627 803q-291 208 -291 481
q0 109 39 202.5t101.5 157.5t141.5 110t159 67.5t155 21.5q151 0 253.5 -100.5t102.5 -253.5q0 -135 -81.5 -232.5t-194.5 -97.5q-60 0 -99 29.5t-39 73.5q0 35 26 54t73 19q72 0 118 41.5t46 106.5q0 87 -62.5 154t-150.5 67q-59 0 -123.5 -27t-121.5 -75t-93.5 -125
t-36.5 -166q0 -72 25 -142t62 -121.5t81 -100t81 -81t62 -60t25 -42.5q0 -27 -14.5 -45.5t-40 -27.5t-47.5 -13.5t-51.5 -7.5t-35.5 -4q-174 -29 -299 -162t-125 -314q0 -119 76.5 -210t175.5 -91q69 0 147 34t150 90t146.5 129t137.5 148.5t121 150.5t99.5 133.5t70.5 99.5
t36 47q16 16 34 16q13 0 21 -11t8 -30q0 -9 -16 -40t-38.5 -68.5t-25.5 -44.5q-45 -77 -88 -143.5t-103 -148.5t-119 -147.5t-133.5 -130.5t-149 -108.5t-162.5 -70.5t-177 -27q-174 0 -299 127.5t-125 302.5q0 114 45.5 215.5t124 177.5t180 130.5t218.5 82.5z" />
    <glyph glyph-name="Igrave" unicode="&#xcc;" horiz-adv-x="815" 
d="M721 2318q4 45 35 45q39 0 112 -108t86 -160q-3 -10 -16.5 -22.5t-22.5 -12.5q-24 0 -85 58.5t-87 93.5q-12 18 -18.5 51t-3.5 55zM41 -98q0 23 18.5 38t53 22t61.5 10t66 4t45 1q55 842 329 1700l-223 -4q-69 0 -69 66q0 9 2.5 16t8 12.5t11 9.5t14.5 7l15 5t17 3.5
t16.5 2.5t16 2t13.5 1q27 4 68.5 5.5t73 1.5t93.5 -0.5t89 -0.5h227q3 0 19.5 0.5t20 0t15.5 -2t15.5 -5l9.5 -9.5t8 -15t2 -22q0 -17 -7.5 -30t-22.5 -20t-31 -11t-38.5 -5t-39 -1t-39 1t-31.5 1q-27 0 -47 -5q-119 -333 -230.5 -865.5t-111.5 -844.5h27l53 4h27
q1 0 16.5 0.5t26 0t29 -1t32 -3t26.5 -6.5t20 -10.5t7 -15.5v-15q-2 -17 -9.5 -29.5t-20.5 -20t-24.5 -12t-31 -6t-30.5 -2t-32.5 0t-27.5 0.5q-71 0 -213 -8.5t-213 -8.5q-100 0 -100 64z" />
    <glyph glyph-name="Iacute" unicode="&#xcd;" horiz-adv-x="815" 
d="M709 2103q5 43 87 145.5t122 102.5q16 0 33 -10.5t16 -26.5q-2 -28 -108.5 -138t-133.5 -110l-10 7q-6 15 -6 30zM41 -98q0 23 18.5 38t53 22t61.5 10t66 4t45 1q55 842 329 1700l-223 -4q-69 0 -69 66q0 9 2.5 16t8 12.5t11 9.5t14.5 7l15 5t17 3.5t16.5 2.5t16 2
t13.5 1q27 4 68.5 5.5t73 1.5t93.5 -0.5t89 -0.5h227q3 0 19.5 0.5t20 0t15.5 -2t15.5 -5l9.5 -9.5t8 -15t2 -22q0 -17 -7.5 -30t-22.5 -20t-31 -11t-38.5 -5t-39 -1t-39 1t-31.5 1q-27 0 -47 -5q-119 -333 -230.5 -865.5t-111.5 -844.5h27l53 4h27q1 0 16.5 0.5t26 0t29 -1
t32 -3t26.5 -6.5t20 -10.5t7 -15.5v-15q-2 -17 -9.5 -29.5t-20.5 -20t-24.5 -12t-31 -6t-30.5 -2t-32.5 0t-27.5 0.5q-71 0 -213 -8.5t-213 -8.5q-100 0 -100 64z" />
    <glyph glyph-name="Icircumflex" unicode="&#xce;" horiz-adv-x="815" 
d="M672 2068q-17 17 -17 41q15 41 98 158t109 117q9 0 21 -8q30 0 47 -17q11 -12 53 -136.5t41 -141.5v-2l-4 -8q-10 -13 -25 -13q-30 0 -57 39t-50.5 91t-35.5 65q-19 -13 -52.5 -60.5t-67 -86t-60.5 -38.5zM41 -98q0 23 18.5 38t53 22t61.5 10t66 4t45 1q55 842 329 1700
l-223 -4q-69 0 -69 66q0 9 2.5 16t8 12.5t11 9.5t14.5 7l15 5t17 3.5t16.5 2.5t16 2t13.5 1q27 4 68.5 5.5t73 1.5t93.5 -0.5t89 -0.5h227q3 0 19.5 0.5t20 0t15.5 -2t15.5 -5l9.5 -9.5t8 -15t2 -22q0 -17 -7.5 -30t-22.5 -20t-31 -11t-38.5 -5t-39 -1t-39 1t-31.5 1
q-27 0 -47 -5q-119 -333 -230.5 -865.5t-111.5 -844.5h27l53 4h27q1 0 16.5 0.5t26 0t29 -1t32 -3t26.5 -6.5t20 -10.5t7 -15.5v-15q-2 -17 -9.5 -29.5t-20.5 -20t-24.5 -12t-31 -6t-30.5 -2t-32.5 0t-27.5 0.5q-71 0 -213 -8.5t-213 -8.5q-100 0 -100 64z" />
    <glyph glyph-name="Idieresis" unicode="&#xcf;" horiz-adv-x="815" 
d="M958 2300q31 0 63.5 -35.5t29.5 -66.5q-3 -36 -31 -63.5t-64 -27.5q-37 0 -55.5 29t-15.5 68q4 44 19 70t54 26zM623 2218q4 43 21 53t63 10q25 0 36.5 -19t8.5 -44q-2 -23 -27 -56.5t-47 -33.5q-29 0 -43 28.5t-12 61.5zM41 -98q0 23 18.5 38t53 22t61.5 10t66 4t45 1
q55 842 329 1700l-223 -4q-69 0 -69 66q0 9 2.5 16t8 12.5t11 9.5t14.5 7l15 5t17 3.5t16.5 2.5t16 2t13.5 1q27 4 68.5 5.5t73 1.5t93.5 -0.5t89 -0.5h227q3 0 19.5 0.5t20 0t15.5 -2t15.5 -5l9.5 -9.5t8 -15t2 -22q0 -17 -7.5 -30t-22.5 -20t-31 -11t-38.5 -5t-39 -1
t-39 1t-31.5 1q-27 0 -47 -5q-119 -333 -230.5 -865.5t-111.5 -844.5h27l53 4h27q1 0 16.5 0.5t26 0t29 -1t32 -3t26.5 -6.5t20 -10.5t7 -15.5v-15q-2 -17 -9.5 -29.5t-20.5 -20t-24.5 -12t-31 -6t-30.5 -2t-32.5 0t-27.5 0.5q-71 0 -213 -8.5t-213 -8.5q-100 0 -100 64z
" />
    <glyph glyph-name="Eth" unicode="&#xd0;" horiz-adv-x="1333" 
d="M174 682q-22 0 -42 4t-37 18t-15 37q5 55 131 70q12 92 39.5 240t68 330t91.5 309t96 127h8l14 2q31 0 41.5 -16.5t10.5 -49.5q0 -8 -11 -88q-19 -107 -80.5 -363.5t-80.5 -398.5q21 69 53 153t80 194t107 210t124 186t141 137.5t150 51.5q62 0 108.5 -35.5t71.5 -86.5
t40.5 -120.5t19.5 -124t4 -110.5q0 -136 -35 -322q73 43 114 43q18 0 31 -10.5t13 -28.5q0 -12 -20.5 -27t-72 -46t-88.5 -56q-11 -45 -20 -92q-13 -69 -40 -153.5t-66.5 -177.5t-88 -184t-108 -173.5t-122.5 -145.5t-136 -100t-144 -37q-83 0 -131.5 50t-48.5 135
q0 96 66.5 217.5t179 245t221.5 224.5t233 202q30 122 46 283t16 304q0 22 -2.5 51t-9.5 66.5t-22.5 62.5t-37.5 25q-54 0 -143 -111t-174.5 -264.5t-150.5 -284t-93 -200.5l-10 -27q-1 -2 -3 -7t-3 -7q171 -5 186 -20q10 -10 10 -27q0 -52 -245 -74q-39 -102 -64 -213
q-1 -5 -6 -33.5t-10 -45.5t-14 -40.5t-23 -35t-33 -11.5q-72 0 -72 168q0 76 11 201h-23zM561 -8q62 0 123 55t108.5 137.5t92 194.5t74.5 209t55 198q-543 -439 -543 -690q0 -104 90 -104z" />
    <glyph glyph-name="Ntilde" unicode="&#xd1;" horiz-adv-x="1433" 
d="M862 2128q0 68 50 121t118 53q43 0 117.5 -45t112.5 -45q28 0 59 20.5t55 41t37 20.5q8 0 13.5 -9.5t5.5 -19.5q0 -66 -68.5 -112t-132.5 -46q-44 0 -107 37t-90 37q-32 0 -67.5 -19t-60.5 -38t-30 -19q-12 0 -12 23zM1155 1374q0 113 -34.5 185.5t-88.5 72.5
q-58 0 -127.5 -100.5t-133 -253t-132 -348t-122.5 -370.5t-107.5 -337t-83.5 -231q-14 -33 -38 -43t-69 -10q-20 0 -34 6.5t-20.5 14t-10 24.5t-4 27t-0.5 32q0 52 4.5 109t12.5 129.5t11 107.5q43 436 201 1071q9 35 26.5 93t46 123.5t46.5 64.5q91 -5 84 -121
q0 -22 -7 -47q-45 -159 -76 -333.5t-64 -429.5t-46 -339q5 18 18 66q22 82 36 133.5t46.5 160t58.5 184.5t67 184.5t78 184.5t85.5 159t95 134.5t101.5 85t110 33.5q114 0 190.5 -137.5t76.5 -341.5q0 -118 -24.5 -241t-79 -305.5t-66.5 -227.5q-11 -41 -37 -130t-39.5 -141
t-26 -128.5t-12.5 -141.5q0 -52 13 -69q8 -10 20 -15q48 45 162 257t161 321q2 5 17.5 45.5t28.5 71.5t31 69t35 60t30 22q17 0 25.5 -14.5t8.5 -32.5q0 -56 -106 -296t-238.5 -463.5t-191.5 -223.5q-174 0 -174 270q0 64 5.5 128t20 142t23.5 120.5t32 140.5t29 124
q17 74 61.5 232t69.5 274.5t25 208.5z" />
    <glyph glyph-name="Ograve" unicode="&#xd2;" 
d="M979 2318q4 45 35 45q39 0 112 -108t86 -160q-3 -10 -16 -22.5t-22 -12.5q-24 0 -85.5 58.5t-87.5 93.5q-12 18 -18.5 51t-3.5 55zM764 1798q137 -3 231 -61l47 18q71 23 107 23q33 0 54.5 -15.5t21.5 -40.5q0 -43 -84 -67q-18 -5 -41 -15q129 -175 123 -555
q-3 -240 -49 -446q73 23 305 119q18 -18 18 -31q0 -23 -70 -76q-135 -102 -290 -153q-94 -315 -265.5 -506.5t-373.5 -188.5q-177 3 -283.5 151t-101.5 384q3 231 112 504q-76 146 -73 325q2 180 82.5 325.5t220 227t309.5 78.5zM311 1028q107 203 250 371.5t299 267.5
q-31 8 -76 8q-88 1 -177 -38t-158 -105.5t-112.5 -161.5t-43.5 -199q0 -67 18 -143zM408 817q159 -217 489 -225q66 0 121 8q86 302 86 588v37q0 243 -103 358q-195 -139 -347 -337.5t-246 -428.5zM354 670q-54 -176 -57 -365q-2 -163 61.5 -270.5t163.5 -110.5
q119 -3 240.5 147.5t210.5 393.5q-16 -2 -49 -2q-171 1 -318.5 55t-251.5 152z" />
    <glyph glyph-name="Oacute" unicode="&#xd3;" 
d="M967 2103q5 43 87 145.5t122 102.5q16 0 33 -10.5t16 -26.5q-2 -28 -108.5 -138t-133.5 -110l-10 7q-6 15 -6 30zM764 1798q137 -3 231 -61l47 18q71 23 107 23q33 0 54.5 -15.5t21.5 -40.5q0 -43 -84 -67q-18 -5 -41 -15q129 -175 123 -555q-3 -240 -49 -446
q73 23 305 119q18 -18 18 -31q0 -23 -70 -76q-135 -102 -290 -153q-94 -315 -265.5 -506.5t-373.5 -188.5q-177 3 -283.5 151t-101.5 384q3 231 112 504q-76 146 -73 325q2 180 82.5 325.5t220 227t309.5 78.5zM311 1028q107 203 250 371.5t299 267.5q-31 8 -76 8
q-88 1 -177 -38t-158 -105.5t-112.5 -161.5t-43.5 -199q0 -67 18 -143zM408 817q159 -217 489 -225q66 0 121 8q86 302 86 588v37q0 243 -103 358q-195 -139 -347 -337.5t-246 -428.5zM354 670q-54 -176 -57 -365q-2 -163 61.5 -270.5t163.5 -110.5q119 -3 240.5 147.5
t210.5 393.5q-16 -2 -49 -2q-171 1 -318.5 55t-251.5 152z" />
    <glyph glyph-name="Ocircumflex" unicode="&#xd4;" 
d="M930 2068q-17 17 -17 41q15 41 98 158t109 117q9 0 21 -8q30 0 47 -17q11 -12 53 -136.5t41 -141.5v-2l-4 -8q-10 -13 -25 -13q-30 0 -57 39t-50.5 91t-35.5 65q-19 -13 -52.5 -60.5t-67 -86t-60.5 -38.5zM764 1798q137 -3 231 -61l47 18q71 23 107 23q33 0 54.5 -15.5
t21.5 -40.5q0 -43 -84 -67q-18 -5 -41 -15q129 -175 123 -555q-3 -240 -49 -446q73 23 305 119q18 -18 18 -31q0 -23 -70 -76q-135 -102 -290 -153q-94 -315 -265.5 -506.5t-373.5 -188.5q-177 3 -283.5 151t-101.5 384q3 231 112 504q-76 146 -73 325q2 180 82.5 325.5
t220 227t309.5 78.5zM311 1028q107 203 250 371.5t299 267.5q-31 8 -76 8q-88 1 -177 -38t-158 -105.5t-112.5 -161.5t-43.5 -199q0 -67 18 -143zM408 817q159 -217 489 -225q66 0 121 8q86 302 86 588v37q0 243 -103 358q-195 -139 -347 -337.5t-246 -428.5zM354 670
q-54 -176 -57 -365q-2 -163 61.5 -270.5t163.5 -110.5q119 -3 240.5 147.5t210.5 393.5q-16 -2 -49 -2q-171 1 -318.5 55t-251.5 152z" />
    <glyph glyph-name="Otilde" unicode="&#xd5;" 
d="M811 2128q0 68 50 121t118 53q43 0 117 -45t112 -45q28 0 59 20.5t55.5 41t37.5 20.5q8 0 13 -9.5t5 -19.5q0 -66 -68 -112t-132 -46q-44 0 -107 37t-90 37q-32 0 -67.5 -19t-60.5 -38t-30 -19q-12 0 -12 23zM764 1798q137 -3 231 -61l47 18q71 23 107 23
q33 0 54.5 -15.5t21.5 -40.5q0 -43 -84 -67q-18 -5 -41 -15q129 -175 123 -555q-3 -240 -49 -446q73 23 305 119q18 -18 18 -31q0 -23 -70 -76q-135 -102 -290 -153q-94 -315 -265.5 -506.5t-373.5 -188.5q-177 3 -283.5 151t-101.5 384q3 231 112 504q-76 146 -73 325
q2 180 82.5 325.5t220 227t309.5 78.5zM311 1028q107 203 250 371.5t299 267.5q-31 8 -76 8q-88 1 -177 -38t-158 -105.5t-112.5 -161.5t-43.5 -199q0 -67 18 -143zM408 817q159 -217 489 -225q66 0 121 8q86 302 86 588v37q0 243 -103 358q-195 -139 -347 -337.5
t-246 -428.5zM354 670q-54 -176 -57 -365q-2 -163 61.5 -270.5t163.5 -110.5q119 -3 240.5 147.5t210.5 393.5q-16 -2 -49 -2q-171 1 -318.5 55t-251.5 152z" />
    <glyph glyph-name="Odieresis" unicode="&#xd6;" 
d="M1217 2300q31 0 63 -35.5t29 -66.5q-3 -36 -31 -63.5t-64 -27.5q-37 0 -55.5 29t-15.5 68q8 96 74 96zM881 2218q4 43 21 53t63 10q25 0 36.5 -19t8.5 -44q-2 -23 -27 -56.5t-47 -33.5q-29 0 -43 28.5t-12 61.5zM764 1798q137 -3 231 -61l47 18q71 23 107 23
q33 0 54.5 -15.5t21.5 -40.5q0 -43 -84 -67q-18 -5 -41 -15q129 -175 123 -555q-3 -240 -49 -446q73 23 305 119q18 -18 18 -31q0 -23 -70 -76q-135 -102 -290 -153q-94 -315 -265.5 -506.5t-373.5 -188.5q-177 3 -283.5 151t-101.5 384q3 231 112 504q-76 146 -73 325
q2 180 82.5 325.5t220 227t309.5 78.5zM311 1028q107 203 250 371.5t299 267.5q-31 8 -76 8q-88 1 -177 -38t-158 -105.5t-112.5 -161.5t-43.5 -199q0 -67 18 -143zM408 817q159 -217 489 -225q66 0 121 8q86 302 86 588v37q0 243 -103 358q-195 -139 -347 -337.5
t-246 -428.5zM354 670q-54 -176 -57 -365q-2 -163 61.5 -270.5t163.5 -110.5q119 -3 240.5 147.5t210.5 393.5q-16 -2 -49 -2q-171 1 -318.5 55t-251.5 152z" />
    <glyph glyph-name="multiply" unicode="&#xd7;" horiz-adv-x="956" 
d="M365 872q36 0 63.5 -33.5t53 -85t38.5 -67.5q3 4 20.5 25t28 33.5t30 34t34.5 35t33 28t34.5 21.5t30.5 7q19 0 34.5 -9t14.5 -27q-2 -41 -200 -250q3 -5 21 -38t33 -61t32 -62t27 -58.5t9 -34.5l-6 -6q-18 -15 -39 -15q-59 0 -162 169l-6 9q-2 -2 -58.5 -60t-96.5 -88
t-70 -30q-10 0 -24 7t-13 16q2 25 201 250q-1 2 -16 26t-22.5 37t-23 39.5t-24.5 44.5t-18.5 39.5t-14 38t-4.5 27.5q1 18 21 28t39 10z" />
    <glyph glyph-name="Oslash" unicode="&#xd8;" 
d="M764 1798q137 -3 231 -61l47 18q71 23 107 23q33 0 54.5 -15.5t21.5 -40.5q0 -43 -84 -67q-18 -5 -41 -15q83 -115 110 -309q101 124 168 105q27 -7 35.5 -27t3.5 -41q-5 -17 -19.5 -42.5t-38.5 -57.5t-40.5 -53t-43 -53t-28.5 -34l-24 -30q0 -236 -49 -459
q73 23 305 119q18 -18 18 -31q0 -23 -70 -76q-135 -102 -290 -153q-94 -315 -265.5 -506.5t-373.5 -188.5q-125 3 -213 76h-2q-92 -111 -113 -108q-28 8 -38 23t-3 46q5 18 78 125q-97 146 -94 373q3 231 112 504q-76 146 -73 325q2 180 82.5 325.5t220 227t309.5 78.5z
M311 1028q107 203 250 371.5t299 267.5q-31 8 -76 8q-88 1 -177 -38t-158 -105.5t-112.5 -161.5t-43.5 -199q0 -67 18 -143zM408 817q99 -137 274 -192q268 361 422 567v33q0 243 -103 358q-195 -139 -347 -337.5t-246 -428.5zM834 596q40 -4 63 -4q66 0 121 8
q48 173 67 322l-140 -182t-111 -144zM354 670q-54 -176 -57 -365q0 -96 22 -176q84 118 283 389q-143 53 -248 152zM383 2q59 -75 139 -78q119 -3 240.5 147.5t210.5 393.5q-16 -2 -49 -2q-88 0 -179 16q-37 -49 -109.5 -144.5t-107.5 -141.5q-61 -85 -145 -191z" />
    <glyph glyph-name="Ugrave" unicode="&#xd9;" horiz-adv-x="1306" 
d="M967 2318q4 45 34 45q39 0 112.5 -108t86.5 -160q-3 -10 -16.5 -22.5t-22.5 -12.5q-24 0 -85 58.5t-87 93.5q-12 18 -18.5 51t-3.5 55zM1049 -205q-42 0 -73.5 38t-47 95.5t-22.5 109.5t-7 95q0 348 59 563q-20 -62 -42 -124.5t-56 -143.5t-69.5 -152.5t-80.5 -142.5
t-91 -121.5t-100 -82t-107 -31.5q-265 0 -265 417q0 101 16.5 235t36 242.5t57.5 271.5t58 240t60 230q13 55 47 145.5t59 87.5q55 -5 84 -31.5t19 -78.5q-15 -83 -114.5 -517.5t-115.5 -627.5q-6 -70 -6 -139q0 -291 141 -291q41 0 93 64t102.5 167.5t99.5 220.5t91 237.5
t69 203t41 131.5q5 18 25 102.5t41.5 166t49.5 169.5t60.5 142.5t63.5 54.5q52 0 82 -19t30 -69q0 -34 -11.5 -72.5t-29 -84t-24.5 -69.5q-77 -262 -133 -638t-56 -633q0 -31 4 -86.5t6.5 -98t1.5 -85.5t-12.5 -67t-33.5 -24z" />
    <glyph glyph-name="Uacute" unicode="&#xda;" horiz-adv-x="1306" 
d="M954 2103q5 43 87 145.5t122 102.5q16 0 33 -10.5t16 -26.5q-2 -28 -108 -138t-133 -110l-10 7q-7 17 -7 30zM1049 -205q-42 0 -73.5 38t-47 95.5t-22.5 109.5t-7 95q0 348 59 563q-20 -62 -42 -124.5t-56 -143.5t-69.5 -152.5t-80.5 -142.5t-91 -121.5t-100 -82
t-107 -31.5q-265 0 -265 417q0 101 16.5 235t36 242.5t57.5 271.5t58 240t60 230q13 55 47 145.5t59 87.5q55 -5 84 -31.5t19 -78.5q-15 -83 -114.5 -517.5t-115.5 -627.5q-6 -70 -6 -139q0 -291 141 -291q41 0 93 64t102.5 167.5t99.5 220.5t91 237.5t69 203t41 131.5
q5 18 25 102.5t41.5 166t49.5 169.5t60.5 142.5t63.5 54.5q52 0 82 -19t30 -69q0 -34 -11.5 -72.5t-29 -84t-24.5 -69.5q-77 -262 -133 -638t-56 -633q0 -31 4 -86.5t6.5 -98t1.5 -85.5t-12.5 -67t-33.5 -24z" />
    <glyph glyph-name="Ucircumflex" unicode="&#xdb;" horiz-adv-x="1306" 
d="M918 2068q-17 17 -17 41q15 41 98 158t109 117q8 0 20 -8q31 0 48 -17q11 -12 53 -136.5t41 -141.5v-2l-4 -8q-10 -13 -25 -13q-30 0 -57 39t-50.5 91t-35.5 65q-19 -13 -52.5 -60.5t-67 -86t-60.5 -38.5zM1049 -205q-42 0 -73.5 38t-47 95.5t-22.5 109.5t-7 95
q0 348 59 563q-20 -62 -42 -124.5t-56 -143.5t-69.5 -152.5t-80.5 -142.5t-91 -121.5t-100 -82t-107 -31.5q-265 0 -265 417q0 101 16.5 235t36 242.5t57.5 271.5t58 240t60 230q13 55 47 145.5t59 87.5q55 -5 84 -31.5t19 -78.5q-15 -83 -114.5 -517.5t-115.5 -627.5
q-6 -70 -6 -139q0 -291 141 -291q41 0 93 64t102.5 167.5t99.5 220.5t91 237.5t69 203t41 131.5q5 18 25 102.5t41.5 166t49.5 169.5t60.5 142.5t63.5 54.5q52 0 82 -19t30 -69q0 -34 -11.5 -72.5t-29 -84t-24.5 -69.5q-77 -262 -133 -638t-56 -633q0 -31 4 -86.5t6.5 -98
t1.5 -85.5t-12.5 -67t-33.5 -24z" />
    <glyph glyph-name="Udieresis" unicode="&#xdc;" horiz-adv-x="1306" 
d="M1204 2300q31 0 63 -35.5t29 -66.5q-3 -36 -30.5 -63.5t-63.5 -27.5q-37 0 -56 29.5t-16 67.5q8 96 74 96zM868 2218q4 43 21 53t63 10q25 0 36.5 -19t8.5 -44q-2 -23 -26.5 -56.5t-46.5 -33.5q-29 0 -43.5 28.5t-12.5 61.5zM1049 -205q-42 0 -73.5 38t-47 95.5
t-22.5 109.5t-7 95q0 348 59 563q-20 -62 -42 -124.5t-56 -143.5t-69.5 -152.5t-80.5 -142.5t-91 -121.5t-100 -82t-107 -31.5q-265 0 -265 417q0 101 16.5 235t36 242.5t57.5 271.5t58 240t60 230q13 55 47 145.5t59 87.5q55 -5 84 -31.5t19 -78.5q-15 -83 -114.5 -517.5
t-115.5 -627.5q-6 -70 -6 -139q0 -291 141 -291q41 0 93 64t102.5 167.5t99.5 220.5t91 237.5t69 203t41 131.5q5 18 25 102.5t41.5 166t49.5 169.5t60.5 142.5t63.5 54.5q52 0 82 -19t30 -69q0 -34 -11.5 -72.5t-29 -84t-24.5 -69.5q-77 -262 -133 -638t-56 -633
q0 -31 4 -86.5t6.5 -98t1.5 -85.5t-12.5 -67t-33.5 -24z" />
    <glyph glyph-name="Yacute" unicode="&#xdd;" horiz-adv-x="1415" 
d="M1008 2103q5 43 87 145.5t122 102.5q16 0 33 -10.5t16 -26.5q-2 -28 -108.5 -138t-133.5 -110l-10 7q-6 15 -6 30zM238 -25q3 106 81 230t200.5 236.5t262.5 210t281 169.5q22 103 31 160q3 17 13.5 78t14.5 84.5t11.5 76t10.5 84.5t6 75.5t3 82.5v33q-28 -42 -79 -132.5
t-94.5 -168t-106.5 -169.5t-122 -156.5t-132.5 -108t-145.5 -43.5q-48 0 -83.5 19t-55 47.5t-31.5 71t-15 79.5t-3 82q0 92 54.5 266.5t136 320.5t145.5 146q47 0 81 -28t15 -72q-19 -45 -57.5 -128.5t-62 -137.5t-49.5 -125t-39 -137.5t-13 -129.5q0 -51 9.5 -72.5
t31.5 -21.5q29 0 71 35t92 99t97.5 132t101.5 157t90 149t77.5 133t49.5 86q21 35 47.5 48t69.5 13q24 0 44.5 -6t35 -15t26 -26t18.5 -30.5t12 -37.5t7.5 -39t4 -42t1.5 -40v-40q0 -229 -61 -547q52 14 96 14q53 0 53 -39q0 -46 -51 -59q-49 -14 -125 -41
q-67 -305 -155 -482q-37 -72 -82 -146t-111 -159t-133.5 -149t-149.5 -107t-159 -43q-117 0 -193 72.5t-73 187.5zM1028 674q-79 -47 -157 -99.5t-167 -125t-155.5 -143t-111.5 -151t-46 -151.5q0 -28 5.5 -62t24 -67t46.5 -33q33 0 79 24.5t83 53.5q92 74 172 202.5
t132.5 262t94.5 289.5z" />
    <glyph glyph-name="Thorn" unicode="&#xde;" horiz-adv-x="1183" 
d="M180 471q2 19 18 50.5t31 31.5h62l43 491q-78 -40 -127 -40q-30 0 -43.5 24.5t-11.5 56.5q3 36 17 61t39.5 41t47 24.5t59.5 19.5t56 18q12 54 44 251t66 302q24 21 51 21q53 0 89 -62q-7 -82 -32 -245.5t-32 -245.5q130 26 242 26q197 0 299 -91t84 -283
q-8 -99 -55.5 -182.5t-118 -139.5t-160.5 -95.5t-182 -57t-183 -17.5q-4 -20 -4 -31q-5 -64 -1 -192.5t-1 -192.5q-13 -157 -84 -157q-35 0 -60.5 46.5t-36.5 114.5t-18 144.5t-5 136.5l3 90q-36 -8 -51 -8q-24 0 -35.5 14.5t-11 34.5t1.5 41zM1016 901q11 123 -55.5 176
t-194.5 53q-93 0 -223 -24q-23 -112 -37 -258q-15 -169 -10 -275q12 3 92 20.5t121 31.5q50 16 98 40t95.5 58t78.5 80.5t35 97.5z" />
    <glyph glyph-name="germandbls" unicode="&#xdf;" horiz-adv-x="1028" 
d="M729 1597q63 0 112.5 -32.5t77 -84t39.5 -112t7 -119.5t-36 -124.5t-72 -119.5t-81 -101.5t-68.5 -83.5t-29.5 -52q-2 -18 38 -63t89 -93t88 -111t35 -112q-10 -112 -100 -193t-201 -81q-88 0 -129.5 34.5t-34.5 118.5q6 39 26 39q36 0 72.5 -27.5t79.5 -27.5
q50 0 71.5 25t26.5 77q5 59 -14 107t-49 81t-60.5 63.5t-50.5 69t-16 83.5q5 59 40 124.5t73.5 114.5t73.5 118t40 134q3 29 0 68.5t-19.5 78t-45.5 38.5q-49 0 -98 -39t-92 -108t-82 -152t-73 -185t-61.5 -191t-51 -185.5t-36.5 -153.5t-24 -109q-6 -32 -19 -129t-27 -147
q-33 -117 -100 -117q-21 0 -32 25t-10.5 53t1.5 47q1 15 6.5 76.5t7.5 82.5t7 76.5t9 83t10.5 77t12.5 83t14.5 75.5t18.5 79q16 65 38.5 136t57.5 163.5t74.5 176t92 166.5t108.5 143.5t125.5 98t140.5 37.5z" />
    <glyph glyph-name="agrave" unicode="&#xe0;" horiz-adv-x="839" 
d="M559 1417q4 45 35 45q39 0 112.5 -108t86.5 -160q-3 -10 -16.5 -22.5t-22.5 -12.5q-24 0 -85 58.5t-87 93.5q-12 19 -19 51.5t-4 54.5zM195 307q-65 0 -105.5 68.5t-40.5 177.5q0 155 81.5 252.5t211.5 97.5q60 0 102.5 -22t57.5 -62q8 14 19.5 37.5t18.5 35t20.5 25.5
t33 19.5t47.5 5.5q45 0 70.5 -14.5t25.5 -40.5q0 -28 -38.5 -129t-77.5 -218.5t-39 -187.5q0 -45 20 -45q27 0 85.5 70t115.5 154.5t114 154.5t82 70q9 0 18 -7t9 -14q0 -31 -136 -235t-202 -273q-60 -63 -135 -63q-66 0 -101.5 41.5t-35.5 116.5q0 25 4.5 60t8.5 58.5
t14.5 74t13.5 67.5q-13 -19 -38 -60t-46.5 -74t-49.5 -67.5t-61 -54t-67 -19.5zM190 510q0 -100 21 -100q32 0 120 103t142 204q-9 37 -36.5 60.5t-59.5 23.5q-66 0 -126.5 -94t-60.5 -197z" />
    <glyph glyph-name="aacute" unicode="&#xe1;" horiz-adv-x="839" 
d="M545 1202q5 43 87 145.5t122 102.5q16 0 33 -10.5t16 -26.5q-2 -28 -108.5 -138t-133.5 -110l-10 6q-6 15 -6 31zM195 307q-65 0 -105.5 68.5t-40.5 177.5q0 155 81.5 252.5t211.5 97.5q60 0 102.5 -22t57.5 -62q8 14 19.5 37.5t18.5 35t20.5 25.5t33 19.5t47.5 5.5
q45 0 70.5 -14.5t25.5 -40.5q0 -28 -38.5 -129t-77.5 -218.5t-39 -187.5q0 -45 20 -45q27 0 85.5 70t115.5 154.5t114 154.5t82 70q9 0 18 -7t9 -14q0 -31 -136 -235t-202 -273q-60 -63 -135 -63q-66 0 -101.5 41.5t-35.5 116.5q0 25 4.5 60t8.5 58.5t14.5 74t13.5 67.5
q-13 -19 -38 -60t-46.5 -74t-49.5 -67.5t-61 -54t-67 -19.5zM190 510q0 -100 21 -100q32 0 120 103t142 204q-9 37 -36.5 60.5t-59.5 23.5q-66 0 -126.5 -94t-60.5 -197z" />
    <glyph glyph-name="acircumflex" unicode="&#xe2;" horiz-adv-x="839" 
d="M508 1167q-16 16 -16 41q15 42 97.5 158.5t108.5 116.5q9 0 21 -8q30 0 47 -17q11 -12 53 -136.5t41 -141.5v-2l-4 -9q-9 -12 -25 -12q-30 0 -57 39t-50.5 91t-35.5 65q-19 -13 -52.5 -60.5t-67 -86t-60.5 -38.5zM195 307q-65 0 -105.5 68.5t-40.5 177.5
q0 155 81.5 252.5t211.5 97.5q60 0 102.5 -22t57.5 -62q8 14 19.5 37.5t18.5 35t20.5 25.5t33 19.5t47.5 5.5q45 0 70.5 -14.5t25.5 -40.5q0 -28 -38.5 -129t-77.5 -218.5t-39 -187.5q0 -45 20 -45q27 0 85.5 70t115.5 154.5t114 154.5t82 70q9 0 18 -7t9 -14
q0 -31 -136 -235t-202 -273q-60 -63 -135 -63q-66 0 -101.5 41.5t-35.5 116.5q0 25 4.5 60t8.5 58.5t14.5 74t13.5 67.5q-13 -19 -38 -60t-46.5 -74t-49.5 -67.5t-61 -54t-67 -19.5zM190 510q0 -100 21 -100q32 0 120 103t142 204q-9 37 -36.5 60.5t-59.5 23.5
q-66 0 -126.5 -94t-60.5 -197z" />
    <glyph glyph-name="atilde" unicode="&#xe3;" horiz-adv-x="839" 
d="M389 1227q0 68 50 121t118 53q43 0 117 -45t112 -45q28 0 59 20.5t55.5 41t37.5 20.5q8 0 13 -9.5t5 -19.5q0 -66 -68 -112t-132 -46q-44 0 -107 37t-90 37q-32 0 -67.5 -19t-60.5 -38t-30 -19q-12 0 -12 23zM195 307q-65 0 -105.5 68.5t-40.5 177.5q0 155 81.5 252.5
t211.5 97.5q60 0 102.5 -22t57.5 -62q8 14 19.5 37.5t18.5 35t20.5 25.5t33 19.5t47.5 5.5q45 0 70.5 -14.5t25.5 -40.5q0 -28 -38.5 -129t-77.5 -218.5t-39 -187.5q0 -45 20 -45q27 0 85.5 70t115.5 154.5t114 154.5t82 70q9 0 18 -7t9 -14q0 -31 -136 -235t-202 -273
q-60 -63 -135 -63q-66 0 -101.5 41.5t-35.5 116.5q0 25 4.5 60t8.5 58.5t14.5 74t13.5 67.5q-13 -19 -38 -60t-46.5 -74t-49.5 -67.5t-61 -54t-67 -19.5zM190 510q0 -100 21 -100q32 0 120 103t142 204q-9 37 -36.5 60.5t-59.5 23.5q-66 0 -126.5 -94t-60.5 -197z" />
    <glyph glyph-name="adieresis" unicode="&#xe4;" horiz-adv-x="839" 
d="M795 1399q31 0 63 -36t29 -67q-3 -36 -30.5 -63t-63.5 -27q-37 0 -56 29.5t-16 67.5q8 96 74 96zM459 1317q4 43 21 53t63 10q25 0 36.5 -19t8.5 -44q-2 -23 -27 -56.5t-47 -33.5q-29 0 -43 28.5t-12 61.5zM195 307q-65 0 -105.5 68.5t-40.5 177.5q0 155 81.5 252.5
t211.5 97.5q60 0 102.5 -22t57.5 -62q8 14 19.5 37.5t18.5 35t20.5 25.5t33 19.5t47.5 5.5q45 0 70.5 -14.5t25.5 -40.5q0 -28 -38.5 -129t-77.5 -218.5t-39 -187.5q0 -45 20 -45q27 0 85.5 70t115.5 154.5t114 154.5t82 70q9 0 18 -7t9 -14q0 -31 -136 -235t-202 -273
q-60 -63 -135 -63q-66 0 -101.5 41.5t-35.5 116.5q0 25 4.5 60t8.5 58.5t14.5 74t13.5 67.5q-13 -19 -38 -60t-46.5 -74t-49.5 -67.5t-61 -54t-67 -19.5zM190 510q0 -100 21 -100q32 0 120 103t142 204q-9 37 -36.5 60.5t-59.5 23.5q-66 0 -126.5 -94t-60.5 -197z" />
    <glyph glyph-name="aring" unicode="&#xe5;" horiz-adv-x="839" 
d="M537 1270q7 72 54.5 135t115.5 63q51 0 81 -37.5t25 -89.5q-6 -68 -64.5 -123t-125.5 -55q-45 0 -67 30t-19 77zM733 1362q4 25 -10 33q-22 0 -61 -49.5t-41 -73.5q-4 -23 16 -23q36 0 64.5 37.5t31.5 75.5zM195 307q-65 0 -105.5 68.5t-40.5 177.5q0 155 81.5 252.5
t211.5 97.5q60 0 102.5 -22t57.5 -62q8 14 19.5 37.5t18.5 35t20.5 25.5t33 19.5t47.5 5.5q45 0 70.5 -14.5t25.5 -40.5q0 -28 -38.5 -129t-77.5 -218.5t-39 -187.5q0 -45 20 -45q27 0 85.5 70t115.5 154.5t114 154.5t82 70q9 0 18 -7t9 -14q0 -31 -136 -235t-202 -273
q-60 -63 -135 -63q-66 0 -101.5 41.5t-35.5 116.5q0 25 4.5 60t8.5 58.5t14.5 74t13.5 67.5q-13 -19 -38 -60t-46.5 -74t-49.5 -67.5t-61 -54t-67 -19.5zM190 510q0 -100 21 -100q32 0 120 103t142 204q-9 37 -36.5 60.5t-59.5 23.5q-66 0 -126.5 -94t-60.5 -197z" />
    <glyph glyph-name="ae" unicode="&#xe6;" horiz-adv-x="927" 
d="M655 313q-77 0 -133 61.5t-71 139.5q-137 -207 -256 -207q-65 0 -105.5 68.5t-40.5 177.5q0 155 81.5 252.5t211.5 97.5q60 0 102.5 -22t57.5 -62q26 43 39 58q94 147 241 147q61 0 93 -32.5t32 -92.5q0 -68 -39 -142.5t-104.5 -127t-134.5 -56.5v-10q0 -47 23.5 -90
t66.5 -43q39 0 91 38t101 96.5t83.5 105.5t60.5 88q21 0 39 -21q2 -6 2 -16q0 -80 -67 -176t-172 -164t-202 -68zM805 877q0 45 -23 45q-46 0 -93.5 -104.5t-51.5 -162.5q45 3 106.5 89.5t61.5 132.5zM190 510q0 -100 21 -100q31 0 115.5 98.5t140.5 198.5l4 14
q-10 35 -36.5 57.5t-57.5 22.5q-66 0 -126.5 -94t-60.5 -197z" />
    <glyph glyph-name="ccedilla" unicode="&#xe7;" horiz-adv-x="614" 
d="M207 -70q10 0 27.5 -7t27.5 -7l14 -10q9 0 29 10q14 28 14 59q0 19 -6 37q-36 0 -89.5 17.5t-53.5 44.5q0 40 39 116q-72 19 -114 97.5t-42 199.5q0 86 22 180.5t63.5 182t114 144.5t161.5 57q74 0 124 -49.5t50 -122.5q0 -60 -28.5 -118.5t-74.5 -58.5q-21 0 -30.5 10
t-9 29t4 38.5t8.5 45t5 41.5q0 28 -11 45t-28 17q-49 0 -101 -100t-82 -218.5t-30 -187.5q0 -58 23.5 -96.5t58.5 -38.5q46 0 112.5 62t122.5 138.5t118.5 160t94.5 110.5q18 0 28.5 -11.5t10.5 -29.5q0 -14 -84 -176q-40 -72 -95.5 -141.5t-135.5 -131t-158 -78.5
q-27 -60 -28 -79q16 -9 39.5 -16t38.5 -12.5t30.5 -15t23 -28t7.5 -47.5q0 -65 -37.5 -119.5t-99.5 -54.5q-33 0 -64 24t-31 56t21 32z" />
    <glyph glyph-name="egrave" unicode="&#xe8;" horiz-adv-x="532" 
d="M406 1417q4 45 34 45q39 0 112.5 -108t86.5 -160q-3 -10 -16.5 -22.5t-22.5 -12.5q-24 0 -85 58.5t-87 93.5q-12 18 -18.5 51t-3.5 55zM260 313q-88 0 -148.5 80t-60.5 164q0 72 22 151.5t62.5 151t106.5 118t145 46.5q61 0 93 -32.5t32 -92.5q0 -106 -87.5 -213
t-191.5 -113v-10q0 -47 24 -90t67 -43q32 0 73.5 26.5t78 64t75.5 86.5t63.5 84.5t44.5 66.5q21 0 39 -21q2 -6 2 -16q0 -60 -40.5 -132t-102.5 -133t-143 -102t-154 -41zM410 877q0 45 -23 45q-46 0 -93.5 -104.5t-51.5 -162.5q45 3 106.5 89.5t61.5 132.5z" />
    <glyph glyph-name="eacute" unicode="&#xe9;" horiz-adv-x="532" 
d="M391 1202q5 43 87 145.5t122 102.5q16 0 33 -10.5t16 -26.5q-2 -28 -108 -138t-133 -110l-11 6q-6 15 -6 31zM260 313q-88 0 -148.5 80t-60.5 164q0 72 22 151.5t62.5 151t106.5 118t145 46.5q61 0 93 -32.5t32 -92.5q0 -106 -87.5 -213t-191.5 -113v-10q0 -47 24 -90
t67 -43q32 0 73.5 26.5t78 64t75.5 86.5t63.5 84.5t44.5 66.5q21 0 39 -21q2 -6 2 -16q0 -60 -40.5 -132t-102.5 -133t-143 -102t-154 -41zM410 877q0 45 -23 45q-46 0 -93.5 -104.5t-51.5 -162.5q45 3 106.5 89.5t61.5 132.5z" />
    <glyph glyph-name="ecircumflex" unicode="&#xea;" horiz-adv-x="532" 
d="M354 1167q-16 16 -16 41q15 41 98 158t109 117q8 0 20 -8q30 0 47 -17q11 -12 53.5 -136.5t41.5 -141.5v-2l-5 -9q-9 -12 -24 -12q-30 0 -57 39t-50.5 91t-35.5 65q-19 -13 -53 -60.5t-67.5 -86t-60.5 -38.5zM260 313q-88 0 -148.5 80t-60.5 164q0 72 22 151.5t62.5 151
t106.5 118t145 46.5q61 0 93 -32.5t32 -92.5q0 -106 -87.5 -213t-191.5 -113v-10q0 -47 24 -90t67 -43q32 0 73.5 26.5t78 64t75.5 86.5t63.5 84.5t44.5 66.5q21 0 39 -21q2 -6 2 -16q0 -60 -40.5 -132t-102.5 -133t-143 -102t-154 -41zM410 877q0 45 -23 45
q-46 0 -93.5 -104.5t-51.5 -162.5q45 3 106.5 89.5t61.5 132.5z" />
    <glyph glyph-name="edieresis" unicode="&#xeb;" horiz-adv-x="532" 
d="M641 1399q31 0 63 -36t29 -67q-3 -36 -30.5 -63t-63.5 -27q-37 0 -56 29.5t-16 67.5q8 96 74 96zM305 1317q4 43 21 53t63 10q25 0 36.5 -19t8.5 -44q-2 -23 -27 -56.5t-47 -33.5q-29 0 -43 28.5t-12 61.5zM260 313q-88 0 -148.5 80t-60.5 164q0 72 22 151.5t62.5 151
t106.5 118t145 46.5q61 0 93 -32.5t32 -92.5q0 -106 -87.5 -213t-191.5 -113v-10q0 -47 24 -90t67 -43q32 0 73.5 26.5t78 64t75.5 86.5t63.5 84.5t44.5 66.5q21 0 39 -21q2 -6 2 -16q0 -60 -40.5 -132t-102.5 -133t-143 -102t-154 -41zM410 877q0 45 -23 45
q-46 0 -93.5 -104.5t-51.5 -162.5q45 3 106.5 89.5t61.5 132.5z" />
    <glyph glyph-name="igrave" unicode="&#xec;" horiz-adv-x="409" 
d="M344 1417q4 45 35 45q39 0 112.5 -108t86.5 -160q-3 -10 -16.5 -22.5t-22.5 -12.5q-24 0 -85 58.5t-87 93.5q-12 19 -19 51.5t-4 54.5zM209 287q-41 0 -70 28.5t-42.5 74.5t-19 86t-5.5 79q0 91 21 191t63 174.5t92 74.5q40 0 60 -14t20 -51q0 -28 -15.5 -70.5t-34 -84.5
t-34 -117t-15.5 -160q0 -68 33 -68q16 0 45 34t62 82t67 96t67 82t54 34q25 0 25 -31q0 -37 -41 -111.5t-98 -147t-123.5 -127t-110.5 -54.5z" />
    <glyph glyph-name="iacute" unicode="&#xed;" horiz-adv-x="409" 
d="M330 1202q5 43 87 145.5t122 102.5q16 0 33 -10.5t16 -26.5q-2 -28 -108.5 -138t-133.5 -110l-10 6q-6 15 -6 31zM209 287q-41 0 -70 28.5t-42.5 74.5t-19 86t-5.5 79q0 91 21 191t63 174.5t92 74.5q40 0 60 -14t20 -51q0 -28 -15.5 -70.5t-34 -84.5t-34 -117t-15.5 -160
q0 -68 33 -68q16 0 45 34t62 82t67 96t67 82t54 34q25 0 25 -31q0 -37 -41 -111.5t-98 -147t-123.5 -127t-110.5 -54.5z" />
    <glyph glyph-name="icircumflex" unicode="&#xee;" horiz-adv-x="409" 
d="M293 1167q-17 17 -17 41q15 41 98 158t109 117q9 0 21 -8q30 0 47 -17q11 -12 53 -136.5t41 -141.5v-2l-4 -9q-9 -12 -25 -12q-30 0 -57 39t-50.5 91t-35.5 65q-19 -13 -52.5 -60.5t-67 -86t-60.5 -38.5zM209 287q-41 0 -70 28.5t-42.5 74.5t-19 86t-5.5 79q0 91 21 191
t63 174.5t92 74.5q40 0 60 -14t20 -51q0 -28 -15.5 -70.5t-34 -84.5t-34 -117t-15.5 -160q0 -68 33 -68q16 0 45 34t62 82t67 96t67 82t54 34q25 0 25 -31q0 -37 -41 -111.5t-98 -147t-123.5 -127t-110.5 -54.5z" />
    <glyph glyph-name="idieresis" unicode="&#xef;" horiz-adv-x="409" 
d="M580 1399q31 0 63 -36t29 -67q-3 -36 -30.5 -63t-63.5 -27q-37 0 -56 29.5t-16 67.5q8 96 74 96zM244 1317q4 43 21 53t63 10q25 0 36.5 -19t8.5 -44q-2 -23 -27 -56.5t-47 -33.5q-29 0 -43 28.5t-12 61.5zM209 287q-41 0 -70 28.5t-42.5 74.5t-19 86t-5.5 79
q0 91 21 191t63 174.5t92 74.5q40 0 60 -14t20 -51q0 -28 -15.5 -70.5t-34 -84.5t-34 -117t-15.5 -160q0 -68 33 -68q16 0 45 34t62 82t67 96t67 82t54 34q25 0 25 -31q0 -37 -41 -111.5t-98 -147t-123.5 -127t-110.5 -54.5z" />
    <glyph glyph-name="eth" unicode="&#xf0;" horiz-adv-x="720" 
d="M53 571q12 132 127 255t248 151q3 1 16 3t18 4t13.5 6t12 11t4.5 17q3 26 -11.5 62.5t-40.5 83t-32 59.5q-110 -103 -152 -103q-30 0 -27 27q2 28 39 82t39 80t-24.5 56.5t-59.5 53t-59.5 49t-24.5 45.5q2 21 8.5 35t14 21.5t23.5 11t27 4t34 0.5q30 0 60.5 -17.5
t68.5 -51t49 -41.5q15 0 41 31.5t50 69.5t52.5 69.5t46.5 31.5q15 0 34 -9.5t18 -22.5q-1 -17 -30.5 -71.5t-71 -123t-46.5 -78.5q-1 -8 23.5 -54.5t54 -105.5t50.5 -151t13 -180q-12 -134 -58.5 -257t-133.5 -198q-48 -42 -99.5 -54t-127.5 -12q-91 0 -143 59.5t-44 151.5z
M514 809q0 1 0.5 14.5t0 22t-1.5 20.5t-3.5 19.5t-7.5 9.5q-37 0 -139 -73.5t-123 -110.5q-25 -49 -31 -97q-3 -50 19 -86t69 -36q51 0 92.5 33t66.5 84t39.5 102t18.5 98z" />
    <glyph glyph-name="ntilde" unicode="&#xf1;" horiz-adv-x="860" 
d="M399 1227q0 68 50 121t118 53q43 0 117.5 -45t112.5 -45q28 0 59 20.5t55 41t37 20.5q8 0 13.5 -9.5t5.5 -19.5q0 -66 -68.5 -112t-132.5 -46q-44 0 -107 37t-90 37q-32 0 -67.5 -19t-60 -38t-29.5 -19q-13 0 -13 23zM592 123q-25 0 -41.5 16t-24 42t-10 48t-2.5 45
q0 91 32 212.5t63.5 230.5t31.5 170q0 88 -39 88q-33 0 -76.5 -74t-87 -179.5t-88 -210.5t-93 -179t-89.5 -74q-30 0 -51 32.5t-29.5 81.5t-12 85.5t-3.5 66.5q0 43 8 123t24 180t49 171t76 71q70 0 70 -141q0 -62 -16.5 -179.5t-18.5 -142.5q89 217 146 318
q122 215 225 215q54 0 94.5 -50t57 -109.5t16.5 -111.5q0 -63 -20.5 -138.5t-45 -133.5t-45 -123t-20.5 -108q0 -2 -0.5 -9t-0.5 -12.5t1 -11.5t4 -9.5t8 -3.5q9 0 79 109.5t146 219.5t99 110q10 0 18 -4v-13q0 -75 -74 -223t-179.5 -271.5t-180.5 -123.5z" />
    <glyph glyph-name="ograve" unicode="&#xf2;" horiz-adv-x="757" 
d="M518 1417q4 45 35 45q39 0 112.5 -108t86.5 -160q-3 -10 -16.5 -22.5t-22.5 -12.5q-24 0 -85 58.5t-87 93.5q-12 19 -19 51.5t-4 54.5zM256 164q-97 0 -160 93.5t-63 238.5q0 114 41 210.5t116 157.5v15q0 80 69 153.5t144 73.5q92 0 162 -116.5t70 -268.5q0 -53 -4 -80
q51 13 122.5 52t120.5 79q10 -3 17.5 -15t7.5 -26q0 -58 -101.5 -132t-195.5 -85q-46 -151 -140 -250.5t-206 -99.5zM510 664q2 16 2 47q0 97 -34.5 171t-78.5 74q-27 0 -51 -25.5t-24 -53.5q0 -44 58.5 -109.5t127.5 -103.5zM487 530q-125 50 -217 166q-27 -35 -47 -99.5
t-20 -121.5q0 -73 32.5 -130.5t73.5 -57.5q56 0 103 69t75 174z" />
    <glyph glyph-name="oacute" unicode="&#xf3;" horiz-adv-x="757" 
d="M504 1202q5 43 87 145.5t122 102.5q16 0 33 -10.5t16 -26.5q-2 -28 -108.5 -138t-133.5 -110l-10 6q-6 15 -6 31zM256 164q-97 0 -160 93.5t-63 238.5q0 114 41 210.5t116 157.5v15q0 80 69 153.5t144 73.5q92 0 162 -116.5t70 -268.5q0 -53 -4 -80q51 13 122.5 52
t120.5 79q10 -3 17.5 -15t7.5 -26q0 -58 -101.5 -132t-195.5 -85q-46 -151 -140 -250.5t-206 -99.5zM510 664q2 16 2 47q0 97 -34.5 171t-78.5 74q-27 0 -51 -25.5t-24 -53.5q0 -44 58.5 -109.5t127.5 -103.5zM487 530q-125 50 -217 166q-27 -35 -47 -99.5t-20 -121.5
q0 -73 32.5 -130.5t73.5 -57.5q56 0 103 69t75 174z" />
    <glyph glyph-name="ocircumflex" unicode="&#xf4;" horiz-adv-x="757" 
d="M467 1167q-16 16 -16 41q15 42 97.5 158.5t108.5 116.5q9 0 21 -8q30 0 47 -17q11 -12 53 -136.5t41 -141.5v-2l-4 -9q-9 -12 -24 -12q-30 0 -57.5 39t-51 91t-35.5 65q-19 -13 -52.5 -60.5t-67 -86t-60.5 -38.5zM256 164q-97 0 -160 93.5t-63 238.5q0 114 41 210.5
t116 157.5v15q0 80 69 153.5t144 73.5q92 0 162 -116.5t70 -268.5q0 -53 -4 -80q51 13 122.5 52t120.5 79q10 -3 17.5 -15t7.5 -26q0 -58 -101.5 -132t-195.5 -85q-46 -151 -140 -250.5t-206 -99.5zM510 664q2 16 2 47q0 97 -34.5 171t-78.5 74q-27 0 -51 -25.5t-24 -53.5
q0 -44 58.5 -109.5t127.5 -103.5zM487 530q-125 50 -217 166q-27 -35 -47 -99.5t-20 -121.5q0 -73 32.5 -130.5t73.5 -57.5q56 0 103 69t75 174z" />
    <glyph glyph-name="otilde" unicode="&#xf5;" horiz-adv-x="757" 
d="M348 1227q0 68 50 121t118 53q43 0 117 -45t112 -45q28 0 59 20.5t55.5 41t37.5 20.5q8 0 13 -9.5t5 -19.5q0 -66 -68 -112t-132 -46q-44 0 -107 37t-90 37q-32 0 -67.5 -19t-60.5 -38t-30 -19q-12 0 -12 23zM256 164q-97 0 -160 93.5t-63 238.5q0 114 41 210.5
t116 157.5v15q0 80 69 153.5t144 73.5q92 0 162 -116.5t70 -268.5q0 -53 -4 -80q51 13 122.5 52t120.5 79q10 -3 17.5 -15t7.5 -26q0 -58 -101.5 -132t-195.5 -85q-46 -151 -140 -250.5t-206 -99.5zM510 664q2 16 2 47q0 97 -34.5 171t-78.5 74q-27 0 -51 -25.5t-24 -53.5
q0 -44 58.5 -109.5t127.5 -103.5zM487 530q-125 50 -217 166q-27 -35 -47 -99.5t-20 -121.5q0 -73 32.5 -130.5t73.5 -57.5q56 0 103 69t75 174z" />
    <glyph glyph-name="odieresis" unicode="&#xf6;" horiz-adv-x="757" 
d="M754 1399q31 0 63 -36t29 -67q-3 -36 -30.5 -63t-63.5 -27q-37 0 -56 29.5t-16 67.5q8 96 74 96zM418 1317q4 43 21 53t63 10q25 0 36.5 -19t8.5 -44q-2 -23 -27 -56.5t-47 -33.5q-29 0 -43 28.5t-12 61.5zM256 164q-97 0 -160 93.5t-63 238.5q0 114 41 210.5t116 157.5
v15q0 80 69 153.5t144 73.5q92 0 162 -116.5t70 -268.5q0 -53 -4 -80q51 13 122.5 52t120.5 79q10 -3 17.5 -15t7.5 -26q0 -58 -101.5 -132t-195.5 -85q-46 -151 -140 -250.5t-206 -99.5zM510 664q2 16 2 47q0 97 -34.5 171t-78.5 74q-27 0 -51 -25.5t-24 -53.5
q0 -44 58.5 -109.5t127.5 -103.5zM487 530q-125 50 -217 166q-27 -35 -47 -99.5t-20 -121.5q0 -73 32.5 -130.5t73.5 -57.5q56 0 103 69t75 174z" />
    <glyph glyph-name="divide" unicode="&#xf7;" horiz-adv-x="946" 
d="M567 774q-37 0 -57.5 18.5t-17.5 53.5q4 48 29.5 89.5t70.5 41.5q46 0 67.5 -34.5t18.5 -82.5q-3 -32 -40.5 -59t-70.5 -27zM190 582q3 52 56 73q54 21 565 21q92 0 90 -23q-5 -44 -59 -65q-51 -21 -244 -33t-311 -12q-101 0 -97 39zM465 250q-50 0 -64.5 20t-9.5 72
q2 33 22.5 71t49.5 38q55 0 85.5 -27.5t26.5 -81.5q-3 -26 -43 -59t-67 -33z" />
    <glyph glyph-name="oslash" unicode="&#xf8;" horiz-adv-x="757" 
d="M256 164q-83 -191 -98 -191q-20 0 -29.5 8t-9.5 29q0 29 55 174q-65 34 -103 117t-38 195q0 114 41 210.5t116 157.5v15q0 80 69 153.5t144 73.5q55 0 113 -51q13 35 25 59q44 119 98 119q18 0 27.5 -11.5t9.5 -25.5t-9 -41.5t-19 -50.5t-23.5 -52.5t-16.5 -35.5
q-3 -7 -7.5 -19.5t-8.5 -22.5t-8 -18q51 -102 51 -235q0 -53 -4 -80q51 13 122.5 52t120.5 79q10 -3 17.5 -15t7.5 -26q0 -58 -101.5 -132t-195.5 -85q-46 -151 -140 -250.5t-206 -99.5zM395 756q61 151 64 159q-27 41 -60 41q-27 0 -51 -25.5t-24 -53.5q0 -53 71 -121z
M469 688q8 -5 22 -13t19 -11q2 16 2 47q0 47 -4 67q-7 -17 -20.5 -48t-18.5 -42zM236 344q37 98 108 279q-54 46 -74 73q-27 -35 -47 -99.5t-20 -121.5q0 -73 33 -131zM305 287q36 0 68 26t54.5 66.5t36.5 77.5t23 73q-15 5 -67 37q-18 -43 -54 -131.5t-55 -134.5z" />
    <glyph glyph-name="ugrave" unicode="&#xf9;" horiz-adv-x="901" 
d="M590 1417q4 45 35 45q39 0 112 -108t86 -160q-3 -10 -16.5 -22.5t-22.5 -12.5q-24 0 -85 58.5t-87 93.5q-12 18 -18.5 51t-3.5 55zM219 330q-162 0 -162 243q0 60 13 132.5t37.5 144.5t69 120t99.5 48q30 0 42.5 -26.5t5.5 -51.5q-12 -38 -35 -106.5t-35 -106.5
t-22.5 -89.5t-10.5 -94.5q0 -40 8.5 -55t30.5 -15q43 0 89 50t85 121t75.5 142.5t70.5 121.5t59 50q52 0 81.5 -28t29.5 -72q0 -87 -38 -264t-38 -270q0 -37 20 -37q22 0 61 48.5t82.5 117.5t86.5 138.5t82.5 118t62.5 48.5t23 -29q0 -56 -100 -229t-156 -240
q-101 -117 -197 -117q-74 0 -108.5 54.5t-34.5 134.5q0 40 8 95t24.5 139.5t18.5 95.5q-19 -58 -49 -113t-70.5 -106t-95.5 -82t-113 -31z" />
    <glyph glyph-name="uacute" unicode="&#xfa;" horiz-adv-x="901" 
d="M575 1202q5 43 87 145.5t122 102.5q16 0 33.5 -10.5t16.5 -26.5q-2 -28 -108.5 -138t-133.5 -110l-10 6q-7 18 -7 31zM219 330q-162 0 -162 243q0 60 13 132.5t37.5 144.5t69 120t99.5 48q30 0 42.5 -26.5t5.5 -51.5q-12 -38 -35 -106.5t-35 -106.5t-22.5 -89.5
t-10.5 -94.5q0 -40 8.5 -55t30.5 -15q43 0 89 50t85 121t75.5 142.5t70.5 121.5t59 50q52 0 81.5 -28t29.5 -72q0 -87 -38 -264t-38 -270q0 -37 20 -37q22 0 61 48.5t82.5 117.5t86.5 138.5t82.5 118t62.5 48.5t23 -29q0 -56 -100 -229t-156 -240q-101 -117 -197 -117
q-74 0 -108.5 54.5t-34.5 134.5q0 40 8 95t24.5 139.5t18.5 95.5q-19 -58 -49 -113t-70.5 -106t-95.5 -82t-113 -31z" />
    <glyph glyph-name="ucircumflex" unicode="&#xfb;" horiz-adv-x="901" 
d="M539 1167q-17 17 -17 41q15 41 98 158t109 117q9 0 21 -8q30 0 47 -17q11 -12 53 -136.5t41 -141.5v-2l-4 -9q-9 -12 -25 -12q-30 0 -57 39t-50.5 91t-35.5 65q-19 -13 -52.5 -60.5t-67 -86t-60.5 -38.5zM219 330q-162 0 -162 243q0 60 13 132.5t37.5 144.5t69 120
t99.5 48q30 0 42.5 -26.5t5.5 -51.5q-12 -38 -35 -106.5t-35 -106.5t-22.5 -89.5t-10.5 -94.5q0 -40 8.5 -55t30.5 -15q43 0 89 50t85 121t75.5 142.5t70.5 121.5t59 50q52 0 81.5 -28t29.5 -72q0 -87 -38 -264t-38 -270q0 -37 20 -37q22 0 61 48.5t82.5 117.5t86.5 138.5
t82.5 118t62.5 48.5t23 -29q0 -56 -100 -229t-156 -240q-101 -117 -197 -117q-74 0 -108.5 54.5t-34.5 134.5q0 40 8 95t24.5 139.5t18.5 95.5q-19 -58 -49 -113t-70.5 -106t-95.5 -82t-113 -31z" />
    <glyph glyph-name="udieresis" unicode="&#xfc;" horiz-adv-x="901" 
d="M825 1399q31 0 63.5 -36t29.5 -67q-3 -36 -31 -63t-64 -27q-37 0 -55.5 29t-15.5 68q4 44 19 70t54 26zM489 1317q4 43 21 53t63 10q25 0 36.5 -19t8.5 -44q-2 -23 -26.5 -56.5t-46.5 -33.5q-29 0 -43.5 28.5t-12.5 61.5zM219 330q-162 0 -162 243q0 60 13 132.5
t37.5 144.5t69 120t99.5 48q30 0 42.5 -26.5t5.5 -51.5q-12 -38 -35 -106.5t-35 -106.5t-22.5 -89.5t-10.5 -94.5q0 -40 8.5 -55t30.5 -15q43 0 89 50t85 121t75.5 142.5t70.5 121.5t59 50q52 0 81.5 -28t29.5 -72q0 -87 -38 -264t-38 -270q0 -37 20 -37q22 0 61 48.5
t82.5 117.5t86.5 138.5t82.5 118t62.5 48.5t23 -29q0 -56 -100 -229t-156 -240q-101 -117 -197 -117q-74 0 -108.5 54.5t-34.5 134.5q0 40 8 95t24.5 139.5t18.5 95.5q-19 -58 -49 -113t-70.5 -106t-95.5 -82t-113 -31z" />
    <glyph glyph-name="yacute" unicode="&#xfd;" horiz-adv-x="901" 
d="M575 1202q5 43 87 145.5t122 102.5q16 0 33.5 -10.5t16.5 -26.5q-2 -28 -108.5 -138t-133.5 -110l-10 6q-7 18 -7 31zM238 -385q-76 0 -122 51.5t-46 128.5q0 330 501 656q13 212 13 297q0 20 -2 30q-27 -52 -70.5 -115.5t-100 -132.5t-120 -115t-115.5 -46
q-48 0 -78 30.5t-39.5 69t-9.5 86.5q0 72 50.5 277t86.5 233q36 29 80 29q32 0 62 -19t30 -51q0 -23 -32 -107t-64.5 -186t-32.5 -168q0 -31 23 -31q28 0 81.5 74t103 162t103 162t81.5 74q139 0 139 -248q0 -33 -15 -203q267 205 304 205q17 0 28 -12t10 -29
q-45 -59 -109.5 -118.5t-114.5 -96t-132 -92.5q-5 -74 -28.5 -173t-68 -208.5t-100.5 -201.5t-134 -152t-162 -60zM248 -262q46 0 93 46.5t83.5 116t67 149t47.5 147.5t20 110q-133 -106 -237.5 -248t-104.5 -243q0 -78 31 -78z" />
    <glyph glyph-name="thorn" unicode="&#xfe;" horiz-adv-x="659" 
d="M39 76q16 132 38.5 395t39.5 395q-38 0 -33 70q4 29 17.5 58t35.5 34q12 88 21 180q1 9 6.5 50.5t10 71t13.5 64t19 50.5q15 22 53 22q76 0 90 -59q8 -16 4 -78.5t-9 -105.5t-13.5 -102.5t-9.5 -67.5l102 -21q106 -21 179 -89.5t61 -172.5q-6 -54 -34.5 -102t-71.5 -83.5
t-90.5 -61t-100.5 -42.5q-4 -1 -58.5 -17t-77.5 -28q-6 -13 -14 -62t-13.5 -92.5t-12.5 -103.5t-7 -63q-5 -28 -32 -53t-54 -25q-39 0 -59 39zM494 764q4 39 -39 82t-82 43q-37 0 -60 -10q-8 -5 -16 -24t-14.5 -49t-10.5 -53.5t-9 -53.5t-5 -33t-0.5 -15t-1 -22.5t0 -22.5
t3.5 -19t8 -7q61 0 140 61.5t86 122.5z" />
    <glyph glyph-name="ydieresis" unicode="&#xff;" horiz-adv-x="901" 
d="M825 1399q31 0 63.5 -36t29.5 -67q-3 -36 -31 -63t-64 -27q-37 0 -55.5 29t-15.5 68q4 44 19 70t54 26zM489 1317q4 43 21 53t63 10q25 0 36.5 -19t8.5 -44q-2 -23 -26.5 -56.5t-46.5 -33.5q-29 0 -43.5 28.5t-12.5 61.5zM238 -385q-76 0 -122 51.5t-46 128.5
q0 330 501 656q13 212 13 297q0 20 -2 30q-27 -52 -70.5 -115.5t-100 -132.5t-120 -115t-115.5 -46q-48 0 -78 30.5t-39.5 69t-9.5 86.5q0 72 50.5 277t86.5 233q36 29 80 29q32 0 62 -19t30 -51q0 -23 -32 -107t-64.5 -186t-32.5 -168q0 -31 23 -31q28 0 81.5 74t103 162
t103 162t81.5 74q139 0 139 -248q0 -33 -15 -203q267 205 304 205q17 0 28 -12t10 -29q-45 -59 -109.5 -118.5t-114.5 -96t-132 -92.5q-5 -74 -28.5 -173t-68 -208.5t-100.5 -201.5t-134 -152t-162 -60zM248 -262q46 0 93 46.5t83.5 116t67 149t47.5 147.5t20 110
q-133 -106 -237.5 -248t-104.5 -243q0 -78 31 -78z" />
    <glyph glyph-name="Dcroat" unicode="&#x110;" horiz-adv-x="1333" 
d="M174 682q-22 0 -42 4t-37 18t-15 37q5 55 131 70q12 92 39.5 240t68 330t91.5 309t96 127h8l14 2q31 0 41.5 -16.5t10.5 -49.5q0 -8 -11 -88q-19 -107 -80.5 -363.5t-80.5 -398.5q21 69 53 153t80 194t107 210t124 186t141 137.5t150 51.5q62 0 108.5 -35.5t71.5 -86.5
t40.5 -120.5t19.5 -124t4 -110.5q0 -136 -35 -322q73 43 114 43q18 0 31 -10.5t13 -28.5q0 -12 -20.5 -27t-72 -46t-88.5 -56q-11 -45 -20 -92q-13 -69 -40 -153.5t-66.5 -177.5t-88 -184t-108 -173.5t-122.5 -145.5t-136 -100t-144 -37q-83 0 -131.5 50t-48.5 135
q0 96 66.5 217.5t179 245t221.5 224.5t233 202q30 122 46 283t16 304q0 22 -2.5 51t-9.5 66.5t-22.5 62.5t-37.5 25q-54 0 -143 -111t-174.5 -264.5t-150.5 -284t-93 -200.5l-10 -27q-1 -2 -3 -7t-3 -7q171 -5 186 -20q10 -10 10 -27q0 -52 -245 -74q-39 -102 -64 -213
q-1 -5 -6 -33.5t-10 -45.5t-14 -40.5t-23 -35t-33 -11.5q-72 0 -72 168q0 76 11 201h-23zM561 -8q62 0 123 55t108.5 137.5t92 194.5t74.5 209t55 198q-543 -439 -543 -690q0 -104 90 -104z" />
    <glyph glyph-name="dcroat" unicode="&#x111;" horiz-adv-x="1024" 
d="M238 389q-66 0 -114 72.5t-48 173.5q0 100 53.5 207t132 176t146.5 69q83 0 153 -65q12 116 47 235q-41 0 -76 5q-31 4 -26 71q1 13 11 23.5t22 13.5q25 7 110 10q87 234 217 400t230 166q66 0 112.5 -59t46.5 -142q0 -110 -83.5 -281.5t-211 -332t-247.5 -238.5
q-15 -147 -15 -279q0 -144 27 -193q20 -33 51 -34q32 0 73.5 38t80.5 92.5t78 109.5t77 93t66 38q14 0 18 -2q2 -6 2 -13q0 -79 -84 -204t-194 -219.5t-178 -94.5q-189 0 -189 361q0 104 6 157q-6 -11 -28 -53t-35.5 -66t-37.5 -65t-44.5 -66t-46 -51.5t-51.5 -39.5t-51 -13
zM852 1376q73 -3 121 -10q9 -2 17.5 -10t8.5 -17q134 213 134 371q0 72 -29 72q-37 0 -108.5 -117.5t-143.5 -288.5zM723 1004q143 135 258 307q-41 -33 -174 -47q-61 -156 -84 -260zM262 635q0 -36 10 -65t23 -29q32 20 122.5 170t90.5 182q0 17 -26 44.5t-48 27.5
q-36 0 -77 -55.5t-68 -133.5t-27 -141z" />
    <glyph glyph-name="dotlessi" unicode="&#x131;" horiz-adv-x="409" 
d="M209 287q-41 0 -70 28.5t-42.5 74.5t-19 86t-5.5 79q0 91 21 191t63 174.5t92 74.5q40 0 60 -14t20 -51q0 -28 -15.5 -70.5t-34 -84.5t-34 -117t-15.5 -160q0 -68 33 -68q16 0 45 34t62 82t67 96t67 82t54 34q25 0 25 -31q0 -37 -41 -111.5t-98 -147t-123.5 -127
t-110.5 -54.5z" />
    <glyph glyph-name="Lslash" unicode="&#x141;" horiz-adv-x="1130" 
d="M436 -59l-10 -17q-45 -64 -130 -116t-157 -52q-67 0 -120.5 51.5t-53.5 116.5q0 54 36.5 96.5t92 65.5t111.5 34t106 11q55 180 92 436q-87 -24 -170 -39q-27 -6 -52 5.5t-25 41.5q0 6 2 11.5t4.5 9t8 7.5t9 6t11 5t10 3.5t10 3t8.5 2.5q111 32 203 71q9 61 14 125
q33 280 45 346q-12 -2 -32 -6q-19 -3 -41 -4.5t-41 9.5t-21 34q-4 38 43 64.5t121 44.5q17 70 39.5 136.5t58.5 140t78 127t101 89t124 35.5q71 0 127 -38.5t88 -99t48 -127.5t16 -132q0 -144 -44 -269t-124 -222t-180 -170.5t-224 -129.5q-55 -385 -114 -561
q40 -17 111 -55.5t124.5 -59t104.5 -20.5q64 0 129 25t103 52t86.5 67t60.5 48q23 17 37 17q20 0 20 -29q0 -28 -17.5 -62t-33 -52.5t-43.5 -49.5q-148 -168 -367 -168q-79 0 -143 22t-136.5 64.5t-103.5 55.5zM639 797q397 227 397 598q0 29 -7.5 75t-21 97.5t-39.5 88
t-57 36.5q-98 0 -184 -346q145 22 162 10q9 -4 14 -25q11 -47 -203 -110q-4 -19 -61 -424zM92 -88q0 -18 16 -27.5t29 -9.5q59 0 113 96q-158 -11 -158 -59z" />
    <glyph glyph-name="lslash" unicode="&#x142;" horiz-adv-x="696" 
d="M246 23q-97 0 -148 110.5t-51 319.5q0 317 115 690q-62 -15 -78 -15q-54 0 -61 41q-5 39 40 68q19 14 150 51q59 152 126 265.5t148.5 184t161.5 70.5q69 0 111.5 -65.5t42.5 -173.5q0 -146 -71.5 -310t-195 -303t-266.5 -211q-21 -52 -33 -175.5t-12 -233.5
q0 -68 20 -109t54 -41q44 0 108.5 59t129 143t125.5 168t111 143t73 59q21 0 37 -41q-5 -43 -75.5 -155.5t-165.5 -233t-207 -213t-189 -92.5zM440 1348q161 39 178 26q41 115 41 209q0 82 -26 82q-28 0 -82 -91t-111 -226zM305 909q81 63 154.5 163.5t124.5 213.5
q-54 -30 -197 -78q-71 -200 -82 -299z" />
    <glyph glyph-name="OE" unicode="&#x152;" horiz-adv-x="2170" 
d="M764 1798q137 -3 231 -61l47 18q71 23 107 23q33 0 54.5 -15.5t21.5 -40.5q0 -43 -84 -67q-18 -5 -41 -15q72 -99 102 -268q18 113 81.5 206t150 149t179.5 86t179 30q151 0 253.5 -100.5t102.5 -253.5q0 -135 -81.5 -232.5t-194.5 -97.5q-60 0 -98.5 29.5t-38.5 73.5
q0 73 98 73q72 0 118 41.5t46 106.5q0 87 -62.5 154t-150.5 67q-59 0 -123.5 -27t-121.5 -75t-93.5 -125t-36.5 -166q0 -72 25 -142t62 -121.5t81 -100t81 -81t62 -60t25 -42.5q0 -27 -14.5 -45.5t-40 -27.5t-47.5 -13.5t-51.5 -7.5t-35.5 -4q-174 -29 -298.5 -162
t-124.5 -314q0 -120 76 -210.5t175 -90.5q69 0 147 34t150 90t146.5 129t137.5 148.5t121 150.5t99.5 133.5t70.5 99.5t36 47q16 16 35 16q28 0 28 -41q0 -9 -16 -40t-38.5 -68.5t-25.5 -44.5q-45 -77 -88 -143.5t-103 -148.5t-119 -147.5t-133.5 -130.5t-149 -108.5
t-162.5 -70.5t-177 -27q-141 0 -253 86.5t-152 220.5q-196 -274 -440 -271q-177 3 -283.5 151t-101.5 384q3 231 112 504q-76 146 -73 325q2 180 82.5 325.5t220 227t309.5 78.5zM311 1028q107 203 250 371.5t299 267.5q-31 8 -76 8q-88 1 -177 -38t-158 -105.5
t-112.5 -161.5t-43.5 -199q0 -67 18 -143zM408 817q159 -217 489 -225q66 0 121 8q86 302 86 588v37q0 243 -103 358q-195 -139 -347 -337.5t-246 -428.5zM1487 803q-204 149 -264 321q0 -237 -45 -458q137 96 309 137zM354 670q-54 -176 -57 -365q-2 -163 61.5 -270.5
t163.5 -110.5q119 -3 240.5 147.5t210.5 393.5q-16 -2 -49 -2q-171 1 -318.5 55t-251.5 152z" />
    <glyph glyph-name="oe" unicode="&#x153;" horiz-adv-x="1003" 
d="M731 313q-98 0 -166 105q-55 -114 -136 -184t-173 -70q-97 0 -160 93.5t-63 238.5q0 114 41 210.5t116 157.5v15q0 80 69 153.5t144 73.5q66 0 124.5 -66t86.5 -168q95 152 244 152q61 0 93 -32.5t32 -92.5q0 -75 -48 -157t-118 -128q-51 -42 -110 -69q5 -46 27 -80.5
t61 -34.5q32 0 73.5 26.5t78 64t75.5 86.5t63.5 84.5t44.5 66.5q22 0 39 -21q2 -6 2 -16q0 -60 -40.5 -132t-102.5 -133t-143 -102t-154 -41zM510 664q2 16 2 47q0 97 -34.5 171t-78.5 74q-27 0 -51 -25.5t-24 -53.5q0 -44 58.5 -109.5t127.5 -103.5zM881 877q0 45 -23 45
q-42 0 -85.5 -88t-57.5 -160q22 11 88 47q32 38 55 84.5t23 71.5zM487 530q-125 50 -217 166q-27 -35 -47 -99.5t-20 -121.5q0 -73 32.5 -130.5t73.5 -57.5q56 0 103 69t75 174z" />
    <glyph glyph-name="Scaron" unicode="&#x160;" horiz-adv-x="1150" 
d="M934 2050q-38 0 -77 99.5t-34 150.5q5 67 49 67q27 0 65 -80t50 -128q15 20 50 79.5t68.5 101t70.5 58.5q9 0 14 -4t4 -12q-1 -25 -80 -156t-102 -151q-35 -25 -78 -25zM555 735q-64 50 -102 82.5t-89.5 85.5t-80 98t-49.5 105t-21 123q0 120 54.5 223t144 171t203.5 106
t233 38q136 0 229.5 -72.5t93.5 -205.5q0 -87 -34.5 -154t-90.5 -105.5t-120.5 -57.5t-132.5 -19q-40 0 -58 11.5t-18 49.5q0 26 33 44.5t79.5 33t93.5 34t80 58t33 93.5q0 68 -46 112.5t-146 44.5q-94 0 -193.5 -55.5t-166 -147t-66.5 -186.5q0 -36 10 -71.5t22.5 -62.5
t40.5 -60t46.5 -52.5t60 -53t60.5 -47.5t67 -50q178 110 340.5 186t202.5 76q26 0 26 -20q0 -16 -21.5 -39t-72 -58.5t-94.5 -63.5t-130.5 -81t-137.5 -86q109 -89 169 -181.5t60 -213.5q0 -155 -98 -301.5t-254 -236t-318 -89.5t-265 90t-103 229q0 85 42.5 176.5
t118.5 178.5t165.5 165t199.5 156zM860 338q0 84 -50.5 157t-143.5 152q-482 -339 -482 -610q0 -78 40.5 -115t129.5 -37q128 0 246.5 66.5t189 171.5t70.5 215z" />
    <glyph glyph-name="scaron" unicode="&#x161;" horiz-adv-x="737" 
d="M551 1149q-38 0 -77 99.5t-34 150.5q5 67 49 67q27 0 65 -80.5t50 -128.5q16 21 50.5 80t68 101t70.5 59q9 0 14 -4t4 -12q-1 -25 -80 -156t-102 -151q-35 -25 -78 -25zM295 455q-47 26 -78 47.5t-64.5 55.5t-50 79t-16.5 102q0 156 100 265.5t254 109.5
q106 0 161.5 -55.5t55.5 -161.5q0 -53 -32.5 -104.5t-83.5 -51.5q-20 0 -31.5 13t-11.5 34q0 24 12 69t12 69q0 42 -22 64t-58 22q-68 0 -127 -88t-59 -160q0 -25 9.5 -47t33 -43.5t41 -34.5t57 -38.5t56.5 -37.5q115 72 227 125.5t172 67.5q15 3 24.5 -10t6.5 -29
q-24 -21 -66 -49.5t-78 -50.5t-101 -61t-99 -60q106 -99 106 -246q0 -81 -57.5 -161t-147.5 -130.5t-180 -50.5t-150.5 59.5t-60.5 149.5q0 150 246 338zM195 147q0 -41 29.5 -70.5t74.5 -29.5q68 0 135.5 67t67.5 126q0 52 -28 88.5t-81 70.5q-198 -144 -198 -252z" />
    <glyph glyph-name="Ydieresis" unicode="&#x178;" horiz-adv-x="1415" 
d="M1257 2300q31 0 63.5 -35.5t29.5 -66.5q-3 -36 -31 -63.5t-64 -27.5q-37 0 -55.5 29t-15.5 68q4 44 19 70t54 26zM922 2218q4 43 21 53t63 10q25 0 36.5 -19t8.5 -44q-2 -23 -27 -56.5t-47 -33.5q-29 0 -43 28.5t-12 61.5zM238 -25q3 106 81 230t200.5 236.5t262.5 210
t281 169.5q22 103 31 160q3 17 13.5 78t14.5 84.5t11.5 76t10.5 84.5t6 75.5t3 82.5v33q-28 -42 -79 -132.5t-94.5 -168t-106.5 -169.5t-122 -156.5t-132.5 -108t-145.5 -43.5q-48 0 -83.5 19t-55 47.5t-31.5 71t-15 79.5t-3 82q0 92 54.5 266.5t136 320.5t145.5 146
q47 0 81 -28t15 -72q-19 -45 -57.5 -128.5t-62 -137.5t-49.5 -125t-39 -137.5t-13 -129.5q0 -51 9.5 -72.5t31.5 -21.5q29 0 71 35t92 99t97.5 132t101.5 157t90 149t77.5 133t49.5 86q21 35 47.5 48t69.5 13q24 0 44.5 -6t35 -15t26 -26t18.5 -30.5t12 -37.5t7.5 -39t4 -42
t1.5 -40v-40q0 -229 -61 -547q52 14 96 14q53 0 53 -39q0 -46 -51 -59q-49 -14 -125 -41q-67 -305 -155 -482q-37 -72 -82 -146t-111 -159t-133.5 -149t-149.5 -107t-159 -43q-117 0 -193 72.5t-73 187.5zM1028 674q-79 -47 -157 -99.5t-167 -125t-155.5 -143t-111.5 -151
t-46 -151.5q0 -28 5.5 -62t24 -67t46.5 -33q33 0 79 24.5t83 53.5q92 74 172 202.5t132.5 262t94.5 289.5z" />
    <glyph glyph-name="Zcaron" unicode="&#x17d;" horiz-adv-x="1357" 
d="M1036 2050q-38 0 -76.5 99.5t-33.5 150.5q5 67 49 67q27 0 65 -80t50 -128q16 21 50 80t67.5 100.5t70.5 58.5q9 0 14 -4t4 -12q-1 -25 -80 -156t-102 -151q-35 -25 -78 -25zM1219 1569q-25 0 -167 10t-233 10q-350 0 -350 -125q0 -29 30 -43t70 -14q43 0 43 -35
q0 -32 -32.5 -54t-79.5 -22q-69 0 -115.5 40t-46.5 116q0 46 14 83t37 63.5t59.5 47t73 32.5t87.5 20.5t93.5 11.5t99.5 4.5t97 0.5t95 -2t85 -1h246q27 0 47.5 -3t41.5 -11.5t32.5 -27t11.5 -46.5q0 -97 -140.5 -342.5t-328 -506t-374.5 -491t-281 -313.5q51 -28 213 -28
q151 0 315 26.5t250 71.5q29 15 61.5 40t54 40.5t32.5 15.5q20 0 20 -55q0 -69 -40 -122t-104.5 -85.5t-154.5 -53t-180 -28.5t-191 -8q-262 0 -440 39q-78 19 -78 110l38 46q39 47 104.5 126.5t150 184.5t177.5 225.5t186.5 245.5t178 248.5t150 229.5t104 193t38.5 136z
" />
    <glyph glyph-name="zcaron" unicode="&#x17e;" horiz-adv-x="819" 
d="M592 1149q-38 0 -77 99.5t-34 150.5q5 67 49 67q27 0 65 -80.5t50 -128.5q16 21 50.5 80t68 101t70.5 59q9 0 14 -4t4 -12q-1 -25 -80 -156t-102 -151q-35 -25 -78 -25zM125 737q0 82 73 167.5t173 138.5t180 53q57 0 94 -37t37 -94q0 -54 -17.5 -99.5t-46 -78t-58 -60
t-58.5 -58t-43 -59.5q28 4 45 4q44 0 75 -25t64 -71q19 15 94 77.5t130.5 103t99.5 59.5q39 5 39 -21q0 -34 -134.5 -165.5t-189.5 -168.5q4 -32 4 -47q0 -74 -16.5 -157.5t-52.5 -168t-85 -152.5t-120.5 -111t-153.5 -43q-70 0 -108.5 45.5t-38.5 117.5q0 51 14.5 101
t34.5 90t58 84.5t67 73.5t79.5 69.5t78.5 61t81 57.5q-2 3 -8 17.5t-8.5 20t-9 17.5t-12 17.5t-13.5 12.5t-18 10t-21 3q-28 0 -64 -20.5t-38 -20.5q-24 0 -43 22t-19 46q0 31 34.5 86t76 105.5t78 103.5t39.5 80l-2 8q-15 6 -33 6q-49 0 -95.5 -25t-79 -60.5t-58.5 -71
t-43 -60.5t-23 -25q-17 0 -28 12t-11 29zM555 307q-12 -9 -50 -38.5t-53.5 -42t-48.5 -41t-48.5 -46.5t-38 -48t-33 -56t-19 -59t-8.5 -68q0 -62 35 -62q64 0 117.5 51.5t84 126.5t47 150t15.5 133z" />
    <glyph glyph-name="florin" unicode="&#x192;" horiz-adv-x="444" 
d="M-281 -440q-42 0 -68 21t-26 61q0 47 94 47q32 0 63 24.5t58.5 70t52 100t47.5 125t41.5 134.5t36 139.5t29 128t24 111.5t17.5 80q7 31 31.5 110.5t32.5 118.5q0 5 -7 9q-23 -4 -50 -5t-66.5 0t-51.5 1q-22 0 -22 32q0 38 40.5 51t103 12.5t79.5 4.5q10 26 31.5 91.5
t38 112.5t46.5 108.5t60.5 100.5t76.5 67t99 28q102 0 167 -89t65 -194q0 -41 -27 -65.5t-69 -24.5q-27 0 -37.5 28t-10.5 67.5t-3 79t-23.5 67.5t-63.5 28q-21 0 -44.5 -32.5t-45 -85t-38.5 -102t-33 -101t-21 -64.5q10 -5 27 -6t40.5 0.5t28.5 1.5q39 0 56.5 -11.5
t17.5 -47.5q0 -33 -192 -33q-19 -52 -54 -186t-69 -269t-86.5 -292t-107.5 -275.5t-131 -198t-157 -79.5z" />
    <glyph glyph-name="circumflex" unicode="&#x2c6;" horiz-adv-x="571" 
d="M410 1167q-17 17 -17 41q15 41 98 158t109 117q9 0 21 -8q30 0 47 -17q11 -12 53 -136.5t41 -141.5v-2l-4 -9q-9 -12 -25 -12q-30 0 -57 39t-50.5 91t-35.5 65q-19 -13 -52.5 -60.5t-67 -86t-60.5 -38.5z" />
    <glyph glyph-name="caron" unicode="&#x2c7;" horiz-adv-x="643" 
d="M541 1149q-38 0 -77 99.5t-34 150.5q5 67 49 67q27 0 65 -80.5t50 -128.5q16 21 50 80t67.5 101t70.5 59q9 0 14.5 -4t4.5 -12q-1 -25 -80.5 -156t-102.5 -151q-35 -25 -77 -25z" />
    <glyph glyph-name="breve" unicode="&#x2d8;" horiz-adv-x="643" 
d="M385 1352q3 39 23 63.5t57 24.5q23 0 35 -25.5t15.5 -55.5t15.5 -55.5t34 -25.5q28 0 57.5 35t49.5 77.5t42.5 77.5t39.5 35q23 0 36 -16t11 -39q-8 -101 -85.5 -195t-174.5 -94q-61 0 -111.5 65.5t-44.5 127.5z" />
    <glyph glyph-name="dotaccent" unicode="&#x2d9;" horiz-adv-x="374" 
d="M336 1292q3 38 25 61t61 23q41 0 72 -26.5t28 -65.5q-3 -30 -33 -48.5t-61 -18.5q-36 0 -65.5 20.5t-26.5 54.5z" />
    <glyph glyph-name="ring" unicode="&#x2da;" horiz-adv-x="442" 
d="M338 1270q7 72 54.5 135t115.5 63q51 0 81 -37.5t25 -89.5q-6 -68 -64.5 -123t-125.5 -55q-45 0 -67 30t-19 77zM535 1362q4 24 -11 33q-22 0 -61 -49.5t-41 -73.5q-4 -23 16 -23q36 0 65 37.5t32 75.5z" />
    <glyph glyph-name="ogonek" unicode="&#x2db;" horiz-adv-x="450" 
d="M119 -100q4 58 55 150.5t102 92.5q24 0 39.5 -9t14.5 -32q-2 -24 -28 -55t-52 -69t-29 -78q-5 -45 21 -45q20 0 52 17t52 17q11 0 17.5 -4t5.5 -14q-3 -34 -62.5 -66t-97.5 -32q-49 0 -72 38t-18 89z" />
    <glyph glyph-name="tilde" unicode="&#x2dc;" horiz-adv-x="724" 
d="M315 1227q0 68 50 121t118 53q43 0 117.5 -45t112.5 -45q28 0 59 20.5t55 41t37 20.5q8 0 13.5 -9.5t5.5 -19.5q0 -66 -68.5 -112t-132.5 -46q-44 0 -107 37t-90 37q-32 0 -67.5 -19t-60 -38t-29.5 -19q-13 0 -13 23z" />
    <glyph glyph-name="hungarumlaut" unicode="&#x2dd;" horiz-adv-x="503" 
d="M305 1202q5 43 87 145.5t122 102.5q16 0 33 -10.5t16 -26.5q-2 -28 -108 -138t-133 -110l-11 6q-6 15 -6 31zM510 1206q3 38 54.5 119t84.5 92q2 21 58 21q25 -11 22 -45q-3 -39 -85.5 -126t-119.5 -87q-12 0 -14.5 8t0.5 18z" />
    <glyph glyph-name="uni03BC" unicode="&#x3bc;" horiz-adv-x="1208" 
d="M20 -236q-11 0 -19.5 11t-8.5 24q3 27 22 62q23 45 77.5 127t76.5 123q82 158 147 329q145 442 166 461q11 8 25 8q39 0 61.5 -38.5t30 -93.5t10.5 -110t9.5 -93.5t21.5 -38.5q12 0 43.5 52.5t74.5 128t92.5 151t107.5 128t108 52.5q89 0 76 -136q-4 -56 -37 -154.5
t-81 -221.5t-60 -160q-11 -33 -33.5 -112.5t-43.5 -142.5t-44 -104q-24 -43 -47 -43q-57 0 -43 142q18 210 135 495q41 104 45 158q-27 -19 -63 -68t-69.5 -103t-68 -106t-71 -86t-66.5 -34q-22 0 -39.5 43.5t-32.5 96t-28 64.5q-6 -2 -39.5 -87t-83.5 -203.5t-107.5 -237
t-123.5 -201t-120 -82.5z" />
    <glyph glyph-name="endash" unicode="&#x2013;" horiz-adv-x="1024" 
d="M332 580q-22 0 -42 4t-37 18t-15 37q5 38 55 57q43 17 334 17q224 0 239 -17q14 -18 11 -39q-2 -23 -74.5 -39.5t-175 -24t-177.5 -10.5t-118 -3z" />
    <glyph glyph-name="emdash" unicode="&#x2014;" horiz-adv-x="1339" 
d="M332 580q-22 0 -42 4t-37 18t-15 37q5 39 55 57q20 8 312 12.5t431 4.5q193 0 221 -17q9 -6 14.5 -17t4.5 -20q-1 -11 -31 -20.5t-74 -15.5t-73 -9t-49 -4q-360 -30 -717 -30z" />
    <glyph glyph-name="quoteleft" unicode="&#x2018;" horiz-adv-x="323" 
d="M119 1335q5 28 21 67t44 73t56 32q64 -4 57 -47q-5 -36 -41.5 -96.5t-42.5 -93.5q-4 -25 6 -45t24 -29.5t25.5 -20.5t10.5 -20q-3 -12 -19.5 -18.5t-30.5 -6.5q-51 4 -80 37t-32 77t2 91z" />
    <glyph glyph-name="quoteright" unicode="&#x2019;" horiz-adv-x="358" 
d="M133 1116q1 6 6 13t13 14t10 10q30 46 43 133q4 23 2.5 67t1.5 68q3 22 23 37t42 12q38 -5 53 -51.5t9 -89.5q-4 -32 -29.5 -88.5t-65 -105t-71.5 -43.5q-12 2 -21 7t-12.5 9.5t-3.5 7.5z" />
    <glyph glyph-name="quotesinglbase" unicode="&#x201a;" horiz-adv-x="450" 
d="M129 -106q2 8 12 17.5t13 14.5q34 66 40.5 99t6.5 116q0 64 55 64q30 0 46.5 -34t16.5 -69q0 -34 -25 -87t-64.5 -94.5t-73.5 -41.5q-16 0 -27 15z" />
    <glyph glyph-name="quotedblleft" unicode="&#x201c;" horiz-adv-x="444" 
d="M291 1499q56 -7 51 -53q-4 -26 -26.5 -59.5t-45 -69.5t-26.5 -68q-3 -26 12.5 -46.5t32 -34t14.5 -23.5q-1 -12 -20 -18.5t-31 -4.5q-34 4 -57 21.5t-33 42t-13.5 54.5t1.5 60q5 33 23 79t51 85.5t67 34.5zM430 1452q15 -2 23.5 -5.5t15 -12t4.5 -23.5q-4 -26 -40 -76.5
t-40 -83.5q-3 -19 11 -36t27 -29t11 -21q-16 -19 -41 -16q-53 7 -72 47t-12 96q6 44 41 104t72 56z" />
    <glyph glyph-name="quotedblright" unicode="&#x201d;" horiz-adv-x="448" 
d="M137 1124q3 15 21 43q10 16 20 63t12 73q1 23 -5 65.5t-5 63.5q2 26 19.5 44t42.5 17q40 -3 58.5 -46.5t16.5 -88.5q-2 -36 -23 -93t-58 -105t-74 -46q-15 0 -25 10zM303 1133q4 27 19 36q23 52 26 119q1 22 -4 62.5t-4 60.5q2 21 17.5 35.5t35.5 13.5q35 -1 54.5 -40.5
t17.5 -76.5q-1 -33 -21 -85t-54.5 -95t-67.5 -41q-8 0 -19 11z" />
    <glyph glyph-name="quotedblbase" unicode="&#x201e;" horiz-adv-x="440" 
d="M76 -117q7 26 20 35q27 63 33 123q1 17 -3.5 54.5t-2.5 58.5q2 22 17 37t38 14q35 -3 53.5 -42.5t14.5 -76.5q-3 -34 -24 -84t-56.5 -92t-69.5 -39q-14 0 -20 12zM231 -106q8 27 17 36q23 58 26 111q1 18 0 51t0 49q2 21 14 38t31 16q31 -3 43.5 -41t10.5 -76
q-4 -44 -46 -120.5t-79 -72.5q-8 0 -17 9z" />
    <glyph glyph-name="dagger" unicode="&#x2020;" horiz-adv-x="782" 
d="M342 991q8 88 10 127h-205q-12 0 -17 15t-3 28q0 22 14 43q14 17 35 17q26 0 57 6.5t75 19t57 15.5q10 46 23 160t31.5 207t51.5 145h82q27 0 43.5 -29.5t20 -73.5t3 -78.5t-3.5 -60.5q-3 -38 -14 -109.5t-14 -105.5q0 -28 4 -35h10l23 -4h10q29 0 85 10t85 10
q49 0 49 -20q-3 -28 -70.5 -56.5t-131.5 -43.5t-101 -19q-24 -53 -74 -409t-61 -488q-8 -94 -8 -139q-3 -16 -0.5 -52.5t10.5 -47.5q14 -14 14 -31q-2 -15 -17 -30t-30 -15q-18 0 -53 35q-25 28 -35 120.5t-4 232.5t13.5 247.5t21 251t14.5 157.5z" />
    <glyph glyph-name="daggerdbl" unicode="&#x2021;" horiz-adv-x="878" 
d="M414 330h-29l-61 -6h-29q-54 0 -69 10q-17 11 -15 39q3 33 38.5 46.5t86.5 19.5t67 14q19 28 51 268.5t44 370.5q0 2 0.5 10.5t0.5 14.5t-1 13t-4 11t-9 4q-34 0 -98 -18.5t-98 -18.5q-28 0 -40 9.5t-11 37.5q3 31 62.5 58.5t121.5 41t94 13.5q3 17 14 78t16.5 100.5
t8.5 77.5q1 14 -1 39t-1 39q2 17 9.5 55t8.5 59q18 26 35.5 33.5t50.5 7.5q92 0 75 -257q-1 -8 -1 -11q-4 -32 -16 -106.5t-15 -114.5q19 1 61.5 7.5t65.5 6.5q45 0 43 -18q-3 -25 -26 -35q-15 -8 -54.5 -24t-58.5 -29q-30 -20 -55 -31q-28 -119 -57 -351t-52 -341h62
q31 0 94 14t94 14q27 0 27 -22q-3 -29 -58 -55t-139.5 -49t-89.5 -25q-10 -10 -26.5 -102t-36.5 -177.5t-41 -85.5q-20 0 -34.5 121.5t-10.5 161.5z" />
    <glyph glyph-name="bullet" unicode="&#x2022;" horiz-adv-x="677" 
d="M403 614q-52 0 -83 41.5t-31 98.5q0 68 44.5 119t112.5 51q55 0 92 -47t37 -105q0 -64 -57.5 -111t-114.5 -47z" />
    <glyph glyph-name="ellipsis" unicode="&#x2026;" horiz-adv-x="1554" 
d="M246 63q-37 0 -59 26t-19 67q4 54 44 93.5t89 39.5q43 0 73 -29.5t25 -66.5q-6 -46 -54.5 -88t-98.5 -42zM764 63q-37 0 -59 26t-19 67q4 54 44 93.5t89 39.5q43 0 73.5 -29.5t25.5 -66.5q-6 -46 -55 -88t-99 -42zM1282 63q-37 0 -59 26t-19 67q4 54 44 93.5t89 39.5
q43 0 73.5 -29.5t25.5 -66.5q-6 -46 -55 -88t-99 -42z" />
    <glyph glyph-name="perthousand" unicode="&#x2030;" horiz-adv-x="1798" 
d="M215 -37q9 48 160 260q334 496 583 793q7 9 38.5 46t45.5 53t40 45t48 50.5t44 40.5q52 41 83 41q27 0 41.5 -26t12.5 -54q-4 -44 -205 -289t-441.5 -523t-283.5 -337q-1 -1 -10.5 -14t-14 -18.5t-15 -19t-17.5 -20.5t-17.5 -17t-19 -15.5t-18 -9.5t-17.5 -4
q-19 0 -37 18zM391 780q-84 0 -115.5 44.5t-23.5 131.5q5 57 48.5 134.5t109.5 136.5t125 59q67 0 115 -59t42 -127q-6 -70 -48.5 -144t-111.5 -125t-141 -51zM414 897q56 0 101 70t50 131q2 21 -10.5 50.5t-30.5 29.5q-57 0 -103.5 -72t-51.5 -135q-2 -24 10 -49t35 -25z
M881 -82q-160 0 -144 178q5 57 48.5 134.5t109.5 136.5t125 59q67 0 115.5 -59t42.5 -127q-6 -69 -47.5 -143.5t-110 -126.5t-139.5 -52zM1339 -82q-84 0 -116.5 46t-24.5 132q5 57 48.5 134.5t109.5 136.5t125 59q67 0 115 -59t42 -127q-10 -111 -101 -216.5t-198 -105.5z
M901 37q57 0 101 69t49 132q2 19 -10 49t-29 30q-57 0 -104 -72t-52 -134q-2 -24 11 -49t34 -25zM1362 37q56 0 100 70t49 131q2 19 -9.5 49t-28.5 30q-57 0 -104 -72t-52 -134q-2 -24 11 -49t34 -25z" />
    <glyph glyph-name="guilsinglleft" unicode="&#x2039;" horiz-adv-x="710" 
d="M543 377q-18 -33 -45 -33q-38 0 -105 48.5t-118.5 111.5t-47.5 100q4 45 75 102.5t154.5 95.5t127.5 38q13 0 20 -6t6 -19q-4 -43 -44.5 -77.5t-88.5 -53t-98.5 -40.5t-67.5 -40q13 -22 54.5 -49.5t81 -49t69.5 -56t27 -72.5z" />
    <glyph glyph-name="guilsinglright" unicode="&#x203a;" horiz-adv-x="634" 
d="M272 807q18 33 47 33q38 0 104.5 -48.5t118 -111.5t48.5 -100q-4 -45 -75 -102.5t-154.5 -95.5t-127.5 -38q-13 0 -20 6t-6 19q3 43 43.5 77.5t88 53t98.5 40.5t69 40q-13 22 -54.5 49.5t-81.5 49t-70.5 56t-27.5 72.5z" />
    <glyph glyph-name="fraction" unicode="&#x2044;" horiz-adv-x="499" 
d="M-223 -39q2 29 20 70q17 34 60.5 96t60.5 94q47 82 104 171t132 201t110 167q167 250 275 401q16 23 49 74t61.5 89.5t57.5 66.5q47 43 90 43q29 0 43.5 -22t11.5 -52q-2 -25 -30.5 -73.5t-57 -87.5t-72.5 -95.5t-51 -65.5q-23 -31 -121 -170.5t-201 -284t-215 -298
t-196.5 -257t-110.5 -116.5q-20 10 -20 49z" />
    <glyph glyph-name="Euro" unicode="&#x20ac;" horiz-adv-x="972" 
d="M463 33q-102 -1 -186.5 65.5t-120.5 171.5q-2 4 -10 27.5t-13 38.5q-4 1 -9 1t-11.5 -0.5t-10.5 -0.5q-26 1 -40.5 14t-12.5 33q1 19 14 30t26 14.5t37 7.5q2 0 3.5 0.5t3.5 0.5v33q3 59 21 125h-25q-24 0 -39.5 13.5t-15.5 37.5q1 29 43.5 49.5t89.5 18.5
q115 212 266 328t301 108q83 -4 131.5 -36.5t46.5 -82.5q-3 -63 -49.5 -124.5t-89.5 -59.5q-28 3 -25 35q1 21 14 56.5t13 51.5q3 42 -47 45q-49 2 -127 -48t-150 -128t-104 -151q16 -1 47 -2.5t47 -2.5l185 -6q16 0 22 -2h49q6 -2 23 -2q74 -3 71 -30q-1 -20 -37 -29
t-112 -18q-7 -1 -10 -1q-28 -3 -144 -5.5t-180 -10.5q-14 -23 -27 -67t-14 -78q62 -3 166.5 -2.5t134.5 -1.5q105 -3 99 -41q-18 -16 -97 -29t-191 -24.5t-118 -12.5v-10q-5 -72 58 -132.5t147 -60.5q49 0 112 21t123.5 47t83.5 31q33 7 48.5 -3t15.5 -26q-2 -36 -66 -77
t-164.5 -70t-195.5 -29z" />
    <glyph glyph-name="trademark" unicode="&#x2122;" horiz-adv-x="1339" 
d="M481 1581q-39 3 -78.5 2.5t-101.5 -3.5t-78 -3q-15 0 -18 27q-6 38 21 53q10 6 24 6q43 0 182 -13.5t182 -13.5q33 0 94.5 9.5t94.5 9.5q18 0 18 -15q0 -27 -16 -42.5t-46 -20t-55.5 -5t-61 2t-46.5 2.5q-17 -26 -35.5 -64.5t-38.5 -95.5t-34 -98.5t-35 -116.5
t-29 -102.5t-28 -104.5l-21 -77q-14 -50 -33 -50q-33 0 -33 86q0 68 20 159.5t40 152t61 173t51 142.5zM1315 1520l-10 18q-25 -1 -63.5 -53t-80.5 -126t-86 -147t-90 -124.5t-82 -51.5q-10 0 -17 8.5t-7 18.5q0 46 20 100t43.5 95.5t43.5 95.5t20 100q0 23 -9 23
q-13 0 -42 -50t-65 -121t-75 -142t-82.5 -121t-77.5 -50q-47 0 -47 62q0 59 76.5 288.5t110.5 241.5q16 4 26 4q51 0 51 -53q0 -24 -20.5 -85.5t-47.5 -132t-34 -95.5q79 148 118 205q101 146 181 147q34 0 47.5 -19t13.5 -55q0 -18 -9.5 -51t-20 -60t-26 -66.5t-19.5 -49.5
q20 39 41 76.5t56.5 92t69 93.5t74.5 67.5t76 28.5q28 0 48 -23.5t20 -52.5q0 -68 -34 -155t-74.5 -157t-74.5 -155t-34 -151q0 -20 8 -30t17.5 -11t17.5 -5.5t8 -14.5q0 -24 -29.5 -42t-54.5 -18q-36 0 -50 35t-14 78q0 72 28.5 158.5t63 153.5t64.5 145t33 133z" />
    <glyph glyph-name="minus" unicode="&#x2212;" horiz-adv-x="1032" 
d="M223 555q3 53 56 74q51 20 563 20q92 0 90 -22q-5 -45 -60 -66q-49 -21 -242 -33t-311 -12q-100 0 -96 39z" />
    </font>
</defs>
</svg>
