<svg width="23" height="24" viewBox="0 0 23 24" fill="none" xmlns="http://www.w3.org/2000/svg">
<path fill-rule="evenodd" clip-rule="evenodd" d="M17.8761 2.7159C17.8634 3.46811 17.5346 4.18022 16.9703 4.6777C16.1606 5.29702 15.0705 5.40561 14.1546 4.95821C13.2387 4.51081 12.6543 3.58423 12.6451 2.56493C12.6617 1.82426 12.9686 1.11975 13.4996 0.603124C13.9731 0.227917 14.5555 0.0163086 15.1594 2.13727e-05C15.8807 -0.00284319 16.5732 0.282348 17.0833 0.792274C17.5934 1.3022 17.8787 1.99466 17.8761 2.7159ZM8.17204 5.1902C8.19863 5.17384 8.21801 5.16192 8.21801 5.13061L8.21265 5.12754C9.99601 4.82786 11.827 5.20472 13.3471 6.18431C13.6763 6.34963 13.9954 6.53439 14.3027 6.7376C14.3784 6.75013 14.4486 6.7851 14.5042 6.83799H14.4544C14.4285 6.86347 14.4157 6.87612 14.403 6.88886C14.3904 6.90141 14.378 6.91405 14.3533 6.93915C15.4256 7.64173 16.7627 7.80865 17.9749 7.39128H18.0255C18.0255 7.35981 18.0448 7.34792 18.0716 7.33143C18.0878 7.32142 18.1068 7.30971 18.1259 7.29089C18.9507 6.95609 19.6532 6.37685 20.1391 5.63102C20.1776 5.55491 20.2295 5.48638 20.2923 5.42871C21.3989 4.57425 23.2603 5.8318 22.3039 7.08935C21.9193 7.66469 21.463 8.18873 20.946 8.64883C19.2736 10.0976 16.9688 10.5741 14.859 9.90715C13.954 11.4666 13.0988 13.0261 12.2428 14.6354C12.5961 14.8362 12.9478 15.0377 13.2497 15.2393L13.1493 15.3397C14.0575 15.9443 14.9602 16.6486 15.5135 17.1022C16.2603 17.655 17.1303 19.5906 17.811 21.1049C18.0012 21.5282 18.1767 21.9186 18.3305 22.2366C18.6055 22.7107 18.5224 23.3111 18.129 23.6927C17.8024 23.9553 17.3748 24.0568 16.965 23.9691C16.5552 23.8814 16.2067 23.6138 16.0162 23.2405C15.904 22.997 15.7761 22.7102 15.6385 22.4014C15.0355 21.0486 14.2442 19.2735 13.7532 18.8648C12.4825 17.8526 11.0768 17.0225 9.57671 16.3987C9.55333 16.3987 9.51658 16.3867 9.47925 16.3744C9.44074 16.3618 9.40162 16.3489 9.37594 16.3489C7.27665 18.9658 3.58698 19.6695 0.67195 18.0088C0.238549 17.7444 -0.0180806 17.2663 0.000993877 16.759C0.0200683 16.2516 0.311867 15.7942 0.763901 15.5631C1.21593 15.3319 1.7576 15.3631 2.18009 15.6447C4.49517 16.9528 6.85854 15.2423 7.96589 13.079C9.02266 10.9631 9.82807 9.45731 10.6833 7.89783C8.97208 7.34377 7.4126 7.84572 6.15581 9.60828C5.19943 11.016 2.8353 9.65809 3.84073 8.24957C4.24112 7.68623 4.69624 7.16387 5.19943 6.69009C6.03293 5.97451 7.03885 5.48899 8.11762 5.28157V5.231C8.1366 5.21202 8.15568 5.20027 8.17204 5.1902Z" fill="white"/>
</svg>
