<svg width="112" height="29" viewBox="0 0 112 29" fill="none" xmlns="http://www.w3.org/2000/svg">
<g id="skilled">
<path id="Path" d="M9.68399 28.432C7.52399 28.432 5.64599 27.922 4.04999 26.902C2.45399 25.882 1.36799 24.508 0.791992 22.78L4.75199 20.908C5.25599 21.964 5.93999 22.792 6.80399 23.392C7.66799 23.992 8.62799 24.292 9.68399 24.292C10.452 24.292 11.04 24.136 11.448 23.824C11.856 23.512 12.06 23.08 12.06 22.528C12.06 22.24 11.988 21.994 11.844 21.79C11.7 21.586 11.484 21.4 11.196 21.232C10.908 21.064 10.548 20.92 10.116 20.8L6.76799 19.864C5.15999 19.408 3.92399 18.67 3.05999 17.65C2.19599 16.63 1.76399 15.424 1.76399 14.032C1.76399 12.808 2.07599 11.74 2.69999 10.828C3.32399 9.91599 4.19999 9.20199 5.32799 8.68599C6.45599 8.16999 7.75199 7.91199 9.21599 7.91199C11.136 7.91199 12.822 8.36199 14.274 9.26199C15.726 10.162 16.752 11.428 17.352 13.06L13.356 14.932C13.068 14.116 12.546 13.462 11.79 12.97C11.034 12.478 10.176 12.232 9.21599 12.232C8.51999 12.232 7.97399 12.376 7.57799 12.664C7.18199 12.952 6.98399 13.348 6.98399 13.852C6.98399 14.116 7.05599 14.356 7.19999 14.572C7.34399 14.788 7.57799 14.98 7.90199 15.148C8.22599 15.316 8.62799 15.472 9.10799 15.616L12.24 16.552C13.872 17.032 15.12 17.758 15.984 18.73C16.848 19.702 17.28 20.896 17.28 22.312C17.28 23.536 16.962 24.604 16.326 25.516C15.69 26.428 14.808 27.142 13.68 27.658C12.552 28.174 11.22 28.432 9.68399 28.432Z" fill="#13183F"/>
<path id="Path_2" d="M20.52 28V0.748047H25.92V18.208L23.904 17.56L32.58 8.34405H39.24L32.112 16.264L39.204 28H33.084L27.144 18.028L30.276 17.236L24.264 23.788L25.92 20.656V28H20.52Z" fill="#13183F"/>
<path id="Shape" fill-rule="evenodd" clip-rule="evenodd" d="M41.616 1.18005V6.58005H47.016V1.18005H41.616ZM41.616 8.34405V28.0001H47.016V8.34405H41.616Z" fill="#13183F"/>
<path id="Path_3" d="M50.976 28V0.748047H56.376V28H50.976Z" fill="#13183F"/>
<path id="Path_4" d="M60.3359 28V0.748047H65.7359V28H60.3359Z" fill="#13183F"/>
<path id="Path_5" d="M79.1641 28.432C77.0761 28.432 75.2641 27.97 73.7281 27.046C72.1921 26.122 71.0041 24.88 70.1641 23.32C69.3241 21.76 68.9041 20.032 68.9041 18.136C68.9041 16.168 69.3421 14.416 70.2181 12.88C71.0941 11.344 72.2761 10.132 73.7641 9.24399C75.2521 8.35599 76.9321 7.91199 78.8041 7.91199C80.3641 7.91199 81.7441 8.15799 82.9441 8.64999C84.1441 9.14199 85.1581 9.83199 85.9861 10.72C86.8141 11.608 87.4441 12.634 87.8761 13.798C88.3081 14.962 88.5241 16.228 88.5241 17.596C88.5241 17.98 88.5061 18.358 88.4701 18.73C88.4341 19.102 88.3681 19.42 88.2721 19.684H73.5481V15.724H85.2121L82.6561 17.596C82.8961 16.564 82.8841 15.646 82.6201 14.842C82.3561 14.038 81.8941 13.402 81.2341 12.934C80.5741 12.466 79.7641 12.232 78.8041 12.232C77.8681 12.232 77.0641 12.46 76.3921 12.916C75.7201 13.372 75.2161 14.044 74.8801 14.932C74.5441 15.82 74.4121 16.9 74.4841 18.172C74.3881 19.276 74.5201 20.248 74.8801 21.088C75.2401 21.928 75.7921 22.582 76.5361 23.05C77.2801 23.518 78.1801 23.752 79.2361 23.752C80.1961 23.752 81.0181 23.56 81.7021 23.176C82.3861 22.792 82.9201 22.264 83.3041 21.592L87.6241 23.644C87.2401 24.604 86.6341 25.444 85.8061 26.164C84.9781 26.884 84.0001 27.442 82.8721 27.838C81.7441 28.234 80.5081 28.432 79.1641 28.432Z" fill="#13183F"/>
<path id="Shape_2" fill-rule="evenodd" clip-rule="evenodd" d="M95.796 27.064C97.308 27.976 99.024 28.432 100.944 28.432C102.288 28.432 103.536 28.186 104.688 27.694C105.574 27.3157 106.318 26.7989 106.92 26.1437V28H111.96V0.748047H106.56V9.99442C106.045 9.48361 105.439 9.05949 104.742 8.72205C103.626 8.18205 102.348 7.91205 100.908 7.91205C99.036 7.91205 97.344 8.36805 95.832 9.28005C94.32 10.192 93.12 11.422 92.232 12.97C91.344 14.518 90.9 16.252 90.9 18.172C90.9 20.068 91.338 21.796 92.214 23.356C93.09 24.916 94.284 26.152 95.796 27.064ZM104.184 22.888C103.44 23.344 102.576 23.572 101.592 23.572C100.608 23.572 99.726 23.344 98.946 22.888C98.166 22.432 97.56 21.796 97.128 20.98C96.696 20.164 96.48 19.228 96.48 18.172C96.48 17.116 96.696 16.186 97.128 15.382C97.56 14.578 98.166 13.942 98.946 13.474C99.726 13.006 100.608 12.772 101.592 12.772C102.576 12.772 103.44 13 104.184 13.456C104.928 13.912 105.51 14.548 105.93 15.364C106.35 16.18 106.56 17.116 106.56 18.172C106.56 19.228 106.35 20.164 105.93 20.98C105.51 21.796 104.928 22.432 104.184 22.888Z" fill="#13183F"/>
</g>
</svg>
