<svg width="20" height="18" viewBox="0 0 20 18" fill="none" xmlns="http://www.w3.org/2000/svg">
<path fill-rule="evenodd" clip-rule="evenodd" d="M7 0L5.17 2H2C0.9 2 0 2.9 0 4V16C0 17.1 0.9 18 2 18H18C19.1 18 20 17.1 20 16V4C20 2.9 19.1 2 18 2H14.83L13 0H7ZM13.2 10C13.2 11.7673 11.7673 13.2 10 13.2C8.23269 13.2 6.8 11.7673 6.8 10C6.8 8.23269 8.23269 6.8 10 6.8C11.7673 6.8 13.2 8.23269 13.2 10ZM5 10C5 12.76 7.24 15 10 15C12.76 15 15 12.76 15 10C15 7.24 12.76 5 10 5C7.24 5 5 7.24 5 10Z" fill="#FCFCFF"/>
</svg>
