<svg width="223" height="36" viewBox="0 0 223 36" fill="none" xmlns="http://www.w3.org/2000/svg">
<path d="M0.26 13.4C0.26 10.928 0.812 8.72 1.916 6.776C3.044 4.808 4.568 3.284 6.488 2.204C8.432 1.1 10.604 0.547999 13.004 0.547999C15.812 0.547999 18.272 1.268 20.384 2.708C22.496 4.148 23.972 6.14 24.812 8.684H19.016C18.44 7.484 17.624 6.584 16.568 5.984C15.536 5.384 14.336 5.084 12.968 5.084C11.504 5.084 10.196 5.432 9.044 6.128C7.916 6.8 7.028 7.76 6.38 9.008C5.756 10.256 5.444 11.72 5.444 13.4C5.444 15.056 5.756 16.52 6.38 17.792C7.028 19.04 7.916 20.012 9.044 20.708C10.196 21.38 11.504 21.716 12.968 21.716C14.336 21.716 15.536 21.416 16.568 20.816C17.624 20.192 18.44 19.28 19.016 18.08H24.812C23.972 20.648 22.496 22.652 20.384 24.092C18.296 25.508 15.836 26.216 13.004 26.216C10.604 26.216 8.432 25.676 6.488 24.596C4.568 23.492 3.044 21.968 1.916 20.024C0.812 18.08 0.26 15.872 0.26 13.4ZM37.9728 26.324C36.0528 26.324 34.3248 25.904 32.7888 25.064C31.2528 24.2 30.0408 22.988 29.1528 21.428C28.2888 19.868 27.8568 18.068 27.8568 16.028C27.8568 13.988 28.3008 12.188 29.1888 10.628C30.1008 9.068 31.3368 7.868 32.8968 7.028C34.4568 6.164 36.1968 5.732 38.1168 5.732C40.0368 5.732 41.7768 6.164 43.3368 7.028C44.8968 7.868 46.1208 9.068 47.0088 10.628C47.9208 12.188 48.3768 13.988 48.3768 16.028C48.3768 18.068 47.9088 19.868 46.9728 21.428C46.0608 22.988 44.8128 24.2 43.2288 25.064C41.6688 25.904 39.9168 26.324 37.9728 26.324ZM37.9728 21.932C38.8848 21.932 39.7368 21.716 40.5288 21.284C41.3448 20.828 41.9928 20.156 42.4728 19.268C42.9528 18.38 43.1928 17.3 43.1928 16.028C43.1928 14.132 42.6888 12.68 41.6808 11.672C40.6968 10.64 39.4848 10.124 38.0448 10.124C36.6048 10.124 35.3928 10.64 34.4088 11.672C33.4488 12.68 32.9688 14.132 32.9688 16.028C32.9688 17.924 33.4368 19.388 34.3728 20.42C35.3328 21.428 36.5328 21.932 37.9728 21.932ZM56.6818 21.86H65.5738V26H50.9578V21.932L59.6698 10.196H50.9938V6.056H65.4658V10.124L56.6818 21.86ZM88.5562 6.056L76.2082 35.432H70.8442L75.1642 25.496L67.1722 6.056H72.8242L77.9722 19.988L83.1922 6.056H88.5562Z" fill="#9B9A78"/>
<path d="M98.6272 13.4C98.6272 10.928 99.1792 8.72 100.283 6.776C101.411 4.808 102.935 3.284 104.855 2.204C106.799 1.1 108.971 0.547999 111.371 0.547999C114.179 0.547999 116.639 1.268 118.751 2.708C120.863 4.148 122.339 6.14 123.179 8.684H117.383C116.807 7.484 115.991 6.584 114.935 5.984C113.903 5.384 112.703 5.084 111.335 5.084C109.871 5.084 108.563 5.432 107.411 6.128C106.283 6.8 105.395 7.76 104.747 9.008C104.123 10.256 103.811 11.72 103.811 13.4C103.811 15.056 104.123 16.52 104.747 17.792C105.395 19.04 106.283 20.012 107.411 20.708C108.563 21.38 109.871 21.716 111.335 21.716C112.703 21.716 113.903 21.416 114.935 20.816C115.991 20.192 116.807 19.28 117.383 18.08H123.179C122.339 20.648 120.863 22.652 118.751 24.092C116.663 25.508 114.203 26.216 111.371 26.216C108.971 26.216 106.799 25.676 104.855 24.596C102.935 23.492 101.411 21.968 100.283 20.024C99.1792 18.08 98.6272 15.872 98.6272 13.4ZM136.34 26.324C134.42 26.324 132.692 25.904 131.156 25.064C129.62 24.2 128.408 22.988 127.52 21.428C126.656 19.868 126.224 18.068 126.224 16.028C126.224 13.988 126.668 12.188 127.556 10.628C128.468 9.068 129.704 7.868 131.264 7.028C132.824 6.164 134.564 5.732 136.484 5.732C138.404 5.732 140.144 6.164 141.704 7.028C143.264 7.868 144.488 9.068 145.376 10.628C146.288 12.188 146.744 13.988 146.744 16.028C146.744 18.068 146.276 19.868 145.34 21.428C144.428 22.988 143.18 24.2 141.596 25.064C140.036 25.904 138.284 26.324 136.34 26.324ZM136.34 21.932C137.252 21.932 138.104 21.716 138.896 21.284C139.712 20.828 140.36 20.156 140.84 19.268C141.32 18.38 141.56 17.3 141.56 16.028C141.56 14.132 141.056 12.68 140.048 11.672C139.064 10.64 137.852 10.124 136.412 10.124C134.972 10.124 133.76 10.64 132.776 11.672C131.816 12.68 131.336 14.132 131.336 16.028C131.336 17.924 131.804 19.388 132.74 20.42C133.7 21.428 134.9 21.932 136.34 21.932ZM155.481 9.152C156.129 8.096 156.969 7.268 158.001 6.668C159.057 6.068 160.257 5.768 161.601 5.768V11.06H160.269C158.685 11.06 157.485 11.432 156.669 12.176C155.877 12.92 155.481 14.216 155.481 16.064V26H150.441V6.056H155.481V9.152ZM176.048 5.768C178.424 5.768 180.344 6.524 181.808 8.036C183.272 9.524 184.004 11.612 184.004 14.3V26H178.964V14.984C178.964 13.4 178.568 12.188 177.776 11.348C176.984 10.484 175.904 10.052 174.536 10.052C173.144 10.052 172.04 10.484 171.224 11.348C170.432 12.188 170.036 13.4 170.036 14.984V26H164.996V6.056H170.036V8.54C170.708 7.676 171.56 7.004 172.592 6.524C173.648 6.02 174.8 5.768 176.048 5.768ZM207.337 15.596C207.337 16.316 207.289 16.964 207.193 17.54H192.613C192.733 18.98 193.237 20.108 194.125 20.924C195.013 21.74 196.105 22.148 197.401 22.148C199.273 22.148 200.605 21.344 201.397 19.736H206.833C206.257 21.656 205.153 23.24 203.521 24.488C201.889 25.712 199.885 26.324 197.509 26.324C195.589 26.324 193.861 25.904 192.325 25.064C190.813 24.2 189.625 22.988 188.761 21.428C187.921 19.868 187.5 18.068 187.5 16.028C187.5 13.964 187.921 12.152 188.761 10.592C189.601 9.032 190.777 7.832 192.289 6.992C193.801 6.152 195.541 5.732 197.509 5.732C199.405 5.732 201.097 6.14 202.585 6.956C204.097 7.772 205.261 8.936 206.077 10.448C206.917 11.936 207.337 13.652 207.337 15.596ZM202.117 14.156C202.093 12.86 201.625 11.828 200.713 11.06C199.801 10.268 198.685 9.872 197.365 9.872C196.117 9.872 195.061 10.256 194.197 11.024C193.357 11.768 192.841 12.812 192.649 14.156H202.117ZM216.055 9.152C216.703 8.096 217.543 7.268 218.575 6.668C219.631 6.068 220.831 5.768 222.175 5.768V11.06H220.843C219.259 11.06 218.059 11.432 217.243 12.176C216.451 12.92 216.055 14.216 216.055 16.064V26H211.015V6.056H216.055V9.152Z" fill="#313131"/>
</svg>
