<svg width="80" height="80" viewBox="0 0 80 80" fill="none" xmlns="http://www.w3.org/2000/svg">
<g clip-path="url(#clip0_730_63)">
<path d="M63.4833 27.65C63.4833 44.5333 40 65.7 40 65.7C40 65.7 16.5167 44.5333 16.5167 27.65C16.5167 14.6833 27.0333 4.16666 40 4.16666C52.9667 4.16666 63.4833 14.6833 63.4833 27.65Z" fill="#9B9A78"/>
<path d="M40 37.3833C45.3756 37.3833 49.7333 33.0256 49.7333 27.65C49.7333 22.2744 45.3756 17.9167 40 17.9167C34.6244 17.9167 30.2667 22.2744 30.2667 27.65C30.2667 33.0256 34.6244 37.3833 40 37.3833Z" fill="white"/>
<path d="M40 69.0333C39.2 69.0333 38.4 68.75 37.7667 68.1833C36.7667 67.2833 13.1833 45.8167 13.1833 27.65C13.2 12.8667 25.2167 0.833344 40 0.833344C54.7833 0.833344 66.8167 12.8667 66.8167 27.65C66.8167 45.8167 43.25 67.2833 42.2333 68.1833C41.6 68.75 40.8 69.0333 40 69.0333ZM40 7.50001C28.9 7.50001 19.8667 16.5333 19.8667 27.65C19.8667 38.9667 32.8167 54.05 40 61.1C45.65 55.5 60.15 39.95 60.15 27.65C60.15 16.5333 51.1 7.50001 40 7.50001Z" fill="#313131"/>
<path d="M40 40.7166C32.8 40.7166 26.9333 34.85 26.9333 27.65C26.9333 20.45 32.8 14.5667 40 14.5667C47.2 14.5667 53.0667 20.4333 53.0667 27.6333C53.0667 34.8333 47.2 40.7166 40 40.7166ZM40 21.2333C36.4667 21.2333 33.6 24.1 33.6 27.6333C33.6 31.1666 36.4667 34.0333 40 34.0333C43.5333 34.0333 46.4 31.1666 46.4 27.6333C46.4 24.1 43.5333 21.2333 40 21.2333ZM75.8333 79.1666H4.16667C2.93334 79.1666 1.80001 78.4833 1.23334 77.4C0.650006 76.3166 0.716673 75 1.40001 73.9666L17.7333 49.6333C18.35 48.7166 19.3833 48.15 20.5 48.15H27.1V54.8166H22.2833L10.4167 72.5H69.5833L57.7167 54.8333H52.9V48.1666H59.5C60.6167 48.1666 61.65 48.7166 62.2667 49.65L78.6 73.9833C79.2833 75 79.35 76.3166 78.7667 77.4166C78.2 78.4833 77.0667 79.1666 75.8333 79.1666Z" fill="#313131"/>
</g>
<defs>
<clipPath id="clip0_730_63">
<rect width="80" height="80" fill="white"/>
</clipPath>
</defs>
</svg>
