<svg width="80" height="80" viewBox="0 0 80 80" fill="none" xmlns="http://www.w3.org/2000/svg">
<path d="M6.15386 30.1538C5.38463 30.1538 4.6154 29.8462 4.00001 29.2308C2.76924 28 2.76924 26.1538 4.00001 24.9231C13.5385 15.2308 26.4616 10 40 10C53.5385 10 66.4616 15.2308 76 24.9231C77.2308 26.1538 77.2308 28 76 29.2308C74.7692 30.4615 72.9231 30.4615 71.6923 29.2308C63.2308 20.7692 52 16.1538 40 16.1538C28 16.1538 16.7692 20.7692 8.3077 29.2308C7.69232 29.8462 6.92309 30.1538 6.15386 30.1538V30.1538Z" fill="#313131"/>
<path d="M14.7692 38.7692C14 38.7692 13.2308 38.4615 12.6154 37.8461C11.3846 36.6154 11.3846 34.7692 12.6154 33.5385C19.8461 26.3077 29.6923 22.1538 40 22.1538C50.3077 22.1538 60 26.1538 67.3846 33.5385C68.6154 34.7692 68.6154 36.6154 67.3846 37.8461C66.1538 39.0769 64.3077 39.0769 63.0769 37.8461C56.9231 31.6923 48.7692 28.3077 40.1538 28.3077C31.5384 28.3077 23.3846 31.6923 17.2308 37.8461C16.4615 38.4615 15.6923 38.7692 14.7692 38.7692V38.7692Z" fill="#313131"/>
<path d="M23.5385 47.5385C22.7692 47.5385 22 47.2308 21.3846 46.6154C20.1539 45.3846 20.1539 43.5385 21.3846 42.3077C26.3077 37.3846 32.9231 34.6154 40 34.6154C47.0769 34.6154 53.6923 37.3846 58.6154 42.3077C59.8462 43.5385 59.8462 45.3846 58.6154 46.6154C57.3846 47.8462 55.5385 47.8462 54.3077 46.6154C50.4615 42.7692 45.3846 40.7692 40 40.7692C34.6154 40.7692 29.5385 42.9231 25.6923 46.7692C25.0769 47.2308 24.3077 47.5385 23.5385 47.5385V47.5385Z" fill="#313131"/>
<path d="M40 66.9231C44.5882 66.9231 48.3077 63.2036 48.3077 58.6154C48.3077 54.0272 44.5882 50.3077 40 50.3077C35.4118 50.3077 31.6923 54.0272 31.6923 58.6154C31.6923 63.2036 35.4118 66.9231 40 66.9231Z" fill="#9B9A78"/>
<path d="M40 70C37.0769 70 34.1538 68.9231 32 66.6154C27.5385 62.1538 27.5385 54.9231 32 50.4615C36.4615 46 43.6923 46 48.1538 50.4615C50.3077 52.6154 51.5385 55.5385 51.5385 58.4615C51.5385 61.3846 50.3077 64.3077 48.1538 66.4615C45.8461 68.9231 42.9231 70 40 70ZM40 53.3846C38.6154 53.3846 37.2308 53.8462 36.3077 54.9231C34.3077 56.9231 34.3077 60.3077 36.3077 62.3077C38.3077 64.3077 41.6923 64.3077 43.6923 62.3077C44.6154 61.3846 45.2308 60 45.2308 58.6154C45.2308 57.2308 44.6154 55.8462 43.6923 54.9231C42.7692 53.8462 41.3846 53.3846 40 53.3846V53.3846Z" fill="#313131"/>
</svg>
