<svg width="56" height="56" viewBox="0 0 56 56" fill="none" xmlns="http://www.w3.org/2000/svg">
<path opacity="0.99" d="M43.0351 24.0103C48.2456 24.0103 52.4542 28.4637 52.4542 33.4294V40.7503H33.6099V33.4294C33.6099 28.4637 37.8247 24.0103 43.0351 24.0103V24.0103ZM39.5232 46.9312H46.5429C46.1184 48.8728 44.7508 50.3144 43.0331 50.3144C41.3153 50.3144 39.9477 48.8728 39.5232 46.9312Z" fill="#7EDAD2"/>
<path d="M7.85616 7.43079H11.3816C11.8921 7.43079 12.303 7.8417 12.303 8.35213V11.5679C12.303 12.0783 11.8921 12.4892 11.3816 12.4892H7.85616C7.34573 12.4892 6.93481 12.0783 6.93481 11.5679V8.35213C6.93481 7.8417 7.34573 7.43079 7.85616 7.43079ZM7.85616 19.4018H11.3816C11.8921 19.4018 12.303 19.8128 12.303 20.3232V23.5389C12.303 24.0494 11.8921 24.4603 11.3816 24.4603H7.85616C7.34573 24.4603 6.93481 24.0494 6.93481 23.5389V20.3232C6.93481 19.8128 7.34573 19.4018 7.85616 19.4018ZM7.85616 32.047H11.3816C11.8921 32.047 12.303 32.4579 12.303 32.9684V36.1841C12.303 36.6945 11.8921 37.1055 11.3816 37.1055H7.85616C7.34573 37.1055 6.93481 36.6945 6.93481 36.1841V32.9684C6.93481 32.4579 7.34573 32.047 7.85616 32.047ZM7.85616 43.9139H11.3816C11.8921 43.9139 12.303 44.3249 12.303 44.8353V48.051C12.303 48.5615 11.8921 48.9724 11.3816 48.9724H7.85616C7.34573 48.9724 6.93481 48.5615 6.93481 48.051V44.8353C6.93481 44.3249 7.34573 43.9139 7.85616 43.9139Z" fill="#7EDAD2"/>
<path opacity="0.99" d="M3.05182 -0.00125074C1.41729 -0.00125074 0.0517578 1.32717 0.0517578 2.96169V53.0369C0.0517578 54.6714 1.41729 55.9998 3.05182 55.9998H42.1151C43.4013 55.9998 43.4526 53.9998 42.035 53.9998H3.05182C2.4703 53.9998 2.0518 53.5781 2.0518 53.0369V2.96169C2.0518 2.42047 2.4703 1.99878 3.05182 1.99878H32.9958V7.6571C32.9958 9.76964 34.7231 11.4951 36.8357 11.4951H42.1073L42.0975 15.1729C42.0975 16.5311 44.0975 16.5307 44.0975 15.1767L44.1111 10.3289C44.1116 10.0668 44.0092 9.81506 43.8259 9.62771L34.7086 0.299409C34.5204 0.107065 34.2628 -0.00133549 33.9937 -0.00137329L3.05182 -0.00125074ZM34.99 3.44999L40.8983 9.49502H36.8357C35.7966 9.49502 34.99 8.69621 34.99 7.6571V3.44999ZM7.07729 6.44614C6.94581 6.44564 6.81551 6.47107 6.69387 6.52098C6.57222 6.57089 6.46161 6.64429 6.36836 6.73699C6.27512 6.82969 6.20106 6.93987 6.15044 7.06122C6.09982 7.18257 6.07363 7.31272 6.07336 7.4442V12.4931C6.07286 12.6251 6.09848 12.7559 6.14876 12.8779C6.19903 12.9999 6.27296 13.1108 6.36628 13.2041C6.45961 13.2975 6.57048 13.3714 6.69251 13.4217C6.81454 13.4719 6.94531 13.4976 7.07729 13.4971H12.1282C12.2601 13.4976 12.3909 13.4719 12.513 13.4217C12.635 13.3714 12.7458 13.2975 12.8392 13.2041C12.9325 13.1108 13.0064 12.9999 13.0567 12.8779C13.107 12.7559 13.1326 12.6251 13.1321 12.4931V7.4442C13.1318 7.31272 13.1056 7.18257 13.055 7.06122C13.0044 6.93987 12.9303 6.82969 12.8371 6.73699C12.7439 6.64429 12.6332 6.57089 12.5116 6.52098C12.3899 6.47107 12.2597 6.44564 12.1282 6.44614H7.07729ZM17.5384 6.55749C17.2746 6.55851 17.0218 6.66379 16.8352 6.85037C16.6486 7.03696 16.5433 7.28973 16.5423 7.5536C16.5433 7.81747 16.6486 8.07024 16.8352 8.25682C17.0218 8.44341 17.2746 8.54869 17.5384 8.54971H22.0483C22.1796 8.55023 22.3097 8.52487 22.4313 8.47509C22.5528 8.42531 22.6633 8.35208 22.7566 8.25958C22.8498 8.16708 22.9239 8.05713 22.9746 7.93599C23.0253 7.81486 23.0517 7.68492 23.0522 7.5536C23.0517 7.42227 23.0253 7.29234 22.9746 7.1712C22.9239 7.05007 22.8498 6.94012 22.7566 6.84762C22.6633 6.75512 22.5528 6.68189 22.4313 6.63211C22.3097 6.58233 22.1796 6.55697 22.0483 6.55749H17.5384ZM8.07535 8.44815H11.1301V11.4951H8.07535V8.44815ZM17.5384 11.3857C17.4071 11.3862 17.2772 11.4126 17.156 11.4633C17.0349 11.514 16.9249 11.5881 16.8325 11.6814C16.74 11.7746 16.6667 11.8851 16.6169 12.0066C16.5672 12.1282 16.5418 12.2583 16.5423 12.3896C16.5433 12.6535 16.6486 12.9063 16.8352 13.0929C17.0218 13.2794 17.2746 13.3847 17.5384 13.3857H27.0542C27.3181 13.3847 27.5709 13.2794 27.7575 13.0929C27.9441 12.9063 28.0493 12.6535 28.0504 12.3896C28.0509 12.2583 28.0255 12.1282 27.9757 12.0066C27.926 11.8851 27.8527 11.7746 27.7602 11.6814C27.6677 11.5881 27.5578 11.514 27.4366 11.4633C27.3155 11.4126 27.1856 11.3862 27.0542 11.3857H17.5384ZM43.035 18.2218C41.3911 18.2218 40.0389 19.5817 40.0389 21.2257V22.8059C35.396 24.1526 32.0153 28.511 32.0153 33.3842V40.7535C30.8856 41.3268 30.109 42.5213 30.109 43.8805V46.3844C30.111 46.9344 30.5571 47.3794 31.1071 47.3806H37.7673C38.1824 49.9129 40.3879 51.863 43.0331 51.8631C45.6783 51.863 47.8838 49.913 48.2988 47.3806H54.9571C55.5071 47.3795 55.953 46.9344 55.9552 46.3844V43.8805C55.9552 42.5213 55.1786 41.3267 54.0489 40.7535V33.3842C54.0489 28.5087 50.6698 24.1485 46.0253 22.8039V21.2257C46.0253 19.5817 44.679 18.2218 43.035 18.2218V18.2218ZM7.07729 18.3312C6.94531 18.3307 6.81454 18.3563 6.69251 18.4066C6.57048 18.4568 6.45961 18.5308 6.36628 18.6241C6.27296 18.7174 6.19903 18.8283 6.14876 18.9503C6.09848 19.0723 6.07286 19.2031 6.07336 19.3351V24.386C6.07286 24.5179 6.09848 24.6487 6.14876 24.7707C6.19903 24.8928 6.27296 25.0036 6.36628 25.097C6.45961 25.1903 6.57048 25.2642 6.69251 25.3145C6.81454 25.3648 6.94531 25.3904 7.07729 25.3899H12.1282C12.2601 25.3904 12.3909 25.3648 12.513 25.3145C12.635 25.2642 12.7458 25.1903 12.8392 25.097C12.9325 25.0036 13.0064 24.8928 13.0567 24.7707C13.107 24.6487 13.1326 24.5179 13.1321 24.386V19.3351C13.1326 19.2031 13.107 19.0723 13.0567 18.9503C13.0064 18.8283 12.9325 18.7174 12.8392 18.6241C12.7458 18.5308 12.635 18.4568 12.513 18.4066C12.3909 18.3563 12.2601 18.3307 12.1282 18.3312H7.07729ZM17.5384 18.4425C17.4071 18.443 17.2772 18.4694 17.156 18.5201C17.0349 18.5708 16.9249 18.6449 16.8325 18.7382C16.74 18.8314 16.6667 18.9419 16.6169 19.0634C16.5672 19.185 16.5418 19.3151 16.5423 19.4464C16.5433 19.7103 16.6486 19.9631 16.8352 20.1497C17.0218 20.3362 17.2746 20.4415 17.5384 20.4425H22.0483C22.1796 20.4431 22.3097 20.4177 22.4313 20.3679C22.5528 20.3181 22.6633 20.2449 22.7566 20.1524C22.8498 20.0599 22.9239 19.95 22.9746 19.8288C23.0253 19.7077 23.0517 19.5778 23.0522 19.4464C23.0527 19.3145 23.0271 19.1837 22.9768 19.0616C22.9266 18.9396 22.8526 18.8287 22.7593 18.7354C22.666 18.6421 22.5551 18.5681 22.4331 18.5179C22.311 18.4676 22.1803 18.442 22.0483 18.4425H17.5384ZM43.035 20.2218C43.6029 20.2218 44.0331 20.6523 44.0331 21.2258V22.4211C43.7044 22.3905 43.3717 22.3703 43.035 22.3703C42.6984 22.3703 42.3676 22.3908 42.0389 22.4211V21.2258C42.0389 20.6523 42.4672 20.2218 43.035 20.2218ZM8.07535 20.3332H11.1301V23.3879H8.07535V20.3332ZM17.5384 23.2786C17.2746 23.2796 17.0218 23.3849 16.8352 23.5715C16.6486 23.758 16.5433 24.0108 16.5423 24.2747C16.5418 24.406 16.5672 24.5361 16.6169 24.6577C16.6667 24.7792 16.74 24.8897 16.8325 24.9829C16.9249 25.0762 17.0349 25.1503 17.156 25.201C17.2772 25.2517 17.4071 25.2781 17.5384 25.2786H27.0542C27.1856 25.2781 27.3155 25.2517 27.4366 25.201C27.5578 25.1503 27.6677 25.0762 27.7602 24.9829C27.8527 24.8897 27.926 24.7792 27.9757 24.6577C28.0255 24.5361 28.0509 24.406 28.0504 24.2747C28.0493 24.0108 27.9441 23.758 27.7575 23.5715C27.5709 23.3849 27.3181 23.2796 27.0542 23.2786H17.5384ZM43.035 24.3704C48.0213 24.3704 52.0489 28.6322 52.0489 33.3842V40.3902H34.0153V33.3842C34.0153 28.6322 38.0487 24.3704 43.035 24.3704V24.3704ZM7.07729 30.9916C6.81208 30.9906 6.55732 31.095 6.36905 31.2818C6.18078 31.4686 6.07443 31.7225 6.07336 31.9877V37.0445C6.07363 37.1759 6.09982 37.3061 6.15044 37.4274C6.20106 37.5488 6.27512 37.659 6.36836 37.7517C6.46161 37.8444 6.57222 37.9178 6.69387 37.9677C6.81551 38.0176 6.94581 38.043 7.07729 38.0425H12.1282C12.2597 38.043 12.3899 38.0176 12.5116 37.9677C12.6332 37.9178 12.7439 37.8444 12.8371 37.7517C12.9303 37.659 13.0044 37.5488 13.055 37.4274C13.1056 37.3061 13.1318 37.1759 13.1321 37.0445V31.9877C13.131 31.7225 13.0247 31.4686 12.8364 31.2818C12.6481 31.095 12.3934 30.9906 12.1282 30.9916H7.07729ZM17.5384 31.103C17.2746 31.104 17.0218 31.2093 16.8352 31.3958C16.6486 31.5824 16.5433 31.8352 16.5423 32.0991C16.5418 32.2304 16.5672 32.3605 16.6169 32.4821C16.6667 32.6036 16.74 32.7141 16.8325 32.8073C16.9249 32.9006 17.0349 32.9746 17.156 33.0254C17.2772 33.0761 17.4071 33.1025 17.5384 33.103H25.0542C25.1855 33.1025 25.3155 33.0761 25.4366 33.0254C25.5577 32.9746 25.6677 32.9006 25.7602 32.8073C25.8527 32.7141 25.9259 32.6036 25.9757 32.4821C26.0255 32.3605 26.0508 32.2304 26.0503 32.0991C26.0493 31.8352 25.944 31.5824 25.7574 31.3958C25.5708 31.2093 25.3181 31.104 25.0542 31.103H17.5384ZM8.07535 32.9917H11.1301V36.0405H8.07535V32.9917ZM17.5384 35.9312C17.4071 35.9317 17.2772 35.9581 17.156 36.0088C17.0349 36.0595 16.9249 36.1336 16.8325 36.2268C16.74 36.32 16.6667 36.4306 16.6169 36.5521C16.5672 36.6736 16.5418 36.8038 16.5423 36.9351C16.5433 37.199 16.6486 37.4517 16.8352 37.6383C17.0218 37.8249 17.2746 37.9302 17.5384 37.9312H21.5385C21.6698 37.9317 21.8 37.9064 21.9215 37.8566C22.043 37.8068 22.1536 37.7336 22.2468 37.6411C22.34 37.5486 22.4141 37.4386 22.4648 37.3175C22.5155 37.1964 22.5419 37.0664 22.5424 36.9351C22.5429 36.8031 22.5173 36.6723 22.4671 36.5503C22.4168 36.4283 22.3429 36.3174 22.2495 36.2241C22.1562 36.1307 22.0453 36.0568 21.9233 36.0065C21.8013 35.9563 21.6705 35.9307 21.5385 35.9312H17.5384ZM33.4919 42.3903H52.5743C53.3334 42.3903 53.9532 43.0096 53.9532 43.8805V45.3806H32.111V43.8805C32.111 43.0096 32.7328 42.3903 33.4919 42.3903ZM7.07729 42.5016C6.94531 42.5011 6.81454 42.5267 6.69251 42.577C6.57048 42.6273 6.45961 42.7012 6.36628 42.7945C6.27296 42.8879 6.19903 42.9987 6.14876 43.1208C6.09848 43.2428 6.07286 43.3736 6.07336 43.5055V48.5545C6.07286 48.6864 6.09848 48.8172 6.14876 48.9392C6.19903 49.0613 6.27296 49.1721 6.36628 49.2655C6.45961 49.3588 6.57048 49.4327 6.69251 49.483C6.81454 49.5333 6.94531 49.5589 7.07729 49.5584H12.1282C12.2601 49.5589 12.3909 49.5333 12.513 49.483C12.635 49.4327 12.7458 49.3588 12.8392 49.2655C12.9325 49.1721 13.0064 49.0613 13.0567 48.9392C13.107 48.8172 13.1326 48.6864 13.1321 48.5545V43.5055C13.1326 43.3736 13.107 43.2428 13.0567 43.1208C13.0064 42.9987 12.9325 42.8879 12.8392 42.7945C12.7458 42.7012 12.635 42.6273 12.513 42.577C12.3909 42.5267 12.2601 42.5011 12.1282 42.5016H7.07729ZM17.5384 42.611C17.4071 42.6115 17.2772 42.6379 17.156 42.6886C17.0349 42.7393 16.9249 42.8134 16.8325 42.9066C16.74 42.9999 16.6667 43.1104 16.6169 43.2319C16.5672 43.3535 16.5418 43.4836 16.5423 43.6149C16.5433 43.8788 16.6486 44.1316 16.8352 44.3181C17.0218 44.5047 17.2746 44.61 17.5384 44.611H25.0542C25.3181 44.61 25.5709 44.5047 25.7575 44.3181C25.944 44.1315 26.0493 43.8787 26.0503 43.6148C26.0508 43.4835 26.0255 43.3534 25.9757 43.2318C25.9259 43.1103 25.8527 42.9998 25.7602 42.9066C25.6677 42.8133 25.5577 42.7393 25.4366 42.6885C25.3155 42.6378 25.1855 42.6114 25.0542 42.6109L17.5384 42.611ZM8.07535 44.5017H11.1301V47.5564H8.07535V44.5017ZM39.8631 47.3826H46.2031C45.8197 48.8061 44.5845 49.863 43.0331 49.8631C41.4816 49.863 40.2465 48.8061 39.8631 47.3826ZM17.5384 47.447C17.2746 47.448 17.0218 47.5533 16.8352 47.7399C16.6486 47.9265 16.5433 48.1793 16.5423 48.4431C16.5418 48.5745 16.5672 48.7046 16.6169 48.8261C16.6667 48.9477 16.74 49.0582 16.8325 49.1514C16.9249 49.2446 17.0349 49.3187 17.156 49.3694C17.2772 49.4202 17.4071 49.4465 17.5384 49.4471H21.5385C21.6705 49.4476 21.8013 49.422 21.9233 49.3717C22.0453 49.3214 22.1562 49.2475 22.2495 49.1542C22.3429 49.0608 22.4168 48.95 22.4671 48.8279C22.5173 48.7059 22.5429 48.5751 22.5424 48.4431C22.5419 48.3118 22.5155 48.1819 22.4648 48.0607C22.4141 47.9396 22.34 47.8297 22.2468 47.7372C22.1536 47.6447 22.043 47.5714 21.9215 47.5216C21.8 47.4719 21.6698 47.4465 21.5385 47.447H17.5384Z" fill="#424241"/>
</svg>
