<svg width="58" height="56" viewBox="0 0 58 56" fill="none" xmlns="http://www.w3.org/2000/svg">
<path opacity="0.99" d="M12.5119 33.5709C11.9377 32.9967 11.0138 32.9967 10.4396 33.5709L7.93439 36.0763L20.6832 48.8257L23.1884 46.3204C23.7626 45.7462 23.7626 44.8222 23.1884 44.248L12.5119 33.5709Z" fill="#7EDAD2"/>
<path opacity="0.99" d="M7.26209 35.4039L2.4204 40.2209C1.72901 40.9087 1.72901 42.015 2.4204 42.7028L14.2009 54.4229C14.8923 55.1107 16.0051 55.1107 16.6964 54.4229L21.5008 49.6433L7.26209 35.4039Z" fill="#7EDAD2"/>
<path opacity="0.99" d="M32.1985 7.03882H41.8025C42.7829 7.03882 43.5721 7.82804 43.5721 8.80837C43.5721 9.78871 42.7829 10.5779 41.8025 10.5779H32.1985C31.2182 10.5779 30.429 9.78871 30.429 8.80837C30.429 7.82804 31.2182 7.03882 32.1985 7.03882Z" fill="#7EDAD2"/>
<path d="M30.0004 1.06348L32.9887 7.0382H41.0123L44.0007 1.06348H30.0004Z" fill="#7EDAD2"/>
<path opacity="0.99" d="M29.9848 0.0668823C29.2423 0.068379 28.7602 0.849975 29.0923 1.51417L31.4146 6.1627C30.2669 6.50169 29.4087 7.55862 29.4087 8.80729C29.4087 9.3666 29.5815 9.88919 29.8735 10.3268C26.2606 13.3513 23.4428 18.7602 22.846 25.9189C22.8022 26.469 23.2121 26.9506 23.7621 26.9951C24.3093 27.0403 24.7906 26.6357 24.8402 26.0889C25.4282 19.0357 28.3496 14.0422 31.6392 11.5534C35.1948 11.6055 38.7872 11.5532 42.3603 11.5621C45.275 13.8135 47.913 18.3578 48.8529 24.0067C48.9453 24.5507 49.4611 24.917 50.0052 24.8251C50.5515 24.7363 50.9218 24.2207 50.8314 23.6747C49.8729 17.9137 47.3326 13.0956 44.093 10.3268C44.385 9.88911 44.5578 9.36652 44.5578 8.80722C44.5578 7.55854 43.6996 6.50163 42.552 6.16263L44.8743 1.5141C45.2063 0.849907 44.7242 0.0682846 43.9817 0.066803L29.9848 0.0668823ZM31.6021 2.0591H42.364L40.3796 6.0377H33.5865L31.6021 2.0591ZM32.1399 8.02274L41.782 8.03975C42.2256 8.04053 42.5574 8.36373 42.5574 8.80734C42.5574 9.20606 42.2813 9.49441 41.905 9.5515L32.1334 9.57077C31.6473 9.57077 31.4063 9.19969 31.4063 8.78712C31.423 8.3635 31.7118 8.02291 32.1399 8.02291V8.02274ZM35.9869 15.1707V15.8445C35.784 15.9139 35.5832 15.9966 35.3951 16.1082C34.5381 16.6169 33.9792 17.4932 33.8834 18.4852C33.7875 19.4772 34.1696 20.4525 34.9166 21.1122C35.4525 21.5856 36.0671 21.8043 36.821 22.0762C37.7236 22.4269 38.0947 22.7938 38.0905 23.415C38.1037 23.7421 37.8278 24.0959 37.5436 24.2646C37.2593 24.4334 36.8334 24.4669 36.5319 24.3389C36.2302 24.2108 35.9641 23.8879 35.8912 23.5713C35.769 23.0323 35.2328 22.6946 34.6939 22.8173C34.1557 22.9404 33.8191 23.4764 33.9419 24.0146C34.1656 24.9858 34.8333 25.7873 35.7506 26.1768C35.8272 26.2093 35.9087 26.219 35.9869 26.2452V26.9229C35.9849 27.4752 36.4307 27.9247 36.983 27.9268C37.5353 27.9246 37.9813 27.4752 37.9791 26.9229V26.2471C38.182 26.1777 38.3829 26.097 38.571 25.9854C39.4279 25.4766 39.9869 24.6003 40.0827 23.6084C40.1785 22.6164 39.7964 21.6469 39.0495 20.9872C38.7628 20.734 38.3624 20.5107 37.5569 20.219C36.7514 19.9272 36.4367 19.7837 36.2447 19.6141C36.0005 19.3984 35.8442 19.0011 35.8756 18.6766C35.907 18.352 36.1382 17.9957 36.4225 17.827C36.7068 17.6582 37.1327 17.6325 37.4342 17.7606C37.7358 17.8886 38.002 18.2115 38.0749 18.5282C38.2006 19.0639 38.7357 19.3974 39.2721 19.2743C39.8094 19.1511 40.1457 18.6165 40.0241 18.0789C39.8005 17.1077 39.1328 16.3043 38.2155 15.9148C38.1389 15.8823 38.0574 15.8726 37.9791 15.8464V15.1706C37.9781 14.6206 37.533 14.1747 36.983 14.1748C36.433 14.1748 35.988 14.6207 35.9869 15.1707L35.9869 15.1707ZM52.4853 25.1201L44.1726 31.4972C43.5657 30.4622 42.4515 29.7559 41.1687 29.7647L33.1587 29.8155C31.4151 29.8372 28.4754 28.3919 24.9125 28.1924C21.5447 28.0039 17.6199 28.9335 13.6095 33.2765L13.1974 32.8644C12.0733 31.7403 10.6444 31.9329 9.71297 32.8644L7.90824 34.6691C7.46396 34.2581 6.92977 34.3058 6.53907 34.6964L1.69718 39.509C0.625686 40.5749 0.625675 42.3475 1.69718 43.4134L13.4787 55.1285C14.5504 56.1946 16.3113 56.1946 17.383 55.1285L22.1898 50.353C22.7399 49.8029 22.5146 49.2599 22.0784 48.8237L23.8792 47.0229C24.7746 46.1275 24.8179 44.6884 24.0316 43.7259C24.657 42.9959 26.0354 41.8139 28.4633 41.8782C32.8777 41.9952 36.3847 42.227 39.1979 42.1068C42.0111 41.9866 44.24 41.5045 45.7898 39.9583C50.3545 35.404 55.9111 29.8819 55.9111 29.8819C56.6964 29.0935 56.8613 28.7143 57.0138 28.1444C57.21 27.4679 57.1 26.6578 56.6553 25.9697C56.2155 25.2892 55.5107 24.8152 54.751 24.6416C53.9345 24.4251 53.161 24.6283 52.4853 25.1201L52.4853 25.1201ZM54.9465 28.1476C54.9465 28.1476 48.9289 33.9956 44.3718 38.5422C43.3623 39.5495 41.7363 40.0023 39.11 40.1145C36.4837 40.2268 32.9723 39.9963 28.516 39.8782C25.5536 39.7997 23.6389 41.2856 22.6604 42.3216L15.0372 34.7023C22.6061 26.3735 28.0298 31.8818 33.1821 31.8175L41.1842 31.7648C42.019 31.759 42.6589 32.4039 42.6589 33.2414C42.6589 34.0788 42.0195 34.7258 41.1764 34.7258H31.0395C30.4872 34.728 30.0412 35.1774 30.0434 35.7297C30.0454 36.2789 30.4902 36.7237 31.0395 36.7258H41.1764C42.9408 36.7258 44.3964 35.3863 44.6159 33.6789L53.704 26.708C54.1317 26.3842 54.6269 26.5852 54.9164 26.9301C55.206 27.275 55.2937 27.8005 54.9463 28.1476H54.9465ZM11.7872 34.2746L22.4632 44.9564C22.6581 45.1513 22.6581 45.4178 22.4632 45.6127L20.6683 47.4155L9.33014 36.0754L11.131 34.2746C11.3851 34.0205 11.6848 34.1722 11.7872 34.2746ZM7.24025 36.8137L20.0533 49.6555L15.9729 53.7125C15.6618 54.0219 15.1999 54.0219 14.8888 53.7125L3.10736 41.9954C2.79607 41.6858 2.79607 41.2348 3.10736 40.9251L7.24025 36.8137ZM14.9982 49.5561C14.6558 50.0307 14.7634 50.693 15.2385 51.0347C15.7126 51.3757 16.3734 51.2682 16.715 50.7944C17.0565 50.3208 16.9499 49.66 16.4768 49.3178C15.9353 48.9714 15.3539 49.0799 14.9982 49.5561L14.9982 49.5561Z" fill="#424241"/>
</svg>
