<svg width="56" height="50" viewBox="0 0 56 50" fill="none" xmlns="http://www.w3.org/2000/svg">
<path d="M10.7219 12.4882H17.1978C18.994 12.4882 20.44 13.9342 20.44 15.7304V28.6992C20.44 30.4953 18.994 31.9414 17.1978 31.9414H10.7219C8.92574 31.9414 7.47972 30.4953 7.47972 28.6992V15.7304C7.47972 13.9342 8.92574 12.4882 10.7219 12.4882V12.4882Z" fill="#7EDAD2"/>
<path opacity="0.99" d="M51.7533 1.71039C53.5523 1.71039 55.0006 3.15868 55.0006 4.95769V39.3502C55.0006 41.1492 53.5523 42.5975 51.7533 42.5975C49.9543 42.5975 48.506 41.1492 48.506 39.3502V4.95769C48.506 3.15868 49.9543 1.71039 51.7533 1.71039V1.71039Z" fill="#7EDAD2"/>
<path d="M51.7565 0.712616C49.4795 0.712616 47.6206 2.52989 47.5279 4.78496C42.0592 7.51469 32.638 12.7019 21.2031 14.3848C20.6347 12.7104 19.062 11.4902 17.2011 11.4902H10.7264C8.59013 11.4902 6.82612 13.0937 6.54073 15.1543C2.76726 15.1656 -0.000408208 18.3948 -0.000411987 22.2169C-0.000408208 26.0445 2.75303 29.2715 6.54073 29.2737C6.82696 31.3343 8.59079 32.9418 10.7264 32.9418H17.2011C17.4218 32.9418 17.6381 32.9202 17.8496 32.8871L21.041 44.1021C21.425 45.4508 20.6691 46.808 19.3203 47.192C17.9716 47.576 16.6144 46.8202 16.2304 45.4713L13.3338 35.2934C13.1824 34.763 12.6301 34.4554 12.0994 34.6058C11.5673 34.7564 11.2584 35.3103 11.41 35.8422L14.3085 46.0182C14.9863 48.3992 17.486 49.7919 19.8672 49.114C22.2481 48.4361 23.6409 45.9365 22.9629 43.5553L21.6074 38.7915C23.0244 38.4923 24.1418 38.0116 24.9806 37.3637C26.0345 36.5497 26.6299 35.4847 26.8751 34.4379C27.1533 33.2503 27.0261 32.1235 26.795 31.1683C35.7025 33.4112 42.9949 37.38 47.5415 39.6489C47.6986 41.844 49.523 43.5943 51.7565 43.5943C54.0922 43.5943 56.0007 41.6858 56.0007 39.3501V17.1524C55.9987 16.6032 55.5538 16.1584 55.0046 16.1563C54.4515 16.1533 54.0008 16.5993 53.9987 17.1524V39.3501C53.9987 40.6124 53.0187 41.5943 51.7565 41.5943C50.4942 41.5943 49.5123 40.6124 49.5123 39.3501V4.95685C49.5123 3.69455 50.4942 2.70486 51.7565 2.70486C53.0187 2.70486 53.9987 3.69455 53.9987 4.95685V13.1504C53.9957 13.7073 54.4477 14.1595 55.0046 14.1563C55.5576 14.1543 56.0039 13.7034 56.0007 13.1504V4.95685C56.0007 2.62112 54.0922 0.712623 51.7565 0.712623L51.7565 0.712616ZM47.5083 6.99594V37.4301C42.0311 34.6611 32.881 29.7885 21.4453 28.1077V16.3184C32.881 14.6376 42.0311 9.76495 47.5083 6.99594ZM10.7264 13.4844H17.2011C18.4472 13.4844 19.4207 14.4493 19.4414 15.6895V28.7366C19.421 29.9768 18.4472 30.9417 17.2011 30.9417H10.7264C9.4669 30.9417 8.48218 29.957 8.48218 28.6975V15.7285C8.48218 14.4691 9.4669 13.4844 10.7264 13.4844V13.4844ZM6.48214 17.1426V27.2717C3.90696 27.2464 1.99963 25.066 1.99963 22.2169C1.99963 19.354 3.89458 17.1471 6.48214 17.1426ZM21.1973 30.0608C22.3206 30.2262 23.4298 30.4173 24.5157 30.6468C24.8423 31.529 25.197 32.8319 24.9278 33.9808C24.7712 34.6493 24.4513 35.2441 23.7579 35.7797C23.1974 36.2126 22.2628 36.5687 21.0469 36.8188C20.5979 35.2481 20.1503 33.677 19.7031 32.1058C20.3867 31.5952 20.9138 30.8841 21.1973 30.0608V30.0608Z" fill="#424241"/>
<path d="M10.9993 21.2125C10.8673 21.212 10.7365 21.2376 10.6145 21.2879C10.4924 21.3381 10.3816 21.4121 10.2882 21.5054C10.1949 21.5987 10.121 21.7096 10.0707 21.8316C10.0204 21.9537 9.99482 22.0845 9.99534 22.2165C9.99579 22.3478 10.0221 22.4778 10.0728 22.599C10.1235 22.7202 10.1976 22.8302 10.2908 22.9228C10.3841 23.0153 10.4946 23.0886 10.6162 23.1384C10.7377 23.1882 10.8679 23.2136 10.9993 23.213H16.964C17.0953 23.2136 17.2255 23.1882 17.3471 23.1384C17.4686 23.0886 17.5792 23.0153 17.6724 22.9228C17.7657 22.8302 17.8397 22.7202 17.8904 22.599C17.9411 22.4778 17.9675 22.3478 17.9679 22.2165C17.9685 22.0845 17.9428 21.9537 17.8926 21.8316C17.8423 21.7096 17.7684 21.5987 17.675 21.5054C17.5817 21.4121 17.4708 21.3381 17.3488 21.2879C17.2267 21.2376 17.096 21.212 16.964 21.2125H10.9993ZM10.9771 16.1927C10.8458 16.1922 10.7156 16.2176 10.594 16.2674C10.4725 16.3172 10.3619 16.3905 10.2687 16.483C10.1755 16.5756 10.1014 16.6856 10.0507 16.8068C9.99997 16.9279 9.97363 17.0579 9.97318 17.1893C9.97266 17.3213 9.99828 17.4521 10.0485 17.5741C10.0988 17.6962 10.1727 17.807 10.2661 17.9004C10.3594 17.9937 10.4703 18.0676 10.5923 18.1179C10.7144 18.1682 10.8452 18.1938 10.9771 18.1933H16.9492C17.0806 18.1928 17.2106 18.1665 17.3318 18.1158C17.4529 18.0651 17.5629 17.991 17.6555 17.8977C17.748 17.8045 17.8213 17.694 17.8711 17.5724C17.9209 17.4508 17.9463 17.3207 17.9458 17.1893C17.9449 16.9253 17.8396 16.6723 17.6529 16.4856C17.4662 16.2989 17.2132 16.1936 16.9492 16.1927H10.9771ZM10.9771 26.2397C10.8458 26.2392 10.7156 26.2645 10.594 26.3143C10.4725 26.3641 10.3619 26.4374 10.2687 26.53C10.1755 26.6225 10.1014 26.7325 10.0507 26.8537C9.99997 26.9749 9.97363 27.1049 9.97318 27.2363C9.97266 27.3682 9.99828 27.499 10.0485 27.6211C10.0988 27.7431 10.1727 27.854 10.2661 27.9473C10.3594 28.0406 10.4703 28.1146 10.5923 28.1648C10.7144 28.2151 10.8452 28.2407 10.9771 28.2402H16.9492C17.0806 28.2398 17.2106 28.2134 17.3318 28.1627C17.4529 28.112 17.5629 28.0379 17.6555 27.9447C17.748 27.8515 17.8213 27.7409 17.8711 27.6194C17.9209 27.4978 17.9463 27.3676 17.9458 27.2363C17.9449 26.9722 17.8396 26.7193 17.6529 26.5326C17.4662 26.3459 17.2132 26.2406 16.9492 26.2397H10.9771Z" fill="#424241"/>
</svg>
