<svg width="56" height="58" viewBox="0 0 56 58" fill="none" xmlns="http://www.w3.org/2000/svg">
<path d="M30.8323 53.3952C30.8323 53.7676 30.759 54.1363 30.6165 54.4803C30.474 54.8243 30.2651 55.1369 30.0018 55.4002C29.7385 55.6635 29.4259 55.8724 29.0819 56.0149C28.7379 56.1574 28.3691 56.2307 27.9968 56.2307C27.2447 56.2307 26.5235 55.932 25.9917 55.4002C25.46 54.8685 25.1612 54.1472 25.1612 53.3952C25.1612 52.6431 25.46 51.9219 25.9917 51.3901C26.5235 50.8584 27.2447 50.5596 27.9968 50.5596C28.3691 50.5596 28.7379 50.633 29.0819 50.7755C29.4259 50.918 29.7385 51.1268 30.0018 51.3901C30.2651 51.6534 30.474 51.966 30.6165 52.3101C30.759 52.6541 30.8323 53.0228 30.8323 53.3952V53.3952ZM34.9139 43.94L40.5292 54.9734C41.0319 55.9609 42.2313 56.3511 43.2187 55.8484C44.2062 55.3458 44.5965 54.1444 44.0938 53.157L39.4023 43.94L34.9139 43.94ZM16.601 43.94L11.9095 53.157C11.4068 54.1444 11.7971 55.3458 12.7845 55.8484C13.772 56.3511 14.9714 55.9608 15.4741 54.9734L21.0894 43.94H16.601Z" fill="#7EDAD2"/>
<path d="M3.00114 1.93918H53.0021C54.1101 1.93918 55.0022 2.8312 55.0022 3.93922C55.0022 5.04724 54.1101 5.93926 53.0021 5.93926H3.00114C1.89312 5.93926 1.0011 5.04724 1.0011 3.93922C1.0011 2.8312 1.89312 1.93918 3.00114 1.93918V1.93918Z" fill="#7EDAD2"/>
<path d="M23.4016 27.667H27.0016V38.0308H23.4016V27.667ZM16.2014 29.667H19.8015V38.0308H16.2014V29.667ZM9.00128 31.667H12.6014V38.0308H9.00128V31.667Z" fill="#7EDAD2"/>
<path d="M2.99822 0.940407C1.35349 0.940407 0.00208285 2.29182 0.00208285 3.93656C0.00208285 5.58129 1.35349 6.94053 2.99822 6.94053V19.9388C2.99822 20.4911 3.44595 20.9388 3.99824 20.9388C4.55053 20.9388 4.99826 20.4911 4.99826 19.9388V6.94053H50.9992V42.9354H4.99826V23.9389C4.99826 23.3866 4.55053 22.9389 3.99824 22.9389C3.44595 22.9389 2.99822 23.3866 2.99822 23.9389V42.9354H0.998196C0.866872 42.9359 0.736933 42.9623 0.615801 43.013C0.494669 43.0637 0.384715 43.1378 0.292217 43.231C0.199719 43.3243 0.126492 43.4348 0.0767106 43.5563C0.0269294 43.6778 0.00156888 43.808 0.00208285 43.9393C0.00311255 44.2032 0.108387 44.4559 0.294971 44.6425C0.481555 44.8291 0.734328 44.9344 0.998196 44.9354H15.018L11.016 52.7031C10.2695 54.1693 10.8619 55.9918 12.3285 56.7384C13.7942 57.4845 15.6156 56.8915 16.3618 55.4259L21.7017 44.9354H26.9968V50.1992C25.6011 50.6354 24.569 51.9324 24.569 53.4629C24.569 55.3446 26.121 56.8888 28.0026 56.8888C29.8843 56.8888 31.4265 55.3446 31.4265 53.4629C31.4265 51.9302 30.3956 50.6316 28.9987 50.1972V44.9354H34.2957L39.6357 55.4259C40.3818 56.8915 42.2033 57.4845 43.669 56.7384C45.1355 55.9918 45.7279 54.1693 44.9815 52.7031L40.8388 44.9354H54.9973C55.1286 44.9359 55.2588 44.9106 55.3803 44.8608C55.5018 44.811 55.6123 44.7378 55.7056 44.6453C55.7988 44.5528 55.8729 44.4428 55.9236 44.3217C55.9743 44.2006 56.0007 44.0706 56.0012 43.9393C56.0017 43.8073 55.9761 43.6765 55.9259 43.5545C55.8756 43.4325 55.8017 43.3216 55.7083 43.2283C55.615 43.1349 55.5041 43.061 55.3821 43.0107C55.2601 42.9605 55.1293 42.9349 54.9973 42.9354H52.9992V6.94053C54.6431 6.93943 56.0012 5.58063 56.0012 3.93656C56.0012 2.29182 54.642 0.940407 52.9973 0.940407H44.7666C44.2143 0.938247 43.7649 1.38422 43.7627 1.93652C43.7607 2.49187 44.2113 2.94262 44.7666 2.94045H52.9973C53.5686 2.94045 54.0012 3.36525 54.0012 3.93656C54.0012 4.50787 53.5686 4.94049 52.9973 4.94049H2.99822C2.42692 4.94049 1.9943 4.50787 1.9943 3.93656C1.9943 3.36525 2.42692 2.94045 2.99822 2.94045H40.7646C41.32 2.94263 41.7707 2.49187 41.7685 1.93652C41.7665 1.38422 41.3169 0.938244 40.7646 0.940407H2.99822ZM41.0009 10.8469C37.1467 10.8469 33.9949 13.9908 33.9949 17.845C33.9949 21.6993 37.1467 24.8491 41.0009 24.8491C44.8552 24.8491 47.9991 21.6993 47.9991 17.845C47.9991 13.9908 44.8552 10.8469 41.0009 10.8469V10.8469ZM8.99835 11.9133C8.72646 11.9135 8.46579 12.0216 8.27354 12.2139C8.08129 12.4061 7.97317 12.6668 7.97294 12.9387C7.97317 13.2106 8.08129 13.4713 8.27354 13.6635C8.46579 13.8558 8.72646 13.9639 8.99835 13.9641C9.27023 13.9639 9.53091 13.8558 9.72316 13.6635C9.91541 13.4713 10.0235 13.2106 10.0238 12.9387C10.0235 12.6668 9.91541 12.4061 9.72316 12.2139C9.53091 12.0216 9.27023 11.9135 8.99835 11.9133V11.9133ZM13.0023 11.9387C12.8708 11.9379 12.7405 11.9631 12.6187 12.0127C12.497 12.0624 12.3862 12.1356 12.2928 12.2281C12.1994 12.3206 12.1251 12.4307 12.0743 12.5519C12.0234 12.6732 11.997 12.8033 11.9964 12.9348C11.9959 13.0669 12.0216 13.1979 12.072 13.32C12.1224 13.4422 12.1965 13.5532 12.29 13.6465C12.3836 13.7399 12.4947 13.8138 12.6169 13.8639C12.7392 13.9141 12.8702 13.9395 13.0023 13.9387H30.9988C31.1301 13.9382 31.2601 13.9118 31.3812 13.8611C31.5023 13.8104 31.6123 13.7363 31.7048 13.6431C31.7973 13.5498 31.8705 13.4393 31.9203 13.3178C31.9701 13.1962 31.9954 13.0661 31.9949 12.9348C31.9939 12.6709 31.8886 12.4181 31.702 12.2316C31.5154 12.045 31.2627 11.9397 30.9988 11.9387L13.0023 11.9387ZM39.997 12.9465V17.5423L37.4501 21.3744C36.5518 20.4707 35.9969 19.2262 35.9969 17.845C35.9969 15.4156 37.708 13.4072 39.997 12.9465ZM41.9971 12.9465C43.9663 13.3399 45.5053 14.878 45.8995 16.847H41.9971V12.9465ZM8.99835 16.9134C8.72646 16.9136 8.46579 17.0217 8.27354 17.214C8.08129 17.4062 7.97317 17.6669 7.97294 17.9388C7.97317 18.2107 8.08129 18.4714 8.27354 18.6636C8.46579 18.8559 8.72646 18.964 8.99835 18.9642C9.27023 18.964 9.53091 18.8559 9.72316 18.6636C9.91541 18.4714 10.0235 18.2107 10.0238 17.9388C10.0235 17.6669 9.91541 17.4062 9.72316 17.214C9.53091 17.0217 9.27023 16.9136 8.99835 16.9134V16.9134ZM13.0023 16.9368C12.8702 16.936 12.7392 16.9615 12.6169 17.0116C12.4947 17.0618 12.3836 17.1357 12.29 17.229C12.1965 17.3224 12.1224 17.4333 12.072 17.5555C12.0216 17.6777 11.9959 17.8086 11.9964 17.9407C11.997 18.0722 12.0234 18.2023 12.0743 18.3236C12.1251 18.4449 12.1994 18.5549 12.2928 18.6474C12.3862 18.7399 12.497 18.8131 12.6187 18.8628C12.7405 18.9125 12.8708 18.9376 13.0023 18.9369H22.9967C23.128 18.9374 23.2581 18.912 23.3797 18.8622C23.5012 18.8124 23.6117 18.7392 23.7049 18.6467C23.7982 18.5542 23.8722 18.4443 23.923 18.3231C23.9737 18.202 24.0001 18.0721 24.0006 17.9407C24.0011 17.8088 23.9755 17.678 23.9252 17.5559C23.875 17.4339 23.801 17.323 23.7077 17.2297C23.6144 17.1364 23.5035 17.0625 23.3815 17.0122C23.2594 16.9619 23.1287 16.9363 22.9967 16.9368L13.0023 16.9368ZM41.5341 18.849H45.8975C45.436 21.1369 43.4296 22.849 41.0009 22.849C40.3313 22.849 39.6968 22.7124 39.1142 22.476L41.5341 18.849ZM8.99835 21.9135C8.72646 21.9137 8.46579 22.0218 8.27354 22.2141C8.08129 22.4063 7.97317 22.667 7.97294 22.9389C7.97317 23.2108 8.08129 23.4715 8.27354 23.6637C8.46579 23.856 8.72646 23.9641 8.99835 23.9643C9.27023 23.9641 9.53091 23.856 9.72316 23.6637C9.91541 23.4715 10.0235 23.2108 10.0238 22.9389C10.0235 22.667 9.91541 22.4063 9.72316 22.2141C9.53091 22.0218 9.27023 21.9137 8.99835 21.9135V21.9135ZM13.0023 21.9408C12.8708 21.94 12.7405 21.9652 12.6187 22.0149C12.497 22.0645 12.3862 22.1377 12.2928 22.2302C12.1994 22.3228 12.1251 22.4328 12.0743 22.5541C12.0234 22.6753 11.997 22.8054 11.9964 22.9369C11.9957 23.0692 12.0212 23.2004 12.0714 23.3228C12.1217 23.4452 12.1958 23.5564 12.2893 23.6499C12.3829 23.7435 12.4941 23.8175 12.6165 23.8678C12.7389 23.9181 12.87 23.9436 13.0023 23.9428H30.9988C31.1303 23.9423 31.2604 23.9158 31.3816 23.865C31.5029 23.8141 31.6129 23.7399 31.7054 23.6465C31.798 23.553 31.8712 23.4423 31.9208 23.3205C31.9705 23.1988 31.9957 23.0684 31.9949 22.9369C31.9939 22.6731 31.8886 22.4203 31.702 22.2337C31.5154 22.0471 31.2627 21.9419 30.9988 21.9408L13.0023 21.9408ZM23.3951 26.6655C23.1299 26.6666 22.876 26.7729 22.6892 26.9612C22.5024 27.1495 22.398 27.4042 22.399 27.6694V38.0271C22.398 38.2923 22.5024 38.547 22.6892 38.7353C22.876 38.9236 23.1299 39.0299 23.3951 39.031H26.9968C27.1289 39.0317 27.2599 39.0063 27.3821 38.9562C27.5044 38.906 27.6155 38.8321 27.709 38.7388C27.8026 38.6454 27.8767 38.5345 27.9271 38.4123C27.9774 38.2901 28.0031 38.1592 28.0026 38.0271V27.6694C28.0031 27.5373 27.9774 27.4064 27.9271 27.2842C27.8767 27.1621 27.8026 27.0511 27.709 26.9577C27.6155 26.8644 27.5044 26.7905 27.3821 26.7404C27.2599 26.6902 27.1289 26.6648 26.9968 26.6655L23.3951 26.6655ZM32.9988 26.9136C32.7269 26.9138 32.4663 27.0219 32.274 27.2142C32.0818 27.4064 31.9736 27.6671 31.9734 27.939C31.9736 28.2109 32.0818 28.4715 32.274 28.6638C32.4663 28.856 32.7269 28.9641 32.9988 28.9644C33.2707 28.9641 33.5314 28.856 33.7236 28.6638C33.9159 28.4715 34.024 28.2109 34.0242 27.939C34.024 27.6671 33.9159 27.4064 33.7236 27.2142C33.5314 27.0219 33.2707 26.9138 32.9988 26.9136V26.9136ZM37.0009 26.939C36.8695 26.9384 36.7394 26.9638 36.6179 27.0136C36.4963 27.0634 36.3858 27.1366 36.2926 27.2291C36.1994 27.3216 36.1253 27.4315 36.0745 27.5527C36.0238 27.6738 35.9974 27.8037 35.9969 27.9351C35.9964 28.0671 36.022 28.1978 36.0723 28.3199C36.1226 28.4419 36.1965 28.5528 36.2898 28.6461C36.3831 28.7394 36.494 28.8134 36.6161 28.8636C36.7381 28.9139 36.8689 28.9395 37.0009 28.939H41.0009C41.1323 28.9385 41.2622 28.9121 41.3833 28.8614C41.5045 28.8107 41.6144 28.7366 41.7069 28.6433C41.7994 28.5501 41.8726 28.4396 41.9224 28.3181C41.9722 28.1965 41.9976 28.0664 41.9971 27.9351C41.996 27.6712 41.8907 27.4184 41.7042 27.2319C41.5176 27.0453 41.2648 26.94 41.0009 26.939L37.0009 26.939ZM16.1977 28.6656C15.9335 28.6666 15.6805 28.7722 15.4938 28.9592C15.3072 29.1462 15.2021 29.3994 15.2016 29.6636V38.0271C15.2006 38.2923 15.305 38.547 15.4918 38.7353C15.6786 38.9236 15.9325 39.0299 16.1977 39.031H19.7993C19.9308 39.0307 20.061 39.0045 20.1823 38.9539C20.3037 38.9033 20.4138 38.8293 20.5066 38.736C20.5993 38.6428 20.6727 38.5321 20.7226 38.4105C20.7725 38.2889 20.7979 38.1586 20.7974 38.0271V29.6636C20.7969 29.3991 20.6915 29.1455 20.5045 28.9585C20.3174 28.7714 20.0639 28.6661 19.7993 28.6656H16.1977ZM24.399 28.6656H26.0006V37.031H24.399V28.6656ZM9.00029 30.6676C8.73508 30.6665 8.48033 30.7709 8.29206 30.9577C8.1038 31.1445 7.99744 31.3985 7.99638 31.6637V38.0271C7.99588 38.1591 8.0215 38.2898 8.07177 38.4119C8.12204 38.5339 8.19597 38.6448 8.2893 38.7381C8.38262 38.8314 8.49349 38.9053 8.61552 38.9556C8.73755 39.0059 8.86832 39.0315 9.00029 39.031H12.5961C12.7281 39.0315 12.8588 39.0059 12.9809 38.9556C13.1029 38.9053 13.2138 38.8314 13.3071 38.7381C13.4004 38.6448 13.4743 38.5339 13.5246 38.4119C13.5749 38.2898 13.6005 38.1591 13.6 38.0271V31.6637C13.5989 31.3985 13.4926 31.1445 13.3043 30.9577C13.116 30.7709 12.8613 30.6665 12.5961 30.6676H9.00029ZM17.2016 30.6676H18.7954V37.031H17.2016V30.6676ZM32.9988 31.9137C32.7269 31.9139 32.4663 32.022 32.274 32.2143C32.0818 32.4065 31.9736 32.6672 31.9734 32.9391C31.9736 33.211 32.0818 33.4717 32.274 33.6639C32.4663 33.8562 32.7269 33.9643 32.9988 33.9645C33.2707 33.9643 33.5314 33.8562 33.7236 33.6639C33.9159 33.4717 34.024 33.211 34.0242 32.9391C34.024 32.6672 33.9159 32.4065 33.7236 32.2143C33.5314 32.022 33.2707 31.9139 32.9988 31.9137V31.9137ZM37.0009 31.9371C36.8689 31.9366 36.7381 31.9622 36.6161 32.0125C36.494 32.0627 36.3831 32.1367 36.2898 32.23C36.1965 32.3233 36.1226 32.4342 36.0723 32.5562C36.022 32.6783 35.9964 32.8091 35.9969 32.941C35.9974 33.0724 36.0238 33.2023 36.0745 33.3234C36.1253 33.4446 36.1994 33.5545 36.2926 33.647C36.3858 33.7395 36.4963 33.8127 36.6179 33.8625C36.7394 33.9123 36.8695 33.9377 37.0009 33.9372H46.9952C47.1265 33.9377 47.2567 33.9123 47.3782 33.8625C47.4997 33.8128 47.6102 33.7395 47.7035 33.647C47.7967 33.5545 47.8708 33.4446 47.9215 33.3234C47.9722 33.2023 47.9986 33.0724 47.9991 32.941C47.9996 32.8091 47.974 32.6783 47.9237 32.5562C47.8735 32.4342 47.7995 32.3233 47.7062 32.23C47.6129 32.1367 47.502 32.0628 47.38 32.0125C47.2579 31.9622 47.1272 31.9366 46.9952 31.9371L37.0009 31.9371ZM9.99642 32.6676H11.598V37.031H9.99642V32.6676ZM32.9988 36.9138C32.7269 36.914 32.4663 37.0221 32.274 37.2144C32.0818 37.4066 31.9736 37.6673 31.9734 37.9392C31.9736 38.2111 32.0818 38.4717 32.274 38.664C32.4663 38.8562 32.7269 38.9644 32.9988 38.9646C33.2707 38.9644 33.5314 38.8562 33.7236 38.664C33.9159 38.4717 34.024 38.2111 34.0242 37.9392C34.024 37.6673 33.9159 37.4066 33.7236 37.2144C33.5314 37.0221 33.2707 36.914 32.9988 36.9138V36.9138ZM37.0009 36.941C36.8695 36.9405 36.7394 36.9658 36.6179 37.0156C36.4963 37.0654 36.3858 37.1386 36.2926 37.2311C36.1994 37.3236 36.1253 37.4336 36.0745 37.5547C36.0238 37.6758 35.9974 37.8058 35.9969 37.9371C35.9962 38.0692 36.0216 38.2002 36.0717 38.3225C36.1219 38.4447 36.1958 38.5559 36.2891 38.6494C36.3825 38.7429 36.4934 38.817 36.6156 38.8674C36.7378 38.9178 36.8687 38.9435 37.0009 38.943H41.0009C41.1324 38.9425 41.2625 38.916 41.3838 38.8652C41.505 38.8143 41.6151 38.7401 41.7076 38.6466C41.8001 38.5532 41.8733 38.4424 41.923 38.3207C41.9727 38.1989 41.9978 38.0686 41.9971 37.9371C41.996 37.6732 41.8907 37.4205 41.7042 37.2339C41.5176 37.0473 41.2648 36.942 41.0009 36.941H37.0009ZM17.2094 44.9392H19.4556L14.5805 54.5195C14.3212 55.0287 13.7439 55.2162 13.2348 54.957C12.7264 54.6982 12.5383 54.118 12.7973 53.6093L17.2094 44.9392ZM36.5419 44.9392H38.786L43.2002 53.6093C43.4592 54.118 43.271 54.6982 42.7627 54.957C42.2535 55.2162 41.6762 55.0287 41.417 54.5195L36.5419 44.9392ZM28.0026 52.0311C28.8034 52.0311 29.4265 52.6621 29.4265 53.4628C29.4265 54.2635 28.8034 54.8867 28.0026 54.8867C27.2019 54.8867 26.569 54.2635 26.569 53.4628C26.569 52.6621 27.2019 52.0311 28.0026 52.0311Z" fill="#424241"/>
</svg>
