<svg width="24" height="24" viewBox="0 0 24 24" fill="none" xmlns="http://www.w3.org/2000/svg">
<path d="M19.197 16C18.539 14.586 17.13 13.624 15.496 13.624C15.419 13.624 15.342 13.626 15.266 13.63L11.997 17.53L8.717 13.63C8.668 13.628 8.611 13.627 8.554 13.627C6.906 13.627 5.482 14.585 4.808 15.975C4.386 16.875 4.101 17.892 4 18.963L5.997 19V20H17.997V19H19.997C19.893 17.893 19.609 16.876 19.173 15.943L19.197 16Z" fill="#1C2E45" fill-opacity="0.6"/>
<path d="M10.567 12.73C10.529 13.104 10.245 13.401 9.882 13.459L11.997 16L14.117 13.48C13.749 13.421 13.465 13.124 13.427 12.753C13.427 12.14 14.227 12.34 14.857 11.3C14.857 11.27 17.737 4 11.997 4C6.257 4 9.137 11.27 9.137 11.27C9.767 12.32 10.577 12.12 10.567 12.73Z" fill="#1C2E45" fill-opacity="0.6"/>
</svg>
