<svg width="24" height="24" viewBox="0 0 24 24" fill="none" xmlns="http://www.w3.org/2000/svg">
<path d="M11.9 9.99998C12.1 9.99998 12.2 9.79998 12.2 9.49998V8.09998C12.2 7.79998 12.1 7.59998 11.9 7.59998C11.7 7.59998 11.6 7.79998 11.6 8.09998V9.49998C11.6 9.79998 11.7 9.99998 11.9 9.99998Z" fill="#1C2E45" fill-opacity="0.6"/>
<path d="M11.1 15.9C11 16.1 10.8 16.2 10.7 16.2C10.6 16.2 10.6 16.2 10.6 16.1C10.6 16.1 10.6 16 10.6 15.9V13.4H10V16C10 16.2 10 16.4 10.1 16.5C10.2 16.7 10.3 16.7 10.5 16.7C10.7 16.7 10.9 16.6 11.2 16.3V16.7H11.8V13.4H11.1V15.9Z" fill="#1C2E45" fill-opacity="0.6"/>
<path d="M7.79999 12.9H8.49999V16.7H9.19999V12.9H9.89999V12.2H7.79999V12.9Z" fill="#1C2E45" fill-opacity="0.6"/>
<path d="M13.4 13.3C13.2 13.3 13 13.5 12.8 13.7V12.2H12.2V16.6H12.8V16.3C13 16.5 13.2 16.7 13.4 16.7C13.6 16.7 13.8 16.6 13.9 16.3C13.9 16.2 14 15.9 14 15.6V14.3C14 14 14 13.8 13.9 13.6C13.8 13.5 13.7 13.3 13.4 13.3ZM13.4 15.7C13.4 16 13.3 16.1 13.1 16.1C13 16.1 12.9 16.1 12.8 16V14C12.9 13.9 13 13.9 13.1 13.9C13.3 13.9 13.4 14.1 13.4 14.4V15.7Z" fill="#1C2E45" fill-opacity="0.6"/>
<path d="M15.3 13.3C15 13.3 14.8 13.4 14.6 13.6C14.5 13.8 14.4 14 14.4 14.4V15.6C14.4 16 14.5 16.2 14.6 16.4C14.8 16.6 15 16.7 15.3 16.7C15.6 16.7 15.9 16.6 16 16.3C16.1 16.2 16.1 16.1 16.1 15.9C16.1 15.8 16.1 15.7 16.1 15.5V15.4H15.5C15.5 15.6 15.5 15.8 15.5 15.8C15.5 16 15.4 16 15.2 16C15 16 14.9 15.8 14.9 15.5V14.9H16.1V14.2C16.1 13.8 16 13.6 15.9 13.4C15.9 13.5 15.6 13.3 15.3 13.3ZM15.6 14.6H15V14.3C15 14 15.1 13.8 15.3 13.8C15.5 13.8 15.6 14 15.6 14.3V14.6Z" fill="#1C2E45" fill-opacity="0.6"/>
<path d="M4 4V20H20V4H4ZM13.3 7.1H13.9V9.6C13.9 9.7 13.9 9.8 13.9 9.8C13.9 9.9 13.9 10 14 10C14.1 10 14.2 9.9 14.4 9.7V7.1H15V10.4H14.4V10.1C14.2 10.4 13.9 10.5 13.7 10.5C13.5 10.5 13.4 10.4 13.3 10.3C13.3 10.2 13.2 10 13.2 9.8V7.1H13.3ZM11 8.2C11 7.9 11 7.6 11.2 7.4C11.4 7.2 11.6 7.1 11.9 7.1C12.2 7.1 12.4 7.2 12.6 7.4C12.7 7.6 12.8 7.8 12.8 8.2V9.4C12.8 9.8 12.7 10 12.6 10.2C12.4 10.4 12.2 10.5 11.9 10.5C11.6 10.5 11.4 10.4 11.2 10.2C11 10 11 9.8 11 9.4V8.2ZM9.3 6L9.8 7.8L10.3 6H11L10.2 8.7V10.5H9.5V8.7C9.4 8.3 9.3 7.9 9.1 7.2C8.9 6.8 8.8 6.4 8.6 6H9.3ZM16.8 16.9C16.7 17.4 16.2 17.8 15.7 17.9C14.5 18 13.2 18 12 18C10.8 18 9.5 18 8.3 17.9C7.8 17.8 7.3 17.5 7.2 16.9C7 16.1 7 15.3 7 14.5C7 13.8 7 13 7.2 12.2C7.3 11.7 7.8 11.3 8.3 11.2C9.5 11.1 10.8 11.1 12 11.1C13.2 11.1 14.5 11.1 15.7 11.2C16.2 11.3 16.7 11.6 16.8 12.2C17 13 17 13.8 17 14.5C17 15.3 17 16.1 16.8 16.9Z" fill="#1C2E45" fill-opacity="0.6"/>
</svg>
