<svg width="191" height="30" viewBox="0 0 191 30" fill="none" xmlns="http://www.w3.org/2000/svg">
<path d="M16 3.872V7.94H5.524V14.384H13.552V18.38H5.524V29H0.484V3.872H16ZM22.1298 6.68C21.2418 6.68 20.4978 6.404 19.8978 5.852C19.3218 5.276 19.0338 4.568 19.0338 3.728C19.0338 2.888 19.3218 2.192 19.8978 1.64C20.4978 1.064 21.2418 0.775999 22.1298 0.775999C23.0178 0.775999 23.7498 1.064 24.3258 1.64C24.9258 2.192 25.2258 2.888 25.2258 3.728C25.2258 4.568 24.9258 5.276 24.3258 5.852C23.7498 6.404 23.0178 6.68 22.1298 6.68ZM24.6138 9.056V29H19.5738V9.056H24.6138ZM40.6454 8.768C43.0214 8.768 44.9414 9.524 46.4054 11.036C47.8694 12.524 48.6014 14.612 48.6014 17.3V29H43.5614V17.984C43.5614 16.4 43.1654 15.188 42.3734 14.348C41.5814 13.484 40.5014 13.052 39.1334 13.052C37.7414 13.052 36.6374 13.484 35.8214 14.348C35.0294 15.188 34.6334 16.4 34.6334 17.984V29H29.5934V9.056H34.6334V11.54C35.3054 10.676 36.1574 10.004 37.1894 9.524C38.2454 9.02 39.3974 8.768 40.6454 8.768ZM71.9342 18.596C71.9342 19.316 71.8862 19.964 71.7902 20.54H57.2102C57.3302 21.98 57.8342 23.108 58.7222 23.924C59.6102 24.74 60.7022 25.148 61.9982 25.148C63.8702 25.148 65.2022 24.344 65.9942 22.736H71.4302C70.8542 24.656 69.7502 26.24 68.1182 27.488C66.4862 28.712 64.4822 29.324 62.1062 29.324C60.1862 29.324 58.4582 28.904 56.9222 28.064C55.4102 27.2 54.2222 25.988 53.3582 24.428C52.5182 22.868 52.0982 21.068 52.0982 19.028C52.0982 16.964 52.5182 15.152 53.3582 13.592C54.1982 12.032 55.3742 10.832 56.8862 9.992C58.3982 9.152 60.1382 8.732 62.1062 8.732C64.0022 8.732 65.6942 9.14 67.1822 9.956C68.6942 10.772 69.8582 11.936 70.6742 13.448C71.5142 14.936 71.9342 16.652 71.9342 18.596ZM66.7142 17.156C66.6902 15.86 66.2222 14.828 65.3102 14.06C64.3982 13.268 63.2822 12.872 61.9622 12.872C60.7142 12.872 59.6582 13.256 58.7942 14.024C57.9542 14.768 57.4382 15.812 57.2462 17.156H66.7142ZM83.2449 29.324C81.6129 29.324 80.1489 29.036 78.8529 28.46C77.5569 27.86 76.5249 27.056 75.7569 26.048C75.0129 25.04 74.6049 23.924 74.5329 22.7H79.6089C79.7049 23.468 80.0769 24.104 80.7249 24.608C81.3969 25.112 82.2249 25.364 83.2089 25.364C84.1689 25.364 84.9129 25.172 85.4409 24.788C85.9929 24.404 86.2689 23.912 86.2689 23.312C86.2689 22.664 85.9329 22.184 85.2609 21.872C84.6129 21.536 83.5689 21.176 82.1289 20.792C80.6409 20.432 79.4169 20.06 78.4569 19.676C77.5209 19.292 76.7049 18.704 76.0089 17.912C75.3369 17.12 75.0009 16.052 75.0009 14.708C75.0009 13.604 75.3129 12.596 75.9369 11.684C76.5849 10.772 77.4969 10.052 78.6729 9.524C79.8729 8.996 81.2769 8.732 82.8849 8.732C85.2609 8.732 87.1569 9.332 88.5729 10.532C89.9889 11.708 90.7689 13.304 90.9129 15.32H86.0889C86.0169 14.528 85.6809 13.904 85.0809 13.448C84.5049 12.968 83.7249 12.728 82.7409 12.728C81.8289 12.728 81.1209 12.896 80.6169 13.232C80.1369 13.568 79.8969 14.036 79.8969 14.636C79.8969 15.308 80.2329 15.824 80.9049 16.184C81.5769 16.52 82.6209 16.868 84.0369 17.228C85.4769 17.588 86.6649 17.96 87.6009 18.344C88.5369 18.728 89.3409 19.328 90.0129 20.144C90.7089 20.936 91.0689 21.992 91.0929 23.312C91.0929 24.464 90.7689 25.496 90.1209 26.408C89.4969 27.32 88.5849 28.04 87.3849 28.568C86.2089 29.072 84.8289 29.324 83.2449 29.324ZM101.098 13.196V22.844C101.098 23.516 101.254 24.008 101.566 24.32C101.902 24.608 102.454 24.752 103.222 24.752H105.562V29H102.394C98.1461 29 96.0221 26.936 96.0221 22.808V13.196H93.6461V9.056H96.0221V4.124H101.098V9.056H105.562V13.196H101.098Z" fill="#F38160"/>
<path d="M136.583 3.872V29H131.543V12.656L124.811 29H120.995L114.227 12.656V29H109.187V3.872H114.911L122.903 22.556L130.895 3.872H136.583ZM140.27 18.956C140.27 16.94 140.666 15.152 141.458 13.592C142.274 12.032 143.366 10.832 144.734 9.992C146.126 9.152 147.674 8.732 149.378 8.732C150.866 8.732 152.162 9.032 153.266 9.632C154.394 10.232 155.294 10.988 155.966 11.9V9.056H161.042V29H155.966V26.084C155.318 27.02 154.418 27.8 153.266 28.424C152.138 29.024 150.83 29.324 149.342 29.324C147.662 29.324 146.126 28.892 144.734 28.028C143.366 27.164 142.274 25.952 141.458 24.392C140.666 22.808 140.27 20.996 140.27 18.956ZM155.966 19.028C155.966 17.804 155.726 16.76 155.246 15.896C154.766 15.008 154.118 14.336 153.302 13.88C152.486 13.4 151.61 13.16 150.674 13.16C149.738 13.16 148.874 13.388 148.082 13.844C147.29 14.3 146.642 14.972 146.138 15.86C145.658 16.724 145.418 17.756 145.418 18.956C145.418 20.156 145.658 21.212 146.138 22.124C146.642 23.012 147.29 23.696 148.082 24.176C148.898 24.656 149.762 24.896 150.674 24.896C151.61 24.896 152.486 24.668 153.302 24.212C154.118 23.732 154.766 23.06 155.246 22.196C155.726 21.308 155.966 20.252 155.966 19.028ZM171.004 12.152C171.652 11.096 172.492 10.268 173.524 9.668C174.58 9.068 175.78 8.768 177.124 8.768V14.06H175.792C174.208 14.06 173.008 14.432 172.192 15.176C171.4 15.92 171.004 17.216 171.004 19.064V29H165.964V9.056H171.004V12.152ZM186.387 13.196V22.844C186.387 23.516 186.543 24.008 186.855 24.32C187.191 24.608 187.743 24.752 188.511 24.752H190.851V29H187.683C183.435 29 181.311 26.936 181.311 22.808V13.196H178.935V9.056H181.311V4.124H186.387V9.056H190.851V13.196H186.387Z" fill="#F0B70D"/>
</svg>
