<svg width="96" height="96" viewBox="0 0 96 96" fill="none" xmlns="http://www.w3.org/2000/svg">
<path d="M57.4772 23.3594H23.6986V62.0356H57.4772V23.3594Z" fill="#FFAD31"/>
<path d="M57.4772 62.0355V67.3073L42.7788 67.3196L40.6063 65.1532L39.1948 66.5585L38.5504 67.203L36.5313 65.2023L34.4753 67.2336L32.3212 65.0979L30.0873 67.3073L27.9332 65.1777L25.8466 67.2397L23.6986 65.1163V62.0355H57.4772Z" fill="#FF6B6E"/>
<path d="M39.9388 62.0355C40.5034 59.0958 41.6081 56.2789 43.1975 53.732C42.8968 53.554 42.7311 53.3515 42.7311 53.1367V47.3433C42.7311 46.5147 45.2596 45.8458 48.3773 45.8458C51.4949 45.8458 54.0235 46.5147 54.0235 47.3433V53.1367C54.0235 53.3515 53.8577 53.554 53.557 53.732C55.1464 56.2789 56.2573 59.0958 56.8219 62.0355H39.9388Z" fill="#FF8D29"/>
<path d="M57.4779 66.0492V67.3073L42.7795 67.3196L40.607 65.1532L39.1956 66.5586L39.797 62.8149C39.8398 62.5511 39.8828 62.2933 39.9381 62.0355H56.8212C56.8765 62.2933 56.9195 62.5511 56.9625 62.8149L57.4779 66.0492Z" fill="#DB4A4D"/>
<path d="M57.4772 19.849V23.3594H23.6986V19.9656L25.8466 17.8422L27.9332 19.9043L30.0873 17.7685L32.3212 19.9779L34.4753 17.8483L36.5313 19.8736L38.5504 17.8729L40.5757 19.8736L42.7297 17.744L44.9391 19.9288L46.989 17.9036L49.0142 19.9043L51.1192 17.8237L53.2734 19.9534L55.4275 17.8237L57.4772 19.849Z" fill="#FF6B6E"/>
<path d="M57.4804 23.3594V61.785C53.5221 61.3062 52.8164 59.6921 52.8164 59.6921C52.8164 59.6921 47.2685 49.6393 52.8164 37.9723H52.8654C52.4911 37.512 52.3438 36.8921 52.4911 36.2846L52.5157 36.1802H52.6691C52.1658 35.8856 51.8159 35.5543 51.6687 35.1983C49.2446 29.7668 51.5828 26.0108 51.5828 26.0108C51.5828 24.7772 53.9578 23.7277 57.2534 23.3594H57.4804V23.3594ZM44.7077 37.5606V37.5667C44.5973 37.9534 44.4992 38.1866 44.4992 38.1866C39.3747 51.351 28.9909 46.7972 28.9909 46.7972C37.8343 45.5268 38.8284 36.2472 38.8284 36.2472C38.8284 36.2472 40.2461 34.9523 41.2895 34.5902C41.2895 34.5902 42.0381 35.9772 42.0259 36.6584L43.1857 34.8847C43.1858 34.8847 44.3212 35.6826 44.7077 37.5606ZM42.0782 33.0946C41.7622 33.0946 41.4938 32.8523 41.4673 32.5318C41.4373 32.1707 41.2118 28.9656 42.5004 27.6489C42.9073 27.2328 43.4305 27.0315 44.0172 27.0676C44.3556 27.0883 44.6131 27.3793 44.5923 27.7176C44.5716 28.056 44.2799 28.3128 43.9423 28.2928C43.7099 28.2783 43.5369 28.3447 43.3779 28.507C42.6999 29.1991 42.5964 31.281 42.6905 32.4306C42.7182 32.7684 42.467 33.0648 42.1292 33.0925C42.1122 33.094 42.0951 33.0946 42.0782 33.0946Z" fill="#FF8D29"/>
<path d="M44.6935 37.6555C44.3069 35.7776 43.1714 34.9799 43.1714 34.9799L42.0114 36.7534C42.0236 36.0723 41.275 34.6854 41.275 34.6854C40.2315 35.0474 38.8136 36.3423 38.8136 36.3423C39.1022 34.6854 39.7834 33.7587 40.526 33.2432C42.0789 32.1632 44.3007 33.0284 44.7855 34.851C45.0618 35.9127 44.8715 36.9988 44.6935 37.6555Z" fill="#FF8D29"/>
<path d="M43.9955 37.0329C43.6089 35.155 42.4736 34.3573 42.4736 34.3573L41.3138 36.1308C41.326 35.4496 40.5775 34.0627 40.5775 34.0627C39.5341 34.4248 38.1165 35.7196 38.1165 35.7196C38.4051 34.0627 39.0862 33.1361 39.8287 32.6206C41.3812 31.5405 43.6028 32.4057 44.0875 34.2284C44.3637 35.2901 44.1734 36.3762 43.9955 37.0329Z" fill="#89CF6E"/>
<path d="M43.997 37.033V37.0392C43.8866 37.4258 43.7885 37.659 43.7885 37.659C38.6641 50.8236 28.2804 46.2698 28.2804 46.2698C37.1237 44.9993 38.1178 35.7196 38.1178 35.7196C38.1178 35.7196 39.5355 34.4246 40.5789 34.0626C40.5789 34.0626 41.3274 35.4496 41.3153 36.1308L42.4751 34.3571C42.4751 34.3572 43.6105 35.155 43.997 37.033Z" fill="#FF6B6E"/>
<path d="M43.997 37.0326V37.0387C43.8866 37.4254 43.7885 37.6586 43.7885 37.6586C38.6641 50.8227 28.2804 46.269 28.2804 46.269C29.3053 46.1217 30.2258 45.8639 31.0544 45.5264C34.3928 45.1827 38.5721 43.182 41.2907 36.2102C41.2907 36.2102 41.303 36.1795 41.3274 36.1182C41.3274 36.112 41.3274 36.112 41.3337 36.1059L42.4751 34.3568C42.4751 34.3568 43.6105 35.1546 43.997 37.0326Z" fill="#DB4A4D"/>
<path d="M41.708 32.6096C41.392 32.6096 41.1236 32.3672 41.0971 32.0468C41.0671 31.6857 40.8417 28.4808 42.1302 27.1641C42.5371 26.7481 43.0603 26.5468 43.647 26.5828C43.9853 26.6035 44.2429 26.8945 44.222 27.2328C44.2014 27.5711 43.9097 27.828 43.5721 27.8079C43.3397 27.7935 43.1667 27.8599 43.0077 28.0222C42.3297 28.7143 42.2262 30.7961 42.3203 31.9456C42.348 32.2833 42.0967 32.5797 41.759 32.6075C41.742 32.6089 41.7249 32.6096 41.708 32.6096Z" fill="#89CF6E"/>
<path d="M26.8497 39.7361C26.3414 39.7361 25.9292 39.3239 25.9292 38.8155V29.7218C25.9292 29.2134 26.3414 28.8012 26.8497 28.8012C27.3581 28.8012 27.7703 29.2134 27.7703 29.7218V38.8155C27.7703 39.3239 27.3581 39.7361 26.8497 39.7361Z" fill="#FFE8C4"/>
<path d="M57.4778 19.8494V23.36H53.3679V19.8617L55.4291 17.824L57.4778 19.8494Z" fill="#DB4A4D"/>
<path d="M62.8169 77.152C67.1033 77.152 70.6288 76.052 71.0528 74.6425L71.1211 74.6519C74.4556 67.1832 69.6463 61.5786 69.6463 61.5786H55.9951V77.1154L62.8169 77.152Z" fill="#FFAD31"/>
<path d="M71.1209 74.6537L71.0534 74.6414C70.6298 76.053 67.1008 77.1514 62.817 77.1514L60.1104 77.1392C64.0077 77.0042 67.1131 75.9608 67.506 74.6414L67.5734 74.6537C70.9123 67.1848 66.1005 61.5816 66.1005 61.5816H69.6479C69.6479 61.5816 74.4535 67.1848 71.1209 74.6537Z" fill="#FF8D29"/>
<path d="M55.47 60.4092L55.4435 60.5184C55.2332 61.385 55.6322 62.2891 56.4274 62.7087C57.766 63.415 60.1099 63.8832 62.7777 63.8832C65.4036 63.8832 67.737 63.47 69.0641 62.7419C70.351 62.0357 69.9879 60.7876 69.6952 59.8863L55.47 60.4092Z" fill="#FF6B6E"/>
<path d="M55.7701 37.9742C50.2239 49.6412 55.7701 59.6936 55.7701 59.6936C55.7701 59.6936 56.7441 61.9164 62.8169 61.9164C66.4744 61.9164 69.4713 60.9614 69.7395 59.7498L69.7303 59.6936C69.7303 59.6936 75.2765 49.6412 69.7303 37.9742H55.7701Z" fill="#FFAD31"/>
<path d="M69.0659 62.7419C67.7342 63.4724 65.4023 63.8836 62.7757 63.8836C62.1989 63.8836 61.6404 63.8591 61.1004 63.8161C62.972 63.6749 64.5799 63.3005 65.5924 62.7419C66.8259 62.0666 66.5436 60.9003 66.2614 60.0101L69.6918 59.8874C69.9864 60.7897 70.3483 62.0359 69.0659 62.7419Z" fill="#DB4A4D"/>
<path d="M55.7701 37.9742C50.2239 49.6412 55.7701 59.6936 55.7701 59.6936C55.7701 59.6936 56.7441 61.9164 62.8169 61.9164C66.4744 61.9164 69.4713 60.9614 69.7395 59.7498L69.7303 59.6936C69.7303 59.6936 75.2765 49.6412 69.7303 37.9742H55.7701Z" fill="#FFAD31"/>
<path d="M69.729 59.6901L69.7411 59.7515C69.4712 60.9605 66.4767 61.9179 62.8194 61.9179C62.1567 61.9179 61.5492 61.8933 61.003 61.8381C63.8381 61.5988 65.9674 60.7641 66.1943 59.7515C66.1943 59.7515 71.7293 49.6375 66.182 37.9709H69.729C75.2761 49.6375 69.729 59.6901 69.729 59.6901Z" fill="#FF8D29"/>
<path d="M55.47 36.1764L55.4435 36.2856C55.2332 37.1521 55.6322 38.056 56.4274 38.4756C57.7659 39.1818 60.1098 39.6499 62.7776 39.6499C65.4034 39.6499 67.7154 39.1964 69.0639 38.5087C69.9147 38.0748 70.3015 37.0776 70.0088 36.1764H55.47V36.1764Z" fill="#FF8D29"/>
<path d="M54.6208 35.1957C52.1977 29.7687 54.5392 26.0114 54.5392 26.0114H71.1121C71.1121 26.0114 73.3922 29.7073 70.9691 35.1344C70.5451 36.5439 67.1046 37.5916 62.8181 37.5916C58.5316 37.5916 55.0059 36.4917 54.5819 35.0822L54.6208 35.1957Z" fill="#FFAD31"/>
<path d="M62.8174 28.8071C67.3895 28.8071 71.0959 27.5557 71.0959 26.0119C71.0959 24.4681 67.3895 23.2167 62.8174 23.2167C58.2453 23.2167 54.5389 24.4681 54.5389 26.0119C54.5389 27.5557 58.2453 28.8071 62.8174 28.8071Z" fill="#FFE8C4"/>
<path d="M55.47 36.1764L55.4435 36.2856C55.2332 37.1521 55.6322 38.056 56.4274 38.4756C57.7659 39.1818 60.1098 39.6499 62.7776 39.6499C65.4034 39.6499 67.7154 39.1964 69.0639 38.5087C69.9147 38.0748 70.3015 37.0776 70.0088 36.1764H55.47V36.1764Z" fill="#FF6B6E"/>
<path d="M69.0657 38.5112C67.7155 39.1985 65.402 39.6526 62.7754 39.6526C62.1801 39.6526 61.6031 39.628 61.0508 39.5851C62.9411 39.4317 64.5489 39.0389 65.5921 38.5112C66.4453 38.0755 66.8318 37.0754 66.5373 36.1794H70.0109C70.2993 37.0754 69.9126 38.0755 69.0657 38.5112Z" fill="#DB4A4D"/>
<path d="M54.6208 35.1957C52.1977 29.7687 54.5392 26.0114 54.5392 26.0114H71.1121C71.1121 26.0114 73.3922 29.7073 70.9691 35.1344C70.5451 36.5439 67.1046 37.5916 62.8181 37.5916C58.5316 37.5916 55.0059 36.4917 54.5819 35.0822L54.6208 35.1957Z" fill="#FFAD31"/>
<path d="M56.023 34.4203C55.6144 34.4203 55.2414 34.1463 55.1331 33.7326C54.8104 32.4989 54.6794 31.2611 54.7438 30.0537C54.7707 29.546 55.2034 29.1586 55.7118 29.1834C56.2195 29.2105 56.609 29.644 56.5819 30.1517C56.5277 31.169 56.6394 32.217 56.914 33.2665C57.0427 33.7584 56.7483 34.2614 56.2565 34.3901C56.1785 34.4106 56.1001 34.4203 56.023 34.4203ZM56.108 45.8854C55.7234 45.7477 55.4646 45.364 55.502 44.938C55.6139 43.6677 55.9076 42.4582 56.3752 41.3431C56.5716 40.8742 57.1095 40.6554 57.5798 40.85C58.0487 41.0467 58.2693 41.5862 58.0727 42.0549C57.6788 42.9945 57.4309 44.0188 57.3358 45.0995C57.2912 45.606 56.8445 45.9804 56.3381 45.9358C56.2577 45.9287 56.1807 45.9114 56.108 45.8854Z" fill="#FFE8C4"/>
<path d="M70.9688 35.136C70.5454 36.5414 67.1022 37.5909 62.8183 37.5909C62.2109 37.5909 61.6216 37.5663 61.0508 37.5234C64.4756 37.284 67.0594 36.3389 67.4214 35.136C69.8458 29.7047 67.5625 26.0101 67.5625 26.0101H71.1101C71.1101 26.0101 73.3931 29.7047 70.9688 35.136Z" fill="#FF8D29"/>
<path d="M62.8174 28.8071C67.3895 28.8071 71.0959 27.5557 71.0959 26.0119C71.0959 24.4681 67.3895 23.2167 62.8174 23.2167C58.2453 23.2167 54.5389 24.4681 54.5389 26.0119C54.5389 27.5557 58.2453 28.8071 62.8174 28.8071Z" fill="#E4E5E6"/>
<path d="M71.0969 26.0102C71.0969 27.5569 67.3901 28.809 62.8178 28.809C62.2104 28.809 61.615 28.7844 61.0443 28.7476C64.7634 28.4714 67.5497 27.3482 67.5497 26.0102C67.5497 24.6721 64.7634 23.5551 61.0443 23.279C61.615 23.2421 62.2104 23.2175 62.8178 23.2175C67.3901 23.2175 71.0969 24.4696 71.0969 26.0102Z" fill="#D4D4D4"/>
<path d="M48.3774 63.3499C48.3629 63.3499 48.3484 63.3495 48.3337 63.3485C47.6007 63.2967 46.8999 63.2169 46.251 63.1114C45.9164 63.0569 45.6894 62.7413 45.7438 62.4064C45.7982 62.0716 46.1135 61.8453 46.4482 61.8988C47.0604 61.9985 47.7238 62.074 48.42 62.123C48.758 62.1469 49.0129 62.4405 48.9891 62.7789C48.9663 63.1025 48.6968 63.3499 48.3774 63.3499ZM50.3497 63.418C50.0107 63.418 49.7359 63.143 49.7359 62.8038C49.7359 62.4646 50.0107 62.1896 50.3497 62.1896C52.6389 62.1896 54.7574 61.9203 56.1616 61.4506C56.4825 61.3431 56.8308 61.5167 56.9382 61.8386C57.0456 62.1602 56.8721 62.5083 56.5506 62.6158C55.0261 63.1256 52.7658 63.418 50.3497 63.418Z" fill="#333333"/>
<path d="M55.4542 54.8331C57.2272 57.6383 58.41 60.7681 58.9318 64.0356L61.3654 79.2759V79.5416C61.3654 81.1556 56.4332 82.4641 50.3491 82.4641C44.265 82.4641 39.3329 81.1556 39.3329 79.5416V79.2759L41.7665 64.0356C42.2883 60.7681 43.471 57.6383 45.244 54.8331H55.4542Z" fill="#E4E5E6"/>
<path d="M61.3686 79.2744V79.5444C61.3686 81.1585 56.4343 82.4657 50.3525 82.4657C49.7695 82.4657 49.1986 82.4534 48.6341 82.435C53.9058 82.2141 57.9379 81.005 57.9379 79.5444V79.2744L55.5015 64.0353C54.9798 60.7702 53.7954 57.6402 52.0218 54.8293H55.4524C57.2261 57.6402 58.4105 60.7702 58.9322 64.0353L61.3686 79.2744Z" fill="#D4D4D4"/>
<path d="M46.0507 79.8075C46.7927 79.8075 47.3942 79.2128 47.3942 78.4791C47.3942 77.7454 46.7927 77.1507 46.0507 77.1507C45.3087 77.1507 44.7072 77.7454 44.7072 78.4791C44.7072 79.2128 45.3087 79.8075 46.0507 79.8075Z" fill="white"/>
<path d="M55.9943 48.5646V54.3615C55.9943 55.1886 53.467 55.8592 50.3495 55.8592C47.2319 55.8592 44.7047 55.1886 44.7047 54.3615V48.5646H55.9943Z" fill="white"/>
<path d="M54.6486 79.8075C55.3909 79.8075 55.9926 79.2128 55.9926 78.4791C55.9926 77.7454 55.3909 77.1507 54.6486 77.1507C53.9063 77.1507 53.3046 77.7454 53.3046 78.4791C53.3046 79.2128 53.9063 79.8075 54.6486 79.8075Z" fill="white"/>
<path d="M50.3493 76.6191C51.0913 76.6191 51.6928 76.0243 51.6928 75.2907C51.6928 74.557 51.0913 73.9622 50.3493 73.9622C49.6073 73.9622 49.0058 74.557 49.0058 75.2907C49.0058 76.0243 49.6073 76.6191 50.3493 76.6191Z" fill="white"/>
<path d="M44.4389 75.026C45.1809 75.026 45.7824 74.431 45.7824 73.6971C45.7824 72.9632 45.1809 72.3682 44.4389 72.3682C43.6969 72.3682 43.0954 72.9632 43.0954 73.6971C43.0954 74.431 43.6969 75.026 44.4389 75.026Z" fill="white"/>
<path d="M55.9945 48.5646V54.358C55.9945 55.1866 53.4718 55.8555 50.3538 55.8555C49.7584 55.8555 49.1813 55.8309 48.6413 55.7819C50.9184 55.5916 52.5634 55.027 52.5634 54.358V48.5646H55.9945V48.5646Z" fill="#E4E5E6"/>
<path d="M56.2594 75.026C57.0016 75.026 57.6034 74.431 57.6034 73.6971C57.6034 72.9632 57.0016 72.3682 56.2594 72.3682C55.5171 72.3682 54.9154 72.9632 54.9154 73.6971C54.9154 74.431 55.5171 75.026 56.2594 75.026Z" fill="white"/>
<path d="M50.3495 50.0619C53.467 50.0619 55.9943 49.3915 55.9943 48.5644C55.9943 47.7374 53.467 47.067 50.3495 47.067C47.2319 47.067 44.7046 47.7374 44.7046 48.5644C44.7046 49.3915 47.2319 50.0619 50.3495 50.0619Z" fill="white"/>
<path d="M55.9946 48.5649C55.9946 49.3937 53.4718 50.0628 50.3538 50.0628C49.8628 50.0628 49.3901 50.0444 48.9421 50.0137C51.3788 49.848 53.1772 49.2647 53.1772 48.5649C53.1772 47.865 51.3788 47.2818 48.9421 47.116C49.3901 47.0853 49.8628 47.067 50.3538 47.067C53.4718 47.067 55.9946 47.7361 55.9946 48.5649Z" fill="#E4E5E6"/>
</svg>
