<svg width="96" height="96" viewBox="0 0 96 96" fill="none" xmlns="http://www.w3.org/2000/svg">
<path d="M43.4214 42.1629L43.4089 42.2066L34.6959 70.4359H29.288C28.9125 70.3983 28.5494 70.3607 28.1989 70.3107C25.1631 69.9288 23.1288 69.1652 23.1288 68.1574L20.863 47.5395L19.0542 42.1629H43.4214V42.1629Z" fill="#E4E5E6"/>
<path d="M43.3525 42.3945L41.9692 46.87L34.6959 70.436H29.288C28.9125 70.3984 28.5494 70.3608 28.1989 70.3108C25.1631 69.9289 23.1288 69.1653 23.1288 68.1575L20.863 47.5396L20.2996 45.8621L19.461 43.371L19.0542 42.163H42.7516L43.3525 42.3945Z" fill="#E4E5E6"/>
<path d="M44.3665 40.3038L43.4088 42.2067L34.6958 70.436H29.2879C28.9124 70.3984 28.5493 70.3608 28.1988 70.3108L38.6143 45.0047L39.7784 42.163L41.0491 39.0835C41.2806 39.1397 41.4997 39.2023 41.7126 39.2648L44.3665 40.3038Z" fill="#D4D4D4"/>
<path d="M42.3227 39.5025C43.4236 39.8978 43.9347 41.1619 43.4089 42.2067C42.7418 43.5289 41.4986 44.4664 40.044 44.7441L39.0399 44.9358C38.9023 44.9609 38.7583 44.9797 38.6144 45.0048C36.7115 45.2989 34.5333 45.4742 32.2047 45.4742C29.7762 45.4742 26.4088 45.0986 26.4088 45.0986C25.1631 44.9296 24.0303 44.7043 23.0475 44.4351C20.8693 43.853 19.4171 43.0518 19.1042 42.163C19.0603 42.0441 19.0417 41.9188 19.0417 41.7999C19.0417 39.7719 24.9316 38.1321 32.2048 38.1321C35.6099 38.1321 38.7358 38.4107 41.0492 39.0835C41.4613 39.2034 41.9018 39.3514 42.3227 39.5025Z" fill="white"/>
<path d="M43.6092 41.4057C43.6028 41.6748 43.5403 41.9502 43.4089 42.2067C43.0709 42.864 42.5952 43.4335 42.0194 43.8655C41.4434 44.3037 40.7675 44.6041 40.0413 44.7418L39.0399 44.9358C38.9023 44.9609 38.7583 44.9797 38.6144 45.0048C36.7115 45.2989 34.5333 45.4742 32.2047 45.4742C31.9043 45.4742 31.5851 45.4678 31.2658 45.4554C33.1124 45.4053 34.8463 45.2425 36.3923 45.0048C36.5362 44.9797 36.6802 44.9609 36.8179 44.9358L37.8194 44.7418C38.5517 44.6041 39.1524 44.1939 39.7973 43.8655C39.8117 43.8582 39.8261 43.8507 39.8403 43.8431C41.3257 43.0484 40.8027 40.7857 39.1276 40.6073C37.6707 40.452 36.0911 40.3666 34.4393 40.3666C27.3914 40.3666 21.6329 41.9126 21.2949 43.853C19.8677 43.2709 19.0416 42.5573 19.0416 41.7999C19.0416 39.8595 24.4182 38.2761 31.2472 38.1446C31.5601 38.1382 31.8792 38.1321 32.2047 38.1321C32.4614 38.1321 32.718 38.1321 32.9746 38.1382C33.1812 38.1382 33.3815 38.1446 33.588 38.1508C36.4485 38.2134 39.0525 38.5076 41.0491 39.0835C41.0679 39.0896 41.0867 39.0959 41.1055 39.1022C41.312 39.1523 41.5186 39.2085 41.7126 39.2649L42.3198 39.5028C43.1459 39.797 43.6467 40.592 43.6092 41.4057Z" fill="#D4D4D4"/>
<path d="M24.2017 54.9404C23.72 54.9404 23.31 54.572 23.2674 54.083L22.9116 49.9997C22.8667 49.4832 23.2489 49.0279 23.7655 48.9829C24.2822 48.9375 24.7373 49.3201 24.7823 49.8368L25.1381 53.9201C25.183 54.4366 24.8008 54.8918 24.2842 54.9369C24.2565 54.9393 24.229 54.9404 24.2017 54.9404Z" fill="white"/>
<path d="M75.2997 38.2323C75.2997 39.8345 70.768 41.1365 65.1786 41.1365C59.6015 41.1365 55.0761 39.8409 55.0636 38.2385V38.2323C55.0636 38.0946 55.0949 37.9693 55.1576 37.8379C55.1638 37.8379 55.1638 37.8318 55.1638 37.8318C57.0541 29.92 59.8207 26.5025 59.8207 26.5025H70.5614C70.5614 26.5025 73.3406 29.9388 75.237 37.9068C75.237 37.9131 75.2433 37.9131 75.2433 37.9193C75.2558 37.9882 75.2746 38.0633 75.2934 38.1383C75.2934 38.1447 75.2934 38.1447 75.2934 38.1509C75.2997 38.1759 75.2997 38.2072 75.2997 38.2323Z" fill="#E4E5E6"/>
<path d="M76.9584 54.0305C76.9584 58.4933 76.6329 63.5571 75.8193 69.2719C75.8193 70.8678 71.3814 71.6691 65.7168 71.6691C65.2661 71.6691 64.8343 71.6691 64.4212 71.6628C64.2647 71.6565 64.1144 71.6565 63.9643 71.6503C63.8327 71.6503 63.7139 71.6503 63.5887 71.644C58.4936 71.5251 56.0651 70.9867 54.9196 70.5363C54.3125 70.2983 53.9119 69.71 53.9119 69.059V45.9316C53.9119 45.3184 53.9455 44.703 54.0241 44.0948C54.3045 41.9247 54.6623 39.9754 55.0635 38.2385C55.0761 39.8409 59.6015 41.1364 65.1786 41.1364C67.7886 41.1364 70.1734 40.8548 71.9698 40.3791C74.0166 39.8534 75.2997 39.0835 75.2997 38.2322C75.2997 38.2071 75.2997 38.1758 75.2935 38.1508C75.4186 38.6766 75.5375 39.2211 75.6503 39.7845C75.7004 40.0411 75.7504 40.3039 75.8005 40.5732C75.9069 41.1427 76.007 41.7248 76.1009 42.3258C76.1385 42.5698 76.176 42.8201 76.2136 43.0769C76.2449 43.2896 76.2762 43.5087 76.3013 43.7279C76.3575 44.1221 76.4076 44.5228 76.4577 44.9296C76.683 46.8951 76.8457 49.0294 76.9147 51.3453C76.9272 51.6332 76.9333 51.9274 76.9397 52.2154V52.228C76.9458 52.522 76.9523 52.8163 76.9523 53.1168C76.9584 53.4171 76.9584 53.7238 76.9584 54.0305Z" fill="#89CF6E"/>
<path d="M76.8145 59.3071C76.6455 62.3804 76.3264 65.6978 75.8194 69.272C75.8194 70.8679 71.3815 71.6692 65.7168 71.6692C59.1445 71.6692 56.2152 71.0432 54.9195 70.5364C54.3124 70.2984 53.9119 69.7101 53.9119 69.0591V61.7734L62.0176 62.3743C63.0129 62.4556 64.0707 62.4932 65.1598 62.4932C71.5066 62.4932 76.7394 61.066 76.8145 59.3071Z" fill="#E4E5E6"/>
<path d="M76.9584 54.0305C76.9584 58.4933 76.6329 63.5571 75.8194 69.2719C75.8194 70.8679 71.3815 71.6691 65.7168 71.6691C64.9595 71.6691 64.2523 71.6628 63.5887 71.644C68.4397 71.5001 72.0262 70.7051 72.0262 69.2719C72.8337 63.5634 73.1654 58.5059 73.1654 54.0494C73.1654 34.414 66.7621 26.5023 66.7621 26.5023H70.5615C70.5615 26.5023 76.9584 34.4077 76.9584 54.0305Z" fill="#D4D4D4"/>
<path d="M76.9584 54.0304C76.9584 55.7016 76.9147 57.4605 76.8144 59.3069C76.7768 60.2521 75.2496 61.0971 72.8587 61.6855C73.0714 58.9626 73.1654 56.4214 73.1654 54.0492C73.1654 48.6223 72.6772 44.0908 71.9698 40.3789C74.0166 39.8533 75.2997 39.0834 75.2997 38.2321C75.2997 38.207 75.2997 38.1757 75.2935 38.1506C75.4186 38.6764 75.5375 39.2209 75.6503 39.7843C75.7004 40.0409 75.7504 40.3038 75.8005 40.573C75.9069 41.1425 76.007 41.7246 76.1009 42.3256C76.1385 42.5697 76.176 42.82 76.2136 43.0767C76.2449 43.2894 76.2762 43.5086 76.3013 43.7277C76.3575 44.122 76.4076 44.5226 76.4578 44.9294C76.683 46.8949 76.8457 49.0293 76.9147 51.3452C76.9272 51.6331 76.9333 51.9272 76.9397 52.2153V52.2278C76.9458 52.5219 76.9523 52.8223 76.9523 53.1166C76.9584 53.417 76.9584 53.7237 76.9584 54.0304ZM59.9742 24.1892V26.7269C59.9742 27.5495 62.3652 28.2163 65.3147 28.2163C68.2643 28.2163 70.6553 27.5495 70.6553 26.7269V24.1892H59.9742Z" fill="#6DBF4D"/>
<path d="M65.3147 20.0129C69.1491 20.0129 72.2574 19.1855 72.2574 18.1648C72.2574 17.144 69.1491 16.3166 65.3147 16.3166C61.4804 16.3166 58.372 17.144 58.372 18.1648C58.372 19.1855 61.4804 20.0129 65.3147 20.0129Z" fill="#89CF6E"/>
<path d="M58.372 18.4288V23.2678C58.372 24.3372 61.4804 25.2041 65.3147 25.2041C69.1491 25.2041 72.2574 24.3372 72.2574 23.2678V18.4288H58.372Z" fill="#89CF6E"/>
<path d="M72.2578 18.165C72.2578 19.1853 69.1468 20.0114 65.3162 20.0114C64.7653 20.0114 64.2271 19.9928 63.7075 19.9613C66.7684 19.7674 69.0404 19.0349 69.0404 18.165C69.0404 17.295 66.7684 16.5626 63.7075 16.3686C64.2271 16.3373 64.7653 16.3185 65.3162 16.3185C69.1468 16.3185 72.2578 17.1446 72.2578 18.165Z" fill="#6DBF4D"/>
<path d="M72.2578 18.4279V23.2663C72.2578 24.3366 69.1469 25.2066 65.3163 25.2066C64.7654 25.2066 64.2272 25.1878 63.7076 25.1502C66.7685 24.95 69.0405 24.1801 69.0405 23.2663V18.4279H72.2578V18.4279ZM69.45 53.5417C69.45 55.3356 67.9791 56.79 66.1647 56.79C64.3504 56.79 62.8795 55.3356 62.8795 53.5417C62.8795 50.4655 66.1647 47.7781 66.1647 47.7781C66.1647 47.7781 69.45 50.5185 69.45 53.5417Z" fill="#6DBF4D"/>
<path d="M68.4716 52.5632C68.4716 54.3572 67.0007 55.8115 65.1863 55.8115C63.372 55.8115 61.9011 54.3572 61.9011 52.5632C61.9011 49.4871 65.1863 46.7996 65.1863 46.7996C65.1863 46.7996 68.4716 49.54 68.4716 52.5632ZM56.5448 48.4453C56.0692 48.3694 55.7224 47.9409 55.7574 47.4513L56.0498 43.363C56.0869 42.8458 56.536 42.4566 57.0534 42.4935C57.5707 42.5301 57.9598 42.9797 57.9228 43.497L57.6304 47.5854C57.5934 48.1025 57.1442 48.4918 56.6269 48.4549C56.5992 48.4529 56.5718 48.4496 56.5448 48.4453Z" fill="white"/>
<path d="M55.1574 37.8376C55.1261 37.9691 55.0948 38.0944 55.0634 38.2321C55.0634 38.0944 55.0947 37.9691 55.1574 37.8376Z" fill="white"/>
<path d="M30.3798 71.5932L28.9664 74.427C34.04 77.7289 40.3317 79.6833 47.1463 79.6833C53.6295 79.6833 59.6394 77.9144 64.5774 74.8992L63.0835 71.8503L30.3798 71.5932Z" fill="#FF8D29"/>
<path d="M51.5664 42.3522L47.1113 30.9404L34.6 61.3547L34.5963 61.4575C35.2516 61.8859 35.6839 62.6211 35.6839 63.456C35.6839 64.7782 34.5998 65.8502 33.2625 65.8502C33.0953 65.8502 32.9321 65.8334 32.7745 65.8015L32.7521 65.8467L30.303 71.8004C34.9938 74.7469 40.8109 76.491 47.1113 76.491C53.1053 76.491 58.6618 74.9124 63.2273 72.2217L59.6014 62.9341L59.5401 62.9391C59.1539 63.1006 58.7292 63.1899 58.2835 63.1899C56.5004 63.1899 55.0549 61.7607 55.0549 59.9977C55.0549 58.5938 55.9715 57.4015 57.2453 56.9741L57.2551 56.9241L53.3335 46.8789L53.2844 46.9207C52.9332 47.1168 52.5276 47.2287 52.0954 47.2287C50.7581 47.2287 49.674 46.1568 49.674 44.8345C49.674 43.6954 50.4786 42.7421 51.5565 42.4998L51.5664 42.3522Z" fill="#FFAD31"/>
<path d="M63.2256 72.2199C61.7985 73.0648 60.2713 73.7972 58.6689 74.4043L45.2365 35.4968L47.1143 30.94L51.5647 42.3506L51.5584 42.501C50.4819 42.745 49.6744 43.6964 49.6744 44.8356C49.6744 46.1563 50.7572 47.2266 52.0967 47.2266C52.5287 47.2266 52.9355 47.1139 53.286 46.9199L53.336 46.876L57.2543 56.9223L57.248 56.9723C55.9713 57.4041 55.0573 58.5935 55.0573 59.9955C55.0573 61.7607 56.5032 63.1877 58.2809 63.1877C58.7315 63.1877 59.1509 63.1001 59.539 62.9374L59.6015 62.9311L63.2256 72.2199Z" fill="#FF8D29"/>
<path d="M38.4746 58.4515C38.3555 58.4515 38.2345 58.4287 38.1178 58.3806C37.6382 58.1833 37.4093 57.6347 37.6066 57.1551L39.4807 52.5993C39.6778 52.1196 40.2272 51.8901 40.7061 52.0881C41.1856 52.2854 41.4146 52.834 41.2173 53.3136L39.3432 57.8694C39.194 58.2322 38.8438 58.4515 38.4746 58.4515Z" fill="#FFE8C4"/>
<path d="M45.0206 49.0561C45.9054 49.0561 46.6227 48.3468 46.6227 47.4719C46.6227 46.597 45.9054 45.8878 45.0206 45.8878C44.1357 45.8878 43.4184 46.597 43.4184 47.4719C43.4184 48.3468 44.1357 49.0561 45.0206 49.0561Z" fill="white"/>
<path d="M47.9579 56.4488C48.9903 56.4488 49.8271 55.6213 49.8271 54.6006C49.8271 53.5799 48.9903 52.7524 47.9579 52.7524C46.9256 52.7524 46.0887 53.5799 46.0887 54.6006C46.0887 55.6213 46.9256 56.4488 47.9579 56.4488Z" fill="white"/>
<path d="M43.6854 64.3697C45.0127 64.3697 46.0886 63.3058 46.0886 61.9934C46.0886 60.681 45.0127 59.6172 43.6854 59.6172C42.3581 59.6172 41.2822 60.681 41.2822 61.9934C41.2822 63.3058 42.3581 64.3697 43.6854 64.3697Z" fill="white"/>
<path d="M51.6962 71.2345C52.7285 71.2345 53.5653 70.407 53.5653 69.3863C53.5653 68.3655 52.7285 67.5381 51.6962 67.5381C50.6639 67.5381 49.827 68.3655 49.827 69.3863C49.827 70.407 50.6639 71.2345 51.6962 71.2345Z" fill="white"/>
</svg>
