<svg width="96" height="96" viewBox="0 0 96 96" fill="none" xmlns="http://www.w3.org/2000/svg">
<path d="M40.4237 30.9891C39.8359 33.1386 39.3822 35.2335 39.0374 37.2509C39.0374 37.2509 37.7008 50.2142 38.0343 58.5675C38.1182 60.6703 39.4582 62.521 41.4294 63.2582C44.3303 64.3432 49.3603 65.6098 57.0343 65.6098C66.8328 65.6098 74.7761 63.2887 74.7761 60.4255C74.7761 60.4255 78.0635 47.0756 73.4634 30.6277L40.4237 30.9891Z" fill="#E4E5E6"/>
<path d="M74.771 60.4272C74.771 63.2869 66.8272 65.6098 57.0317 65.6098C55.9031 65.6098 54.8347 65.5824 53.8213 65.533C62.165 65.1112 68.5091 62.9857 68.5091 60.4272C68.5091 60.4272 71.7907 47.1148 67.2161 30.6907L73.4615 30.625C78.058 47.0765 74.771 60.4272 74.771 60.4272Z" fill="#D4D4D4"/>
<path d="M44.3282 21.4338C42.6296 22.1362 41.0903 23.4254 39.9135 25.4728C39.238 26.6483 38.7789 28.2322 38.7789 28.2322C38.5737 28.7763 38.6346 29.3946 38.9818 29.863L38.6607 29.0648C38.6607 31.5663 46.7275 33.5941 56.6783 33.5941C66.6291 33.5941 74.6959 31.5663 74.6959 29.0648L74.3701 29.863C74.7173 29.3946 74.7783 28.7763 74.5731 28.2322C74.5731 28.2322 74.114 26.6483 73.4384 25.4728C72.2617 23.4254 70.7224 22.1362 69.0237 21.4338H44.3282Z" fill="#E4E5E6"/>
<path d="M38.688 28.9541L38.9838 29.6992C38.8196 29.48 38.7209 29.2226 38.688 28.9541ZM68.4907 29.6992L68.7921 28.9706C68.7537 29.228 68.6551 29.48 68.4907 29.6992Z" fill="#D4D4D4"/>
<path d="M74.6986 29.0634C74.6986 31.5669 66.6342 33.5938 56.6797 33.5938C55.677 33.5938 54.6965 33.5719 53.7431 33.5282C62.2952 33.183 68.8201 31.315 68.8201 29.0634L68.7928 29.1292C68.8421 28.8334 68.8038 28.5212 68.6941 28.2307C68.6941 28.2307 68.234 26.6476 67.5602 25.4699C66.3822 23.4265 64.8428 22.1336 63.1444 21.4324H69.0284C70.7266 22.1336 72.2662 23.4265 73.4441 25.4699C74.118 26.6476 74.5781 28.2307 74.5781 28.2307C74.6876 28.5212 74.7205 28.8334 74.6713 29.1292L74.6986 29.0634ZM38.688 28.9539L38.9839 29.699C38.8196 29.4798 38.7209 29.2223 38.688 28.9539Z" fill="#D4D4D4"/>
<path d="M68.791 28.971C68.7526 29.2283 68.654 29.4801 68.4896 29.6992L68.791 28.971Z" fill="#D4D4D4"/>
<path d="M41.6312 40.6521C41.6 40.6521 41.5687 40.6502 41.5372 40.6468C41.0862 40.5953 40.7624 40.1881 40.8137 39.7372C41.0457 37.7002 41.4074 35.6801 41.8889 33.7328C41.9977 33.2922 42.4434 33.0231 42.8837 33.1324C43.3242 33.2412 43.593 33.6867 43.484 34.1273C43.0195 36.0063 42.6705 37.9562 42.4465 39.9232C42.3986 40.3426 42.0433 40.6521 41.6312 40.6521Z" fill="white"/>
<path d="M59.7071 41.0842C59.7071 41.0842 58.9908 39.4456 59.7676 36.9109C59.7676 36.9109 62.0201 39.1384 60.7773 42.0571L59.7071 41.0842ZM60.622 42.4412C60.622 42.4412 57.5926 43.0557 55.4954 41.2891C55.4954 41.2891 57.5926 40.4442 59.5345 40.9818L60.622 42.4412ZM62.2531 43.9774C62.2531 43.9774 62.1409 42.0828 63.6945 40.1625C63.6945 40.1625 65.2048 42.7484 63.4183 45.3599L62.2531 43.9774ZM65.014 47.2955C65.014 47.2955 65.2024 45.0322 67.2157 43.1325C67.2157 43.1325 68.4733 46.3692 66.097 49.0011L65.014 47.2955Z" fill="#D4D4D4"/>
<path d="M64.6118 47.5002C64.6118 47.5002 62.4379 47.2141 60.1753 48.8162C60.1753 48.8162 63.0471 50.6883 66.1048 48.8699L64.6118 47.5002ZM67.0982 51.0941C67.0982 51.0941 64.4951 50.8442 61.936 52.6563C61.936 52.6563 65.3285 54.7 68.7869 52.6433L67.0982 51.0941Z" fill="#D4D4D4"/>
<path d="M67.4339 50.8199C67.4339 50.8199 67.7817 47.8743 70.1695 45.8465C70.1695 45.8465 71.3968 49.9762 68.5551 52.8097L67.4339 50.8199ZM62.0663 44.1406C62.0663 44.1406 60.14 43.7938 58.0521 45.1296C58.0521 45.1296 60.5339 46.9213 63.3407 45.4254L62.0663 44.1406ZM63.8088 39.4562C63.5063 39.4562 63.261 39.2109 63.261 38.9083C63.261 38.8994 63.2599 37.9898 63.1845 36.8715C63.1641 36.5696 63.3923 36.3084 63.6942 36.2879C63.999 36.2683 64.2574 36.4959 64.2777 36.7977C64.3557 37.955 64.3566 38.87 64.3566 38.9084C64.3566 39.2109 64.1113 39.4562 63.8088 39.4562ZM57.0163 45.6783C56.8422 45.6783 56.4097 45.6499 55.4603 45.4623C55.1634 45.4037 54.9704 45.1155 55.0291 44.8187C55.0877 44.522 55.3757 44.3285 55.6727 44.3875C56.6929 44.5892 57.0077 44.5821 57.0229 44.5826C57.3186 44.5757 57.5756 44.8037 57.5917 45.1004C57.6078 45.3969 57.3908 45.6521 57.0947 45.6758C57.0785 45.6771 57.0532 45.6783 57.0163 45.6783ZM67.5059 42.4516C67.4468 42.4516 67.3866 42.442 67.3276 42.4217C67.0419 42.3234 66.8898 42.0123 66.9875 41.7264C66.9946 41.7052 67.2223 41.0073 67.2223 39.9837C67.2223 39.6812 67.4676 39.4359 67.7701 39.4359C68.0727 39.4359 68.318 39.6812 68.318 39.9837C68.318 41.2132 68.0359 42.047 68.0239 42.0819C67.9458 42.309 67.7332 42.4516 67.5059 42.4516ZM58.6569 49.4669C58.3761 49.4669 57.8085 49.4286 57.1602 49.1722C56.8788 49.0609 56.7409 48.7426 56.8522 48.4613C56.9633 48.1798 57.2815 48.0422 57.5631 48.1533C58.2025 48.4062 58.7385 48.3689 58.744 48.3689C59.0472 48.3428 59.3105 48.5671 59.3361 48.8685C59.3617 49.1699 59.138 49.435 58.8366 49.4606C58.8161 49.4623 58.7535 49.4669 58.6569 49.4669Z" fill="#D4D4D4"/>
<path d="M70.5405 56.0925C70.3619 56.0925 70.187 56.0056 70.0819 55.8451C66.4067 50.2422 62.2685 44.8305 57.7823 39.7605C57.5818 39.5339 57.6031 39.1876 57.8296 38.9871C58.0562 38.7867 58.4025 38.8081 58.603 39.0345C63.1239 44.1437 67.2942 49.5975 70.9981 55.2443C71.164 55.4972 71.0934 55.8368 70.8404 56.0028C70.7478 56.0635 70.6435 56.0925 70.5405 56.0925ZM60.6782 53.2445H58.8084C58.5059 53.2445 58.2606 52.9992 58.2606 52.6967C58.2606 52.3942 58.5059 52.1489 58.8084 52.1489H60.6782C60.9807 52.1489 61.226 52.3942 61.226 52.6967C61.226 52.9992 60.9807 53.2445 60.6782 53.2445ZM70.571 45.4229C70.5137 45.4229 70.4556 45.4138 70.3982 45.3948C70.1113 45.2996 69.9559 44.9897 70.0506 44.7027C70.0531 44.6953 70.2964 43.9495 70.2964 43.1837C70.2964 42.8812 70.5417 42.6359 70.8443 42.6359C71.1468 42.6359 71.3921 42.8812 71.3921 43.1837C71.3921 44.1321 71.1027 45.0115 71.0903 45.0484C71.0139 45.2779 70.8002 45.4229 70.571 45.4229Z" fill="#D4D4D4"/>
<path d="M59.0508 41.0842C59.0508 41.0842 58.3345 39.4456 59.1112 36.9109C59.1112 36.9109 61.3638 39.1384 60.121 42.0571L59.0508 41.0842ZM59.9657 42.4412C59.9657 42.4412 56.9363 43.0557 54.8391 41.2891C54.8391 41.2891 56.9363 40.4442 58.8782 40.9818L59.9657 42.4412ZM61.5969 43.9774C61.5969 43.9774 61.4847 42.0828 63.0382 40.1625C63.0382 40.1625 64.5485 42.7484 62.762 45.3599L61.5969 43.9774ZM64.3577 47.2955C64.3577 47.2955 64.5461 45.0322 66.5594 43.1325C66.5594 43.1325 67.817 46.3692 65.4407 49.0011L64.3577 47.2955Z" fill="#FFAD31"/>
<path d="M63.9554 47.5002C63.9554 47.5002 61.7816 47.2141 59.519 48.8162C59.519 48.8162 62.3908 50.6883 65.4485 48.8699L63.9554 47.5002ZM66.4419 51.0941C66.4419 51.0941 63.8388 50.8442 61.2797 52.6563C61.2797 52.6563 64.6722 54.7 68.1306 52.6433L66.4419 51.0941Z" fill="#FFAD31"/>
<path d="M66.7781 50.8199C66.7781 50.8199 67.1259 47.8743 69.5138 45.8465C69.5138 45.8465 70.741 49.9762 67.8992 52.8097L66.7781 50.8199ZM61.4103 44.1406C61.4103 44.1406 59.4839 43.7938 57.3959 45.1296C57.3959 45.1296 59.8778 46.9213 62.6847 45.4254L61.4103 44.1406ZM63.1528 39.4562C62.8503 39.4562 62.605 39.2109 62.605 38.9083C62.605 38.8994 62.6039 37.9898 62.5285 36.8715C62.5081 36.5696 62.7363 36.3084 63.0382 36.2879C63.343 36.2683 63.6014 36.4959 63.6217 36.7977C63.6997 37.955 63.7006 38.87 63.7006 38.9084C63.7006 39.2109 63.4553 39.4562 63.1528 39.4562ZM56.3601 45.6783C56.186 45.6783 55.7534 45.6499 54.8041 45.4623C54.5072 45.4037 54.3142 45.1155 54.3729 44.8187C54.4315 44.522 54.7194 44.3285 55.0165 44.3875C56.0367 44.5892 56.3516 44.5821 56.3667 44.5826C56.6624 44.5757 56.9195 44.8037 56.9355 45.1004C56.9516 45.3969 56.7346 45.6521 56.4385 45.6758C56.4223 45.6771 56.397 45.6783 56.3601 45.6783ZM66.85 42.4516C66.7909 42.4516 66.7307 42.442 66.6717 42.4217C66.386 42.3234 66.234 42.0123 66.3316 41.7264C66.3387 41.7052 66.5664 41.0073 66.5664 39.9837C66.5664 39.6812 66.8117 39.4359 67.1143 39.4359C67.4168 39.4359 67.6621 39.6812 67.6621 39.9837C67.6621 41.2132 67.38 42.047 67.368 42.0819C67.2899 42.309 67.0774 42.4516 66.85 42.4516ZM58.0008 49.4669C57.7199 49.4669 57.1523 49.4286 56.504 49.1722C56.2226 49.0609 56.0847 48.7426 56.196 48.4613C56.3071 48.1798 56.6253 48.0422 56.9069 48.1533C57.5463 48.4062 58.0824 48.3689 58.0879 48.3689C58.3911 48.3428 58.6544 48.5671 58.68 48.8685C58.7055 49.1699 58.4819 49.435 58.1804 49.4606C58.16 49.4623 58.0974 49.4669 58.0008 49.4669Z" fill="#FFAD31"/>
<path d="M69.883 56.0925C69.7044 56.0925 69.5295 56.0056 69.4244 55.8451C65.7493 50.2422 61.6113 44.8305 57.1252 39.7605C56.9248 39.5339 56.946 39.1876 57.1726 38.9871C57.3992 38.7867 57.7454 38.8081 57.9459 39.0345C62.4666 44.1437 66.6368 49.5975 70.3405 55.2443C70.5065 55.4972 70.4359 55.8368 70.1829 56.0028C70.0903 56.0635 69.986 56.0925 69.883 56.0925ZM60.021 53.2445H58.1513C57.8488 53.2445 57.6035 52.9992 57.6035 52.6967C57.6035 52.3942 57.8488 52.1489 58.1513 52.1489H60.021C60.3236 52.1489 60.5689 52.3942 60.5689 52.6967C60.5689 52.9992 60.3236 53.2445 60.021 53.2445ZM69.9135 45.4229C69.8562 45.4229 69.798 45.4138 69.7407 45.3948C69.4538 45.2996 69.2984 44.9897 69.3931 44.7027C69.3956 44.6953 69.6389 43.9495 69.6389 43.1837C69.6389 42.8812 69.8842 42.6359 70.1867 42.6359C70.4893 42.6359 70.7346 42.8812 70.7346 43.1837C70.7346 44.1321 70.4451 45.0115 70.4328 45.0484C70.3563 45.2779 70.1427 45.4229 69.9135 45.4229Z" fill="#FFAD31"/>
<path d="M70.7703 23.0489C70.7703 23.8871 69.6198 24.6487 67.697 25.2459C65.1385 26.051 61.2106 26.5661 56.8005 26.5661C52.248 26.5661 48.205 26.0183 45.652 25.1636C43.8772 24.5829 42.8307 23.8487 42.8307 23.0489C42.8307 21.1095 49.087 19.5373 56.8005 19.5373C64.5196 19.5373 70.7703 21.1095 70.7703 23.0489Z" fill="#E4E5E6"/>
<path d="M70.7703 23.0489C70.7703 23.1147 70.7648 23.1805 70.7484 23.2461C68.2065 22.3805 64.1251 21.8218 59.5178 21.8218C52.0673 21.8218 45.9753 23.29 45.5699 25.1361C43.8443 24.561 42.8307 23.8378 42.8307 23.0488C42.8307 21.1095 49.087 19.5373 56.8005 19.5373C64.5196 19.5373 70.7703 21.1095 70.7703 23.0489Z" fill="#D4D4D4"/>
<path d="M67.6961 25.2454C65.1376 26.0506 61.2097 26.5656 56.7996 26.5656C52.2471 26.5656 48.2041 26.0178 45.6511 25.1632C45.7608 25.0591 45.8319 25.0043 45.8319 25.0043C48.3795 23.6731 52.2361 22.8184 56.5476 22.8184C61.0014 22.8184 64.8802 23.8867 67.5043 25.1357C67.5754 25.1687 67.6358 25.207 67.6961 25.2454Z" fill="#FFAD31"/>
<path d="M67.6957 25.2453C65.1373 26.0506 61.2093 26.5657 56.7992 26.5657C55.0846 26.5657 53.4356 26.4889 51.9181 26.341C54.3761 26.2894 56.648 26.0755 58.5721 25.7429C59.4999 25.5825 59.6006 24.2905 58.7059 23.9976C57.3236 23.5449 55.6916 23.0757 54.3998 22.8897C55.1009 22.8404 55.8186 22.8184 56.5473 22.8184C61.0011 22.8184 64.8798 23.8867 67.504 25.1357C67.5751 25.1687 67.6354 25.207 67.6957 25.2453Z" fill="#FF8D29"/>
<path d="M22.995 73.0325C16.4508 57.3186 22.995 42.0667 22.995 42.0667H50.4701C50.4701 42.0667 57.0142 57.3186 50.4701 73.0325H22.995Z" fill="#FF6B6E"/>
<path d="M22.9682 52.3665C22.9292 52.3665 22.8897 52.3637 22.85 52.358C22.4007 52.2932 22.0891 51.8766 22.1538 51.4274C22.4461 49.3989 22.8675 47.3903 23.4065 45.4576C23.5283 45.0204 23.9808 44.7644 24.4187 44.8867C24.8559 45.0085 25.1115 45.4618 24.9895 45.8989C24.4695 47.764 24.0626 49.7029 23.7804 51.6618C23.7215 52.0712 23.3701 52.3665 22.9682 52.3665Z" fill="#FFE8C4"/>
<path d="M50.4711 73.0329H45.9027C52.4487 57.3211 45.9027 42.0693 45.9027 42.0693H50.4711C50.4711 42.0693 57.0117 57.3211 50.4711 73.0329Z" fill="#DB4A4D"/>
<path d="M50.5595 38.6913H22.9814V42.0669H50.5595V38.6913Z" fill="#FFAD31"/>
<path d="M50.5648 38.6893H45.9027V42.0693H50.5648V38.6893Z" fill="#FF8D29"/>
<path d="M50.5595 73.0325H22.9814V76.462H50.5595V73.0325Z" fill="#FFAD31"/>
<path d="M50.5648 73.033H45.9027V76.4625H50.5648V73.033Z" fill="#FF8D29"/>
<path d="M37.1243 58.3802C36.5963 55.9993 34.2077 54.487 31.7997 55.0091C29.3918 55.5312 27.8624 57.8931 28.3904 60.274L30.6888 59.7756C30.4387 58.6478 31.1631 57.5291 32.3037 57.2817C33.4444 57.0344 34.5758 57.7507 34.8259 58.8786L37.1243 58.3802Z" fill="#DB4A4D"/>
<path d="M29.7292 60.9037C30.3678 60.7859 30.8112 60.2881 30.7196 59.7917C30.628 59.2954 30.036 58.9885 29.3974 59.1063C28.7588 59.2241 28.3154 59.7219 28.407 60.2183C28.4986 60.7146 29.0905 61.0215 29.7292 60.9037Z" fill="#DB4A4D"/>
<path d="M36.1633 59.5171C36.8019 59.3993 37.2454 58.9012 37.1538 58.4047C37.0622 57.9081 36.4702 57.6011 35.8316 57.7189C35.1929 57.8368 34.7495 58.3349 34.8411 58.8314C34.9327 59.328 35.5247 59.635 36.1633 59.5171Z" fill="#DB4A4D"/>
<path d="M35.0013 64.7577C36.2812 66.8335 39.0338 67.4784 41.1372 66.1953C43.2406 64.9122 43.9106 62.1795 42.6307 60.1036L40.623 61.3284C41.2293 62.3117 40.9119 63.6061 39.9155 64.2139C38.9191 64.8217 37.6154 64.5163 37.0091 63.5329L35.0013 64.7577Z" fill="#DB4A4D"/>
<path d="M42.0626 61.5353C42.6273 61.2144 42.8829 60.5985 42.6334 60.1594C42.384 59.7204 41.724 59.6246 41.1592 59.9454C40.5945 60.2663 40.3389 60.8822 40.5884 61.3213C40.8378 61.7603 41.4978 61.8561 42.0626 61.5353Z" fill="#DB4A4D"/>
<path d="M36.438 64.9562C37.0027 64.6353 37.2583 64.0191 37.0088 63.5799C36.7594 63.1408 36.0994 63.0449 35.5346 63.3658C34.9699 63.6868 34.7143 64.3029 34.9638 64.7421C35.2132 65.1813 35.8732 65.2771 36.438 64.9562Z" fill="#DB4A4D"/>
<path d="M30.325 71.0378C32.4429 69.8282 33.1802 67.0984 31.9684 64.9527C30.7565 62.807 28.0475 62.0454 25.9296 63.2549L27.0863 65.303C28.0896 64.73 29.3727 65.0908 29.9467 66.1072C30.5208 67.1237 30.1716 68.4167 29.1683 68.9896L30.325 71.0378Z" fill="#DB4A4D"/>
<path d="M27.0807 65.3429C27.5278 65.1083 27.6458 64.4518 27.3441 63.8765C27.0425 63.3012 26.4355 63.025 25.9884 63.2595C25.5413 63.4941 25.4233 64.1506 25.725 64.7259C26.0266 65.3012 26.6336 65.5774 27.0807 65.3429Z" fill="#DB4A4D"/>
<path d="M30.3075 71.0773C30.7547 70.8427 30.8727 70.1863 30.571 69.611C30.2694 69.0358 29.6623 68.7596 29.2151 68.9942C28.7679 69.2287 28.6499 69.8852 28.9516 70.4604C29.2532 71.0356 29.8603 71.3118 30.3075 71.0773Z" fill="#DB4A4D"/>
<path d="M45.6401 70.9331C48.0701 71.1406 50.2271 69.3131 50.4483 66.8592C50.6696 64.4053 48.8727 62.24 46.4428 62.0325L46.2315 64.3747C47.3826 64.4731 48.2338 65.4986 48.1289 66.6611C48.0241 67.8235 47.0025 68.6892 45.8514 68.5908L45.6401 70.9331Z" fill="#DB4A4D"/>
<path d="M47.259 63.3467C47.3375 62.7017 46.9948 62.1293 46.4936 62.0683C45.9925 62.0072 45.5226 62.4807 45.4442 63.1257C45.3657 63.7708 45.7084 64.3432 46.2096 64.4042C46.7107 64.4653 47.1806 63.9918 47.259 63.3467Z" fill="#DB4A4D"/>
<path d="M46.6575 69.9015C46.736 69.257 46.3933 68.685 45.8921 68.624C45.391 68.563 44.9211 69.0361 44.8427 69.6807C44.7642 70.3253 45.1069 70.8972 45.6081 70.9582C46.1092 71.0192 46.5791 70.5461 46.6575 69.9015Z" fill="#DB4A4D"/>
<path d="M36.027 58.3802C35.4989 55.9993 33.1101 54.487 30.7019 55.0091C28.2937 55.5312 26.7641 57.8931 27.2922 60.274L29.5908 59.7756C29.3406 58.6478 30.0651 57.5291 31.2059 57.2817C32.3467 57.0344 33.4782 57.7507 33.7284 58.8786L36.027 58.3802Z" fill="#FFAD31"/>
<path d="M28.6334 60.9046C29.2721 60.7867 29.7156 60.2884 29.624 59.7916C29.5324 59.2949 28.9403 58.9877 28.3016 59.1056C27.6628 59.2235 27.2193 59.7218 27.3109 60.2186C27.4025 60.7154 27.9946 61.0225 28.6334 60.9046Z" fill="white"/>
<path d="M35.0675 59.5181C35.7063 59.4003 36.1498 58.9022 36.0581 58.4056C35.9665 57.9091 35.3744 57.6021 34.7357 57.7199C34.097 57.8378 33.6534 58.3358 33.7451 58.8324C33.8367 59.3289 34.4288 59.6359 35.0675 59.5181Z" fill="white"/>
<path d="M33.9071 64.7577C35.187 66.8335 37.9397 67.4784 40.0432 66.1953C42.1466 64.9122 42.8167 62.1795 41.5367 60.1036L39.5289 61.3284C40.1352 62.3117 39.8179 63.6061 38.8214 64.2139C37.825 64.8217 36.5212 64.5163 35.9149 63.5329L33.9071 64.7577Z" fill="#FFAD31"/>
<path d="M40.966 61.5345C41.5308 61.2137 41.7864 60.5978 41.5369 60.1589C41.2875 59.7199 40.6274 59.6241 40.0627 59.9449C39.4979 60.2657 39.2423 60.8815 39.4918 61.3205C39.7412 61.7594 40.4013 61.8552 40.966 61.5345Z" fill="white"/>
<path d="M35.3437 64.9553C35.9085 64.6345 36.1641 64.0185 35.9146 63.5795C35.6652 63.1405 35.0051 63.0447 34.4404 63.3655C33.8757 63.6863 33.6201 64.3023 33.8695 64.7413C34.119 65.1803 34.779 65.2761 35.3437 64.9553Z" fill="white"/>
<path d="M29.2306 71.0377C31.3484 69.8283 32.0856 67.0989 30.8739 64.9534C29.6621 62.808 26.9533 62.0465 24.8355 63.2558L25.9921 65.3037C26.9954 64.7308 28.2784 65.0915 28.8524 66.1078C29.4264 67.1241 29.0772 68.4169 28.074 68.9898L29.2306 71.0377Z" fill="#FFAD31"/>
<path d="M25.9841 65.3416C26.4313 65.1071 26.5493 64.4506 26.2476 63.8754C25.9459 63.3001 25.3388 63.0239 24.8916 63.2585C24.4444 63.493 24.3264 64.1495 24.6281 64.7248C24.9298 65.3 25.5369 65.5762 25.9841 65.3416Z" fill="white"/>
<path d="M29.2144 71.077C29.6616 70.8425 29.7796 70.186 29.4779 69.6108C29.1762 69.0355 28.5691 68.7593 28.1219 68.9939C27.6747 69.2284 27.5568 69.8849 27.8584 70.4601C28.1601 71.0354 28.7672 71.3115 29.2144 71.077Z" fill="white"/>
<path d="M44.5448 70.9339C46.9748 71.1415 49.1317 69.3137 49.353 66.8595C49.5743 64.4053 47.7774 62.2399 45.3474 62.0323L45.1362 64.3748C46.2873 64.4731 47.1384 65.4988 47.0336 66.6614C46.9288 67.824 45.9071 68.6897 44.756 68.5914L44.5448 70.9339Z" fill="#FFAD31"/>
<path d="M46.1651 63.3467C46.2436 62.7019 45.9009 62.1297 45.3997 62.0687C44.8986 62.0077 44.4287 62.481 44.3503 63.1258C44.2718 63.7706 44.6145 64.3428 45.1157 64.4038C45.6169 64.4648 46.0867 63.9916 46.1651 63.3467Z" fill="white"/>
<path d="M45.5639 69.9013C45.6424 69.2562 45.2997 68.6838 44.7985 68.6228C44.2973 68.5618 43.8274 69.0352 43.749 69.6803C43.6705 70.3253 44.0132 70.8977 44.5144 70.9588C45.0156 71.0198 45.4855 70.5463 45.5639 69.9013Z" fill="white"/>
</svg>
