<?xml version="1.0" standalone="no"?>
<!DOCTYPE svg PUBLIC "-//W3C//DTD SVG 1.1//EN" "http://www.w3.org/Graphics/SVG/1.1/DTD/svg11.dtd" >
<svg xmlns="http://www.w3.org/2000/svg" xmlns:xlink="http://www.w3.org/1999/xlink" version="1.1">
<metadata>
Created by FontForge 20170731 at Sun Apr 30 20:17:55 2017
 By Aleksey,,,
Copyright (c) 2012 Grzegorz Klimczewski, Fonty.PL (www.fonty.pl), with Reserved Font Name 'Akronim'
</metadata>
<defs>
<font id="Akronim-Regular" horiz-adv-x="438" >
  <font-face 
    font-family="Akronim"
    font-weight="400"
    font-stretch="normal"
    units-per-em="1000"
    panose-1="0 0 0 0 0 0 0 0 0 0"
    ascent="800"
    descent="-200"
    x-height="467"
    cap-height="729"
    bbox="-83.7778 -404 1108 989"
    underline-thickness="50"
    underline-position="-135"
    unicode-range="U+0020-FB01"
  />
<missing-glyph horiz-adv-x="342" 
 />
    <glyph glyph-name=".notdef" horiz-adv-x="342" 
 />
    <glyph glyph-name=".null" horiz-adv-x="0" 
 />
    <glyph glyph-name="nonmarkingreturn" horiz-adv-x="201" 
 />
    <glyph glyph-name="space" unicode=" " horiz-adv-x="201" 
 />
    <glyph glyph-name="exclam" unicode="!" horiz-adv-x="284" 
d="M230 538q-14 -38 -32.5 -77.5t-38.5 -74.5q-1 -1 -4.5 -5t-5.5 -4q-3 1 -2.5 6.5t0.5 6.5q3 19 9.5 47.5t14.5 46.5q3 6 10 31.5t13.5 56.5t9.5 59.5t-3 42.5q-1 2 1 4q1 1 1 2q2 0 7 -5q11 -12 17.5 -30t8.5 -37t0 -38t-6 -32zM225 379q-11 -34 -28 -67.5t-31 -59.5
q-2 -5 -4 -6.5t-3 -1.5q-3 1 -3 3.5v7.5q6 54 23.5 105.5t38.5 105.5q13 32 23.5 66t11.5 75q0 5 3 5q2 0 4 -5q11 -20 9.5 -51.5t-9.5 -64.5t-18.5 -63.5t-16.5 -48.5zM132 189q3 -5 1 -6t-4 1q-26 30 -39 59.5t-16 59t2 58t14 55.5q12 38 27.5 75t28.5 72t21.5 69t6.5 67
q0 2 1 2q2 0 4 -5q14 -35 10 -71.5t-16 -74t-28.5 -75.5t-28.5 -75q-15 -48 -14 -103t30 -108zM144 234q2 -14 5.5 -25.5t9.5 -24.5q2 -5 0 -5t-6 2q-13 11 -19 22.5t-11 33.5q-2 9 -2 21.5t1.5 23.5t4 19t5.5 7q3 -2 4.5 -13.5t1.5 -15.5q2 -12 3 -23t3 -22zM103 120
q5 0 15 -0.5t11 -8.5q0 -3 -8.5 -7.5t-19 -12t-19 -20t-7.5 -31.5q1 -11 2.5 -21.5t6.5 -15.5q2 -3 4.5 -5.5t1.5 -3.5q-2 0 -4 1.5t-4 1.5q-20 8 -29 23t-10 29q-1 29 12.5 49.5t47.5 21.5zM141 85q5 2 8 2t3 -6q1 -8 -4.5 -15t-11 -15.5t-7 -18.5t6.5 -25q2 -4 7 -9.5
t3 -4.5q-2 -2 -8 0.5t-8 2.5q-17 7 -26 20t-9 25q-1 17 14.5 29t31.5 15zM170 37q0 -4 -2.5 -10t-8.5 -6q-5 -1 -8.5 5.5t-3.5 10.5t3 10t8 6q6 0 9 -5.5t3 -10.5z" />
    <glyph glyph-name="quotedbl" unicode="&#x22;" horiz-adv-x="356" 
d="M77 407q0 -8 -3.5 -15.5t-7.5 -12.5q0 -4 -4 -4q-3 0 -3 4q-5 8 -4.5 14t1.5 14q2 6 3 11.5t5 11.5q0 3 6 3q5 -1 7 -12t0 -14zM155 482q-5 -31 -19.5 -56.5t-50.5 -48.5q0 -2 -4 -2q-2 0 -1 1t1 3q17 24 26.5 50.5t14.5 52.5q7 44 6 88.5t4 88.5v2q0 2 1 2q4 0 4 -4
q20 -45 22.5 -90t-4.5 -87zM44 422q0 -1 -0.5 -3.5t-3.5 -2.5l-6 9q-14 20 -16.5 40t1.5 41q2 10 5.5 26t8.5 32.5t12.5 31.5t18.5 23l1 1q1 0 1.5 0.5t1.5 0.5q2 0 2 -3q-2 -19 -5 -38t-5 -37q-5 -30 -8 -60t-8 -61zM81 501q-5 23 -5 40.5t3 38.5q2 15 9 36t22 33l1 1
q1 0 1.5 0.5t2.5 0.5v-1q0 -1 1 -2q1 -8 0.5 -25t-2 -35t-3 -32.5t-1.5 -18.5q-2 -11 -6 -20t-9 -18q0 -2 -3 -4.5t-6 -2.5q-3 1 -3.5 4t-1.5 5zM262 410q0 -10 -4 -16t-9 -13q0 -4 -2 -4q-5 0 -5 4q-4 7 -3.5 14t2.5 15q1 5 1.5 11t5.5 11q0 4 5 4q3 -1 5 -5t3 -8.5t1 -8
v-4.5zM338 484q-5 -31 -18.5 -56.5t-50.5 -48.5q0 -2 -5 -2v4q18 23 28 49.5t15 53.5q7 45 5 89t3 87v2q0 2 3 2q4 0 1 -4q22 -45 24.5 -89t-5.5 -87zM227 426q0 -8 -4 -5q-1 0 -3 2q-1 1 -2 3q-11 22 -14.5 41.5t-0.5 39.5l5 27.5t8.5 33t13 31t18.5 22.5l1 1q1 0 1 0.5
t2 0.5q1 0 1 -4q-1 -18 -3.5 -36.5t-5.5 -38.5q-5 -29 -8.5 -58.5t-8.5 -59.5zM264 503q-5 23 -5 40t4 39q2 16 9 36t21 33q1 0 2 1q1 0 2 0.5t2 0.5v-1v-3q1 -8 1 -24.5t-1.5 -34.5t-3 -33t-2.5 -19q-1 -9 -5.5 -19t-9.5 -18q-1 0 -3 -4t-5 -4q-2 2 -3 5t-3 5z" />
    <glyph glyph-name="numbersign" unicode="#" horiz-adv-x="569" 
d="M592 482q0 -1 -1.5 -3t-2.5 -4q-11 -14 -27.5 -24.5t-35.5 -17.5t-38 -10t-34 -2q-42 2 -88 8.5t-88 17.5q-3 0 -9 2.5t-6 5.5q0 2 6 3.5t9 1.5q20 2 51 2.5t51 -0.5q7 -2 35.5 -2t62 1.5t64.5 6.5t44 14q2 2 4.5 2t2.5 -2zM606 514q0 -3 -5 -6q-32 -24 -71 -30t-81 -4
t-86 8.5t-86 7.5q-54 2 -111.5 -15t-102.5 -56q-4 -3 -5.5 -2.5t1.5 5.5q32 42 69 64t79 29q11 33 18 65.5t7 63.5q1 1 0.5 3t0.5 1q2 1 3 -1.5t1 -3.5q9 -30 9 -61.5t-8 -63.5q5 1 8 1h6q6 31 8.5 58t-0.5 41q-1 1 -1 5q0 1 1 2q2 0 4 -2t3 -4q13 -18 19 -45.5t4 -54.5
q11 0 16 -1l2 20q0 5 3 6q1 -1 1 -2.5t2 -4.5q2 -5 3 -9.5t2 -9.5q22 -2 42.5 -4t42.5 -4q26 70 37 138q0 5 3 5q2 0 3 -3t1 -5q6 -34 2 -68.5t-14 -69.5h-2q5 0 8 -0.5t7 -0.5q8 32 13.5 64t3.5 48q0 5 3 5t5 -5q11 -21 13 -53t-2 -62h16l5 23q1 8 3.5 5.5l4.5 -4.5
q2 -4 1.5 -11t-0.5 -13q24 0 45 2.5t41 8.5q2 0 2.5 1t2.5 -1zM537 237q0 -4 -4 -8q-10 -14 -26.5 -24.5t-35 -17.5t-37.5 -10.5t-34 -3.5q-42 2 -87 9t-87 17q-3 0 -8.5 2.5t-5.5 5.5q0 1 5.5 3t8.5 2q10 1 23 2t27.5 1h28t24.5 -1q7 -1 34 -1t60 2t63 7.5t43 14.5q8 2 8 0
zM186 452q0 -4 -11.5 -8.5t-15.5 -6.5q-11 -4 -22 -8.5t-22 -9.5q-14 -7 -25.5 -11.5t-22.5 -15.5q-5 -4 -6 -4t-1 2t1.5 5t1.5 4q5 10 16.5 21.5t31.5 20.5q9 4 21.5 7.5t24.5 5.5t20.5 2t8.5 -4zM393 260q6 -1 12.5 -1t12.5 -1q7 21 15.5 42.5t17.5 44.5l15 39
q-9 -3 -17 -3q-13 -31 -27.5 -62t-28.5 -59zM345 264q8 -1 15.5 -1t14.5 -1q5 26 14 56t17 51q0 2 2 8h-20q-11 -28 -23 -56.5t-20 -56.5zM270 271q11 -1 22 -1t22 -1l2 6q8 26 17.5 51.5t18.5 51.5q-14 0 -26.5 0.5t-22.5 0.5q-10 -32 -18.5 -60t-14.5 -48zM203 271
q7 2 14 2h15q8 23 17 45.5t17 47.5l5 16h-8.5t-9.5 2q-22 -58 -50 -113zM121 255q3 11 6.5 22.5t6.5 22.5q8 25 16.5 49.5t16.5 49.5q-7 1 -14 2.5t-13 2.5q-11 0 -11 3t3 3.5t8 1.5q57 11 115 8t118 -9q36 -3 75 -4t79 8q10 2 6 -1.5t-6 -5.5q-6 -5 -12.5 -8.5t-15.5 -7.5
q-11 -38 -23 -74t-21 -62q25 0 48 2.5t44 10.5h2q2 -2 0.5 -3.5l-2.5 -2.5q-33 -24 -71.5 -30.5t-80 -4.5t-84.5 8t-85 6q-54 0 -110 -17.5t-98 -62.5l-4 -4v5q20 36 47.5 58.5t59.5 33.5zM199 392q-11 -28 -21 -56.5t-18 -56.5q-1 -3 -1.5 -6.5t-2.5 -6.5q8 1 16.5 2.5
t16.5 2.5v2q2 11 5.5 26.5l7 31t8 30.5t8.5 25v3q-5 1 -9.5 1t-9.5 2zM136 201q1 -2 -2.5 -4t-8 -4.5t-9 -4t-5.5 -2.5q-11 -6 -21.5 -10.5t-21.5 -9.5q-12 -8 -23 -16.5t-22 -17.5q-1 -2 -4 -3t-1 1v8q0 2 1 3l17.5 24.5t29.5 22.5q7 4 19 7.5t23 6t19.5 2.5t8.5 -3z
M166 25q-24 29 -36.5 59.5t-15.5 63.5q-12 0 -19 3q-5 1 -9 1.5t-4 3.5q-1 2 3.5 2.5t9.5 0.5q56 13 111.5 12.5t115.5 -5.5q37 -4 74.5 -6.5t78.5 9.5q5 0 5 -2q0 1 -5 -4q-10 -11 -26.5 -17t-36.5 -9q-8 -20 -15 -38t-15 -32q-6 -11 -9 -11q-4 3 0 14q3 15 4.5 31t6.5 32
q-8 -1 -13 -1h-13q0 -6 -0.5 -17t-1 -24t-0.5 -25.5t2 -21.5q4 -19 5.5 -33t9.5 -25q1 -1 1 -4t-1 -3q-2 1 -3.5 2.5t-3.5 2.5t-3 2q-11 10 -19 19.5t-10 38.5q0 9 0.5 21.5t2 25t3.5 24t5 17.5h-27q-2 -40 3 -77.5t21 -64.5q2 -4 2 -6v-2q-2 0 -3 2.5t-3 4.5
q-26 29 -37.5 65.5t-10.5 78.5q-16 1 -29 2t-24 1h-8.5t-9.5 1q-4 -8 -7.5 -15.5t-5.5 -14.5q-6 -11 -9 -10q-2 0 -1.5 4.5t0.5 9.5q0 6 0.5 13t0.5 14q-5 0 -10 1t-10 1q0 -13 2 -27t3 -28q6 -33 19 -60q4 -8 -1.5 -7t-7.5 4q-13 14 -20 26t-12 38q-2 11 -1 26t3 29
q-5 1 -10.5 1t-10.5 2q1 -31 7 -61t22 -57q3 -4 0 -3.5t-4 2.5z" />
    <glyph glyph-name="dollar" unicode="$" horiz-adv-x="385" 
d="M16 47q-4 -2 -7.5 -2.5t-3.5 0.5q-1 2 6 6q14 6 31 12.5t35 11.5q4 38 10.5 78t17.5 79l27 94l-17 25q-14 20 -27.5 39.5t-25.5 46.5q-11 24 -14.5 60t14.5 67q18 32 41 49.5t47.5 26.5t48 12t43.5 6q15 47 21 94q0 5 3 7q1 1 2 -3t1 -5q4 -30 0 -61t-12.5 -63.5
t-19.5 -66t-21 -68.5q-21 -72 -44 -142.5t-40 -142.5q-11 -45 -20 -92t-13 -93.5t-1 -90.5t17 -83q2 -10 1 -10q-4 0 -5 4q-26 39 -34.5 87.5t-5.5 91.5q-27 -5 -52 -6q-2 0 -6.5 0.5t-4.5 2.5q0 4 3 6l4 2q14 6 26.5 11t31.5 10v6q0 3 1 5q-16 -2 -30.5 -5t-27.5 -6z
M359 616l-34 -8q3 -18 -1.5 -53.5t-12 -73.5t-15 -71.5t-11.5 -46.5q16 -17 28.5 -33.5t22.5 -30.5q13 -17 24 -43t14.5 -55.5t-1.5 -59.5t-24 -55q-20 -26 -42.5 -40.5t-45 -21.5t-43 -8t-36.5 -1q-5 -11 -11 -25t-11 -25q-3 -7 -6 -11.5t-3 -3.5q-3 0 -2.5 6.5t2.5 12.5
q17 90 41.5 184.5t54.5 193.5q7 25 19.5 62t23.5 76.5t19.5 76t8.5 60.5q11 0 19 1.5t16 1.5q16 0 16 -3q1 -2 -3 -4t-7 -2zM195 47l-9 -21q30 5 61 15.5t57 33.5q27 30 36 65.5t-2 71.5q-10 33 -27.5 58.5t-36.5 48.5l-7 -29q8 -11 14.5 -22.5t11.5 -22.5q2 -4 6 -15.5
t1 -13.5q-1 0 -8.5 9.5t-9.5 14.5l-23 26l-10 -36l6 -7q11 -18 15.5 -37t1 -36.5t-16 -32t-36.5 -24.5q-3 -1 -5.5 -2t-5.5 -2l-7 -22q25 8 43.5 13.5t19.5 4.5q3 -2 -7 -8t-24 -13q-16 -8 -38 -17zM270 481q-21 -67 -46 -143t-51 -143q-2 -2 -6.5 -12t-6.5 -10q-2 1 -1 11
t3 15q3 16 8 39t11 47t11.5 46.5t8.5 39.5q2 8 9 32.5t16.5 58t20.5 71.5t20 73.5t15 64.5t6 44v9.5t1 4.5q2 0 3 -4t3 -6q9 -22 9 -53t-5.5 -64.5t-13.5 -65t-15 -55.5zM85 537q-6 -28 -2.5 -52t13.5 -44.5t23 -38.5t25 -35q2 8 5 17q2 5 3 11q-4 4 -10 13t-12.5 19
t-11.5 19t-8 14q-6 11 -9.5 27t-2 33t9.5 33.5t24 28.5q23 17 48 24t49 12l4 11q-19 -3 -41 -8t-42.5 -15t-37.5 -26.5t-27 -42.5zM133 -70q0 -46 12 -82q3 -8 0 -10q-2 -1 -5.5 2t-5.5 5q-6 9 -10 16t-7 16t-4.5 21.5t-1.5 31.5q0 15 2.5 35t5.5 38t7 30.5t7 11.5
q1 0 2 -6.5t1 -14.5v-15v-9q-2 -16 -2.5 -34t-0.5 -36zM137 525q-6 -17 2 -41t25 -52l6 19q-25 42 -19 66.5t56 41.5q2 4 3.5 8.5t3.5 9.5q-29 -10 -50 -22.5t-27 -29.5zM399 643l-81 -5q0 5 -1 9.5t-1 8.5q21 -1 41.5 -2.5t42.5 -5.5q11 -2 10 -3t-11 -2zM244 162
q0 8 -1.5 13.5t-4.5 12.5q-4 -16 -8 -31t-9 -31q15 9 18 17t5 19zM184 492l6 19l9 26q-17 -11 -21 -19t6 -26z" />
    <glyph glyph-name="percent" unicode="%" horiz-adv-x="667" 
d="M227 580q3 -1 7.5 -8t10 -14.5t10.5 -14t8 -6.5q1 0 1 4v6q-1 13 -9 27.5t-19 25.5q-13 14 -35.5 19.5t-36.5 -7.5q-2 -1 -4 -2.5t-1 -2.5q2 -2 6 -2.5t5 -0.5q17 2 31.5 -4.5t25.5 -19.5zM170 433q-3 -8 -9 -16t-13.5 -14t-15 -10t-13.5 -4q-8 0 -15 10t-9.5 25.5
t1 34.5t16.5 37q5 2 2 5l-6 -4q-16 -11 -24 -31t-9 -41t4.5 -38.5t16.5 -23.5t26 -4t30.5 10.5t29 23t21.5 33.5q10 22 16 48.5t4.5 51t-12 42.5t-33.5 24q-1 0 -3 -0.5t-1 -2.5l4 -4q14 -14 18 -31t1.5 -36.5t-10.5 -41t-17 -43.5zM271 578q16 -40 17.5 -82t-10.5 -79.5
t-37.5 -68t-62.5 -48.5q-32 -15 -61 -13.5t-51 17t-36 43t-15 65.5q0 2 -0.5 5.5t-2.5 3.5q-1 0 -1.5 -2.5t-0.5 -3.5q-5 -14 -6.5 -33.5t3.5 -47.5q3 -14 14 -31.5t34 -28.5q33 -17 67.5 -16.5t66 14t57.5 37.5t43 55q13 25 21 53t8 57t-9.5 57.5t-30.5 52.5q0 1 -6 7t-8 4
q-1 -2 2 -7t5 -10zM227 382q2 2 4 10t-1 9l-6 -6q-3 -3 -6 -5q-17 -15 -34 -27.5t-36 -18.5q-2 -1 -12.5 -4.5t-23.5 -3.5t-25.5 5.5t-18.5 22.5q-6 18 -6.5 36.5t1.5 35t6.5 30t8.5 20.5q1 4 3 6l1 1q-1 2 -4 0.5t-5 -3.5q-15 -11 -25 -33t-12.5 -47.5t4 -49.5t24.5 -38
q23 -18 48 -18.5t47.5 9.5t40.5 29t27 40zM437 382q-42 -57 -89.5 -117t-92.5 -113l-10.5 -10.5t-10.5 -4.5q-1 0 3.5 10t6.5 12q7 15 18.5 34.5t24.5 40t26 39.5t23 33q4 6 17.5 26t31.5 48t37.5 61t37 64t29.5 57t15 41l2 4l2 4t2 3q2 0 3 -4t1 -6q2 -23 -4 -52.5
t-17.5 -60.5t-26 -59.5t-29.5 -49.5zM319 132q-35 -52 -76 -98.5t-73 -87.5q-5 -5 -8.5 -9.5t-3.5 -1.5q-4 0 -1 6l6 12q39 78 94.5 156.5t113.5 157.5q36 49 73 102t66 117q2 5 2.5 6t3.5 1v-9q-2 -23 -14 -53t-29.5 -63t-39 -67t-43 -65.5t-40.5 -58.5t-31 -45zM92 -152
q0 -11 -2 -10q-2 0 -3 2t1 3q-11 46 -5 92.5t23 92.5t42.5 91t54.5 89q40 60 82.5 116.5t81.5 110.5t72 106.5t54 103.5q2 2 2 4t2 0q2 2 1 -1.5t1 -4.5q-11 -60 -41.5 -117.5t-70.5 -115.5t-85 -115.5t-84 -117.5q-25 -38 -47.5 -78.5t-40 -83t-28 -85t-10.5 -82.5z
M137 -80q-6 -20 -10 -41.5t-5 -41.5q0 -2 -1.5 -6t-2.5 -3q-5 3 -6 6q-1 2 -1 4q-5 19 -5.5 36t8.5 52q4 14 12 32.5t17 34t16.5 25.5t10.5 8q1 0 0 -4t-3 -10t-4.5 -12t-3.5 -9q-15 -36 -22 -71zM569 306q2 -1 6.5 -8t10 -14.5t10.5 -14t8 -6.5q2 0 2 4v6q-2 13 -10 27.5
t-19 25.5q-13 14 -35.5 19.5t-35.5 -7.5q-2 -1 -4.5 -2.5t-1.5 -2.5q2 -2 6 -2.5t5 -0.5q34 4 58 -24zM511 159q-3 -8 -9 -16t-13.5 -14t-15 -10t-13.5 -4q-8 0 -15 10t-9.5 25.5t1 34.5t16.5 37q5 3 2 5l-6 -4q-16 -11 -24 -31t-9 -41t4.5 -38.5t16.5 -23.5t26 -4
t30.5 10.5t29 23t21.5 33.5q10 22 16 48.5t4.5 51t-12 42.5t-33.5 24q-1 0 -3 -0.5t-1 -2.5l4 -4q15 -14 19 -31t1 -36.5t-11 -41t-17 -43.5zM612 304q16 -40 17.5 -82.5t-10.5 -81t-37.5 -68.5t-62.5 -46q-32 -13 -61 -11.5t-51 16.5t-36 42t-15 65q0 2 -0.5 5.5t-2.5 3.5
q-1 0 -1.5 -2.5t-0.5 -3.5q-5 -14 -8 -33.5t5 -47.5q4 -14 14.5 -32t33.5 -28q33 -14 67.5 -13t66 13.5t57.5 35.5t43 54q13 25 21 53t8 57t-9.5 57.5t-30.5 52.5q0 1 -6 7t-7 4q-2 -2 1 -7t5 -10zM569 108q1 2 3 10t-1 9l-6 -6q-3 -3 -6 -5q-17 -15 -34 -27.5t-36 -18.5
q-2 -1 -12.5 -4.5t-23 -3.5t-25 5.5t-18.5 22.5q-6 18 -7 36.5t1.5 35t6.5 30t8 20.5q1 4 3 6l1 1q-1 2 -4 0.5t-5 -3.5q-15 -11 -25 -33t-12.5 -47.5t4 -49.5t25.5 -38q22 -18 47 -18.5t47.5 9.5t41 29t27.5 40z" />
    <glyph glyph-name="ampersand" unicode="&#x26;" horiz-adv-x="473" 
d="M422 77q-2 -2 -5 2t-5 7q-35 63 -52.5 135.5t-34.5 145.5q-11 47 -23 95t-38 96q-3 6 0 8q2 1 3 -0.5t4 -3.5q16 -11 30 -34t26 -51l11 13q17 20 32 41t31 42q2 2 5 6t4 2q1 -4 1 -9q0 -2 -1 -3q-8 -17 -19.5 -39t-41.5 -57l-15 -17q2 -3 3.5 -6.5t3.5 -8.5
q23 30 43.5 58t37.5 54q2 2 3 3.5t2 3.5t2 3q6 -2 3 -7q-15 -37 -36.5 -71.5t-46.5 -69.5q11 -39 20.5 -77t15.5 -61l1 -6q8 13 15.5 25t13.5 25q2 2 3 3.5t3 1.5q1 2 0.5 -2.5t-0.5 -5.5q-5 -17 -12.5 -34t-16.5 -35q2 -4 3 -8.5t2 -8.5q8 14 15.5 26.5t10.5 20.5l2 4l2 4
t2 3q3 0 3 -3.5v-7.5q0 -16 -7 -38t-21 -45q5 -29 10 -56t8 -50q1 -4 1 -8.5t-1 -4.5zM322 214q-1 0 -4.5 7t-3.5 9q-6 10 -12.5 26.5t-12.5 34t-10.5 34.5t-7.5 30q-2 9 -11.5 43.5t-23 75.5t-29.5 77t-30 48q-2 2 -1 4t1 4t3 0t5 -3q17 -6 33.5 -22t30.5 -36.5t24.5 -42.5
t15.5 -41q14 -53 22.5 -112.5t13.5 -113.5q1 -2 0.5 -11.5t-3.5 -10.5zM469 5q-3 -1 -8 -1h-3q-19 4 -32 9t-29 27q-8 7 -16.5 20.5t-15.5 26.5t-10.5 23t0.5 12q1 1 5 -1.5t8 -7t7.5 -9.5t5.5 -7q8 -12 17.5 -22.5t17.5 -19.5q13 -13 23.5 -24t26.5 -19q7 -3 3 -7zM236 270
q-18 -22 -33 -43t-26 -41q-18 -29 -22 -51.5t-2 -22.5q0 -3 6.5 -5t18 -1.5t26 4.5t29.5 13q11 6 19.5 11.5t18.5 13.5q-7 17 -12 33.5t-10 33.5q-4 14 -7.5 27.5t-5.5 27.5zM329 53q-28 -24 -69 -40t-96 -26q-32 -6 -59.5 -1.5t-47 18.5t-30 37t-9.5 54q1 49 13.5 81
t23.5 53q28 53 69 97.5t82 79.5q-12 57 -31.5 104.5t-36.5 92.5q-1 4 0 5q2 3 7.5 0.5t7.5 -4.5q28 -33 46.5 -78.5t32.5 -96.5t25.5 -106t26.5 -108q9 -33 23.5 -66.5t33.5 -63t43 -52t53 -33.5h7h-6q-35 0 -62 15t-47 38zM308 81q-11 -11 -24 -19t-25 -15
q-18 -11 -44.5 -18.5t-53.5 -8.5t-50.5 7.5t-35.5 30.5t-11 45t9.5 45t22 42.5t25.5 36.5q5 5 12.5 14.5t11.5 7.5q0 -1 -5 -12t-8 -15q-34 -53 -36 -93t21 -59t67 -11.5t101 49.5l4 3q-3 4 -5 11q-11 -9 -23.5 -16.5t-26.5 -15.5q-17 -9 -34.5 -13t-33 -4t-26.5 4.5
t-15 14.5q-9 22 2.5 55t32.5 65q14 23 30.5 47t36.5 47q-4 18 -8 37t-7 36q-33 -36 -69 -80t-60.5 -91t-30.5 -93.5t22 -85.5q16 -14 38.5 -19.5t47.5 -4.5t50 8t45 17q17 8 31.5 18.5t29.5 21.5q-3 2 -4.5 5t-3.5 6z" />
    <glyph glyph-name="quotesingle" unicode="'" horiz-adv-x="196" 
d="M88 470q-2 -8 -6 -14t-8 -11q0 -4 -4 -4q-3 0 -3 4q-3 8 -3 13.5v12.5q2 5 3.5 11t6.5 11l1 1q2 2 3 2q8 -2 9 -13t1 -13zM162 538q-5 -29 -17.5 -52t-49.5 -45h-6v1v1q17 23 28 47.5t15 47.5q8 43 7 85t5 83v2q0 2 1 2l1 -1q0 -1 0.5 -1.5t0.5 -1.5q20 -44 21.5 -85.5
t-6.5 -82.5zM53 486q-1 -1 -1.5 -3t-3.5 -1q-2 0 -3 3q-1 1 -1 3q-14 20 -16 39.5t1 36.5q2 10 5.5 25.5t9 31.5t13 30t17.5 22h5q2 0 2 -2v-1q-2 -19 -5 -36t-6 -35q-5 -28 -8.5 -56.5t-8.5 -56.5zM90 559q-5 22 -5 38.5t5 36.5q3 14 9 33.5t22 28.5q0 4 4 4q1 -1 1 -4
q2 -8 1.5 -24t-2 -32.5t-3 -30t-1.5 -16.5q-2 -10 -7 -19.5t-11 -17.5q-1 -2 -2 -3q-2 -2 -5 -2q-2 1 -3 4t-3 4z" />
    <glyph glyph-name="parenleft" unicode="(" horiz-adv-x="262" 
d="M155 11q8 -12 13 -29.5t13 -38.5q0 -1 1.5 -6.5t-0.5 -6.5q-1 0 -3 2t-4 3q-11 16 -22 33t-16 32q-7 12 -13 28.5t-8 33.5v5.5t3 3.5q3 1 8 -7t11 -18.5t10.5 -20.5t6.5 -14zM164 248q2 -40 6 -76t8.5 -71t9 -70.5t8.5 -74.5q0 -2 0.5 -4.5t-0.5 -2.5q-2 -1 -2.5 2
t-1.5 5q-22 64 -38.5 134.5t-21.5 142.5q-9 118 25 233t112 212q1 2 3 4q3 3 5 3q1 0 0 -3t-3 -7q-54 -104 -84.5 -211t-25.5 -216zM107 26q2 -5 4.5 -10t-0.5 -6q-1 0 -5.5 5.5t-5.5 6.5q-33 45 -50.5 104t-22.5 119q-3 36 4.5 87.5t22.5 103.5t36.5 95t46.5 62l4 4t4 0
t0.5 -4t-3.5 -4q-26 -50 -44.5 -103t-27.5 -109q-14 -89 -3.5 -178t40.5 -173zM89 264q-11 61 -3 113.5t28 110.5q7 21 19.5 46t27.5 48.5t32 44t34 32.5q2 1 5.5 3t4.5 1q4 0 -4 -10q-15 -17 -33.5 -56.5t-35 -83t-29 -80t-14.5 -47.5q-7 -29 -11 -61t-10 -61q0 -6 -1 -10
q-2 -10 -3 -10q-3 0 -5 9.5t-2 10.5z" />
    <glyph glyph-name="parenright" unicode=")" horiz-adv-x="212" 
d="M51 15q-10 -11 -19.5 -26t-21.5 -30q-1 -3 -3 -5l-4 -4q-4 4 0 10q4 17 11.5 30.5t14.5 25.5q7 15 14 28t16 27q2 2 3.5 6t3.5 2q3 -1 1.5 -10t-4.5 -20t-7 -21t-5 -13zM190 216q-20 -90 -58.5 -153.5t-101.5 -108.5q-1 -1 -3 -2.5t-4 -1.5q-2 2 0 3.5t4 5.5
q43 48 77 112t52 137q15 61 14.5 121t-8 119t-19 117.5t-17.5 115.5l-2 4q-3 5 1 5q1 0 5 -6q21 -51 38 -107.5t26.5 -116t9.5 -121t-14 -123.5zM30 56q-2 -5 -4.5 -9.5t-4.5 -2.5q-2 1 -1 6.5t1 7.5q6 49 15 92.5t20 97.5q6 25 9.5 64.5t6.5 81.5t6 82t7 67q-1 1 0 2
q0 3 4 3q1 0 1 -2.5v-4.5q7 -49 11.5 -97t2.5 -95q-2 -76 -21.5 -148.5t-52.5 -144.5zM121 249v51.5v46t-0.5 46t-1.5 50.5q-1 19 -4 45t-5 53.5t-2.5 53t3.5 45.5q0 2 0.5 5.5t3.5 3.5v-2q0 -3 1 -7q4 -13 9 -37.5t9.5 -53.5t8.5 -60.5t7 -59t4.5 -47.5t0.5 -27
q-3 -28 -8.5 -56t-14.5 -51q-2 -2 -4.5 -10.5t-5.5 -8.5q-2 0 -1.5 9.5t0.5 10.5z" />
    <glyph glyph-name="asterisk" unicode="*" horiz-adv-x="400" 
d="M247 681q-2 -14 -6 -22.5t-9 -15t-10 -12.5t-10 -15q-2 -4 -2.5 -10.5t-3.5 -6.5q-2 0 -4 6l-2 6q-3 9 -2.5 22t3.5 20q1 3 2.5 14t1 24.5t-3.5 26.5t-11 19q-5 3 0.5 3h6.5q29 -8 40.5 -27.5t9.5 -31.5zM171 552q-4 -2 -8.5 -4t-9.5 -4q-17 -10 -32.5 -24t-26 -33
t-15.5 -41.5t-2 -48.5q1 -8 -1 -6.5t-3 6.5q-15 52 -6 88.5t34 59.5q-10 13 -19.5 25.5t-17.5 22.5q-3 5 -1 7q1 2 10 0q29 -12 53 -36q5 4 10.5 6t10.5 5q-15 20 -9 44q0 5 1 8t2 7q-48 16 -109 2q-10 -2 -6 0t6 4q29 15 62 20.5t57 2.5q8 23 13 42.5t-8 38.5q-1 2 0 4
q0 3 7 -1q22 -15 26.5 -31t1 -33t-11 -34.5t-10.5 -34.5q-3 -22 13 -41.5t59 -39.5q-2 27 0 59.5t10 55.5q5 14 7.5 27t-3.5 33q-3 9 7 3q13 -8 18.5 -19.5t6 -24t-2 -24.5t-5.5 -22q25 6 46.5 13t41.5 18h2q3 0 4 -1q0 -3 -2 -6q-20 -28 -46.5 -40t-54.5 -21
q-2 -5 -3.5 -9.5t-3.5 -8.5q13 5 28 11.5t29 13.5t25.5 14t17.5 13t6 1q0 -1 -1 -3t-1 -4q-5 -16 -14 -29t-19 -23t-20 -16.5t-19 -9.5q-27 -8 -58.5 -14t-61.5 -13q-1 0 -7 -1t-8 1t2.5 5.5t6.5 5.5q5 4 11.5 9.5t15.5 10.5q-8 4 -13.5 7.5t-11.5 6.5zM388 460
q-25 -1 -49 7t-43 25q-8 -4 -12 -7q20 -16 41.5 -28t36.5 -10q7 0 4 -3t-6 -4q-14 -6 -30 -6.5t-31.5 3t-28.5 10.5t-21 15q-5 1 -9 7l-13 -7q14 -13 28 -22.5t33 -17.5q7 -3 3.5 -3.5t-6.5 -2.5q-23 -4 -44.5 5.5t-41.5 26.5q-19 -8 -39 -14.5t-35 -14.5q-8 -4 -9.5 -1.5
t3.5 8.5q24 31 58.5 50.5t71.5 30.5q24 7 47 13.5t45 23.5q5 4 4.5 0t-1.5 -7q-5 -9 -10 -16t-13 -13q16 -15 34.5 -25t34.5 -17q8 -3 4.5 -4.5t-6.5 -1.5zM121 610q-1 -2 -8.5 -1t-17.5 2t-19.5 2.5t-13.5 1.5q-11 1 -20.5 0.5t-23.5 -3.5q-8 -1 -8 0t6 6q14 9 26 13.5
t31 2.5q7 0 16.5 -3t17.5 -6.5t12.5 -7.5t1.5 -7zM121 477q1 -2 -0.5 -6t-3.5 -9t-4 -9t-2 -5q-5 -14 -9.5 -30t-4.5 -43q0 -8 -3.5 -2.5t-4.5 8.5q-4 15 -5 27t4 29q2 7 6.5 15t9.5 14.5t9.5 10t7.5 0.5z" />
    <glyph glyph-name="plus" unicode="+" horiz-adv-x="570" 
d="M544 295q0 -2 -1.5 -4.5t-2.5 -4.5q-11 -14 -27.5 -24t-35.5 -16t-37.5 -8.5t-33.5 -1.5q-41 4 -84 12t-85 19q-2 0 -8 2t-6 4q-1 3 5 4t9 1q19 5 49 5t50 -2q7 -2 34.5 -2.5t60 0t62.5 4t44 10.5q2 2 5 2h2v0zM559 325q1 -2 -1 -3t-3 -3q-33 -22 -71.5 -26t-79 -0.5
t-83.5 11t-85 7.5q-26 0 -54 -4t-55 -14.5t-51 -26.5t-42 -40q-5 -6 -4.5 -4t2.5 7q16 32 38.5 53.5t48.5 34t55.5 18t58.5 5.5q7 62 11.5 118.5t-6.5 107.5q-1 5 2 4t5 -4q16 -24 23 -50.5t8 -55.5t-2.5 -60t-7.5 -62h9.5t9.5 -1q1 18 2 48.5t0 62.5t-4 59.5t-10 40.5
q-5 8 -1 6.5t6 -3.5q13 -14 23.5 -33t17.5 -40t9.5 -41.5t0.5 -37.5q-2 -16 -4.5 -32t-5.5 -33q5 -1 8.5 -1t8.5 -1q4 37 6 73.5t-5 76.5q-2 8 0.5 6.5t4.5 -4.5q18 -25 22.5 -68t2.5 -89q52 -6 99 -9t89 8q3 0 4 -1zM355 -21q-4 0 -7 3q-2 1 -3 3q-15 9 -25.5 15t-19.5 25
q-4 9 -7.5 22.5t-5.5 26.5t-2 22t4 9q4 1 8.5 -8.5t9 -22.5t8 -26t6.5 -19q6 -14 14 -23t18 -20q2 0 3.5 -3.5t-1.5 -3.5zM151 269q1 -4 -10 -10t-16 -8q-11 -5 -21.5 -10.5t-19.5 -10.5q-12 -8 -23.5 -15.5t-19.5 -18.5q-3 -4 -4 -3t-1 3.5t1 5.5t1 5q5 8 15.5 21.5
t28.5 24.5q8 5 19.5 9.5t22.5 7t18.5 2.5t8.5 -3zM251 200q0 -29 3.5 -59.5t12 -59.5t22 -54.5t34.5 -43.5q8 -8 4 -8q-2 0 -3 1.5t-2 2.5q-32 17 -52 42.5t-32 55t-16 62t-3 64.5q-30 4 -59.5 7t-52.5 5q-8 0 -8 4q0 3 3 4.5t6 2.5q54 16 109 12.5t112 -8.5q36 -4 73.5 -6
t77.5 6q4 2 4 -3q0 -1 -1.5 -1t-2.5 -1q-19 -18 -52 -23.5t-69 -5.5q-3 -37 -10.5 -74t-11.5 -67q0 -11 -3 -11t-4 4t-3 7q-7 35 -7.5 70t2.5 72q-17 2 -36.5 2.5t-34.5 0.5z" />
    <glyph glyph-name="comma" unicode="," horiz-adv-x="242" 
d="M185 23q-7 -27 -26.5 -59t-47.5 -52q-1 -1 -5.5 -4t-7.5 -1q-1 1 0 6t2 7q5 13 16 33t17 34q6 13 9.5 33t3.5 40.5t-4.5 38t-16.5 26.5q-1 0 -1 3q0 1 1 1q1 1 8 -1q14 -5 25.5 -17t18.5 -27t9 -31.5t-1 -29.5zM171 -114q-22 -28 -50 -51t-51 -34q-2 -1 -5 -2t-5 1t0 4.5
t4 4.5q30 38 60 75t53 83q13 26 21 55t-3 63q-1 4 0 4l5 -3q20 -17 22.5 -45t-5 -57t-21 -56t-25.5 -42zM10 -222q-1 -1 -1 -3v-1q0 -1 -1 0q-3 0 -3 2v3q-2 37 1.5 64.5t10 48t15.5 36t20 29.5q13 16 25.5 37t19.5 44t6.5 47t-13.5 45q-4 6 2 6q3 0 4 -0.5t3 -2.5
q27 -20 33 -45.5t-1.5 -52.5t-23.5 -52.5t-32 -45.5q-21 -27 -39 -66t-26 -93zM44 -199q-5 -11 -8.5 -21t-5.5 -24q-1 -2 -1 -5t-2 -3q-1 0 -3 6l-2 6q-2 17 -1.5 28.5t8.5 30.5q3 7 8 15.5t10.5 15.5t10 11.5t6.5 2.5q3 -3 0.5 -12.5t-4.5 -13.5q-4 -9 -8 -17.5t-8 -19.5z
" />
    <glyph glyph-name="hyphen" unicode="-" horiz-adv-x="466" 
d="M332 242q-30 2 -63.5 9.5t-62.5 18.5q-2 1 -6.5 3t-4.5 5t4.5 4.5t6.5 1.5q14 3 36.5 2.5t36.5 -2.5q12 -2 33 -2t43 2t42 7t29 13q4 4 5 3t0.5 -3t-1.5 -5l-1 -3q-7 -14 -19 -24.5t-25.5 -17t-27.5 -10t-25 -2.5zM215 207q-27 2 -55.5 7t-51.5 9q-7 0 -7 4q0 2 3.5 3.5
t6.5 2.5q39 11 80.5 8.5t83.5 -7.5q27 -3 54.5 -5.5t56.5 8.5q3 1 3.5 -1t-1.5 -4q-12 -17 -35 -23t-49 -7t-50.5 1.5t-38.5 3.5zM53 234q-1 -2 -2.5 -1t0.5 4q13 33 31.5 54.5t39.5 33.5t44 16t46 3q31 -1 61.5 -6t59 -8.5t55 -3t49.5 11.5q1 0 3 -1.5t-3 -6.5
q-23 -23 -50.5 -28.5t-58 -3t-62 8.5t-62.5 7q-38 2 -79.5 -16t-71.5 -64zM92 238q-8 -7 -17 -15t-17 -19q-5 -3 -5 -1q0 6 1 7q0 1 1 2q4 16 11 26t22 22q6 4 14.5 8.5t16.5 7t14 2.5t7 -4t-7 -8.5t-11 -6.5q-17 -11 -30 -21z" />
    <glyph glyph-name="period" unicode="." horiz-adv-x="252" 
d="M133 -20q-5 0 -15.5 1.5t-10.5 9.5q0 3 9 7.5t20 12.5t20 21.5t9 34.5q0 26 -10 39q-2 3 -5 6.5t-2 4.5q2 0 4.5 -1.5t3.5 -2.5q20 -11 30.5 -28.5t10.5 -33.5q0 -32 -15 -51.5t-49 -19.5zM96 19q-12 -5 -12 6q0 8 6 15.5t11.5 16.5t7.5 20.5t-6 28.5q-2 5 -7 11t-3 7
t8.5 -1.5t8.5 -3.5q17 -8 25.5 -24t8.5 -28q0 -19 -15.5 -31.5t-32.5 -16.5zM67 73q0 5 3 11.5t10 6.5q5 0 8 -6.5t3 -11.5q0 -4 -3 -10.5t-8 -6.5q-7 0 -10 6t-3 11z" />
    <glyph glyph-name="slash" unicode="/" horiz-adv-x="286" 
d="M236 430q-21 -57 -49 -117t-58 -112q-2 -2 -6.5 -9.5t-7.5 -7.5q-1 2 0 11t3 12q3 13 9 31.5t12.5 38t13 37.5t11.5 31q2 6 9 26t16 47.5t18.5 59t17 61t12 54t3.5 37.5v7q0 2 1 3q2 0 4 -3t2 -4q9 -19 11 -45.5t-0.5 -55t-8.5 -55.5t-13 -47zM196 195q-9 -26 -20.5 -52
t-23.5 -51.5t-23.5 -48.5t-21.5 -42q-3 -1 -5.5 -1h-4.5q-3 0 -1.5 0.5t1.5 4.5q20 81 49 158.5t62 155.5q21 50 39.5 101.5t29.5 111.5q0 5 2 5q1 0 3 -8q7 -29 -1.5 -74.5t-24 -94t-33 -93t-27.5 -72.5zM56 -85q0 -3 1 -6t-1 -1q-4 0 -4 3q-20 36 -26 76.5t-2.5 83
t14.5 85.5t26 84q21 58 45 113.5t46 109t38.5 103.5t22.5 98q0 2 0.5 4t2.5 2q2 1 2 -2.5t2 -4.5q6 -53 -6 -107.5t-33.5 -111t-47.5 -113.5t-47 -115q-13 -36 -23.5 -75t-16 -78.5t-4.5 -77.5t11 -70zM79 -14q-1 -20 1.5 -38.5t5.5 -38.5v-5t-2 -2q-5 2 -6 4q-1 1 -1 3
q-11 16 -15.5 31.5t-3.5 48.5q0 8 3 24t6.5 31.5t8 26.5t8.5 10q1 0 1.5 -5.5t0 -12.5t-1 -13.5t-0.5 -9.5q-2 -18 -3.5 -30.5t-1.5 -23.5z" />
    <glyph glyph-name="zero" unicode="0" horiz-adv-x="407" 
d="M271 116q-2 -3 -5.5 -7.5t-7 -8.5t-7 -6.5t-4.5 -1.5q-2 0 -0.5 4t12.5 29q13 28 21.5 64t12.5 73.5t5.5 73.5t1.5 65q0 15 -2.5 36t-9 41t-18 34t-30.5 14q-24 0 -44 -13t-35.5 -28.5t-26 -29t-15.5 -14.5q7 19 19 39.5t28.5 37t36 27t42.5 10.5q31 0 49.5 -20t28.5 -48
t12.5 -59t2.5 -53q0 -32 -3.5 -65.5t-11.5 -65.5q-3 -11 -8 -27t-12 -34t-15.5 -36t-16.5 -31zM256 373q0 7 -0.5 21t-3 28.5t-7 25.5t-12.5 11q-6 0 -15 -5t-18 -17q-28 -36 -44.5 -70t-26 -69.5t-15 -73.5t-10.5 -82q-3 1 -5 11.5t-3.5 23.5t-2 25t-0.5 16q0 50 12.5 99
t35.5 94q6 12 17.5 28.5t25 31.5t29.5 25.5t31 10.5q14 0 22.5 -15t13 -35t5.5 -40t1 -31q0 -57 -11.5 -120t-34.5 -114q-2 -2 -4 -4.5t-2 5.5q0 27 3.5 54.5t7.5 55t7.5 55t3.5 55.5zM130 23q6 0 13 2.5t2 -3.5q-6 -8 -23 -8q-33 0 -55.5 28.5t-36 67t-19.5 79t-6 64.5
q0 75 24 149.5t74 131.5q12 14 27 28t32 25t35.5 18t38.5 7q45 0 74.5 -20.5t47 -52t25 -70t7.5 -74.5q0 -35 -5.5 -74t-15.5 -77.5t-24 -75t-31 -67.5q-25 -45 -61 -73t-89 -28q-4 0 -13.5 0.5t-12.5 2.5l-6 3q-4 2 6 2q37 -2 68 16.5t55 50.5t42 73.5t30 85.5t17.5 87
t5.5 78q0 28 -5.5 60t-19 59t-37 45t-58.5 18q-18 0 -36 -8q-43 -20 -74 -58t-51.5 -84.5t-30.5 -96.5t-10 -93q0 -13 2 -34t7 -45.5t12.5 -49t18 -44.5t24.5 -32.5t32 -12.5zM64 270q2 0 3 -7t1 -8q2 -13 2.5 -25t2.5 -23q2 -12 7 -38t14 -53t21.5 -47t28.5 -20
q3 0 5.5 0.5t2.5 -2.5q0 -11 -25 -11q-14 0 -24.5 10.5t-18.5 27.5t-13.5 37.5t-8.5 40.5t-4.5 37t-1.5 27v11t1 18.5t2.5 17t4.5 7.5z" />
    <glyph glyph-name="one" unicode="1" horiz-adv-x="306" 
d="M236 555q-1 -6 -7 -12t-12.5 -11t-12.5 -8t-7 -2t2.5 6.5t8 12t8.5 14.5t5 14q3 17 0 38q0 7 2 7t5 -5q1 -3 2 -5q3 -8 6 -21.5t0 -27.5zM200 567q-17 -26 -43.5 -41.5t-55.5 -28.5q-17 -7 -34.5 -16.5t-28.5 -29.5q-1 -3 -2 -3q-2 0 -2 7q-3 18 7 33t25 26.5t30.5 19.5
t24.5 13q17 9 38 15t36 12q8 3 7 -1t-2 -6zM175 496q1 -5 -4 -10q-7 -7 -19.5 -16t-26.5 -17q-8 -4 -19.5 -12t-22.5 -17.5t-18.5 -21t-6.5 -23.5q0 -5 -3 -2q-2 2 -4 8q-8 28 0.5 51t22.5 31q19 11 43 18.5t47 11.5q2 0 6 0.5t5 -1.5zM278 462q12 -22 10.5 -55.5t-9.5 -69
t-18 -68.5t-16 -53q-10 -37 -25 -75t-28 -66q-3 -8 -7 -8q-3 0 -3 3.5v6.5q2 60 18.5 117t36.5 114q12 35 23 72t11 80v6t2 3t3.5 -3t1.5 -4zM137 232q-16 -55 -11.5 -117.5t37.5 -113.5q2 -3 -4 -1q-28 27 -42 57.5t-18 62.5t0 65t12 63q12 44 27 86t29 82
q-15 -6 -30.5 -12.5t-29 -14t-23.5 -17.5t-14 -23q-1 -2 -2.5 -0.5t-1.5 6.5q-1 27 11.5 43t31 26.5t41 19t40.5 19.5q12 7 23.5 18.5t20 26.5t12 34.5t-0.5 43.5q-1 5 1 4.5t3 -2.5q10 -26 10 -71.5t-10 -98.5q-4 -22 -12 -48t-17.5 -52.5t-20 -51.5t-20.5 -44
q-2 -3 -4.5 -9t-4.5 -5q-3 1 -3 7.5v7.5q1 10 3.5 23.5t6 28t7.5 28t8 23.5q1 4 5 17.5t8.5 32t9 39.5t7.5 41q-11 -11 -24.5 -41.5t-25.5 -66t-21.5 -68.5t-13.5 -48zM195 -4q-6 0 -10 4q-14 11 -21.5 21.5t-12.5 33.5q-2 9 -3 22.5t-1 25.5t2 20.5t6 8.5q1 0 2.5 -4
t3 -9.5t2.5 -10.5t1 -7q2 -13 3 -24t4 -22q9 -30 23 -54q1 -1 2 -3t-1 -2z" />
    <glyph glyph-name="two" unicode="2" horiz-adv-x="386" 
d="M332 416q-11 -41 -33 -69.5t-46 -50.5q-3 -2 -10.5 -8t-9.5 -4q-3 2 2.5 9.5t8.5 10.5q9 12 19 30t18.5 38t13.5 39t5 34q0 13 -5 28t-16 28t-30.5 20.5t-47.5 5.5q-27 -2 -48.5 -13.5t-36.5 -27t-24 -31t-10 -25.5q-1 -6 -1 -6.5t-2 -1.5q-1 0 -2.5 3t-1.5 5
q-4 21 5.5 49t37.5 53q26 23 64 30t70 -3q21 -6 38.5 -21.5t28.5 -35t15 -42.5t-2 -44zM329 85q-8 -9 -17 -19t-23 -17q-6 -3 -14 -5.5t-15 -3.5t-12 -0.5t-4 4.5q0 2 6.5 5t8.5 4q9 5 16.5 8.5t14.5 8.5q19 12 39 26q7 5 5 -1t-5 -10zM284 82q-1 -2 -9 -4q-36 -5 -70.5 1
t-69.5 15q-24 7 -49.5 8t-51.5 -13q-4 -2 -4 1q0 2 1 4.5t2 4.5q31 64 78.5 131t95.5 125q36 44 41.5 76.5t-25.5 45.5q-19 8 -38.5 3.5t-37 -17t-30 -30.5t-17.5 -38q-1 -5 -4 -5t-3 3v3q-2 25 10 49.5t32.5 42t47.5 24t55 -5.5t36 -34t1.5 -48.5t-23.5 -53.5t-38 -49
q-20 -21 -40.5 -46.5t-39 -52.5t-34.5 -52.5t-26 -46.5q4 2 15 2.5t15 0.5q7 12 15 23.5t15.5 20.5t13 14t8.5 4q1 -1 -1 -6.5t-5.5 -12.5t-7 -13.5t-4.5 -8.5l-11 -21q5 -1 10.5 -1t10.5 -2q23 35 49.5 66t54.5 63q14 16 30.5 35t30.5 40.5t24.5 47.5t13.5 58
q1 19 -4.5 39.5t-17 39.5t-28 34t-37.5 23q-42 16 -84.5 7.5t-74.5 -33.5q-5 -5 -6.5 -5.5t-2.5 0.5t0.5 4t3.5 6q11 17 37 32t62 20q17 3 38.5 0.5t43 -10.5t41 -22t34.5 -36q15 -23 21.5 -46.5t7 -46.5t-4 -43.5t-10.5 -35.5q-13 -32 -28.5 -54.5t-27.5 -36.5
q-35 -42 -74.5 -79.5t-73.5 -68.5q6 0 11 -1t9 -2q24 -5 48.5 -13t43.5 -17q7 -4 6 -6zM327 58q-20 -26 -39 -40.5t-37.5 -21.5t-36.5 -7.5t-36 1.5q-24 3 -49 8t-48 7.5t-43 1t-34 -10.5q-3 -3 -3.5 -0.5t0.5 4.5q13 22 34.5 28t47 3.5t52.5 -9.5t51 -11q31 -5 67 6t72 49
q4 4 4 -0.5t-2 -7.5zM197 45q0 -3 -4 -3.5t-5 -0.5q-14 -2 -36.5 0t-35.5 4q-9 1 -25 1t-32.5 -2t-31 -7t-19.5 -15q-5 -9 -5.5 -3.5t0.5 8.5q3 15 13 26t23 18t26 10t23 3q27 -2 50.5 -8.5t47.5 -20.5q2 -1 6.5 -4t4.5 -6z" />
    <glyph glyph-name="three" unicode="3" horiz-adv-x="352" 
d="M226 416q-1 -1 -5 -4.5t-7 -1.5q-2 2 -1 6.5t2 5.5q8 16 12 39.5t-1 37.5q-6 19 -24.5 25.5t-41 3t-42.5 -16.5t-29 -34q-1 -2 -2.5 -3t-2.5 1q-2 2 -2 6q0 17 9.5 33t24.5 28.5t34 19t39 5.5q31 -3 47.5 -20t20.5 -40t-4 -48t-27 -43zM193 432q-15 -26 -34 -54.5
t-36 -67.5q-4 -3 -6.5 -5t-5.5 -5q14 44 32.5 81t29.5 62q13 28 4.5 34t-25 0.5t-34 -16.5t-23.5 -17q-4 -4 -6 -1v5q10 32 39 50t57 13q14 -3 19.5 -11t5.5 -19.5t-5 -24t-12 -24.5zM326 212q3 -32 -2.5 -60t-15.5 -50.5t-21.5 -39t-20.5 -25.5q-21 -21 -50.5 -32.5
t-60.5 -14.5t-58.5 0t-44.5 10q-13 5 -11 11q1 3 6 1.5t9 -2.5q38 -5 75.5 2.5t69 26.5t56 48t36.5 68q7 23 3.5 57t-21 62.5t-51.5 43t-87 -2.5q4 7 10 15.5t11.5 15t10 10.5t6.5 3q2 -2 0 -9t-5 -12q7 2 16.5 2h14.5q14 15 28 31t25.5 35.5t17.5 43t5 54.5q-1 19 -9.5 33
t-21 23t-27 14t-27.5 6q-26 2 -46 -4t-38 -17q-5 -4 -6 -3q-1 2 0.5 4t2.5 4q5 9 20.5 19.5t37 16t47.5 3.5t52 -18q34 -21 44 -55t3 -70.5t-27.5 -71t-47.5 -55.5q33 -11 60.5 -43t31.5 -78zM266 263q16 -29 15.5 -59t-11 -56t-28 -46.5t-36.5 -30.5q-2 -2 -9 -4t-8 0
t2.5 7t5.5 7q6 7 13.5 18t14.5 24t12 26t7 24q1 3 1 13t-2 23t-8.5 27t-19.5 25q-14 11 -30 14.5t-30 2.5t-25.5 -5.5t-15.5 -9.5q-5 -5 -5 -1t1 7q6 15 24.5 27.5t44.5 14.5q26 1 51 -14t36 -34zM219 233q9 -20 6.5 -43.5t-14.5 -47t-32 -43.5t-45.5 -32t-55.5 -13.5
t-61 12.5q-6 3 -5 10t9 3q31 -14 64.5 -2t60 36t40 53.5t4.5 51.5q-8 19 -33.5 24t-47.5 -14q-5 -4 -4.5 -1t2.5 6q9 16 24.5 24t32.5 8.5t32 -7.5t23 -25zM126 36q0 -5 -14 -9.5t-23 -5.5q-29 -2 -46 3.5t-36 19.5q-7 6 -8 8t1 2.5t5.5 -0.5t6.5 -2q16 -8 36 -10.5t37 -3
t29 -0.5t12 -2z" />
    <glyph glyph-name="four" unicode="4" horiz-adv-x="371" 
d="M238 585q7 -14 9 -32t-1 -36t-9.5 -34.5t-14.5 -27.5q-23 -32 -50.5 -63.5t-55.5 -59.5q-1 -2 -6.5 -5.5t-8.5 -1.5q-2 1 0 6t4 7q3 8 8.5 19t12 22.5t13 22t12.5 17.5q5 5 18.5 26.5t28 47.5t24.5 52t8 40q-1 3 0 5.5t3 1.5q3 0 5 -7zM326 232q-1 -5 -3.5 -9.5
t-10.5 -7.5q-35 -14 -69.5 -11.5t-72.5 8.5q-33 5 -64.5 0.5t-57.5 -27.5q0 10 2.5 24.5t6 27t7 20.5t6.5 6q2 0 2.5 -10.5t0.5 -16.5l-3 -24q4 7 11.5 12.5t11.5 8.5q16 42 42 80t55 76q20 27 40.5 56t29.5 66q3 3 6 3q1 -2 0.5 -3t-0.5 -3q7 -21 -3 -49t-26 -56t-34 -53
t-28 -40q-11 -17 -24 -34t-25 -32q17 2 35 1.5t35 -1.5q20 36 33.5 70t10.5 68v1q0 2 1 2q2 0 4 -2q1 -1 1 -3q8 -17 9.5 -34t-1.5 -34.5t-9.5 -35t-14.5 -35.5h8.5t8.5 -1q5 15 10.5 32t9.5 34t5.5 31t-2.5 23l-3.5 7t1.5 2q1 0 3.5 -1.5t4.5 -3.5q12 -12 17.5 -28.5
t7 -33.5t-1.5 -33t-9 -27l-5 -9q8 0 16 -3q7 17 11 33.5t6 36.5q0 4 1 4q2 -1 2.5 -2.5t1.5 -2.5q2 -5 5.5 -24.5t-2.5 -42.5zM360 240q-3 -11 -8 -24t-19 -24q-5 -4 -12.5 -8.5t-15 -7t-13 -3t-4.5 3.5q-2 3 5 8.5t10 7.5q7 5 12 8.5t11 8.5q8 7 16.5 15t13.5 19
q3 6 4.5 3.5t-0.5 -7.5zM215 612q6 -37 -6.5 -69.5t-34.5 -64t-48 -62t-47 -63.5q-23 -37 -36 -82.5t-2 -93.5q-3 -3 -7 -13q-26 58 -15.5 112t39.5 99q21 33 45.5 63t46 59t38 58t22.5 59q0 4 1 4q2 0 2.5 -3t1.5 -3zM238 171q0 -3 -3.5 -4t-5.5 -1q-11 -2 -35.5 -3
t-42.5 0q-35 2 -66.5 -0.5t-50.5 -20.5q-5 -5 -3.5 0.5t2.5 8.5q7 14 18.5 24t25 16t26 9t20.5 3q32 0 56.5 -8.5t50.5 -16.5q2 -1 5 -3t3 -4zM366 215q-14 -43 -36.5 -66.5t-47.5 -34.5q-5 -13 -13 -28.5t-17.5 -30.5t-19 -29.5t-16.5 -25.5l-3.5 -3.5t-3.5 -0.5q-1 1 -1 5
q2 27 9.5 52t18.5 50h-13q-15 0 -29.5 1.5t-29.5 3.5q-12 -37 -11 -78t28 -74q4 -5 1.5 -4.5t-4.5 2.5q-41 34 -48 76.5t4 83.5q-29 5 -55.5 6.5t-52.5 -10.5q-5 -4 -5.5 -1t4.5 7q19 25 43 30.5t51 3t55 -8.5t55 -5q17 -1 35.5 2.5t36.5 13.5t33.5 26t27.5 40q2 5 3.5 2.5
t0.5 -5.5zM211 -55q-2 0 -4 1l-4 2t-4 3q-11 11 -17 20t-11 29q-2 6 -1.5 15t2.5 17t4.5 13t5.5 4q2 0 4.5 -10.5t3.5 -15.5q2 -17 6 -36t15 -37q2 -5 0 -5z" />
    <glyph glyph-name="five" unicode="5" horiz-adv-x="379" 
d="M386 593q-2 -15 -6 -26t-14 -22q-5 -6 -13 -10.5t-15 -7.5t-11.5 -3.5t-4.5 2.5q-1 3 6 9t10 8q7 6 11.5 10.5l10.5 10.5q7 8 11.5 14.5t9.5 17.5q1 2 4 4.5t1 -7.5zM352 575q1 -2 -1 -3l-4 -2q-31 -17 -65 -15.5t-66 9.5q-20 5 -39 10t-45 -1q-3 -2 -3 0q0 3 3 5
q13 14 29.5 19t33.5 5t34 -3.5t31 -5.5q20 -4 45 -7t42 -8q5 0 5 -3zM278 521q-1 -2 -5 -4t-6 -2q-6 -2 -16 -2t-21.5 1t-21.5 2t-16 2q-28 4 -57.5 4.5t-49.5 -10.5q-5 -2 -5 1.5t4 7.5q20 26 46 34.5t41 4.5q23 -6 48.5 -14.5l49.5 -16.5q1 0 5 -2.5t4 -5.5zM322 292
q16 -32 18 -64.5t-3 -62t-14.5 -53.5t-16.5 -38q-14 -27 -36 -51t-47.5 -43t-52 -31.5t-48.5 -18.5q-6 -2 -11.5 -2.5t-5.5 0.5q-1 3 3.5 5.5t9.5 5.5q37 23 71.5 50.5t60.5 61.5t41.5 75t16.5 90q0 30 -14 60.5t-38.5 53.5t-56.5 34.5t-67 4.5q-11 -2 -11 9t2 22q3 20 7 40
t6 40q-8 2 -15 2q-5 -20 -9 -37.5t-15 -37.5q-1 -2 -3 -5t-5 -3t-3 4t-1 5q-2 19 0 38.5t5 39.5q-17 0 -21 -14t-5 -25q-2 -17 -3.5 -30.5t-5 -25.5t-9.5 -23.5t-16 -25.5q-1 -1 -3.5 -3t-4.5 -1q-1 2 -1 7q2 17 3.5 39t4.5 43q3 12 5.5 30t7.5 37t14 34.5t25 22.5
q9 4 8 0.5t-5 -7.5q-10 -8 -16 -23t-9 -43q14 17 27 23t30 6q19 0 38.5 -3t38.5 -7l38 -8t36 -4q33 -1 68 19.5t54 66.5q2 5 4 3.5t0 -5.5q-9 -35 -23.5 -58t-33 -36t-39 -18t-39.5 -4q-25 2 -47.5 7.5t-44.5 12.5q-2 -19 -4.5 -36t-8.5 -37l-4 -14q19 4 43 0.5t48 -14.5
t45.5 -31t36.5 -49zM10 286q-4 0 -2.5 6t5 13.5t9.5 15.5t11 12q12 11 19.5 13t21.5 7q5 2 9.5 -0.5t-6.5 -8.5q-8 -5 -14.5 -9t-14.5 -10q-16 -13 -26 -26.5t-12 -12.5zM245 323q25 -25 35 -57.5t8 -65.5t-14.5 -63.5t-31.5 -50.5q-1 -3 -7 -9t-8 -4q-3 0 0 8t5 11
q6 11 11.5 27.5t9.5 34.5t5.5 35t-0.5 29q0 3 -2.5 15t-10 26t-20.5 28t-32 21q-48 18 -88.5 6.5t-66.5 -35.5q-7 -8 -6 -2t5 11q16 25 43 41.5t56.5 21.5t58.5 -1.5t50 -26.5zM206 105q-15 -28 -36.5 -52t-47 -46.5t-55 -45t-60.5 -46.5q-7 -5 -7 -3q0 3 3 5
q31 32 57.5 58.5t49 51t40.5 48.5t32 52q22 43 22.5 72t-22.5 57q-11 14 -27.5 21t-34 7t-35 -6t-30.5 -18q-2 0 -2.5 -1t-0.5 1q-3 0 3 6q10 18 29 28.5t41 13t44 -4.5t39 -25t23 -39.5t4.5 -44t-9.5 -45.5t-20 -44zM159 0q1 0 -2 -3.5t-8 -8t-10 -9.5l-7 -7
q-13 -10 -25 -20t-25 -20q-34 -25 -74 -41q-6 -3 -6 1.5t5 9.5q7 7 13.5 12t13.5 10.5t16 12t23 15.5q10 6 24 15t27.5 16.5t23 12.5t11.5 4z" />
    <glyph glyph-name="six" unicode="6" horiz-adv-x="400" 
d="M304 563q6 4 7.5 3.5t1 -3.5t-2.5 -6.5t-3 -5.5q-23 -31 -51.5 -66.5t-55.5 -76.5q-45 -65 -76.5 -135.5t-31.5 -142.5q0 -43 27.5 -69.5t69.5 -34.5q6 -1 14 -3t8 -4q0 -4 -10.5 -4.5t-15.5 -0.5q-60 0 -93 37.5t-33 95.5q0 34 9.5 70.5t26 73.5t38.5 73.5t48 69.5
q29 38 60 72t63 57zM142 148q0 -37 16.5 -48.5t51.5 -11.5q16 0 29 8t22.5 20t14.5 27t5 30q0 5 -1.5 11t-4.5 11q-2 2 -3 6.5t5 4.5t10.5 -5.5t7.5 -13.5t4.5 -16t1.5 -13q0 -44 -26 -73.5t-71 -29.5q-42 0 -69 22.5t-27 66.5q0 33 13.5 74t34 81.5t44.5 77t45 60.5
q5 6 7.5 4.5t-1.5 -11.5q-13 -35 -31.5 -69t-36 -68t-29.5 -70t-12 -75zM170 189q-5 -5 -7 -4t0 8q6 16 17 32t25.5 29t32 20.5t37.5 7.5q29 0 51 -12t37 -31.5t22.5 -45t7.5 -51.5q0 -42 -15.5 -75.5t-42.5 -56.5t-63 -35t-77 -12q-86 0 -138 47t-52 132q0 60 19.5 115.5
t50.5 106.5q20 33 48 70t61 70.5t68.5 62t70.5 45.5q7 3 9.5 2t-3.5 -7q-33 -34 -71.5 -71t-73.5 -77q-30 -35 -57 -72.5t-46.5 -77t-31 -82t-11.5 -86.5q0 -73 46.5 -110.5t118.5 -37.5q34 0 63 11t50.5 31.5t34 48.5t12.5 61q0 21 -5.5 41t-17 36t-28.5 26t-39 10
q-17 0 -31.5 -6.5t-27.5 -16t-23.5 -22t-20.5 -24.5zM271 221q-11 0 -23 -5.5t-22.5 -13.5t-20 -17.5t-15.5 -17.5q-2 -3 -5.5 -6t-3.5 6q0 14 9 27.5t22 24t28 17t27 6.5q35 0 54 -24.5t19 -57.5q0 -11 -2 -13.5t-4 -2.5q-1 0 -5 15q-5 23 -18.5 42.5t-39.5 19.5z" />
    <glyph glyph-name="seven" unicode="7" horiz-adv-x="326" 
d="M318 588q-5 -14 -10 -26.5t-16 -23.5q-4 -4 -11 -8t-13.5 -6t-11.5 -2t-5 4q0 2 6 7.5t9 7.5q5 5 11 9t11 9q8 8 13 15t11 16q5 8 6 4.5t0 -6.5zM281 570q1 -2 -7 -6q-31 -12 -63 -9t-66 9q-20 4 -41.5 6t-44.5 -6q-7 -2 -1 6q10 16 27 23t35.5 8t36.5 -1.5t29 -4.5
q23 -5 47 -10.5t41 -10.5q7 -2 7 -4zM207 522q0 -3 -3 -4.5t-4 -1.5q-6 -2 -16 -2t-20.5 0.5t-20.5 1.5t-16 2q-8 1 -21 1.5t-28 -1.5t-29 -6.5t-22 -12.5q-4 -5 -4 0.5t2 7.5q6 14 16 23.5t21 15.5t22 9t19 3q22 0 48 -9t49 -20q1 -2 4 -3t3 -4zM310 425q6 -24 -3 -58
t-24.5 -69.5t-33 -67.5t-26.5 -52q-17 -36 -39 -72t-37 -65q-4 -10 -7 -9t-3.5 5t0.5 8q10 61 38.5 117t60.5 112q20 34 38.5 71.5t29.5 80.5q0 5 0.5 5.5t2.5 0.5q1 -2 1 -3.5t2 -3.5zM248 462q-8 -32 -23 -63t-33 -62t-37 -62.5t-34 -64.5q-12 -26 -21 -56t-12 -60.5
t0.5 -60t16.5 -53.5q3 -6 2 -7q-2 -1 -3 0.5t-2 2.5q-27 26 -36.5 58t-8 66.5t12.5 68.5t26 65q29 60 63.5 114.5t59.5 106.5h-23q-25 1 -49 7t-46.5 10t-43 4t-38.5 -9q-4 -2 -3.5 1t2.5 6q13 24 34 29.5t46 2t51.5 -11t50.5 -8.5q31 -2 63 15t55 62q2 5 4 3.5t0 -7.5
q-15 -48 -37 -70q6 -34 -2 -71.5t-20 -62.5q-20 -42 -48 -83.5t-55 -78.5q-2 -1 -6 -6.5t-7 -4.5q-2 2 -1 8t3 9q3 10 8.5 25t12.5 30.5t14.5 30.5l12.5 25q6 11 15 29.5t18.5 40.5t18.5 45.5t15 44.5q-8 -5 -16 -8zM136 -33q-5 1 -8 5l-4 4q-8 11 -14.5 20.5t-8.5 28.5
q-1 10 0.5 24t4.5 27t6.5 21.5t6.5 7.5q2 -1 2.5 -15t0.5 -19q0 -12 0.5 -25t2.5 -24q2 -16 4 -24.5t7 -22.5q2 -8 0 -8z" />
    <glyph glyph-name="eight" unicode="8" horiz-adv-x="421" 
d="M358 474q2 -20 -2.5 -40.5t-13.5 -37.5q-18 -35 -45.5 -57t-57.5 -40.5t-60 -37.5t-53 -49l-21 -27q-1 0 -1 3q-1 4 3.5 15t6.5 16q10 25 30.5 46t44 39t48 36t43.5 37.5t30 43t8 53.5t-27 44.5t-52.5 13.5t-53.5 -17t-32 -48q-4 -17 -0.5 -36.5t10.5 -35.5q4 -10 3 -10
q-3 -1 -11 7q-13 15 -20 37t-5 42q2 30 19 50.5t41 30.5t52.5 10t53 -9.5t42 -29.5t20.5 -49zM279 258q-32 -21 -57 -42.5t-43 -59.5q-10 -21 -9 -36t10 -21t25.5 -2t39.5 22q24 19 37 48t11 52q-2 11 -5.5 20t-8.5 19zM366 111q-14 -59 -61.5 -93t-122.5 -35q-34 0 -63.5 9
t-52 26t-37 40.5t-17.5 52.5q-4 34 5 66.5t27 61.5t43 55t53 48q2 2 4.5 4t4.5 3q-26 22 -41.5 52t-15.5 62q0 46 22 77t56 46.5t74 16t75 -14.5t61 -45.5t31 -76.5q6 -56 -22 -106t-77 -83q19 -18 30 -41t14 -46q4 -35 -12 -68t-45 -56q-5 -3 -11.5 -4.5t-6.5 0.5
q0 4 4.5 10.5t9.5 11.5q37 48 38.5 91.5t-33.5 94.5l-12 -8q10 -13 15.5 -28.5t7.5 -27.5q2 -23 -6 -47t-24.5 -43.5t-40.5 -32.5t-52 -13q-23 0 -36 7.5t-18.5 19.5t-5 26t5.5 28q11 36 35 61.5t52.5 47t58 41t52 44t35 56.5t7.5 77q-4 31 -24 52.5t-48 32.5t-60.5 11
t-60.5 -12t-47.5 -36t-21.5 -60q-2 -29 10.5 -58.5t36.5 -51.5q18 11 37.5 22.5t35 25t26 29.5t12.5 37q1 14 -5 21.5t-15 10t-20.5 1t-21.5 -5.5q-12 -5 -12.5 -2.5t1.5 5.5q5 9 21 14.5t33.5 3.5t32 -13t17.5 -34q1 -15 -4 -31t-15 -31.5t-22.5 -28.5t-25.5 -21
q-38 -23 -72 -47t-58.5 -53t-38.5 -66t-12 -85q1 -24 12 -43t29.5 -33t43 -21.5t52.5 -7.5q33 0 59 8.5t46.5 23.5t36.5 34.5t30 42.5q3 5 4.5 6t-0.5 -7z" />
    <glyph glyph-name="nine" unicode="9" horiz-adv-x="395" 
d="M323 422q0 -19 -1.5 -36.5t-6.5 -34.5q-1 -3 -4.5 -15.5t-6.5 -12.5q-2 0 -1.5 6.5t0.5 7.5v27q0 27 -3.5 54t-15 48.5t-31.5 34.5t-53 13q-29 0 -49.5 -11.5t-34 -30.5t-20 -44t-6.5 -51q0 -30 13 -55t46 -27q2 0 5.5 -1.5t3.5 -3.5q0 -1 -4 -2.5t-6 -1.5q-23 -3 -39 6
t-26.5 25.5t-15.5 37t-5 38.5q0 31 9 59.5t26.5 50.5t43 35.5t58.5 13.5q60 0 92 -35t32 -95zM373 310q-12 -54 -44.5 -113t-78 -110t-100 -88t-109.5 -47q-7 -2 -5.5 1.5t6.5 5.5q105 45 180.5 132.5t113.5 201.5q13 40 15 88.5t-12.5 90.5t-46.5 70t-86 28
q-36 0 -65 -14.5t-50 -38.5t-32 -55.5t-11 -66.5q0 -24 5.5 -46t17.5 -39.5t30 -28t44 -10.5q23 0 40.5 6.5t36.5 14.5q22 55 22 105q0 15 -2 29t-7.5 24.5t-16.5 16.5t-29 6t-30.5 -9.5t-20.5 -22t-13 -26t-9 -22.5q-1 -2 -2.5 -5.5t-2.5 -3.5t-1 3v5q0 21 6 40.5t17 34.5
t28 24t39 9q24 0 39 -8.5t24 -23t12.5 -33.5t3.5 -40q0 -41 -13.5 -84.5t-35 -84.5t-48.5 -78.5t-53 -66.5l-7.5 -7.5t-7.5 -2.5q-2 2 0.5 5t4.5 8q23 46 52 97t50 105q-18 -13 -44.5 -21.5t-43.5 -8.5q-30 0 -51.5 13.5t-35 35t-19.5 48.5t-6 53q0 40 13.5 75.5t38 62.5
t58.5 43t75 16q59 0 96.5 -28.5t56.5 -71.5t21.5 -95t-7.5 -98zM184 103q0 -5 -7 -17t-17 -24.5t-19.5 -23.5t-14.5 -15q-21 -17 -48.5 -32.5t-58.5 -23.5q-2 -1 -5.5 -1t-3.5 2l2 2q1 1 3 2.5t4 3.5q9 6 21 13.5t23.5 15.5t22 15.5l17.5 12.5q20 14 35 30.5t32 33.5
l5.5 5.5t6.5 2.5l2 -1v-1z" />
    <glyph glyph-name="colon" unicode=":" horiz-adv-x="207" 
d="M172 293q-12 -4 -25.5 -2.5t-24.5 6t-19.5 10.5t-11.5 12q-2 5 0.5 9.5t7.5 4.5q10 0 17.5 -1l15 -2t15.5 0t20 5t26.5 20t19.5 39q2 4 5.5 4t5.5 -5q8 -20 5.5 -36.5t-11.5 -29.5t-21.5 -21.5t-24.5 -12.5zM173 363q-14 -11 -27.5 -10t-26.5 9q-4 0 -10 8q-1 2 1 5t4 4
q5 5 11.5 6t12.5 5q9 6 14 14.5t8.5 15.5t7 11t8.5 3q11 -3 15 -12.5t2.5 -20.5t-7.5 -21.5t-13 -16.5zM124 426q5 5 12 7.5t9 -0.5q4 -3 1.5 -10t-7.5 -14q-5 -5 -10.5 -6.5t-9.5 1.5q-2 2 -1 9t6 13zM133 -20q-5 0 -15.5 1.5t-10.5 9.5q0 3 9 7.5t20 12.5t20 21.5t9 34.5
q0 26 -10 39q-2 3 -5 6.5t-2 4.5q2 0 4.5 -1.5t3.5 -2.5q20 -11 30.5 -28.5t10.5 -33.5q0 -32 -15 -51.5t-49 -19.5zM96 19q-12 -5 -12 6q0 8 6 15.5t11.5 16.5t7.5 20.5t-6 28.5q-2 5 -7 11t-3 7t8.5 -1.5t8.5 -3.5q17 -8 25.5 -24t8.5 -28q0 -19 -15.5 -31.5t-32.5 -16.5z
M67 73q0 5 3 11.5t10 6.5q5 0 8 -6.5t3 -11.5q0 -4 -3 -10.5t-8 -6.5q-7 0 -10 6t-3 11z" />
    <glyph glyph-name="semicolon" unicode=";" horiz-adv-x="242" 
d="M185 23q-7 -27 -26.5 -59t-47.5 -52q-1 -1 -6 -3.5t-8 -0.5q-1 1 0.5 5.5t2.5 6.5q5 13 16 33t17 34q6 13 9.5 33t3.5 40t-5 38t-16 27q-1 0 -1 2q0 1 1 2q2 2 8 -2q14 -5 25.5 -16.5t18.5 -26.5t9 -31.5t-1 -29.5zM171 -114q-22 -28 -50 -51t-51 -34q-2 -1 -5 -2t-5 1
t0 4.5t4 4.5q30 38 60 75t53 83q13 26 20.5 55t-2.5 63q-3 4 1 4q-1 0 4 -3q20 -17 22.5 -45t-5 -57t-21 -56t-25.5 -42zM10 -222q0 -1 -0.5 -1.5t-0.5 -1.5v-1q-1 -1 -1 0q-3 0 -3 2v3q-2 37 1.5 64.5t10 48t15.5 36t20 29.5q13 16 26 37t20 44t6 47t-14 45q-2 6 2 6
q3 0 4 -1t3 -2q27 -20 32.5 -46t-1.5 -52.5t-23 -52t-32 -45.5q-21 -27 -38.5 -66t-26.5 -93zM44 -199q-5 -11 -8 -21t-6 -24q0 -2 -0.5 -5t-2.5 -3q-1 0 -3 6l-2 6q-2 17 -1.5 28.5t8.5 30.5q3 7 8 15.5t10.5 15.5t10 11.5t6.5 2.5q3 -3 0.5 -12.5t-4.5 -13.5
q-4 -9 -8 -17.5t-8 -19.5zM200 288q-12 -4 -25.5 -2.5t-24.5 6t-19.5 10.5t-11.5 12q-2 4 0.5 8.5t7.5 4.5q10 0 17.5 -1t15 -1.5t15.5 0.5t20 5q12 5 26.5 20.5t19.5 38.5q1 3 5 3t6 -4q8 -20 5.5 -36.5t-11.5 -29.5t-21.5 -21.5t-24.5 -12.5zM201 358q-14 -12 -27.5 -10.5
t-26.5 8.5q-4 0 -10 8q-1 2 1 5.5t4 4.5q5 4 11.5 5t12.5 6q9 6 14 14t8.5 15.5t7 11.5t8.5 3q11 -3 15 -12.5t2.5 -21t-7.5 -22t-13 -15.5zM152 421q5 5 12 7.5t9 -1.5q4 -3 1.5 -10t-7.5 -13q-12 -12 -20 -5q-2 2 -1 8.5t6 13.5z" />
    <glyph glyph-name="less" unicode="&#x3c;" horiz-adv-x="455" 
d="M425 519q-2 -17 -11 -32.5t-21 -29t-25.5 -23.5t-25.5 -15q-35 -14 -74.5 -24.5t-77.5 -17.5q-1 0 -7 -0.5t-8 2.5q0 2 4 6t6 4q14 9 38.5 22t42.5 19q6 1 28.5 11.5t48 25t48 30.5t28.5 29q2 1 3 2t3 1v-10zM421 556q-16 -34 -44 -54t-62.5 -34t-72 -25t-71.5 -27
q-42 -20 -79.5 -56.5t-51.5 -89.5q-2 -1 -3.5 -3t-3.5 -4q1 36 13 65.5t30.5 52.5t41.5 39.5t48 27.5q35 15 71 26.5t69 23.5t62 27t50 37h3q2 0 1 -2t-1 -4zM440 177q0 -2 -1 -3.5t-2 -3.5l-3 -3q-12 -11 -21 -17t-29 -9q-8 -1 -18 -1t-18.5 1.5t-14.5 4t-4 5.5
q1 2 10.5 3.5t12.5 1.5q11 2 20.5 3t17.5 3q13 3 23 6t23 9q4 2 4 0zM385 174q0 -1 -4 -0.5t-7 0.5q-42 8 -81 27t-77 43q-3 2 -13 9.5t-26 15t-37.5 13t-46.5 4.5l7 7q35 35 83.5 53.5t98.5 35.5q31 11 62.5 24t59.5 37q2 4 4 2t1 -3.5l-3 -4.5q-6 -21 -28.5 -39t-50 -32
t-55.5 -25t-45 -18q-14 -6 -30.5 -12t-33.5 -11q17 -4 34.5 -11t34 -15.5t30.5 -16.5t24 -13q24 -13 48.5 -30.5t44.5 -31.5q7 -4 6 -8zM116 345q2 0 0.5 -3.5t-4 -7t-5.5 -7t-3 -4.5q-7 -10 -14 -18t-12 -16l-4 -7l-23 -8q1 6 3.5 14t9.5 18q5 7 13.5 15.5t16.5 15
t14.5 9.5t7.5 -1zM429 144q-27 -25 -54 -36t-52 -12.5t-48.5 5t-44.5 17.5q-29 15 -55.5 33t-52.5 34t-51.5 27t-52.5 11q-8 0 -4 3t5 3q32 12 61.5 5t58 -22.5t56 -35t56.5 -34.5q18 -9 39 -15.5t44 -7t46 5.5t46 22q6 4 5 1t-2 -4zM275 171q-2 -3 -7 -2.5t-6 2.5
q-15 2 -37 12t-35 20q-4 3 -23 12t-42.5 17.5t-47 14t-35.5 1.5q-4 -2 -4 1l3 3l3 3q13 10 28.5 14.5t31.5 5t30.5 -2.5t24.5 -9q28 -16 56.5 -37t51.5 -44q2 -1 6 -5t2 -6z" />
    <glyph glyph-name="equal" unicode="=" horiz-adv-x="529" 
d="M377 364q-38 2 -77 7.5t-74 13.5q-3 0 -7.5 2.5t-4.5 4.5t4.5 3.5t6.5 1.5q17 3 43.5 5.5t43.5 -1.5q6 0 30 1t52.5 4t54.5 9t36 15l4 2h1q2 -2 0.5 -4.5t-1.5 -5.5q-8 -14 -22 -25t-30 -18.5t-32 -11t-28 -3.5zM237 321q-31 0 -64.5 4.5t-60.5 6.5q-3 2 -6 2t-2 2
q-1 3 2 4t6 1q48 16 96.5 15.5t99.5 -3.5q32 -2 65.5 -3t69.5 10q1 2 2 0q0 -3 -2 -5q-15 -17 -42 -24.5t-57.5 -9.5t-59.5 -1t-47 1zM48 341q-1 -1 -3.5 -3t-2.5 0q0 3 1 4q0 1 1 2q15 34 36 56.5t45.5 35.5t51 18.5t53.5 5.5q36 0 72.5 -3.5t71 -6t66 -0.5t59.5 13
q1 0 2.5 1t1.5 -2l-4 -4q-26 -26 -58.5 -33.5t-68.5 -7t-74.5 5.5t-75.5 4q-22 0 -46 -5t-47.5 -15t-44 -26t-36.5 -40zM90 347q-19 -13 -37 -36q-1 -1 -3 -2t-2 1v8q0 2 1 3q8 15 13.5 26t22.5 22q7 5 18 9.5t21 7t17 3t7 -3.5q1 -3 -9 -9t-12 -7q-10 -7 -18.5 -11.5
t-18.5 -10.5zM378 171q-37 3 -75.5 11t-73.5 19q-2 2 -7.5 3t-5.5 4t5.5 4.5t7.5 1.5q8 1 19.5 2t23.5 1t23.5 -0.5t20.5 -2.5q6 -1 30.5 -2t53 0t55.5 5t38 12q2 3 4 3.5t2 -0.5q0 -2 -2 -4.5t-2 -4.5q-9 -14 -24 -24t-31.5 -16.5t-32.5 -9.5t-29 -2zM237 137
q-32 2 -66 8.5t-59 10.5q-3 2 -6 3t-3 3q0 1 3 2.5t6 1.5q48 12 97.5 8t101.5 -11q31 -5 63.5 -6.5t69.5 6.5q1 3 4 0q0 -1 -2 -2.5t-2 -2.5q-15 -16 -43 -22t-59 -6t-59.5 3t-45.5 4zM48 169q-2 -2 -3 -2q-1 -1 -3 -1v1q0 1 1 2q0 1 1 2q17 33 39 54t47.5 32t52.5 14.5
t54 2.5q37 -2 73.5 -7.5t71 -9.5t66 -4t58.5 10q4 0 4 -3q1 0 -0.5 -1t-3.5 -1q-29 -24 -62 -30t-68.5 -3t-73 10t-73.5 9q-23 1 -47 -2.5t-48 -12.5t-46 -23.5t-40 -36.5zM90 173q-10 -8 -19.5 -16t-18.5 -19q-5 -2 -5 -1v8q0 2 1 3q8 14 14.5 25t25.5 20q6 4 17 8t21 6.5
t17.5 2.5t7.5 -3q0 -5 -9.5 -9.5t-12.5 -5.5q-21 -12 -39 -19z" />
    <glyph glyph-name="greater" unicode="&#x3e;" horiz-adv-x="488" 
d="M438 316q-1 -2 -5 -1t-7 3q-47 17 -87 48t-79 67q-23 22 -49.5 43t-61.5 35q-2 0 -2 1q1 3 5 4q22 4 49 -7.5t52.5 -28.5t48.5 -36t38 -30q25 -20 50.5 -44.5t42.5 -43.5q2 -3 4.5 -5.5t0.5 -4.5zM478 273q-4 -17 -14.5 -32t-23.5 -27.5t-28 -21t-28 -11.5
q-35 -13 -77 -20.5t-78 -7.5q-5 -1 -9.5 -1t-5.5 1q-2 4 2.5 7t6.5 3q7 4 18 9t23 10t24 9t20 6q7 2 30.5 10.5t51 19.5t51.5 24.5t32 26.5q3 5 5 4t0 -9zM315 342q-2 -2 -6.5 -0.5t-5.5 3.5q-16 8 -39 23t-35 28q-5 4 -25.5 18.5t-45.5 30t-49.5 28t-37.5 12.5
q-2 -2 -4.5 -0.5t-2.5 3.5l9 4q15 7 33 7t35.5 -4.5t33 -12t25.5 -16.5q27 -23 56.5 -52.5t53.5 -58.5q2 -2 4.5 -6.5t0.5 -6.5zM477 310q-19 -33 -49.5 -50.5t-66.5 -28t-75 -18.5t-75 -20q-22 -7 -44 -19.5t-42 -30t-36 -39.5t-25 -49l-2 -6q-2 0 -2 2v4q5 37 19 65
t34 48.5t45.5 34.5t52.5 23q31 11 63 17.5t63 14.5q-22 6 -40 17t-37 25q-30 23 -57.5 48t-54 48t-53 41.5t-55.5 28.5h-2q-2 0 -1 1q-1 2 2 2.5t5 0.5q36 3 67 -11.5t59.5 -37.5t56.5 -50t58 -50q15 -11 31.5 -21.5t33.5 -17t35.5 -7.5t36.5 7q-9 1 -18.5 4t-17.5 6.5
t-12.5 7.5t-2.5 7t14.5 1.5t17.5 -1.5q18 -3 35.5 -3.5t31.5 7.5q2 2 7 4t0 -5zM453 199q0 -1 -0.5 -2t-0.5 -2q-1 -2 -1 -3q-9 -22 -34 -37.5t-54.5 -26.5t-58 -18.5t-45.5 -13.5q-31 -11 -66 -17.5t-61 -12.5q-10 0 -13 1q0 3 3.5 5.5t6.5 4.5q42 29 90.5 43.5t99.5 27.5
q32 8 65 18.5t65 32.5q4 1 4 0zM151 129q1 -2 -1 -6t-5 -7.5t-6 -6.5t-3 -4q-10 -8 -17 -15.5t-14 -15.5q-7 -11 -13 -21.5t-13 -18.5q0 -2 -2 -3t0 1q-2 2 -2 7v3q0 11 3 22.5t17 28.5q5 6 14 13.5t18 13.5t15.5 9t8.5 0z" />
    <glyph glyph-name="question" unicode="?" horiz-adv-x="330" 
d="M263 563q-3 -39 -22.5 -67.5t-37.5 -50.5l-8.5 -8.5t-8.5 -4.5q-3 1 1 8.5t6 11.5q18 29 28.5 63.5t6.5 64.5t-26 51t-70 24q-26 1 -46.5 -7t-35 -20.5t-21 -25.5t-3.5 -22q2 -6 1.5 -7.5t-2 -0.5t-3.5 3.5t-3 4.5q-4 7 -4 18.5t4 24.5t13 25.5t23 22.5q32 23 70 23.5
t69.5 -16t51.5 -47t17 -68.5zM267 422q-34 -47 -72 -88t-57 -74q-2 -4 -4 -7.5t-4 -1.5q-3 1 -1.5 5.5t3.5 9.5q9 35 30 69t46 69q12 16 25.5 34.5t24.5 40t17 47.5t3 56q-4 40 -29 69.5t-59.5 44.5t-74.5 13t-74 -24q-6 -5 -7 -4q-2 4 3 9q11 16 37.5 27.5t60 12t70 -12.5
t68.5 -47q16 -17 25 -37t12.5 -41t3 -41.5t-3.5 -36.5q-11 -32 -23 -54t-20 -38zM127 203q8 1 6 -1l-3 -3q-19 -8 -39.5 0.5t-30.5 34.5q-9 26 -7.5 53t9.5 51q7 24 17.5 45.5t22.5 41.5t24 38t22 34q26 42 29.5 66t-30.5 44q-19 7 -37 5.5t-32 -9.5t-21.5 -21t-4.5 -29
q1 -6 -2 -3l-5 5q-11 18 -3.5 37t26 32.5t44 17.5t50.5 -9q26 -13 36.5 -32t9 -40.5t-13 -45.5t-27.5 -46q-23 -30 -42.5 -66.5t-36.5 -77.5q-8 -20 -9.5 -43t3.5 -42.5t16.5 -30.5t28.5 -6zM115 242q5 -15 13 -18t14 -3q5 0 6.5 -2t-4.5 -4q-4 -1 -11 -3t-14.5 -0.5t-15 7
t-11.5 19.5q-4 12 -0.5 30t10 34.5t13.5 28t11 9.5q1 -1 0.5 -6.5t-2.5 -12l-4 -13t-2 -9.5l-5 -30t2 -27zM104 5q-22 -4 -44 2t-27 16q-2 3 0.5 7t7.5 4q9 0 15 -1t12 -1.5t13.5 0.5t18.5 5t23.5 17t17.5 34q0 3 4 3t6 -3q7 -18 4.5 -32t-10.5 -24.5t-19.5 -17.5t-21.5 -9z
M105 60q-12 -9 -24 -7.5t-23 7.5q-2 0 -4.5 2t-4.5 5q-1 2 0.5 4.5t3.5 3.5q5 3 10.5 4t10.5 6q8 5 12.5 12.5t8 13.5t6 9.5t7.5 2.5q10 -3 13 -11t1.5 -18t-6.5 -19.5t-11 -14.5zM62 115q5 5 11 7t8 0q3 -3 1 -9.5t-7 -11.5q-4 -4 -9 -5.5t-8 0.5q-2 2 -1.5 8t5.5 11z" />
    <glyph glyph-name="at" unicode="@" horiz-adv-x="738" 
d="M523 92q-21 0 -34 12t-19.5 30t-9 38t-2.5 36q0 10 2 30.5t5 42.5t7 41.5t8 28.5q2 0 2 -3v-4q0 -28 -1 -55t-1 -55q0 -10 1.5 -28t6 -36t13 -31t22.5 -13q17 0 32.5 14.5t28.5 37.5t24 51.5t19 56.5t12 52t4 39q0 46 -14.5 79.5t-40.5 55t-62.5 31.5t-80.5 10
q-53 0 -102 -17t-87.5 -38t-63 -38t-28.5 -17q-2 0 0 2t3 4q3 5 12.5 13.5t13.5 12.5q54 51 124 81t145 30q105 0 161.5 -58.5t56.5 -163.5q0 -20 -4.5 -48t-13 -58t-21.5 -60t-30.5 -53.5t-39.5 -38t-48 -14.5zM526 142q-2 0 -1 2.5t1 4.5t4.5 9t6.5 11q31 43 48.5 95
t17.5 105q0 73 -42.5 103.5t-111.5 30.5q-28 0 -51.5 -6t-45.5 -15.5t-43 -22.5t-43 -27q-67 -42 -103 -102t-36 -140q0 -42 9.5 -71t22.5 -48t26.5 -29t21.5 -16q11 -9 7.5 -9t-13.5 5q-54 31 -77.5 77.5t-23.5 112.5q0 69 29.5 128.5t78 103t111 68.5t128.5 25
q39 0 72.5 -9t58 -28t38 -49t13.5 -72t-12.5 -87t-31.5 -82q-3 -6 -10 -17t-15.5 -22.5t-17.5 -20t-16 -8.5zM230 166q0 -30 20.5 -48.5t49.5 -18.5q15 0 32.5 7t34 17.5t31 22.5t24.5 23v19q0 41 7.5 84.5t19.5 82.5q-23 -16 -52 -36.5t-54.5 -45.5t-43 -53.5t-17.5 -59.5
q0 -8 5 -10t13 -2q14 0 25.5 5.5t23.5 5.5q2 0 3 -0.5t3 -0.5q-11 -11 -28.5 -23t-33.5 -12q-20 0 -30 16t-10 35q0 27 12.5 52.5t32 48.5t43.5 43t47.5 36t44 27t31.5 15q5 1 7 -1.5t0 -12.5q-8 -45 -17.5 -90t-9.5 -92q0 -18 4 -39t13.5 -39.5t24.5 -30.5t37 -12
q28 0 52 16t43.5 41.5t34 58t24.5 65.5t15 63t5 52q0 59 -18 102.5t-51 72.5t-79 43.5t-102 14.5q-82 0 -156.5 -30.5t-131.5 -84t-91 -126t-34 -155.5q0 -65 23 -115.5t63.5 -85t95 -52t117.5 -17.5q23 0 46.5 2t46.5 9q14 4 16.5 4t2.5 -1q0 -2 -3 -5t-16 -8
q-23 -8 -58 -12.5t-64 -4.5q-65 0 -120 21t-95 59t-62.5 91.5t-22.5 118.5q0 28 2.5 55t9.5 54q16 68 59 125.5t101.5 99.5t127.5 66t137 24q64 0 117 -16t91 -48.5t59 -82t21 -116.5q0 -39 -13 -94.5t-38.5 -106.5t-63.5 -87t-87 -36q-38 0 -62 23t-35 57q-31 -28 -69 -47
t-80 -19q-21 0 -36.5 10t-26 25t-16 34t-5.5 37q0 56 22 103.5t58 83.5t81.5 59t93.5 30q8 2 16 2t16 -2q2 0 4 -1.5t2 -4.5q-3 -12 -23.5 -25t-49.5 -29t-62 -37t-60.5 -48t-46 -61t-18.5 -77zM432 -26q-9 -5 -21.5 -8.5t-24.5 -5.5t-22.5 -3t-15.5 -1q-32 0 -65.5 5.5
t-65 17t-59 29t-46.5 41.5q-7 9 -14.5 21t-13.5 25.5t-10 27.5t-4 25q0 1 0.5 2t0.5 2q11 -23 22.5 -46t28.5 -42q45 -48 103.5 -66t122.5 -18q40 0 78 6q5 0 12 1t9 -1q1 -1 -3.5 -4.5t-11.5 -7.5z" />
    <glyph glyph-name="A" unicode="A" horiz-adv-x="620" 
d="M347 716q-2 3 -5.5 9.5t-1.5 8.5t6.5 -1t5.5 -4q18 -13 33.5 -36t28 -50.5t22.5 -57.5t16 -57q15 -66 25.5 -130t10.5 -132q0 -2 0.5 -12t-3.5 -12q-3 2 -6.5 10t-4.5 11q-12 37 -21.5 84.5t-17.5 86.5q-6 30 -11 57.5t-11.5 53.5t-15 52.5t-20.5 55.5q-2 4 -6.5 14
t-9.5 20t-9 18.5t-5 10.5zM587 -25q-11 6 -15 7.5t-15 8.5q-24 14 -44 36.5t-36 49.5t-28.5 57.5t-21.5 60.5q-20 -13 -47.5 -15.5t-50.5 -2.5q-29 0 -57.5 2t-57.5 2q-28 -52 -52.5 -100.5t-38.5 -90.5q0 -1 -1 -4.5t-3 -3.5q-3 0 -3 7v9q0 40 19.5 89.5t43.5 97.5l-15 1
q-6 -14 -16.5 -39t-20 -52t-17 -52t-7.5 -40q0 -3 -3 -3q-4 0 -6 6.5t-3.5 14.5t-2 16.5t-0.5 11.5q0 35 9 73.5t24 70.5l-13 2q-9 -22 -17 -43.5t-14 -44.5q0 -2 -1 -5t-3 -2q-2 4 -2.5 9.5t-0.5 9.5q0 42 15 81q5 10 10 10q21 6 42.5 7t44.5 1q50 0 99 -7.5t98 -7.5
q24 0 44 4l-2 16q-11 -3 -23.5 -4t-23.5 -1q-39 0 -80.5 8t-79.5 19q-2 2 -8 3.5t-6 4.5q0 2 6 3.5t8 1.5q14 1 27.5 1.5t27.5 0.5q23 0 46 -0.5t47 -0.5h25t25 1l-2 11h-13q-48 0 -95.5 9t-95.5 9q-41 0 -72.5 -10t-54 -23t-36.5 -26t-20 -19l-2 -1q-1 0 -1 2q0 1 1 2
q18 35 44 58.5t64 35.5q38 81 78.5 161t85.5 158q1 2 4 6.5t6 4.5q1 -1 1 -2v-2q0 -8 -1 -12q-19 -81 -56 -156t-76 -148l19 1q3 6 15.5 26t27 41.5t26.5 39t15 17.5l1 -3q0 -5 -6 -22t-14 -37t-15.5 -37.5l-10.5 -24.5q6 0 12 -0.5t12 -0.5q18 36 38.5 75.5t35.5 80.5
t20.5 83t-6.5 83q0 -5 -2.5 -20t-6.5 -31.5t-8 -29t-8 -12.5q-3 0 -2.5 4t0.5 5q0 26 3.5 51.5t3.5 51.5q0 35 -11 68q0 1 -3 8.5t2 7.5q2 0 7 -5q10 -10 19.5 -27t17.5 -36.5t15 -38.5t11 -32q13 -43 21.5 -86.5t15 -87t13.5 -87.5t16 -87q9 -42 21.5 -82t30.5 -76
t41.5 -66.5t54.5 -53.5q5 -5 3.5 -6.5t-9.5 3.5zM585 60q1 -6 -1 -5.5t-4.5 3.5t-5 7t-2.5 5q-24 44 -38 89.5t-22 92t-13.5 94t-13 97t-19.5 100.5t-34 104q-1 2 -3 7t0 6q2 0 5 -3l4 -4q22 -26 39 -69t30 -92t21.5 -97t13.5 -84q8 -57 17 -120t23 -119zM288 314
q29 -3 57.5 -7t57.5 -6q-11 53 -19 105t-15 106q-13 -52 -35.5 -101t-45.5 -97zM617 -14q-20 9 -35 17.5t-26 23.5q-17 23 -26.5 46t-15.5 43q-2 8 -3.5 18t0.5 10q4 0 10 -13t11 -22q15 -31 38 -62.5t50 -51.5q8 -7 5 -9t-8 0zM26 178h-2h-1q0 3 1 6l2 6q8 17 15.5 25.5
t24.5 18.5q10 6 28 12t29 6q2 0 5.5 -0.5t3.5 -3.5t-10.5 -8t-13.5 -7q-38 -23 -56 -35t-26 -20z" />
    <glyph glyph-name="B" unicode="B" horiz-adv-x="506" 
d="M64 -16q-7 -7 -9 -6t0 4.5t3 5.5q8 9 12.5 13.5t10.5 9.5q-24 32 -35 68.5t-13 75.5t3.5 79t14.5 78q18 75 41.5 146.5t39.5 137.5q-32 -6 -57.5 -16t-33.5 -22q-3 -5 -5.5 -4t1.5 9q8 17 29 30.5t48 22.5t58.5 14t60.5 4q65 -2 108.5 -25t44.5 -68q0 -28 -19.5 -56
t-47 -52.5t-58.5 -44t-53 -30.5l-4 -14q15 13 40 21t52.5 8t54 -9.5t46.5 -30.5q27 -30 34.5 -68.5t-4.5 -75.5q-11 -37 -37 -60.5t-53 -35.5q-3 -2 -11 -4.5t-10 0.5q-1 2 5 7.5t9 7.5q27 18 46 49t23.5 64.5t-7.5 64.5t-47 48q-14 7 -37 10.5t-46 2t-42.5 -10.5t-27.5 -28
q18 11 41 17t46.5 5.5t44.5 -9t35 -25.5q17 -21 19.5 -44t-5 -45t-24 -41t-37.5 -32q-28 -17 -62 -33.5t-68 -34t-65 -37t-53 -41.5zM184 270q-18 -45 -29.5 -90.5t-25.5 -83.5q-5 -13 -7 -12q-3 1 -3 5.5v9.5q3 76 22 150.5t41 150.5q14 47 26.5 96.5t14.5 106.5h-17
q1 -27 -1.5 -53.5t-7.5 -45.5q-14 -54 -34 -112t-42 -110q-1 -2 -4.5 -9.5t-6.5 -6.5q-2 1 -2.5 9t0.5 11q1 12 4.5 30t7 37t8 37t8.5 31q1 5 5.5 23t9.5 43.5t10.5 55t9.5 57.5q-8 0 -12 -1q-5 -37 -14.5 -75t-21.5 -77t-24 -77.5t-21 -77.5q-8 -33 -12 -69t-4 -71.5
t6 -69.5t19 -65l9 9q-3 7 -6 17t-5 24q-2 11 -2.5 28t0.5 33t3 27t6 11q1 0 2.5 -5t2.5 -12t2 -13t1 -9q1 -9 2 -20t2.5 -23t3 -23.5t4.5 -19.5q23 21 49 37.5t51.5 30.5t49.5 27t42 26q31 21 40 53.5t-11 58.5q-13 17 -35.5 24t-46 5.5t-42.5 -10.5t-25 -23zM343 423
q2 -1 -4.5 -10.5t-8.5 -13.5q34 5 60.5 24t42.5 45.5t20 58t-6 63.5t-33 54t-53 36t-65 20t-70 5.5t-67 -6.5t-56 -17q-5 -2 -5.5 -2t-1.5 1q-1 3 5 7q25 22 63.5 33t81 11t85.5 -11.5t77.5 -35t57 -60t24.5 -85.5q1 -30 -8 -54.5t-24 -43.5t-34.5 -32.5t-40.5 -22.5
q33 -15 57 -46.5t34 -62.5q12 -41 5.5 -78t-22 -67t-35 -51.5t-33.5 -30.5q-29 -19 -59 -29.5t-59 -16t-55.5 -7.5t-47.5 -3q-16 -2 -16 1q-1 2 5.5 3.5t11.5 2.5q39 7 77 19t77 32q19 10 39.5 23.5t38 32t30 41.5t16.5 51q5 35 -1.5 69.5t-33.5 66.5q-26 31 -54.5 42
t-61.5 9q-8 0 -8 1q0 2 11 7t14 7q9 6 19 14t11 6zM355 537q0 32 -34 46.5t-94 19.5q7 -31 9 -57t-0.5 -51.5t-9 -53t-14.5 -60.5q21 10 46 30.5t46.5 43t36 45t14.5 37.5zM217 690q34 2 77.5 -7.5t78.5 -30.5q18 -11 30 -27t18.5 -33.5t7.5 -35.5t-4 -33q-1 -2 -2 -5.5
t-3 -7t-4 -6t-4 -1.5q-3 0 -2.5 7t2.5 15q5 28 -4.5 49t-28.5 35.5t-44 23.5t-51.5 14t-51.5 5.5t-43 -1.5q-25 -3 -49.5 -9.5t-45.5 -14.5t-36 -17t-21 -17t-7 -5q0 3 2 9q7 20 26 36.5t44 28.5t55 19t60 9zM168 16q-33 -13 -52.5 -23t-38.5 -26q-2 -1 -4 -4t-4 -2t0 5.5
t4 6.5q10 14 26 27.5t45 25.5q10 4 22.5 8.5t24 7.5t19 4t9.5 -2q1 -2 -6 -6t-16 -8.5t-17.5 -8.5t-11.5 -5z" />
    <glyph glyph-name="C" unicode="C" horiz-adv-x="490" 
d="M281 42q36 6 69.5 22t60.5 41q2 1 8 7t8 4t-1 -6t-5 -7q-20 -29 -52.5 -47.5t-67.5 -29.5q-29 -8 -62 -5.5t-62 16.5q-9 4 -11 6.5t0 3.5t6.5 1t8.5 -1q11 -2 25.5 -3.5t29 -2t26.5 -0.5t19 1zM147 336q-5 -35 -5 -68.5t4.5 -63t14 -52.5t23.5 -38q16 -16 39.5 -24.5
t51 -8.5t58 8t60.5 25q6 4 8 2t-1.5 -4.5t-6.5 -4.5q-26 -20 -55 -32t-58.5 -15t-57 3.5t-49.5 24.5q-21 18 -34 43.5t-19.5 56t-7.5 63.5t2 65q4 51 20 103t42.5 96t63.5 77t83 46q23 6 47 5t44.5 -9t35.5 -23.5t20 -37.5q5 -24 -4 -46.5t-25 -39t-36 -23.5t-38 0
q-1 0 -1.5 3t3.5 2q12 -2 27.5 5.5t28 20.5t20 31t4.5 37q-3 14 -12.5 24.5t-24.5 17t-33.5 8.5t-38.5 -2q-38 -7 -70.5 -33.5t-57.5 -64.5t-42 -84.5t-23 -92.5zM226 5q11 -1 22.5 -1t11.5 -3q0 -1 -4 -1.5t-8.5 -0.5h-9.5h-6q-31 0 -61 9t-55.5 25.5t-45.5 40.5t-30 55
q-20 61 -23 119t5 114q4 32 15.5 72.5t31 82.5t49 83t70.5 75q43 36 95.5 48t100.5 4t85 -33.5t49 -64.5q1 -2 2 -8.5t-1 -8.5q-1 -1 -3 5t-4 8q-42 57 -95 72.5t-105 3t-98 -46t-73 -74.5q-47 -71 -71.5 -151t-22.5 -165q1 -39 8.5 -82t29.5 -82q22 -40 60.5 -66.5
t80.5 -28.5zM82 381q8 53 25.5 103t46 91.5t70.5 71.5t99 42q20 4 45 3.5t50 -9t46.5 -25.5t35.5 -47q13 -29 9 -57t-17 -50.5t-32 -37.5t-37 -17q-11 -2 -12 0.5t11 6.5q19 6 38.5 30.5t23.5 62.5q2 19 -5 37.5t-20 32.5t-31 24t-38 13q-43 6 -79 -6t-62.5 -30.5t-43 -36.5
t-20.5 -24q-31 -39 -54 -84.5t-38 -95.5q0 -1 -1.5 -7t-3 -12.5t-3.5 -12t-3 -5.5q-2 0 -2 6v12.5t1 12.5t1 8z" />
    <glyph glyph-name="D" unicode="D" horiz-adv-x="586" 
d="M497 348q-1 -3 -3.5 -8t-5.5 -10.5t-6 -9t-4 -2.5l1 5t2.5 11t3 11.5t1.5 7.5q15 80 0 138t-50.5 95t-87 55t-108.5 19q-41 0 -80.5 -6.5t-72 -16.5t-55 -22t-28.5 -23q-7 -12 -4 3q8 26 42.5 48t80.5 36t96.5 18.5t91.5 -5.5q27 -6 54 -17t51.5 -26.5t45 -37t34.5 -49.5
q27 -54 26.5 -111.5t-25.5 -102.5zM562 355q-19 -56 -50.5 -101t-67.5 -80.5t-74 -61.5t-71 -44q-10 -5 -17 -8t-7 -1q-2 1 5.5 6.5t15.5 11.5q56 45 108.5 95t94.5 114q21 33 32 72.5t11 81.5t-11.5 83t-35.5 76q-32 46 -77.5 73t-97.5 37.5t-107 6.5t-106 -19
q-8 -2 -9.5 -3t-2.5 1t3 4t7 4q22 12 57 22t79 12t94 -7.5t101 -36.5q55 -30 85.5 -76t42.5 -94.5t10 -94t-12 -73.5zM127 12q-5 8 -12.5 25.5t-11.5 41.5q-2 12 -2.5 27t0.5 28.5t3 22.5t6 9q1 0 2.5 -5.5t3 -12.5t2 -13.5t0.5 -9.5q2 -26 6.5 -52t13.5 -50q35 43 80 87
t88 89.5t78.5 93.5t51.5 99q11 35 4.5 73t-25.5 69q-19 30 -54 50t-77 28q-17 3 -33.5 5t-34.5 2q3 -15 3.5 -32.5t-0.5 -34.5t-3 -32.5t-5 -27.5q-14 -54 -33 -108.5t-40 -104.5q-2 -3 -5.5 -9.5t-5.5 -6.5t-2 8t1 11q1 12 4 29.5t6.5 35.5t7.5 35.5t8 29.5q2 6 7.5 29
t11.5 53t11.5 63.5t7.5 61.5h-12q-2 -39 -11 -80t-21.5 -82.5t-26 -83.5t-23.5 -84q-2 -9 -5.5 -31t-5.5 -49.5t-2 -58t4.5 -58t13.5 -49.5t26 -31zM459 363q-22 -52 -60.5 -100t-83.5 -92.5t-92.5 -84.5t-86.5 -76q-8 -7 -20.5 -1.5t-18.5 13.5q-21 28 -31 63t-12 72.5
t2.5 76t13.5 74.5q20 83 45.5 160.5t37.5 147.5q-54 -6 -96.5 -24.5t-56.5 -44.5q0 -2 -1.5 -2t0.5 8q8 28 39 48.5t74 32t92.5 13.5t96.5 -6q51 -9 88.5 -38.5t59 -69t25 -84.5t-14.5 -86zM244 590q12 -26 9.5 -68t-11.5 -87.5t-20.5 -87.5t-17.5 -68q-12 -48 -29 -96
t-28 -84q-5 -14 -7 -14q-3 0 -3 5.5v10.5q3 74 21.5 146t40.5 146q13 45 25 94t14 103q0 7 2 8q1 0 2 -3t2 -5zM363 175q1 -1 -4 -8t-12.5 -15.5l-15 -17t-10.5 -11.5l-42.5 -42.5t-44.5 -36.5l-90 -57q-2 -1 -5.5 -2t-5.5 0t-1.5 3t1.5 4t3 4q17 12 38.5 30t44.5 37
q17 13 40.5 33t46 38t39 30.5t18.5 10.5z" />
    <glyph glyph-name="E" unicode="E" horiz-adv-x="464" 
d="M475 693q7 5 6 0.5t-3 -7.5q-9 -14 -23.5 -24t-31 -16t-32.5 -9t-28 -3q-31 0 -64 6t-66 13q-2 0 -7 2t-5 4q-2 3 3.5 5t7.5 2q7 2 18.5 3.5t24.5 2.5t24.5 1h19.5q22 -2 45.5 -2t44.5 2t38.5 7t27.5 13zM489 726q5 2 3 -1t-3 -4q-26 -23 -57 -29t-64.5 -4.5t-69 6
t-71.5 2.5q-21 -1 -44 -8t-43.5 -19.5t-37 -32t-25.5 -44.5q-2 -4 -2.5 -4t-1 1t-0.5 3v3q6 36 22 61t38 40.5t48 22.5t52 8q36 1 70.5 -2.5t67 -6.5t62.5 -2.5t56 10.5zM160 648q2 -3 -6 -10t-12 -9q-8 -6 -15 -11.5t-13 -13.5q-8 -9 -13.5 -18t-10.5 -20q-2 -7 -4 -7
q-1 0 -1 7v7q2 15 6 27t14 25q4 6 13.5 11.5t18.5 9.5t16 5t7 -3zM430 626q5 2 4.5 -0.5t-2.5 -4.5q-13 -15 -37.5 -22t-52.5 -9.5t-55.5 -1.5t-45.5 1q6 -20 5.5 -48.5t-5 -61t-11.5 -65.5t-14 -62q27 -2 53 -5.5t50 -5t46 0t43 9.5q5 2 5 -1t-2 -5q-24 -24 -53 -30t-61 -4
t-65 7t-66 4q-21 -1 -42 -7t-40.5 -18t-36 -29.5t-26.5 -41.5q-1 -4 -3 -4t-2 3.5t1 5.5q5 29 17 48t29 33q17 72 38.5 144t35.5 136q-1 0 -6.5 0.5t-5.5 2.5t3 4l6 4q42 20 86 21.5t90 -2.5q29 -2 58.5 -4t61.5 8zM210 589q1 -25 0 -47t-6 -39q-9 -36 -20 -75t-25 -76
q4 1 9 1h10l15 47q14 44 25.5 91t14.5 98h-23zM167 590q-8 -60 -29 -123t-38 -129q8 3 14.5 5.5t12.5 4.5q5 20 10 38.5t10 32.5q2 6 7 23t11 41t12 52t9 55h-19zM399 318q5 4 4.5 -0.5t-2.5 -6.5q-8 -14 -20.5 -25t-26.5 -17.5t-28.5 -10t-25.5 -2.5q-31 2 -65 8.5
t-65 13.5q-2 1 -6.5 2.5t-4.5 4.5q-1 2 3.5 4.5t6.5 2.5q7 2 17.5 3t22 2t22 0.5t17.5 -1.5q18 -2 39.5 -2t43 3t39.5 8t29 13zM421 130q2 1 2 -1t-1 -4q-22 -24 -48.5 -30t-55.5 -4.5t-59 7.5t-59 6q-37 1 -75.5 -17t-64.5 -62q-3 -4 -4 -4t-0.5 3t0.5 4q4 11 7.5 17
t7.5 14q-14 28 -20 56.5t-7 59.5q0 23 4 34t27 23q38 20 81 20t86 -5q28 -3 56 -4.5t58 8.5q5 2 4 -1.5t-3 -5.5q-13 -16 -36 -22t-49 -7.5t-50 -0.5t-38 0h-6q-7 -24 -14.5 -45.5t-14.5 -41.5q15 5 28.5 7.5t28.5 1.5q29 -1 58 -6t56.5 -8.5t53 -3t47.5 11.5zM144 215
q-6 1 -18.5 2.5t-27.5 -0.5q-10 -1 -17 -8t-8 -17q-2 -30 1 -57.5t10 -56.5l12 15q-1 12 -1 26t1.5 25.5t3.5 18.5t5 7q2 0 3 -5t2 -11t1.5 -12t0.5 -9q1 -6 1.5 -11.5t1.5 -11.5q5 3 9 6t9 5q1 45 11 94zM414 97q0 -3 -2 -7q-6 -14 -17 -24.5t-24 -17.5t-26.5 -10.5
t-23.5 -3.5q-35 0 -63.5 8t-56.5 18l-6 3t-5 5q-1 2 4 4t7 2q6 1 15.5 1.5t20 0.5t20.5 -0.5t17 -0.5q17 -1 37 -1.5t38.5 2t35 7.5t25.5 14q3 3 4 0zM103 277q0 -3 -6.5 -9t-15 -13t-16 -13t-9.5 -8q-8 -8 -15 -15.5t-12 -18.5q-5 -9 -5 -2.5t1 9.5q2 8 6.5 21.5t17.5 26.5
q6 5 14.5 10.5t17 9t15 4.5t7.5 -2zM377 29q1 -4 -3 -6q-12 -10 -33.5 -14.5t-46 -6.5t-47.5 -2h-37q-25 0 -52.5 3.5t-47.5 8.5q-2 1 -5.5 1.5t-3.5 2.5t3.5 3.5t5.5 2.5q38 12 77.5 10.5t79.5 -6.5q25 -4 50.5 -6t53.5 9q6 2 6 0zM140 63q0 -3 -6.5 -7.5t-14.5 -9.5
t-15.5 -9.5t-10.5 -6.5q-8 -7 -14 -12t-12 -13q-5 -5 -7 -5h-1v1v2q5 15 10.5 25t19.5 21q6 4 14 8.5t16 7t14 2.5t7 -4z" />
    <glyph glyph-name="F" unicode="F" horiz-adv-x="359" 
d="M11 229q-3 -7 -3.5 -2.5t0.5 6.5q7 39 28 63q4 34 14.5 72.5t22.5 77.5t23.5 76.5t19.5 69.5q-23 0 -44 3l-8 2q-1 3 7 7q39 20 84 21.5t90 -2.5q29 -2 58 -3t61 9q5 1 5 -2q0 -2 -3 -5q-11 -13 -28.5 -19.5t-38.5 -9.5t-42.5 -3h-40.5q5 -24 4 -55.5t-5.5 -65.5t-12 -68
t-14.5 -63q38 -5 72.5 -7.5t62.5 13.5q3 1 3 -1q0 -3 -1 -5q-18 -24 -41 -31.5t-48 -6t-52 6.5t-52 5q-32 0 -65.5 -18.5t-55.5 -64.5zM108 103q1 25 3 52t7 53q-4 1 -18.5 3.5t-28.5 3.5q-13 1 -16.5 -3.5t-4.5 -16.5q-5 -51 4 -101t30 -90q2 -3 1 -5t-4 1q-33 40 -45 80.5
t-14 86.5q-1 20 8.5 37t29.5 26q33 14 66 12t69 -6q21 -2 44.5 -3.5t46.5 9.5q3 2 4 1t0 -3l-2 -4q-9 -16 -26.5 -23t-37.5 -9t-39.5 -1t-32.5 1q-9 -30 -19 -56t-17 -48q-4 -13 -6 -12t-2 5.5v9.5zM15 593q-2 -7 -3.5 -3.5t-0.5 6.5q5 36 21 61t38 40.5t48 23t52 8.5
q35 1 69 -2.5t66.5 -6.5t62 -2.5t55.5 9.5q3 1 3 -1l-3 -4q-26 -23 -57 -29t-64.5 -4.5t-68.5 6t-69 2.5q-22 -1 -45 -8t-43 -19.5t-36 -31.5t-25 -45zM306 633q-32 2 -68.5 8t-68.5 14q-2 0 -7.5 2t-5.5 5q0 2 4.5 3.5t6.5 1.5q7 2 17.5 3.5t22 2.5t22.5 1h19
q15 -1 38.5 -1t47.5 2.5t44.5 7t31.5 12.5q5 5 5 1q0 -2 -1.5 -4t-2.5 -4q-8 -14 -21 -24.5t-28 -18t-29.5 -10.5t-26.5 -2zM241 245q-26 2 -53.5 9t-53.5 16q-1 0 -4.5 2t-3.5 5q0 2 5 4t10 3q8 2 23 3.5t28 -0.5q16 -2 35 -2.5t36 2t31 8.5t21 15q1 3 4 3h1q1 -2 0.5 -5
t-1.5 -5q-11 -29 -35 -44t-43 -14zM125 425q1 5 6.5 21.5t12.5 39.5t13.5 50t9.5 54h-23q-8 -63 -30.5 -128.5t-40.5 -132.5q8 4 15.5 7t15.5 5q5 22 10.5 44.5t10.5 39.5zM178 497q-11 -42 -20.5 -77.5t-24.5 -75.5h3h6.5t8.5 -2q4 16 9 30.5t10 31.5q12 42 22 84.5
t14 101.5h-20q0 -23 -1.5 -49.5t-6.5 -43.5zM96 71q3 -17 8 -33.5t11 -33.5q1 -2 1.5 -5.5t-1.5 -3.5t-5 2t-5 4q-12 15 -19.5 28t-12.5 42q-2 11 -2.5 28t0.5 33t3.5 27t6.5 11q1 0 2.5 -5t2.5 -11.5t1.5 -13t0.5 -8.5q2 -17 3.5 -32t4.5 -29zM52 606q-8 -10 -14.5 -19.5
t-11.5 -20.5q-1 -2 -3 -1.5t-1 8.5q2 17 5 28t17 25q5 6 14 11.5t17 9.5t14.5 5t7.5 -3q1 -3 -6.5 -10t-11.5 -9q-16 -12 -27 -24zM16 199q-2 -4 -4 -2q-1 1 0 10q4 14 9 25.5t16 22.5q4 4 12.5 8t16 6.5t12.5 3t3 -2.5q-6 -8 -15.5 -17t-19 -19t-18 -19t-12.5 -16z" />
    <glyph glyph-name="G" unicode="G" horiz-adv-x="490" 
d="M147 333q-5 -35 -5 -68t5 -62t14.5 -52.5t24.5 -39.5q19 -20 49.5 -28.5t68.5 -3.5q10 39 23.5 75t26 70t21.5 67t9 65q0 3 1 3t2.5 -3t1.5 -4q12 -37 7.5 -74.5t-17 -76.5t-28.5 -79.5t-26 -83.5q-5 -19 -6 -44.5t3.5 -52t16 -52.5t32.5 -46q1 -2 3 -4l1 -1h-3
q-1 0 -2 1q-27 18 -44.5 41t-26 47.5t-10 49t2.5 44.5q-30 -7 -59.5 -2t-54.5 18q-5 2 -10.5 8t-4.5 7l15.5 -2.5t35 -5t39 -4t28.5 -0.5q3 1 6.5 1.5t8.5 2.5q0 5 1 9.5t3 9.5q-35 -8 -68 -2t-59 28q-21 18 -33.5 43.5t-19 55.5t-7.5 62.5t2 64.5q4 51 20 103t42.5 96.5
t63 77t82.5 45.5q21 6 45 5t45 -9t36.5 -22.5t19.5 -36.5q5 -24 -4 -46.5t-25 -39t-36 -23.5t-38 1q-7 2 -3 4q2 1 3 0t3 -1q12 -2 27 5t27.5 20t20 30.5t4.5 35.5q-3 15 -12.5 26t-24.5 18t-33.5 9t-39.5 -2q-37 -7 -69 -33.5t-57 -65t-42 -85.5t-23 -94zM226 3
q14 -2 16 -3t-15 -1q-28 0 -56.5 9t-53.5 25.5t-45 40.5t-30 53q-22 63 -26 120.5t5 115.5q5 31 16 71t30.5 82t48.5 83t70 75q43 36 96 47.5t101 3.5t85 -34.5t49 -65.5q1 -2 3 -8t0 -7t-4 4t-7 11q-42 57 -95 72t-104.5 3t-97 -45.5t-72.5 -74.5q-47 -69 -70 -150.5
t-22 -165.5q1 -41 9 -83t29 -82q20 -39 59.5 -65t80.5 -31zM84 382q7 52 24 102.5t45.5 91.5t70.5 71t99 42q19 4 43.5 3.5t49 -9t46 -25.5t35.5 -47q13 -29 9.5 -57.5t-16 -51t-31 -37.5t-36.5 -17q-3 -1 -7.5 -0.5t-4.5 2.5t1 1.5t11 3.5q7 3 16.5 10.5t18 19.5t15.5 28
t9 35q2 20 -5 38t-20.5 32.5t-31.5 24.5t-37 13q-59 9 -107 -15.5t-85 -67t-62 -95t-38 -99.5q0 -1 -2 -7t-4 -13t-3.5 -12.5t-2.5 -5.5t-1.5 5.5t0 13t1 14t0.5 8.5zM427 29q-6 -22 -17.5 -55.5t-20.5 -61.5q-3 -8 -5 -8q-4 0 -4.5 3.5t-0.5 5.5q-3 27 -1 51.5t8 48.5
t14.5 48t17.5 51q12 35 22 68.5t12 75.5q0 5 0.5 5.5t2.5 0.5l3 -6q10 -21 8.5 -52t-8.5 -64t-16.5 -63t-14.5 -48zM430 188q-14 -38 -31 -79t-35 -79q-1 -1 -3.5 -6.5t-5.5 -4.5q-2 1 -2 6.5v8.5q0 9 2 22.5t5 27t6.5 26.5t7.5 22q2 6 9 32.5t14 58t11 61.5t0 45q-2 5 0 7
q2 0 3.5 -2.5t3.5 -4.5q9 -14 14 -32.5t6.5 -38t0 -38t-5.5 -32.5zM371 -107q12 -25 29 -47q3 -3 1 -5q-3 -2 -6 0q-2 1 -3 2q-14 8 -23 16t-18 31q-3 8 -5.5 20.5t-3.5 24t-0.5 19.5t3.5 7q5 0 8.5 -12t4.5 -15q4 -11 6 -21t7 -20z" />
    <glyph glyph-name="H" unicode="H" horiz-adv-x="571" 
d="M369 232q-43 4 -88.5 11.5t-85.5 18.5q-2 1 -9 3t-7 4q0 3 7 4t9 1q20 2 51 2.5t51 -2.5q19 -3 44.5 -5t51.5 -1t50.5 5t42.5 12q8 3 18 12t15 18q-32 -21 -71 -26t-81.5 -2t-86 9t-85.5 8q-27 1 -55.5 -2t-55 -12t-48.5 -24t-36 -37q-2 -5 -1.5 -1.5t0.5 5.5
q8 40 37.5 60.5t64.5 31.5q13 54 30 107t31.5 103t24 97t8.5 91q1 2 0.5 4t1.5 2q2 1 2.5 -2.5t0.5 -4.5q13 -44 10 -91.5t-14.5 -96.5t-28 -99.5t-30.5 -101.5l26 3q5 23 10.5 47t11.5 42q2 6 6.5 24.5t9.5 44.5t10.5 56t9 58t4 51t-2.5 36q0 9 1 9q2 0 4 -2.5t3 -4.5
q11 -17 16.5 -41t7 -50.5t-1 -52.5t-7.5 -45q-12 -42 -26 -86t-30 -86h17h5q4 17 10 34t11 34q13 47 26 96.5t15 106.5q0 5 1 5q2 0 2.5 -2t1.5 -4q9 -22 8.5 -56t-6.5 -71.5t-15.5 -76t-17.5 -69.5q37 -3 71.5 -8t69.5 -9q13 54 29.5 106.5t31 102t24 96.5t8.5 90q0 5 2 5
t3 -2t1 -3q13 -45 9.5 -93.5t-15.5 -98.5t-29 -101.5t-31 -103.5q6 -2 12.5 -1t13.5 1q4 25 11 51.5t13 45.5q2 6 6.5 24.5t9.5 44.5t10.5 56t9 58.5t4 51.5t-2.5 36q-2 7 1 8q2 1 4 -1.5t3 -4.5q11 -17 17 -41t7.5 -50t-1 -52t-7.5 -45q-12 -45 -28 -91t-33 -91l25 4
q5 17 11 35.5t11 36.5q14 48 26.5 97.5t14.5 105.5v5.5t1 0.5q2 0 4 -6q12 -27 9 -70t-12 -89.5t-21 -90t-18 -69.5q-11 -48 -28 -99t-30 -89q-3 -12 -8 -12q-2 1 -1.5 6t0.5 10q2 43 8.5 85.5t17.5 87.5q-25 -17 -57 -25t-55 -6zM169 103q2 48 9 94q-17 2 -33.5 4.5
t-32.5 5.5q-4 -54 3 -106.5t30 -96.5l2 -4q0 -5 -6 0q-40 44 -51.5 98.5t-7.5 112.5l-22 4q-5 0 -8.5 2t-3.5 4t4 3t7 2q57 12 114 9t116 -10q37 -4 75 -7t80 7q4 1 5 -1q0 -1 -4 -5q-17 -16 -46 -22q-5 -54 1 -106.5t30 -90.5q3 -3 0 -3q-1 0 -2 1t-3 2q-19 16 -30.5 37.5
t-17.5 46.5t-7.5 52.5t-0.5 55.5q-21 -2 -43 -2t-43 1t-40 2.5t-33 2.5q-8 -27 -17 -51.5t-15 -44.5q-2 -5 -4 -9.5t-4 -2.5q-2 0 -1.5 5t0.5 10zM442 58q5 -19 9 -34t11 -24q1 -1 2 -2.5t-1 -2.5q-4 0 -11 5q-11 8 -19.5 18t-13.5 40q-2 12 -2 29t1 32.5t3.5 26.5t5.5 10
q2 0 3 -5t2 -11t1.5 -12t0.5 -9q2 -17 3.5 -32t4.5 -29zM156 71q6 -36 19 -67q2 -7 1 -7q-5 0 -11 6q-13 15 -19.5 27t-11.5 41q-2 11 -2.5 28t0.5 33t3.5 27t5.5 11q1 0 2.5 -5t2.5 -11.5l2 -13t1 -8.5q2 -17 3.5 -32t3.5 -29zM34 232q-13 -7 -18 -12t-12 -13q-4 -5 -4 -3
v5q4 15 10 24t20 20q7 6 19.5 10t24.5 5.5t21 1t9 -3.5t-11.5 -8t-14.5 -7q-12 -5 -23 -9.5t-21 -9.5z" />
    <glyph glyph-name="I" unicode="I" horiz-adv-x="262" 
d="M204 508q-14 -54 -34.5 -112t-42.5 -110q-1 -2 -4 -9.5t-7 -6.5q-2 0 -1.5 8.5t0.5 11.5q1 12 4 30t7 37t8 37t8 31q2 6 6.5 24.5t10 44.5t11 56t9.5 58t5 51t-3 36q-2 4 -1 6.5t2 2.5q2 0 3 -2.5t3 -4.5q11 -17 17 -41t7.5 -50.5t-1 -52.5t-7.5 -45zM195 286
q-12 -48 -29 -98t-30 -88q-2 -5 -4 -9.5t-3 -2.5q-2 0 -2.5 5t-0.5 10q3 75 21.5 150t41.5 151q14 47 25.5 96.5t15.5 106.5q0 5 3 5q1 0 2 -2l2 -4q11 -27 8.5 -70.5t-11.5 -90t-21 -90t-18 -69.5zM103 4q3 -6 2 -6q-2 0 -4 1t-3 1q-28 33 -41 71.5t-15.5 79.5t3 83
t14.5 82q13 55 30 109.5t31.5 106t24 99.5t8.5 92q0 5 2 6q1 0 2.5 -3t1.5 -4q14 -48 9 -99.5t-19.5 -105.5t-32.5 -110t-31 -111q-8 -35 -12.5 -73t-3 -76.5t9.5 -75t24 -67.5zM114 71q5 -32 20 -67q1 -2 1.5 -5t-1.5 -3t-6 2q-2 1 -3 3q-13 15 -20.5 28t-12.5 42
q-2 11 -2.5 28t0.5 33t3.5 27t6.5 11q1 0 2.5 -5t2.5 -11.5t1.5 -13t0.5 -8.5q2 -17 3 -32t4 -29z" />
    <glyph glyph-name="J" unicode="J" horiz-adv-x="341" 
d="M364 693q-2 -14 -12.5 -25t-24.5 -18.5t-29.5 -12t-28.5 -4.5q-16 0 -37.5 4t-41 10t-33 12t-13.5 11q0 2 4 3t10.5 2t13.5 1h12q20 0 44.5 -2t44.5 -1q16 0 27 1t20.5 3.5t18.5 6t21 9.5q2 2 4 0zM374 725q0 -10 -9.5 -17t-22 -11.5t-26 -7t-20.5 -2.5q-37 0 -75 8
t-75 8q-44 0 -79 -20.5t-55 -57.5q-2 -3 -5 -3t-1 5q16 49 51 78t91 29q42 0 83.5 -9.5t83.5 -9.5q15 0 31.5 3.5t20.5 5.5q1 1 4 1.5t3 -0.5zM91 664q0 -2 -6 -7t-14 -10.5t-15.5 -10t-10.5 -6.5q-9 -8 -16 -16.5t-15 -17.5q-1 0 -1 -1.5t-2 -1.5q-1 0 -1 3q0 12 7 25
t17.5 23.5t24 17t26.5 6.5q6 0 6 -4zM318 487q1 -49 -10 -102.5t-31 -108t-45.5 -107.5t-53.5 -100t-56 -87t-51 -68q-1 -1 -3 -3.5l-4 -5t-4 -3t-2 3.5q-1 3 11.5 27.5t31 60.5t41 78t42.5 80.5t35 68t19 40.5q11 30 22.5 63.5t21 69.5t15 74t4.5 77q0 8 1 8q2 0 3 -1.5
t3 -8.5q3 -10 6.5 -28.5t3.5 -27.5zM237 589q-8 -82 -25 -147.5t-37.5 -118.5t-43 -96t-40.5 -79q-19 -38 -35.5 -76t-29 -77.5t-20 -81.5t-7.5 -89q0 -11 -2 -9q-2 0 -3.5 5.5t-3.5 13t-3.5 14.5t-1.5 12q-5 46 0.5 86.5t17 78t27.5 72.5t31 71q16 38 39.5 88t46.5 105.5
t42 114t26 113.5q-38 2 -78.5 8.5t-75.5 16.5l-4 2t-2 3q-1 3 4.5 5t6.5 2q32 8 60 8q38 0 75 -7.5t75 -7.5q12 0 25.5 2.5t18.5 4.5q4 2 4 -0.5t-1 -4.5q-9 -11 -21.5 -17.5t-26.5 -10.5q3 -13 4 -23.5t2 -18.5q6 -51 -5.5 -107.5t-33.5 -113t-52 -111t-61 -100.5
q-8 -11 -11.5 -7t1.5 17q6 16 19 44.5t27 59t26 57.5t16 39q26 81 37.5 146.5t9.5 114.5q-5 -1 -9 -1h-8zM62 5q0 -6 -3 -21.5t-7 -33.5t-8 -34.5t-5 -24.5q-5 -21 -7.5 -42t-4.5 -44q0 -2 -0.5 -6t-3.5 -4q-2 1 -3 6t-2 7q-2 9 -4.5 23.5t-2.5 22.5q0 25 5 52.5t12 50.5
t15 38t15 14q2 -1 2.5 -2t1.5 -2z" />
    <glyph glyph-name="K" unicode="K" horiz-adv-x="571" 
d="M552 648q0 -18 -8.5 -38t-20.5 -39t-27 -34.5t-29 -25.5q-38 -28 -83.5 -53.5t-88.5 -42.5q-2 -1 -9 -3.5t-9 -0.5t3 7.5t8 7.5q7 7 18.5 17t24 19.5t25 18.5t22.5 14q7 4 31.5 22.5t52.5 43t52.5 49.5t30.5 41q4 7 6 5q1 -1 1 -4v-4zM116 277q37 -5 72 -14.5t65 -35.5
q35 -30 72 -66.5t68 -71.5q2 -2 6 -7.5t2 -8.5q-1 -2 -7.5 0.5t-8.5 4.5q-9 5 -21.5 13.5t-25.5 18.5t-25 19.5t-20 17.5q-5 5 -26.5 22.5t-50.5 37t-60.5 36.5t-56.5 23q-8 2 -7.5 10t1.5 14q2 12 5.5 30t7 37t7.5 37t8 31q3 9 11 45t16 80t12 85t-1 60q-2 9 1 9
q2 0 3 -2.5t3 -4.5q11 -17 17 -41t7.5 -50.5t-1 -52.5t-7.5 -45q-11 -42 -25 -83.5t-30 -83.5q11 16 21 30.5t18 27.5l1 5q10 48 24.5 97t16.5 106q2 5 3 5t2 -2l2 -4q11 -27 8 -70.5t-12 -90.5q12 10 23.5 19t25.5 18q38 26 78 50t77.5 49t69.5 51t55 57q3 3 4 1
q1 0 0.5 -2.5t-0.5 -3.5q-15 -41 -45.5 -72.5t-69 -58.5t-80.5 -51t-80 -51q-47 -32 -88 -76t-65 -98zM164 283q-5 0 -13.5 0.5t-15.5 -0.5q4 8 9.5 16t10.5 16q6 8 14.5 17.5t17 17t15 11t8.5 -0.5q1 -1 -1.5 -5t-6.5 -9.5t-7.5 -10t-4.5 -6.5q-11 -14 -16 -24.5t-10 -21.5
zM547 12q-2 -2 -5.5 -0.5t-7.5 3.5q-29 13 -54.5 32t-49.5 41t-47.5 45.5t-47.5 46.5q-17 16 -36 33t-39 31.5t-41.5 25t-43.5 13.5q13 19 42 43t63 47t67 44t54 34q35 22 70.5 47t65.5 61q3 4 6 3q0 -2 -1 -3.5t-1 -3.5q-5 -25 -29.5 -52.5t-55.5 -52.5t-63 -46.5
t-51 -34.5q-18 -12 -37.5 -23t-39.5 -21.5t-38.5 -19t-34.5 -15.5q26 0 59.5 -16t66.5 -38.5t61 -47t43 -40.5q32 -35 63.5 -68t55.5 -57q8 -8 6 -11zM137 722q14 -48 9 -99.5t-19.5 -105.5t-32.5 -110t-31 -111q-8 -35 -12.5 -73t-3 -76.5t9 -75t24.5 -67.5q4 -8 3 -8
q-2 0 -4 2t-3 2q-28 33 -41 71.5t-16 79.5t2.5 83t14.5 82q13 55 30 109.5t31.5 106t24.5 99.5t9 92q0 6 1 6q1 1 2.5 -2.5t1.5 -4.5zM610 -20q0 -2 -2 -3l-4 -2q-38 -14 -73.5 -12.5t-69 12t-64 27.5t-57.5 34t-52 39t-49 45t-47.5 45t-46.5 39l-31 -104q-2 -5 -3.5 -9
t-3.5 -3t-2.5 5.5t-0.5 9.5q1 29 5 59t10 60q-6 4 -15 9t-17 10q-2 1 -5 3.5t-2 4.5q0 1 5 1q36 -3 70.5 -23.5t69 -49t69.5 -61.5t73 -63q48 -37 110 -58.5t126 -13.5q7 2 7 -1zM112 -4q-2 0 -6 2q-2 1 -3 3q-13 15 -20.5 28t-12.5 42q-2 11 -2.5 28t0.5 33t3.5 27t6.5 11
q1 0 2.5 -5t2.5 -11.5t1.5 -13t0.5 -8.5q2 -22 3.5 -36t3.5 -25q5 -32 20 -67q1 -2 1.5 -5t-1.5 -3zM474 16q7 -1 17.5 -3.5t16.5 -4.5q26 -7 43.5 -10.5t41.5 -4.5h5.5t3.5 -2q0 -4 -10 -5q-12 -2 -21 -2t-23 1q-8 1 -19 3t-22 5.5t-20.5 7t-13.5 7.5t-3 7q0 1 4 1z" />
    <glyph glyph-name="L" unicode="L" horiz-adv-x="447" 
d="M193 508q-14 -54 -34.5 -112t-42.5 -110q-1 -2 -5 -9.5t-6 -6.5q-3 0 -2.5 8.5t1.5 11.5q1 12 4.5 30t7 37t8 37t8.5 31q3 9 11 45t15.5 80t11.5 85t0 60q-2 9 0 9t3.5 -2.5t3.5 -4.5q11 -17 17 -41t7.5 -50.5t-1 -52.5t-7.5 -45zM148 722q14 -48 9 -99.5t-19.5 -105.5
t-32.5 -110t-31 -111q-12 -52 -16.5 -103t6.5 -104q3 5 6.5 7t7.5 5v24.5t1 22.5t3 16t6 6q1 0 2.5 -5t2.5 -11.5l2 -13t1 -8.5q1 -8 1 -12t2 -9q2 1 6.5 2.5t9.5 2.5q5 72 23 143.5t40 144.5q14 47 26.5 96.5t14.5 106.5q0 5 3 5q1 0 1 -2t2 -4q11 -27 8 -70.5t-12 -90
t-21 -90t-18 -69.5q-11 -42 -25 -85.5t-27 -81.5q19 3 40.5 4t39.5 0.5t31.5 -1t17.5 -0.5q29 -1 60 -7t54 -10q8 -2 8 -4t-3 -3t-5 -2q-44 -14 -88.5 -11.5t-92.5 7.5q-18 2 -37.5 3t-38.5 -0.5t-36.5 -7t-31.5 -17.5q-22 57 -19 120t18 126q13 55 30 109.5t31.5 106
t24 99.5t8.5 92q2 6 3 6q1 1 2 -2.5t2 -4.5zM427 125q2 3 3.5 -0.5t-0.5 -8.5q-6 -15 -11.5 -26t-21.5 -22q-7 -5 -17 -9t-19 -6t-16 -2t-7 4q-1 3 8.5 8t13.5 7q8 5 16 9.5t16 10.5q8 8 17.5 16t17.5 19zM432 95q3 5 3 1t-1 -6q-15 -34 -34.5 -52t-42 -26.5t-47 -10
t-48.5 -1.5q-67 1 -130.5 5.5t-114.5 -5.5q-2 0 -4 -0.5t2 2.5q24 24 54 29t63.5 1.5t68.5 -10.5t68 -8q42 -1 86.5 17.5t76.5 63.5zM279 49q0 -2 -4 -3t-6 -1q-15 -3 -40.5 -4t-46.5 1q-5 0 -23 1.5t-41.5 1t-47.5 -5.5t-41 -17q-4 -4 -6 -1q0 1 1.5 4.5t2.5 4.5
q14 22 43.5 33.5t59.5 14.5q32 3 69 -3.5t70 -16.5q1 0 5.5 -3t4.5 -6z" />
    <glyph glyph-name="M" unicode="M" horiz-adv-x="696" 
d="M232 723q-4 9 -2 9q3 0 7 -4.5t5 -5.5q10 -15 22 -32.5t23 -41.5t20 -55.5t14 -74.5q6 -49 2.5 -96.5t-11.5 -95.5q-1 -2 -2 -10t-4 -8q-2 0 -4 7.5t-2 10.5q-2 11 -4 26t-3.5 31.5t-2 32t-0.5 27.5q0 4 -0.5 17.5t-1.5 31.5t-3.5 39.5t-5.5 42.5q2 -31 0 -62t-5 -62.5
t-5 -63t0 -63.5q3 -62 25 -126t70 -109q6 -6 5 -6q-2 -1 -7 2q-35 20 -58 48t-37.5 61t-21.5 68.5t-8 71.5q0 3 -0.5 5.5t-0.5 5.5q-20 -57 -44.5 -110t-48 -102t-44 -92.5t-32.5 -80.5q-2 -5 -3 -5q-2 0 -2 3v4q1 47 19 98.5t42.5 107t51.5 114t47 119.5q12 39 20.5 81
t10.5 84t-3 82.5t-18 75.5zM356 147q11 -23 29 -43q7 42 27 83.5t45.5 83.5t53.5 84t52 85q18 31 30.5 67t18 73.5t3 74.5t-15.5 70q-3 5 -1 7t6.5 -2.5t5.5 -6.5q12 -17 19.5 -44.5t11 -61t3.5 -70.5t-3 -74q-4 -49 -14.5 -107t-25.5 -106q-1 -2 -3.5 -9t-5.5 -7
q-2 1 -3 8.5t-1 9.5q0 11 0.5 26.5t1.5 32t2.5 32t3.5 26.5q1 6 3.5 27.5t4.5 48.5q-12 -28 -19 -50t-12 -43t-8.5 -44t-6.5 -54t-2.5 -65t7 -67t19 -64.5t32.5 -57.5q4 -6 2 -7t-5 2q-32 26 -50.5 58.5t-27.5 68.5t-9.5 73.5t3.5 73.5q2 13 3.5 26t3.5 27q-23 -37 -46 -72
t-43 -69.5t-35.5 -68t-23.5 -66.5l-2 -5q-2 0 -2 4v5v16t2 16q-8 4 -14 7.5t-11.5 8.5t-11 12t-11.5 18q-5 10 -10 24t-8.5 27.5t-4 23t2.5 9.5q2 0 4.5 -3.5t5.5 -8.5t5 -10t3 -7q5 -12 10.5 -23.5t11.5 -22.5zM377 332q22 43 45.5 83.5t37.5 64.5q24 43 50 84.5t45 73.5
q2 5 4.5 9t4.5 2q2 0 1 -5l-2 -10q-14 -72 -50.5 -136t-76.5 -129q-14 -22 -24.5 -36.5t-18 -28t-12.5 -29.5t-7 -41q4 11 9 21t10 19q28 48 63 96t69 90q2 2 7.5 8.5t7.5 5.5t-0.5 -9t-3.5 -12q-5 -11 -12.5 -27t-16 -32.5t-17.5 -32t-16 -25.5q-4 -6 -17 -24t-28 -45
t-29.5 -61t-21.5 -72l-7.5 15t-10.5 29q-18 63 -19.5 127.5t-0.5 132.5q1 43 0.5 86t-14.5 91q-1 4 0 6q2 0 6 -6q18 -19 27 -55.5t13 -77t4.5 -79t0.5 -61.5v-10zM114 419q17 52 38.5 105t37.5 95q2 5 4.5 10t4.5 4q2 0 1.5 -6.5t-0.5 -11.5q-9 -82 -36 -163t-60 -160
q-20 -50 -43 -100.5t-38 -109.5q-2 -5 -1.5 -6t-0.5 -1q-3 2 -3 9q-5 30 6 75.5t28 94t35 93t27 72.5zM71 181q25 57 54 117.5t56 115.5q1 3 5.5 11t8.5 7q2 0 1 -9t-3 -13q-3 -14 -8 -33.5t-11.5 -40t-13.5 -40t-13 -32.5q-3 -6 -10.5 -25.5t-18 -46.5t-22 -57.5t-21.5 -58
t-17.5 -49t-8.5 -30.5q-2 -10 -4 -10t-2.5 4t-1.5 6q-5 12 -4.5 35t5.5 49t12.5 53t16.5 47zM667 267q-5 -45 -15.5 -90t-18.5 -80q-4 -13 -6 -12q-2 0 -2.5 4.5t-1.5 9.5q-8 67 2 134t22 137q8 42 13 86.5t0 95.5q0 4 2 6q2 0 2.5 -2.5t2.5 -3.5q15 -22 17.5 -60.5
t-0.5 -80.5t-8.5 -81t-8.5 -63zM214 649q-2 21 -5.5 39t-8.5 37q-1 2 -1 5t1 3q3 0 6 -3l4 -4q11 -15 18 -29.5t9 -47.5q1 -13 0 -32t-3.5 -36t-6 -29t-6.5 -11q-2 0 -3 5.5t-1.5 12.5t-0.5 14.5v10.5v32.5t-2 32.5zM580 662q-1 18 -3.5 34t-7.5 33q-1 2 -1.5 5t1.5 2
q2 -2 3.5 -3t3.5 -2l2 -2q11 -14 17.5 -27t7.5 -43q0 -11 -2.5 -28t-6 -32.5t-8 -26t-8.5 -8.5q-2 1 -2 6.5v12t1 12.5t1 9q2 16 2.5 30t-0.5 28zM615 70q6 -17 13.5 -31t15.5 -28q1 -1 2 -3.5t-1 -2.5q-3 0 -4.5 1t-3.5 2t-3 2q-14 11 -23 21t-18 36q-3 10 -6 25t-4 29
t0 24t5 10q1 0 3 -4.5t3.5 -10l3 -11t2.5 -7.5q5 -14 8 -27t7 -25z" />
    <glyph glyph-name="N" unicode="N" horiz-adv-x="544" 
d="M269 503q9 -53 11 -116t4 -116q0 -3 -0.5 -11t-4.5 -9q-2 0 -5 8.5t-4 11.5q-4 12 -7.5 28t-6.5 32.5t-5 33t-3 30.5q0 3 -1.5 17t-4.5 32.5t-7 40t-9 41.5q0 -42 -1.5 -82.5t1.5 -81.5q2 -26 6 -50.5t9 -49.5q7 -35 21 -70t33.5 -66t45 -56.5t55.5 -40.5q5 -2 4.5 -4.5
t-4.5 -1.5q-41 9 -72 33.5t-54.5 58.5t-38.5 74t-23 80l-6 34t-5 34q-15 -48 -32.5 -94t-33.5 -88t-28 -81t-18 -74q-1 -1 -1 -2l-2 -2q-3 0 -3 4q-7 46 3.5 94.5t29 99.5t39.5 104.5t35 108.5q9 34 13 72.5t2 76t-12.5 72.5t-29.5 64q-5 6 -3 8t6 0t7 -5q20 -20 35.5 -38.5
t27.5 -40.5t21 -49t16 -64zM390 270q6 29 11 51t11.5 42t15 40.5t21.5 45.5q2 3 6.5 10.5t7.5 6.5q2 0 1 -9t-2 -12q-3 -13 -7.5 -30t-9.5 -35.5t-10 -36.5t-8 -31q-4 -17 -8.5 -41.5t-9 -54.5t-7 -64t-1.5 -70q-9 5 -18.5 12.5t-18.5 21.5q-21 30 -32.5 63.5t-18.5 69.5
t-10 73.5t-7 73.5q-5 47 -9 95t-21 99q-2 5 -2.5 5.5t1.5 1.5q3 0 6 -5q13 -13 22.5 -37.5t17 -54.5t13 -63.5t9.5 -65t7.5 -58t6.5 -43.5q7 58 15 103.5t17 73.5q8 25 19 52t24 53.5t26.5 50.5t25.5 42q3 5 6 9t5 2t0.5 -6.5t-3.5 -9.5q-13 -39 -24.5 -70t-23 -61
t-21.5 -62.5t-20 -72.5q-6 -26 -14 -55t-12.5 -59.5t-3 -62t14.5 -61.5q-1 17 0 38.5t3.5 41t5 34.5t3.5 20zM370 86q11 -12 23 -21.5t26 -17.5q-8 45 -3 93.5t17 98.5t28 100t31 98q22 70 35.5 145.5t15.5 150.5q0 8 1 8q3 0 3 -5q9 -43 10 -83.5t-4 -80t-14 -78.5t-21 -79
q-15 -54 -31 -108.5t-28.5 -107t-18.5 -103t-2 -95.5q0 -4 -2 -4t-2.5 1.5t-1.5 2.5q-4 10 -4.5 11t-3.5 11q-2 8 -6 11t-6 4q-17 6 -29 11t-32 25q-8 8 -17 22t-16 27.5t-10 24t0 11.5q1 0 5 -3.5t8 -8t7.5 -9.5t4.5 -6q18 -27 37 -46zM77 419q12 46 28.5 94t27.5 86
q2 5 3.5 9t3.5 3q2 0 2 -5v-10q1 -73 -19 -146t-45 -144q-16 -45 -32 -91.5t-24 -100.5q-1 -5 -1 -5.5t-2 -0.5q-1 0 -3 7q-6 27 0.5 68t17.5 85.5t24 85t19 65.5zM58 206q18 51 40.5 106.5t45.5 105.5q1 2 5 9t6 7q2 -1 2.5 -9t-1.5 -11q-2 -12 -5.5 -29.5t-8.5 -36
t-10 -35.5t-9 -29q-3 -9 -13.5 -44t-21.5 -77.5t-19.5 -82.5t-6.5 -59q0 -9 -3 -9q-1 0 -2.5 3.5t-3.5 5.5q-8 17 -10.5 41t-1 50t6 50.5t10.5 43.5zM504 669q4 20 6 38.5t4 39.5q0 2 1 4.5t3 2.5q1 0 4 -5q1 -2 1 -4q3 -10 4.5 -18t2 -17t0 -20.5t-3.5 -26.5
q-2 -12 -6.5 -29t-9.5 -32.5t-9.5 -26t-7.5 -9.5q-2 0 -2 5.5t1 12t2 13.5t1 11l9 61v0zM153 627q-4 17 -9.5 33t-14.5 30q-4 6 -2 7q2 0 6 -2l4 -2q13 -12 22.5 -24t15.5 -40q3 -11 4 -27.5t0.5 -32.5t-2.5 -27t-6 -10q-2 0 -3 5t-2 11.5t-2 12.5t-1 8q-2 16 -4 30t-6 28z
" />
    <glyph glyph-name="O" unicode="O" horiz-adv-x="580" 
d="M556 449q0 -46 -8.5 -97.5t-26 -101.5t-43.5 -95t-61.5 -79.5t-80.5 -55t-99 -20.5q-50 0 -86.5 29.5t-59 77.5t-31 110t-2.5 126t25.5 126t53.5 110t82 77.5t110 29.5q49 0 82 -22t53.5 -56t29.5 -75.5t9 -80.5q0 -47 -8 -91.5t-28 -86.5q-6 -14 -6.5 -9.5t1.5 13.5
q7 36 12.5 71.5t5.5 72.5q0 35 -7 76t-24 76t-47 58.5t-76 23.5q-39 0 -73 -15t-61.5 -40t-48.5 -58.5t-36 -69.5q-12 -30 -20 -75.5t-9 -95.5t6 -101t26 -91t50 -65.5t78 -25.5q49 0 93 27.5t79.5 69t60.5 89t36 88.5q10 36 15.5 80.5t3 90t-14 88.5t-34.5 76.5t-58.5 54
t-86.5 20.5q-76 0 -131 -38t-90.5 -96t-52.5 -128t-17 -134q0 -30 4 -60.5t6 -50.5q1 -8 -1.5 -8.5t-5.5 7.5q-4 13 -7 30.5t-5.5 37t-4 39t-1.5 36.5q0 70 18.5 140.5t56.5 126.5t96.5 91.5t138.5 35.5q60 0 102 -27t68.5 -68.5t38 -91.5t11.5 -96zM462 440
q0 -43 -10 -90.5t-29.5 -93t-47.5 -85t-64 -67.5q-17 -13 -36.5 -22t-42.5 -9q-20 0 -33.5 8.5t-23.5 23.5q-8 11 -5 11t11 -8q9 -8 18 -14t24 -6q28 0 53.5 19.5t42.5 39.5q26 28 46 62.5t33.5 72t20.5 76t7 76.5q0 25 -4.5 55t-17 56.5t-34 44.5t-55.5 18q-37 0 -66 -16
t-52 -40.5t-41.5 -55t-34.5 -59.5q-3 -6 -4.5 -7t-1.5 1q-1 2 0 6q11 37 30 73t45.5 64t59.5 45.5t72 17.5q37 0 64 -20t43.5 -49.5t24.5 -64t8 -63.5zM281 49q-23 -12 -49 -12q-36 0 -62 20t-43.5 49t-25.5 63t-8 63q0 6 1 18t2.5 23.5t4 20.5t6.5 9t3.5 -15.5t1.5 -43.5
q1 -22 9 -55t23 -63.5t37 -52.5t51 -22q25 0 45 4q10 2 15 2t-11 -8z" />
    <glyph glyph-name="P" unicode="P" horiz-adv-x="529" 
d="M530 527q5 -43 -2.5 -77.5t-15.5 -57.5q-17 -44 -46 -80.5t-63.5 -63.5t-71.5 -45t-69 -25q-8 -2 -16.5 -3.5t-7.5 0.5q-2 2 6 6t15 7q56 27 105 64t84 89q17 25 30 55.5t18 63.5t0 67.5t-23 67.5q-23 42 -59 68.5t-79 40t-88.5 16t-87.5 -4.5q-6 -1 -7 -1t-3 1
q0 2 3.5 3t6.5 3q18 8 47.5 13.5t65.5 3.5t76.5 -13.5t81.5 -38.5t67.5 -70.5t32.5 -88.5zM467 569q9 -24 10.5 -48t-2 -46.5t-11 -43t-17.5 -36.5q-2 -2 -5 -6.5l-6 -9t-6 -7t-4 -1.5q-1 0 0.5 4t3 9t3.5 9l3 6q9 17 12 41.5t1.5 50.5t-8 50.5t-18.5 40.5q-4 6 -16 18.5
t-32 26.5t-47 26t-61 15q-33 3 -66.5 1.5t-63 -6.5t-52 -12t-33.5 -13q-5 -3 -9.5 -4t-4.5 0q-1 2 2 5l5 5q16 16 48.5 30t72 22.5t81 9t74.5 -10.5q21 -7 43.5 -18.5t42 -27.5t35.5 -36t25 -44zM125 203q8 45 21.5 91.5t27.5 94.5q14 45 26 92t14 101q0 5 0.5 5h1.5t3 -6
q11 -25 8.5 -66.5t-11.5 -86t-20.5 -86t-17.5 -65.5q-5 -18 -9 -33.5t-9 -32.5q36 24 70.5 48.5t64.5 52t53.5 58.5t37.5 67q23 60 -1.5 108.5t-92.5 69.5q-51 15 -103 15q9 -34 8.5 -74t-8.5 -67q-14 -53 -34 -108.5t-40 -103.5l-5 -10t-7 -7q-2 0 -1 8.5t1 10.5q1 12 4 29
t6 35t7 35.5t9 29.5q2 7 8 32t12 58t11 68.5t7 63.5q-8 0 -12 -1q1 -41 -7.5 -83.5t-21.5 -86t-28 -87.5t-25 -87q-8 -33 -12 -70t-3 -74t9 -72.5t24 -65.5q3 -5 0.5 -4.5t-5.5 2.5q-27 31 -40 68t-16 76.5t2.5 80.5t14.5 80q10 42 23 84t25 82.5t22.5 79t15.5 75.5
q-29 -4 -56 -11.5t-52 -15.5q-8 -2 -9 0t2.5 4t4.5 3q28 17 62.5 28.5t71.5 16t76 2t77 -13.5q40 -12 66 -37t38.5 -56.5t10.5 -67t-18 -68.5q-21 -42 -53 -76.5t-71.5 -63.5t-84 -53.5t-88.5 -46.5q-2 -1 -11 -4.5t-10 -1.5q0 1 5.5 5.5t11.5 8.5q15 8 19 24zM192 191
q15 8 37.5 21t43.5 25t36.5 20t16.5 6q1 -1 -3.5 -6.5t-11.5 -12t-14 -12.5t-11 -9q-20 -14 -39.5 -25t-39.5 -20q-17 -8 -34.5 -14t-35.5 -13q-5 -14 -8.5 -28l-6.5 -26q-1 -5 -2.5 -10t-2.5 -5q-2 1 -2.5 7.5t-0.5 10.5v21.5t1 21.5q-7 -2 -13.5 -6t-5.5 -12q0 -30 3 -54
q5 -34 18 -65l2.5 -5t0.5 -4q-2 -1 -9 4q-11 14 -19 27.5t-13 41.5q-2 9 -2.5 24t0.5 28q0 8 3 14t13 11q6 3 20.5 9.5t30.5 13.5t29.5 13t18.5 8z" />
    <glyph glyph-name="Q" unicode="Q" horiz-adv-x="574" 
d="M434 85q31 -32 60.5 -63.5t60.5 -59.5t66 -51.5t78 -38.5q3 -2 3 -4.5t-6 -2.5q-46 0 -90.5 24.5t-86 64t-80 89.5t-74 100t-67.5 95.5t-60 76.5q-1 2 -2.5 4t-1.5 4q12 -5 29.5 -20.5t35 -34.5t33 -38t24.5 -30q33 51 50 111.5t17 120.5q0 25 -4 56t-15.5 57t-32.5 44
t-55 18q-38 0 -68 -14.5t-53.5 -38t-42.5 -52.5t-34 -58q-9 -17 -6 1q10 33 29.5 67.5t46.5 62t59.5 45.5t70.5 18q37 0 64 -20.5t43.5 -51t24.5 -66t8 -64.5q0 -71 -21 -137.5t-62 -124.5l36 -56q56 70 84 148t28 167q0 49 -8.5 97t-30.5 86.5t-60 62.5t-97 24
q-52 0 -93.5 -19.5t-73 -52t-54.5 -75t-37.5 -88.5t-21 -93.5t-6.5 -88.5q0 -29 4 -53.5t7 -47.5q2 -14 -1.5 -9.5t-5.5 9.5q-14 34 -16 73.5t-2 77.5q0 70 17 140t54 126.5t95 92t141 35.5q58 0 99.5 -25t68 -65t39 -90t12.5 -99q0 -94 -26.5 -181t-85.5 -162q-3 -5 -6 -9
t-6 -9zM195 300q-20 0 -33 -9t-21 -23t-11 -30.5t-3 -31.5q0 -25 6 -52.5t18.5 -51t33.5 -38.5t51 -15q26 0 54 10l-4 12t-4 13q-11 -8 -26 -12.5t-29 -4.5q-9 0 -20 4.5t-21 12t-17 17t-7 18.5v2h1q11 -13 25.5 -24.5t32.5 -11.5q15 0 28.5 6t24.5 14q-9 42 -23 81t-29 80
q-5 9 -3 10t7 -6q27 -35 42.5 -72.5t32.5 -76.5q21 -49 51 -91t64 -78q35 -39 71 -64t83 -49q4 -2 3.5 -3t-3.5 -1.5t-6.5 -0.5h-4.5q-29 0 -63.5 20.5t-67.5 48t-61.5 56.5t-45.5 46l-2 2q-20 -5 -39.5 -6t-39.5 -1q-42 0 -73.5 13.5t-52.5 37.5t-31 56.5t-10 70.5
q0 18 3.5 38.5t10.5 39.5t18.5 35.5t26.5 27.5q2 1 3 2q2 2 3 2q2 0 2 -1q0 -3 -4 -7.5t-6 -6.5q-20 -23 -30 -54t-10 -61q0 -32 9.5 -64t28 -57.5t46.5 -41.5t64 -16q18 0 35 4.5t33 10.5l-11 18q-14 -7 -29 -11t-30 -4q-35 0 -59.5 17t-40.5 43.5t-23.5 57.5t-7.5 60
q0 18 4.5 37t14 34t25.5 24.5t39 9.5q21 0 44 -20t42.5 -47.5t32 -56t12.5 -46.5l-3 -5q-3 -1 -6 2t-5 7t-3.5 8t-2.5 6q-6 13 -15.5 36t-22.5 45.5t-29.5 39t-36.5 16.5zM59 245q-1 11 -1 23v22q0 61 13.5 130t45 128t83 98t126.5 39q50 0 83.5 -21.5t53.5 -55.5t28.5 -76
t8.5 -83q0 -48 -7.5 -90.5t-26.5 -84.5q-7 -16 -8.5 -15t1.5 16q8 36 13 72t5 74q0 34 -6 75.5t-22.5 77.5t-45 60t-73.5 24q-48 -1 -84.5 -17.5t-64.5 -45t-47.5 -65.5t-32.5 -79q-17 -52 -23.5 -105.5t-11.5 -101.5q-2 -16 -3.5 -13.5t-3.5 14.5zM363 71q7 -5 20.5 -16.5
t28.5 -24.5t28 -25t18 -18q16 -18 41.5 -39t54.5 -39.5t58 -33t52 -19.5q10 -2 8 -4t-9 -3.5t-15 -2.5t-10 -1q-42 0 -83.5 20.5t-78.5 51t-65.5 67t-43.5 68.5q-1 2 -2.5 7t-1.5 7v5z" />
    <glyph glyph-name="R" unicode="R" horiz-adv-x="556" 
d="M261 193q32 -29 60 -61.5t54 -67.5q1 -2 5.5 -7.5t2.5 -7.5q-1 -1 -7.5 1.5t-8.5 4.5q-8 5 -18.5 13t-22 17t-22.5 18.5t-18 17.5q-5 4 -24 20.5t-43 35.5t-49 35t-41 20q-3 1 -8.5 3t-4.5 7q8 38 20 74t23 74q14 47 26.5 96t14.5 106q0 5 1 5q3 0 5 -7q12 -27 10 -70
t-10.5 -89.5t-21 -89t-21.5 -67.5l-3 -8q37 25 77 50t74.5 50.5t60 53t34.5 57.5q6 20 -1.5 40t-26 37.5t-46.5 30.5t-62 18q-45 6 -91 3q4 -30 1.5 -60.5t-7.5 -52.5q-13 -54 -33 -111.5t-41 -107.5q-2 -3 -6 -10t-7 -6q-2 1 -1 9t1 11q1 12 4.5 29.5t7 36.5t8 36.5
t8.5 30.5q2 6 6.5 25.5t9.5 46.5t10 58t8 60l-14 -2q-3 -38 -12 -77t-20.5 -78.5t-24 -80t-21.5 -79.5q-8 -35 -12.5 -73t-3 -75t9 -71.5t24.5 -62.5q2 -5 0 -5t-5 3q-25 29 -38 65t-16.5 75.5t1 81.5t13.5 82q17 75 41 148t40 141q-25 -6 -49 -14.5t-45 -18.5q-5 -2 -6 -1
t1 3.5t4 3.5q50 41 122 58t147 9q39 -5 71.5 -22t53.5 -41.5t27.5 -54.5t-6.5 -60q-15 -35 -47.5 -65t-73 -56t-85.5 -48t-84 -41q16 0 33 -5t33.5 -12.5t31 -16.5t23.5 -18zM538 443q-15 -52 -45.5 -88.5t-67.5 -60.5t-75 -36.5t-66 -16.5q-8 -2 -14.5 -1.5t-5.5 2.5
q-2 2 4.5 4t13.5 5q54 20 104 52t88 85q18 25 27 58t6.5 67t-17 66t-42.5 55q-33 28 -72 44t-80 22t-83 2.5t-81 -13.5q-7 -2 -8 -2.5t-2 1.5q0 1 8 7q16 10 42.5 18.5t60 11.5t72.5 -0.5t80 -18.5q42 -14 79 -43.5t59 -72.5q21 -42 21.5 -81.5t-6.5 -65.5zM30 606
q20 29 53 47.5t72 27.5t81.5 8t82.5 -10t74.5 -27t57.5 -44q16 -19 24.5 -40.5t9 -44t-5 -43.5t-15.5 -39q-2 -4 -10 -13.5t-10 -7.5q-2 1 3 11t7 15q8 26 6.5 51.5t-10 47.5t-22.5 39.5t-30 28.5q-38 25 -86 35.5t-97.5 8t-96.5 -17t-81 -38.5q-9 -8 -12 -5q-2 1 0.5 4.5
t4.5 5.5zM563 -24q6 1 6 -1t-5 -4q-36 -13 -70 -14t-65 6.5t-58 21t-49 29.5q-26 19 -49.5 42.5t-45.5 47t-44 45.5t-45 39q-17 -56 -31 -99q-2 -5 -4 -9t-4 -3t-2 5.5v9.5q2 28 4 57t9 58q-7 4 -13.5 7t-14.5 7q-3 3 -3 4t2.5 1h4.5q40 -3 73 -24.5t64 -50.5t61 -61.5
t64 -57.5q19 -14 43.5 -25.5t52.5 -19.5t58.5 -11.5t60.5 0.5zM408 122q28 -25 53.5 -56t49.5 -50q7 -7 6 -10q-2 -2 -5 -1t-7 2q-27 9 -50.5 25t-45.5 36t-42.5 42t-41.5 43q-14 14 -30.5 31t-34.5 31.5t-37.5 24t-40.5 9.5l39 17q15 7 37 17t42 19t35 14.5t16 4.5
q1 -2 -3.5 -7t-12 -11t-14.5 -11t-10 -6q-19 -11 -35.5 -20.5t-33.5 -17.5q23 -9 47 -25.5t46 -35.5t41 -36.5t32 -28.5zM84 60q3 -17 8 -33t12 -27q1 0 1.5 -1.5t-1.5 -1.5t-4.5 1.5t-4.5 1.5q-13 8 -20.5 19.5t-12.5 40.5q-2 11 -2 28t1 32.5t3 26.5t6 11q1 0 2.5 -5
t2.5 -11.5t1.5 -12.5t0.5 -8q2 -17 3 -32t4 -29zM522 -3q16 -1 24.5 -0.5t22.5 2.5q1 0 5 0.5t5 -0.5q1 -2 -2.5 -5t-5.5 -4q-16 -5 -29.5 -7t-39.5 1q-9 1 -20 4t-20 6.5t-14 7t-2 5.5q2 1 12.5 -1.5t14.5 -3.5q14 -3 26 -4t23 -1z" />
    <glyph glyph-name="S" unicode="S" horiz-adv-x="374" 
d="M300 707q20 0 46 -7.5t42 -24.5q11 -10 -3 -6q-14 2 -28.5 6.5t-31.5 4.5q-62 1 -90 -35.5t-32 -92.5q-3 -39 1.5 -77.5t10.5 -76.5t10.5 -76t0.5 -77q-1 -11 -2.5 -13t-3 1t-3 8.5t-2.5 9.5q-6 40 -15 80.5t-17 81.5t-12.5 82t-0.5 83q3 27 13 50.5t26.5 41t39.5 27.5
t51 10zM122 575q3 27 14 54.5t29.5 50t45 36t59.5 13.5q1 0 5.5 -0.5t8 -1.5t3 -2t-7.5 -2q-27 -5 -50 -18t-40 -32t-27.5 -42.5t-12.5 -48.5q-4 -48 4 -96.5t18.5 -96.5t18 -96.5t3.5 -96.5q-2 -19 -9 -40t-18.5 -39t-28.5 -30.5t-38 -15.5q-16 -2 -13.5 1.5t11.5 8.5
q36 20 49.5 47t17.5 67q4 46 -3.5 94t-17.5 96t-17.5 95.5t-3.5 94.5zM95 21q42 0 71 15.5t48 41t29 59t13 69.5q4 45 -2 90t-13.5 89.5t-13.5 89.5t-2 91t28.5 73t73.5 27q17 0 43.5 -6t43.5 -17q18 -12 -3 -7q-12 3 -31 7t-29 4q-39 0 -67 -17t-32 -60q-5 -46 2 -91.5
t16 -91.5t15.5 -92t2.5 -92q-3 -38 -15 -74t-34 -65t-54.5 -46.5t-76.5 -17.5q-12 0 -31 4t-38 10.5t-35.5 16t-24.5 20.5q-9 10 6 5q17 -9 41.5 -22t68.5 -13zM89 56q25 0 46 8t43 21v-3q0 -9 -9.5 -17.5t-23.5 -15.5t-31.5 -11t-35.5 -4q-7 0 -19 2.5t-24.5 7t-23.5 10.5
t-15 14q-11 12 -7 13.5t11 -3.5q16 -5 36.5 -13.5t52.5 -8.5z" />
    <glyph glyph-name="T" unicode="T" horiz-adv-x="452" 
d="M300 508q-14 -54 -34.5 -112t-42.5 -110q-1 -2 -5 -9.5t-6 -6.5q-3 0 -2.5 8.5t1.5 11.5q1 12 4 30t6.5 37t8 37t8.5 31q2 4 6 20t8.5 38.5t9.5 49.5t9 53l-12 3q-5 -35 -14.5 -71.5t-21 -73t-22.5 -74t-20 -74.5q-8 -35 -12 -73t-3 -76.5t9 -75t24 -67.5q3 -7 2 -7
q-2 0 -3 1l-2 2q-28 33 -41.5 71.5t-17 79.5t1.5 83t14 82q17 74 40 142.5t39 134.5q-60 10 -112.5 18.5t-97.5 -0.5q-3 0 -3 1q0 2 1.5 2.5t2.5 1.5q34 20 72.5 22t80 -3.5t85 -14t87.5 -9.5q27 -1 56.5 4.5t57 17t50 30.5t36.5 45q2 5 4 5v-3v-2q-11 -38 -34 -62.5
t-52.5 -39.5t-63 -20.5t-65.5 -4.5q5 -31 0.5 -72t-13.5 -83t-19 -79.5t-16 -60.5q-12 -48 -28 -98t-29 -88q-2 -5 -4.5 -9t-4.5 -3t-1.5 5.5t0.5 9.5q3 75 22 150t41 151q12 42 23.5 85t16.5 92q-5 1 -8.5 1h-8.5q0 -20 -1.5 -39t-6.5 -35zM327 721q39 -5 79 -8t69 -3
q10 0 10 -3q0 -4 -10 -7q-51 -20 -107.5 -18t-114.5 11q-35 5 -72 10t-80 0q-4 -1 -4 1t2 3t4 3q19 14 49 18.5t62.5 4t62.5 -4.5t50 -7zM177 690q42 -6 85.5 -15t84.5 -20q2 -2 8.5 -3.5t6.5 -4.5q0 -2 -6 -3t-9 -3q-9 -2 -22.5 -2t-28 0.5t-28.5 1.5t-24 3q-7 1 -34.5 4
t-60.5 4t-63.5 -0.5t-43.5 -8.5q-4 -2 -5 -2h-1q0 4 4 8q10 13 27.5 22t36.5 14t38.5 6t34.5 -1zM210 71q3 -17 7.5 -34t11.5 -33q4 -8 1 -8q-2 0 -6 2q-2 1 -3 3q-13 15 -20.5 28t-12.5 42q-2 11 -2.5 28t0.5 33t3 27t6 11q1 0 2.5 -5t2.5 -11.5l2 -13t1 -8.5
q2 -17 3.5 -32t3.5 -29zM500 697q22 19 37 41q2 4 4 4q1 0 1 -7q0 -4 -1 -7q-4 -17 -9 -27t-24 -24q-7 -6 -19 -11.5t-23 -9.5t-19.5 -4.5t-9.5 3.5q0 1 3 3.5t7.5 5.5t8.5 5.5t6 3.5q10 5 19.5 11t18.5 13z" />
    <glyph glyph-name="U" unicode="U" horiz-adv-x="555" 
d="M210 153q38 36 68.5 72t57 80.5t49 102t44.5 135.5q12 45 20.5 87t6.5 82q0 8 1 8q2 0 3 -3t2 -5q15 -47 10 -98.5t-19 -105t-32.5 -108.5t-31.5 -110q-8 -34 -12 -72t-2.5 -75.5t9.5 -73.5t25 -67q1 -1 1 -3v-2q-3 0 -4 1l-2 2q-39 42 -53 103q-14 -17 -28.5 -33
t-40.5 -33q-42 -28 -93.5 -38.5t-102.5 13.5q-30 15 -46 39.5t-23.5 53t-9 58t-2.5 53.5q-2 47 4.5 91t17.5 82.5t25 69.5t27 52q1 2 3.5 4.5t3.5 2.5q2 -1 0.5 -5.5t-2.5 -6.5q-15 -45 -27 -92t-18 -95t-4.5 -96.5t13.5 -97.5q5 -20 15 -41.5t33 -38.5q13 -10 27 -14
t27 -4.5t24.5 1.5t21.5 5q45 11 77.5 40t55.5 59q9 10 15 23q-1 19 1 44t5 47t5 37t1 14q-23 -51 -54.5 -89.5t-54.5 -62.5q-15 -16 -33.5 -28t-36.5 -17t-33 0t-22 23q-14 41 -20 90.5t-1 100.5q11 102 48.5 201t105.5 181q4 5 7.5 7t-2.5 -8q-22 -34 -42.5 -78t-37 -92.5
t-29 -99.5t-17.5 -99t-4 -94.5t15 -82.5q5 -13 13.5 -16.5t17.5 -1t18 9t16 12.5zM226 73q-11 -6 -23 -12t-24.5 -9.5t-26.5 -3.5t-29 5q-29 10 -41.5 33.5t-19.5 45.5q-16 48 -14.5 95.5t7.5 101.5q4 38 16.5 83.5t31.5 90.5t42.5 84t49.5 64l7.5 7.5t7.5 3.5q1 -1 -9 -17
t-24 -43t-28 -61.5t-27.5 -74t-22.5 -81.5q-9 -41 -12 -80t-2.5 -71.5t3 -55t4.5 -30.5q5 -20 14.5 -41.5t26.5 -29.5t42.5 -5t45.5 14q1 1 6 4t10.5 6.5t10 6t5.5 1.5q1 -2 -1 -6t-6.5 -9t-10 -9.5t-9.5 -6.5zM497 281q-12 -48 -28.5 -98t-28.5 -87l-4 -10t-4 -4
q-3 1 -3 6.5v10.5q4 75 22.5 149t41.5 149q14 47 26.5 95.5t14.5 104.5q0 7 2 7q3 0 5 -7q11 -27 8 -69.5t-12.5 -88.5t-21.5 -89t-18 -69zM508 500q-14 -54 -30 -111t-45 -108q-2 -3 -6.5 -10.5t-7.5 -6.5q-2 0 -2 8t1 13q1 12 4 29.5t7.5 36t9 36t8.5 29.5q2 6 6.5 23.5
t9.5 41.5t10 52.5t8.5 56.5t4.5 53t-2 43q-2 9 1 9q2 0 4 -2t3 -4q12 -17 17.5 -41t7 -50t-1 -52t-7.5 -46zM418 68q3 -20 6.5 -36t12.5 -31q1 -1 1.5 -3.5t-1.5 -2.5q-5 0 -10 5q-11 13 -18 25t-13 42q-2 12 -3 29t0 33t3.5 26.5t6.5 10.5q1 0 2.5 -5.5t3 -12t2 -13
t0.5 -8.5q3 -31 7 -59z" />
    <glyph glyph-name="V" unicode="V" horiz-adv-x="499" 
d="M471 610q-1 -12 -4.5 -28.5t-8.5 -31t-10 -24.5t-8 -8q-1 0 -1 5v11.5t1 12.5t1 9q3 16 4 30t3 29q2 19 2.5 36t-2.5 35q0 2 -1 5t1 3q3 0 7 -4.5t5 -6.5q6 -12 9.5 -28t1.5 -45zM484 680q17 -40 20.5 -79.5t-2 -79t-19 -78.5t-30.5 -76q-23 -50 -48.5 -98t-49.5 -94
t-44.5 -89.5t-32.5 -85.5q-2 -5 -4.5 -4t-2.5 4q-2 48 14 96.5t40.5 97.5t53 98.5t51.5 100.5q15 32 27 67t19.5 72t9 73.5t-5.5 71.5q-2 9 0 8q1 0 4 -5zM159 289q0 -3 -0.5 -12.5t-3.5 -9.5q-2 -1 -5 7.5t-5 13.5q-4 13 -9 31.5t-9.5 38t-8 38.5t-4.5 33q-1 7 -4 27.5
t-8 48.5t-11.5 60t-14 61.5t-15.5 53t-16 34.5q-5 7 -3 9t5 -0.5t5 -4.5q16 -12 30.5 -34t26.5 -47t20 -51.5t11 -47.5q9 -59 13 -125t6 -124zM222 148q-20 67 -32 138t-21 143q-7 53 -16 106t-28 110q-2 5 -2 5.5t2 1.5q2 0 7 -5q21 -21 35.5 -65t25 -93.5t17.5 -96
t12 -74.5q5 -23 8.5 -47t5.5 -48q7 27 19 55.5t24.5 55.5t25 50.5t20.5 40.5q21 45 48 90.5t50 76.5q9 12 10 12q2 -2 0.5 -6.5t-3.5 -9.5q-20 -72 -54.5 -140t-69.5 -137q-20 -38 -40 -77t-30 -87q-2 -11 -5.5 -13.5t-8.5 14.5zM253 0q3 -2 1.5 -2.5t-4.5 1.5
q-39 18 -67 49.5t-47.5 70.5t-31.5 83t-20 87q-11 60 -17 120t-13.5 117.5t-17.5 110t-28 96.5q-1 2 -1.5 3.5t1.5 3.5q1 1 3 -2t3 -5q31 -42 46.5 -95.5t23.5 -113t13.5 -122t16.5 -121.5q7 -38 19 -77.5t29 -77t39.5 -70t51.5 -56.5zM248 25q-6 6 -15.5 16t-17.5 21
q-6 10 -13 26.5t-12.5 32.5t-8 28.5t0.5 13.5q1 0 4.5 -4.5t6.5 -10.5t6 -11.5t5 -7.5q8 -14 14 -25.5t11 -24.5q6 -13 12.5 -22.5t7.5 -8.5q1 0 0.5 5.5t-1 12.5t-1 13.5t-0.5 9.5q-2 38 6.5 68t19.5 55q23 51 54 102t63 96q2 2 8 9t8 6q3 -1 0.5 -9.5t-3.5 -11.5
q-4 -12 -10.5 -28t-13.5 -33.5t-14.5 -33.5t-13.5 -27q-3 -6 -11 -23t-18 -41.5t-21 -52.5t-20.5 -54.5t-15.5 -48.5t-6 -35q0 -7 -3 -7t-8 5z" />
    <glyph glyph-name="W" unicode="W" horiz-adv-x="759" 
d="M737 644q-1 -12 -5.5 -33t-10 -41t-11 -34.5t-9.5 -12.5q-1 1 -1 6t0.5 11.5t1 12.5t1.5 9q1 7 3 19t3.5 24.5t3 24t2.5 19.5q2 19 2 36t-2 36q0 2 0.5 5t2.5 3q6 0 8 -8q5 -14 9 -30.5t2 -46.5zM748 714q15 -40 17.5 -84.5t-3.5 -89.5t-18.5 -88.5t-28.5 -81.5
q-21 -50 -44 -98.5t-45 -95t-40.5 -90.5t-29.5 -86q-1 -3 -4 -4.5t-3 4.5q-2 48 12.5 97t37 98.5t48 99.5t46.5 102q13 32 25 72t20 82t10 84t-4 77q-2 10 1 7l1 -1q1 -1 1 -2t1 -2zM419 614q-1 -12 -4.5 -28.5t-7.5 -31t-8.5 -24.5t-8.5 -8q-1 0 -1 5t0.5 11.5t1 12.5
t1.5 9q6 29 7 61q2 18 1.5 33.5t-3.5 34.5q0 2 -1.5 8.5t1.5 6.5q2 0 6 -6l4 -6q4 -9 7 -17t4.5 -16t1.5 -19t-1 -26zM670 429q3 -2 1 -10t-2 -11l-9.5 -28.5t-12 -34t-13 -33.5t-12.5 -27q-3 -6 -10.5 -23.5t-16.5 -42t-19 -53t-18 -55.5t-14 -49.5t-6 -35.5q0 -5 -2 -7
q-1 -1 -2 0q-1 0 -5 4q-5 7 -14 17.5t-16 21.5q-6 10 -12 26.5t-11 33t-7 28.5t1 14q1 0 4 -4.5t6 -10.5t5.5 -11.5t3.5 -7.5q7 -13 12.5 -25.5t10.5 -25.5t11 -22.5t7 -8.5q1 0 1 5.5t-0.5 12.5t-1 13.5t-0.5 9.5q-2 38 4.5 69t17.5 56q22 51 50.5 103.5t56.5 97.5
q2 2 6.5 8t5.5 6zM530 0q-36 18 -61.5 50.5t-42.5 70t-27 76.5t-14 72q-2 15 -3 29.5t-1 19.5q-18 -42 -38 -84t-38 -82.5t-33 -79t-24 -72.5q-1 -4 -4 -7q-3 0 -3 7q-1 48 13 96t35.5 97.5t46.5 100t46 102.5q13 32 23.5 67.5t17.5 72t8 74t-5 72.5q-1 5 -2 6.5t1 1.5
q3 0 5 -5q10 -27 14.5 -53.5t6.5 -53.5q12 -22 20 -55.5t14.5 -69.5t11 -71t9.5 -61q5 -23 7.5 -48t4.5 -48q7 28 17.5 57t21.5 56.5t21 51.5t18 42q9 22 21 49t24.5 53t25 49.5t22.5 39.5q5 7 8.5 11.5t5.5 3.5q2 -2 0.5 -6.5t-3.5 -9.5q-10 -36 -24 -75.5t-30 -79.5
t-32.5 -79t-32.5 -74q-17 -39 -36 -79t-27 -88q-2 -11 -4.5 -13.5t-7.5 14.5q-25 94 -36 188.5t-25 190.5q-3 -29 -5 -49t0 -48q2 -36 5 -71.5t4 -66.5q0 -3 -0.5 -13t-3.5 -10q-1 -1 -2 1.5t-2.5 6.5t-3 7.5t-1.5 5.5q-5 20 -11 49t-11 57q-8 -25 -10 -50.5t4 -61.5
q7 -38 18 -77.5t26.5 -76.5t35.5 -70t45 -57q3 -2 2 -3.5t-5 0.5zM385 608q2 -2 0 -7t-3 -9q-7 -36 -19.5 -71.5t-27.5 -70t-31.5 -69t-32.5 -69.5q-17 -38 -34.5 -78t-26.5 -89q-2 -10 -4 -13t-7 15q-19 68 -29.5 139.5t-18.5 145.5q-5 52 -14 106.5t-26 112.5q-1 6 0 7
t3 -1.5t4 -4.5q12 -14 22 -39.5t18 -56t14 -64.5t11 -66t8.5 -60t7.5 -47q4 -23 6.5 -47.5t4.5 -48.5q7 28 17.5 56.5t22 55.5t22 51t17.5 41q19 46 41.5 91t43.5 77q3 5 6 9.5t5 3.5zM141 290q1 -3 0 -13t-3 -10q-2 -1 -4 8.5t-4 13.5q-3 13 -7.5 32t-9 39t-8 39t-4.5 33
q-1 7 -3.5 27.5t-7 49t-10.5 60.5t-12.5 62t-13 53.5t-13.5 34.5q-6 8 -3 10q2 2 5 -1l5 -5q14 -12 26.5 -34t23 -47.5t17.5 -51.5t10 -47q8 -60 11.5 -127.5t4.5 -125.5zM360 427q3 -1 1 -9t-3 -11l-9.5 -28.5t-12 -34t-13 -33.5t-12.5 -27q-4 -8 -15.5 -40t-24.5 -72.5
t-24.5 -81t-14.5 -65.5q-1 -7 -3 -7q-3 -1 -8 4q-5 6 -14 16.5t-15 21.5q-5 10 -11.5 27t-11.5 33.5t-7 29t1 13.5q1 0 3.5 -4.5t5.5 -11t5.5 -12.5t4.5 -8q6 -13 11 -24.5t10 -24.5q5 -14 11.5 -23.5t7.5 -7.5v5.5t-1 12t-1.5 13.5t-0.5 10q0 38 6.5 68.5t16.5 55.5
q21 51 49.5 103.5t55.5 98.5q2 2 6.5 7.5t6.5 5.5zM71 285q-10 60 -15 122t-10 121t-13.5 113t-24.5 99q-1 2 -1.5 3.5t1.5 3.5q1 1 3 -2t3 -5q27 -42 40.5 -96.5t20.5 -115t11.5 -123.5t14.5 -123q6 -38 17.5 -77t27.5 -75.5t36 -69.5t44 -58q1 -1 0 -2.5t-5 0.5
q-33 21 -58 51.5t-43 68t-30 79.5t-19 86z" />
    <glyph glyph-name="X" unicode="X" horiz-adv-x="495" 
d="M45 12q-2 -9 -3 -9q-2 1 -2.5 4t-0.5 5q-3 46 6 89.5t27.5 85.5t44 81.5t54.5 76.5l22 28q-41 92 -80.5 178.5t-86.5 149.5q-3 4 -3 6q1 2 4 0t5 -3q31 -25 56.5 -59t47.5 -73.5t41 -83t38 -87.5l17 21q-5 10 -16 31.5t-26 48.5t-31.5 57t-33.5 56.5t-32 47.5t-26 30
q-8 6 -5 8q2 1 9 -1q20 -8 42.5 -28t43 -45t37.5 -52t27 -49l35 -75l11 12q-20 45 -43 91t-55 90q-3 5 -4 5t1 2l8 -4q28 -19 58 -62.5t57 -95.5q51 60 102 124.5t83 122.5l2 4t4 0q1 -1 0.5 -4t-0.5 -4q-15 -55 -48 -108.5t-74 -106t-86 -104t-84 -102.5
q-24 -32 -47.5 -68.5t-42.5 -75t-33 -78t-20 -77.5zM507 4q6 -3 6 -3.5t-7 -0.5q-40 6 -74.5 26.5t-64 50.5t-55 67.5t-46.5 76.5q-32 -38 -67 -74.5t-63 -62.5q-5 -5 -8.5 -9t-5.5 -3t1.5 7t5.5 11q19 37 43.5 73t52 70.5t56.5 68.5t57 68q35 43 76 96t71 109q3 7 5 7
t1 -4.5t-1 -7.5q-2 -21 -15 -49t-31.5 -58.5t-40 -62t-41.5 -58.5l9 -20q24 -53 49 -110t42 -102q2 -5 3.5 -10.5t-0.5 -6.5q-1 0 -5 4.5t-8 9.5q-35 47 -62.5 98t-53.5 105q-12 -15 -24 -30.5t-24 -31.5q19 -37 43 -73.5t52 -69t59.5 -59t64.5 -42.5zM400 474
q-39 -50 -86 -100.5t-92 -95.5q-2 -1 -8 -7.5t-8 -4.5q-2 1 1.5 10t6.5 13q7 12 20 30.5t27.5 38t28 38t22.5 29.5q23 30 50.5 67t52 74t44 70t26.5 53q3 11 4 11t2.5 -3.5t1.5 -8.5q1 -22 -8 -51.5t-23.5 -59.5t-31 -57.5t-30.5 -45.5zM99 68q-8 -20 -14.5 -37t-11.5 -31
q-1 -2 -3.5 -5t-4.5 5q-3 17 0 37t17 52q5 12 13 27.5t17 29t16.5 22.5t11.5 6q0 -1 -2 -7t-4.5 -13t-5 -13.5t-3.5 -8.5q-7 -19 -13 -33t-13 -31zM466 70q16 -15 31.5 -27.5t32.5 -23.5q2 -2 5 -4.5t2 -3.5q-2 -2 -5.5 -1.5t-8.5 1.5q-10 3 -18 5t-16.5 6.5t-18 11.5
t-21.5 19q-10 10 -22.5 25.5t-23 31t-16.5 27.5t-3 14q1 1 6 -3t10 -9.5t9.5 -10.5t6.5 -7q14 -15 26 -27z" />
    <glyph glyph-name="Y" unicode="Y" horiz-adv-x="447" 
d="M97 0v-5q-4 0 -6 5q-14 36 -12 77t14 84t32.5 86.5t44.5 84.5q-27 18 -44.5 45.5t-30.5 58.5q-16 37 -27 75t-21 74t-21 68.5t-26 58.5q0 4 1 3q31 -22 48.5 -54t29 -69t21.5 -76.5t26 -75.5q11 -25 24.5 -46.5t33.5 -40.5l13 21q-7 9 -10.5 16.5t-0.5 9.5q2 0 7 -3.5
t11 -10.5q10 11 15 22q-18 33 -31.5 69t-25.5 74q-10 32 -21 62t-31 65q-1 2 -2.5 3.5t-0.5 2.5q2 2 7 -1q21 -9 37.5 -33.5t29.5 -53.5t22.5 -57.5t15.5 -45.5l21 -55q56 82 107.5 160t77.5 153l2 5q2 2 2.5 -2.5t0.5 -5.5q-5 -57 -30 -112t-59.5 -109.5t-74.5 -109.5
t-74 -111q-22 -36 -41 -76t-32.5 -80.5t-19.5 -79t-2 -70.5zM295 262q-15 -24 -32 -49.5t-34.5 -49.5t-33.5 -46t-29 -40q-5 -7 -9 -10.5t-5 -2.5q-2 0 0 6t4 11q32 82 80.5 158t99.5 153q31 48 63 96.5t56 111.5q2 5 1.5 6t1.5 1q2 -1 2 -4v-6q0 -22 -9 -50t-24 -59.5
t-33 -64t-36.5 -62.5t-35 -55.5t-27.5 -43.5zM390 501q-35 -54 -77 -112t-83 -107q-2 -2 -9 -9.5t-10 -5.5q-2 2 1.5 10.5t5.5 11.5q7 14 17 32.5t21 37.5t22.5 37t20.5 31q4 6 16 25.5t27 46t32 57.5t31 60.5t24 55t11 40.5q2 10 3 10q2 0 3 -4.5t2 -6.5q4 -21 0 -49
t-12.5 -57.5t-21 -57t-24.5 -46.5zM127 615q11 -37 21.5 -78.5t17.5 -80.5q1 -2 0.5 -6.5t-2.5 -6.5q-2 -1 -6 3t-5 6q-5 7 -11 18t-11 23t-9.5 24t-7.5 21q-3 10 -12.5 34.5t-22 51.5t-26 51t-24.5 33q-6 6 -4 6q1 1 4 0t5 -2q16 -5 31.5 -16t28 -25t21 -28.5t12.5 -27.5z
M133 52q-4 -19 -5.5 -33.5t-1.5 -25.5v-5t-3 -3q-2 0 -4.5 2.5t-3.5 5.5l-4 10t-3 11.5t0 17t4 26.5q3 13 9 32t13 36.5t13.5 28.5t10.5 9q1 -1 0.5 -7t-2.5 -13.5t-4 -14.5t-3 -10q-5 -17 -8.5 -33.5t-7.5 -33.5z" />
    <glyph glyph-name="Z" unicode="Z" horiz-adv-x="477" 
d="M486 692q5 5 6.5 2.5t-2.5 -8.5q-10 -15 -18 -34.5t-20 -44t-31 -56t-51 -71.5q-41 -51 -87.5 -97t-94.5 -88q-3 -2 -10 -8.5t-9 -4.5t2.5 10t6.5 11q8 12 20.5 28.5t26.5 33.5t27.5 32t24.5 26q6 6 24.5 28t42 51.5t48 62.5t42.5 60q-10 -6 -32 -28t-50.5 -52.5
t-59.5 -65.5t-58.5 -67t-49 -56.5t-29.5 -34.5q-45 -53 -82 -115t-54 -125l-16 -19q1 37 11.5 75t27 75.5t39 72.5t49.5 66q56 64 119.5 123.5t113.5 118.5q-19 -4 -37 -5t-37 0q-36 2 -71.5 7.5t-69.5 9.5t-65.5 3.5t-59.5 -9.5q-4 -2 -4 1q0 4 4 6q29 23 62.5 28t69.5 2
t73 -10t73 -8q47 -2 97 14.5t88 59.5zM247 269q-32 -38 -69 -75.5t-68 -67.5q20 3 42 3.5t43 0t39 -1.5t30 -1q35 -2 72 -8.5t65 -11.5q10 -2 9 -6q-1 -2 -4 -2.5t-6 -1.5q-54 -12 -108 -8t-110 8q-34 2 -70 3t-76 -12q-4 -2 -4 0q7 16 17 35t20 35t17.5 26t10.5 8
q1 -1 0 -6.5t-3.5 -13t-5.5 -14t-4 -9.5q-4 -8 -7.5 -17t-8.5 -17q5 2 10 3.5t12 3.5q44 71 100 134.5t117 128.5q38 42 76.5 85t71.5 97q2 5 2.5 5.5t1.5 -0.5q3 -3 1 -9q-4 -30 -30.5 -71t-60 -83t-68 -79.5t-54.5 -60.5zM473 88q4 3 6 2t-2 -6q-25 -31 -51.5 -48
t-54.5 -25t-56.5 -9.5t-56.5 -1.5q-39 0 -78 3t-74 4.5t-65 0t-52 -8.5q-2 -1 -6 -1.5t1 3.5q22 23 54.5 29.5t71 5t79 -7.5t78.5 -7q51 -2 104.5 12t101.5 55zM300 725q32 -2 64.5 -8.5t58.5 -10.5q10 -2 10 -5q0 -2 -3.5 -3t-6.5 -2q-49 -11 -98 -7.5t-99 10.5
q-32 5 -65 7t-68 -7q-9 -2 -6 1l5 5q15 13 43 18.5t58.5 6t59.5 -1.5t47 -3zM108 85q39 -1 82 -7t81 -15q2 -1 7.5 -3t5.5 -5q0 -2 -6 -4t-8 -2q-9 -1 -24.5 -1.5t-32.5 -0.5h-32.5h-24.5q-23 1 -48 -1t-47.5 -5.5t-40 -9.5t-24.5 -13q-4 -4 -5 -2q-1 1 0 3.5t2 4.5
q6 14 19 25.5t29.5 19.5t34.5 12t32 4zM156 692q36 -4 75.5 -12.5t72.5 -19.5q2 -1 7 -2t4 -5q0 -2 -5 -3.5t-7 -1.5q-8 -1 -19.5 -1.5t-24 -0.5t-24 0.5t-20.5 1.5q-17 1 -42.5 2t-51.5 0t-48.5 -5t-34.5 -13q-2 -2 -3 -2h-2q-1 2 0 4.5t2 3.5q10 15 25.5 25.5t32.5 17.5
t33.5 9.5t29.5 1.5zM423 89q13 5 24 12.5t24 16.5q2 2 5 3t4 0q1 -2 -2 -7q-2 -2 -3 -4q-11 -14 -20.5 -23.5t-29.5 -18.5q-8 -4 -20.5 -7.5t-24 -5t-19.5 -1t-8 4.5q0 3 12 7.5t16 6.5q11 4 21.5 7.5t20.5 8.5zM443 690q12 7 22 14.5t21 16.5q1 1 2.5 2t1.5 -1q0 -4 -2 -8
l-1 -2q-8 -14 -16 -23t-26 -20q-8 -4 -18.5 -8t-20.5 -6t-17 -2t-7 3t9.5 8t12.5 7q20 8 39 19z" />
    <glyph glyph-name="bracketleft" unicode="[" horiz-adv-x="304" 
d="M341 721q-9 -28 -27.5 -42t-32.5 -10q-19 2 -38.5 10.5t-38.5 19.5q-1 0 -4 1.5t-3 5.5q0 3 3 4t4 1q8 2 22 2t23 -2q3 0 15.5 -1t26.5 0t27.5 4.5t19.5 12.5q4 7 4 1t-1 -7zM349 755q-14 -24 -31.5 -29.5t-37 -3t-39 9.5t-38.5 9q-25 2 -53.5 -14t-45.5 -61q-2 -5 -4 -3
q-1 1 -0.5 3.5t0.5 3.5q8 31 20.5 51.5t27 31.5t30.5 15t30 3q19 -2 37.5 -7.5t35.5 -10t33 -4.5t31 10q2 2 4 1t0 -5zM208 614q15 -27 15 -71.5t-7.5 -93t-18.5 -93.5t-18 -71q-13 -50 -31.5 -100t-33.5 -88q-2 -3 -3 -7.5t-3 -7.5q14 2 27 0t21 -4q19 -2 35.5 -6.5
t29.5 -9.5q3 -2 6 -2.5t3 -1.5q0 -4 -7 -7q-23 -16 -48.5 -12t-51.5 10q-9 2 -20 3t-22.5 0t-21 -4t-14.5 -8q-13 31 -18 65.5t-4 70t6 71t13 68.5q9 38 19.5 76t20 75t17.5 73t12 69q1 11 -0.5 21t-1.5 19.5t4 19.5t16 22q4 4 10 7.5t11 5.5t9 2t4 -4q0 -2 -6 -7.5t-8 -7.5
q-12 -10 -18 -20.5t-10 -25.5q9 13 24 19t32 7.5t34 -1t30 -5.5q16 -5 34.5 -7t38.5 7q7 3 6 0.5t-2 -5.5q-7 -16 -21.5 -22t-31 -6.5t-32.5 2.5t-25 4q-16 2 -33 8q10 -32 12 -67.5t-3 -62.5q-11 -57 -30 -116t-42 -110l-4.5 -9t-6.5 -7t-2 8t2 12q2 13 5 30.5t6 36.5
t7 36.5t8 29.5q3 7 8.5 30.5t9.5 54.5t5 66t-6 65q-4 -26 -12 -66t-18 -87t-21 -96.5t-22 -93.5q-14 -56 -19 -117t6 -120q2 3 4.5 6t5.5 6q0 12 1 29t2.5 33t4.5 27t6 10q1 0 2 -5t1.5 -11.5t1 -12.5t1.5 -8v-27.5t1 -25.5q9 3 15 3q0 3 0.5 9t0.5 10q7 77 27.5 151
t41.5 152q13 48 24 100t5 110q-2 6 -0.5 6.5t5.5 -6.5zM256 70q-3 -16 -6.5 -26.5t-11.5 -21.5q-3 -4 -8.5 -8t-10.5 -6t-8.5 -2t-3.5 4q0 3 4.5 8t6.5 7q4 5 8.5 9t9.5 10q5 7 8.5 13t7.5 16q5 11 5.5 5.5t-1.5 -8.5zM259 45q-7 -30 -17.5 -49t-23.5 -30t-27 -14.5
t-27 -2.5q-19 2 -37 7.5t-35 9.5t-32.5 3.5t-29.5 -9.5q-2 -2 -4.5 -3t1.5 7q12 19 28.5 24.5t35.5 4t39 -6.5t39 -6q23 -2 47.5 15t39.5 52q2 5 3 4t0 -6zM178 4q0 -4 -12 -4h-19.5t-34.5 1t-44 0t-35 -11q-3 -3 -3 0q0 1 1 3.5t1 3.5q8 21 26 32t37 11q17 0 36 -8t36 -18
q2 -2 6.5 -4.5t4.5 -5.5z" />
    <glyph glyph-name="backslash" unicode="\" 
d="M175 558q21 -61 39.5 -131t29.5 -132q2 -4 3.5 -13.5t-0.5 -11.5q-4 0 -8.5 8t-5.5 12q-7 13 -15 32.5t-15.5 40.5t-14.5 41.5t-11 35.5q-2 7 -10 28t-19 49t-25 60.5t-28 62t-27.5 53t-23.5 33.5q-2 2 -3 3.5t-2 3.5t-1 3q2 1 4.5 -0.5t4.5 -1.5q20 -10 39.5 -30.5
t37 -45t30.5 -51.5t21 -49zM299 332q18 -54 36.5 -111t34.5 -99q1 -8 2 -12.5t-1 -4.5q-1 -2 -4.5 3t-6.5 10q-24 36 -42.5 75t-34 80t-29 85t-27.5 89q-17 54 -37 110t-53 113q-3 3 -3 3.5t2 1.5q1 2 2 0t4 -4q25 -19 49 -63.5t45 -96.5t37.5 -101.5t25.5 -77.5zM410 14
q4 -2 6 -4.5t0 -2.5q-1 -3 -5 0q-44 11 -81.5 38t-67.5 64.5t-53.5 82.5t-39.5 92q-21 63 -39.5 125.5t-38 122t-41 112.5t-49.5 96v5q0 2 0.5 1t2.5 -2q2 -2 4 -3q40 -39 67.5 -92.5t48.5 -115t39.5 -127t40.5 -127.5q14 -40 35.5 -80t48 -75t57.5 -64t65 -46zM371 81
q16 -14 31 -25.5t32 -21.5q2 -2 4.5 -5t1.5 -3q-2 -2 -4.5 -2h-4.5q-3 0 -4 1q-10 3 -18 5t-16 6.5t-17 11t-21 18.5q-9 9 -20.5 25t-21.5 31.5t-15.5 27t-2.5 13.5q1 1 5.5 -2.5t9.5 -9t9.5 -11t6.5 -7.5q11 -16 22 -28t23 -24z" />
    <glyph glyph-name="bracketright" unicode="]" horiz-adv-x="304" 
d="M301 738q0 -1 -0.5 -3t-0.5 -3q-8 -24 -26 -35.5t-37 -11.5q-17 0 -35.5 7.5t-37.5 18.5q-1 1 -6 4t-5 6q0 5 13 5q6 0 20.5 -0.5t32.5 -2.5q10 -1 21.5 -1.5t22.5 1t20.5 5.5t15.5 10q2 4 2 0zM304 764q-13 -21 -29.5 -26.5t-35 -3.5t-38 7.5t-38.5 6.5q-23 2 -47 -15
t-41 -55q-2 -5 -2 -4v6q7 31 17.5 51t23.5 31t26.5 15t26.5 3q19 -2 37.5 -7.5t35.5 -9.5t32.5 -3.5t28.5 9.5q4 2 6 2.5t-3 -7.5zM125 715q0 -3 -4.5 -8t-6.5 -7l-9 -9t-9 -10q-5 -8 -8.5 -13t-8.5 -16t-4.5 -5.5t0.5 8.5q5 15 7.5 26t10.5 22q4 4 9.5 8t10.5 6t8.5 2
t3.5 -4zM289 410q-18 -75 -39.5 -150.5t-28.5 -143.5q-1 -11 0.5 -20.5t1 -19t-4 -20t-15.5 -22.5q-4 -4 -9.5 -7.5t-11 -5.5t-9.5 -1.5t-4 3.5q0 2 6 8l7 7q13 11 19 21t10 26q-8 -13 -23 -19t-32.5 -8t-35 0t-30.5 6q-15 4 -33.5 7t-38.5 -7q-6 -3 -6 0t2 6q7 16 22 22
t31 6.5t31.5 -2.5t24.5 -4q8 -2 16.5 -3.5t18.5 -4.5q-11 32 -13 67.5t3 62.5q11 57 29.5 115.5t41.5 110.5q2 2 5 9t6 7t2.5 -8t-2.5 -12q-2 -13 -4.5 -31t-6 -36.5t-7.5 -36t-8 -29.5q-2 -7 -7.5 -30t-9.5 -54.5t-5 -67t6 -65.5q4 26 11.5 66.5t17.5 87.5t21 96.5t22 93.5
q14 56 19.5 117t-5.5 120l-4 -6t-7 -5v-1q0 -12 -1 -29.5t-2.5 -33t-4 -26.5t-6.5 -10q-2 0 -2.5 5t-1 11.5t-1 12.5t-0.5 8v27t-2 25q-3 -1 -6.5 -1t-6.5 -1q-2 -4 -2 -9.5t-1 -10.5q-11 -75 -29 -149.5t-39 -152.5q-13 -48 -23.5 -100t-5.5 -110q2 -13 -6 0
q-15 27 -14.5 71.5t8 93t18 93.5t17.5 71q14 50 32 99.5t34 87.5q2 4 3.5 8t3.5 8q-14 -2 -28 0t-22 4q-18 3 -35 7t-29 9q-3 2 -6.5 2.5t-3.5 1.5q0 5 7 7q24 16 49.5 11.5t50.5 -10.5q19 -5 43.5 -3t34.5 13q13 -32 18 -66t4.5 -69.5t-6 -71t-13.5 -68.5zM232 55
q-8 -30 -20.5 -49.5t-27 -30.5t-30.5 -15t-31 -3q-18 1 -36 7t-35 10.5t-33 4.5t-29 -10q-2 -1 -4 -0.5t0 5.5q13 22 30 27.5t35.5 3t38.5 -9t39 -8.5q25 -2 53.5 13t44.5 59q2 2 3.5 3t1.5 0q2 -5 0 -7zM134 19q0 -3 -2.5 -4t-4.5 -1q-8 -2 -21.5 -2t-23.5 2q-3 0 -14.5 1
t-25.5 0.5t-27 -4t-18 -11.5q-5 -5 -4 -1.5t1 5.5q8 28 25.5 41t31.5 11q38 -6 76 -30q2 0 4.5 -2t2.5 -5z" />
    <glyph glyph-name="asciicircum" unicode="^" horiz-adv-x="464" 
d="M225 685q-1 -7 -3 -15t-5 -14.5t-6 -10t-5 -0.5q-4 2 -4.5 8.5t1.5 9.5q5 23 4 39t-3 38q-1 8 2 4t5 -7q8 -14 12 -24.5t2 -27.5zM406 466q-32 -6 -56 7.5t-32 29.5q-11 20 -19 46t-14 51q-2 8 -2 13.5t12 -5.5q9 -9 19.5 -23.5t15.5 -25.5q1 -4 10 -17.5t21 -28.5
t25 -27.5t24 -14.5q8 -1 4 -2.5t-8 -2.5zM195 690q-14 -31 -40.5 -52.5t-55.5 -40.5q-19 -12 -37 -23.5t-29 -35.5q0 -1 -3 0q-1 3 -1 7q-3 18 6.5 33.5t23.5 29t29 24.5t24 19q18 14 37.5 26t36.5 22q2 1 4.5 2t4.5 -1t0 -10zM174 612q2 -2 0.5 -6t-3.5 -6q-5 -8 -19.5 -22
t-25.5 -22q-10 -7 -23 -17.5t-25 -22.5t-21 -25t-10 -24q0 -3 -1 -4t-2 1q-2 2 -2 4.5t-1 4.5q-5 29 4 54t25 35q20 13 44 26.5t49 22.5q2 1 5.5 2t5.5 -1zM288 534q9 -18 18.5 -39t33.5 -31q5 -2 0.5 -3.5t-8.5 -1.5q-19 0 -34.5 12t-28.5 29t-23 36.5t-17 33.5l-17 -17
q-20 -17 -42.5 -30.5t-43.5 -27t-39 -28t-28 -33.5q-1 -3 -2.5 -0.5t-1.5 4.5q3 30 17.5 49t35.5 34t44 28t43 31q24 22 34.5 56.5t-2.5 82.5q-2 6 0.5 4t4.5 -4q6 -12 17.5 -18.5t27 -13t33.5 -16.5t37 -31q15 -21 24.5 -44.5t19.5 -45t21.5 -40t30.5 -28.5q4 -2 1.5 -3
t-7.5 -1q-29 2 -45.5 18t-28 38t-20.5 46.5t-24 45.5q-11 17 -30 30t-44 18q8 -33 8.5 -45t2 -20t7.5 -22.5t25 -52.5z" />
    <glyph glyph-name="underscore" unicode="_" horiz-adv-x="636" 
d="M456 -122q-48 3 -100.5 11t-100.5 19q-2 1 -8.5 2.5t-6.5 4.5t7 4t11 1q10 1 25 2t31.5 1t32.5 -0.5t27 -2.5q5 -1 22 -1.5t40 -0.5t49 1t50 3.5t43.5 6t29.5 9.5q2 0 3 0.5t2 0.5h2q0 -3 -1.5 -5.5t-1.5 -3.5q-12 -14 -31.5 -24t-41.5 -17t-44 -9.5t-39 -1.5zM267 -157
q-42 1 -86.5 7t-79.5 13q-5 1 -9 2.5t-4 2.5t4.5 2.5t8.5 1.5q64 13 130 9t133 -9q43 -4 86.5 -7t92.5 7q5 0 5 -3q0 -1 -2 -1.5t-3 -3.5q-21 -16 -58 -21.5t-77.5 -5.5t-79 2.5t-61.5 3.5zM15 -125q-7 -5 -7 -3t1 4t2 2q22 33 52 53.5t64 32t70 14.5t72 2q49 -2 97 -7.5
t93.5 -9.5t87.5 -4t80 10q2 0 4 1t2 -1q1 -2 -1.5 -3t-4.5 -2q-38 -23 -82 -28.5t-92 -2.5t-97.5 9.5t-97.5 7.5q-32 1 -65 -2.5t-65 -12t-61 -23.5t-52 -37zM74 -122q-14 -7 -28 -14.5t-27 -18.5q0 -2 -2.5 -2.5t-2.5 0.5q0 6 1 8q0 2 1 3q10 15 19 25t32 21q10 4 25 8
t28 6.5t22.5 1.5t9.5 -5q0 -1 -4 -3t-9 -4t-10 -4.5l-7 -3.5q-13 -5 -25 -9t-23 -9z" />
    <glyph glyph-name="grave" unicode="`" horiz-adv-x="330" 
d="M271 575q9 -2 15 -8.5t10 -14.5t5.5 -16t1.5 -14q0 -8 -1.5 -13t-4.5 -3q-1 1 -3 2t-4 6q-2 10 -4 15.5t-4.5 10t-5.5 10t-7 14.5q-2 5 -3 9t5 2zM308 536q-4 26 -14.5 47.5t-37.5 34.5q-13 6 -33 13.5t-38 18t-30.5 24.5t-9.5 32q2 9 5 15t5 1q11 -24 27.5 -35.5
t34.5 -18.5t36 -13t32 -18t22.5 -33.5t8.5 -59.5q0 -5 -1 -11t-3 -6q-1 0 -4 9zM274 527q0 -4 -4 -4q-20 0 -50 9t-57.5 24.5t-47 35.5t-19.5 42q0 2 0.5 8t4.5 6h2q10 -22 38 -40t57.5 -32.5t52.5 -26.5t23 -22zM237 595q1 -4 -2 -4.5t-5 -0.5q-17 0 -37 5t-37 14t-28.5 23
t-11.5 32q0 8 2 21.5t8 18.5q5 2 5.5 2t0.5 -3q0 -24 15.5 -41.5t35 -29.5t36 -21t18.5 -16z" />
    <glyph glyph-name="a" unicode="a" 
d="M403 352q-8 -40 -27 -80t-36 -75q-1 -2 -4.5 -7t-5.5 -5q-3 1 -3 6.5v7.5q1 9 3.5 21.5t4.5 26t4.5 26t5.5 22.5q9 34 15 58.5t9 44.5t3.5 38t-2.5 39q-1 8 1 10q2 1 5 -2t5 -6q17 -27 23 -59.5t-1 -65.5zM427 419q13 -19 13 -50t-6 -63.5t-15 -62.5t-13 -48
q-8 -35 -22 -70t-24 -62q-1 -3 -3 -6.5t-4 -3.5t-2 4v7q-3 55 12 107.5t32 106.5q10 33 19 67.5t8 75.5q0 4 1 4zM333 436q-61 -25 -103.5 -71.5t-65.5 -104.5q-10 -26 -15 -46.5t-8 -44.5q-1 -5 3 -10t8 0q18 22 46 56t56 72t50.5 77t28.5 72zM266 97q-15 -21 -29 -39
t-31 -31.5t-38 -21.5t-48 -9q-45 -2 -68.5 23t-32.5 61t-6.5 74.5t10.5 63.5q11 35 26.5 66.5t33 57t36 44t36.5 28.5q1 0 4.5 2t3.5 -1q1 0 -1 -3t-4 -5q-52 -54 -82.5 -122t-34.5 -140q-1 -18 1.5 -39t10 -39.5t21.5 -31t38 -12.5q19 0 35 6.5t30 17t25.5 23t20.5 23.5
q20 25 37 52q0 20 2.5 39t7.5 38q3 14 5.5 22.5t5 16t5 16t7.5 22.5q-16 -28 -31.5 -52.5t-33 -47t-36 -44t-40.5 -43.5q-17 -17 -28 -11t-13 28q-2 34 3.5 66t19.5 67q13 32 32.5 62t45 54.5t56.5 42t66 23.5q2 11 3.5 19t2.5 16l2 11q2 1 4.5 -2t4.5 -8q12 -33 8 -66
t-14.5 -67t-24.5 -69.5t-23 -71.5q-12 -51 -6.5 -105.5t42.5 -98.5l3 -4q-1 -1 -6 2q-29 18 -43.5 43.5t-20.5 53.5zM301 451q2 -2 -0.5 -3t-10.5 -3q-13 -4 -31.5 -15t-39 -28t-40.5 -39.5t-35 -48.5q-15 -27 -25.5 -53t-17 -47.5t-9.5 -37t-3 -21.5v-31.5t4 -29.5t14 -20
t30 -4q1 0 5 1.5l8 3t7.5 2.5t4.5 1q1 -2 -1.5 -5t-6.5 -6.5t-7.5 -6.5t-4.5 -4q-25 -15 -42 -9t-26.5 22.5t-13 39t-2.5 40.5q2 35 11 69.5t23 69.5q11 27 33 55.5t49.5 52.5t57.5 39.5t58 16.5q10 0 11 -1zM360 2q2 -3 1 -4q-3 0 -8 2q-3 2 -16 12t-19 32q-2 8 -3.5 20.5
t-1.5 23.5t1.5 19t4.5 8t6.5 -12t4.5 -15q3 -14 5.5 -24.5t5.5 -19.5q4 -11 10.5 -25t8.5 -17z" />
    <glyph glyph-name="b" unicode="b" horiz-adv-x="415" 
d="M244 188q-13 -24 -29 -51.5t-31 -39.5t-21 -8t-14 18l-8 12q-3 -1 -3 -7t2 -11q6 -20 14.5 -27.5t24.5 -2.5q18 5 35.5 22t30.5 34q30 41 47.5 87t19.5 94q2 44 -11 57t-32.5 8.5t-42 -21t-40.5 -31.5q6 15 16.5 29t24 24.5t30 16t33.5 3.5q10 -1 18 -10t13 -22.5
t6.5 -31.5t-0.5 -37q-5 -38 -14.5 -76t-24.5 -70q-2 -5 -6.5 -14t-2.5 -11t9.5 6.5t11.5 12.5q18 24 32 54.5t21.5 62.5t8.5 64.5t-6 61.5q-6 25 -24.5 34t-40.5 6t-44 -14t-36 -24q6 15 16.5 26.5t24 20t29 12t31.5 1.5q28 -3 42.5 -22t20 -43.5t5 -51t-2.5 -44.5
q-5 -42 -19 -83t-35 -76q-17 -28 -44.5 -55t-59.5 -43t-66 -16.5t-64 24.5q-20 17 -28.5 45.5t-11.5 54.5q-5 45 1.5 90.5t19.5 84.5q20 61 45.5 123t44 122t23.5 116t-16 106q-1 2 -1.5 4t-1.5 2q-3 -1 -2.5 -2t0.5 -2q6 -48 -4 -100t-28.5 -108t-41.5 -115.5t-44 -122.5
q-14 -45 -22.5 -96t-0.5 -104q11 -72 59 -107t120 -27q52 6 92 42t67 87q20 39 34.5 82.5t17.5 88.5q2 28 -0.5 58t-13 55.5t-31 42t-54.5 18.5q-20 1 -44.5 -10t-38.5 -26q9 30 16.5 61.5t11.5 60.5t3.5 54.5t-7.5 43.5q-2 8 -4 8q-1 0 -1 -8q-2 -64 -21 -121.5t-38 -109.5
q-15 -42 -31.5 -83.5t-28 -82.5t-16.5 -80.5t2 -76.5q1 -4 3.5 -9.5t4.5 -5.5t1.5 5t0.5 10q5 35 19 84.5t33 99.5q11 10 26.5 23.5t31 24.5t28.5 16.5t19 0.5q8 -8 6 -29.5t-9.5 -47.5t-17.5 -50.5t-17 -37.5zM215 547q6 21 9.5 50.5t2.5 59t-7.5 56t-19.5 42.5
q-2 2 -4 4.5t-4 2.5q-3 0 1 -10q9 -20 6 -59.5t-12 -84.5t-21 -88t-22 -68q-6 -14 -12.5 -34t-12.5 -40.5t-11.5 -40t-8.5 -33.5q0 -5 -1.5 -14t-0.5 -9q5 -2 8.5 7t6.5 11q28 57 55.5 120.5t47.5 127.5zM108 71q9 -15 23 -24.5t28 -12.5q5 -1 11 -2.5t6 -5.5q-1 -3 -9 -5
q-4 -1 -9 -1q-17 1 -33.5 6t-34.5 29q-12 16 -17.5 36t-6.5 38t1.5 30t7.5 11q1 0 3 -5.5t3.5 -13t3 -14t2.5 -9.5q4 -17 7 -28t14 -29z" />
    <glyph glyph-name="c" unicode="c" horiz-adv-x="337" 
d="M148 210q4 25 13.5 50.5t22.5 47t29 36t34 19.5q23 5 34.5 2t13.5 -9q3 -9 0 -18t-8.5 -16t-12 -12.5t-10.5 -6.5q-5 -2 -3.5 -5t9.5 -1q9 1 18 7t16.5 15t11.5 19.5t3 21.5q-2 11 -10.5 19t-20.5 12t-27 4t-28 -5q-26 -10 -45.5 -29.5t-34 -45t-23.5 -55t-15 -59.5
q-8 -37 -5 -72.5t23 -55.5q10 -10 26 -14t34 -3.5t36.5 6.5t34.5 16q4 2 6.5 4t0.5 3q-1 1 -8 -1q-49 -12 -76 -10t-38.5 18t-10 45.5t9.5 72.5zM160 4q-32 2 -61 20.5t-40 46.5q-11 29 -14 55.5t-1 51.5q4 52 20.5 104.5t51.5 94.5q22 26 44 43.5t58 27.5q18 5 39 6
t41.5 -4.5t38.5 -18.5t32 -35q3 -10 6 -10q3 3 0 11q-6 32 -32.5 51t-62 24t-73.5 -3.5t-67 -32.5q-39 -31 -65.5 -71.5t-41.5 -85.5t-18 -93t7 -94q6 -30 20.5 -48.5t33.5 -29t41 -13.5t44 -2q6 0 7.5 1t1.5 2q0 2 -10 2zM82 245q0 -1 -0.5 -5l-1 -8t-0.5 -7.5t2 -3.5
t6.5 10t4.5 11q26 60 62 106q3 3 12 13.5t24 21.5t36 19t47 5q27 -3 44 -20t12 -40q-4 -22 -15.5 -37t-22.5 -20q-8 -3 -4.5 -4t5.5 -1q12 1 25.5 9.5t23.5 22t14 30.5t-3 37q-8 21 -23 33.5t-33 18t-36.5 5.5t-31.5 -3q-38 -10 -64 -29t-42.5 -44.5t-25.5 -56t-15 -63.5z
M284 64q4 6 3.5 8t-2.5 1.5t-5.5 -3t-5.5 -3.5q-20 -14 -44.5 -22.5t-54.5 -8.5q-15 0 -35.5 10.5t-31.5 21.5q-4 5 -8.5 9.5t-7.5 3.5q-4 -4 0 -11q15 -35 38 -45t49 -10q15 0 30.5 4t30 10.5t26 15.5t18.5 19z" />
    <glyph glyph-name="d" unicode="d" horiz-adv-x="473" 
d="M448 521q-14 -63 -36.5 -125.5t-44.5 -118.5q-1 -5 -5 -13t-9 -6q-1 0 -1 9t1 12q2 14 5.5 33.5t8 39.5t9.5 39.5t9 33.5q3 6 7.5 27t9.5 49.5t9 61.5t5 63.5t-0.5 55.5t-8.5 37q-5 10 -2 11q4 0 9 -5q15 -15 23.5 -40.5t12.5 -55t3 -58.5t-5 -50zM474 632q10 -20 12 -49
t-1 -62.5t-9.5 -69t-14.5 -68t-15.5 -60.5t-12.5 -46q-14 -52 -25.5 -103.5t-11.5 -87.5q0 -13 -1 -13q-2 -2 -4.5 3t-4.5 10q-10 36 -8.5 74.5t9.5 79t20.5 82t24.5 82.5q14 52 28 108.5t9 119.5q0 5 -0.5 5.5t0.5 0.5q2 0 5 -6zM330 427q-60 -26 -102.5 -72.5
t-64.5 -103.5q-9 -24 -14.5 -45.5t-7.5 -45.5q-1 -12 6 -9t12 9q12 15 22 29.5t20.5 30t22 33t25.5 37.5q15 21 28.5 41.5t24 38.5t18 33t10.5 24zM308 348q-36 -70 -74 -131.5t-87 -112.5q-31 -33 -37 10q-2 34 5 71t21 70q13 32 32 62t44 55t55.5 42t65.5 23
q12 42 23 82.5t18 79.5t7.5 75.5t-6.5 69.5q-2 6 -1 6q2 1 3.5 -2t1.5 -4q24 -48 23.5 -103t-13.5 -114t-32.5 -120t-33.5 -122q-9 -39 -10.5 -83.5t8.5 -87.5q10 -45 37 -76.5t62 -34.5q8 -1 8 -3t-2.5 -2.5t-4.5 -0.5q-21 0 -41.5 8t-38.5 23t-31.5 35.5t-19.5 46.5
q-2 8 -2 13q-28 -53 -67.5 -85.5t-99.5 -37.5q-45 -3 -68.5 21t-32.5 58t-6 71.5t11 61.5q23 69 58 121.5t70 73.5q2 2 6 3.5t5 0.5q2 -1 -1 -4l-4 -4q-54 -54 -83.5 -123.5t-31.5 -141.5q-1 -18 1 -39t9.5 -39.5t21.5 -31t38 -12.5q34 -1 64.5 20.5t53 53t36.5 67.5t16 66
q-7 -8 -12 -16.5t-13 -18.5q-1 -2 -6 -6.5t-8 -3.5q-2 1 2 11.5t10 23t12 24t8 15.5q11 23 17 46t14 50zM447 23q0 -2 -5 -4q-3 -1 -5 -1q-19 -2 -35.5 2t-33.5 21q-9 9 -15.5 27t-10 35t-3 30t4.5 12q1 1 3.5 -4t4.5 -11.5l4 -13t3 -9.5q5 -16 12 -29t17 -23q24 -28 52 -29
q2 0 4.5 -0.5t2.5 -2.5zM302 445q0 -1 -1.5 -2t-7.5 -3q-13 -5 -32 -16.5t-40 -28.5t-41.5 -39.5t-35.5 -48.5q-15 -27 -25.5 -52.5t-16.5 -47t-8.5 -36.5t-3.5 -20q-1 -17 -1 -33.5t4.5 -30t14.5 -20.5t30 -4q2 0 12.5 4.5t12.5 3.5q1 -1 -1 -4t-6 -6.5t-7.5 -6t-4.5 -3.5
q-9 -5 -20 -7.5t-21.5 -0.5t-19.5 8.5t-13 18.5q-11 37 -10 72q2 35 9 69.5t24 69.5q10 27 31.5 56t49.5 53t58.5 40t57.5 17h8t4 -2z" />
    <glyph glyph-name="e" unicode="e" horiz-adv-x="344" 
d="M306 408q8 -10 12.5 -25t3.5 -32.5t-8 -36.5t-22 -37q-29 -34 -63.5 -52.5t-62.5 -18.5q-17 0 0 6q9 3 21.5 9.5t26.5 16t28.5 22.5t26.5 30q20 28 23.5 54.5t-10.5 40.5q-12 12 -28 13.5t-48 -17.5q-29 -17 -52 -42t-43 -53q-11 -14 -14.5 -14t2.5 18q12 35 33.5 65
t51.5 51q22 15 40.5 21t34 5t27.5 -7.5t20 -16.5zM360 338q-4 -24 -12.5 -40.5t-19 -28t-21 -18.5t-18.5 -13q-4 -3 -6 -1t3 7q18 15 36.5 40.5t19.5 56.5q0 53 -26 81t-65 24.5t-81 -30.5q-27 -17 -47.5 -39.5t-35.5 -48t-24.5 -52.5t-13.5 -54q-4 -26 -7.5 -56t0 -59
t18.5 -55.5t47 -45.5q5 -3 10.5 -4t5.5 -2q0 -2 -5 -2.5t-11 1.5q-25 5 -42.5 20.5t-28.5 35.5t-17 42t-7 40q-6 79 22 156q6 16 15.5 36t23.5 40.5t33 40t43 34.5q23 14 48 21t50 6.5t47 -9t39 -25.5q15 -16 23.5 -41t3.5 -58zM269 374q12 -14 3 -43.5t-42 -59.5
q-18 -17 -35 -27.5t-43 -18.5q-11 -38 -14 -75t2 -60q1 -9 6.5 -17.5t16 -13t27.5 -3.5t42 11q7 3 8.5 1.5t-6.5 -6.5q-18 -14 -38 -19.5t-37.5 -3.5t-30 12t-16.5 27q-8 35 -7 73t11.5 75t30 69.5t48.5 55.5q54 43 74 23zM259 55q-7 -10 -17.5 -19.5t-24 -17t-28 -12.5
t-29.5 -5q-26 0 -48.5 11.5t-34.5 46.5q-2 4 -2 7.5t2 3.5q4 2 8 -2.5t8 -9.5q11 -13 28.5 -23t33.5 -10q30 0 52 9t42 24q5 3 11.5 6t-1.5 -9zM245 347q-4 8 -29 -13q-23 -18 -36.5 -41.5t-23.5 -51.5q19 9 35 20.5t30 22.5q15 13 22 34t2 29z" />
    <glyph glyph-name="f" unicode="f" horiz-adv-x="314" 
d="M369 393q0 -1 -1 -3.5t-2 -4.5q-6 -14 -17 -24t-23 -17t-24 -10t-21 -2q-27 2 -56 9.5t-55 17.5q-1 0 -5.5 3t-4.5 5t3 3t5 2q6 2 16 3t20.5 1t20.5 -0.5t17 -1.5q16 -3 34 -3.5t35 1.5t31 7t22 14q5 5 5 0zM377 423l-3 -4q-18 -25 -42.5 -31t-51.5 -3t-55.5 10t-55.5 8
q-35 2 -71 -15.5t-62 -62.5q-2 -5 -4 -4q-1 0 -0.5 3.5t1.5 5.5q10 30 25 50t32.5 32t36 17t36.5 5q50 106 117.5 193t146.5 147q3 2 5.5 4.5t4.5 1.5q2 0 -1 -4.5t-4 -5.5q-64 -69 -124.5 -154.5t-108.5 -183.5q4 -2 8.5 -2t8.5 -1q11 25 24.5 53.5t30.5 57.5
q17 31 37.5 59.5t41 52.5t37.5 43t27 30q4 4 7.5 7t5.5 2t0 -5t-4 -7q-12 -24 -29.5 -55.5t-37 -65t-38.5 -67t-34 -60.5q-7 -13 -14.5 -25.5t-13.5 -26.5q7 0 15 -3q22 45 46.5 88.5t53.5 87.5q4 5 4.5 6.5t2.5 -0.5q1 -1 -1 -9q-11 -29 -32.5 -77t-43.5 -100q20 -2 38 0
t35 10q1 0 2 0.5t1 -2.5zM111 364q0 -4 -6.5 -9.5t-8.5 -6.5l-28 -19q-8 -8 -14 -15t-13 -17q-2 -2 -2.5 -4t-2.5 -2q-1 0 -1 8q0 4 1 8q5 14 10 23.5t18 20.5q5 4 13 8t15.5 6.5t13 2.5t5.5 -4zM145 299q-14 -38 -23 -75t-17 -75q-11 -56 -15.5 -114.5t-2 -115t12 -109.5
t26.5 -98q2 -5 3.5 -8.5t-0.5 -3.5q-3 0 -6 4q-28 46 -44 100.5t-20.5 115.5t1 126t19.5 131q13 66 33 129q-8 2 -14 3t-12 3q-2 1 -6 2.5t-4 3.5t3 3t5 2q36 13 73 10t75 -10q23 -4 47.5 -6t50.5 8q4 2 4 0q0 -1 -4 -7q-11 -17 -32.5 -22.5t-44.5 -6.5q-14 -42 -23.5 -79
t-14.5 -63l-60 -279q-2 -9 -3 -15.5t-3 -4.5q-3 -2 -3.5 6.5t-0.5 16.5q0 97 18.5 204.5t55.5 214.5q-6 2 -10.5 2t-9.5 1q-15 -39 -27.5 -78t-24.5 -77q0 -2 -1.5 -6.5t-3.5 -9.5t-4.5 -8.5t-3.5 -3.5t-0.5 4t1 9.5l1 11t0.5 7.5q2 28 11 70.5t20 83.5q-12 0 -22 3z
M157 -296q-2 -1 -7 4q-2 2 -3 4q-6 10 -10.5 18.5t-8.5 19t-7.5 25.5t-6.5 38q-3 17 -4 43.5t-1 51.5t2 43t5 18q2 0 4 -7.5t3 -17.5t1.5 -19.5t0.5 -13.5l9 -92q3 -27 9 -52t13 -50q1 -4 1.5 -8.5t-0.5 -4.5z" />
    <glyph glyph-name="g" unicode="g" horiz-adv-x="411" 
d="M384 447q-2 1 -4.5 -3t-4.5 -6q-15 -19 -27 -47t-20.5 -59t-14 -62t-9.5 -55q-5 -34 -8.5 -64.5t-6.5 -59.5t-5 -58.5t-5 -60.5q1 -1 1 -5.5v-9v-8t2 -3.5q1 0 3 3.5t4 7.5t3 8l1 4q11 24 19 56t13 64q1 8 4 33t7 58t9.5 71.5t11 74t12 64.5t12.5 44q1 4 2 6t1 4v3z
M351 451q0 1 -7 1q-3 0 -6 -1q-38 -4 -70 -20.5t-58.5 -41t-47 -55.5t-33.5 -64q-14 -34 -21 -72t-5 -71q3 -43 38 -8q30 30 56.5 65t50 74t44.5 79.5t42 81.5q4 8 3 8q-2 2 -4.5 0t-2.5 -4q-54 -69 -100.5 -132t-85.5 -125q-5 -5 -6.5 -3t-0.5 7q2 23 7.5 47.5t15.5 49.5
q24 61 69 108t113 70q9 4 9 6zM297 458q-1 2 -4.5 2h-6.5q-28 0 -58.5 -16t-58.5 -40.5t-50 -54t-33 -56.5q-14 -36 -23.5 -69.5t-10.5 -67.5q-1 -18 1.5 -35t9.5 -37q4 -12 13.5 -19t20 -9t21.5 0t19 8q1 1 4.5 4t7 6.5t6 6.5t1.5 5t-9.5 -2.5t-14.5 -5.5q-21 -4 -31.5 3
t-15 20.5t-4 30t2.5 32.5q0 6 2.5 21t8.5 36.5t16.5 47.5t25.5 52t35.5 48t41.5 39t40.5 28t33.5 15q7 2 8 3.5t1 3.5zM418 469q-3 0 -5 -4q-1 -2 -2 -5q-30 -62 -42 -127.5t-18 -133.5t-12 -137t-24 -138q-6 -22 -12 -46t-16 -47t-26.5 -43.5t-44.5 -34.5
q-32 -17 -59 -14.5t-50 14.5t-42 30.5t-33 33.5q-2 2 -4 4.5t-3 1.5q-2 -1 -0.5 -4.5t2.5 -5.5q23 -43 70 -75q11 -8 27 -14t34.5 -8.5t38 1t37.5 15.5q33 22 52.5 46.5t31.5 50t18.5 52.5t12.5 53q17 68 23.5 135.5t10.5 133.5t10 130.5t23 125.5q2 4 2 6v4zM300 278
q5 21 13.5 43.5t13.5 44.5q0 2 1.5 7t0.5 5q-2 1 -6 -5t-4 -7q-14 -23 -25 -48.5t-20 -46.5q-2 -5 -8.5 -17t-13 -25.5t-11 -25t-1.5 -13.5q2 0 6 4.5t6 6.5q3 5 7 10.5t8 10.5q-6 -25 -10.5 -41.5t-9.5 -29.5t-11.5 -24.5t-17.5 -26.5q-8 -11 -19.5 -23.5t-26 -23
t-31.5 -17t-36 -6.5q-24 0 -38 12.5t-21 31t-9 39.5t-1 39q4 72 33.5 140.5t82.5 122.5q0 1 3 4t3 4q-2 2 -5 0l-4 -2q-18 -11 -37.5 -30t-37 -44.5t-32 -56.5t-24.5 -64q-5 -17 -7.5 -40.5t-1 -49t7 -51t18 -45t32 -31t48.5 -9.5t46.5 10t28.5 17q14 11 25 23t22 23
q-6 -35 -11.5 -59.5t-10.5 -46.5q-7 -30 -13 -57.5t-13 -48.5t-16 -34.5t-21 -15.5q-14 0 -14 -3q-1 -3 4 -5t10 -3q15 -3 28.5 5t24 23.5t19 36.5t14.5 43q12 46 20 89.5t15 91.5q7 47 11.5 94t15.5 95zM188 -218q-2 2 -5.5 1.5t-4.5 -0.5q-17 -3 -33.5 1t-33.5 11
q-19 8 -35 19.5t-36 24.5q-2 2 -6 4t-4 0q-1 -1 1.5 -5t4.5 -6q13 -17 27.5 -32t37.5 -24q15 -6 31 -8t29.5 -0.5t21.5 5.5t5 9z" />
    <glyph glyph-name="h" unicode="h" horiz-adv-x="434" 
d="M210 527q-17 -59 -38.5 -121t-44.5 -117q-1 -3 -5.5 -11t-7.5 -7q-2 0 -2.5 9.5t0.5 14.5q2 13 6 32t8.5 39t9 39t9.5 33q2 6 7 26t11 48t12.5 60t11 62t6.5 55t-1 38q-3 10 0 10q2 0 3.5 -2.5t3.5 -4.5q10 -18 15.5 -44t6.5 -54t-2 -56t-9 -49zM170 758q13 -51 6.5 -107
t-22.5 -114t-36 -117.5t-34 -119.5q-9 -38 -14.5 -78.5t-5.5 -80t6.5 -76t22.5 -65.5q2 -4 1.5 -6t-6.5 6q-26 30 -38.5 68t-14.5 80t4 87t17 88q15 60 33.5 118t35 113t27.5 106.5t11 99.5q0 5 1 5q4 0 6 -7zM352 0q-37 17 -59 53t-27 83q-5 46 0 76.5t12 60.5q1 4 4 13.5
t4.5 19.5t0 17.5t-8.5 9.5q-14 3 -32 -12.5t-34.5 -38.5t-30 -47.5t-17.5 -38.5q-9 -29 -19 -55t-18 -52q-3 -11 -5 -10q-2 0 -2.5 4t-0.5 9q0 40 6 80.5t16.5 80.5t23.5 80t25 81q16 51 30.5 104t19.5 114v5.5t1 0.5q3 0 5 -8q5 -13 4.5 -36.5t-4 -51.5t-10 -57t-13.5 -52
q19 20 45 31t62 6q41 -6 63 -29.5t30 -56.5t4.5 -70.5t-12.5 -72.5q-8 -27 -15 -47.5t-14 -37.5t-12 -32t-8 -32q-2 -11 -4 -11t-3.5 4t-2.5 8q-6 22 -0.5 54t14.5 67.5t16.5 72t6 67.5t-16.5 54.5t-51 32.5q-15 4 -32.5 2.5t-33 -8t-27.5 -18.5t-16 -28q19 20 49 33t58 4
q26 -8 37 -29t13 -37q4 -35 -4.5 -63.5t-19.5 -54.5q-2 -3 -6 -9.5t-6 -5.5q-2 0 -2 8t1 12q3 10 5 31.5t1.5 44.5t-6 43t-17.5 27q-14 8 -34 4.5t-43 -24.5q-20 -18 -34 -41.5t-24 -61.5q6 11 19 31t29.5 38t35 28.5t35.5 2.5q11 -6 14.5 -20.5t2 -32.5t-5.5 -35t-7 -27
q-11 -30 -15 -65.5t0.5 -69.5t19.5 -64t44 -51q9 -5 3.5 -5h-7.5zM378 8q-14 8 -26.5 17t-24.5 35q-5 10 -7.5 27t-3 32.5t1.5 26t5 9.5q2 0 4 -4.5t3 -10.5t2 -11.5t1 -7.5q4 -22 7 -32.5t8 -22.5q8 -16 16 -29t20 -24q5 -4 2.5 -6t-8.5 1zM125 0q1 0 -1.5 -1t-9.5 1
q-8 4 -16.5 15t-13.5 43q-2 13 -2 31.5t1.5 35t4.5 28.5t7 11q1 0 2 -6t2 -13.5t1 -15v-10.5q1 -22 2.5 -32.5t4.5 -28.5q3 -19 7 -34.5t11 -23.5z" />
    <glyph glyph-name="i" unicode="i" horiz-adv-x="207" 
d="M165 330q3 13 3.5 30t-2.5 35t-10.5 34.5t-19.5 28.5q-6 4 -7 4q-4 0 0 -6q6 -13 4.5 -40.5t-6.5 -57t-10.5 -53t-6.5 -28.5q-7 -18 -12.5 -45t-5.5 -44q-1 -2 -1 -8t3 -7q1 0 4 5t5 7q18 32 34.5 70t27.5 75zM169 179q4 18 13 46.5t15 59t6 60t-12 48.5q-4 4 -6 4t-1 -4
q0 -38 -8.5 -70.5t-18.5 -63.5q-17 -51 -31 -99.5t-12 -99.5q0 -3 0.5 -6.5t3.5 -3.5q2 0 3 2l3 6q10 24 23 56.5t22 64.5zM98 0q-19 20 -29 44.5t-14 50t-2 51.5t8 49q9 36 23 72t24 71.5t11.5 70t-14.5 67.5q-3 5 -4 5t-1 -1.5t1 -2.5q3 -30 -4 -62t-18 -65.5t-24.5 -69
t-22.5 -72.5q-7 -27 -9.5 -55t3.5 -55.5t22 -52.5t46 -46q2 -2 5 -2.5t-1 3.5zM106 38q-3 8 -6.5 20t-5.5 23q-2 4 -5 15t-5 11q-4 0 -5.5 -7t-1.5 -17.5t1.5 -22t4.5 -19.5q6 -20 14.5 -28t22.5 -13q6 -3 9 -3q1 0 0.5 1.5t-1.5 1.5q-7 8 -12.5 17t-9.5 21zM184 555
q-5 0 -15.5 1.5t-10.5 9.5q0 3 9 7.5t20 13t20 22t9 34.5q0 26 -10 39q-2 3 -5 6.5t-2 4.5q2 0 4.5 -1.5t3.5 -2.5q20 -11 30.5 -28.5t10.5 -33.5q0 -32 -15 -52t-49 -20zM147 595q-12 -5 -12 6q0 8 6 15.5t11.5 16.5t7.5 20.5t-6 28.5q-2 5 -7 11t-3 7t8.5 -1.5t8.5 -3.5
q17 -8 25.5 -24t8.5 -28q0 -19 -15.5 -31.5t-32.5 -16.5zM118 649q0 5 3 11.5t10 6.5q5 0 8 -6.5t3 -11.5q0 -4 -3 -10.5t-8 -6.5q-7 0 -10 6t-3 11z" />
    <glyph glyph-name="j" unicode="j" horiz-adv-x="237" 
d="M172 578q-5 0 -16 2t-11 9q0 4 9 8.5t20.5 12.5t20.5 21.5t9 34.5q0 28 -10 40q-2 3 -5 6t-2 5q2 0 4.5 -1t4.5 -2q20 -11 30.5 -29t10.5 -34q0 -32 -15.5 -52.5t-49.5 -20.5zM135 618q-5 -1 -8.5 0t-3.5 7q0 8 6 15.5t11.5 16.5t7.5 20.5t-6 28.5q-2 4 -7 10t-3 8
q2 1 8.5 -1.5t8.5 -4.5q17 -8 25.5 -23t8.5 -29q0 -19 -15.5 -31t-32.5 -17zM106 673q0 4 3.5 11t9.5 7q5 0 8 -7t3 -11t-3 -11t-8 -7q-6 0 -9.5 7t-3.5 11zM167 340q-2 14 -6.5 40t-13.5 47q-2 5 -6 12t-6 6t-2 -7t2 -21q4 -24 3.5 -58.5t-5 -75.5t-14.5 -87t-25 -92
q-4 -12 -11 -28.5t-15 -35t-15.5 -37t-11.5 -34.5q-4 -25 11 -5q27 30 50 74t39.5 94t23.5 104t2 104zM195 320q-2 7 -3 8.5t-3 1.5t-2 -8q0 -69 -13 -132t-36 -123q-4 -11 -16 -38t-28.5 -61.5t-34.5 -72t-33 -69.5t-24.5 -54t-9.5 -24q0 -4 2 -3.5t4 2.5t4 5t3 4
q35 42 73 106t67.5 136.5t46.5 147t10 136.5q-2 20 -7 38zM-16 5q-14 -36 -28 -70.5t-24 -71t-14 -76.5t1 -86q0 -5 1.5 -12l3 -14t3.5 -12.5t3 -6.5q2 0 2 9q1 47 7 89t16.5 81t25 76.5t31.5 76.5q20 42 42 91.5t39 103t26 109.5t3 113q-2 11 -4.5 25.5t-7.5 29.5
q-5 16 -8 16q-2 0 -1 -16q6 -60 -5 -121t-30 -120t-41.5 -113.5t-40.5 -100.5zM-4 -153q0 3 -3 4q-7 1 -15 -14t-15.5 -38t-12 -51t-4.5 -53q0 -8 2.5 -22.5t4.5 -22.5q0 -2 1.5 -7.5t3.5 -5.5q3 -1 3.5 3t0.5 6q2 23 4 44.5t7 42.5q2 8 6 24.5t8 34t7 33t2 22.5z" />
    <glyph glyph-name="k" unicode="k" horiz-adv-x="415" 
d="M391 467q4 -16 1.5 -32t-8 -30t-14 -24.5t-16.5 -16.5q-24 -17 -54 -31.5t-59 -25.5q-2 -1 -7 -2.5t-7 1.5q-1 1 1.5 5t3.5 5q10 12 27 26t30 22q4 3 19.5 15t32 28.5t30.5 33.5t15 29q0 2 0.5 2.5t0.5 1.5t1 1q2 -1 2.5 -3.5t0.5 -4.5zM203 548q-14 -61 -37 -123.5
t-49 -116.5q-2 -5 -5.5 -13.5t-6.5 -8.5q-2 2 -1.5 10.5t1.5 11.5q3 15 8 38t11.5 49t13 51t12.5 44q20 67 26 132.5t-5 125.5q-1 4 -0.5 6t0.5 3q5 2 9 -6q12 -16 19 -41.5t9.5 -54t1 -57t-6.5 -50.5zM145 773q20 -49 18 -104.5t-16 -114.5t-34.5 -119.5t-37.5 -119.5
q-11 -37 -17.5 -78.5t-6.5 -83t8 -80.5t27 -72q3 -5 -0.5 -4t-5.5 3q-25 31 -37.5 71.5t-15 85.5t3.5 92t18 89q18 59 36.5 117t32.5 113t20.5 106.5t-0.5 98.5q0 2 -0.5 4.5t1.5 2.5t3.5 -2.5t2.5 -4.5zM410 25q8 -2 6 -5t-5 -4q-31 -8 -60 -3t-48 19q-25 18 -43.5 47
t-35.5 55q-1 2 -3 5.5t-1 5.5q2 3 5.5 1.5t4.5 -2.5q13 -6 31.5 -19t27.5 -24q8 -9 22 -21.5t30.5 -23.5t34.5 -20t34 -11zM442 47q5 -1 2.5 -3t-6.5 -2q-32 -6 -57 6.5t-46.5 33t-42 44.5t-43.5 43q-29 23 -71.5 33t-91.5 -9q-5 -2 -4 1t3 5q9 6 19 11.5t19 8.5
q12 53 29 105.5t34 107.5q16 51 29 107t11 119q0 6 2 6t2.5 -3t2.5 -5q10 -21 10 -56t-6 -75.5t-16 -82.5t-20 -76q20 21 44.5 35.5t49 28t45.5 30.5t34 43q0 1 0.5 2t1.5 -1q0 -1 0.5 -3t0.5 -4q-2 -32 -19 -53.5t-41 -38.5t-52 -32t-52 -33q-29 -22 -39 -53t-17 -61
q5 7 10.5 15.5t10.5 16t9 11.5t6 2q1 -1 -0.5 -6.5t-3.5 -12.5l-4 -14t-3 -11q5 -1 8.5 -1t6.5 -1q23 33 54 55.5t65 42.5q23 14 44.5 30t38.5 42q1 3 3 1q1 -1 0.5 -2.5t0.5 -4.5q1 -21 -12 -40t-32 -35t-39 -29t-31 -22q-16 -12 -35 -22.5t-36 -19.5q30 -10 56 -32
q23 -18 43 -40.5t40 -43.5t40.5 -37t44.5 -21zM128 142q-2 -6 -5.5 -17t-5.5 -21q-2 -5 -2.5 -10t-2.5 -4q-3 1 -4.5 8t-1.5 12v16t1.5 16.5t6 12.5t13.5 5q13 -1 28.5 -9.5t31.5 -22t32 -30t32 -33.5q17 -19 37.5 -38.5t49.5 -27.5q4 -2 4 -3.5t-5 -1.5q-20 0 -40.5 8.5
t-40 21t-36 26.5t-28.5 25q-17 16 -33.5 34t-30.5 33zM116 1q2 -3 -0.5 -4t-7.5 3q-12 11 -22 26.5t-15 47.5q-4 19 -5.5 40.5t3.5 38.5t19 28.5t41 11.5q7 0 16 -2t16.5 -4.5t12 -6t1.5 -6.5q-1 -3 -10.5 -2t-11.5 1q-12 2 -23.5 2.5t-20.5 -2.5t-14.5 -11.5t-5.5 -24.5
q0 -34 6 -64q4 -20 8.5 -37.5t12.5 -34.5z" />
    <glyph glyph-name="l" unicode="l" horiz-adv-x="208" 
d="M201 521q6 22 8 53.5t0 63t-9.5 59.5t-22.5 43q-6 6 -9.5 4t1.5 -10q10 -18 9.5 -55.5t-6.5 -81.5t-16 -88t-20 -77q-5 -14 -10 -35t-10.5 -42.5t-9.5 -42t-6 -34.5q0 -3 -1 -11.5t2 -10.5q2 0 6 8.5t5 10.5q24 56 49 119.5t40 126.5zM178 277q5 18 14 47t18 63.5
t17.5 72t13 73t3 65.5t-10.5 49q-1 3 -4 6t-3 -5q2 -64 -13 -128t-32 -116q-13 -41 -26.5 -82t-23 -81.5t-12 -79.5t7.5 -75q4 -13 7 -13q3 1 3 13q0 18 3.5 40.5t9.5 47.5t13 51.5t15 51.5zM159 3q-35 4 -62.5 35t-36.5 76q-9 43 -4.5 87.5t15.5 83.5q16 60 38 123.5
t37.5 125.5t17.5 119.5t-20 105.5q-2 1 -3 4.5t-3 2.5q-3 0 -1 -7q8 -46 1 -99.5t-22.5 -111t-35 -118.5t-36.5 -122q-13 -45 -17.5 -95.5t6.5 -101.5q6 -26 18.5 -47t29.5 -35.5t37 -22.5t41 -7h3q1 0 3 1q0 3 -6 3zM129 53q-18 21 -29 54q-1 3 -3 9.5l-4 13t-4 12t-3 5.5
q-4 0 -4 -13t3 -30t9 -34.5t14 -27.5q16 -18 32.5 -22t33.5 -4q6 0 9.5 3.5t-5.5 5.5q-29 3 -49 28z" />
    <glyph glyph-name="m" unicode="m" horiz-adv-x="612" 
d="M279 253q-14 -60 -19 -125t8 -126q1 -2 -0.5 -4.5t-3.5 2.5q-17 33 -23.5 67t-6.5 67.5t5 67.5t13 67q1 4 4 16.5t4.5 25t-0.5 19.5t-12 0q-23 -17 -42.5 -42.5t-31.5 -49.5q-1 -2 -4.5 -11.5t-7 -20.5t-6.5 -21.5t-4 -13.5q-8 -31 -20 -59t-20 -52q-3 -10 -4 -9
q-5 0 -5 9q-5 49 8.5 94.5t29.5 93.5q10 31 18.5 61.5t7.5 67.5q-1 26 19.5 51t61.5 42q24 10 45 9t39 -9t32 -23t23 -33q6 11 18 23.5t28.5 21.5t37 13.5t45.5 0.5q18 -3 31.5 -12t24 -20.5t16.5 -23.5t9 -20q11 -33 11.5 -74t-8.5 -74q-15 -54 -35.5 -96t-27.5 -75
q-3 -11 -4 -11q-4 0 -4.5 4t-1.5 8q-2 21 5.5 53.5t17.5 70t18 76.5t7 72.5t-15 58.5t-48 34q-27 7 -47.5 0.5t-34.5 -14.5q-21 -14 -27 -29.5t-6 -29.5q17 31 45 49.5t66 6.5q25 -8 35.5 -30t11.5 -49t-5.5 -54t-15.5 -45q-1 -2 -5 -9.5t-9 -6.5q-1 0 -0.5 8t0.5 12
q3 12 4 28t0.5 33t-2.5 33t-6 27q-5 14 -15.5 18.5t-22.5 2.5t-23.5 -8t-19.5 -13q-22 -19 -27 -34.5t-8 -35.5q12 20 29.5 37.5t34.5 28.5q9 4 15.5 3t11 -5.5t6.5 -11t3 -11.5q3 -33 -2.5 -58t-13 -51.5t-12 -59t1.5 -80.5q5 -35 21 -63t40 -35q7 -2 3.5 -3t-5.5 -1
q-18 2 -34 14t-28.5 30t-20.5 40t-9 44q-3 45 5.5 85.5t16.5 69.5q2 8 4.5 20.5t2 21.5t-6.5 10.5t-20 -11.5q-20 -18 -35 -39t-22 -47q-23 -83 -66 -159q-2 -4 -5 -7.5t-4 -2.5q-2 0 -1 5l2 10q6 35 15 68t17.5 67.5t15 71t7.5 78.5q-2 14 -5.5 29t-20.5 35q-20 22 -47 23
t-44 -5q-11 -3 -23.5 -11t-23 -19t-17 -25.5t-3.5 -31.5q11 20 25.5 39t37.5 29q7 3 18 5.5t23 3t24 -3.5t21 -15q16 -20 17.5 -36t0.5 -32q-2 -29 -9 -54.5t-18 -48.5q-1 -3 -5 -9.5t-6 -6.5q-2 1 -2.5 8.5t1.5 10.5q1 11 3 32.5t2.5 45t-2.5 43t-13 27.5q-9 7 -27 4
t-32 -14t-23.5 -21t-15.5 -20.5t-10.5 -23t-7.5 -29.5q12 23 28 43t39 34q16 11 25 9t12.5 -11t3 -23t-1.5 -26q-2 -16 -5 -33t-7 -32zM565 -2h-5q-2 0 -5 1q-14 3 -30 12.5t-27 35.5q-4 10 -6 26t-2 31t2 26t6 10q1 0 2.5 -4.5t2.5 -10.5l2 -12t1 -9q2 -14 5 -27.5t8 -24.5
q5 -15 18.5 -31.5t24.5 -18.5q5 -2 3 -4zM296 0q2 -7 0 -7q-5 0 -8 5q-5 6 -10 17.5t-4 39.5q0 11 2 26.5t4.5 29t5.5 22.5t7 8q1 0 1.5 -4.5t1 -10.5t0.5 -11.5v-7.5q0 -16 -1 -28.5t-1 -26.5v-32t2 -20zM148 332q-11 -38 -29.5 -75t-30.5 -71q-1 -2 -3.5 -7.5t-6.5 -4.5
q-2 1 -2.5 6.5t-0.5 8.5q0 16 5.5 42.5t11.5 43.5q2 6 7.5 30.5t10 53.5t6 56t-5.5 39q-4 7 0 7q3 0 8 -5q12 -11 19.5 -27t11 -33.5t3 -34.5t-3.5 -29zM82 -1q-31 21 -47.5 46t-22.5 52t-4.5 55t7.5 55q8 36 20.5 71.5t24 69t18 65.5t1.5 61q0 4 1 4q2 0 5 -5
q18 -32 17 -66t-11 -69.5t-24.5 -72t-22.5 -73.5q-5 -23 -6.5 -48.5t3.5 -50.5t16.5 -49t31.5 -43q4 -2 2 -4t-4.5 -0.5t-4.5 2.5zM120 -5q-3 -2 -8 3q-11 8 -21.5 17t-20.5 29q-4 7 -6 18t-2 21.5t1.5 17.5t4.5 7q4 -1 6.5 -11t4.5 -13q4 -11 7 -20.5t7 -18.5q6 -14 12 -24
t14 -20q1 -1 2 -3t-1 -3z" />
    <glyph glyph-name="n" unicode="n" horiz-adv-x="412" 
d="M352 359q2 -31 -4 -59.5t-15 -52.5q-2 -5 -6.5 -11t-8.5 -4q-2 0 -1 7t1 10q1 11 1.5 27.5t0.5 33.5t-1.5 32.5t-4.5 26.5q-9 32 -28.5 35.5t-39.5 -10.5t-38 -39t-24 -49q6 9 15.5 21.5t21.5 24t25.5 19t25.5 6.5q13 -1 18.5 -14t6.5 -32t-2 -41t-7 -41q-7 -31 -12 -64
t-3.5 -64.5t11 -61t32.5 -54.5q2 -3 3 -5t-5 1q-26 15 -41.5 35t-23.5 43t-9.5 48t0.5 50q4 36 12 63t12 61q2 21 -3 27.5t-12 7.5q-10 1 -22.5 -10.5t-26 -32.5t-26 -49t-21.5 -59q-8 -31 -19.5 -64.5t-21.5 -57.5q-4 -9 -6 -9t-3.5 4t-1.5 6q-4 50 9 99t30 99q10 31 18 55
t8 61q0 16 8 33.5t23.5 32t38.5 23.5t52 8q48 -1 74 -22.5t36.5 -54.5t9 -71.5t-8.5 -74.5q-6 -27 -14 -49t-17 -41t-17 -36t-13 -34q-1 -3 -2 -6.5t-3 -3.5t-3 4t-1 9q-2 34 7 65.5t19 65t15 70.5t-4 82q-9 48 -44 64t-80 -2q-6 -3 -16 -9t-19.5 -16t-17.5 -23.5t-10 -29.5
q12 18 28 34t34 25.5t36.5 11.5t36.5 -7q21 -11 29 -30.5t9 -36.5zM148 332q-11 -38 -29.5 -75t-30.5 -71q-1 -2 -3.5 -7.5t-6.5 -4.5q-2 1 -2.5 6.5t-0.5 8.5q0 16 5.5 42.5t11.5 43.5q2 6 7.5 30.5t10 53.5t6 56t-5.5 39q-4 7 0 7q3 0 8 -5q12 -11 19.5 -27t11 -33.5
t3 -34.5t-3.5 -29zM352 1q-2 -1 -8 1q-3 1 -5 2q-14 9 -24 20.5t-20 39.5q-3 10 -4.5 25.5t-0.5 30.5t3.5 25.5t7.5 10.5q2 0 4.5 -11.5t5 -26.5t5.5 -30t5 -22l10 -30t16 -26q2 -2 4 -5.5t1 -3.5zM82 -1q-31 21 -47.5 46t-22.5 52t-4.5 55t7.5 55q8 36 20.5 71.5t24 69
t18 65.5t1.5 61q0 4 1 4q2 0 5 -5q18 -32 17 -66t-11 -69.5t-24.5 -72t-22.5 -73.5q-5 -23 -6.5 -48.5t3.5 -50.5t16.5 -49t31.5 -43q4 -2 2 -4t-4.5 -0.5t-4.5 2.5zM120 -5q-3 -2 -8 3q-11 8 -21.5 17t-20.5 29q-4 7 -6 18t-2 21.5t1.5 17.5t4.5 7q4 -1 6.5 -11t4.5 -13
q4 -11 7 -20.5t7 -18.5q6 -14 12 -24t14 -20q1 -1 2 -3t-1 -3z" />
    <glyph glyph-name="o" unicode="o" horiz-adv-x="367" 
d="M336 277q3 27 1 57t-12.5 55.5t-32 42.5t-56.5 17q-47 0 -82 -25.5t-60 -63t-39 -80t-18 -77.5q-6 -48 -1.5 -83t16.5 -57.5t30.5 -33.5t40.5 -11q31 -1 65.5 17.5t64.5 52t52.5 82t30.5 107.5zM14 208q4 40 20 88t44.5 89t68.5 68.5t93 27.5q40 0 66 -19t40 -48.5
t18 -64t0 -65.5q-9 -72 -35 -125t-61 -88.5t-74 -53t-75 -17.5q-27 0 -48.5 12t-36 37.5t-20 65t-0.5 93.5zM126 67q-5 0 -10 3.5t-8 8.5t-4 10t4 7q3 1 8 -7t11 -8q10 0 23.5 13t26 30.5t22 34.5t13.5 25t8 20.5t7.5 25.5t6 25.5t3.5 21.5q5 45 -2 69.5t-23 24.5
q-12 0 -25 -7.5t-24.5 -19.5t-20.5 -26.5t-13 -29.5q-5 -17 -7 -17q-3 0 -3 17q3 19 13 37.5t25 33t33 24t37 9.5t28.5 -13.5t13.5 -33t3.5 -40t-2.5 -32.5q-4 -27 -12.5 -52.5t-20.5 -51.5q-6 -12 -18 -29.5t-27.5 -33.5t-33 -27.5t-32.5 -11.5zM158 48q1 -6 -9.5 -10
t-21.5 -4q-31 1 -47.5 20t-23 45t-6 54t2.5 47q4 33 16 74t34 77t54 60.5t76 24.5q29 0 46.5 -15t26 -37t10 -47.5t-1.5 -46.5q-2 -23 -7 -42t-14 -42q-3 -7 -8 -16t-11 -8q-3 1 -1.5 8t4 17.5t5.5 22t4 21.5q2 17 2.5 42.5t-4 49.5t-16.5 41t-36 17q-35 0 -64.5 -22.5
t-51.5 -55t-35.5 -68t-16.5 -62.5q-2 -16 -1 -40t7.5 -47.5t21.5 -40.5t41 -18q8 -1 15.5 1.5t9.5 -0.5z" />
    <glyph glyph-name="p" unicode="p" horiz-adv-x="427" 
d="M428 303q-1 -43 -15 -87.5t-39 -83.5t-59.5 -69.5t-76.5 -46.5q-13 -5 -15 -2q0 3 3.5 5t8.5 7q39 30 69 63t51 71.5t31.5 83.5t10.5 98q0 47 -28.5 75.5t-69.5 30.5q-32 2 -65.5 -15.5t-61.5 -54.5q-1 19 10 37t29.5 31.5t42.5 21.5t49 8q24 0 47 -9.5t41 -30.5
t28 -53.5t9 -79.5zM143 247q-14 -63 -29.5 -127.5t-35.5 -119.5q-2 -2 -4.5 -7t-4.5 -3q-1 0 -3 5q-1 2 -1 5q1 13 4 33t6.5 41t7.5 41.5t7 35.5q1 6 5 27.5t8.5 50.5t9 62.5t7.5 65.5t3.5 58t-3.5 40q-1 4 -1 7.5t1 3.5q2 0 4 -3t3 -5q11 -18 16.5 -45t7 -57t-1 -59
t-6.5 -50zM179 184q-6 -38 -11.5 -68.5t-11.5 -62.5q23 24 40.5 43.5t31 39.5t25 42t22.5 51q9 25 13 54t2 47q0 6 -3.5 9t-12.5 -1q-9 -5 -23 -17.5t-28.5 -32t-26.5 -46t-17 -58.5zM186 277q4 13 17 33t30 37t36 26.5t36 0.5q12 -6 16 -24.5t2 -41.5t-8.5 -48.5
t-14.5 -44.5q-23 -57 -57.5 -102t-92.5 -84q-1 -5 2.5 -6.5t9 -0.5t12 4t11.5 8q11 9 24.5 21t26.5 23t22 17.5t11 5.5q1 -1 -2 -6.5t-8 -12.5t-10 -13.5t-7 -8.5q-13 -14 -23.5 -24.5t-25.5 -20.5q-12 -9 -23.5 -12.5t-25.5 1.5q-11 -50 -26.5 -104t-26.5 -96
q-3 -16 -6 -14q-2 2 -2.5 7t-0.5 11q0 42 5 81t13 78.5t17.5 80t19.5 84.5q11 48 20.5 93.5t16.5 101.5q3 24 15 44t29 33.5t37.5 20.5t40.5 7q33 -1 57.5 -24.5t24.5 -75.5q0 -38 -11.5 -71t-25.5 -60q-2 -3 -8.5 -11t-8.5 -6q-1 1 1.5 9t4.5 13q6 16 11 43t5.5 55t-7 52
t-27.5 34q-24 12 -46.5 3.5t-40 -27.5t-28.5 -43.5t-11 -45.5zM98 485q15 -53 11.5 -111.5t-16.5 -120t-30 -124.5t-29 -126q-6 -34 -9.5 -73.5t-1.5 -80.5t10.5 -80.5t26.5 -73.5q4 -8 1.5 -8t-7.5 6q-24 34 -36.5 75.5t-17 85t-2.5 87.5t8 84q10 63 25.5 124t29.5 119
t23.5 112.5t6.5 104.5q0 7 2 7q1 1 3 -2t2 -5zM94 -313q-3 -1 -7 3l-4 4q-11 13 -20 27t-15 47q-2 13 -3 32t-1 37t2 31t6 12q4 0 7 -14t4 -28q2 -19 2.5 -34.5t3.5 -31.5q4 -20 10 -39t14 -36q1 -2 1.5 -6t-0.5 -4z" />
    <glyph glyph-name="q" unicode="q" horiz-adv-x="448" 
d="M399 452q9 -19 11.5 -46.5t0 -56.5t-8 -57.5t-13.5 -50.5q-22 -59 -48.5 -122.5t-54.5 -118.5q-1 -1 -3.5 -5t-4.5 -4q-2 1 -3.5 5.5t-0.5 6.5q3 14 7.5 34t10.5 40.5t12 40.5t12 34q2 6 9.5 27t16.5 49.5t18.5 61t17 64t12 57t2.5 40.5q0 9 1 9q2 0 3 -3t3 -5zM308 463
q0 -1 -1 -3t-8 -4q-13 -5 -33.5 -16t-42 -28t-42.5 -39t-36 -48q-5 -8 -13 -30t-16 -50t-13.5 -58t-3.5 -54.5t12.5 -39.5t33.5 -14q5 0 14.5 5t11.5 4q2 -2 -6.5 -10.5t-11.5 -10.5q-8 -6 -19.5 -8t-22.5 0.5t-20.5 9t-13.5 17.5q-7 20 -8.5 38t-1.5 35q1 34 10 68t24 72
q11 27 33 56t49.5 53.5t58 40.5t57.5 17q2 0 5.5 -1t3.5 -2zM351 451q-63 -24 -109 -73t-68 -107q-10 -25 -15 -49t-8 -48q-2 -5 0.5 -7.5t5.5 2.5q40 63 94 130.5t105 137.5q6 9 6 14q0 3 -11 0zM436 348q7 -31 -1.5 -77.5t-23.5 -96t-32 -95.5t-27 -75q-7 -18 -19 -52
t-23 -66q24 11 43.5 21.5t23.5 30.5l1 1h3l1 -5q5 -26 -5 -41.5t-28 -25t-39.5 -16.5t-38.5 -17q-17 -11 -29.5 -35t-16.5 -49q-3 -18 0 -30t1 -14q-3 -1 -8 13q-6 17 -10.5 41t-9.5 47q-14 66 -4.5 127.5t28.5 110.5q-12 -10 -22 -18t-20 -13.5t-22 -9t-29 -3.5
q-29 0 -48 12t-31.5 32t-18 45.5t-7 51t1.5 49t7 39.5q10 34 25 65t33 56.5t36.5 44.5t35.5 29l5 2.5t5 -0.5q1 -1 -2.5 -3.5t-4.5 -4.5q-49 -57 -80 -124t-35 -139q-1 -18 1 -39.5t9.5 -40t21.5 -31t37 -12.5q22 0 40 7.5t33 20.5t27.5 29t23.5 32q3 5 6.5 12t9.5 21.5
t15.5 38t24.5 61.5q-8 -14 -16.5 -25t-17.5 -24q-2 -2 -6.5 -7.5t-6.5 -3.5t2 12.5t10.5 23t12.5 24t8 15.5q14 25 36 62.5t35 89.5q-20 -39 -43 -80t-48.5 -80t-53 -75t-56.5 -65q-19 -19 -27 -16.5t-10 24.5q-3 34 3 72t20 71q13 31 34 62t48 57t59.5 44.5t67.5 26.5
q3 1 10 2t10 -1q5 -3 4.5 -10.5t-0.5 -15.5q0 -50 -14 -102t-33.5 -105.5t-42 -109t-40.5 -110.5q-11 -35 -19.5 -85.5t-3.5 -101.5q11 22 28 34t32 17q4 34 12 65t18.5 61t22.5 61t25 65q19 51 40 103.5t27 114.5q0 8 4 8q5 0 5 -5zM401 -94q11 -28 2 -50.5t-26 -33.5
q-38 -24 -81 -25q-8 0 -11.5 -0.5t-5.5 3.5q-1 2 3.5 6.5t9.5 7.5q6 4 13.5 8t21.5 12q11 6 23.5 14.5t23 18.5t17 21t5.5 21q0 6 1 4t2 -3.5t2 -3.5zM421 -165q3 -19 -6 -33.5t-23 -25t-29 -17.5t-25 -11q-12 -5 -23 -8.5t-22 -8.5q-13 -5 -10 -11.5t7 -14.5q2 -2 2 -5
t-2 -3q-7 0 -11 3.5t-8 8.5q-14 14 -9.5 25t13.5 19q14 11 34 20.5t43 19.5q17 7 34 18t30 31q2 3 3 -0.5t2 -6.5zM257 -222q2 -3 0 -8.5t-4 -10.5q-2 -6 -4 -10.5t-2.5 -10t1 -14t4.5 -22.5q4 -13 0 -13q-3 0 -7 4q-3 3 -9 17t-2 36q1 6 4 12.5t6.5 12t7 8t5.5 -0.5z" />
    <glyph glyph-name="r" unicode="r" horiz-adv-x="290" 
d="M145 333q-8 -34 -22.5 -71.5t-32.5 -69.5q0 -2 -2.5 -6.5t-6.5 -4.5q-2 0 -2.5 6t0.5 8q0 16 4 42.5t10 43.5q2 6 6.5 29t8 51.5t4 55t-6.5 39.5v4q4 3 9 -2q13 -11 20.5 -27t11 -33.5t3 -34.5t-3.5 -30zM184 337q11 14 21 20t20 10q1 0 5 1t6 -2t-1 -7t-5 -6
l-15.5 -15.5t-15.5 -16.5q-10 -11 -16 -25.5t-9 -29.5q17 18 32.5 34t33.5 30q23 17 40 44t24 79q2 5 5 6t3 -7q3 -58 -12 -92t-45 -57q-16 -12 -32 -26t-30.5 -31t-26.5 -40t-21 -53q-7 -23 -14 -43.5t-15 -39.5q-2 -7 -6 -7q-3 1 -3 10q-5 48 6.5 95.5t27.5 98.5
q7 25 16.5 50t8.5 57q0 11 9 23t22 22.5t27 18t24 10.5q9 3 9 -1t-6 -10q-21 -19 -42.5 -45t-24.5 -55zM97 1q-1 -1 -1.5 -0.5t-5.5 3.5q-30 22 -47 48t-24.5 53.5t-6.5 55t7 53.5q8 35 19.5 69.5t21.5 67t15 64t0 60.5q0 2 3 3q1 0 2 -1.5t2 -2.5q19 -32 19 -65.5t-9 -68
t-22.5 -70t-21.5 -71.5q-10 -46 -1.5 -98t46.5 -93q2 -3 4 -4t0 -3zM127 0q-2 0 -4 1l-4 2q-14 9 -25 19.5t-19 30.5q-3 7 -5 18.5t-2.5 21.5t1 17t5.5 6q3 0 6.5 -8t5.5 -16q2 -11 4.5 -21t6.5 -18q11 -25 29 -48q2 -5 1 -5zM290 449q0 -21 -12 -37t-29 -27q-3 -2 -4 0.5
t-1 3.5q0 6 5 14.5t11.5 18t12.5 19.5t8 18q3 5 6 0t3 -10z" />
    <glyph glyph-name="s" unicode="s" horiz-adv-x="271" 
d="M123 369q1 9 6 21.5t13.5 24t20.5 21t27 12.5q32 6 53 -4t32 -23q4 -6 3 -7q-2 -2 -7 1q-6 4 -19.5 7t-29 1.5t-30 -9.5t-23.5 -26q-8 -17 -11 -35t-3.5 -33.5t0.5 -26.5t1 -15q2 -11 3.5 -27.5t1.5 -33.5t-1 -33.5t-4 -28.5q-1 -3 -2.5 -10t-3.5 -7q-5 0 -5 7v10
q-2 25 -7 50.5t-9.5 52.5t-6.5 54.5t1 56.5zM88 171q1 20 -3.5 56.5t-3.5 84.5q1 25 5 51.5t19 52.5q16 28 40.5 41.5t42.5 12.5h6t3 -1q0 -2 -1 -1.5t-7 -1.5q-18 -5 -32 -16.5t-24 -26.5t-16 -31t-7 -29q-6 -55 1 -96q5 -33 8 -68.5t-2.5 -65t-21 -49t-47.5 -21.5
q-3 0 -7.5 0.5t-4.5 2.5t9 7q26 12 34 35t9 63zM-18 53q14 -22 44.5 -32.5t72.5 1.5q21 6 37 21t26.5 33.5t16 38.5t6.5 37q1 28 -1.5 55t-6 52.5t-6 49.5t-0.5 47q2 25 14 38t29.5 16.5t36.5 -2.5t35 -19q4 -2 3 -5q0 -2 -2 -1l-4 2q-37 12 -57.5 7t-22.5 -36
q-2 -36 5.5 -84.5t5.5 -107.5q1 -20 -4.5 -46t-18 -50.5t-33 -43.5t-48.5 -24q-53 -8 -84.5 6t-45.5 43q-2 6 -2 7h1zM26 53q19 -5 46 -4q9 1 22 5t14 2q3 -4 -6 -10t-23 -10.5t-29 -6t-25 2.5q-19 8 -27.5 17.5t-15.5 23.5l-2 4q-2 4 -1 5t3 0q1 -1 1 -2q12 -11 20.5 -16.5
t22.5 -10.5z" />
    <glyph glyph-name="t" unicode="t" horiz-adv-x="251" 
d="M299 444q1 -1 1 -4.5t-1 -5.5q-9 -29 -31 -41t-39 -12q-21 0 -43 3.5t-42 18.5q-2 2 -5 4t-3 4q0 3 3 4.5l5 2.5q9 2 23.5 3.5t28.5 -0.5q10 -2 24 -2t28.5 2t26.5 6.5t18 13.5q3 4 6 3zM306 475l-3 -5q-17 -22 -36 -28.5t-40 -5.5t-42.5 5.5t-42.5 5.5q-28 1 -56 -17
t-48 -63q-3 -6 -4 -2.5t0 6.5q8 30 19 50t23.5 32.5t26.5 18.5t29 8q17 57 26.5 111.5t1.5 103.5v4q2 1 4 -1t2 -3q22 -48 18 -102.5t-20 -114.5q5 -1 8 -1h7q5 26 9.5 55.5t7 56.5t1.5 49t-7 33q-3 9 0 9q2 0 3 -2t3 -4q14 -14 22 -38t11 -51t2 -53.5t-6 -46.5l-4 -16
q3 -2 6 -2t6 -1q6 30 10.5 60t3.5 63q0 7 1 7q2 0 3 -3t2 -5q12 -22 11.5 -55t-5.5 -70q22 0 42 12q5 3 5 0zM99 407q0 -5 -5.5 -10t-8.5 -7q-5 -4 -11.5 -9.5t-11.5 -11.5q-5 -8 -9.5 -14t-7.5 -17q-1 -2 -2.5 -3.5t-2.5 -0.5q-3 3 0 13q4 15 8 24.5t15 20.5q4 4 10 8t12 7
t10 3t4 -3zM177 5q5 2 4 -1t-3 -4q-18 -6 -38 2t-37 25t-29 39.5t-15 44.5q-5 47 -1 91t15 87l17 63q-6 0 -12 3q-7 2 -7 5q0 2 7 6q28 14 56.5 12t57.5 -7q18 -3 36.5 -4.5t40.5 7.5q2 2 4 1q2 -2 -1 -7q-6 -13 -17 -19t-23 -9q-8 -26 -14 -46.5t-10 -34.5
q-11 -48 -25.5 -97.5t-19.5 -83.5q-2 -11 -4 -12t-4 4t-3 8q-4 29 -1.5 60.5t9.5 64.5t16 66.5t19 67.5h-10t-10 1q-8 -21 -16.5 -41.5t-16.5 -38.5q-1 -2 -4.5 -9.5t-5.5 -7.5q-4 1 -3 9.5t1 11.5q2 15 6.5 35t8.5 43q-5 1 -11 1.5t-12 2.5q-6 -20 -11.5 -39t-10.5 -38
q-8 -35 -12 -74.5t0 -81.5q2 -19 10.5 -39t20.5 -36t27.5 -25t30.5 -6zM186 27q5 4 6 0.5t-4 -6.5q-4 -3 -10.5 -4.5t-14.5 -0.5t-17 6t-17 16q-7 9 -11.5 26t-6.5 33.5t-1 28.5t5 12q5 0 7.5 -14t4.5 -23q4 -16 11 -33t15 -27q10 -13 18 -15.5t15 1.5z" />
    <glyph glyph-name="u" unicode="u" horiz-adv-x="401" 
d="M351 316q-12 -37 -28.5 -71t-34.5 -68q-2 -2 -6 -9.5t-7 -5.5q-2 0 -1.5 6t0.5 9q1 8 4.5 23t8 31.5t9 32t7.5 24.5q17 54 22 96t-6 71q-2 5 0 5t4 -2l3 -3q11 -12 18 -30.5t10 -38t2 -38.5t-5 -32zM378 388q13 -20 12 -50t-7.5 -62t-16 -61t-14.5 -46q-10 -33 -24 -67.5
t-25 -59.5q-4 -9 -6 -8q-3 1 -3.5 4.5t-0.5 5.5q0 54 15.5 104t33.5 101q11 33 20 65.5t9 71.5q0 7 2 7q1 0 2 -1.5t3 -3.5zM178 74q2 -3 -7 -9t-12 -7q-44 -16 -68.5 -1t-35 45t-10.5 66.5t4 65.5q3 25 11.5 55.5t20.5 60t27.5 55t33.5 39.5q2 1 4.5 3t4.5 2q3 -1 -3 -11
t-14.5 -28t-17.5 -41.5t-17.5 -49.5t-13.5 -52t-7 -50t-2 -43t1 -32t2 -17q7 -31 26.5 -45.5t52.5 -8.5q1 0 10 2t10 1zM307 -3q4 -4 4 -6t-4.5 -1t-6.5 2q-8 4 -20 11.5t-18 26.5q-3 8 -4 19.5t-1 21.5t2 16.5t5 5.5q2 -1 4.5 -9t4.5 -17q2 -11 5 -20.5t7 -19.5
q5 -11 10 -17.5t12 -12.5zM215 52q-11 -17 -33.5 -34.5t-60.5 -17.5q-30 0 -51.5 16t-35 40t-19 52.5t-5.5 54.5q1 32 5.5 64t12 60t17 50t19.5 36q2 1 4.5 4.5t4.5 1.5q1 -1 -0.5 -4.5t-2.5 -5.5q-9 -30 -17.5 -63.5t-13.5 -67.5t-5 -67t6 -61q4 -19 14.5 -35t23 -27
t27 -16t28.5 -3q29 4 44 16.5t21.5 30t8 38t4.5 41.5q-5 -14 -19.5 -27.5t-31 -21t-32 -6.5t-23.5 18q-10 22 -11 48t1 57t9 64t19 63.5t28.5 57.5t37.5 48l4 4q3 3 6 3l-4 -10q-29 -54 -49 -111.5t-24 -116.5q-5 -65 6.5 -85t28.5 -11.5t36.5 37t31.5 61.5q11 30 23.5 62
t23 64.5t16 63.5t2.5 58q0 5 2 5q1 0 1 -1q0 -2 1 -2q1 -1 1 -2q16 -34 14.5 -69t-12 -71t-25 -73.5t-24.5 -75.5q-6 -24 -9 -50.5t-1 -52.5t11 -49.5t26 -39.5q2 -2 2 -3q0 -2 -2.5 -1.5t-4.5 1.5q-19 7 -33 23t-22 38z" />
    <glyph glyph-name="v" unicode="v" horiz-adv-x="336" 
d="M303 315q-17 -35 -40 -70.5t-48 -63.5q-1 -2 -5 -6.5t-7 -3.5q-2 2 -1 7t2 8q5 16 15 42t21 42q3 5 12.5 28t18.5 51.5t14 55.5t-1 40v3v1q4 0 6 -4q11 -13 16.5 -30t6.5 -35t-1.5 -35.5t-8.5 -29.5zM336 377q11 -21 6.5 -50.5t-16 -60.5t-26 -58.5t-23.5 -44.5
q-15 -29 -36.5 -58.5t-39.5 -52.5q-5 -7 -9 -7q-2 2 -1.5 5t1.5 6q16 52 40 96.5t50 92.5q17 30 30.5 61.5t18.5 69.5q0 5 1 5q3 0 4 -4zM123 344q0 -37 -5.5 -80t-11.5 -74q0 -2 -1.5 -7t-5.5 -6q-2 0 -3.5 5t-2.5 7q-2 8 -3.5 19.5t-2.5 23.5t-1.5 24t0.5 21q1 6 -1 30
t-6 52t-11 53.5t-17 35.5q-2 2 -2.5 4.5t0.5 2.5q2 0 4.5 -1t4.5 -2q14 -6 26 -19t20.5 -28.5t13.5 -31.5t5 -29zM179 0q0 -4 -2 -4q-1 0 -3.5 1.5t-4.5 2.5q-8 6 -11.5 17t-1.5 33q0 9 2 20t5 20.5t6 15t6 4.5q5 -2 4.5 -12.5t-0.5 -15.5q-1 -26 -1 -47t1 -35zM122 51
q-5 6 -9 16t-7 19.5t-3.5 16.5t2.5 8q5 1 9.5 -5.5t7.5 -12.5q-1 21 2.5 42.5t5.5 39.5q3 26 5 46.5t3 49.5q2 31 0 68t-16 72q-1 3 1 3t3 -1t3 -2q13 -10 21.5 -27.5t13 -39t6 -45t1.5 -44.5q15 27 31 53.5t28 53t19 52t6 50.5q0 4 1 5q1 0 4 -5q14 -33 9 -66.5t-20.5 -67
t-36.5 -67t-37 -66.5q-20 -42 -28.5 -92t5.5 -105v-1l-1 -1q-2 0 -3 1q-1 0 -1 1q-3 4 -7 8t-11 8q-29 15 -48 35t-29.5 43t-15 48t-4.5 50q-1 36 1.5 72.5t3 70.5t-3.5 65.5t-17 57.5v2q2 2 4 1t3 -2q26 -24 35 -56t10 -68t-3 -74t-3 -75q1 -22 5 -45t13 -44.5t23.5 -41.5
t34.5 -36q-4 10 -6 14.5t-10 17.5z" />
    <glyph glyph-name="w" unicode="w" horiz-adv-x="570" 
d="M536 315q-17 -35 -40 -70.5t-48 -63.5q-1 -2 -5 -6.5t-7 -3.5q-2 2 -1 7t2 8q5 16 15 42t21 42q3 5 12.5 28t18.5 51.5t13.5 55.5t-1.5 40v3v1q5 0 7 -4q11 -13 16.5 -30t6.5 -35t-1.5 -35.5t-8.5 -29.5zM569 375q11 -20 6.5 -49.5t-16 -60t-26 -58t-23.5 -44.5
q-15 -29 -36.5 -58.5t-39.5 -52.5q-5 -7 -9 -7q-2 2 -1.5 5t1.5 6q16 52 40 96.5t50 92.5q17 30 31 62t18 70q0 4 2 4q1 -2 2 -3t1 -3zM303 315q-17 -35 -40 -70.5t-48 -63.5q-1 -2 -5 -6.5t-7 -3.5q-2 2 -1 7t2 8q5 16 15 42t21 42q3 5 12.5 28t18.5 51.5t14 55.5t-1 40
q-1 1 -1 3q0 1 1 1q4 0 6 -4q11 -13 16.5 -30t6.5 -35t-1.5 -35.5t-8.5 -29.5zM334 400q6 0 12.5 -14.5t9.5 -44.5q5 -37 -1.5 -76.5t-16.5 -74.5q0 -2 -1 -7t-5 -6q-2 0 -4 5t-2 7q-3 11 -5 26.5t-2 31.5q-6 -14 -12 -27t-12 -24v-10q1 -44 18 -89.5t58 -77.5
q-4 10 -5.5 14.5t-10.5 17.5q-5 6 -9 16.5t-7 20t-3.5 16.5t2.5 7q5 2 9.5 -5t7.5 -13q-2 21 2 42.5t6 39.5q3 26 5 46.5t3 49.5q2 31 0 68t-16 72q-2 3 1 3q2 0 3 -1t3 -2q13 -10 21.5 -27.5t13 -39t6 -45t1.5 -44.5q15 27 31 54t28.5 53.5t19.5 52.5t6 51q0 3 1 3
q3 1 3 -3q15 -33 9.5 -67t-21 -68t-36.5 -67.5t-37 -66.5q-20 -42 -28.5 -92t5.5 -105v-1l-1 -1q-2 0 -3 1q-1 0 -2 1q-3 4 -6.5 8t-10.5 8q-46 24 -66.5 58.5t-26.5 72.5q-16 -25 -34.5 -50t-33.5 -45q-5 -7 -9 -7q-2 2 -1.5 5t1.5 6q16 52 41 98.5t52 93.5q8 14 15.5 27.5
t14 27.5t11 31t7.5 39q1 7 -0.5 17t1.5 10zM123 344q0 -37 -4 -78t-14 -76q0 -2 -1 -7t-5 -6q-2 0 -4 5t-2 7q-2 8 -3.5 19.5t-2.5 23.5t-1.5 24t0.5 21q1 6 -1 30t-6 52t-11 54t-17 35q-2 2 -2.5 4.5t0.5 2.5q2 0 4.5 -1.5t4.5 -1.5q14 -7 26 -20t20.5 -28t13.5 -31t5 -29z
M260 464q15 -33 9.5 -66.5t-21 -67t-36.5 -67t-37 -66.5q-20 -42 -28.5 -92t5.5 -105v-1l-1 -1q-2 0 -3 1q-1 0 -1 1q-3 4 -7 8t-11 8q-29 15 -48 35t-29.5 43t-15 48t-4.5 50q-1 36 1.5 72.5t3 70.5t-3.5 65.5t-17 57.5v2q2 2 4 0.5t3 -1.5q26 -24 35 -56t10 -68t-3 -74
t-3 -75q1 -22 5 -45t13 -44.5t23.5 -41.5t34.5 -36q-4 10 -6 14.5t-10 17.5q-5 6 -9 16.5t-7 20t-3.5 16.5t2.5 7q5 2 9.5 -5t7.5 -13q-1 21 2.5 42.5t5.5 39.5q3 26 5 46.5t3 49.5q2 31 0.5 68t-16.5 72q0 3 1 3q2 0 3 -1t3 -2q13 -10 21.5 -27.5t13 -39t6 -45t1.5 -44.5
q15 27 31 54t28.5 53.5t19.5 52.5t6 51q0 3 2 3q1 1 1.5 -1t0.5 -4zM179 0q0 -4 -2 -4q-1 0 -3.5 1.5t-4.5 2.5q-8 6 -11.5 17t-1.5 33q0 9 2 20t5 20.5t6 15t6 4.5q5 -2 4.5 -12.5t-0.5 -15.5q-1 -26 -1 -47t1 -35zM412 0q0 -4 -2 -4q-1 0 -3.5 1.5t-4.5 2.5q-8 6 -11.5 17
t-1.5 33q0 9 2 20t5 20.5t6 15t6 4.5q5 -2 4.5 -12.5t-0.5 -15.5q-1 -26 -1 -47t1 -35z" />
    <glyph glyph-name="x" unicode="x" horiz-adv-x="316" 
d="M316 421q1 -36 -17.5 -63t-40.5 -49q-31 -32 -67 -65.5t-71 -62.5q-2 0 -8 -3.5t-8 -1.5t1.5 7t4.5 7q6 9 15 20.5t19.5 23.5t20.5 23t18 19q19 19 39 38.5t37.5 39t31 37.5t19.5 33q4 6 5 6q1 -1 1 -4v-5zM307 460q-13 -42 -38 -73t-55.5 -59.5t-64 -56.5t-63.5 -64
q-18 -22 -33 -49t-24 -54.5t-10.5 -54.5t7.5 -49q3 -5 1 -6t-4.5 1.5l-4.5 4.5q-13 26 -14.5 56t6 61t23 60.5t36.5 54.5q5 7 10 12.5t10 11.5q-11 54 -25.5 100t-43.5 78q-2 4 -1 4q2 2 7 -2q21 -10 35.5 -25.5t25 -35.5t17.5 -43.5t12 -47.5q3 4 7.5 9t9.5 9
q-16 55 -37 89t-41 44q-2 1 -4 3t0 4q1 1 4.5 0.5t5.5 -0.5q17 -2 33 -12t29 -23.5t22 -30t13 -31.5q2 -3 2.5 -7t2.5 -7l9 10q-6 20 -13.5 38.5t-21.5 37.5l-5 5q2 2 4.5 1t4.5 -2q16 -8 29.5 -25.5t23.5 -39.5q31 30 56.5 53t51.5 55q1 1 1.5 1t1.5 1q1 0 1 1q1 0 1 -2.5
v-4.5zM310 9q-3 -2 -9 -2q-3 0 -6 1q-15 2 -26.5 5t-27.5 17q-6 5 -13.5 15t-13.5 20t-8.5 18t0.5 10q2 1 5.5 -1.5t7 -6.5t6 -7t3.5 -4q8 -9 16 -16t16 -15t19.5 -15.5t24.5 -13.5q1 0 4 -1.5t2 -3.5zM275 -5q-28 0 -50 8.5t-39.5 23.5t-31 35t-22.5 42q-16 -17 -31 -31.5
t-28 -28.5q-2 -3 -5.5 -5t-4.5 -1q-2 2 -0.5 6t3.5 7q23 52 59 95t80 88q26 27 54.5 52t47.5 53q3 5 7 5q1 0 1 -6q0 -29 -24 -55.5t-54 -59.5l3 -14q8 -36 14.5 -73t11.5 -66v-6.5t-1 -3.5q-2 -1 -8 8q-19 26 -30.5 56.5t-18.5 63.5q-9 -9 -16.5 -17t-14.5 -16t-11.5 -13.5
t-12.5 -12.5q17 -43 48 -79.5t76 -50.5q11 -4 -2 -4zM42 -3q-5 4 -10.5 14t-2.5 33q1 9 5 21t9 22t10 16t8 5q4 -1 1 -13.5t-4 -16.5q-4 -13 -6.5 -22.5t-3.5 -21.5q-2 -14 -1 -22.5t3 -13.5q1 -3 0.5 -6t-8.5 5z" />
    <glyph glyph-name="y" unicode="y" horiz-adv-x="390" 
d="M366 347q0 -50 -13.5 -104.5t-35.5 -107.5t-50.5 -100.5t-58.5 -81.5q-11 -12 -13 -11t2 15q6 16 15.5 36t19 39.5t19 37.5t15.5 30q7 15 16 39.5t17.5 54.5t16.5 63t14 63.5t9.5 56t2.5 41.5q-1 18 0.5 23.5t3.5 4t4.5 -6.5l4.5 -9q7 -20 9 -45t2 -38zM169 71
q-7 -8 -19 -15t-23 -7q-24 0 -39.5 14t-24.5 34.5t-12.5 43.5t-3.5 41q0 27 5.5 62.5t17 71t28 67t39.5 50.5q6 4 11 7.5t-3 -10.5q-6 -11 -11.5 -19t-8.5 -18q-16 -29 -25.5 -61t-15.5 -65q-9 -44 -9 -88q0 -16 1.5 -35t7.5 -36t18.5 -28.5t34.5 -11.5q6 0 14 3t13 6
q8 3 8 1t-3 -7zM392 330q4 -15 4 -35q0 -41 -12 -90.5t-31.5 -102.5t-46 -107t-55 -104t-58.5 -93.5t-57 -75.5q-1 -1 -3.5 -4t-5 -5.5t-4.5 -3.5t-2 3q0 2 12.5 26.5t31.5 61t41.5 79t43.5 81.5t36.5 69t20.5 41q29 64 49.5 128.5t28.5 133.5q1 8 1.5 8.5t5.5 -10.5z
M327 404q0 -56 -15.5 -113.5t-38.5 -113.5t-50.5 -108.5t-52.5 -97.5q-45 -84 -76 -170.5t-43 -180.5q-2 -11 -3 -9q-1 0 -2.5 5.5t-2.5 12t-1.5 13.5t-0.5 12q0 45 10 91t26 90t35.5 86t39.5 79h-27q-30 0 -52 14t-36 37t-21.5 54t-7.5 65q0 13 3 36.5t9 49t15 50t20 39.5
q8 11 9 9t-2 -13q-13 -38 -20.5 -79t-7.5 -81q0 -23 3 -50t12.5 -49.5t27.5 -37.5t49 -15q22 0 40 15t32.5 37t26 48t20.5 48q-10 -14 -23.5 -27.5t-28.5 -24.5t-30 -18t-29 -7t-22 9t-12.5 22.5t-5.5 27.5t-1 25q0 36 4.5 72.5t14.5 72t26.5 68t40.5 59.5q2 3 5 5.5
t5.5 3.5t2.5 -0.5t-4 -8.5q-29 -54 -47.5 -120t-18.5 -128q0 -6 0.5 -19.5t3 -27.5t8 -24.5t14.5 -10.5q3 0 8 3q42 21 71 58t48 82.5t27.5 94t9.5 92.5q0 16 2 17t7 -17q6 -29 6 -52zM136 -188q0 -7 -4.5 -23t-10.5 -34t-12 -35t-9 -26q-8 -22 -12 -43.5t-9 -44.5
q0 -2 -1 -6t-4 -4q-2 0 -3 5t-1 7q-2 8 -2.5 22t0.5 22q3 25 11 53.5t17.5 53t19.5 40.5t17 16q3 0 3 -3z" />
    <glyph glyph-name="z" unicode="z" horiz-adv-x="360" 
d="M377 447q-5 -12 -9.5 -20t-16.5 -19q-5 -5 -13.5 -8.5t-16 -5.5t-13 -2t-5.5 4q0 2 8.5 7.5t11.5 7.5q12 7 18.5 11.5t11 9t9 9.5t11.5 14q5 5 5.5 1.5t-1.5 -9.5zM334 436q-19 -5 -35 -7.5t-32 -3t-33.5 1.5t-38.5 7q-22 5 -45 8t-53 -8q-1 0 -4 -1t-3 0q0 2 2 5t3 5
q13 15 33 21t41.5 6.5t41 -2.5t31.5 -6q25 -5 49.5 -8.5t42.5 -8.5q2 -1 6.5 -3.5t-6.5 -5.5zM257 392q0 -4 -4.5 -5t-5.5 -1q-6 -1 -17 -1h-22t-22 1t-17 2q-35 5 -65.5 0.5t-47.5 -19.5q-5 -3 -5 0q0 2 1 3q0 1 1 2q7 15 18.5 25.5t24.5 17t26 9t23 1.5q24 -3 49.5 -12.5
t52.5 -15.5q1 0 5.5 -2t4.5 -5zM377 82q1 -2 -1.5 -5.5t-4.5 -5.5q-12 -14 -23 -19.5t-27 -10.5q-8 -2 -16.5 -2.5t-16 0.5t-12.5 2.5t-4 4.5t10 5.5t14 3.5q10 2 18 3t18 4q20 7 38 19q2 2 4.5 2t2.5 -1zM360 44q-26 -21 -48.5 -31t-43 -13t-38.5 -1.5t-33 1.5q-21 1 -44 4
t-46 5t-43.5 0t-35.5 -12q-5 -3 -6 -2q-3 0 0 3q0 1 1 3q13 23 35.5 31.5t48 7.5t52.5 -7t49 -12q28 -8 67.5 -2t84.5 33q6 4 4 -1t-4 -7zM223 53q0 -2 -4.5 -3t-6.5 -1q-12 -1 -36.5 0.5t-39.5 3.5q-17 2 -34 0.5t-32 -6.5t-26 -12t-16 -16q-2 -3 -3.5 -6t-3.5 -2
q-3 2 -4.5 10t-0.5 17q5 54 27 94.5t58 78.5q32 33 64.5 60t61.5 55q-24 1 -47 5.5t-45 8t-43 4t-41 -5.5q-5 -2 -8.5 -0.5t2.5 6.5q24 22 49 27.5t50 3t50 -9t50 -7.5q17 -1 34 0.5t33.5 8t32 19.5t29.5 36q4 6 5 6t1 -4v-3q-1 -8 -10 -24t-22 -35.5t-26.5 -39t-23.5 -33.5
q-12 -16 -30 -34t-39 -35.5t-42 -33.5t-38 -28q-2 -1 -7.5 -4t-7.5 -1q-1 1 2 6t5 7q5 7 14.5 17.5t21 21.5t22 21.5t18.5 17.5q16 15 27 25.5t19.5 19.5t15 18.5t15.5 22.5q-5 -1 -15 -2t-15 -1q-31 -39 -69.5 -70.5t-74.5 -68.5q-15 -17 -32 -35.5t-29 -42.5
q17 13 47 18.5t57 5.5q17 18 32.5 33.5t35.5 31.5q34 26 61 54.5t45 64.5q4 8 5 5t1 -8q1 -22 -12.5 -46.5t-34.5 -48.5t-46 -47.5t-46 -42.5q5 -1 11 -2t11 -2q26 -8 53 -19.5t44 -22.5q7 -4 4 -7q-4 -4 -12 -2q-42 6 -75.5 14.5t-76.5 14.5q-26 4 -49.5 4t-42 -7
t-31 -23.5t-16.5 -45.5q11 26 36 41t45 17q31 2 61 -4.5t53 -22.5l4.5 -4.5t0.5 -5.5z" />
    <glyph glyph-name="braceleft" unicode="{" horiz-adv-x="270" 
d="M353 726q-23 -25 -49 -51.5t-40 -49.5q-11 -12 -22.5 -30t-23.5 -38.5t-24.5 -42t-24.5 -41.5q-2 -2 -5.5 -8.5t-5.5 -4.5q-4 0 -2 7t2 11q2 9 5.5 23.5t7.5 30.5t9 30.5t10 25.5q5 7 18.5 29.5t39.5 51.5q28 31 56 43.5t44 20.5q12 6 11 2t-6 -9zM379 764q2 -1 -2 -3
t-6 -2q-34 -17 -76.5 -39.5t-79.5 -66.5q-29 -35 -50.5 -79.5t-37.5 -87.5q-11 -28 -19 -54t-19.5 -51.5t-28 -50t-44.5 -49.5q-3 -5 -6 -6t2 7q26 37 38.5 64.5t20 52t13.5 50t19 58.5q16 42 36 86t56 87q20 24 43.5 39t47 24.5t46 14.5t41.5 8q2 0 2.5 -0.5t1.5 -0.5
q1 -1 2 -1zM319 653q-8 -13 -17.5 -25.5t-22.5 -43.5q-12 -28 -24 -63t-21 -58q-7 -18 -17.5 -39t-23.5 -41t-28.5 -38t-32.5 -31q22 -3 38 -17t25.5 -33.5t13.5 -42t3 -43.5q-3 -50 -11 -87t-13 -57q-5 -17 -9.5 -32t-7.5 -26q-2 -7 -3 -12t2 -8t5.5 -2t2.5 -2q0 -5 -9 -7
q-8 -2 -13.5 2.5t-9.5 13.5t-4.5 21t2.5 26q6 30 14 60.5t17 64.5q6 25 7.5 55.5t-5.5 56t-23.5 41.5t-45.5 14q22 -11 36.5 -31t18.5 -37q6 -29 3.5 -56t-9.5 -51.5t-16.5 -47t-18.5 -43.5q0 -2 -4 -7.5t-8 -4.5q-2 0 -2 6.5v9.5q1 11 3.5 25.5t5.5 29.5t5.5 29t4.5 25
q0 3 2.5 13.5t3.5 25t-1 30.5t-11 31q-8 11 -22 17t-26 10q29 21 48 49.5t34 61.5t28 69t30.5 71.5t41.5 70t60 63.5q7 6 7 2.5t-3 -8.5zM123 382q1 0 0.5 -5t-2 -10.5t-3.5 -11t-3 -7.5q-11 -20 -21 -33.5t-20.5 -24t-21 -18.5t-23.5 -17q-2 -2 -8.5 -6t-6.5 -2q2 5 9 15
t16 21.5t17 21t11 14.5q7 8 15.5 20t16.5 22t14.5 16.5t9.5 4.5zM233 -55q-5 -17 -14.5 -34.5t-25.5 -29t-39.5 -13t-56.5 13.5q-15 7 -25 19.5t-16.5 27.5t-10 29.5t-3.5 26.5q-1 20 1.5 40t7.5 35q10 48 20.5 85.5t7.5 62.5q-2 17 -15.5 28.5t-36.5 12.5q12 5 25.5 7.5
t25 -0.5t20.5 -13t12 -29t0.5 -39.5t-8.5 -42t-13 -43.5t-11 -45q-3 -12 -5.5 -30.5t0 -38.5t12 -39t30.5 -32q22 -14 40.5 -13t33 9.5t25 22t16.5 25.5q5 6 4.5 2t-1.5 -5zM223 -31q-5 -17 -11.5 -29.5t-23.5 -23.5q-11 -7 -25 -5t-26 7t-18.5 12t-0.5 11q3 2 11 -3t19 -7
q21 -4 36 7q11 6 19.5 16t15.5 22q3 4 4 3t1.5 -3t0 -4.5t-1.5 -2.5z" />
    <glyph glyph-name="bar" unicode="|" horiz-adv-x="229" 
d="M148 441q-4 -75 -12.5 -157t-19.5 -157q0 -2 -0.5 -6t-1 -8.5t-2 -7.5t-2.5 -2q-2 0 -3.5 11.5t-2.5 14.5q-1 17 -2 41t-1 49.5t0.5 50.5t2.5 44q0 8 1 34t1.5 61.5t0.5 76.5t-1 79.5t-3.5 69.5t-6.5 47q-1 5 -1.5 9.5t1.5 4.5q1 0 3 -4t4 -6q13 -19 22 -49.5t14.5 -65
t7.5 -69t1 -61.5zM182 147q-1 -67 -6.5 -128.5t-8.5 -114.5q-1 -8 -2 -15t-3 -6q-2 -1 -2.5 7t-1.5 14q-15 87 -13 188t8 205q4 66 8 135.5t-3 144.5v6t2 2q1 0 3 -8q10 -22 15.5 -55.5t7.5 -73t2 -82.5t-1.5 -83.5t-3 -76t-1.5 -59.5zM158 -233q1 -3 2.5 -6.5t-0.5 -3.5
q-3 -3 -5 4q-35 35 -57 79t-35 94t-17.5 104t-3.5 110q1 78 7 153.5t11.5 147.5t7.5 139t-4 127v8q2 2 4 -3t3 -5q19 -61 22.5 -131.5t-1 -145.5t-11.5 -153.5t-8 -154.5q-1 -98 18.5 -193.5t66.5 -169.5zM152 -140q8 -24 16.5 -44.5t17.5 -40.5q2 -2 3.5 -6.5t-1.5 -4.5
t-7 4l-3 3l-13.5 13.5t-12.5 15t-11.5 20.5t-10.5 30q-4 15 -8.5 37.5t-7 44t-3 36.5t3.5 15q2 1 4.5 -5t5 -14t4 -16t1.5 -11q8 -22 12 -41t10 -36z" />
    <glyph glyph-name="braceright" unicode="}" horiz-adv-x="337" 
d="M204 688q-3 -2 -11 2.5t-19 6.5t-18.5 0t-17.5 -7q-10 -7 -19 -16t-16 -22q-2 -3 -3.5 -2.5t-1.5 2.5v4.5t1 2.5q5 17 11.5 29.5t23.5 23.5q10 7 24.5 5t26.5 -7t18.5 -12t0.5 -10zM295 375q-12 -5 -25.5 -7t-25 1t-20.5 12.5t-12 29.5q-3 19 -0.5 39.5t8.5 41.5
t12.5 43.5t11.5 45.5q3 12 5.5 31.5t0.5 40t-11.5 40t-31.5 32.5t-40.5 12.5t-33 -9t-25 -22t-16.5 -25.5q-2 -4 -2.5 -4t-0.5 1v3v3q5 16 15 34t26 29.5t39 13.5t56 -14q15 -7 25 -20t16.5 -27.5t9.5 -29.5t3 -26q1 -24 -1 -44t-7 -36q-10 -48 -21 -85.5t-8 -62.5
q2 -16 16 -27.5t37 -13.5zM308 378q-2 -5 -9 -15.5t-16 -21.5t-17 -21t-11 -14q-7 -8 -15.5 -20t-16.5 -22.5t-14.5 -17t-9.5 -4.5q-2 2 2 16t6 19q11 20 21 33.5t20.5 23.5t21 18.5t23.5 17.5q2 1 9.5 5.5t5.5 2.5zM7 -31q-5 -6 -5.5 -2.5t1.5 8.5q4 7 8.5 12.5t9 12
t10 16.5t11.5 25q12 28 25 63t21 58q6 17 16.5 38t23.5 41t29 38.5t33 31.5q-23 3 -38.5 16.5t-25 33t-13.5 42.5t-3 44q3 49 11 86t13 57q5 18 9.5 34.5l7.5 27.5q2 8 3 13t-2 8q-2 2 -5 1.5t-3 2.5t9 7q15 4 23 -17t2 -51q-6 -29 -14.5 -60t-16.5 -64q-7 -26 -8 -56
t5.5 -55.5t23.5 -41.5t46 -14q-22 9 -36.5 29.5t-18.5 38.5q-6 29 -3 55.5t10 51.5t16.5 47.5t17.5 42.5q1 2 4.5 8t7.5 5q2 0 2 -7v-10q-1 -11 -3.5 -25t-5.5 -29t-5.5 -29.5t-4.5 -24.5q0 -3 -2.5 -14t-3.5 -25.5t1 -30.5t11 -30q8 -12 22 -17.5t26 -9.5
q-29 -21 -48 -49.5t-34 -61t-28.5 -68.5t-30.5 -71.5t-41 -69t-60 -62.5zM310 342q-26 -38 -39 -65t-20.5 -51t-13.5 -49.5t-18 -58.5q-16 -42 -36.5 -85.5t-55.5 -83.5q-21 -23 -44 -38.5t-46 -25t-44.5 -14.5t-39.5 -8q-5 0 -7 1q-1 1 3 2.5t5 2.5q35 17 75.5 39.5
t77.5 66.5q29 33 50.5 77t37.5 86q10 28 18.5 54.5t20 51.5t28.5 49.5t44 50.5q4 3 6.5 4.5t-2.5 -6.5zM164 147q-2 -9 -5 -24t-7.5 -30.5t-9.5 -30.5t-10 -25q-5 -8 -18 -28t-40 -49q-28 -31 -54.5 -43.5t-41.5 -20.5q-13 -7 -11.5 -2.5t5.5 8.5q21 25 47 51.5t39 46.5
q22 25 46.5 68.5t48.5 83.5q2 2 5.5 8t5.5 4q4 0 3 -6.5t-3 -10.5z" />
    <glyph glyph-name="asciitilde" unicode="~" horiz-adv-x="575" 
d="M58 227q0 -2 -3 -5t-6 -3q-2 5 0 8q0 14 6.5 27.5t14.5 27.5q7 11 15.5 21t22.5 18q1 1 3 2q3 1 4 0q1 -3 -2 -9.5t-8 -14t-9.5 -14.5t-5.5 -10zM214 258q-26 10 -36 11t-19 1q-14 -1 -35.5 -14.5t-45.5 -33.5q-2 0 -3 -1.5t-2 -1.5q-2 2 -1 3t1 3q35 48 67.5 67t75.5 -3
q38 -14 78.5 -34t91.5 -32q28 -7 54 -0.5t48.5 21t39 34.5t24.5 41q1 1 2 3q2 4 5 4v-2q0 -1 -1 -2t-2 -3q-4 -23 -13.5 -46t-32.5 -46t-57 -31.5t-64 -3.5t-55 13.5t-46 18t-39.5 19t-34.5 15.5zM75 318q-2 -5 -5.5 -8.5t-5.5 -1.5q-1 0 1 6.5t3 6.5q8 23 31.5 45t56.5 30
q17 4 32.5 3.5t29.5 -3.5t26.5 -7t22.5 -8q26 -10 55.5 -27t55.5 -31q28 -14 42.5 -19.5t28.5 -8.5q4 0 4 -2q3 -4 -2 -4q-20 -12 -51 -3.5t-63 24.5q-27 13 -56 26.5t-62 23.5q-18 5 -38.5 5t-40.5 -5.5t-37 -16t-28 -25.5zM255 319q43 -8 76 -23t70 -26q28 -8 60 4t58 32
q2 0 4 2t3 0q4 0 -1 -8q-3 -6 -11.5 -17t-21.5 -22t-30.5 -19t-38.5 -8q-20 0 -38 4t-31.5 9t-23 9.5t-12.5 6.5q-19 8 -35.5 21t-31.5 26q-2 0 -8 4t-6 5q2 3 9 1.5t9 -1.5z" />
    <glyph glyph-name="uni00A0" unicode="&#xa0;" horiz-adv-x="201" 
 />
    <glyph glyph-name="exclamdown" unicode="&#xa1;" horiz-adv-x="284" 
d="M79 83q14 38 32.5 77.5t38.5 74.5q1 1 4.5 5t5.5 4q3 -1 2.5 -6.5t-0.5 -6.5q-3 -19 -9.5 -47.5t-14.5 -46.5q-2 -4 -6 -17.5t-8.5 -31.5t-9 -38.5t-7 -40t-3 -36t3.5 -25.5q0 -4 -1 -5l-1 -1q-2 0 -7 5q-11 12 -17.5 29.5t-8.5 37t-0.5 37.5t6.5 32zM84 242
q11 34 28 67.5t31 59.5q2 5 4 6.5t3 1.5q3 -1 3 -3.5v-7.5q-6 -54 -23.5 -105.5t-38.5 -105.5q-13 -32 -23.5 -66t-11.5 -75q0 -5 -3 -5q-2 0 -4 5q-11 20 -9.5 51.5t9.5 64.5t18.5 63.5t16.5 48.5zM177 432q-3 5 -1 6t4 -1q26 -30 39 -59.5t16 -59t-2 -58t-14 -55.5
q-12 -38 -27.5 -75t-28.5 -72t-21.5 -69t-6.5 -66q0 -2 -1 -2q-2 0 -4 5q-14 34 -10 70.5t16 74t28.5 75.5t28.5 75q15 48 14 103t-30 108zM165 387q-2 14 -5.5 25.5t-9.5 24.5q-2 5 0 5t6 -2q13 -11 19 -22.5t11 -33.5q1 -9 1.5 -21.5t-1 -23.5t-4 -19t-5.5 -7
q-3 2 -4.5 13.5t-1.5 15.5q-2 12 -3 23t-3 22zM216 549q-5 -1 -15 -1.5t-12 7.5q0 3 8 8.5t17 14.5t16 22t4 32q-2 11 -5.5 21t-8.5 15q-2 3 -5 5.5t-2 3.5q2 0 4 -1t4 -1q21 -7 32.5 -20.5t13.5 -27.5q5 -28 -6.5 -50.5t-44.5 -27.5zM174 579q-11 -7 -12 3q-2 7 3 15
t9 16.5t4.5 19t-9.5 24.5q-3 4 -8.5 9t-3.5 5q2 2 8 0.5t8 -1.5q17 -5 28 -17.5t13 -23.5q3 -17 -11 -31t-29 -19zM139 623q-1 4 1 10t8 7q5 2 9 -4t5 -10q0 -4 -2 -10t-7 -7q-6 -1 -9.5 4t-4.5 10z" />
    <glyph glyph-name="sterling" unicode="&#xa3;" horiz-adv-x="503" 
d="M82 11q-20 0 -30.5 -8t-22.5 -23v2q-4 1 -4 9l-6 -8l-1 3v3q4 13 16.5 36.5t29 52t35 59t33.5 58t25 49.5t10 33q0 4 -4 4.5t-7 0.5h-3q-6 -9 -10.5 -23t-10 -31t-12.5 -35t-17 -33l-74 -112q-3 -5 -5.5 -11.5t-5.5 -13.5q-2 -3 -4 -4.5t-2 -4.5q-2 4 -2 11q0 21 9 42
q2 5 10 22.5t18.5 41.5t22.5 51t21.5 50t15.5 38.5t5 17.5q-1 0 -5 1t-6 0q-13 -37 -29.5 -72.5t-37.5 -69.5l-5 -3v8q0 18 6.5 36.5t14.5 37.5t14.5 37.5t6.5 36.5l-18 6l-4 5q0 4 7 7t15.5 4.5t17 2t11.5 0.5q30 0 59 -9.5t59 -9.5q11 0 20.5 3t20.5 3q0 -9 -7 -14.5
t-16 -9.5t-18.5 -6t-14.5 -5q-11 -38 -29 -71.5t-38 -65.5v-2q28 -6 50 -13t42 -16t41 -20.5t49 -25.5q0 -3 3 -3q0 -5 -6 -6t-11 -1q-26 0 -52.5 8.5t-50.5 19t-45 19t-37 8.5q-7 0 -11 -9q34 -10 60 -23t53 -36v-3q0 -3 -5 -3q-24 0 -47.5 11t-46.5 11q-7 0 -16 0.5
t-17.5 -1t-15.5 -5t-10 -10.5q6 0 12 1t13 1q23 0 44 -6.5t41.5 -14.5t41.5 -14.5t44 -6.5q34 0 52 8t27 17.5t12 18.5t8 12q0 -1 0.5 -2t0.5 -2q0 -20 -10.5 -35t-26.5 -26t-36 -16.5t-38 -5.5q-22 0 -42.5 6.5t-40.5 14.5t-40.5 14.5t-42.5 6.5zM274 22l5 5q14 6 24 9.5
t18 9t14.5 14t12.5 24.5l1 -3v-7q0 -56 -59 -56h-8q-8 0 -8 4zM71 359q2 0 5 -1t3 -3t-8.5 -9.5t-19 -18t-20 -21t-12.5 -17.5l-4 -1v4q0 11 4.5 23t12.5 21.5t18 16t21 6.5zM84 418q2 31 4.5 63t10.5 63q9 35 27.5 67.5t45 57t59.5 39.5t72 15q25 0 50 -6.5t42 -27.5
q0 -1 -1 -1h-2q-17 0 -35 8t-38 8q-51 0 -89 -27t-62.5 -68t-36.5 -90t-12 -92l3 -5h12q5 17 8 38t7.5 42t12.5 40t23 31l3 -4q-5 -8 -9 -26t-6 -38t-3 -39t-1 -29q0 -5 0.5 -10t0.5 -9l16 -6l3 4q1 32 8 72.5t23 76t43.5 60t69.5 24.5q15 0 36 -9.5t41 -23.5t35.5 -31
t20.5 -32h-4q-14 12 -28 24.5t-30 23t-33 17.5t-35 7q-10 0 -19 -4.5t-17 -9.5q-26 -15 -40 -39.5t-22 -52.5t-11 -57.5t-6 -54.5v-1q5 -4 11.5 -4.5t11.5 -0.5q14 0 27.5 0.5t24.5 6.5q1 0 2 -0.5t-1 -1.5q-9 -18 -26.5 -26.5t-36.5 -8.5q-29 0 -57.5 9.5t-60.5 9.5
q-27 0 -45 -11t-30 -24.5t-19 -25.5t-10 -13v5q11 29 26.5 54.5t45.5 42.5zM118 356l1 3q5 4 11 4.5t12 0.5q18 0 35.5 -2.5t34.5 -2.5q21 0 40.5 2.5t36.5 15.5q0 -12 -7 -22.5t-17 -19t-22 -13t-22 -4.5q-27 0 -50.5 10.5t-47.5 20.5zM322 667q-11 0 -21.5 -2t-21.5 -2
q-4 0 -4 3q0 4 7.5 8t17.5 6t19.5 3.5t13.5 1.5q40 0 71.5 -21t57.5 -50q7 -8 18.5 -22.5t11.5 -25.5q-14 0 -30 16t-36.5 35t-46 34.5t-57.5 15.5z" />
    <glyph glyph-name="currency" unicode="&#xa4;" horiz-adv-x="769" 
d="M221 111l-158 -82q-4 -2 -11 -7t-14.5 -10t-14.5 -8.5t-11 -3.5h-1q3 14 22 31.5t46.5 36t61 37t64.5 35.5t56.5 31t38.5 24q8 5 11 13t11 13q6 4 12.5 6.5t14 4.5t15 5.5t15.5 10.5l-10 18l2 3h3q27 -12 49 -30.5t43.5 -35t46.5 -28.5t58 -12q42 0 67.5 28.5t25.5 68.5
l-2 -2q-2 -8 -4.5 -17t-7.5 -17.5t-12 -14t-16 -5.5l-4 6q1 11 11 18.5t12 18.5q-19 -7 -36.5 -13.5t-37.5 -6.5q-17 0 -36.5 11.5t-31.5 21.5q-5 0 -8.5 -0.5t-5.5 -4.5q11 -6 20 -13.5t20 -15.5q4 -1 11.5 -4.5t15 -7.5t14.5 -8t11 -7q-3 -8 -13 -9t-16 -1q-17 0 -37.5 8
t-41 20t-38.5 26t-30 26q5 2 12.5 9t15.5 15t15 16t12 13v-22l3 3q5 14 13 28t27 14q10 0 23.5 -4t25.5 -11.5t20.5 -17.5t8.5 -22l-6 -4q-14 5 -26.5 11.5t-26.5 6.5t-27.5 -4.5t-24.5 -15.5q-2 -6 -6.5 -9t-11 -3.5t-13.5 -1t-13 -1.5l38 -6l4 -5l2 -9q3 15 11.5 28
t25.5 13q14 0 23 -6t18.5 -13.5t22 -13.5t33.5 -6q17 0 35 4.5t35 8.5q1 -6 1 -12.5v-13.5q0 -57 -33 -81.5t-87 -24.5q-8 0 -16 2t-16 2h-1l7 -18l-3 -4q-12 0 -30 14t-40.5 31t-48.5 31t-55 14q-31 0 -41.5 -12t-14.5 -41l-40 -24q11 -3 20.5 -4.5t19.5 -4.5l1 -2l3 -15h1
q7 16 17.5 26.5t27.5 10.5q22 0 37 -9t31 -20.5t37.5 -20.5t55.5 -9q10 0 21 1.5t21 1.5l-4 -4q0 -55 -25.5 -91.5t-85.5 -36.5q-38 0 -68.5 14.5t-55.5 38t-45.5 52t-39.5 56.5zM221 121q31 -14 53.5 -37.5t45 -46t49 -39t64.5 -16.5q19 0 38 7t33.5 20t23.5 30t9 38
q-3 -1 -7 -10.5t-10 -21t-15.5 -20.5t-23.5 -9l-6 5q1 4 7 9.5t12.5 11.5t12 13.5t5.5 15.5q-6 0 -12 -4.5t-14 -9t-18.5 -8.5t-23.5 -4q-34 0 -59 20t-47 43q-3 0 -8 0.5t-8 -1.5q15 -9 27 -21t23.5 -24t24 -23.5t29.5 -20.5l1 -4l-5 -4q-41 0 -63.5 13t-39 31t-32.5 37
t-43 31v3q-6 0 -12 -1t-11 -3zM15 37q9 31 34.5 58.5t58.5 50t67.5 41t61.5 32.5h1h3l4 -4h2q-7 19 -8.5 36.5t-1.5 37.5q0 16 3.5 31t3.5 31v5q-5 5 -10.5 11t-8.5 12q0 -28 0.5 -55t0.5 -55q0 -10 2 -19t2 -18q-43 -20 -87 -46.5t-81 -56.5h-4q0 7 9.5 19t22 23.5t25 21.5
t19.5 15q11 8 25 12t26 12q-8 0 -14 -2.5t-13 -2.5q-28 0 -45.5 12t-27.5 31.5t-14 42.5t-4 46q0 3 1 9.5t3 13.5t5 12.5t6 5.5l6 -5l15 -73q2 -9 10.5 -21.5t20 -24t23.5 -20t21 -9.5h7h25q-5 10 -9.5 16.5t-8 13t-5.5 14.5t-2 20q0 23 6 47t6 48l4 8l11 -10q0 14 -3 28
t-5 28h-1q-23 14 -48 14q-14 0 -26 -3.5t-25 -8.5h-1q5 2 5 8q0 5 -4 15.5t-9 21.5t-10 21.5t-8 16.5v2q14 -14 26 -30t22 -33l4 -3h1q11 5 21 7t20 2q11 0 20 -0.5t19 -0.5q2 13 11 34t22 41.5t28 36t29 18.5l4 -3q-5 -24 -16 -43t-21.5 -38.5t-18.5 -42t-8 -54.5
q0 -26 9.5 -49.5t29.5 -40.5q-3 -12 -4.5 -24.5t-4.5 -24.5l83 60h3q0 9 -2 17.5t-2 18.5q0 13 6.5 25.5t14.5 24.5t16.5 24.5t11.5 25.5l5 2q3 0 5 -4t3 -9t1.5 -10t0.5 -8q0 -15 -7 -33.5t-16 -37t-16 -35.5t-7 -28v-3q-23 -23 -53 -42.5t-58 -37.5l-1 -17q7 3 24 12.5
t36 19t35 17t22 7.5q-1 -13 -24.5 -32.5t-58.5 -43.5t-77 -49.5t-81 -49.5t-70 -45t-43 -34h-2zM470 104l4 6h15q14 0 36.5 -3t36.5 -6l4 -1q-3 -4 -9 -6.5t-13.5 -4t-14.5 -2.5t-11 -1t-12 1.5t-16 3.5t-14 5.5t-6 7.5zM293 130q0 23 14.5 44t39.5 21q10 0 26 -6t31 -15.5
t26 -21t11 -22.5l-4 -5q-8 0 -16.5 4t-17 9t-17 9t-16.5 4q-9 0 -21 -1t-22.5 -4t-19.5 -9t-12 -16l-2 1v8zM12 377q0 29 10.5 64.5t29.5 58.5l4 -1q0 -31 -3.5 -62t-3.5 -62q0 -25 4 -49t13.5 -45t25.5 -38t41 -28v-3l-3 -2q-32 0 -54.5 16t-36.5 40.5t-20.5 54t-6.5 56.5z
M115 434l7 -1l5 5q12 0 21 -9t16 -22t10.5 -26.5t3.5 -22.5q0 -16 -2 -32t-2 -31t5 -20t14 -15q-17 0 -31 8t-24.5 21t-16.5 29.5t-6 32.5v83zM601 271l10 7q20 0 39 4t39 4q-24 -24 -57 -24q-8 0 -17.5 1t-13.5 8zM504 356q-11 0 -18.5 -2t-16.5 -6l-3 -4l-4 -2l-2 2
q0 19 11 25t25 13q6 3 12 18.5t11 34.5t8.5 36.5t4.5 24.5l2 4q5 -1 5.5 -12t0.5 -15q0 -23 -4 -43.5t-9 -43.5l5 -2q32 -7 57.5 -18.5t46.5 -40.5q3 -5 9 -15.5t6 -16.5q0 -4 -4 -4q-14 0 -28.5 10.5t-32 23t-38 23t-44.5 10.5zM381 314q0 28 9 50t20.5 41.5t20.5 39
t9 44.5q0 24 -7.5 38.5t-20 22.5t-30 11t-38.5 3h-11l9 7q0 20 -2.5 38.5t-2.5 38.5l5 -4q5 -17 9 -33.5t12 -33.5h38q12 0 24 -6.5t22.5 -16.5t17 -22.5t6.5 -23.5v-41q0 -7 -0.5 -14.5t-1.5 -15.5q-24 -30 -44 -64.5t-40 -66.5zM252 432q0 7 3 22.5t8.5 30.5t13 26.5
t16.5 11.5l4 -7q2 -16 -3.5 -33.5t-5.5 -34.5q0 -14 5 -28.5t13.5 -26.5t20.5 -20.5t26 -10.5q-5 -7 -13.5 -8.5t-16.5 -1.5q-33 0 -52 24t-19 56zM447 359q2 20 12.5 39t21.5 38.5t19.5 40t7.5 42.5q-7 10 -9.5 16.5t-2.5 17.5q0 24 13.5 44.5t34.5 35t45 22.5t45 8l4 -4
l-1 -3q-17 -15 -38.5 -28.5t-40.5 -29t-32.5 -35t-13.5 -45.5q5 -8 5.5 -18t0.5 -19q0 -41 -21.5 -69.5t-47.5 -55.5zM307 441q0 28 11 48t18 45h5l4 4h2q13 -7 18.5 -21t5.5 -28t-5.5 -26t-11.5 -23.5t-11.5 -22t-5.5 -21.5q0 -5 3 -10t5 -9h-3q-20 9 -27.5 26.5t-7.5 37.5
zM727 590q0 14 -6 26.5t-6 26.5q0 8 1 15t7 13q0 -20 5.5 -35t12 -28.5t12 -26.5t5.5 -28q0 -21 -12.5 -42.5t-31 -39.5t-41 -31.5t-41.5 -17.5l-92 -22v4q29 26 62 40t60.5 30t46 41.5t18.5 74.5zM581 481h14q-8 5 -15 12t-7 17q0 11 6 19t15 14t18.5 10.5t17.5 10.5
q12 9 17.5 22t8.5 26.5t6.5 27t11.5 24.5q0 -8 -1.5 -17t-1.5 -17l4 2l3 -5q0 -15 -6 -28.5t-9 -27.5q-6 -23 -14.5 -31.5t-17.5 -12.5t-17.5 -7.5t-14.5 -16.5q25 7 45.5 22t40.5 23h1l3 -4q0 -21 -15.5 -38t-37 -31t-44.5 -25t-39 -18h-2v2q5 13 13 25.5t17 21.5zM140 466
h12q8 0 14 -7t11 -11q-4 -4 -11 -4q-13 0 -24.5 1.5t-22.5 1.5q-8 0 -15.5 -5t-15.5 -5q0 10 11 12q20 17 41 17zM49 551v4q11 -2 19 -13.5t13.5 -25.5t8 -29t2.5 -24q0 -2 -1.5 -8t-4.5 -6q-2 0 -3.5 3.5t-1.5 5.5q-11 21 -16 45.5t-16 47.5zM525 536q0 12 8 22.5t20 19
t25.5 13.5t24.5 5q7 0 7 -6q0 -9 -7.5 -15.5t-16.5 -15t-16.5 -20t-7.5 -29.5q0 -8 2 -13.5t9 -10.5v-1q-19 0 -33.5 16t-14.5 35zM311 548q1 3 6.5 5t12.5 3.5t13.5 2.5t9.5 1q27 0 42 -19l1 -5l-6 -3q-17 0 -34.5 7.5t-36.5 7.5h-8zM311 577q0 20 2.5 41t2.5 42v9
q5 -3 8.5 -10t5.5 -15t3 -16t1 -14q0 -4 -1.5 -12.5t-3.5 -17.5t-5.5 -15.5t-7.5 -6.5t-4.5 6t-0.5 9zM688 651q0 11 3.5 23t12.5 19q4 -1 4 -8q0 -6 -1 -11.5t-1 -11.5q0 -14 2.5 -29.5t2.5 -29.5q0 -3 -1 -11t-6 -8t-8 9t-4.5 20.5t-2.5 22.5t-1 15zM632 614q0 6 4 16
t9 21.5t10.5 21.5t8.5 16l5 1q0 -23 -7.5 -44.5t-24.5 -37.5h-1z" />
    <glyph glyph-name="yen" unicode="&#xa5;" horiz-adv-x="484" 
d="M193 42l4 3q3 0 6.5 -4.5t7 -10t6.5 -11t6 -8.5q8 -8 17 -12.5t15 -13.5h-3q-23 0 -41 17t-18 40zM134 79q0 10 3.5 18.5t3.5 17.5q-3 2 -14 5.5t-11 6.5q0 5 7.5 7.5t16.5 4t17.5 2t11.5 0.5q29 0 57.5 -9t58.5 -9q15 0 34 7l3 -3q-14 -20 -26 -23t-17 -9
q-6 -8 -10 -19.5t-8.5 -23.5t-10 -22t-13.5 -16q-4 0 -5.5 3.5t-2 8t-0.5 9v6.5q0 27 11 52v4q-5 0 -8.5 1t-8.5 1q-3 0 -5.5 -3t-5 -7t-5.5 -7t-7 -3q-1 0 -2 1t-2 1v20q-5 2 -11 3t-11 1q-3 0 -4.5 -4.5t-3 -10.5t-2 -11.5t-0.5 -7.5q0 -21 7.5 -34.5t18 -22.5t21 -15
t15.5 -13h-1h-2q-15 7 -31 15t-29 18.5t-21 25t-8 34.5zM141 175l4 -4q-1 -2 -2 -4.5t-3 -4.5q-8 -7 -16 -12t-14 -13q-8 -8 -13 -17.5t-13 -15.5v6q0 10 4.5 21.5t12.5 21t18.5 16t21.5 6.5zM184 241q10 0 20.5 -2t21.5 -2l-26 11l-5 7v1q0 3 4.5 4.5t10.5 2.5t11.5 1h7.5
q14 0 29.5 -2.5t29.5 -2.5q26 0 42 3.5t40 16.5q0 -10 -5.5 -20t-14.5 -18t-19.5 -14t-19.5 -8q2 0 5 -0.5t6 -0.5q11 0 18.5 3.5t17.5 4.5q-5 -19 -25.5 -28t-37.5 -9q-29 0 -55.5 9.5t-55.5 9.5q-38 0 -61.5 -22.5t-40.5 -52.5h-1v3q0 2 3.5 11.5t4.5 11.5
q12 31 35.5 56.5t59.5 25.5zM189 167l-5 7q3 6 11 7t13 1q17 0 33 -2t33 -2q20 0 39 2t36 16l2 -2v-1q0 -10 -7 -20.5t-17 -19t-21.5 -14t-20.5 -5.5q-26 0 -50 11t-46 22zM147 258q4 0 5 -1t1 -6q-9 -11 -21 -20.5t-22 -20.5q-7 -7 -11 -13.5t-11 -11.5v5q0 10 5 22
t13 22.5t18.5 17t22.5 6.5zM148 311q-28 20 -46 52.5t-29 70t-18 74.5t-13 66q-5 20 -14 35.5t-17 33.5h3q4 0 8.5 -3t7.5 -6q23 -21 35.5 -45.5t20 -51.5t12.5 -55t13.5 -55.5t23 -53.5t40.5 -48q3 -3 7 -3q10 0 18 3q-5 6 -11.5 12t-6.5 15l3 1h1q11 -4 20 -10.5t19 -12.5
h1v18q-18 22 -29 47t-19 51.5t-14 53t-13 53.5q-5 18 -14.5 33.5t-17.5 32.5h4q27 -10 41 -33.5t22 -49.5l48 -152q10 42 35.5 78.5t53.5 72.5t53 73.5t35 80.5l3 4q3 -2 3.5 -6t0.5 -9q0 -38 -12.5 -70t-30.5 -60t-40 -54.5t-40 -53.5t-30.5 -57t-12.5 -65q0 -3 4.5 -4.5
t6.5 -1.5q4 0 6 4.5t3.5 10.5t4 10.5t7.5 4.5l1 -2v-32q10 -2 16 -2q13 37 38 72.5t50.5 71t47 70t27.5 68.5l2 1q6 -2 5.5 -11.5t-0.5 -14.5q0 -24 -16.5 -60.5t-40 -75t-49 -72t-42.5 -51.5l-1 -4h11q11 0 23.5 1.5t20.5 8.5q-1 -9 -8.5 -16t-17.5 -11.5t-21 -7t-19 -2.5
q-30 0 -58.5 8t-57.5 8q-41 0 -64 -20.5t-43 -52.5l-3 -1v1q0 5 4.5 16t10.5 22t12 21t10 14q6 6 13 11t13 11zM229 237v-3q1 1 1 2zM432 666l1 1q5 -1 8.5 -8.5t5 -17t2 -18.5t0.5 -13q0 -28 -8 -51.5t-26 -46.5q-5 -6 -19 -24t-30.5 -36.5t-31.5 -33.5t-22 -15
q0 12 9 30.5t23 41.5t29.5 48.5t29 50.5t22 48.5t7.5 43.5zM45 641v2q11 0 22 -5t21 -12q21 -15 34.5 -41.5t21 -57t10 -62t2.5 -55.5l-1 -3h-2q-13 9 -24 39.5t-23 67t-26.5 72t-34.5 55.5z" />
    <glyph glyph-name="section" unicode="&#xa7;" horiz-adv-x="433" 
d="M30 -88q8 0 23 -6t35 -13.5t45 -14t52 -6.5q13 0 26 9.5t22.5 24t15.5 30.5t6 28v47q0 12 -2.5 25t-5.5 27h-7q0 12 13.5 25.5t30 29.5t30 35.5t13.5 43.5q0 18 -4 38t-11 38l3 4l3 -2q15 -17 23 -38.5t8 -44.5t-7 -39t-18.5 -29t-25.5 -23.5t-29 -23.5h-2q2 1 5.5 2.5
t5.5 -0.5q11 -47 11 -88q0 -26 -6.5 -51.5t-20.5 -45.5t-35.5 -33t-51.5 -13q-21 0 -38.5 5.5t-33.5 13.5t-31.5 18.5t-33.5 19.5l-5 2.5t-3 4.5zM70 -84l1 3h10q17 0 33.5 -3t33.5 -3h19q11 0 17.5 7t10 17t4.5 21t1 18q0 55 -13 106t-35 104q-6 14 -12.5 27.5t-10.5 27.5
q-6 6 -6 18h3q22 -17 43 -51.5t37 -74t26 -79t10 -65.5q0 -21 -2.5 -40.5t-11 -34.5t-24.5 -23.5t-42 -8.5q-5 0 -19 4t-29 9.5t-28 11t-16 9.5zM175 -57l-8 13q-5 50 -18.5 90.5t-31 76.5t-36 69.5t-34.5 69t-26 75.5t-10 90q0 7 2.5 22t9.5 17q0 -51 12.5 -91.5t30.5 -77
t40 -71.5t40 -74t30.5 -85.5t12.5 -105.5q0 -6 -4 -17.5t-12 -11.5q0 4 1 6t1 5zM227 93l10 11v1q0 1 -1.5 6t-4 11.5t-4.5 12t-2 7.5q-13 37 -38.5 78.5t-50.5 83t-43.5 79t-18.5 66.5q0 18 9 31t21 24v2v1l-3 4h-2q-19 -17 -28 -29.5t-9 -38.5q0 -8 1.5 -18.5t3.5 -21
t3.5 -19t0.5 -11.5l-3 -6q-8 6 -13.5 16t-9 21.5t-5.5 23.5t-2 21q0 31 14.5 49.5t37.5 35.5q2 0 2 3q0 16 -5 32.5t-5 33.5q0 36 12.5 66.5t34 52.5t52 34.5t66.5 12.5q52 0 94 -27.5t65 -74.5q5 -11 10.5 -25t5.5 -28l-1 -3q-8 5 -12 18.5t-9 21.5q-22 40 -63.5 65
t-87.5 25q-29 0 -53.5 -10.5t-42.5 -29t-28 -44t-10 -54.5q0 -32 11.5 -64t28.5 -59l134 -217q22 -35 22 -74q0 -20 -7 -34.5t-18 -26t-25 -20.5t-29 -18h-5v3zM263 136l1 -2q11 10 18 24t7 28q0 13 -6.5 25.5t-12.5 22.5l-158 252h-1q-5 -4 -10 -11.5t-5 -15.5
q0 -17 7.5 -31t15.5 -27q17 -30 37.5 -63t40.5 -67t37.5 -68.5t28.5 -66.5zM362 170q0 7 1 14.5t1 15.5q0 34 -13.5 70t-33.5 72t-43 71t-43 69t-33.5 65t-13.5 59q0 22 7.5 36t20 22t29.5 11t36 3l4 -3v-1l-2 -1q-17 -9 -36 -16.5t-28 -27.5v-15q0 -23 12 -49.5t30 -57
t39 -63.5t39 -68.5t30 -73.5t12 -77v-14t-1 -16.5t-4 -16t-8 -11.5zM133 606q0 25 8.5 48t24 40.5t37.5 27.5t48 10q16 0 39 -8t44 -21.5t36 -30.5t15 -35h-1q-26 22 -53 38.5t-62 16.5q-18 0 -36 -5.5t-32 -16t-23 -26.5t-9 -36q0 -28 13 -61.5t28 -64.5t27.5 -56t11.5 -37
h-2q-2 3 -5 6t-5 6q-16 22 -34 45.5t-33.5 49t-26 53t-10.5 57.5z" />
    <glyph glyph-name="dieresis" unicode="&#xa8;" horiz-adv-x="373" 
d="M82 555q-5 0 -15.5 1.5t-10.5 9.5q0 3 9 7.5t20 13t20 22t9 34.5q0 26 -10 39q-2 3 -5 6.5t-2 4.5q2 0 4.5 -1.5t3.5 -2.5q20 -11 31 -28.5t11 -33.5q0 -32 -15.5 -52t-49.5 -20zM45 595q-12 -5 -12 6q0 8 6 15.5t11.5 16.5t7.5 20.5t-6 28.5q-2 5 -7 11t-3 7t8.5 -1.5
t8.5 -3.5q17 -8 25.5 -24t8.5 -28q0 -19 -15.5 -31.5t-32.5 -16.5zM16 649q0 5 3.5 11.5t9.5 6.5q5 0 8 -6.5t3 -11.5q0 -4 -3 -10.5t-8 -6.5q-6 0 -9.5 6t-3.5 11zM288 555q-5 0 -15.5 1.5t-10.5 9.5q0 3 9 7.5t19.5 13t19.5 22t9 34.5q0 25 -9 39q-2 3 -5.5 6.5t-1.5 4.5
q1 0 4 -1.5t4 -2.5q20 -11 30.5 -28.5t10.5 -33.5q0 -32 -15 -52t-49 -20zM251 595q-5 -2 -9 -1.5t-4 7.5q0 8 6 15.5t12 16.5t8 20.5t-6 28.5q-2 5 -7 11t-3 7t8 -1.5t8 -3.5q17 -8 26 -24t9 -28q0 -19 -15.5 -31.5t-32.5 -16.5zM222 649q0 5 3 11.5t9 6.5q5 0 8 -6.5
t3 -11.5q0 -4 -3 -10.5t-8 -6.5q-6 0 -9 6t-3 11z" />
    <glyph glyph-name="copyright" unicode="&#xa9;" horiz-adv-x="699" 
d="M496 607q-34 12 -70.5 25t-72.5 13q-34 0 -57.5 -3.5t-44 -11t-41.5 -18t-50 -24.5h-2v4q38 38 84 56.5t100 18.5q20 0 41.5 -3.5t42.5 -10.5t39.5 -18.5t31.5 -26.5zM451 497q-14 0 -26.5 5t-25.5 5q-32 0 -58 -18t-49 -38q-19 -16 -32.5 -37t-22 -44.5t-12.5 -48
t-4 -48.5q0 -3 -2 -3q-5 0 -7.5 7.5t-4.5 17t-2.5 18.5t-0.5 12q0 33 11.5 70.5t33 68.5t52 51.5t69.5 20.5q28 0 52 -12.5t29 -26.5zM688 337q0 -77 -29.5 -139.5t-80 -107.5t-117 -69.5t-140.5 -24.5q-56 0 -111.5 17t-99.5 50t-72 81t-28 109q1 0 6 -12t10 -27.5
t10.5 -30t8.5 -19.5q20 -36 50 -62.5t65.5 -44t75.5 -26t79 -8.5q67 0 128.5 23t107.5 64.5t73.5 99t27.5 127.5q0 63 -18.5 118.5t-53 99.5t-83 75.5t-108.5 47.5l-4 6q65 -1 120.5 -32.5t96 -81t63.5 -111t23 -122.5zM473 501q2 -3 0.5 -4t-4.5 2q-8 8 -16.5 17t-20 16
t-27.5 11.5t-38 4.5q-42 0 -76.5 -22.5t-59 -57t-38.5 -76t-14 -78.5q0 -24 6.5 -49.5t20 -46.5t34.5 -34t49 -13t45.5 8.5t29 23.5t18.5 34.5t13 41.5q3 -7 3.5 -14.5t0.5 -15.5q0 -22 -9 -41.5t-24 -34t-35.5 -23t-42.5 -8.5q-35 0 -61.5 15.5t-44.5 40.5t-27.5 56
t-9.5 62q0 43 15.5 88.5t43.5 82.5t67.5 60.5t86.5 23.5q20 0 38 -7.5t33 -18t26.5 -22.5t17.5 -22zM303 611q-61 0 -111 -25h-4q10 11 27.5 19t36.5 13.5t38.5 8.5t34.5 3q56 0 104 -25t82.5 -65.5t54 -92t19.5 -105.5q0 -58 -22.5 -105t-61 -80.5t-89 -52t-105.5 -18.5
q-54 0 -98 16.5t-75.5 47t-49 74.5t-17.5 98q0 57 14.5 112.5t37.5 108.5q2 3 5 8.5t6 7.5v-7q-19 -50 -30.5 -100.5t-11.5 -103.5q0 -106 55 -167.5t164 -61.5q50 0 95 15.5t78.5 44.5t53 70.5t19.5 94.5t-19 101.5t-52 85t-79 58.5t-100 22zM366 486q-13 -26 -27.5 -42
t-27 -32.5t-21 -38.5t-8.5 -59q0 -13 1 -26t5.5 -23t13.5 -16t25 -5l6 -4q0 -8 -12.5 -10.5t-19.5 -2.5q-16 0 -26.5 8t-17 20t-9.5 26t-3 27q0 59 32.5 109t86.5 72q3 0 2 -3zM392 263q0 -33 -25.5 -50.5t-55.5 -17.5h-11q-5 0 -10 5l3 3q44 9 63.5 29t24.5 64l3 1
q5 -1 6.5 -8.5t1.5 -11.5v-14v0zM612 259q0 -4 -3 -13.5t-7 -20t-8 -20t-6 -13.5q-20 -39 -49 -68t-64.5 -48.5t-76 -29.5t-82.5 -10q-60 0 -112.5 18t-91.5 51.5t-61 83t-22 112.5q0 20 3 45t9 50t15 47.5t21 38.5h2v-4q-4 -15 -7 -26q-3 -10 -5 -19t-3 -11q-9 -50 -9 -97
q0 -59 18.5 -106t52 -80t81 -50.5t105.5 -17.5q103 0 179.5 50.5t116.5 144.5l3 3q1 -3 1 -10z" />
    <glyph glyph-name="registered" unicode="&#xae;" horiz-adv-x="712" 
d="M11 290q0 69 25.5 130t58.5 120q4 10 15 15v-4q-29 -58 -51.5 -118.5t-22.5 -126.5q0 -63 22 -115.5t60.5 -90t92 -58t116.5 -20.5q69 0 130.5 23t108 65t74 101t27.5 130q0 62 -23.5 121.5t-64.5 106.5t-96.5 75.5t-119.5 28.5q-54 0 -102.5 -20t-90.5 -52h-3
q13 21 39 38t56.5 29t61.5 18.5t54 6.5q69 0 128 -31t102 -81.5t67.5 -114.5t24.5 -129q0 -76 -29.5 -139t-80 -108t-117 -69.5t-140.5 -24.5q-66 0 -125 20t-102.5 57.5t-69 92.5t-25.5 124zM385 66q51 17 93.5 41t73 57.5t47.5 78t17 102.5q0 67 -23.5 121.5t-64.5 93.5
t-96.5 60t-120.5 21q-11 0 -28.5 -4t-24.5 -3l-3 2q28 12 52.5 19t56.5 7q63 0 116 -27.5t91.5 -72.5t59.5 -102.5t21 -117.5q0 -56 -20.5 -107t-57 -90t-86.5 -62t-109 -23zM90 327q0 8 5 15h1h1l2 -2q7 -101 66 -158t162 -57q30 0 66.5 5.5t61.5 24.5v1q-7 1 -19.5 5
t-24.5 9.5t-21 13t-9 16.5q0 4 5 4q3 0 13.5 -5.5t23 -13t24 -14t15.5 -9.5h2q8 0 17 7t15 12q39 32 59 76.5t20 95.5q0 72 -33 130t-84 106q38 -13 65.5 -44t45 -68t26 -74t8.5 -61q0 -57 -22 -103.5t-59.5 -80t-87 -51.5t-104.5 -18q-54 0 -98.5 17t-76 48t-48.5 75
t-17 98zM296 240q-1 -2 -4.5 -11t-5.5 -11l-4 -3q-3 0 -4.5 5.5t-2 11.5t-0.5 12v8q0 11 2 20.5t2 20.5q0 5 -8.5 14t-12.5 9l-11 -10l-3 4q-2 3 -2 6.5v6.5q0 32 8.5 66t8.5 73v15h-1l-7 -3q-2 -26 -8.5 -49t-13.5 -45.5t-13 -45t-6 -45.5q0 -35 17.5 -64.5t41.5 -55.5h-3
h-2q-39 23 -61 58t-22 81q0 9 4.5 29.5t10.5 42.5t12.5 42.5t10.5 29.5v1v2q-2 -2 -5.5 -3.5t-5.5 -3.5l-2 1q1 7 5.5 14t9.5 11q23 25 55 34.5t61 8t49.5 -13.5t20.5 -30q0 -11 -9.5 -26.5t-22 -31.5t-26 -30t-20.5 -21q-10 -2 -17.5 -5.5t-16.5 -3.5v3q0 7 3 17t6.5 21.5
t6.5 24t3 23.5q0 7 -1.5 14t-1.5 13h3q17 -14 20 -30t3 -37q4 4 10.5 12t12 17.5t8.5 18t2 14.5q-3 12 -12.5 18t-21.5 7.5t-25 -0.5t-23 -6q5 -12 8.5 -24.5t3.5 -26.5q0 -23 -9 -45t-17 -42q8 2 16.5 4t17.5 2q22 0 35 -11t20 -28t9 -36.5t2 -35.5q0 -2 -1.5 -4t-3.5 -2
q-6 0 -12.5 8t-11.5 18.5l-10 21t-8 15.5q-11 16 -21.5 24t-18 11.5t-12.5 4.5t-6 2q-11 -2 -18 -9q25 -1 39.5 -9.5t22 -22.5t11.5 -32t9 -38q4 -14 15 -26t26 -21.5t30.5 -16.5t28.5 -11l3 -3h-6q-1 0 -10 2t-20 5t-20.5 5.5t-12.5 2.5q-17 4 -28.5 10t-19 14.5t-12.5 20
t-11 28.5zM238 244v8l4 6q5 0 7.5 -6t3.5 -10q10 -20 22.5 -38t20.5 -38l-1 -2q-11 1 -21 10t-18 21t-13 25t-5 24zM336 364q5 5 11 5.5t11 3.5q8 5 16.5 11t15.5 12h3l4 -3q0 -9 -7.5 -17t-12.5 -14q2 -3 5 -5.5t6 -5.5h1h1q12 4 27 18t27.5 32t21 36.5t8.5 31.5
q0 30 -14 52t-35.5 36t-48.5 21t-53 7q-47 0 -87 -22h-2l-1 1q6 14 18.5 23t28.5 14.5t32 8t29 2.5q29 0 59 -9t54.5 -26.5t40 -42.5t15.5 -57q0 -27 -9 -48t-24 -38.5t-34.5 -31t-41.5 -23.5q23 -35 29.5 -68.5t6.5 -72.5l-4 -5q-8 3 -17.5 21.5t-18 41t-15 42t-7.5 24.5
q-7 17 -18 24.5t-21 20.5zM56 344q0 19 7 51.5t18 66.5t25 63t28 42q2 -1 2 -7q-12 -35 -22.5 -65t-18.5 -59.5t-13 -60t-5 -65.5q0 -21 2.5 -41.5t2.5 -41.5q-7 1 -12 16.5t-8 36t-4.5 39t-1.5 25.5zM433 452q1 22 -8.5 38t-26 26t-36.5 15t-39 5q-21 0 -42 -8t-39 -18
q-7 -5 -18.5 -16.5t-19.5 -12.5q0 20 11 37t27.5 29.5t37 19.5t38.5 7q19 0 42.5 -5.5t43.5 -17t33.5 -28.5t13.5 -41q0 -6 -3.5 -18.5t-11.5 -14.5z" />
    <glyph glyph-name="acute" unicode="&#xb4;" horiz-adv-x="245" 
d="M62 575q6 2 5 -2t-3 -9q-5 -9 -8 -14.5t-5 -10t-4 -10t-5 -15.5q-2 -5 -3.5 -6t-2.5 -2q-3 -2 -4.5 3t-1.5 13q0 6 1.5 14t5.5 16t10 14.5t15 8.5zM25 536q-3 -9 -4 -9q-2 0 -3.5 6t-1.5 11q0 38 8.5 59.5t23 33.5t32.5 18t36 13t34.5 18.5t27.5 35.5q2 5 5 -1t5 -15
q3 -18 -9.5 -32t-30.5 -24.5t-38 -18t-33 -13.5q-27 -13 -37.5 -34.5t-14.5 -47.5zM59 527q0 10 23 22t52.5 26.5t57.5 32.5t38 40h2q4 0 4.5 -6t0.5 -8q0 -22 -19.5 -42t-47.5 -35.5t-57.5 -24.5t-49.5 -9q-4 0 -4 4zM96 595q2 7 18.5 16t36 21t35 29.5t15.5 41.5
q0 3 0.5 3t5.5 -2q6 -5 7.5 -18.5t1.5 -21.5q0 -18 -11 -32t-28 -23t-37 -14t-37 -5q-2 0 -5 0.5t-2 4.5z" />
    <glyph glyph-name="paragraph" unicode="&#xb6;" horiz-adv-x="416" 
d="M241 75v22.5t3 23.5q0 2 0.5 7.5t1.5 11.5t2.5 10.5t3.5 4.5q5 0 5.5 -6.5t0.5 -8.5q2 -28 3.5 -55.5t4.5 -55.5q2 -16 5 -30t3 -30q-9 0 -15.5 11t-10.5 25.5t-5.5 29t-1.5 21.5v19zM196 164q0 72 15.5 142.5t35.5 138.5q17 61 37.5 121t40.5 120v2l-3 -2
q-41 -27 -75.5 -62.5t-58.5 -77.5t-36.5 -89t-10.5 -98q5 -13 11 -18t26 -5v-2q0 -3 -4 -5.5t-9.5 -4t-11 -2t-8.5 -0.5q-12 0 -19 6.5t-10.5 16.5t-4 20.5t-0.5 19.5q0 91 42 166t120 122q3 2 10.5 5.5t16 6.5t16 5t10.5 2l16 60l3 2h2q1 -5 1.5 -9.5t-0.5 -8.5
q-1 -16 -2 -35.5t-5 -33.5l-97 -371q-13 -48 -16 -95t-3 -96q0 -26 4 -53.5t9 -51.5q0 -2 3.5 -13t2.5 -12v-3q-2 1 -4.5 5t-5 9t-5 9t-3.5 5q-19 35 -24.5 79.5t-5.5 84.5zM277 67q0 3 -1 7.5t1 9.5q4 29 7 60t9 59q5 24 14.5 58.5t20.5 73t22.5 79.5t20.5 78.5t15 69.5
t6 52l4 5q6 -3 7.5 -17.5t1 -31t-2.5 -31.5t-3 -21q-3 -11 -10.5 -47t-18 -84t-23.5 -102t-25.5 -100.5t-23.5 -79.5t-19 -38h-2zM269 282q17 105 41 207.5t48 205.5q1 5 1.5 10t0.5 10l4 6h2l1 -2q9 -17 9.5 -34t0.5 -36q0 -20 -2 -51.5t-8 -57.5q-15 -67 -37 -134
t-48 -131q-2 -2 -5.5 -9t-5.5 -7l-2 3q0 4 -1 9.5t1 10.5zM11 414q0 77 32 139.5t89 113.5q14 13 31.5 22.5t36.5 9.5v-6q-69 -53 -112 -126t-43 -161q0 -44 9 -68t20.5 -36.5t22 -18.5t14.5 -13q-24 0 -42.5 15t-31.5 37t-19.5 47t-6.5 45zM82 322q0 1 1 2t1 3
q12 -5 23.5 -12t25.5 -7q19 0 32 8t30 10l4 -4q-11 -16 -28.5 -26t-36.5 -10q-7 0 -16 2.5t-17 7t-13.5 11.5t-5.5 15zM77 470q0 38 17.5 78.5t46.5 74.5t66.5 56t77.5 22l7 -2l-3 -4q-40 -21 -69.5 -45t-52.5 -52.5t-42 -62.5t-37 -73l-6 -6q-4 2 -4.5 6.5t-0.5 7.5z" />
    <glyph glyph-name="periodcentered" unicode="&#xb7;" horiz-adv-x="319" 
d="M224 231q-5 0 -15.5 1.5t-10.5 9.5q0 3 9 7.5t20 12.5t20 21.5t9 34.5q0 26 -10 39q-2 3 -5 6.5t-2 4.5q2 0 4.5 -1.5t3.5 -2.5q20 -11 30.5 -28.5t10.5 -33.5q0 -32 -15 -51.5t-49 -19.5zM187 270q-12 -5 -12 6q0 8 6 15.5t11.5 16.5t7.5 20.5t-6 28.5q-2 5 -7 11t-3 7
t8.5 -1.5t8.5 -3.5q17 -8 25.5 -24t8.5 -28q0 -19 -15.5 -31.5t-32.5 -16.5zM158 324q0 5 3 11.5t10 6.5q5 0 8 -6.5t3 -11.5q0 -4 -3 -10.5t-8 -6.5q-7 0 -10 6t-3 11z" />
    <glyph glyph-name="cedilla" unicode="&#xb8;" horiz-adv-x="299" 
d="M62 -221l1 1q31 1 63.5 7.5t59 21.5t43 39.5t16.5 62.5q0 44 -26 65t-68 21q-7 0 -12.5 -8.5t-17.5 -8.5q-11 0 -11 9q0 6 5 9t10 7t9 11t3 21l-1 10q4 -1 9.5 -7.5t10 -13.5t8 -13t5.5 -6q4 0 8.5 1.5t8.5 1.5q21 0 38 -9.5t29 -25t18.5 -35t6.5 -38.5q0 -33 -13 -59.5
t-34.5 -45.5t-50 -29.5t-59.5 -10.5q-4 0 -13.5 1.5t-19.5 4.5t-18 7t-8 9zM99 -183q7 0 11 -4q-2 -6 -16.5 -11.5t-33 -10t-35.5 -8.5t-24 -5q19 21 45 30t53 9zM15 -192q6 3 22.5 14.5t36.5 25.5t39 28.5t29 23.5q8 7 5.5 9t-10.5 0q-4 -3 -8.5 -7.5t-10.5 -4.5
q0 15 11.5 26.5t28.5 11.5q21 0 21 -23q0 -25 -19 -40.5t-39 -23.5l-109 -46zM82 -7q0 -14 9 -28t20 -23q4 14 24 24.5t41.5 10.5t39 -14.5t17.5 -50.5q0 -13 -5.5 -28t-15 -28t-22.5 -21.5t-27 -8.5l-7 2q0 4 6 11.5t13.5 17t13.5 21.5t6 26q0 17 -10 29t-27 12
q-25 0 -33 -8l-13 -13q-6 7 -16 17t-19.5 21.5t-16.5 22.5t-7 20q0 14 9 20t20 10.5t20 11.5t9 23q8 -5 14.5 -16t6.5 -17q0 -10 -8 -14t-17 -7t-17 -7.5t-8 -15.5z" />
    <glyph glyph-name="questiondown" unicode="&#xbf;" horiz-adv-x="330" 
d="M67 148q3 39 22.5 67.5t37.5 50.5l8.5 8.5t8.5 4.5q3 -1 -1 -8.5t-6 -11.5q-18 -29 -28.5 -63.5t-6.5 -64.5t26 -51t70 -24q25 -2 46 6.5t35.5 21t21 25.5t3.5 22q-2 6 -1.5 7.5t2 0.5t3.5 -3.5t3 -4.5q4 -8 4 -19t-4 -24t-13 -25.5t-23 -22.5q-32 -23 -70 -23
t-69.5 16.5t-51.5 46.5t-17 68zM63 289q34 47 72 88t57 74q2 4 4 7.5t4 1.5q3 -1 1.5 -5.5t-3.5 -9.5q-9 -35 -30 -69t-46 -69q-12 -16 -25.5 -34.5t-24.5 -40t-17 -47.5t-3 -56q4 -40 29 -69.5t59.5 -44.5t74.5 -13t74 24q6 5 7 4q2 -4 -3 -9q-11 -15 -37.5 -26.5
t-60 -12.5t-70.5 12.5t-68 46.5q-16 17 -25 37t-12.5 41t-3 41t3.5 37q11 32 23 54t20 38zM203 508q-5 -2 -6 -1t0 2l3 3q19 8 39.5 -0.5t30.5 -34.5q9 -26 7.5 -53t-9.5 -51q-7 -24 -17.5 -45.5t-22.5 -41.5t-24 -38t-22 -34q-26 -42 -29.5 -66t30.5 -44q19 -8 37 -6t32 10
t21.5 21t4.5 29q-1 6 2 3l5 -5q11 -18 3.5 -37t-26 -32.5t-44 -17.5t-50.5 9q-26 13 -36.5 32t-9 40.5t12.5 45t28 46.5q23 30 42.5 66.5t36.5 77.5q8 19 9.5 42.5t-3.5 43t-16.5 30.5t-28.5 6zM215 469q-5 15 -13 18t-14 3q-5 0 -6.5 2t4.5 4q4 1 11 3t14.5 0.5t14.5 -7
t12 -19.5q4 -12 0.5 -30t-10 -34.5t-13.5 -28t-11 -9.5q-2 1 -1 6t3 12t4 13.5t2 9.5l5 30t-2 27zM226 706q22 5 44 -1.5t27 -16.5q2 -3 -0.5 -7t-7.5 -4q-9 0 -15 1t-12 1.5t-13.5 -0.5t-18.5 -5t-23.5 -17t-17.5 -34q0 -3 -4 -3t-6 3q-7 18 -4.5 32t10.5 24.5t19 17.5
t22 9zM225 651q12 9 24 7.5t23 -7.5q5 0 9 -7q1 -2 -0.5 -4.5t-3.5 -3.5q-5 -3 -10.5 -4t-10.5 -6q-8 -5 -12.5 -12.5t-8 -13.5t-6.5 -10t-7 -2q-10 3 -13 11t-1.5 18t6.5 19.5t11 14.5zM268 596q-5 -5 -11 -7t-8 0q-3 3 -1 9.5t7 11.5q4 4 9 5.5t8 -0.5q2 -2 1.5 -8
t-5.5 -11z" />
    <glyph glyph-name="Agrave" unicode="&#xc0;" horiz-adv-x="620" 
d="M347 716q-2 3 -5.5 9.5t-1.5 8.5t6.5 -1t5.5 -4q18 -13 33.5 -36t28 -50.5t22.5 -57.5t16 -57q15 -66 25.5 -130t10.5 -132q0 -2 0.5 -12t-3.5 -12q-3 2 -6.5 10t-4.5 11q-12 37 -21.5 84.5t-17.5 86.5q-6 30 -11 57.5t-11.5 53.5t-15 52.5t-20.5 55.5q-2 4 -6.5 14
t-9.5 20t-9 18.5t-5 10.5zM587 -25q-11 6 -15 7.5t-15 8.5q-24 14 -44 36.5t-36 49.5t-28.5 57.5t-21.5 60.5q-20 -13 -47.5 -15.5t-50.5 -2.5q-29 0 -57.5 2t-57.5 2q-28 -52 -52.5 -100.5t-38.5 -90.5q0 -1 -1 -4.5t-3 -3.5q-3 0 -3 7v9q0 40 19.5 89.5t43.5 97.5l-15 1
q-6 -14 -16.5 -39t-20 -52t-17 -52t-7.5 -40q0 -3 -3 -3q-4 0 -6 6.5t-3.5 14.5t-2 16.5t-0.5 11.5q0 35 9 73.5t24 70.5l-13 2q-9 -22 -17 -43.5t-14 -44.5q0 -2 -1 -5t-3 -2q-2 4 -2.5 9.5t-0.5 9.5q0 42 15 81q5 10 10 10q21 6 42.5 7t44.5 1q50 0 99 -7.5t98 -7.5
q24 0 44 4l-2 16q-11 -3 -23.5 -4t-23.5 -1q-39 0 -80.5 8t-79.5 19q-2 2 -8 3.5t-6 4.5q0 2 6 3.5t8 1.5q14 1 27.5 1.5t27.5 0.5q23 0 46 -0.5t47 -0.5h25t25 1l-2 11h-13q-48 0 -95.5 9t-95.5 9q-41 0 -72.5 -10t-54 -23t-36.5 -26t-20 -19l-2 -1q-1 0 -1 2q0 1 1 2
q18 35 44 58.5t64 35.5q38 81 78.5 161t85.5 158q1 2 4 6.5t6 4.5q1 -1 1 -2v-2q0 -8 -1 -12q-19 -81 -56 -156t-76 -148l19 1q3 6 15.5 26t27 41.5t26.5 39t15 17.5l1 -3q0 -5 -6 -22t-14 -37t-15.5 -37.5l-10.5 -24.5q6 0 12 -0.5t12 -0.5q18 36 38.5 75.5t35.5 80.5
t20.5 83t-6.5 83q0 -5 -2.5 -20t-6.5 -31.5t-8 -29t-8 -12.5q-3 0 -2.5 4t0.5 5q0 26 3.5 51.5t3.5 51.5q0 35 -11 68q0 1 -3 8.5t2 7.5q2 0 7 -5q10 -10 19.5 -27t17.5 -36.5t15 -38.5t11 -32q13 -43 21.5 -86.5t15 -87t13.5 -87.5t16 -87q9 -42 21.5 -82t30.5 -76
t41.5 -66.5t54.5 -53.5q5 -5 3.5 -6.5t-9.5 3.5zM585 60q1 -6 -1 -5.5t-4.5 3.5t-5 7t-2.5 5q-24 44 -38 89.5t-22 92t-13.5 94t-13 97t-19.5 100.5t-34 104q-1 2 -3 7t0 6q2 0 5 -3l4 -4q22 -26 39 -69t30 -92t21.5 -97t13.5 -84q8 -57 17 -120t23 -119zM288 314
q29 -3 57.5 -7t57.5 -6q-11 53 -19 105t-15 106q-13 -52 -35.5 -101t-45.5 -97zM617 -14q-20 9 -35 17.5t-26 23.5q-17 23 -26.5 46t-15.5 43q-2 8 -3.5 18t0.5 10q4 0 10 -13t11 -22q15 -31 38 -62.5t50 -51.5q8 -7 5 -9t-8 0zM26 178h-2h-1q0 3 1 6l2 6q8 17 15.5 25.5
t24.5 18.5q10 6 28 12t29 6q2 0 5.5 -0.5t3.5 -3.5t-10.5 -8t-13.5 -7q-38 -23 -56 -35t-26 -20zM416 810q9 -2 15 -8.5t10 -14.5t5.5 -16t1.5 -14q0 -8 -1.5 -13t-4.5 -3q-1 1 -3 2t-4 6q-2 10 -4 15.5t-4.5 10t-5.5 10t-7 14.5q-2 5 -3 9t5 2zM453 771q-4 26 -14.5 47.5
t-37.5 34.5q-13 6 -33 13.5t-38 18t-30.5 24.5t-9.5 32q2 9 5 15t5 1q11 -24 27.5 -35.5t34.5 -18.5t36 -13t32 -18t22.5 -33.5t8.5 -59.5q0 -5 -1 -11t-3 -6q-1 0 -4 9zM419 762q0 -4 -4 -4q-20 0 -50 9t-57.5 24.5t-47 35.5t-19.5 42q0 2 0.5 8t4.5 6h2q10 -22 38 -40
t57.5 -32.5t52.5 -26.5t23 -22zM382 830q1 -4 -2 -4.5t-5 -0.5q-17 0 -37 5t-37 14t-28.5 23t-11.5 32q0 8 2 21.5t8 18.5q5 2 5.5 2t0.5 -3q0 -24 15.5 -41.5t35 -29.5t36 -21t18.5 -16z" />
    <glyph glyph-name="Aacute" unicode="&#xc1;" horiz-adv-x="620" 
d="M347 716q-2 3 -5.5 9.5t-1.5 8.5t6.5 -1t5.5 -4q18 -13 33.5 -36t28 -50.5t22.5 -57.5t16 -57q15 -66 25.5 -130t10.5 -132q0 -2 0.5 -12t-3.5 -12q-3 2 -6.5 10t-4.5 11q-12 37 -21.5 84.5t-17.5 86.5q-6 30 -11 57.5t-11.5 53.5t-15 52.5t-20.5 55.5q-2 4 -6.5 14
t-9.5 20t-9 18.5t-5 10.5zM587 -25q-11 6 -15 7.5t-15 8.5q-24 14 -44 36.5t-36 49.5t-28.5 57.5t-21.5 60.5q-20 -13 -47.5 -15.5t-50.5 -2.5q-29 0 -57.5 2t-57.5 2q-28 -52 -52.5 -100.5t-38.5 -90.5q0 -1 -1 -4.5t-3 -3.5q-3 0 -3 7v9q0 40 19.5 89.5t43.5 97.5l-15 1
q-6 -14 -16.5 -39t-20 -52t-17 -52t-7.5 -40q0 -3 -3 -3q-4 0 -6 6.5t-3.5 14.5t-2 16.5t-0.5 11.5q0 35 9 73.5t24 70.5l-13 2q-9 -22 -17 -43.5t-14 -44.5q0 -2 -1 -5t-3 -2q-2 4 -2.5 9.5t-0.5 9.5q0 42 15 81q5 10 10 10q21 6 42.5 7t44.5 1q50 0 99 -7.5t98 -7.5
q24 0 44 4l-2 16q-11 -3 -23.5 -4t-23.5 -1q-39 0 -80.5 8t-79.5 19q-2 2 -8 3.5t-6 4.5q0 2 6 3.5t8 1.5q14 1 27.5 1.5t27.5 0.5q23 0 46 -0.5t47 -0.5h25t25 1l-2 11h-13q-48 0 -95.5 9t-95.5 9q-41 0 -72.5 -10t-54 -23t-36.5 -26t-20 -19l-2 -1q-1 0 -1 2q0 1 1 2
q18 35 44 58.5t64 35.5q38 81 78.5 161t85.5 158q1 2 4 6.5t6 4.5q1 -1 1 -2v-2q0 -8 -1 -12q-19 -81 -56 -156t-76 -148l19 1q3 6 15.5 26t27 41.5t26.5 39t15 17.5l1 -3q0 -5 -6 -22t-14 -37t-15.5 -37.5l-10.5 -24.5q6 0 12 -0.5t12 -0.5q18 36 38.5 75.5t35.5 80.5
t20.5 83t-6.5 83q0 -5 -2.5 -20t-6.5 -31.5t-8 -29t-8 -12.5q-3 0 -2.5 4t0.5 5q0 26 3.5 51.5t3.5 51.5q0 35 -11 68q0 1 -3 8.5t2 7.5q2 0 7 -5q10 -10 19.5 -27t17.5 -36.5t15 -38.5t11 -32q13 -43 21.5 -86.5t15 -87t13.5 -87.5t16 -87q9 -42 21.5 -82t30.5 -76
t41.5 -66.5t54.5 -53.5q5 -5 3.5 -6.5t-9.5 3.5zM585 60q1 -6 -1 -5.5t-4.5 3.5t-5 7t-2.5 5q-24 44 -38 89.5t-22 92t-13.5 94t-13 97t-19.5 100.5t-34 104q-1 2 -3 7t0 6q2 0 5 -3l4 -4q22 -26 39 -69t30 -92t21.5 -97t13.5 -84q8 -57 17 -120t23 -119zM288 314
q29 -3 57.5 -7t57.5 -6q-11 53 -19 105t-15 106q-13 -52 -35.5 -101t-45.5 -97zM617 -14q-20 9 -35 17.5t-26 23.5q-17 23 -26.5 46t-15.5 43q-2 8 -3.5 18t0.5 10q4 0 10 -13t11 -22q15 -31 38 -62.5t50 -51.5q8 -7 5 -9t-8 0zM26 178h-2h-1q0 3 1 6l2 6q8 17 15.5 25.5
t24.5 18.5q10 6 28 12t29 6q2 0 5.5 -0.5t3.5 -3.5t-10.5 -8t-13.5 -7q-38 -23 -56 -35t-26 -20zM307 813q6 2 5 -2t-3 -9q-5 -9 -8 -14.5t-5 -10t-4 -10t-5 -15.5q-2 -5 -3.5 -6t-2.5 -2q-3 -2 -4.5 3t-1.5 13q0 6 1.5 14t5.5 16t10 14.5t15 8.5zM270 774q-3 -9 -4 -9
q-2 0 -3.5 6t-1.5 11q0 38 8.5 59.5t23 33.5t32.5 18t36 13t34.5 18.5t27.5 35.5q2 5 5 -1t5 -15q3 -18 -9.5 -32t-30.5 -24.5t-38 -18t-33 -13.5q-27 -13 -37.5 -34.5t-14.5 -47.5zM304 765q0 10 23 22t52.5 26.5t57.5 32.5t38 40h2q4 0 4.5 -6t0.5 -8q0 -22 -19.5 -42
t-47.5 -35.5t-57.5 -24.5t-49.5 -9q-4 0 -4 4zM341 833q2 7 18.5 16t36 21t35 29.5t15.5 41.5q0 3 0.5 3t5.5 -2q6 -5 7.5 -18.5t1.5 -21.5q0 -18 -11 -32t-28 -23t-37 -14t-37 -5q-2 0 -5 0.5t-2 4.5z" />
    <glyph glyph-name="Acircumflex" unicode="&#xc2;" horiz-adv-x="620" 
d="M347 716q-2 3 -5.5 9.5t-1.5 8.5t6.5 -1t5.5 -4q18 -13 33.5 -36t28 -50.5t22.5 -57.5t16 -57q15 -66 25.5 -130t10.5 -132q0 -2 0.5 -12t-3.5 -12q-3 2 -6.5 10t-4.5 11q-12 37 -21.5 84.5t-17.5 86.5q-6 30 -11 57.5t-11.5 53.5t-15 52.5t-20.5 55.5q-2 4 -6.5 14
t-9.5 20t-9 18.5t-5 10.5zM587 -25q-11 6 -15 7.5t-15 8.5q-24 14 -44 36.5t-36 49.5t-28.5 57.5t-21.5 60.5q-20 -13 -47.5 -15.5t-50.5 -2.5q-29 0 -57.5 2t-57.5 2q-28 -52 -52.5 -100.5t-38.5 -90.5q0 -1 -1 -4.5t-3 -3.5q-3 0 -3 7v9q0 40 19.5 89.5t43.5 97.5l-15 1
q-6 -14 -16.5 -39t-20 -52t-17 -52t-7.5 -40q0 -3 -3 -3q-4 0 -6 6.5t-3.5 14.5t-2 16.5t-0.5 11.5q0 35 9 73.5t24 70.5l-13 2q-9 -22 -17 -43.5t-14 -44.5q0 -2 -1 -5t-3 -2q-2 4 -2.5 9.5t-0.5 9.5q0 42 15 81q5 10 10 10q21 6 42.5 7t44.5 1q50 0 99 -7.5t98 -7.5
q24 0 44 4l-2 16q-11 -3 -23.5 -4t-23.5 -1q-39 0 -80.5 8t-79.5 19q-2 2 -8 3.5t-6 4.5q0 2 6 3.5t8 1.5q14 1 27.5 1.5t27.5 0.5q23 0 46 -0.5t47 -0.5h25t25 1l-2 11h-13q-48 0 -95.5 9t-95.5 9q-41 0 -72.5 -10t-54 -23t-36.5 -26t-20 -19l-2 -1q-1 0 -1 2q0 1 1 2
q18 35 44 58.5t64 35.5q38 81 78.5 161t85.5 158q1 2 4 6.5t6 4.5q1 -1 1 -2v-2q0 -8 -1 -12q-19 -81 -56 -156t-76 -148l19 1q3 6 15.5 26t27 41.5t26.5 39t15 17.5l1 -3q0 -5 -6 -22t-14 -37t-15.5 -37.5l-10.5 -24.5q6 0 12 -0.5t12 -0.5q18 36 38.5 75.5t35.5 80.5
t20.5 83t-6.5 83q0 -5 -2.5 -20t-6.5 -31.5t-8 -29t-8 -12.5q-3 0 -2.5 4t0.5 5q0 26 3.5 51.5t3.5 51.5q0 35 -11 68q0 1 -3 8.5t2 7.5q2 0 7 -5q10 -10 19.5 -27t17.5 -36.5t15 -38.5t11 -32q13 -43 21.5 -86.5t15 -87t13.5 -87.5t16 -87q9 -42 21.5 -82t30.5 -76
t41.5 -66.5t54.5 -53.5q5 -5 3.5 -6.5t-9.5 3.5zM585 60q1 -6 -1 -5.5t-4.5 3.5t-5 7t-2.5 5q-24 44 -38 89.5t-22 92t-13.5 94t-13 97t-19.5 100.5t-34 104q-1 2 -3 7t0 6q2 0 5 -3l4 -4q22 -26 39 -69t30 -92t21.5 -97t13.5 -84q8 -57 17 -120t23 -119zM288 314
q29 -3 57.5 -7t57.5 -6q-11 53 -19 105t-15 106q-13 -52 -35.5 -101t-45.5 -97zM617 -14q-20 9 -35 17.5t-26 23.5q-17 23 -26.5 46t-15.5 43q-2 8 -3.5 18t0.5 10q4 0 10 -13t11 -22q15 -31 38 -62.5t50 -51.5q8 -7 5 -9t-8 0zM26 178h-2h-1q0 3 1 6l2 6q8 17 15.5 25.5
t24.5 18.5q10 6 28 12t29 6q2 0 5.5 -0.5t3.5 -3.5t-10.5 -8t-13.5 -7q-38 -23 -56 -35t-26 -20zM203 846q2 11 13 24.5t26.5 23.5t33.5 15t34 0q8 -3 16.5 -7.5t15 -9t10 -9t2.5 -7.5q-1 -2 -5.5 0.5t-9.5 3.5q-27 6 -52.5 2t-47.5 -23q-8 -6 -16 -16.5t-11 -18.5
q-3 -6 -4 -4q-5 4 -5.5 12.5t0.5 13.5zM510 772q-25 0 -40.5 9t-26 23t-18.5 30.5t-17.5 31.5t-22.5 26.5t-34 14.5q-13 2 -21 8.5t-12.5 13.5t-5.5 13t1 7q4 1 6.5 -2.5t6 -7.5t11.5 -8t25 -4q28 -1 45.5 -10t29 -22.5t18.5 -30t14.5 -33t17 -30.5t26.5 -22q5 -2 6.5 -4.5
t-9.5 -2.5zM421 750q0 -3 -5.5 -3.5t-6.5 -0.5q-28 0 -43.5 16t-23.5 33q-18 -9 -42 -17.5t-35 -24.5q-2 -3 -5.5 -10t-5.5 -7q-1 0 -2.5 3.5t-0.5 14.5q2 21 13 34.5t24 21.5t24.5 11.5t15.5 3.5l-9 24t-4.5 11l-2 4t-0.5 4q-2 4 0.5 5.5t5.5 -0.5q23 -8 33.5 -28t21.5 -42
q9 -19 20 -29t28 -23v-1zM494 761q-6 -5 -15.5 -6t-20.5 -1q-19 0 -33 9t-23 22.5t-13.5 30.5t-4.5 34q0 2 1 5t3 3q11 0 19 -17.5t22 -37.5q11 -14 26.5 -24t35.5 -17h2zM299 857q8 0 9.5 -4t-3.5 -9q-7 -8 -17.5 -15.5t-21 -17t-20 -23t-14.5 -34.5q-1 -5 -1 -8.5t-3 -3.5
q-2 0 -5 12q-5 11 -5.5 24.5t3.5 24.5q14 36 34.5 45t43.5 9z" />
    <glyph glyph-name="Atilde" unicode="&#xc3;" horiz-adv-x="620" 
d="M347 716q-2 3 -5.5 9.5t-1.5 8.5t6.5 -1t5.5 -4q18 -13 33.5 -36t28 -50.5t22.5 -57.5t16 -57q15 -66 25.5 -130t10.5 -132q0 -2 0.5 -12t-3.5 -12q-3 2 -6.5 10t-4.5 11q-12 37 -21.5 84.5t-17.5 86.5q-6 30 -11 57.5t-11.5 53.5t-15 52.5t-20.5 55.5q-2 4 -6.5 14
t-9.5 20t-9 18.5t-5 10.5zM587 -25q-11 6 -15 7.5t-15 8.5q-24 14 -44 36.5t-36 49.5t-28.5 57.5t-21.5 60.5q-20 -13 -47.5 -15.5t-50.5 -2.5q-29 0 -57.5 2t-57.5 2q-28 -52 -52.5 -100.5t-38.5 -90.5q0 -1 -1 -4.5t-3 -3.5q-3 0 -3 7v9q0 40 19.5 89.5t43.5 97.5l-15 1
q-6 -14 -16.5 -39t-20 -52t-17 -52t-7.5 -40q0 -3 -3 -3q-4 0 -6 6.5t-3.5 14.5t-2 16.5t-0.5 11.5q0 35 9 73.5t24 70.5l-13 2q-9 -22 -17 -43.5t-14 -44.5q0 -2 -1 -5t-3 -2q-2 4 -2.5 9.5t-0.5 9.5q0 42 15 81q5 10 10 10q21 6 42.5 7t44.5 1q50 0 99 -7.5t98 -7.5
q24 0 44 4l-2 16q-11 -3 -23.5 -4t-23.5 -1q-39 0 -80.5 8t-79.5 19q-2 2 -8 3.5t-6 4.5q0 2 6 3.5t8 1.5q14 1 27.5 1.5t27.5 0.5q23 0 46 -0.5t47 -0.5h25t25 1l-2 11h-13q-48 0 -95.5 9t-95.5 9q-41 0 -72.5 -10t-54 -23t-36.5 -26t-20 -19l-2 -1q-1 0 -1 2q0 1 1 2
q18 35 44 58.5t64 35.5q38 81 78.5 161t85.5 158q1 2 4 6.5t6 4.5q1 -1 1 -2v-2q0 -8 -1 -12q-19 -81 -56 -156t-76 -148l19 1q3 6 15.5 26t27 41.5t26.5 39t15 17.5l1 -3q0 -5 -6 -22t-14 -37t-15.5 -37.5l-10.5 -24.5q6 0 12 -0.5t12 -0.5q18 36 38.5 75.5t35.5 80.5
t20.5 83t-6.5 83q0 -5 -2.5 -20t-6.5 -31.5t-8 -29t-8 -12.5q-3 0 -2.5 4t0.5 5q0 26 3.5 51.5t3.5 51.5q0 35 -11 68q0 1 -3 8.5t2 7.5q2 0 7 -5q10 -10 19.5 -27t17.5 -36.5t15 -38.5t11 -32q13 -43 21.5 -86.5t15 -87t13.5 -87.5t16 -87q9 -42 21.5 -82t30.5 -76
t41.5 -66.5t54.5 -53.5q5 -5 3.5 -6.5t-9.5 3.5zM585 60q1 -6 -1 -5.5t-4.5 3.5t-5 7t-2.5 5q-24 44 -38 89.5t-22 92t-13.5 94t-13 97t-19.5 100.5t-34 104q-1 2 -3 7t0 6q2 0 5 -3l4 -4q22 -26 39 -69t30 -92t21.5 -97t13.5 -84q8 -57 17 -120t23 -119zM288 314
q29 -3 57.5 -7t57.5 -6q-11 53 -19 105t-15 106q-13 -52 -35.5 -101t-45.5 -97zM617 -14q-20 9 -35 17.5t-26 23.5q-17 23 -26.5 46t-15.5 43q-2 8 -3.5 18t0.5 10q4 0 10 -13t11 -22q15 -31 38 -62.5t50 -51.5q8 -7 5 -9t-8 0zM26 178h-2h-1q0 3 1 6l2 6q8 17 15.5 25.5
t24.5 18.5q10 6 28 12t29 6q2 0 5.5 -0.5t3.5 -3.5t-10.5 -8t-13.5 -7q-38 -23 -56 -35t-26 -20zM273 813q-2 3 8 7t19 5q11 1 25 -6.5t30 -17t33.5 -17.5t34.5 -8q18 0 30.5 4.5t20.5 10t13.5 10.5t8.5 5q0 -1 0.5 -2.5t0.5 -2.5q0 -12 -8.5 -22.5t-21 -18.5t-26.5 -12.5
t-24 -4.5q-28 0 -55 13.5t-47 31.5q-10 9 -17 12.5t-12.5 4.5t-8.5 2t-4 6zM203 806q0 22 8 42.5t22 36t33 24.5t42 9q30 0 53 -9t39.5 -19.5t27.5 -19.5t17 -9q10 0 17 1.5t18 7.5q3 2 6 2t1 -4q-13 -19 -23 -25.5t-27 -6.5q-7 0 -21 8l-31.5 18t-38 18t-40.5 8
q-25 0 -41 -11.5t-27 -26.5t-18.5 -29t-15.5 -20q-1 1 -1 5zM458 810q0 4 5.5 13t13 17.5t14.5 15.5t12 8q4 0 4 -5q0 -7 -4 -16.5t-11 -17.5t-15 -14t-15 -6q-4 0 -4 5zM306 875q11 0 23.5 -4.5t24 -11.5t20.5 -17t14 -20q-1 -4 -7 -4q-11 0 -21 3.5t-19.5 7.5t-19 7.5
t-19.5 3.5q-12 0 -21 -5.5t-17.5 -11.5t-17.5 -11.5t-20 -5.5v6q14 24 31 43.5t49 19.5z" />
    <glyph glyph-name="Adieresis" unicode="&#xc4;" horiz-adv-x="620" 
d="M347 716q-2 3 -5.5 9.5t-1.5 8.5t6.5 -1t5.5 -4q18 -13 33.5 -36t28 -50.5t22.5 -57.5t16 -57q15 -66 25.5 -130t10.5 -132q0 -2 0.5 -12t-3.5 -12q-3 2 -6.5 10t-4.5 11q-12 37 -21.5 84.5t-17.5 86.5q-6 30 -11 57.5t-11.5 53.5t-15 52.5t-20.5 55.5q-2 4 -6.5 14
t-9.5 20t-9 18.5t-5 10.5zM587 -25q-11 6 -15 7.5t-15 8.5q-24 14 -44 36.5t-36 49.5t-28.5 57.5t-21.5 60.5q-20 -13 -47.5 -15.5t-50.5 -2.5q-29 0 -57.5 2t-57.5 2q-28 -52 -52.5 -100.5t-38.5 -90.5q0 -1 -1 -4.5t-3 -3.5q-3 0 -3 7v9q0 40 19.5 89.5t43.5 97.5l-15 1
q-6 -14 -16.5 -39t-20 -52t-17 -52t-7.5 -40q0 -3 -3 -3q-4 0 -6 6.5t-3.5 14.5t-2 16.5t-0.5 11.5q0 35 9 73.5t24 70.5l-13 2q-9 -22 -17 -43.5t-14 -44.5q0 -2 -1 -5t-3 -2q-2 4 -2.5 9.5t-0.5 9.5q0 42 15 81q5 10 10 10q21 6 42.5 7t44.5 1q50 0 99 -7.5t98 -7.5
q24 0 44 4l-2 16q-11 -3 -23.5 -4t-23.5 -1q-39 0 -80.5 8t-79.5 19q-2 2 -8 3.5t-6 4.5q0 2 6 3.5t8 1.5q14 1 27.5 1.5t27.5 0.5q23 0 46 -0.5t47 -0.5h25t25 1l-2 11h-13q-48 0 -95.5 9t-95.5 9q-41 0 -72.5 -10t-54 -23t-36.5 -26t-20 -19l-2 -1q-1 0 -1 2q0 1 1 2
q18 35 44 58.5t64 35.5q38 81 78.5 161t85.5 158q1 2 4 6.5t6 4.5q1 -1 1 -2v-2q0 -8 -1 -12q-19 -81 -56 -156t-76 -148l19 1q3 6 15.5 26t27 41.5t26.5 39t15 17.5l1 -3q0 -5 -6 -22t-14 -37t-15.5 -37.5l-10.5 -24.5q6 0 12 -0.5t12 -0.5q18 36 38.5 75.5t35.5 80.5
t20.5 83t-6.5 83q0 -5 -2.5 -20t-6.5 -31.5t-8 -29t-8 -12.5q-3 0 -2.5 4t0.5 5q0 26 3.5 51.5t3.5 51.5q0 35 -11 68q0 1 -3 8.5t2 7.5q2 0 7 -5q10 -10 19.5 -27t17.5 -36.5t15 -38.5t11 -32q13 -43 21.5 -86.5t15 -87t13.5 -87.5t16 -87q9 -42 21.5 -82t30.5 -76
t41.5 -66.5t54.5 -53.5q5 -5 3.5 -6.5t-9.5 3.5zM585 60q1 -6 -1 -5.5t-4.5 3.5t-5 7t-2.5 5q-24 44 -38 89.5t-22 92t-13.5 94t-13 97t-19.5 100.5t-34 104q-1 2 -3 7t0 6q2 0 5 -3l4 -4q22 -26 39 -69t30 -92t21.5 -97t13.5 -84q8 -57 17 -120t23 -119zM288 314
q29 -3 57.5 -7t57.5 -6q-11 53 -19 105t-15 106q-13 -52 -35.5 -101t-45.5 -97zM617 -14q-20 9 -35 17.5t-26 23.5q-17 23 -26.5 46t-15.5 43q-2 8 -3.5 18t0.5 10q4 0 10 -13t11 -22q15 -31 38 -62.5t50 -51.5q8 -7 5 -9t-8 0zM26 178h-2h-1q0 3 1 6l2 6q8 17 15.5 25.5
t24.5 18.5q10 6 28 12t29 6q2 0 5.5 -0.5t3.5 -3.5t-10.5 -8t-13.5 -7q-38 -23 -56 -35t-26 -20zM252 743q-5 0 -15.5 1.5t-10.5 9.5q0 3 9 7.5t20 13t20 22t9 34.5q0 26 -10 39q-2 3 -5 6.5t-2 4.5q2 0 4.5 -1.5t3.5 -2.5q20 -11 31 -28.5t11 -33.5q0 -32 -15.5 -52
t-49.5 -20zM215 783q-12 -5 -12 6q0 8 6 15.5t11.5 16.5t7.5 20.5t-6 28.5q-2 5 -7 11t-3 7t8.5 -1.5t8.5 -3.5q17 -8 25.5 -24t8.5 -28q0 -19 -15.5 -31.5t-32.5 -16.5zM186 837q0 5 3.5 11.5t9.5 6.5q5 0 8 -6.5t3 -11.5q0 -4 -3 -10.5t-8 -6.5q-6 0 -9.5 6t-3.5 11z
M458 743q-5 0 -15.5 1.5t-10.5 9.5q0 3 9 7.5t19.5 13t19.5 22t9 34.5q0 25 -9 39q-2 3 -5.5 6.5t-1.5 4.5q1 0 4 -1.5t4 -2.5q20 -11 30.5 -28.5t10.5 -33.5q0 -32 -15 -52t-49 -20zM421 783q-5 -2 -9 -1.5t-4 7.5q0 8 6 15.5t12 16.5t8 20.5t-6 28.5q-2 5 -7 11t-3 7
t8 -1.5t8 -3.5q17 -8 26 -24t9 -28q0 -19 -15.5 -31.5t-32.5 -16.5zM392 837q0 5 3 11.5t9 6.5q5 0 8 -6.5t3 -11.5q0 -4 -3 -10.5t-8 -6.5q-6 0 -9 6t-3 11z" />
    <glyph glyph-name="Aring" unicode="&#xc5;" horiz-adv-x="620" 
d="M347 716q-2 3 -5.5 9.5t-1.5 8.5t6.5 -1t5.5 -4q18 -13 33.5 -36t28 -50.5t22.5 -57.5t16 -57q15 -66 25.5 -130t10.5 -132q0 -2 0.5 -12t-3.5 -12q-3 2 -6.5 10t-4.5 11q-12 37 -21.5 84.5t-17.5 86.5q-6 30 -11 57.5t-11.5 53.5t-15 52.5t-20.5 55.5q-2 4 -6.5 14
t-9.5 20t-9 18.5t-5 10.5zM587 -25q-11 6 -15 7.5t-15 8.5q-24 14 -44 36.5t-36 49.5t-28.5 57.5t-21.5 60.5q-20 -13 -47.5 -15.5t-50.5 -2.5q-29 0 -57.5 2t-57.5 2q-28 -52 -52.5 -100.5t-38.5 -90.5q0 -1 -1 -4.5t-3 -3.5q-3 0 -3 7v9q0 40 19.5 89.5t43.5 97.5l-15 1
q-6 -14 -16.5 -39t-20 -52t-17 -52t-7.5 -40q0 -3 -3 -3q-4 0 -6 6.5t-3.5 14.5t-2 16.5t-0.5 11.5q0 35 9 73.5t24 70.5l-13 2q-9 -22 -17 -43.5t-14 -44.5q0 -2 -1 -5t-3 -2q-2 4 -2.5 9.5t-0.5 9.5q0 42 15 81q5 10 10 10q21 6 42.5 7t44.5 1q50 0 99 -7.5t98 -7.5
q24 0 44 4l-2 16q-11 -3 -23.5 -4t-23.5 -1q-39 0 -80.5 8t-79.5 19q-2 2 -8 3.5t-6 4.5q0 2 6 3.5t8 1.5q14 1 27.5 1.5t27.5 0.5q23 0 46 -0.5t47 -0.5h25t25 1l-2 11h-13q-48 0 -95.5 9t-95.5 9q-41 0 -72.5 -10t-54 -23t-36.5 -26t-20 -19l-2 -1q-1 0 -1 2q0 1 1 2
q18 35 44 58.5t64 35.5q38 81 78.5 161t85.5 158q1 2 4 6.5t6 4.5q1 -1 1 -2v-2q0 -8 -1 -12q-19 -81 -56 -156t-76 -148l19 1q3 6 15.5 26t27 41.5t26.5 39t15 17.5l1 -3q0 -5 -6 -22t-14 -37t-15.5 -37.5l-10.5 -24.5q6 0 12 -0.5t12 -0.5q18 36 38.5 75.5t35.5 80.5
t20.5 83t-6.5 83q0 -5 -2.5 -20t-6.5 -31.5t-8 -29t-8 -12.5q-3 0 -2.5 4t0.5 5q0 26 3.5 51.5t3.5 51.5q0 35 -11 68q0 1 -3 8.5t2 7.5q2 0 7 -5q10 -10 19.5 -27t17.5 -36.5t15 -38.5t11 -32q13 -43 21.5 -86.5t15 -87t13.5 -87.5t16 -87q9 -42 21.5 -82t30.5 -76
t41.5 -66.5t54.5 -53.5q5 -5 3.5 -6.5t-9.5 3.5zM585 60q1 -6 -1 -5.5t-4.5 3.5t-5 7t-2.5 5q-24 44 -38 89.5t-22 92t-13.5 94t-13 97t-19.5 100.5t-34 104q-1 2 -3 7t0 6q2 0 5 -3l4 -4q22 -26 39 -69t30 -92t21.5 -97t13.5 -84q8 -57 17 -120t23 -119zM288 314
q29 -3 57.5 -7t57.5 -6q-11 53 -19 105t-15 106q-13 -52 -35.5 -101t-45.5 -97zM617 -14q-20 9 -35 17.5t-26 23.5q-17 23 -26.5 46t-15.5 43q-2 8 -3.5 18t0.5 10q4 0 10 -13t11 -22q15 -31 38 -62.5t50 -51.5q8 -7 5 -9t-8 0zM26 178h-2h-1q0 3 1 6l2 6q8 17 15.5 25.5
t24.5 18.5q10 6 28 12t29 6q2 0 5.5 -0.5t3.5 -3.5t-10.5 -8t-13.5 -7q-38 -23 -56 -35t-26 -20zM238 851q0 9 2.5 22t7 25.5t12 22.5t17.5 12l3 -1v-2q-4 -15 -9.5 -27.5t-5.5 -29.5q0 -21 7.5 -39.5t21 -33t32 -22.5t39.5 -8q41 0 70 26t29 67q0 26 -8.5 36.5t-9.5 19.5
q12 0 19 -7.5t11.5 -18t6 -22t1.5 -20.5q0 -27 -10 -48t-27 -36t-39.5 -23t-47.5 -8t-47 8.5t-38.5 23.5t-26.5 36t-10 47zM312 825l4 4h2q11 -6 19.5 -9t20.5 -3q21 0 36.5 13t15.5 35q0 18 -12.5 29.5t-29.5 11.5q0 3 4 5t9 3.5t10 2.5t7 1q25 0 39 -17.5t14 -41.5
q0 -33 -24.5 -53.5t-55.5 -20.5q-8 0 -18 2.5t-19 7.5t-15.5 12.5t-6.5 17.5zM334 902q0 -10 6 -24.5t18 -14.5q11 0 11 9q0 7 -8.5 8.5t-14.5 1.5v2q0 5 10 7t15 2q10 0 19 -6.5t9 -17.5q0 -14 -10 -23t-24 -9q-9 0 -17 6t-15 14.5t-11 18t-4 17.5q0 20 9 37.5t23 30.5
l1 -2q-7 -14 -12 -28t-5 -29zM346 989q0 -7 -3.5 -12.5t-6.5 -10.5q-14 -22 -22 -45t-15 -47l-4 -2q-5 0 -6 7t-1 12q0 10 5 26.5t13 32t18.5 27.5t21.5 12z" />
    </font>
</defs>
</svg>
