<svg width="32" height="32" viewBox="0 0 32 32" fill="none" xmlns="http://www.w3.org/2000/svg">
<path d="M25.3333 9.33335H21.3333V8.00002C21.3333 6.58553 20.7714 5.22898 19.7712 4.22878C18.771 3.22859 17.4145 2.66669 16 2.66669C14.5855 2.66669 13.2289 3.22859 12.2287 4.22878C11.2285 5.22898 10.6666 6.58553 10.6666 8.00002V9.33335H6.66665C6.31302 9.33335 5.97389 9.47383 5.72384 9.72388C5.47379 9.97393 5.33331 10.3131 5.33331 10.6667L5.33331 25.3334C5.33331 26.3942 5.75474 27.4116 6.50489 28.1618C7.25503 28.9119 8.27245 29.3334 9.33331 29.3334H22.6666C23.7275 29.3334 24.7449 28.9119 25.4951 28.1618C26.2452 27.4116 26.6666 26.3942 26.6666 25.3334V10.6667C26.6666 10.3131 26.5262 9.97393 26.2761 9.72388C26.0261 9.47383 25.6869 9.33335 25.3333 9.33335ZM13.3333 8.00002C13.3333 7.29278 13.6143 6.6145 14.1144 6.1144C14.6145 5.6143 15.2927 5.33335 16 5.33335C16.7072 5.33335 17.3855 5.6143 17.8856 6.1144C18.3857 6.6145 18.6666 7.29278 18.6666 8.00002V9.33335H13.3333V8.00002ZM24 25.3334C24 25.687 23.8595 26.0261 23.6095 26.2762C23.3594 26.5262 23.0203 26.6667 22.6666 26.6667H9.33331C8.97969 26.6667 8.64055 26.5262 8.3905 26.2762C8.14046 26.0261 7.99998 25.687 7.99998 25.3334L7.99998 12H10.6666V13.3334C10.6666 13.687 10.8071 14.0261 11.0572 14.2762C11.3072 14.5262 11.6464 14.6667 12 14.6667C12.3536 14.6667 12.6927 14.5262 12.9428 14.2762C13.1928 14.0261 13.3333 13.687 13.3333 13.3334V12H18.6666V13.3334C18.6666 13.687 18.8071 14.0261 19.0572 14.2762C19.3072 14.5262 19.6464 14.6667 20 14.6667C20.3536 14.6667 20.6927 14.5262 20.9428 14.2762C21.1928 14.0261 21.3333 13.687 21.3333 13.3334V12H24V25.3334Z" fill="#403C39"/>
</svg>
