<svg width="96" height="96" viewBox="0 0 96 96" fill="none" xmlns="http://www.w3.org/2000/svg">
<path d="M36.8749 32.5497V65.3824C36.8749 65.3824 41.5817 67.5679 55.9446 67.5679C66.4765 67.5679 75.0143 65.5579 75.0143 63.0784V32.5497H36.8749Z" fill="#E4E5E6"/>
<path d="M75.0176 32.5491V63.08C75.0176 65.5599 66.4764 67.5662 55.9451 67.5662C55.1575 67.5662 54.3964 67.5609 53.6674 67.5449C63.2835 67.3108 70.7817 65.4055 70.7817 63.08V32.5491H75.0176Z" fill="#D4D4D4"/>
<path d="M36.8749 53.9557V65.3824C36.8749 65.3824 41.5817 67.5678 55.9446 67.5678C66.4765 67.5678 75.0143 65.5579 75.0143 63.0786V53.6028L36.8749 53.9557Z" fill="#FFAD31"/>
<path d="M75.0183 53.6015V63.0799C75.0183 65.5599 66.4771 67.5663 55.9458 67.5663C55.1794 67.5663 54.4397 67.561 53.7266 67.545C63.3427 67.3162 70.8516 65.4056 70.8516 63.0799V53.6386L75.0183 53.6015Z" fill="#FF8D29"/>
<path d="M55.9446 58.4175C66.4765 58.4175 75.0143 56.366 75.0143 53.8353C75.0143 51.3047 66.4765 49.2532 55.9446 49.2532C45.4127 49.2532 36.8749 51.3047 36.8749 53.8353C36.8749 56.366 45.4127 58.4175 55.9446 58.4175Z" fill="#FFAD31"/>
<path d="M75.0177 53.8356C75.0177 56.3633 66.4761 58.4175 55.9443 58.4175C55.0767 58.4175 54.2253 58.4015 53.3897 58.3749C62.7136 58.0768 69.9087 56.1558 69.9087 53.8356C69.9087 51.51 62.7136 49.5943 53.3897 49.2962C54.2253 49.2696 55.0767 49.2537 55.9443 49.2537C66.4761 49.2537 75.0177 51.3025 75.0177 53.8356Z" fill="#FF8D29"/>
<path d="M35.9658 27.6106V30.9792C35.9658 33.5768 44.9103 35.6825 55.9438 35.6825C66.9774 35.6825 75.9219 33.5768 75.9219 30.9792V27.6106H35.9658Z" fill="#FF6B6E"/>
<path d="M75.9215 27.6103V30.9787C75.9215 33.5755 66.9809 35.6828 55.9435 35.6828C55.0441 35.6828 54.1553 35.6668 53.2879 35.6402C63.0694 35.3368 70.6103 33.3626 70.6103 30.9787V27.6103H75.9215V27.6103Z" fill="#DB4A4D"/>
<path d="M55.9438 32.1001C66.9774 32.1001 75.9219 29.9896 75.9219 27.3861C75.9219 24.7826 66.9774 22.6721 55.9438 22.6721C44.9103 22.6721 35.9658 24.7826 35.9658 27.3861C35.9658 29.9896 44.9103 32.1001 55.9438 32.1001Z" fill="#FFAD31"/>
<path d="M38.8529 27.9682C38.6009 27.9682 38.3528 27.849 38.1976 27.6266C37.9453 27.2651 38.0338 26.7675 38.3953 26.5152C39.2885 25.8919 40.7056 25.3496 42.6072 24.9033C43.0358 24.8031 43.466 25.069 43.5668 25.4981C43.6675 25.9273 43.4012 26.3569 42.972 26.4577C40.8496 26.9557 39.8087 27.4757 39.3091 27.8243C39.17 27.9215 39.0107 27.9682 38.8529 27.9682ZM48.948 52.2719C48.6181 52.2719 48.3095 52.0658 48.1944 51.7369C48.049 51.3206 48.2684 50.8653 48.6846 50.7198C49.3365 50.4919 50.193 50.3511 51.2303 50.3011C51.6735 50.2799 52.0449 50.6195 52.0662 51.06C52.0874 51.5004 51.7476 51.8746 51.3073 51.8958C50.4234 51.9384 49.7183 52.0497 49.2115 52.2269C49.1244 52.2573 49.0354 52.2719 48.948 52.2719Z" fill="#FFE8C4"/>
<path d="M75.9245 27.3874C75.9245 29.9897 66.9839 32.1026 55.9465 32.1026C55.1641 32.1026 54.3925 32.092 53.6314 32.0706C63.5726 31.7992 71.2892 29.8035 71.2892 27.3874C71.2892 24.9712 63.5726 22.9755 53.6314 22.7041C54.3925 22.6828 55.1641 22.6721 55.9465 22.6721C66.9839 22.6721 75.9245 24.785 75.9245 27.3874Z" fill="#FF8D29"/>
<path d="M56.6573 52.9658C57.8214 50.9994 59.5838 51.2605 59.5838 51.2605C59.5838 51.2605 64.1348 36.0841 68.013 37.0428C69.9964 37.533 68.013 44.3968 61.0713 51.7508C61.0713 51.7508 61.6012 52.649 61.3253 53.9171L56.6573 52.9658Z" fill="#FF6B6E"/>
<path d="M61.0741 51.7489C61.0741 51.7489 61.6009 52.6482 61.3242 53.9147L59.4883 53.5422C59.4883 53.5336 59.4882 53.525 59.4881 53.5164C59.4737 52.4568 59.818 51.4312 60.5104 50.629C66.0764 44.1798 67.7896 38.4337 66.3318 37.5245C66.8958 37.0934 67.4599 36.9019 68.0133 37.0402C69.9982 37.5351 68.0133 44.3945 61.0741 51.7489Z" fill="#DB4A4D"/>
<path d="M64.1622 54.5483C61.6793 51.4385 58.1204 53.2389 58.1204 53.2389C55.6374 50.7838 52.989 52.9116 52.989 52.9116C52.989 52.9116 52.3144 53.7104 52.5564 54.2922C53.0942 55.5851 61.0598 55.4446 63.3116 55.4506C64.7989 55.4546 64.1622 54.5483 64.1622 54.5483Z" fill="#FF8D29"/>
<path d="M42.5386 46.7119C45.5239 47.9449 47.7744 50.9488 47.7744 54.3477V74.3022L47.7151 74.2877C47.7151 75.9976 42.3413 77.3837 35.7124 77.3837C29.0834 77.3837 23.7096 75.9976 23.7096 74.2877V74.3022V54.3477C23.7096 50.9617 25.9498 47.9529 28.9171 46.7119H42.5386V46.7119Z" fill="#E4E5E6"/>
<path d="M47.7713 54.3464V74.3024L47.7128 74.2866C47.7128 76 42.338 77.3837 35.7126 77.3837C34.9569 77.3837 34.2119 77.3677 33.4935 77.3304C39.0652 77.0643 43.2799 75.8032 43.2799 74.2866L43.3384 74.3024V54.3464C43.3384 50.9513 41.0874 47.9447 38.102 46.71H42.5402C45.5256 47.9447 47.7713 50.9513 47.7713 54.3464Z" fill="#D4D4D4"/>
<path d="M28.9142 45.1202V47.6295C28.9142 48.5997 31.9634 49.3863 35.7247 49.3863C39.4861 49.3863 42.5353 48.5997 42.5353 47.6295V45.1202H28.9142Z" fill="#FFAD31"/>
<path d="M25.5266 72.3945C27.6462 73.2665 31.4056 73.8463 35.6901 73.8463C40.0464 73.8463 43.86 73.2469 45.9589 72.3504V54.2921C43.86 55.1885 40.0464 55.7879 35.6901 55.7879C31.4056 55.7879 27.6461 55.2081 25.5266 54.3362V72.3945Z" fill="#FF6B6E"/>
<path d="M45.957 54.2932V72.3493C43.8603 73.2486 40.0449 73.8447 35.6867 73.8447C35.0162 73.8447 34.3617 73.8287 33.7231 73.8021C35.1236 73.7426 36.4419 73.6202 37.633 73.4463C40.1311 73.0815 41.9925 70.9597 41.9925 68.4349V55.3255C43.6102 55.0648 44.9725 54.7134 45.957 54.2932Z" fill="#DB4A4D"/>
<path d="M42.5409 45.1189V47.6307C42.5409 48.5993 39.4918 49.3869 35.7297 49.3869C35.1177 49.3869 34.5218 49.3656 33.9523 49.3283C36.8471 49.126 38.9809 48.4396 38.9809 47.6307V45.1189H42.5409V45.1189Z" fill="#FF8D29"/>
<path d="M27.1007 40.3183V44.0384C27.1007 45.2997 31.0648 46.3222 35.9547 46.3222C40.8447 46.3222 44.8088 45.2997 44.8088 44.0384V40.3183H27.1007Z" fill="#FF6B6E"/>
<path d="M35.9547 42.4866C40.8447 42.4866 44.8088 41.4816 44.8088 40.2418C44.8088 39.0021 40.8447 37.997 35.9547 37.997C31.0648 37.997 27.1007 39.0021 27.1007 40.2418C27.1007 41.4816 31.0648 42.4866 35.9547 42.4866Z" fill="#FFAD31"/>
<path d="M44.8076 40.3186V44.0384C44.8076 45.2996 40.8429 46.3213 35.9524 46.3213C35.3457 46.3213 34.7551 46.3054 34.1803 46.2735C38.2194 46.0607 41.2527 45.14 41.2527 44.0384V40.3187H44.8076V40.3186Z" fill="#DB4A4D"/>
<path d="M44.8076 40.244C44.8076 41.484 40.8429 42.4844 35.9524 42.4844C35.3457 42.4844 34.7551 42.4685 34.1803 42.4366C38.2194 42.229 41.2527 41.3297 41.2527 40.244C41.2527 39.1584 38.2194 38.2538 34.1803 38.0463C34.755 38.0143 35.3457 37.9983 35.9524 37.9983C40.8429 37.9983 44.8076 39.0041 44.8076 40.244Z" fill="#FF8D29"/>
<path d="M29.8967 40.915C29.5669 40.915 29.2583 40.7091 29.1432 40.3801C28.9977 39.964 29.2169 39.5086 29.6331 39.3631C30.2849 39.135 31.1414 38.9941 32.1789 38.9443C32.6193 38.9231 32.9933 39.2628 33.0145 39.7033C33.0357 40.1436 32.6958 40.5177 32.2555 40.5389C31.3718 40.5814 30.6668 40.6927 30.1603 40.8699C30.073 40.9005 29.9841 40.915 29.8967 40.915ZM41.1887 62.854C41.0329 62.854 40.8853 62.8831 40.743 62.9244C40.0852 60.6802 37.995 59.038 35.5132 59.038C33.0315 59.038 30.9413 60.6802 30.2834 62.9244C30.1411 62.8831 29.9936 62.854 29.8378 62.854C28.9601 62.854 28.2486 63.5575 28.2486 64.4253C28.2486 65.2931 28.9601 65.9966 29.8378 65.9966C29.9936 65.9966 30.1411 65.9675 30.2834 65.9262C30.9413 68.1703 33.0315 69.8126 35.5132 69.8126C37.995 69.8126 40.0852 68.1703 40.743 65.9262C40.8853 65.9675 41.0328 65.9966 41.1887 65.9966C42.0663 65.9966 42.7778 65.2931 42.7778 64.4253C42.7778 63.5575 42.0663 62.854 41.1887 62.854Z" fill="#FFE8C4"/>
<path d="M41.6281 63.7949C41.4723 63.7949 41.3248 63.824 41.1825 63.8653C40.5246 61.6211 38.4343 59.9788 35.9525 59.9788C33.4707 59.9788 31.3804 61.621 30.7225 63.8653C30.5802 63.824 30.4327 63.7949 30.2768 63.7949C29.3992 63.7949 28.6877 64.4984 28.6877 65.3662C28.6877 66.234 29.3992 66.9375 30.2768 66.9375C30.4327 66.9375 30.5802 66.9084 30.7225 66.8671C31.3804 69.1113 33.4707 70.7536 35.9525 70.7536C38.4343 70.7536 40.5246 69.1113 41.1825 66.8671C41.3248 66.9084 41.4723 66.9375 41.6281 66.9375C42.5058 66.9375 43.2173 66.234 43.2173 65.3662C43.2173 64.4984 42.5058 63.7949 41.6281 63.7949Z" fill="#DB4A4D"/>
<path d="M41.1887 62.854C41.0329 62.854 40.8853 62.8831 40.743 62.9244C40.0852 60.6802 37.995 59.0379 35.5132 59.0379C33.0315 59.0379 30.9413 60.6801 30.2834 62.9244C30.1411 62.8831 29.9936 62.854 29.8378 62.854C28.9601 62.854 28.2486 63.5575 28.2486 64.4253C28.2486 65.2931 28.9601 65.9966 29.8378 65.9966C29.9936 65.9966 30.1411 65.9675 30.2834 65.9262C30.9413 68.1704 33.0315 69.8127 35.5132 69.8127C37.995 69.8127 40.0852 68.1704 40.743 65.9262C40.8853 65.9675 41.0328 65.9966 41.1887 65.9966C42.0663 65.9966 42.7778 65.2931 42.7778 64.4253C42.7778 63.5575 42.0663 62.854 41.1887 62.854Z" fill="#FFE8C4"/>
<path d="M35.7529 63.3061C35.7475 63.3061 35.7421 63.3061 35.7367 63.3061C35.0497 63.2993 34.4816 62.8713 34.217 62.1611C33.6041 60.5162 34.9069 59.185 35.6813 58.7108C35.9321 58.5575 36.2596 58.6361 36.413 58.8869C36.5662 59.1372 36.4878 59.4641 36.238 59.6179C36.1707 59.6598 34.7562 60.5602 35.2142 61.7895C35.3251 62.0873 35.5044 62.2395 35.7471 62.2419C35.9845 62.2398 36.1942 62.1025 36.247 61.9687C36.2956 61.8457 36.1792 61.7035 36.073 61.606C35.8565 61.4072 35.8422 61.0706 36.0409 60.8542C36.2395 60.6376 36.5762 60.6234 36.7927 60.8221C37.2831 61.2724 37.4449 61.8328 37.2368 62.3597C37.0159 62.9187 36.4073 63.3061 35.7529 63.3061Z" fill="#FFAD31"/>
<path d="M27.1017 61.3833C26.6609 61.3833 26.3035 61.0259 26.3035 60.5851V57.7697C26.3035 57.3289 26.6609 56.9714 27.1017 56.9714C27.5426 56.9714 27.9 57.3288 27.9 57.7697V60.5851C27.9 61.0259 27.5425 61.3833 27.1017 61.3833Z" fill="#FFD4D5"/>
</svg>
